<?xml version="1.0" encoding="UTF-8" standalone="no"?>
<!DOCTYPE svg PUBLIC "-//W3C//DTD SVG 1.1//EN"
 "http://www.w3.org/Graphics/SVG/1.1/DTD/svg11.dtd">
<!-- Generated by graphviz version 2.43.0 (0)
 -->
<!-- Pages: 1 -->
<svg width="887pt" height="948pt"
 viewBox="0.00 0.00 887.44 948.11" xmlns="http://www.w3.org/2000/svg" xmlns:xlink="http://www.w3.org/1999/xlink">
<g id="graph0" class="graph" transform="scale(1 1) rotate(0) translate(4 944.11)">
<polygon fill="white" stroke="transparent" points="-4,4 -4,-944.11 883.44,-944.11 883.44,4 -4,4"/>
<!-- 2&#45;2EWC -->
<g id="_2&#45;2EWC" class="node">
<title>2&#45;2EWC</title>
<ellipse fill="none" stroke="black" cx="312.61" cy="-701.57" rx="48.19" ry="18"/>
<text text-anchor="middle" x="312.61" y="-697.87" font-family="Times,serif" font-size="14.00">2&#45;2EWC</text>
</g>
<!-- LMM7&#45;L -->
<g id="LMM7&#45;L" class="node">
<title>LMM7&#45;L</title>
<ellipse fill="none" stroke="black" cx="436.98" cy="-708.1" rx="50.09" ry="18"/>
<text text-anchor="middle" x="436.98" y="-704.4" font-family="Times,serif" font-size="14.00">LMM7&#45;L</text>
</g>
<!-- 2&#45;2EWC&#45;&#45;LMM7&#45;L -->
<g id="edge1" class="edge">
<title>2&#45;2EWC&#45;&#45;LMM7&#45;L</title>
<path fill="none" stroke="black" d="M360.34,-704.07C369.11,-704.53 378.28,-705.02 387.11,-705.48"/>
</g>
<!-- 995&#45;3G -->
<g id="_995&#45;3G" class="node">
<title>995&#45;3G</title>
<ellipse fill="none" stroke="black" cx="262.48" cy="-657.56" rx="44.39" ry="18"/>
<text text-anchor="middle" x="262.48" y="-653.86" font-family="Times,serif" font-size="14.00">995&#45;3G</text>
</g>
<!-- 2&#45;2EWC&#45;&#45;995&#45;3G -->
<g id="edge2" class="edge">
<title>2&#45;2EWC&#45;&#45;995&#45;3G</title>
<path fill="none" stroke="black" d="M293.66,-684.93C289.55,-681.33 285.22,-677.52 281.12,-673.93"/>
</g>
<!-- Q&#45;UEN6 -->
<g id="Q&#45;UEN6" class="node">
<title>Q&#45;UEN6</title>
<ellipse fill="none" stroke="black" cx="328.87" cy="-745.63" rx="50.09" ry="18"/>
<text text-anchor="middle" x="328.87" y="-741.93" font-family="Times,serif" font-size="14.00">Q&#45;UEN6</text>
</g>
<!-- 2&#45;2EWC&#45;&#45;Q&#45;UEN6 -->
<g id="edge3" class="edge">
<title>2&#45;2EWC&#45;&#45;Q&#45;UEN6</title>
<path fill="none" stroke="black" d="M319.22,-719.49C320.21,-722.16 321.22,-724.91 322.21,-727.58"/>
</g>
<!-- D&#45;6H64 -->
<g id="D&#45;6H64" class="node">
<title>D&#45;6H64</title>
<ellipse fill="none" stroke="black" cx="250.19" cy="-613.52" rx="46.29" ry="18"/>
<text text-anchor="middle" x="250.19" y="-609.82" font-family="Times,serif" font-size="14.00">D&#45;6H64</text>
</g>
<!-- 995&#45;3G&#45;&#45;D&#45;6H64 -->
<g id="edge4" class="edge">
<title>995&#45;3G&#45;&#45;D&#45;6H64</title>
<path fill="none" stroke="black" d="M257.48,-639.65C256.73,-636.98 255.97,-634.23 255.22,-631.56"/>
</g>
<!-- YE1&#45;9S -->
<g id="YE1&#45;9S" class="node">
<title>YE1&#45;9S</title>
<ellipse fill="none" stroke="black" cx="273.09" cy="-789.68" rx="44.39" ry="18"/>
<text text-anchor="middle" x="273.09" y="-785.98" font-family="Times,serif" font-size="14.00">YE1&#45;9S</text>
</g>
<!-- Q&#45;UEN6&#45;&#45;YE1&#45;9S -->
<g id="edge5" class="edge">
<title>Q&#45;UEN6&#45;&#45;YE1&#45;9S</title>
<path fill="none" stroke="black" d="M308.1,-762.03C303.39,-765.75 298.39,-769.69 293.69,-773.41"/>
</g>
<!-- E1W&#45;TB -->
<g id="E1W&#45;TB" class="node">
<title>E1W&#45;TB</title>
<ellipse fill="none" stroke="black" cx="543.22" cy="-669.23" rx="48.19" ry="18"/>
<text text-anchor="middle" x="543.22" y="-665.53" font-family="Times,serif" font-size="14.00">E1W&#45;TB</text>
</g>
<!-- E1W&#45;TB&#45;&#45;LMM7&#45;L -->
<g id="edge6" class="edge">
<title>E1W&#45;TB&#45;&#45;LMM7&#45;L</title>
<path fill="none" stroke="black" d="M508.72,-681.85C497.09,-686.11 484.09,-690.86 472.39,-695.14"/>
</g>
<!-- I6&#45;SYN -->
<g id="I6&#45;SYN" class="node">
<title>I6&#45;SYN</title>
<ellipse fill="none" stroke="black" cx="642.49" cy="-628.31" rx="43" ry="18"/>
<text text-anchor="middle" x="642.49" y="-624.61" font-family="Times,serif" font-size="14.00">I6&#45;SYN</text>
</g>
<!-- E1W&#45;TB&#45;&#45;I6&#45;SYN -->
<g id="edge7" class="edge">
<title>E1W&#45;TB&#45;&#45;I6&#45;SYN</title>
<path fill="none" stroke="black" d="M575.72,-655.83C587.26,-651.08 600.2,-645.74 611.6,-641.04"/>
</g>
<!-- VK&#45;A5G -->
<g id="VK&#45;A5G" class="node">
<title>VK&#45;A5G</title>
<ellipse fill="none" stroke="black" cx="618.85" cy="-584.26" rx="46.29" ry="18"/>
<text text-anchor="middle" x="618.85" y="-580.56" font-family="Times,serif" font-size="14.00">VK&#45;A5G</text>
</g>
<!-- I6&#45;SYN&#45;&#45;VK&#45;A5G -->
<g id="edge8" class="edge">
<title>I6&#45;SYN&#45;&#45;VK&#45;A5G</title>
<path fill="none" stroke="black" d="M633.01,-610.64C631.47,-607.77 629.87,-604.8 628.33,-601.93"/>
</g>
<!-- O&#45;5TN1 -->
<g id="O&#45;5TN1" class="node">
<title>O&#45;5TN1</title>
<ellipse fill="none" stroke="black" cx="740.22" cy="-649.33" rx="47" ry="18"/>
<text text-anchor="middle" x="740.22" y="-645.63" font-family="Times,serif" font-size="14.00">O&#45;5TN1</text>
</g>
<!-- I6&#45;SYN&#45;&#45;O&#45;5TN1 -->
<g id="edge9" class="edge">
<title>I6&#45;SYN&#45;&#45;O&#45;5TN1</title>
<path fill="none" stroke="black" d="M680.84,-636.56C686.82,-637.84 693.04,-639.18 699.08,-640.48"/>
</g>
<!-- K&#45;IYNW -->
<g id="K&#45;IYNW" class="node">
<title>K&#45;IYNW</title>
<polygon fill="none" stroke="black" points="690.97,-711.36 619.97,-711.36 619.97,-675.36 690.97,-675.36 690.97,-711.36"/>
<text text-anchor="middle" x="655.47" y="-689.66" font-family="Times,serif" font-size="14.00">K&#45;IYNW</text>
</g>
<!-- I6&#45;SYN&#45;&#45;K&#45;IYNW -->
<g id="edge10" class="edge">
<title>I6&#45;SYN&#45;&#45;K&#45;IYNW</title>
<path fill="none" stroke="black" d="M646.11,-646.43C647.91,-655.45 650.08,-666.32 651.88,-675.33"/>
</g>
<!-- U&#45;QMOA -->
<g id="U&#45;QMOA" class="node">
<title>U&#45;QMOA</title>
<ellipse fill="none" stroke="black" cx="791.39" cy="-693.39" rx="51.5" ry="18"/>
<text text-anchor="middle" x="791.39" y="-689.69" font-family="Times,serif" font-size="14.00">U&#45;QMOA</text>
</g>
<!-- O&#45;5TN1&#45;&#45;U&#45;QMOA -->
<g id="edge11" class="edge">
<title>O&#45;5TN1&#45;&#45;U&#45;QMOA</title>
<path fill="none" stroke="black" d="M759.57,-665.99C763.64,-669.5 767.94,-673.2 772.02,-676.71"/>
</g>
<!-- 8&#45;BIE3 -->
<g id="_8&#45;BIE3" class="node">
<title>8&#45;BIE3</title>
<ellipse fill="none" stroke="black" cx="278.25" cy="-569.5" rx="42.49" ry="18"/>
<text text-anchor="middle" x="278.25" y="-565.8" font-family="Times,serif" font-size="14.00">8&#45;BIE3</text>
</g>
<!-- 8&#45;BIE3&#45;&#45;D&#45;6H64 -->
<g id="edge12" class="edge">
<title>8&#45;BIE3&#45;&#45;D&#45;6H64</title>
<path fill="none" stroke="black" d="M267.16,-586.9C265.26,-589.88 263.28,-592.98 261.38,-595.96"/>
</g>
<!-- W2T&#45;TR -->
<g id="W2T&#45;TR" class="node">
<title>W2T&#45;TR</title>
<ellipse fill="none" stroke="black" cx="302.69" cy="-833.72" rx="46.29" ry="18"/>
<text text-anchor="middle" x="302.69" y="-830.02" font-family="Times,serif" font-size="14.00">W2T&#45;TR</text>
</g>
<!-- W2T&#45;TR&#45;&#45;YE1&#45;9S -->
<g id="edge13" class="edge">
<title>W2T&#45;TR&#45;&#45;YE1&#45;9S</title>
<path fill="none" stroke="black" d="M290.82,-816.06C288.82,-813.09 286.75,-810.01 284.76,-807.05"/>
</g>
<!-- BLMX&#45;B -->
<g id="BLMX&#45;B" class="node">
<title>BLMX&#45;B</title>
<ellipse fill="none" stroke="black" cx="379.1" cy="-789.66" rx="48.99" ry="18"/>
<text text-anchor="middle" x="379.1" y="-785.96" font-family="Times,serif" font-size="14.00">BLMX&#45;B</text>
</g>
<!-- BLMX&#45;B&#45;&#45;Q&#45;UEN6 -->
<g id="edge14" class="edge">
<title>BLMX&#45;B&#45;&#45;Q&#45;UEN6</title>
<path fill="none" stroke="black" d="M360.11,-773.01C356.11,-769.51 351.89,-765.81 347.89,-762.3"/>
</g>
<!-- M&#45;CNUD -->
<g id="M&#45;CNUD" class="node">
<title>M&#45;CNUD</title>
<ellipse fill="none" stroke="black" cx="410.04" cy="-842.22" rx="52.79" ry="18"/>
<text text-anchor="middle" x="410.04" y="-838.52" font-family="Times,serif" font-size="14.00">M&#45;CNUD</text>
</g>
<!-- BLMX&#45;B&#45;&#45;M&#45;CNUD -->
<g id="edge15" class="edge">
<title>BLMX&#45;B&#45;&#45;M&#45;CNUD</title>
<path fill="none" stroke="black" d="M389.57,-807.46C392.8,-812.94 396.35,-818.97 399.57,-824.45"/>
</g>
<!-- C1G&#45;XC -->
<g id="C1G&#45;XC" class="node">
<title>C1G&#45;XC</title>
<polygon fill="none" stroke="black" points="220.83,-789.54 148.83,-789.54 148.83,-753.54 220.83,-753.54 220.83,-789.54"/>
<text text-anchor="middle" x="184.83" y="-767.84" font-family="Times,serif" font-size="14.00">C1G&#45;XC</text>
</g>
<!-- BLMX&#45;B&#45;&#45;C1G&#45;XC -->
<g id="edge16" class="edge">
<title>BLMX&#45;B&#45;&#45;C1G&#45;XC</title>
<path fill="none" stroke="black" d="M335.3,-781.44C325.59,-779.63 315.34,-777.72 305.79,-775.96 291.46,-773.31 288.06,-771.27 273.54,-770.08 256.35,-768.67 237.22,-768.77 221.14,-769.33"/>
</g>
<!-- M&#45;CNUD&#45;&#45;W2T&#45;TR -->
<g id="edge17" class="edge">
<title>M&#45;CNUD&#45;&#45;W2T&#45;TR</title>
<path fill="none" stroke="black" d="M358.56,-838.14C355.01,-837.86 351.45,-837.58 347.93,-837.3"/>
</g>
<!-- IVP&#45;KA -->
<g id="IVP&#45;KA" class="node">
<title>IVP&#45;KA</title>
<ellipse fill="none" stroke="black" cx="206" cy="-877.84" rx="42.49" ry="18"/>
<text text-anchor="middle" x="206" y="-874.14" font-family="Times,serif" font-size="14.00">IVP&#45;KA</text>
</g>
<!-- IVP&#45;KA&#45;&#45;W2T&#45;TR -->
<g id="edge18" class="edge">
<title>IVP&#45;KA&#45;&#45;W2T&#45;TR</title>
<path fill="none" stroke="black" d="M235.01,-864.6C246.91,-859.17 260.69,-852.88 272.69,-847.4"/>
</g>
<!-- 5&#45;2PQU -->
<g id="_5&#45;2PQU" class="node">
<title>5&#45;2PQU</title>
<polygon fill="none" stroke="black" points="166.21,-940.11 94.21,-940.11 94.21,-904.11 166.21,-904.11 166.21,-940.11"/>
<text text-anchor="middle" x="130.21" y="-918.41" font-family="Times,serif" font-size="14.00">5&#45;2PQU</text>
</g>
<!-- IVP&#45;KA&#45;&#45;5&#45;2PQU -->
<g id="edge19" class="edge">
<title>IVP&#45;KA&#45;&#45;5&#45;2PQU</title>
<path fill="none" stroke="black" d="M180.77,-892.58C174.48,-896.26 167.67,-900.24 161.14,-904.05"/>
</g>
<!-- 04EI&#45;U -->
<g id="_04EI&#45;U" class="node">
<title>04EI&#45;U</title>
<ellipse fill="none" stroke="black" cx="323.18" cy="-892.58" rx="43.59" ry="18"/>
<text text-anchor="middle" x="323.18" y="-888.88" font-family="Times,serif" font-size="14.00">04EI&#45;U</text>
</g>
<!-- 04EI&#45;U&#45;&#45;W2T&#45;TR -->
<g id="edge20" class="edge">
<title>04EI&#45;U&#45;&#45;W2T&#45;TR</title>
<path fill="none" stroke="black" d="M316.92,-874.6C314.37,-867.29 311.44,-858.88 308.91,-851.59"/>
</g>
<!-- 04EI&#45;U&#45;&#45;M&#45;CNUD -->
<g id="edge21" class="edge">
<title>04EI&#45;U&#45;&#45;M&#45;CNUD</title>
<path fill="none" stroke="black" d="M348.77,-877.74C359.58,-871.48 372.17,-864.18 383.12,-857.83"/>
</g>
<!-- B&#45;T6BT -->
<g id="B&#45;T6BT" class="node">
<title>B&#45;T6BT</title>
<ellipse fill="none" stroke="black" cx="600.17" cy="-540.24" rx="45" ry="18"/>
<text text-anchor="middle" x="600.17" y="-536.54" font-family="Times,serif" font-size="14.00">B&#45;T6BT</text>
</g>
<!-- B&#45;T6BT&#45;&#45;VK&#45;A5G -->
<g id="edge22" class="edge">
<title>B&#45;T6BT&#45;&#45;VK&#45;A5G</title>
<path fill="none" stroke="black" d="M607.77,-558.14C608.9,-560.81 610.07,-563.56 611.2,-566.23"/>
</g>
<!-- K&#45;RMI5 -->
<g id="K&#45;RMI5" class="node">
<title>K&#45;RMI5</title>
<ellipse fill="none" stroke="black" cx="488.34" cy="-551.41" rx="45.5" ry="18"/>
<text text-anchor="middle" x="488.34" y="-547.71" font-family="Times,serif" font-size="14.00">K&#45;RMI5</text>
</g>
<!-- B&#45;T6BT&#45;&#45;K&#45;RMI5 -->
<g id="edge23" class="edge">
<title>B&#45;T6BT&#45;&#45;K&#45;RMI5</title>
<path fill="none" stroke="black" d="M556.61,-544.59C548.76,-545.37 540.57,-546.19 532.7,-546.98"/>
</g>
<!-- 8&#45;SPNN -->
<g id="_8&#45;SPNN" class="node">
<title>8&#45;SPNN</title>
<ellipse fill="none" stroke="black" cx="706.66" cy="-532.2" rx="48.19" ry="18"/>
<text text-anchor="middle" x="706.66" y="-528.5" font-family="Times,serif" font-size="14.00">8&#45;SPNN</text>
</g>
<!-- 8&#45;SPNN&#45;&#45;B&#45;T6BT -->
<g id="edge24" class="edge">
<title>8&#45;SPNN&#45;&#45;B&#45;T6BT</title>
<path fill="none" stroke="black" d="M659.33,-535.78C654.33,-536.15 649.26,-536.53 644.3,-536.91"/>
</g>
<!-- JNG7&#45;K -->
<g id="JNG7&#45;K" class="node">
<title>JNG7&#45;K</title>
<polygon fill="none" stroke="black" points="834.48,-550.35 765.48,-550.35 765.48,-514.35 834.48,-514.35 834.48,-550.35"/>
<text text-anchor="middle" x="799.98" y="-528.65" font-family="Times,serif" font-size="14.00">JNG7&#45;K</text>
</g>
<!-- 8&#45;SPNN&#45;&#45;JNG7&#45;K -->
<g id="edge25" class="edge">
<title>8&#45;SPNN&#45;&#45;JNG7&#45;K</title>
<path fill="none" stroke="black" d="M754.96,-532.28C758.43,-532.29 761.89,-532.29 765.25,-532.3"/>
</g>
<!-- 4S0&#45;NP -->
<g id="_4S0&#45;NP" class="node">
<title>4S0&#45;NP</title>
<ellipse fill="none" stroke="black" cx="381.37" cy="-551.41" rx="46.29" ry="18"/>
<text text-anchor="middle" x="381.37" y="-547.71" font-family="Times,serif" font-size="14.00">4S0&#45;NP</text>
</g>
<!-- 4S0&#45;NP&#45;&#45;8&#45;BIE3 -->
<g id="edge26" class="edge">
<title>4S0&#45;NP&#45;&#45;8&#45;BIE3</title>
<path fill="none" stroke="black" d="M339.13,-558.82C332.01,-560.07 324.65,-561.36 317.6,-562.6"/>
</g>
<!-- 4S0&#45;NP&#45;&#45;K&#45;RMI5 -->
<g id="edge27" class="edge">
<title>4S0&#45;NP&#45;&#45;K&#45;RMI5</title>
<path fill="none" stroke="black" d="M427.67,-551.41C432.63,-551.41 437.69,-551.41 442.65,-551.41"/>
</g>
<!-- C&#45;6YHJ -->
<g id="C&#45;6YHJ" class="node">
<title>C&#45;6YHJ</title>
<ellipse fill="none" stroke="black" cx="457.54" cy="-507.4" rx="43.59" ry="18"/>
<text text-anchor="middle" x="457.54" y="-503.7" font-family="Times,serif" font-size="14.00">C&#45;6YHJ</text>
</g>
<!-- C&#45;6YHJ&#45;&#45;K&#45;RMI5 -->
<g id="edge28" class="edge">
<title>C&#45;6YHJ&#45;&#45;K&#45;RMI5</title>
<path fill="none" stroke="black" d="M469.71,-524.79C471.79,-527.77 473.96,-530.87 476.05,-533.85"/>
</g>
<!-- M53&#45;1V -->
<g id="M53&#45;1V" class="node">
<title>M53&#45;1V</title>
<ellipse fill="none" stroke="black" cx="395.44" cy="-463.38" rx="47" ry="18"/>
<text text-anchor="middle" x="395.44" y="-459.68" font-family="Times,serif" font-size="14.00">M53&#45;1V</text>
</g>
<!-- C&#45;6YHJ&#45;&#45;M53&#45;1V -->
<g id="edge29" class="edge">
<title>C&#45;6YHJ&#45;&#45;M53&#45;1V</title>
<path fill="none" stroke="black" d="M435.47,-491.76C429.75,-487.71 423.59,-483.34 417.85,-479.27"/>
</g>
<!-- I&#45;2705 -->
<g id="I&#45;2705" class="node">
<title>I&#45;2705</title>
<ellipse fill="none" stroke="black" cx="490.62" cy="-463.4" rx="40.5" ry="18"/>
<text text-anchor="middle" x="490.62" y="-459.7" font-family="Times,serif" font-size="14.00">I&#45;2705</text>
</g>
<!-- C&#45;6YHJ&#45;&#45;I&#45;2705 -->
<g id="edge30" class="edge">
<title>C&#45;6YHJ&#45;&#45;I&#45;2705</title>
<path fill="none" stroke="black" d="M470.61,-490.01C472.92,-486.94 475.33,-483.73 477.64,-480.66"/>
</g>
<!-- E5T&#45;CS -->
<g id="E5T&#45;CS" class="node">
<title>E5T&#45;CS</title>
<ellipse fill="none" stroke="black" cx="443.91" cy="-419.36" rx="44.39" ry="18"/>
<text text-anchor="middle" x="443.91" y="-415.66" font-family="Times,serif" font-size="14.00">E5T&#45;CS</text>
</g>
<!-- E5T&#45;CS&#45;&#45;M53&#45;1V -->
<g id="edge31" class="edge">
<title>E5T&#45;CS&#45;&#45;M53&#45;1V</title>
<path fill="none" stroke="black" d="M425.58,-436C421.72,-439.51 417.65,-443.21 413.79,-446.72"/>
</g>
<!-- E5T&#45;CS&#45;&#45;I&#45;2705 -->
<g id="edge32" class="edge">
<title>E5T&#45;CS&#45;&#45;I&#45;2705</title>
<path fill="none" stroke="black" d="M461.56,-436.01C465.39,-439.61 469.43,-443.42 473.24,-447.02"/>
</g>
<!-- W4C8&#45;Q -->
<g id="W4C8&#45;Q" class="node">
<title>W4C8&#45;Q</title>
<ellipse fill="none" stroke="black" cx="453.25" cy="-375.34" rx="48.99" ry="18"/>
<text text-anchor="middle" x="453.25" y="-371.64" font-family="Times,serif" font-size="14.00">W4C8&#45;Q</text>
</g>
<!-- E5T&#45;CS&#45;&#45;W4C8&#45;Q -->
<g id="edge33" class="edge">
<title>E5T&#45;CS&#45;&#45;W4C8&#45;Q</title>
<path fill="none" stroke="black" d="M447.76,-401.2C448.31,-398.64 448.86,-396.01 449.41,-393.46"/>
</g>
<!-- 5F&#45;MG1 -->
<g id="_5F&#45;MG1" class="node">
<title>5F&#45;MG1</title>
<ellipse fill="none" stroke="black" cx="454.92" cy="-331.34" rx="48.19" ry="18"/>
<text text-anchor="middle" x="454.92" y="-327.64" font-family="Times,serif" font-size="14.00">5F&#45;MG1</text>
</g>
<!-- 5F&#45;MG1&#45;&#45;W4C8&#45;Q -->
<g id="edge34" class="edge">
<title>5F&#45;MG1&#45;&#45;W4C8&#45;Q</title>
<path fill="none" stroke="black" d="M454.24,-349.49C454.14,-352.05 454.04,-354.67 453.94,-357.23"/>
</g>
<!-- P7&#45;45V -->
<g id="P7&#45;45V" class="node">
<title>P7&#45;45V</title>
<ellipse fill="none" stroke="black" cx="469.33" cy="-287.34" rx="44.39" ry="18"/>
<text text-anchor="middle" x="469.33" y="-283.64" font-family="Times,serif" font-size="14.00">P7&#45;45V</text>
</g>
<!-- 5F&#45;MG1&#45;&#45;P7&#45;45V -->
<g id="edge35" class="edge">
<title>5F&#45;MG1&#45;&#45;P7&#45;45V</title>
<path fill="none" stroke="black" d="M460.78,-313.44C461.66,-310.78 462.56,-308.03 463.43,-305.36"/>
</g>
<!-- TPG&#45;DD -->
<g id="TPG&#45;DD" class="node">
<title>TPG&#45;DD</title>
<ellipse fill="none" stroke="black" cx="368.99" cy="-285.49" rx="48.19" ry="18"/>
<text text-anchor="middle" x="368.99" y="-281.79" font-family="Times,serif" font-size="14.00">TPG&#45;DD</text>
</g>
<!-- P7&#45;45V&#45;&#45;TPG&#45;DD -->
<g id="edge36" class="edge">
<title>P7&#45;45V&#45;&#45;TPG&#45;DD</title>
<path fill="none" stroke="black" d="M425.03,-286.52C422.41,-286.47 419.76,-286.42 417.12,-286.37"/>
</g>
<!-- M&#45;MCP8 -->
<g id="M&#45;MCP8" class="node">
<title>M&#45;MCP8</title>
<ellipse fill="none" stroke="black" cx="386.98" cy="-241.48" rx="51.5" ry="18"/>
<text text-anchor="middle" x="386.98" y="-237.78" font-family="Times,serif" font-size="14.00">M&#45;MCP8</text>
</g>
<!-- M&#45;MCP8&#45;&#45;P7&#45;45V -->
<g id="edge37" class="edge">
<title>M&#45;MCP8&#45;&#45;P7&#45;45V</title>
<path fill="none" stroke="black" d="M414.4,-256.75C423.67,-261.91 433.98,-267.65 443.15,-272.75"/>
</g>
<!-- M&#45;MCP8&#45;&#45;TPG&#45;DD -->
<g id="edge38" class="edge">
<title>M&#45;MCP8&#45;&#45;TPG&#45;DD</title>
<path fill="none" stroke="black" d="M379.66,-259.38C378.57,-262.04 377.45,-264.79 376.36,-267.46"/>
</g>
<!-- JZ&#45;B5Y -->
<g id="JZ&#45;B5Y" class="node">
<title>JZ&#45;B5Y</title>
<ellipse fill="none" stroke="black" cx="563.86" cy="-272.59" rx="42.49" ry="18"/>
<text text-anchor="middle" x="563.86" y="-268.89" font-family="Times,serif" font-size="14.00">JZ&#45;B5Y</text>
</g>
<!-- JZ&#45;B5Y&#45;&#45;P7&#45;45V -->
<g id="edge39" class="edge">
<title>JZ&#45;B5Y&#45;&#45;P7&#45;45V</title>
<path fill="none" stroke="black" d="M524.05,-278.8C519.61,-279.49 515.08,-280.2 510.62,-280.9"/>
</g>
<!-- NIF&#45;JE -->
<g id="NIF&#45;JE" class="node">
<title>NIF&#45;JE</title>
<ellipse fill="none" stroke="black" cx="655.13" cy="-238.82" rx="41" ry="18"/>
<text text-anchor="middle" x="655.13" y="-235.12" font-family="Times,serif" font-size="14.00">NIF&#45;JE</text>
</g>
<!-- JZ&#45;B5Y&#45;&#45;NIF&#45;JE -->
<g id="edge40" class="edge">
<title>JZ&#45;B5Y&#45;&#45;NIF&#45;JE</title>
<path fill="none" stroke="black" d="M595.78,-260.78C604.83,-257.43 614.67,-253.79 623.69,-250.46"/>
</g>
<!-- BTLH&#45;I -->
<g id="BTLH&#45;I" class="node">
<title>BTLH&#45;I</title>
<ellipse fill="none" stroke="black" cx="714.72" cy="-194.81" rx="43.59" ry="18"/>
<text text-anchor="middle" x="714.72" y="-191.11" font-family="Times,serif" font-size="14.00">BTLH&#45;I</text>
</g>
<!-- BTLH&#45;I&#45;&#45;NIF&#45;JE -->
<g id="edge41" class="edge">
<title>BTLH&#45;I&#45;&#45;NIF&#45;JE</title>
<path fill="none" stroke="black" d="M693.21,-210.7C687.74,-214.74 681.87,-219.08 676.41,-223.1"/>
</g>
<!-- U93O&#45;A -->
<g id="U93O&#45;A" class="node">
<title>U93O&#45;A</title>
<ellipse fill="none" stroke="black" cx="663.8" cy="-150.81" rx="47.5" ry="18"/>
<text text-anchor="middle" x="663.8" y="-147.11" font-family="Times,serif" font-size="14.00">U93O&#45;A</text>
</g>
<!-- BTLH&#45;I&#45;&#45;U93O&#45;A -->
<g id="edge42" class="edge">
<title>BTLH&#45;I&#45;&#45;U93O&#45;A</title>
<path fill="none" stroke="black" d="M695.76,-178.43C691.58,-174.81 687.14,-170.98 682.95,-167.35"/>
</g>
<!-- 0LY&#45;W1 -->
<g id="_0LY&#45;W1" class="node">
<title>0LY&#45;W1</title>
<ellipse fill="none" stroke="black" cx="792.67" cy="-238.82" rx="44.39" ry="18"/>
<text text-anchor="middle" x="792.67" y="-235.12" font-family="Times,serif" font-size="14.00">0LY&#45;W1</text>
</g>
<!-- 0LY&#45;W1&#45;&#45;BTLH&#45;I -->
<g id="edge43" class="edge">
<title>0LY&#45;W1&#45;&#45;BTLH&#45;I</title>
<path fill="none" stroke="black" d="M766.71,-224.17C758.3,-219.42 748.97,-214.15 740.56,-209.4"/>
</g>
<!-- 4YO&#45;QK -->
<g id="_4YO&#45;QK" class="node">
<title>4YO&#45;QK</title>
<ellipse fill="none" stroke="black" cx="645.36" cy="-106.78" rx="47.5" ry="18"/>
<text text-anchor="middle" x="645.36" y="-103.08" font-family="Times,serif" font-size="14.00">4YO&#45;QK</text>
</g>
<!-- 4YO&#45;QK&#45;&#45;U93O&#45;A -->
<g id="edge44" class="edge">
<title>4YO&#45;QK&#45;&#45;U93O&#45;A</title>
<path fill="none" stroke="black" d="M652.86,-124.69C653.98,-127.35 655.13,-130.1 656.25,-132.77"/>
</g>
<!-- LJ&#45;RJK -->
<g id="LJ&#45;RJK" class="node">
<title>LJ&#45;RJK</title>
<ellipse fill="none" stroke="black" cx="761.51" cy="-108.63" rx="40.5" ry="18"/>
<text text-anchor="middle" x="761.51" y="-104.93" font-family="Times,serif" font-size="14.00">LJ&#45;RJK</text>
</g>
<!-- 4YO&#45;QK&#45;&#45;LJ&#45;RJK -->
<g id="edge45" class="edge">
<title>4YO&#45;QK&#45;&#45;LJ&#45;RJK</title>
<path fill="none" stroke="black" d="M692.94,-107.54C702.21,-107.69 711.85,-107.84 720.87,-107.98"/>
</g>
<!-- 8&#45;VC6H -->
<g id="_8&#45;VC6H" class="node">
<title>8&#45;VC6H</title>
<ellipse fill="none" stroke="black" cx="668.1" cy="-62.75" rx="46.29" ry="18"/>
<text text-anchor="middle" x="668.1" y="-59.05" font-family="Times,serif" font-size="14.00">8&#45;VC6H</text>
</g>
<!-- 4YO&#45;QK&#45;&#45;8&#45;VC6H -->
<g id="edge46" class="edge">
<title>4YO&#45;QK&#45;&#45;8&#45;VC6H</title>
<path fill="none" stroke="black" d="M654.61,-88.87C656.04,-86.11 657.51,-83.26 658.93,-80.5"/>
</g>
<!-- RT64&#45;C -->
<g id="RT64&#45;C" class="node">
<title>RT64&#45;C</title>
<polygon fill="none" stroke="black" points="879.44,-108.88 810.44,-108.88 810.44,-72.88 879.44,-72.88 879.44,-108.88"/>
<text text-anchor="middle" x="844.94" y="-87.18" font-family="Times,serif" font-size="14.00">RT64&#45;C</text>
</g>
<!-- LJ&#45;RJK&#45;&#45;RT64&#45;C -->
<g id="edge47" class="edge">
<title>LJ&#45;RJK&#45;&#45;RT64&#45;C</title>
<path fill="none" stroke="black" d="M798.34,-100.79C802.36,-99.94 806.44,-99.07 810.42,-98.22"/>
</g>
<!-- 3&#45;0FYP -->
<g id="_3&#45;0FYP" class="node">
<title>3&#45;0FYP</title>
<polygon fill="none" stroke="black" points="731.67,-36 663.67,-36 663.67,0 731.67,0 731.67,-36"/>
<text text-anchor="middle" x="697.67" y="-14.3" font-family="Times,serif" font-size="14.00">3&#45;0FYP</text>
</g>
<!-- 8&#45;VC6H&#45;&#45;3&#45;0FYP -->
<g id="edge48" class="edge">
<title>8&#45;VC6H&#45;&#45;3&#45;0FYP</title>
<path fill="none" stroke="black" d="M679.79,-45.06C681.72,-42.13 683.73,-39.09 685.68,-36.15"/>
</g>
<!-- LQ&#45;01M -->
<g id="LQ&#45;01M" class="node">
<title>LQ&#45;01M</title>
<ellipse fill="none" stroke="black" cx="328.49" cy="-197.43" rx="48.19" ry="18"/>
<text text-anchor="middle" x="328.49" y="-193.73" font-family="Times,serif" font-size="14.00">LQ&#45;01M</text>
</g>
<!-- LQ&#45;01M&#45;&#45;M&#45;MCP8 -->
<g id="edge49" class="edge">
<title>LQ&#45;01M&#45;&#45;M&#45;MCP8</title>
<path fill="none" stroke="black" d="M349.94,-213.58C354.89,-217.31 360.17,-221.29 365.14,-225.03"/>
</g>
<!-- NG&#45;M8K -->
<g id="NG&#45;M8K" class="node">
<title>NG&#45;M8K</title>
<ellipse fill="none" stroke="black" cx="221.61" cy="-193.16" rx="50.89" ry="18"/>
<text text-anchor="middle" x="221.61" y="-189.46" font-family="Times,serif" font-size="14.00">NG&#45;M8K</text>
</g>
<!-- LQ&#45;01M&#45;&#45;NG&#45;M8K -->
<g id="edge50" class="edge">
<title>LQ&#45;01M&#45;&#45;NG&#45;M8K</title>
<path fill="none" stroke="black" d="M280.36,-195.51C277.59,-195.4 274.8,-195.29 272.03,-195.17"/>
</g>
<!-- RV5&#45;TT -->
<g id="RV5&#45;TT" class="node">
<title>RV5&#45;TT</title>
<ellipse fill="none" stroke="black" cx="329.24" cy="-140.99" rx="44.39" ry="18"/>
<text text-anchor="middle" x="329.24" y="-137.29" font-family="Times,serif" font-size="14.00">RV5&#45;TT</text>
</g>
<!-- LQ&#45;01M&#45;&#45;RV5&#45;TT -->
<g id="edge51" class="edge">
<title>LQ&#45;01M&#45;&#45;RV5&#45;TT</title>
<path fill="none" stroke="black" d="M328.73,-179.26C328.82,-172.82 328.91,-165.57 329,-159.12"/>
</g>
<!-- 8OYE&#45;Z -->
<g id="_8OYE&#45;Z" class="node">
<title>8OYE&#45;Z</title>
<ellipse fill="none" stroke="black" cx="182.28" cy="-149.05" rx="46.29" ry="18"/>
<text text-anchor="middle" x="182.28" y="-145.35" font-family="Times,serif" font-size="14.00">8OYE&#45;Z</text>
</g>
<!-- 8OYE&#45;Z&#45;&#45;NG&#45;M8K -->
<g id="edge52" class="edge">
<title>8OYE&#45;Z&#45;&#45;NG&#45;M8K</title>
<path fill="none" stroke="black" d="M197.6,-166.23C200.44,-169.42 203.42,-172.76 206.27,-175.95"/>
</g>
<!-- DVN6&#45;0 -->
<g id="DVN6&#45;0" class="node">
<title>DVN6&#45;0</title>
<polygon fill="none" stroke="black" points="165.6,-123.04 93.6,-123.04 93.6,-87.04 165.6,-87.04 165.6,-123.04"/>
<text text-anchor="middle" x="129.6" y="-101.34" font-family="Times,serif" font-size="14.00">DVN6&#45;0</text>
</g>
<!-- 8OYE&#45;Z&#45;&#45;DVN6&#45;0 -->
<g id="edge53" class="edge">
<title>8OYE&#45;Z&#45;&#45;DVN6&#45;0</title>
<path fill="none" stroke="black" d="M162.66,-132.66C158.92,-129.54 154.98,-126.25 151.18,-123.07"/>
</g>
<!-- K85Y&#45;6 -->
<g id="K85Y&#45;6" class="node">
<title>K85Y&#45;6</title>
<ellipse fill="none" stroke="black" cx="120" cy="-219.96" rx="43" ry="18"/>
<text text-anchor="middle" x="120" y="-216.26" font-family="Times,serif" font-size="14.00">K85Y&#45;6</text>
</g>
<!-- K85Y&#45;6&#45;&#45;NG&#45;M8K -->
<g id="edge54" class="edge">
<title>K85Y&#45;6&#45;&#45;NG&#45;M8K</title>
<path fill="none" stroke="black" d="M156.4,-210.36C164.25,-208.29 172.61,-206.08 180.63,-203.97"/>
</g>
<!-- LTT&#45;AP -->
<g id="LTT&#45;AP" class="node">
<title>LTT&#45;AP</title>
<polygon fill="none" stroke="black" points="66,-225.36 0,-225.36 0,-189.36 66,-189.36 66,-225.36"/>
<text text-anchor="middle" x="33" y="-203.66" font-family="Times,serif" font-size="14.00">LTT&#45;AP</text>
</g>
<!-- K85Y&#45;6&#45;&#45;LTT&#45;AP -->
<g id="edge55" class="edge">
<title>K85Y&#45;6&#45;&#45;LTT&#45;AP</title>
<path fill="none" stroke="black" d="M79.3,-214.07C74.88,-213.43 70.42,-212.78 66.1,-212.16"/>
</g>
<!-- PKN&#45;NJ -->
<g id="PKN&#45;NJ" class="node">
<title>PKN&#45;NJ</title>
<ellipse fill="none" stroke="black" cx="318.6" cy="-91.96" rx="46.29" ry="18"/>
<text text-anchor="middle" x="318.6" y="-88.26" font-family="Times,serif" font-size="14.00">PKN&#45;NJ</text>
</g>
<!-- PKN&#45;NJ&#45;&#45;RV5&#45;TT -->
<g id="edge56" class="edge">
<title>PKN&#45;NJ&#45;&#45;RV5&#45;TT</title>
<path fill="none" stroke="black" d="M322.5,-109.94C323.43,-114.2 324.41,-118.75 325.34,-123.01"/>
</g>
<!-- XUPK&#45;Z -->
<g id="XUPK&#45;Z" class="node">
<title>XUPK&#45;Z</title>
<polygon fill="none" stroke="black" points="331.6,-61.54 259.6,-61.54 259.6,-25.54 331.6,-25.54 331.6,-61.54"/>
<text text-anchor="middle" x="295.6" y="-39.84" font-family="Times,serif" font-size="14.00">XUPK&#45;Z</text>
</g>
<!-- PKN&#45;NJ&#45;&#45;XUPK&#45;Z -->
<g id="edge57" class="edge">
<title>PKN&#45;NJ&#45;&#45;XUPK&#45;Z</title>
<path fill="none" stroke="black" d="M310.17,-74.21C308.22,-70.11 306.14,-65.73 304.19,-61.62"/>
</g>
</g>
</svg>
