<?xml version="1.0" encoding="UTF-8" standalone="no"?>
<!DOCTYPE svg PUBLIC "-//W3C//DTD SVG 1.1//EN"
 "http://www.w3.org/Graphics/SVG/1.1/DTD/svg11.dtd">
<!-- Generated by graphviz version 2.43.0 (0)
 -->
<!-- Pages: 1 -->
<svg width="1399pt" height="919pt"
 viewBox="0.00 0.00 1398.60 919.44" xmlns="http://www.w3.org/2000/svg" xmlns:xlink="http://www.w3.org/1999/xlink">
<g id="graph0" class="graph" transform="scale(1 1) rotate(0) translate(4 915.44)">
<polygon fill="white" stroke="transparent" points="-4,4 -4,-915.44 1394.6,-915.44 1394.6,4 -4,4"/>
<!-- 2ID&#45;87 -->
<g id="_2ID&#45;87" class="node">
<title>2ID&#45;87</title>
<polygon fill="none" stroke="black" points="1254.3,-524.02 1189.3,-524.02 1189.3,-488.02 1254.3,-488.02 1254.3,-524.02"/>
<text text-anchor="middle" x="1221.8" y="-502.32" font-family="Times,serif" font-size="14.00">2ID&#45;87</text>
</g>
<!-- R8WV&#45;7 -->
<g id="R8WV&#45;7" class="node">
<title>R8WV&#45;7</title>
<polygon fill="none" stroke="black" points="1340.1,-613.53 1267.1,-613.53 1267.1,-577.53 1340.1,-577.53 1340.1,-613.53"/>
<text text-anchor="middle" x="1303.6" y="-591.83" font-family="Times,serif" font-size="14.00">R8WV&#45;7</text>
</g>
<!-- U9SE&#45;N -->
<g id="U9SE&#45;N" class="node">
<title>U9SE&#45;N</title>
<polygon fill="none" stroke="black" points="1390.6,-396.46 1316.6,-396.46 1316.6,-360.46 1390.6,-360.46 1390.6,-396.46"/>
<text text-anchor="middle" x="1353.6" y="-374.76" font-family="Times,serif" font-size="14.00">U9SE&#45;N</text>
</g>
<!-- XXZ&#45;3W -->
<g id="XXZ&#45;3W" class="node">
<title>XXZ&#45;3W</title>
<polygon fill="none" stroke="black" points="1002.73,-326.43 928.73,-326.43 928.73,-290.43 1002.73,-290.43 1002.73,-326.43"/>
<text text-anchor="middle" x="965.73" y="-304.73" font-family="Times,serif" font-size="14.00">XXZ&#45;3W</text>
</g>
<!-- IAMJ&#45;Q -->
<g id="IAMJ&#45;Q" class="node">
<title>IAMJ&#45;Q</title>
<polygon fill="none" stroke="black" points="653.84,-655.15 586.84,-655.15 586.84,-619.15 653.84,-619.15 653.84,-655.15"/>
<text text-anchor="middle" x="620.34" y="-633.45" font-family="Times,serif" font-size="14.00">IAMJ&#45;Q</text>
</g>
<!-- SF&#45;XJS -->
<g id="SF&#45;XJS" class="node">
<title>SF&#45;XJS</title>
<polygon fill="none" stroke="black" points="485.66,-911.44 420.66,-911.44 420.66,-875.44 485.66,-875.44 485.66,-911.44"/>
<text text-anchor="middle" x="453.16" y="-889.74" font-family="Times,serif" font-size="14.00">SF&#45;XJS</text>
</g>
<!-- FV&#45;YEA -->
<g id="FV&#45;YEA" class="node">
<title>FV&#45;YEA</title>
<ellipse fill="none" stroke="black" cx="1214.9" cy="-595.81" rx="44.39" ry="18"/>
<text text-anchor="middle" x="1214.9" y="-592.11" font-family="Times,serif" font-size="14.00">FV&#45;YEA</text>
</g>
<!-- FV&#45;YEA&#45;&#45;R8WV&#45;7 -->
<g id="edge1" class="edge">
<title>FV&#45;YEA&#45;&#45;R8WV&#45;7</title>
<path fill="none" stroke="black" d="M1259.3,-595.67C1261.9,-595.66 1264.5,-595.65 1267,-595.64"/>
</g>
<!-- J&#45;A5QD -->
<g id="J&#45;A5QD" class="node">
<title>J&#45;A5QD</title>
<ellipse fill="none" stroke="black" cx="1237.4" cy="-673.77" rx="44.39" ry="18"/>
<text text-anchor="middle" x="1237.4" y="-670.07" font-family="Times,serif" font-size="14.00">J&#45;A5QD</text>
</g>
<!-- FV&#45;YEA&#45;&#45;J&#45;A5QD -->
<g id="edge2" class="edge">
<title>FV&#45;YEA&#45;&#45;J&#45;A5QD</title>
<path fill="none" stroke="black" d="M1220.1,-613.89C1223.8,-626.48 1228.6,-643.21 1232.2,-655.79"/>
</g>
<!-- SK7&#45;G6 -->
<g id="SK7&#45;G6" class="node">
<title>SK7&#45;G6</title>
<ellipse fill="none" stroke="black" cx="1133.4" cy="-551.77" rx="46.29" ry="18"/>
<text text-anchor="middle" x="1133.4" y="-548.07" font-family="Times,serif" font-size="14.00">SK7&#45;G6</text>
</g>
<!-- FV&#45;YEA&#45;&#45;SK7&#45;G6 -->
<g id="edge3" class="edge">
<title>FV&#45;YEA&#45;&#45;SK7&#45;G6</title>
<path fill="none" stroke="black" d="M1188.2,-581.39C1179.3,-576.57 1169.3,-571.2 1160.4,-566.37"/>
</g>
<!-- SK7&#45;G6&#45;&#45;2ID&#45;87 -->
<g id="edge4" class="edge">
<title>SK7&#45;G6&#45;&#45;2ID&#45;87</title>
<path fill="none" stroke="black" d="M1161.3,-537.29C1170.1,-532.74 1179.9,-527.66 1189,-522.95"/>
</g>
<!-- BI0Y&#45;X -->
<g id="BI0Y&#45;X" class="node">
<title>BI0Y&#45;X</title>
<ellipse fill="none" stroke="black" cx="1144.1" cy="-639.82" rx="41" ry="18"/>
<text text-anchor="middle" x="1144.1" y="-636.12" font-family="Times,serif" font-size="14.00">BI0Y&#45;X</text>
</g>
<!-- BI0Y&#45;X&#45;&#45;J&#45;A5QD -->
<g id="edge5" class="edge">
<title>BI0Y&#45;X&#45;&#45;J&#45;A5QD</title>
<path fill="none" stroke="black" d="M1175.7,-651.31C1184.9,-654.66 1195,-658.33 1204.3,-661.71"/>
</g>
<!-- BI0Y&#45;X&#45;&#45;SK7&#45;G6 -->
<g id="edge6" class="edge">
<title>BI0Y&#45;X&#45;&#45;SK7&#45;G6</title>
<path fill="none" stroke="black" d="M1141.9,-621.58C1140,-606.46 1137.4,-585.09 1135.6,-569.99"/>
</g>
<!-- 4&#45;PCHD -->
<g id="_4&#45;PCHD" class="node">
<title>4&#45;PCHD</title>
<ellipse fill="none" stroke="black" cx="1083.4" cy="-507.74" rx="48.19" ry="18"/>
<text text-anchor="middle" x="1083.4" y="-504.04" font-family="Times,serif" font-size="14.00">4&#45;PCHD</text>
</g>
<!-- 4&#45;PCHD&#45;&#45;SK7&#45;G6 -->
<g id="edge7" class="edge">
<title>4&#45;PCHD&#45;&#45;SK7&#45;G6</title>
<path fill="none" stroke="black" d="M1102.3,-524.38C1106.3,-527.89 1110.5,-531.59 1114.4,-535.1"/>
</g>
<!-- GQLB&#45;V -->
<g id="GQLB&#45;V" class="node">
<title>GQLB&#45;V</title>
<ellipse fill="none" stroke="black" cx="1097.1" cy="-463.72" rx="47" ry="18"/>
<text text-anchor="middle" x="1097.1" y="-460.02" font-family="Times,serif" font-size="14.00">GQLB&#45;V</text>
</g>
<!-- 4&#45;PCHD&#45;&#45;GQLB&#45;V -->
<g id="edge8" class="edge">
<title>4&#45;PCHD&#45;&#45;GQLB&#45;V</title>
<path fill="none" stroke="black" d="M1089,-489.84C1089.8,-487.17 1090.7,-484.42 1091.5,-481.75"/>
</g>
<!-- 5&#45;3722 -->
<g id="_5&#45;3722" class="node">
<title>5&#45;3722</title>
<ellipse fill="none" stroke="black" cx="1184.1" cy="-717.8" rx="43" ry="18"/>
<text text-anchor="middle" x="1184.1" y="-714.1" font-family="Times,serif" font-size="14.00">5&#45;3722</text>
</g>
<!-- 5&#45;3722&#45;&#45;J&#45;A5QD -->
<g id="edge9" class="edge">
<title>5&#45;3722&#45;&#45;J&#45;A5QD</title>
<path fill="none" stroke="black" d="M1203.6,-701.66C1208.3,-697.83 1213.2,-693.74 1217.9,-689.91"/>
</g>
<!-- 5&#45;3722&#45;&#45;BI0Y&#45;X -->
<g id="edge10" class="edge">
<title>5&#45;3722&#45;&#45;BI0Y&#45;X</title>
<path fill="none" stroke="black" d="M1175,-700.11C1168.5,-687.35 1159.7,-670.19 1153.1,-657.45"/>
</g>
<!-- 5E&#45;EZC -->
<g id="_5E&#45;EZC" class="node">
<title>5E&#45;EZC</title>
<ellipse fill="none" stroke="black" cx="1161.1" cy="-412.59" rx="46.29" ry="18"/>
<text text-anchor="middle" x="1161.1" y="-408.89" font-family="Times,serif" font-size="14.00">5E&#45;EZC</text>
</g>
<!-- 5E&#45;EZC&#45;&#45;GQLB&#45;V -->
<g id="edge11" class="edge">
<title>5E&#45;EZC&#45;&#45;GQLB&#45;V</title>
<path fill="none" stroke="black" d="M1140.8,-428.77C1133.4,-434.74 1124.9,-441.5 1117.5,-447.48"/>
</g>
<!-- 9KE&#45;IT -->
<g id="_9KE&#45;IT" class="node">
<title>9KE&#45;IT</title>
<ellipse fill="none" stroke="black" cx="1064.5" cy="-419.61" rx="42.49" ry="18"/>
<text text-anchor="middle" x="1064.5" y="-415.91" font-family="Times,serif" font-size="14.00">9KE&#45;IT</text>
</g>
<!-- 5E&#45;EZC&#45;&#45;9KE&#45;IT -->
<g id="edge12" class="edge">
<title>5E&#45;EZC&#45;&#45;9KE&#45;IT</title>
<path fill="none" stroke="black" d="M1115.6,-415.89C1112.5,-416.12 1109.4,-416.35 1106.2,-416.57"/>
</g>
<!-- P&#45;NRD3 -->
<g id="P&#45;NRD3" class="node">
<title>P&#45;NRD3</title>
<ellipse fill="none" stroke="black" cx="1261.1" cy="-366.92" rx="47.5" ry="18"/>
<text text-anchor="middle" x="1261.1" y="-363.22" font-family="Times,serif" font-size="14.00">P&#45;NRD3</text>
</g>
<!-- 5E&#45;EZC&#45;&#45;P&#45;NRD3 -->
<g id="edge13" class="edge">
<title>5E&#45;EZC&#45;&#45;P&#45;NRD3</title>
<path fill="none" stroke="black" d="M1191.1,-398.89C1203.6,-393.16 1218.2,-386.52 1230.8,-380.77"/>
</g>
<!-- S&#45;W8CF -->
<g id="S&#45;W8CF" class="node">
<title>S&#45;W8CF</title>
<ellipse fill="none" stroke="black" cx="1058.7" cy="-375.56" rx="48.19" ry="18"/>
<text text-anchor="middle" x="1058.7" y="-371.86" font-family="Times,serif" font-size="14.00">S&#45;W8CF</text>
</g>
<!-- 5E&#45;EZC&#45;&#45;S&#45;W8CF -->
<g id="edge14" class="edge">
<title>5E&#45;EZC&#45;&#45;S&#45;W8CF</title>
<path fill="none" stroke="black" d="M1127,-400.26C1116.2,-396.35 1104.2,-392.02 1093.4,-388.09"/>
</g>
<!-- 9KE&#45;IT&#45;&#45;GQLB&#45;V -->
<g id="edge15" class="edge">
<title>9KE&#45;IT&#45;&#45;GQLB&#45;V</title>
<path fill="none" stroke="black" d="M1077.2,-436.79C1079.5,-439.89 1081.9,-443.12 1084.2,-446.22"/>
</g>
<!-- Y&#45;RAW3 -->
<g id="Y&#45;RAW3" class="node">
<title>Y&#45;RAW3</title>
<ellipse fill="none" stroke="black" cx="955.83" cy="-352.64" rx="47" ry="18"/>
<text text-anchor="middle" x="955.83" y="-348.94" font-family="Times,serif" font-size="14.00">Y&#45;RAW3</text>
</g>
<!-- 9KE&#45;IT&#45;&#45;Y&#45;RAW3 -->
<g id="edge16" class="edge">
<title>9KE&#45;IT&#45;&#45;Y&#45;RAW3</title>
<path fill="none" stroke="black" d="M1040.4,-404.74C1022.6,-393.8 998.57,-378.96 980.64,-367.92"/>
</g>
<!-- YVSL&#45;2 -->
<g id="YVSL&#45;2" class="node">
<title>YVSL&#45;2</title>
<ellipse fill="none" stroke="black" cx="1161.5" cy="-358.07" rx="44.39" ry="18"/>
<text text-anchor="middle" x="1161.5" y="-354.37" font-family="Times,serif" font-size="14.00">YVSL&#45;2</text>
</g>
<!-- 9KE&#45;IT&#45;&#45;YVSL&#45;2 -->
<g id="edge17" class="edge">
<title>9KE&#45;IT&#45;&#45;YVSL&#45;2</title>
<path fill="none" stroke="black" d="M1088.5,-404.39C1103.4,-394.93 1122.5,-382.79 1137.4,-373.32"/>
</g>
<!-- P&#45;NRD3&#45;&#45;U9SE&#45;N -->
<g id="edge18" class="edge">
<title>P&#45;NRD3&#45;&#45;U9SE&#45;N</title>
<path fill="none" stroke="black" d="M1306.3,-372.55C1309.7,-372.98 1313.1,-373.4 1316.4,-373.82"/>
</g>
<!-- X&#45;41DA -->
<g id="X&#45;41DA" class="node">
<title>X&#45;41DA</title>
<ellipse fill="none" stroke="black" cx="1312.8" cy="-322.66" rx="45.5" ry="18"/>
<text text-anchor="middle" x="1312.8" y="-318.96" font-family="Times,serif" font-size="14.00">X&#45;41DA</text>
</g>
<!-- P&#45;NRD3&#45;&#45;X&#45;41DA -->
<g id="edge19" class="edge">
<title>P&#45;NRD3&#45;&#45;X&#45;41DA</title>
<path fill="none" stroke="black" d="M1280.4,-350.44C1284.7,-346.7 1289.4,-342.74 1293.7,-339.01"/>
</g>
<!-- S&#45;W8CF&#45;&#45;Y&#45;RAW3 -->
<g id="edge20" class="edge">
<title>S&#45;W8CF&#45;&#45;Y&#45;RAW3</title>
<path fill="none" stroke="black" d="M1017.2,-366.3C1010.4,-364.79 1003.3,-363.22 996.54,-361.71"/>
</g>
<!-- Y&#45;RAW3&#45;&#45;XXZ&#45;3W -->
<g id="edge21" class="edge">
<title>Y&#45;RAW3&#45;&#45;XXZ&#45;3W</title>
<path fill="none" stroke="black" d="M959.86,-334.66C960.45,-331.98 961.07,-329.22 961.67,-326.54"/>
</g>
<!-- 5E6I&#45;W -->
<g id="_5E6I&#45;W" class="node">
<title>5E6I&#45;W</title>
<ellipse fill="none" stroke="black" cx="856.76" cy="-315.66" rx="44.39" ry="18"/>
<text text-anchor="middle" x="856.76" y="-311.96" font-family="Times,serif" font-size="14.00">5E6I&#45;W</text>
</g>
<!-- 5E6I&#45;W&#45;&#45;Y&#45;RAW3 -->
<g id="edge22" class="edge">
<title>5E6I&#45;W&#45;&#45;Y&#45;RAW3</title>
<path fill="none" stroke="black" d="M889.48,-327.87C899.96,-331.78 911.58,-336.12 922.13,-340.06"/>
</g>
<!-- I&#45;CMZA -->
<g id="I&#45;CMZA" class="node">
<title>I&#45;CMZA</title>
<ellipse fill="none" stroke="black" cx="833.33" cy="-359.72" rx="46.29" ry="18"/>
<text text-anchor="middle" x="833.33" y="-356.02" font-family="Times,serif" font-size="14.00">I&#45;CMZA</text>
</g>
<!-- 5E6I&#45;W&#45;&#45;I&#45;CMZA -->
<g id="edge23" class="edge">
<title>5E6I&#45;W&#45;&#45;I&#45;CMZA</title>
<path fill="none" stroke="black" d="M847.37,-333.33C845.84,-336.2 844.26,-339.18 842.73,-342.05"/>
</g>
<!-- 87&#45;1PM -->
<g id="_87&#45;1PM" class="node">
<title>87&#45;1PM</title>
<ellipse fill="none" stroke="black" cx="799.44" cy="-271.63" rx="47" ry="18"/>
<text text-anchor="middle" x="799.44" y="-267.93" font-family="Times,serif" font-size="14.00">87&#45;1PM</text>
</g>
<!-- 5E6I&#45;W&#45;&#45;87&#45;1PM -->
<g id="edge24" class="edge">
<title>5E6I&#45;W&#45;&#45;87&#45;1PM</title>
<path fill="none" stroke="black" d="M835.74,-299.52C830.76,-295.69 825.44,-291.6 820.46,-287.77"/>
</g>
<!-- C2&#45;1B5 -->
<g id="C2&#45;1B5" class="node">
<title>C2&#45;1B5</title>
<ellipse fill="none" stroke="black" cx="699.75" cy="-294.11" rx="45" ry="18"/>
<text text-anchor="middle" x="699.75" y="-290.41" font-family="Times,serif" font-size="14.00">C2&#45;1B5</text>
</g>
<!-- 87&#45;1PM&#45;&#45;C2&#45;1B5 -->
<g id="edge25" class="edge">
<title>87&#45;1PM&#45;&#45;C2&#45;1B5</title>
<path fill="none" stroke="black" d="M758.89,-280.77C752.31,-282.25 745.51,-283.79 738.97,-285.26"/>
</g>
<!-- DN58&#45;U -->
<g id="DN58&#45;U" class="node">
<title>DN58&#45;U</title>
<ellipse fill="none" stroke="black" cx="695.79" cy="-239.04" rx="48.19" ry="18"/>
<text text-anchor="middle" x="695.79" y="-235.34" font-family="Times,serif" font-size="14.00">DN58&#45;U</text>
</g>
<!-- 87&#45;1PM&#45;&#45;DN58&#45;U -->
<g id="edge26" class="edge">
<title>87&#45;1PM&#45;&#45;DN58&#45;U</title>
<path fill="none" stroke="black" d="M763.19,-260.23C753.38,-257.15 742.75,-253.81 732.9,-250.71"/>
</g>
<!-- JE&#45;VLG -->
<g id="JE&#45;VLG" class="node">
<title>JE&#45;VLG</title>
<ellipse fill="none" stroke="black" cx="603.24" cy="-194.99" rx="43" ry="18"/>
<text text-anchor="middle" x="603.24" y="-191.29" font-family="Times,serif" font-size="14.00">JE&#45;VLG</text>
</g>
<!-- C2&#45;1B5&#45;&#45;JE&#45;VLG -->
<g id="edge27" class="edge">
<title>C2&#45;1B5&#45;&#45;JE&#45;VLG</title>
<path fill="none" stroke="black" d="M683.31,-277.24C672.68,-266.34 658.57,-251.85 646.09,-239.03 637.31,-230.01 627.52,-219.95 619.52,-211.72"/>
</g>
<!-- DN58&#45;U&#45;&#45;JE&#45;VLG -->
<g id="edge28" class="edge">
<title>DN58&#45;U&#45;&#45;JE&#45;VLG</title>
<path fill="none" stroke="black" d="M665.99,-224.86C655,-219.63 642.59,-213.72 631.71,-208.54"/>
</g>
<!-- KIG9&#45;K -->
<g id="KIG9&#45;K" class="node">
<title>KIG9&#45;K</title>
<ellipse fill="none" stroke="black" cx="988.83" cy="-264.33" rx="44.39" ry="18"/>
<text text-anchor="middle" x="988.83" y="-260.63" font-family="Times,serif" font-size="14.00">KIG9&#45;K</text>
</g>
<!-- KIG9&#45;K&#45;&#45;Y&#45;RAW3 -->
<g id="edge29" class="edge">
<title>KIG9&#45;K&#45;&#45;Y&#45;RAW3</title>
<path fill="none" stroke="black" d="M1003.3,-281.44C1004.4,-283.31 1005.3,-285.26 1005.9,-287.23 1011.9,-305.12 1016.1,-313.77 1005.9,-329.63 1002.7,-334.63 998.13,-338.55 993.02,-341.63"/>
</g>
<!-- MK&#45;YNM -->
<g id="MK&#45;YNM" class="node">
<title>MK&#45;YNM</title>
<ellipse fill="none" stroke="black" cx="968.44" cy="-220.27" rx="51.5" ry="18"/>
<text text-anchor="middle" x="968.44" y="-216.57" font-family="Times,serif" font-size="14.00">MK&#45;YNM</text>
</g>
<!-- KIG9&#45;K&#45;&#45;MK&#45;YNM -->
<g id="edge30" class="edge">
<title>KIG9&#45;K&#45;&#45;MK&#45;YNM</title>
<path fill="none" stroke="black" d="M980.54,-246.41C979.3,-243.74 978.03,-240.99 976.79,-238.32"/>
</g>
<!-- H23&#45;B5 -->
<g id="H23&#45;B5" class="node">
<title>H23&#45;B5</title>
<ellipse fill="none" stroke="black" cx="851.13" cy="-405.01" rx="46.29" ry="18"/>
<text text-anchor="middle" x="851.13" y="-401.31" font-family="Times,serif" font-size="14.00">H23&#45;B5</text>
</g>
<!-- H23&#45;B5&#45;&#45;I&#45;CMZA -->
<g id="edge31" class="edge">
<title>H23&#45;B5&#45;&#45;I&#45;CMZA</title>
<path fill="none" stroke="black" d="M844.1,-387.11C842.89,-384.04 841.64,-380.86 840.43,-377.79"/>
</g>
<!-- VAF1&#45;P -->
<g id="VAF1&#45;P" class="node">
<title>VAF1&#45;P</title>
<ellipse fill="none" stroke="black" cx="752.76" cy="-431.15" rx="44.39" ry="18"/>
<text text-anchor="middle" x="752.76" y="-427.45" font-family="Times,serif" font-size="14.00">VAF1&#45;P</text>
</g>
<!-- H23&#45;B5&#45;&#45;VAF1&#45;P -->
<g id="edge32" class="edge">
<title>H23&#45;B5&#45;&#45;VAF1&#45;P</title>
<path fill="none" stroke="black" d="M812.82,-415.19C805.26,-417.2 797.35,-419.3 789.84,-421.3"/>
</g>
<!-- A&#45;0IIQ -->
<g id="A&#45;0IIQ" class="node">
<title>A&#45;0IIQ</title>
<ellipse fill="none" stroke="black" cx="945.61" cy="-399.46" rx="40.5" ry="18"/>
<text text-anchor="middle" x="945.61" y="-395.76" font-family="Times,serif" font-size="14.00">A&#45;0IIQ</text>
</g>
<!-- A&#45;0IIQ&#45;&#45;Y&#45;RAW3 -->
<g id="edge33" class="edge">
<title>A&#45;0IIQ&#45;&#45;Y&#45;RAW3</title>
<path fill="none" stroke="black" d="M949.53,-381.49C950.3,-377.98 951.1,-374.3 951.87,-370.79"/>
</g>
<!-- A&#45;0IIQ&#45;&#45;I&#45;CMZA -->
<g id="edge34" class="edge">
<title>A&#45;0IIQ&#45;&#45;I&#45;CMZA</title>
<path fill="none" stroke="black" d="M913.73,-388.18C899.34,-383.08 882.31,-377.06 867.64,-371.86"/>
</g>
<!-- A&#45;0IIQ&#45;&#45;H23&#45;B5 -->
<g id="edge35" class="edge">
<title>A&#45;0IIQ&#45;&#45;H23&#45;B5</title>
<path fill="none" stroke="black" d="M905.54,-401.81C902.73,-401.98 899.87,-402.15 897.03,-402.31"/>
</g>
<!-- CBY8&#45;J -->
<g id="CBY8&#45;J" class="node">
<title>CBY8&#45;J</title>
<ellipse fill="none" stroke="black" cx="1000" cy="-463.62" rx="42.49" ry="18"/>
<text text-anchor="middle" x="1000" y="-459.92" font-family="Times,serif" font-size="14.00">CBY8&#45;J</text>
</g>
<!-- A&#45;0IIQ&#45;&#45;CBY8&#45;J -->
<g id="edge36" class="edge">
<title>A&#45;0IIQ&#45;&#45;CBY8&#45;J</title>
<path fill="none" stroke="black" d="M959.9,-416.32C967.83,-425.67 977.67,-437.28 985.61,-446.65"/>
</g>
<!-- E&#45;BYOS -->
<g id="E&#45;BYOS" class="node">
<title>E&#45;BYOS</title>
<ellipse fill="none" stroke="black" cx="903.57" cy="-451.13" rx="46.29" ry="18"/>
<text text-anchor="middle" x="903.57" y="-447.43" font-family="Times,serif" font-size="14.00">E&#45;BYOS</text>
</g>
<!-- A&#45;0IIQ&#45;&#45;E&#45;BYOS -->
<g id="edge37" class="edge">
<title>A&#45;0IIQ&#45;&#45;E&#45;BYOS</title>
<path fill="none" stroke="black" d="M931.84,-416.38C927.34,-421.91 922.33,-428.07 917.8,-433.64"/>
</g>
<!-- ETXT&#45;F -->
<g id="ETXT&#45;F" class="node">
<title>ETXT&#45;F</title>
<ellipse fill="none" stroke="black" cx="900.98" cy="-500.77" rx="44.39" ry="18"/>
<text text-anchor="middle" x="900.98" y="-497.07" font-family="Times,serif" font-size="14.00">ETXT&#45;F</text>
</g>
<!-- A&#45;0IIQ&#45;&#45;ETXT&#45;F -->
<g id="edge38" class="edge">
<title>A&#45;0IIQ&#45;&#45;ETXT&#45;F</title>
<path fill="none" stroke="black" d="M951.49,-417.66C953.82,-427.81 955.14,-440.53 951.32,-451.27 946.38,-465.13 935.02,-476.87 924.33,-485.43"/>
</g>
<!-- CBY8&#45;J&#45;&#45;I&#45;CMZA -->
<g id="edge39" class="edge">
<title>CBY8&#45;J&#45;&#45;I&#45;CMZA</title>
<path fill="none" stroke="black" d="M974.59,-449.16C957.69,-439.36 935.13,-425.93 915.74,-413.21 901.76,-404.03 899.11,-400.49 885.16,-391.26 876.73,-385.68 867.33,-379.85 858.88,-374.74"/>
</g>
<!-- CBY8&#45;J&#45;&#45;E&#45;BYOS -->
<g id="edge40" class="edge">
<title>CBY8&#45;J&#45;&#45;E&#45;BYOS</title>
<path fill="none" stroke="black" d="M959.38,-458.36C955.47,-457.85 951.49,-457.34 947.55,-456.83"/>
</g>
<!-- E&#45;BYOS&#45;&#45;I&#45;CMZA -->
<g id="edge41" class="edge">
<title>E&#45;BYOS&#45;&#45;I&#45;CMZA</title>
<path fill="none" stroke="black" d="M904.47,-432.93C904.22,-424.16 902.91,-413.73 898.88,-405.17 892.15,-390.89 878.42,-380.31 865.25,-372.97"/>
</g>
<!-- E&#45;BYOS&#45;&#45;H23&#45;B5 -->
<g id="edge42" class="edge">
<title>E&#45;BYOS&#45;&#45;H23&#45;B5</title>
<path fill="none" stroke="black" d="M884.64,-434.48C879.83,-430.25 874.66,-425.7 869.86,-421.48"/>
</g>
<!-- E&#45;BYOS&#45;&#45;ETXT&#45;F -->
<g id="edge43" class="edge">
<title>E&#45;BYOS&#45;&#45;ETXT&#45;F</title>
<path fill="none" stroke="black" d="M902.62,-469.33C902.4,-473.65 902.16,-478.25 901.93,-482.57"/>
</g>
<!-- ETXT&#45;F&#45;&#45;H23&#45;B5 -->
<g id="edge44" class="edge">
<title>ETXT&#45;F&#45;&#45;H23&#45;B5</title>
<path fill="none" stroke="black" d="M881.11,-484.38C871.8,-475.51 861.53,-463.78 855.83,-450.99 851.97,-442.34 850.68,-431.9 850.4,-423.15"/>
</g>
<!-- 2&#45;9Z6V -->
<g id="_2&#45;9Z6V" class="node">
<title>2&#45;9Z6V</title>
<ellipse fill="none" stroke="black" cx="1030.8" cy="-169.64" rx="44.39" ry="18"/>
<text text-anchor="middle" x="1030.8" y="-165.94" font-family="Times,serif" font-size="14.00">2&#45;9Z6V</text>
</g>
<!-- 2&#45;9Z6V&#45;&#45;MK&#45;YNM -->
<g id="edge45" class="edge">
<title>2&#45;9Z6V&#45;&#45;MK&#45;YNM</title>
<path fill="none" stroke="black" d="M1010.7,-185.94C1003.7,-191.61 995.89,-197.97 988.89,-203.66"/>
</g>
<!-- E&#45;B957 -->
<g id="E&#45;B957" class="node">
<title>E&#45;B957</title>
<ellipse fill="none" stroke="black" cx="1130.3" cy="-131.32" rx="45" ry="18"/>
<text text-anchor="middle" x="1130.3" y="-127.62" font-family="Times,serif" font-size="14.00">E&#45;B957</text>
</g>
<!-- 2&#45;9Z6V&#45;&#45;E&#45;B957 -->
<g id="edge46" class="edge">
<title>2&#45;9Z6V&#45;&#45;E&#45;B957</title>
<path fill="none" stroke="black" d="M1063.1,-157.2C1074.2,-152.92 1086.6,-148.12 1097.8,-143.83"/>
</g>
<!-- 5HN&#45;D6 -->
<g id="_5HN&#45;D6" class="node">
<title>5HN&#45;D6</title>
<ellipse fill="none" stroke="black" cx="934.51" cy="-121.69" rx="48.19" ry="18"/>
<text text-anchor="middle" x="934.51" y="-117.99" font-family="Times,serif" font-size="14.00">5HN&#45;D6</text>
</g>
<!-- 5HN&#45;D6&#45;&#45;MK&#45;YNM -->
<g id="edge47" class="edge">
<title>5HN&#45;D6&#45;&#45;MK&#45;YNM</title>
<path fill="none" stroke="black" d="M940.73,-139.77C946.85,-157.56 956.15,-184.56 962.25,-202.31"/>
</g>
<!-- P&#45;H5IY -->
<g id="P&#45;H5IY" class="node">
<title>P&#45;H5IY</title>
<ellipse fill="none" stroke="black" cx="982.78" cy="-70.02" rx="42.49" ry="18"/>
<text text-anchor="middle" x="982.78" y="-66.32" font-family="Times,serif" font-size="14.00">P&#45;H5IY</text>
</g>
<!-- 5HN&#45;D6&#45;&#45;P&#45;H5IY -->
<g id="edge48" class="edge">
<title>5HN&#45;D6&#45;&#45;P&#45;H5IY</title>
<path fill="none" stroke="black" d="M950.58,-104.48C955.85,-98.85 961.69,-92.59 966.94,-86.98"/>
</g>
<!-- 4A&#45;6NI -->
<g id="_4A&#45;6NI" class="node">
<title>4A&#45;6NI</title>
<ellipse fill="none" stroke="black" cx="1080.5" cy="-215.52" rx="43" ry="18"/>
<text text-anchor="middle" x="1080.5" y="-211.82" font-family="Times,serif" font-size="14.00">4A&#45;6NI</text>
</g>
<!-- 4A&#45;6NI&#45;&#45;MK&#45;YNM -->
<g id="edge49" class="edge">
<title>4A&#45;6NI&#45;&#45;MK&#45;YNM</title>
<path fill="none" stroke="black" d="M1037.8,-217.33C1031.9,-217.58 1025.7,-217.84 1019.7,-218.1"/>
</g>
<!-- 4A&#45;6NI&#45;&#45;E&#45;B957 -->
<g id="edge50" class="edge">
<title>4A&#45;6NI&#45;&#45;E&#45;B957</title>
<path fill="none" stroke="black" d="M1091.1,-197.66C1099.6,-183.28 1111.4,-163.16 1119.9,-148.86"/>
</g>
<!-- 1M7&#45;RK -->
<g id="_1M7&#45;RK" class="node">
<title>1M7&#45;RK</title>
<ellipse fill="none" stroke="black" cx="1019.3" cy="-18" rx="48.19" ry="18"/>
<text text-anchor="middle" x="1019.3" y="-14.3" font-family="Times,serif" font-size="14.00">1M7&#45;RK</text>
</g>
<!-- 1M7&#45;RK&#45;&#45;P&#45;H5IY -->
<g id="edge51" class="edge">
<title>1M7&#45;RK&#45;&#45;P&#45;H5IY</title>
<path fill="none" stroke="black" d="M1007,-35.61C1003.1,-41.04 998.95,-47.01 995.14,-52.43"/>
</g>
<!-- 5ED&#45;4E -->
<g id="_5ED&#45;4E" class="node">
<title>5ED&#45;4E</title>
<ellipse fill="none" stroke="black" cx="600.66" cy="-297.93" rx="46.29" ry="18"/>
<text text-anchor="middle" x="600.66" y="-294.23" font-family="Times,serif" font-size="14.00">5ED&#45;4E</text>
</g>
<!-- 5ED&#45;4E&#45;&#45;C2&#45;1B5 -->
<g id="edge52" class="edge">
<title>5ED&#45;4E&#45;&#45;C2&#45;1B5</title>
<path fill="none" stroke="black" d="M646.72,-296.15C649.45,-296.05 652.19,-295.94 654.92,-295.84"/>
</g>
<!-- 5ED&#45;4E&#45;&#45;DN58&#45;U -->
<g id="edge53" class="edge">
<title>5ED&#45;4E&#45;&#45;DN58&#45;U</title>
<path fill="none" stroke="black" d="M625.65,-282.46C639.52,-273.87 656.73,-263.22 670.63,-254.62"/>
</g>
<!-- 5ED&#45;4E&#45;&#45;JE&#45;VLG -->
<g id="edge54" class="edge">
<title>5ED&#45;4E&#45;&#45;JE&#45;VLG</title>
<path fill="none" stroke="black" d="M601.12,-279.53C601.59,-260.79 602.31,-231.91 602.78,-213.23"/>
</g>
<!-- B&#45;U299 -->
<g id="B&#45;U299" class="node">
<title>B&#45;U299</title>
<ellipse fill="none" stroke="black" cx="544.2" cy="-341.94" rx="46.29" ry="18"/>
<text text-anchor="middle" x="544.2" y="-338.24" font-family="Times,serif" font-size="14.00">B&#45;U299</text>
</g>
<!-- 5ED&#45;4E&#45;&#45;B&#45;U299 -->
<g id="edge55" class="edge">
<title>5ED&#45;4E&#45;&#45;B&#45;U299</title>
<path fill="none" stroke="black" d="M579.96,-314.07C575.05,-317.89 569.81,-321.98 564.9,-325.8"/>
</g>
<!-- CUT&#45;0V -->
<g id="CUT&#45;0V" class="node">
<title>CUT&#45;0V</title>
<ellipse fill="none" stroke="black" cx="457.74" cy="-386.67" rx="45.5" ry="18"/>
<text text-anchor="middle" x="457.74" y="-382.97" font-family="Times,serif" font-size="14.00">CUT&#45;0V</text>
</g>
<!-- B&#45;U299&#45;&#45;CUT&#45;0V -->
<g id="edge56" class="edge">
<title>B&#45;U299&#45;&#45;CUT&#45;0V</title>
<path fill="none" stroke="black" d="M516.37,-356.34C506.5,-361.44 495.39,-367.19 485.52,-372.3"/>
</g>
<!-- QT&#45;EBC -->
<g id="QT&#45;EBC" class="node">
<title>QT&#45;EBC</title>
<ellipse fill="none" stroke="black" cx="554.02" cy="-430.68" rx="46.29" ry="18"/>
<text text-anchor="middle" x="554.02" y="-426.98" font-family="Times,serif" font-size="14.00">QT&#45;EBC</text>
</g>
<!-- CUT&#45;0V&#45;&#45;QT&#45;EBC -->
<g id="edge57" class="edge">
<title>CUT&#45;0V&#45;&#45;QT&#45;EBC</title>
<path fill="none" stroke="black" d="M487.68,-400.36C499.16,-405.6 512.26,-411.59 523.77,-416.86"/>
</g>
<!-- U6R&#45;F9 -->
<g id="U6R&#45;F9" class="node">
<title>U6R&#45;F9</title>
<ellipse fill="none" stroke="black" cx="654.34" cy="-430.05" rx="46.29" ry="18"/>
<text text-anchor="middle" x="654.34" y="-426.35" font-family="Times,serif" font-size="14.00">U6R&#45;F9</text>
</g>
<!-- CUT&#45;0V&#45;&#45;U6R&#45;F9 -->
<g id="edge58" class="edge">
<title>CUT&#45;0V&#45;&#45;U6R&#45;F9</title>
<path fill="none" stroke="black" d="M497.53,-395.45C531.41,-402.93 579.88,-413.62 613.94,-421.14"/>
</g>
<!-- QT&#45;EBC&#45;&#45;VAF1&#45;P -->
<g id="edge59" class="edge">
<title>QT&#45;EBC&#45;&#45;VAF1&#45;P</title>
<path fill="none" stroke="black" d="M591.72,-441.23C610.34,-445.57 633.23,-449.6 654.09,-449.65 669.34,-449.69 672.93,-446.72 687.93,-443.98 696.05,-442.5 704.74,-440.83 713.02,-439.21"/>
</g>
<!-- FV1&#45;RQ -->
<g id="FV1&#45;RQ" class="node">
<title>FV1&#45;RQ</title>
<ellipse fill="none" stroke="black" cx="710.26" cy="-475.19" rx="46.29" ry="18"/>
<text text-anchor="middle" x="710.26" y="-471.49" font-family="Times,serif" font-size="14.00">FV1&#45;RQ</text>
</g>
<!-- FV1&#45;RQ&#45;&#45;VAF1&#45;P -->
<g id="edge60" class="edge">
<title>FV1&#45;RQ&#45;&#45;VAF1&#45;P</title>
<path fill="none" stroke="black" d="M726.57,-458.29C729.85,-454.89 733.29,-451.32 736.56,-447.93"/>
</g>
<!-- FV1&#45;RQ&#45;&#45;QT&#45;EBC -->
<g id="edge61" class="edge">
<title>FV1&#45;RQ&#45;&#45;QT&#45;EBC</title>
<path fill="none" stroke="black" d="M672.84,-464.53C648.19,-457.51 616.05,-448.35 591.41,-441.33"/>
</g>
<!-- O&#45;F4SN -->
<g id="O&#45;F4SN" class="node">
<title>O&#45;F4SN</title>
<ellipse fill="none" stroke="black" cx="609.65" cy="-386.04" rx="48.19" ry="18"/>
<text text-anchor="middle" x="609.65" y="-382.34" font-family="Times,serif" font-size="14.00">O&#45;F4SN</text>
</g>
<!-- O&#45;F4SN&#45;&#45;QT&#45;EBC -->
<g id="edge62" class="edge">
<title>O&#45;F4SN&#45;&#45;QT&#45;EBC</title>
<path fill="none" stroke="black" d="M589.26,-402.41C584.42,-406.3 579.26,-410.44 574.42,-414.32"/>
</g>
<!-- 9&#45;WEMC -->
<g id="_9&#45;WEMC" class="node">
<title>9&#45;WEMC</title>
<ellipse fill="none" stroke="black" cx="426.83" cy="-323.36" rx="51.5" ry="18"/>
<text text-anchor="middle" x="426.83" y="-319.66" font-family="Times,serif" font-size="14.00">9&#45;WEMC</text>
</g>
<!-- 9&#45;WEMC&#45;&#45;CUT&#45;0V -->
<g id="edge63" class="edge">
<title>9&#45;WEMC&#45;&#45;CUT&#45;0V</title>
<path fill="none" stroke="black" d="M435.61,-341.33C439.82,-349.96 444.85,-360.27 449.05,-368.87"/>
</g>
<!-- E0DR&#45;G -->
<g id="E0DR&#45;G" class="node">
<title>E0DR&#45;G</title>
<ellipse fill="none" stroke="black" cx="498.4" cy="-261.53" rx="48.19" ry="18"/>
<text text-anchor="middle" x="498.4" y="-257.83" font-family="Times,serif" font-size="14.00">E0DR&#45;G</text>
</g>
<!-- 9&#45;WEMC&#45;&#45;E0DR&#45;G -->
<g id="edge64" class="edge">
<title>9&#45;WEMC&#45;&#45;E0DR&#45;G</title>
<path fill="none" stroke="black" d="M446.39,-306.47C456.49,-297.74 468.77,-287.13 478.87,-278.41"/>
</g>
<!-- KI2&#45;S3 -->
<g id="KI2&#45;S3" class="node">
<title>KI2&#45;S3</title>
<ellipse fill="none" stroke="black" cx="510.03" cy="-216.8" rx="42.49" ry="18"/>
<text text-anchor="middle" x="510.03" y="-213.1" font-family="Times,serif" font-size="14.00">KI2&#45;S3</text>
</g>
<!-- E0DR&#45;G&#45;&#45;KI2&#45;S3 -->
<g id="edge65" class="edge">
<title>E0DR&#45;G&#45;&#45;KI2&#45;S3</title>
<path fill="none" stroke="black" d="M503.06,-243.6C503.82,-240.68 504.61,-237.66 505.37,-234.74"/>
</g>
<!-- L&#45;Z9NB -->
<g id="L&#45;Z9NB" class="node">
<title>L&#45;Z9NB</title>
<ellipse fill="none" stroke="black" cx="605.22" cy="-518.73" rx="46.29" ry="18"/>
<text text-anchor="middle" x="605.22" y="-515.03" font-family="Times,serif" font-size="14.00">L&#45;Z9NB</text>
</g>
<!-- L&#45;Z9NB&#45;&#45;U6R&#45;F9 -->
<g id="edge66" class="edge">
<title>L&#45;Z9NB&#45;&#45;U6R&#45;F9</title>
<path fill="none" stroke="black" d="M615.16,-500.79C623.74,-485.3 636.06,-463.06 644.58,-447.67"/>
</g>
<!-- EJ&#45;5X2 -->
<g id="EJ&#45;5X2" class="node">
<title>EJ&#45;5X2</title>
<ellipse fill="none" stroke="black" cx="618.04" cy="-584.23" rx="42.49" ry="18"/>
<text text-anchor="middle" x="618.04" y="-580.53" font-family="Times,serif" font-size="14.00">EJ&#45;5X2</text>
</g>
<!-- EJ&#45;5X2&#45;&#45;IAMJ&#45;Q -->
<g id="edge67" class="edge">
<title>EJ&#45;5X2&#45;&#45;IAMJ&#45;Q</title>
<path fill="none" stroke="black" d="M618.83,-602.45C619.07,-607.83 619.32,-613.71 619.56,-619.09"/>
</g>
<!-- EJ&#45;5X2&#45;&#45;L&#45;Z9NB -->
<g id="edge68" class="edge">
<title>EJ&#45;5X2&#45;&#45;L&#45;Z9NB</title>
<path fill="none" stroke="black" d="M614.47,-565.99C612.69,-556.9 610.55,-545.95 608.77,-536.88"/>
</g>
<!-- HXK&#45;J6 -->
<g id="HXK&#45;J6" class="node">
<title>HXK&#45;J6</title>
<ellipse fill="none" stroke="black" cx="529.6" cy="-474.7" rx="43.59" ry="18"/>
<text text-anchor="middle" x="529.6" y="-471" font-family="Times,serif" font-size="14.00">HXK&#45;J6</text>
</g>
<!-- HXK&#45;J6&#45;&#45;U6R&#45;F9 -->
<g id="edge69" class="edge">
<title>HXK&#45;J6&#45;&#45;U6R&#45;F9</title>
<path fill="none" stroke="black" d="M562.7,-462.86C580.46,-456.5 602.31,-448.68 620.22,-442.27"/>
</g>
<!-- 4LNE&#45;M -->
<g id="_4LNE&#45;M" class="node">
<title>4LNE&#45;M</title>
<ellipse fill="none" stroke="black" cx="501.55" cy="-561.45" rx="49.5" ry="18"/>
<text text-anchor="middle" x="501.55" y="-557.75" font-family="Times,serif" font-size="14.00">4LNE&#45;M</text>
</g>
<!-- 4LNE&#45;M&#45;&#45;L&#45;Z9NB -->
<g id="edge70" class="edge">
<title>4LNE&#45;M&#45;&#45;L&#45;Z9NB</title>
<path fill="none" stroke="black" d="M534.35,-547.93C546.81,-542.8 560.97,-536.96 573.34,-531.87"/>
</g>
<!-- 4LNE&#45;M&#45;&#45;HXK&#45;J6 -->
<g id="edge71" class="edge">
<title>4LNE&#45;M&#45;&#45;HXK&#45;J6</title>
<path fill="none" stroke="black" d="M507.36,-543.47C512.18,-528.59 518.99,-507.54 523.8,-492.65"/>
</g>
<!-- DK0&#45;N8 -->
<g id="DK0&#45;N8" class="node">
<title>DK0&#45;N8</title>
<ellipse fill="none" stroke="black" cx="409.43" cy="-514.63" rx="47.5" ry="18"/>
<text text-anchor="middle" x="409.43" y="-510.93" font-family="Times,serif" font-size="14.00">DK0&#45;N8</text>
</g>
<!-- 4LNE&#45;M&#45;&#45;DK0&#45;N8 -->
<g id="edge72" class="edge">
<title>4LNE&#45;M&#45;&#45;DK0&#45;N8</title>
<path fill="none" stroke="black" d="M472.66,-546.76C461.58,-541.13 448.95,-534.71 437.91,-529.1"/>
</g>
<!-- D9Z&#45;VY -->
<g id="D9Z&#45;VY" class="node">
<title>D9Z&#45;VY</title>
<ellipse fill="none" stroke="black" cx="481.28" cy="-605.47" rx="45" ry="18"/>
<text text-anchor="middle" x="481.28" y="-601.77" font-family="Times,serif" font-size="14.00">D9Z&#45;VY</text>
</g>
<!-- 4LNE&#45;M&#45;&#45;D9Z&#45;VY -->
<g id="edge73" class="edge">
<title>4LNE&#45;M&#45;&#45;D9Z&#45;VY</title>
<path fill="none" stroke="black" d="M493.31,-579.35C492.04,-582.11 490.72,-584.97 489.45,-587.72"/>
</g>
<!-- J&#45;QOKQ -->
<g id="J&#45;QOKQ" class="node">
<title>J&#45;QOKQ</title>
<ellipse fill="none" stroke="black" cx="307.74" cy="-486.83" rx="46.29" ry="18"/>
<text text-anchor="middle" x="307.74" y="-483.13" font-family="Times,serif" font-size="14.00">J&#45;QOKQ</text>
</g>
<!-- DK0&#45;N8&#45;&#45;J&#45;QOKQ -->
<g id="edge74" class="edge">
<title>DK0&#45;N8&#45;&#45;J&#45;QOKQ</title>
<path fill="none" stroke="black" d="M370.7,-504.04C362.5,-501.8 353.86,-499.44 345.7,-497.21"/>
</g>
<!-- MO&#45;YDG -->
<g id="MO&#45;YDG" class="node">
<title>MO&#45;YDG</title>
<ellipse fill="none" stroke="black" cx="384.61" cy="-649.48" rx="50.09" ry="18"/>
<text text-anchor="middle" x="384.61" y="-645.78" font-family="Times,serif" font-size="14.00">MO&#45;YDG</text>
</g>
<!-- D9Z&#45;VY&#45;&#45;MO&#45;YDG -->
<g id="edge75" class="edge">
<title>D9Z&#45;VY&#45;&#45;MO&#45;YDG</title>
<path fill="none" stroke="black" d="M451.49,-619.04C440.17,-624.19 427.26,-630.07 415.81,-635.28"/>
</g>
<!-- RGU1&#45;T -->
<g id="RGU1&#45;T" class="node">
<title>RGU1&#45;T</title>
<ellipse fill="none" stroke="black" cx="468.65" cy="-697.47" rx="47.5" ry="18"/>
<text text-anchor="middle" x="468.65" y="-693.77" font-family="Times,serif" font-size="14.00">RGU1&#45;T</text>
</g>
<!-- D9Z&#45;VY&#45;&#45;RGU1&#45;T -->
<g id="edge76" class="edge">
<title>D9Z&#45;VY&#45;&#45;RGU1&#45;T</title>
<path fill="none" stroke="black" d="M478.79,-623.65C476.57,-639.78 473.36,-663.22 471.14,-679.33"/>
</g>
<!-- Q&#45;VTWJ -->
<g id="Q&#45;VTWJ" class="node">
<title>Q&#45;VTWJ</title>
<ellipse fill="none" stroke="black" cx="316.51" cy="-705.19" rx="46.29" ry="18"/>
<text text-anchor="middle" x="316.51" y="-701.49" font-family="Times,serif" font-size="14.00">Q&#45;VTWJ</text>
</g>
<!-- MO&#45;YDG&#45;&#45;Q&#45;VTWJ -->
<g id="edge77" class="edge">
<title>MO&#45;YDG&#45;&#45;Q&#45;VTWJ</title>
<path fill="none" stroke="black" d="M364.18,-666.2C355.4,-673.38 345.18,-681.74 336.46,-688.87"/>
</g>
<!-- VY&#45;866 -->
<g id="VY&#45;866" class="node">
<title>VY&#45;866</title>
<ellipse fill="none" stroke="black" cx="512.88" cy="-789.04" rx="42.49" ry="18"/>
<text text-anchor="middle" x="512.88" y="-785.34" font-family="Times,serif" font-size="14.00">VY&#45;866</text>
</g>
<!-- RGU1&#45;T&#45;&#45;VY&#45;866 -->
<g id="edge78" class="edge">
<title>RGU1&#45;T&#45;&#45;VY&#45;866</title>
<path fill="none" stroke="black" d="M477.39,-715.56C485.19,-731.72 496.56,-755.25 504.31,-771.3"/>
</g>
<!-- CHP&#45;76 -->
<g id="CHP&#45;76" class="node">
<title>CHP&#45;76</title>
<ellipse fill="none" stroke="black" cx="456.11" cy="-172.77" rx="46.29" ry="18"/>
<text text-anchor="middle" x="456.11" y="-169.07" font-family="Times,serif" font-size="14.00">CHP&#45;76</text>
</g>
<!-- CHP&#45;76&#45;&#45;KI2&#45;S3 -->
<g id="edge79" class="edge">
<title>CHP&#45;76&#45;&#45;KI2&#45;S3</title>
<path fill="none" stroke="black" d="M476.19,-189.16C480.86,-192.98 485.82,-197.03 490.47,-200.83"/>
</g>
<!-- T&#45;67F8 -->
<g id="T&#45;67F8" class="node">
<title>T&#45;67F8</title>
<ellipse fill="none" stroke="black" cx="436.72" cy="-120.24" rx="42.49" ry="18"/>
<text text-anchor="middle" x="436.72" y="-116.54" font-family="Times,serif" font-size="14.00">T&#45;67F8</text>
</g>
<!-- CHP&#45;76&#45;&#45;T&#45;67F8 -->
<g id="edge80" class="edge">
<title>CHP&#45;76&#45;&#45;T&#45;67F8</title>
<path fill="none" stroke="black" d="M449.44,-154.69C447.46,-149.35 445.31,-143.5 443.34,-138.17"/>
</g>
<!-- M&#45;VACR -->
<g id="M&#45;VACR" class="node">
<title>M&#45;VACR</title>
<ellipse fill="none" stroke="black" cx="518.85" cy="-72.41" rx="48.19" ry="18"/>
<text text-anchor="middle" x="518.85" y="-68.71" font-family="Times,serif" font-size="14.00">M&#45;VACR</text>
</g>
<!-- CHP&#45;76&#45;&#45;M&#45;VACR -->
<g id="edge81" class="edge">
<title>CHP&#45;76&#45;&#45;M&#45;VACR</title>
<path fill="none" stroke="black" d="M467.32,-154.82C478.75,-136.56 496.35,-108.41 507.73,-90.2"/>
</g>
<!-- 58Z&#45;IH -->
<g id="_58Z&#45;IH" class="node">
<title>58Z&#45;IH</title>
<ellipse fill="none" stroke="black" cx="536.85" cy="-128.75" rx="43" ry="18"/>
<text text-anchor="middle" x="536.85" y="-125.05" font-family="Times,serif" font-size="14.00">58Z&#45;IH</text>
</g>
<!-- 58Z&#45;IH&#45;&#45;KI2&#45;S3 -->
<g id="edge82" class="edge">
<title>58Z&#45;IH&#45;&#45;KI2&#45;S3</title>
<path fill="none" stroke="black" d="M531.29,-147C526.66,-162.21 520.09,-183.76 515.49,-198.88"/>
</g>
<!-- 58Z&#45;IH&#45;&#45;T&#45;67F8 -->
<g id="edge83" class="edge">
<title>58Z&#45;IH&#45;&#45;T&#45;67F8</title>
<path fill="none" stroke="black" d="M494.68,-125.17C489.22,-124.7 483.64,-124.23 478.2,-123.77"/>
</g>
<!-- 58Z&#45;IH&#45;&#45;M&#45;VACR -->
<g id="edge84" class="edge">
<title>58Z&#45;IH&#45;&#45;M&#45;VACR</title>
<path fill="none" stroke="black" d="M531.05,-110.62C529,-104.18 526.69,-96.94 524.63,-90.51"/>
</g>
<!-- 0B&#45;VOJ -->
<g id="_0B&#45;VOJ" class="node">
<title>0B&#45;VOJ</title>
<ellipse fill="none" stroke="black" cx="399.36" cy="-262.6" rx="43" ry="18"/>
<text text-anchor="middle" x="399.36" y="-258.9" font-family="Times,serif" font-size="14.00">0B&#45;VOJ</text>
</g>
<!-- 0B&#45;VOJ&#45;&#45;E0DR&#45;G -->
<g id="edge85" class="edge">
<title>0B&#45;VOJ&#45;&#45;E0DR&#45;G</title>
<path fill="none" stroke="black" d="M442.51,-262.14C445.01,-262.11 447.54,-262.08 450.06,-262.06"/>
</g>
<!-- 4GSZ&#45;1 -->
<g id="_4GSZ&#45;1" class="node">
<title>4GSZ&#45;1</title>
<ellipse fill="none" stroke="black" cx="208" cy="-524.34" rx="45.5" ry="18"/>
<text text-anchor="middle" x="208" y="-520.64" font-family="Times,serif" font-size="14.00">4GSZ&#45;1</text>
</g>
<!-- 4GSZ&#45;1&#45;&#45;J&#45;QOKQ -->
<g id="edge86" class="edge">
<title>4GSZ&#45;1&#45;&#45;J&#45;QOKQ</title>
<path fill="none" stroke="black" d="M241.22,-511.85C251.87,-507.84 263.67,-503.4 274.34,-499.39"/>
</g>
<!-- E&#45;EFAM -->
<g id="E&#45;EFAM" class="node">
<title>E&#45;EFAM</title>
<ellipse fill="none" stroke="black" cx="105.41" cy="-520.6" rx="48.19" ry="18"/>
<text text-anchor="middle" x="105.41" y="-516.9" font-family="Times,serif" font-size="14.00">E&#45;EFAM</text>
</g>
<!-- 4GSZ&#45;1&#45;&#45;E&#45;EFAM -->
<g id="edge87" class="edge">
<title>4GSZ&#45;1&#45;&#45;E&#45;EFAM</title>
<path fill="none" stroke="black" d="M162.41,-522.67C159.41,-522.56 156.39,-522.45 153.38,-522.34"/>
</g>
<!-- SBEN&#45;Q -->
<g id="SBEN&#45;Q" class="node">
<title>SBEN&#45;Q</title>
<ellipse fill="none" stroke="black" cx="48.75" cy="-475.25" rx="48.99" ry="18"/>
<text text-anchor="middle" x="48.75" y="-471.55" font-family="Times,serif" font-size="14.00">SBEN&#45;Q</text>
</g>
<!-- E&#45;EFAM&#45;&#45;SBEN&#45;Q -->
<g id="edge88" class="edge">
<title>E&#45;EFAM&#45;&#45;SBEN&#45;Q</title>
<path fill="none" stroke="black" d="M84.95,-504.23C79.88,-500.17 74.44,-495.82 69.36,-491.75"/>
</g>
<!-- VEQ&#45;3V -->
<g id="VEQ&#45;3V" class="node">
<title>VEQ&#45;3V</title>
<ellipse fill="none" stroke="black" cx="58.7" cy="-564.77" rx="47" ry="18"/>
<text text-anchor="middle" x="58.7" y="-561.07" font-family="Times,serif" font-size="14.00">VEQ&#45;3V</text>
</g>
<!-- E&#45;EFAM&#45;&#45;VEQ&#45;3V -->
<g id="edge89" class="edge">
<title>E&#45;EFAM&#45;&#45;VEQ&#45;3V</title>
<path fill="none" stroke="black" d="M87.48,-537.55C83.88,-540.96 80.1,-544.54 76.5,-547.94"/>
</g>
<!-- 9&#45;7SRQ -->
<g id="_9&#45;7SRQ" class="node">
<title>9&#45;7SRQ</title>
<ellipse fill="none" stroke="black" cx="246.34" cy="-442.17" rx="46.29" ry="18"/>
<text text-anchor="middle" x="246.34" y="-438.47" font-family="Times,serif" font-size="14.00">9&#45;7SRQ</text>
</g>
<!-- 9&#45;7SRQ&#45;&#45;J&#45;QOKQ -->
<g id="edge90" class="edge">
<title>9&#45;7SRQ&#45;&#45;J&#45;QOKQ</title>
<path fill="none" stroke="black" d="M268.16,-458.04C273.81,-462.15 279.91,-466.59 285.58,-470.71"/>
</g>
<!-- 4T&#45;VDE -->
<g id="_4T&#45;VDE" class="node">
<title>4T&#45;VDE</title>
<ellipse fill="none" stroke="black" cx="284.99" cy="-397.47" rx="44.39" ry="18"/>
<text text-anchor="middle" x="284.99" y="-393.77" font-family="Times,serif" font-size="14.00">4T&#45;VDE</text>
</g>
<!-- 4T&#45;VDE&#45;&#45;J&#45;QOKQ -->
<g id="edge91" class="edge">
<title>4T&#45;VDE&#45;&#45;J&#45;QOKQ</title>
<path fill="none" stroke="black" d="M289.59,-415.55C293.54,-431.05 299.2,-453.28 303.15,-468.77"/>
</g>
<!-- 42SU&#45;L -->
<g id="_42SU&#45;L" class="node">
<title>42SU&#45;L</title>
<ellipse fill="none" stroke="black" cx="281.71" cy="-661.16" rx="45" ry="18"/>
<text text-anchor="middle" x="281.71" y="-657.46" font-family="Times,serif" font-size="14.00">42SU&#45;L</text>
</g>
<!-- 42SU&#45;L&#45;&#45;MO&#45;YDG -->
<g id="edge92" class="edge">
<title>42SU&#45;L&#45;&#45;MO&#45;YDG</title>
<path fill="none" stroke="black" d="M325.05,-656.24C328.89,-655.8 332.8,-655.36 336.68,-654.92"/>
</g>
<!-- 1GT&#45;MA -->
<g id="_1GT&#45;MA" class="node">
<title>1GT&#45;MA</title>
<ellipse fill="none" stroke="black" cx="422.84" cy="-745.01" rx="47.5" ry="18"/>
<text text-anchor="middle" x="422.84" y="-741.31" font-family="Times,serif" font-size="14.00">1GT&#45;MA</text>
</g>
<!-- 1GT&#45;MA&#45;&#45;RGU1&#45;T -->
<g id="edge93" class="edge">
<title>1GT&#45;MA&#45;&#45;RGU1&#45;T</title>
<path fill="none" stroke="black" d="M439.38,-727.85C443.58,-723.49 448.1,-718.8 452.29,-714.45"/>
</g>
<!-- HB&#45;5L3 -->
<g id="HB&#45;5L3" class="node">
<title>HB&#45;5L3</title>
<ellipse fill="none" stroke="black" cx="480.96" cy="-841.71" rx="46.29" ry="18"/>
<text text-anchor="middle" x="480.96" y="-838.01" font-family="Times,serif" font-size="14.00">HB&#45;5L3</text>
</g>
<!-- HB&#45;5L3&#45;&#45;SF&#45;XJS -->
<g id="edge94" class="edge">
<title>HB&#45;5L3&#45;&#45;SF&#45;XJS</title>
<path fill="none" stroke="black" d="M471.39,-859.52C468.63,-864.66 465.61,-870.28 462.84,-875.43"/>
</g>
<!-- HB&#45;5L3&#45;&#45;VY&#45;866 -->
<g id="edge95" class="edge">
<title>HB&#45;5L3&#45;&#45;VY&#45;866</title>
<path fill="none" stroke="black" d="M491.59,-824.17C495,-818.55 498.77,-812.32 502.19,-806.68"/>
</g>
</g>
</svg>
