<?xml version="1.0" encoding="UTF-8" standalone="no"?>
<!DOCTYPE svg PUBLIC "-//W3C//DTD SVG 1.1//EN"
 "http://www.w3.org/Graphics/SVG/1.1/DTD/svg11.dtd">
<!-- Generated by graphviz version 2.43.0 (0)
 -->
<!-- Pages: 1 -->
<svg width="1205pt" height="824pt"
 viewBox="0.00 0.00 1205.30 824.23" xmlns="http://www.w3.org/2000/svg" xmlns:xlink="http://www.w3.org/1999/xlink">
<g id="graph0" class="graph" transform="scale(1 1) rotate(0) translate(4 820.23)">
<polygon fill="white" stroke="transparent" points="-4,4 -4,-820.23 1201.3,-820.23 1201.3,4 -4,4"/>
<!-- Sendaya -->
<g id="Sendaya" class="node">
<title>Sendaya</title>
<polygon fill="none" stroke="black" points="364.15,-813.54 287.15,-813.54 287.15,-777.54 364.15,-777.54 364.15,-813.54"/>
<text text-anchor="middle" x="325.65" y="-791.84" font-family="Times,serif" font-size="14.00">Sendaya</text>
</g>
<!-- ARG&#45;3R -->
<g id="ARG&#45;3R" class="node">
<title>ARG&#45;3R</title>
<polygon fill="none" stroke="black" points="640.19,-510.23 568.19,-510.23 568.19,-474.23 640.19,-474.23 640.19,-510.23"/>
<text text-anchor="middle" x="604.19" y="-488.53" font-family="Times,serif" font-size="14.00">ARG&#45;3R</text>
</g>
<!-- S&#45;E6ES -->
<g id="S&#45;E6ES" class="node">
<title>S&#45;E6ES</title>
<polygon fill="none" stroke="black" points="819.73,-231.08 748.73,-231.08 748.73,-195.08 819.73,-195.08 819.73,-231.08"/>
<text text-anchor="middle" x="784.23" y="-209.38" font-family="Times,serif" font-size="14.00">S&#45;E6ES</text>
</g>
<!-- ZFJH&#45;T -->
<g id="ZFJH&#45;T" class="node">
<title>ZFJH&#45;T</title>
<polygon fill="none" stroke="black" points="616.43,-377.61 549.43,-377.61 549.43,-341.61 616.43,-341.61 616.43,-377.61"/>
<text text-anchor="middle" x="582.93" y="-355.91" font-family="Times,serif" font-size="14.00">ZFJH&#45;T</text>
</g>
<!-- UT&#45;UZB -->
<g id="UT&#45;UZB" class="node">
<title>UT&#45;UZB</title>
<polygon fill="none" stroke="black" points="791.07,-422.21 718.07,-422.21 718.07,-386.21 791.07,-386.21 791.07,-422.21"/>
<text text-anchor="middle" x="754.57" y="-400.51" font-family="Times,serif" font-size="14.00">UT&#45;UZB</text>
</g>
<!-- H&#45;ADOC -->
<g id="H&#45;ADOC" class="node">
<title>H&#45;ADOC</title>
<ellipse fill="none" stroke="black" cx="683.23" cy="-213.22" rx="49.5" ry="18"/>
<text text-anchor="middle" x="683.23" y="-209.52" font-family="Times,serif" font-size="14.00">H&#45;ADOC</text>
</g>
<!-- H&#45;ADOC&#45;&#45;S&#45;E6ES -->
<g id="edge1" class="edge">
<title>H&#45;ADOC&#45;&#45;S&#45;E6ES</title>
<path fill="none" stroke="black" d="M732.84,-213.15C738.13,-213.15 743.43,-213.14 748.52,-213.13"/>
</g>
<!-- OSY&#45;UD -->
<g id="OSY&#45;UD" class="node">
<title>OSY&#45;UD</title>
<ellipse fill="none" stroke="black" cx="625.58" cy="-166.06" rx="47.5" ry="18"/>
<text text-anchor="middle" x="625.58" y="-162.36" font-family="Times,serif" font-size="14.00">OSY&#45;UD</text>
</g>
<!-- H&#45;ADOC&#45;&#45;OSY&#45;UD -->
<g id="edge2" class="edge">
<title>H&#45;ADOC&#45;&#45;OSY&#45;UD</title>
<path fill="none" stroke="black" d="M663.07,-196.72C657.48,-192.15 651.42,-187.19 645.83,-182.62"/>
</g>
<!-- Y&#45;DW5K -->
<g id="Y&#45;DW5K" class="node">
<title>Y&#45;DW5K</title>
<ellipse fill="none" stroke="black" cx="670.95" cy="-272.12" rx="48.19" ry="18"/>
<text text-anchor="middle" x="670.95" y="-268.42" font-family="Times,serif" font-size="14.00">Y&#45;DW5K</text>
</g>
<!-- H&#45;ADOC&#45;&#45;Y&#45;DW5K -->
<g id="edge3" class="edge">
<title>H&#45;ADOC&#45;&#45;Y&#45;DW5K</title>
<path fill="none" stroke="black" d="M679.48,-231.21C677.98,-238.38 676.26,-246.63 674.76,-253.83"/>
</g>
<!-- G&#45;G78S -->
<g id="G&#45;G78S" class="node">
<title>G&#45;G78S</title>
<ellipse fill="none" stroke="black" cx="727.35" cy="-144.09" rx="46.29" ry="18"/>
<text text-anchor="middle" x="727.35" y="-140.39" font-family="Times,serif" font-size="14.00">G&#45;G78S</text>
</g>
<!-- G&#45;G78S&#45;&#45;H&#45;ADOC -->
<g id="edge4" class="edge">
<title>G&#45;G78S&#45;&#45;H&#45;ADOC</title>
<path fill="none" stroke="black" d="M715.99,-161.89C709.45,-172.13 701.26,-184.97 694.71,-195.24"/>
</g>
<!-- G&#45;G78S&#45;&#45;OSY&#45;UD -->
<g id="edge5" class="edge">
<title>G&#45;G78S&#45;&#45;OSY&#45;UD</title>
<path fill="none" stroke="black" d="M686.84,-152.84C680.3,-154.25 673.52,-155.71 666.96,-157.13"/>
</g>
<!-- UW9B&#45;F -->
<g id="UW9B&#45;F" class="node">
<title>UW9B&#45;F</title>
<ellipse fill="none" stroke="black" cx="718.8" cy="-63.1" rx="50.09" ry="18"/>
<text text-anchor="middle" x="718.8" y="-59.4" font-family="Times,serif" font-size="14.00">UW9B&#45;F</text>
</g>
<!-- G&#45;G78S&#45;&#45;UW9B&#45;F -->
<g id="edge6" class="edge">
<title>G&#45;G78S&#45;&#45;UW9B&#45;F</title>
<path fill="none" stroke="black" d="M725.41,-125.71C724,-112.37 722.11,-94.39 720.7,-81.13"/>
</g>
<!-- ZZ&#45;ZWC -->
<g id="ZZ&#45;ZWC" class="node">
<title>ZZ&#45;ZWC</title>
<ellipse fill="none" stroke="black" cx="825.69" cy="-99.36" rx="48.99" ry="18"/>
<text text-anchor="middle" x="825.69" y="-95.66" font-family="Times,serif" font-size="14.00">ZZ&#45;ZWC</text>
</g>
<!-- G&#45;G78S&#45;&#45;ZZ&#45;ZWC -->
<g id="edge7" class="edge">
<title>G&#45;G78S&#45;&#45;ZZ&#45;ZWC</title>
<path fill="none" stroke="black" d="M757.66,-130.31C769.4,-124.97 782.82,-118.86 794.63,-113.49"/>
</g>
<!-- K&#45;MGJ7 -->
<g id="K&#45;MGJ7" class="node">
<title>K&#45;MGJ7</title>
<ellipse fill="none" stroke="black" cx="707.22" cy="-18" rx="46.29" ry="18"/>
<text text-anchor="middle" x="707.22" y="-14.3" font-family="Times,serif" font-size="14.00">K&#45;MGJ7</text>
</g>
<!-- K&#45;MGJ7&#45;&#45;UW9B&#45;F -->
<g id="edge8" class="edge">
<title>K&#45;MGJ7&#45;&#45;UW9B&#45;F</title>
<path fill="none" stroke="black" d="M711.86,-36.09C712.62,-39.02 713.4,-42.07 714.15,-45.01"/>
</g>
<!-- JWJ&#45;P1 -->
<g id="JWJ&#45;P1" class="node">
<title>JWJ&#45;P1</title>
<ellipse fill="none" stroke="black" cx="859.99" cy="-710.01" rx="42.49" ry="18"/>
<text text-anchor="middle" x="859.99" y="-706.31" font-family="Times,serif" font-size="14.00">JWJ&#45;P1</text>
</g>
<!-- V&#45;IUEL -->
<g id="V&#45;IUEL" class="node">
<title>V&#45;IUEL</title>
<ellipse fill="none" stroke="black" cx="687.78" cy="-669.35" rx="43.59" ry="18"/>
<text text-anchor="middle" x="687.78" y="-665.65" font-family="Times,serif" font-size="14.00">V&#45;IUEL</text>
</g>
<!-- 0SHT&#45;A -->
<g id="_0SHT&#45;A" class="node">
<title>0SHT&#45;A</title>
<ellipse fill="none" stroke="black" cx="784.26" cy="-666" rx="45" ry="18"/>
<text text-anchor="middle" x="784.26" y="-662.3" font-family="Times,serif" font-size="14.00">0SHT&#45;A</text>
</g>
<!-- 0SHT&#45;A&#45;&#45;JWJ&#45;P1 -->
<g id="edge9" class="edge">
<title>0SHT&#45;A&#45;&#45;JWJ&#45;P1</title>
<path fill="none" stroke="black" d="M809.89,-680.9C817.96,-685.59 826.86,-690.76 834.89,-695.42"/>
</g>
<!-- 0SHT&#45;A&#45;&#45;V&#45;IUEL -->
<g id="edge10" class="edge">
<title>0SHT&#45;A&#45;&#45;V&#45;IUEL</title>
<path fill="none" stroke="black" d="M739.41,-667.56C736.75,-667.65 734.08,-667.74 731.43,-667.84"/>
</g>
<!-- D87E&#45;A -->
<g id="D87E&#45;A" class="node">
<title>D87E&#45;A</title>
<ellipse fill="none" stroke="black" cx="773.71" cy="-621.95" rx="46.29" ry="18"/>
<text text-anchor="middle" x="773.71" y="-618.25" font-family="Times,serif" font-size="14.00">D87E&#45;A</text>
</g>
<!-- 0SHT&#45;A&#45;&#45;D87E&#45;A -->
<g id="edge11" class="edge">
<title>0SHT&#45;A&#45;&#45;D87E&#45;A</title>
<path fill="none" stroke="black" d="M779.91,-647.83C779.29,-645.27 778.66,-642.64 778.05,-640.08"/>
</g>
<!-- U&#45;QVWD -->
<g id="U&#45;QVWD" class="node">
<title>U&#45;QVWD</title>
<polygon fill="none" stroke="black" points="804.13,-767.91 725.13,-767.91 725.13,-731.91 804.13,-731.91 804.13,-767.91"/>
<text text-anchor="middle" x="764.63" y="-746.21" font-family="Times,serif" font-size="14.00">U&#45;QVWD</text>
</g>
<!-- 0SHT&#45;A&#45;&#45;U&#45;QVWD -->
<g id="edge12" class="edge">
<title>0SHT&#45;A&#45;&#45;U&#45;QVWD</title>
<path fill="none" stroke="black" d="M780,-684.21C776.7,-698.28 772.17,-717.68 768.88,-731.74"/>
</g>
<!-- K&#45;B2D3 -->
<g id="K&#45;B2D3" class="node">
<title>K&#45;B2D3</title>
<ellipse fill="none" stroke="black" cx="697.54" cy="-572.42" rx="46.29" ry="18"/>
<text text-anchor="middle" x="697.54" y="-568.72" font-family="Times,serif" font-size="14.00">K&#45;B2D3</text>
</g>
<!-- D87E&#45;A&#45;&#45;K&#45;B2D3 -->
<g id="edge13" class="edge">
<title>D87E&#45;A&#45;&#45;K&#45;B2D3</title>
<path fill="none" stroke="black" d="M749.61,-606.28C740.63,-600.44 730.45,-593.82 721.48,-587.99"/>
</g>
<!-- PO4F&#45;3 -->
<g id="PO4F&#45;3" class="node">
<title>PO4F&#45;3</title>
<ellipse fill="none" stroke="black" cx="674.37" cy="-620.1" rx="45" ry="18"/>
<text text-anchor="middle" x="674.37" y="-616.4" font-family="Times,serif" font-size="14.00">PO4F&#45;3</text>
</g>
<!-- D87E&#45;A&#45;&#45;PO4F&#45;3 -->
<g id="edge14" class="edge">
<title>D87E&#45;A&#45;&#45;PO4F&#45;3</title>
<path fill="none" stroke="black" d="M727.53,-621.09C724.8,-621.04 722.05,-620.99 719.32,-620.94"/>
</g>
<!-- V7D&#45;JD -->
<g id="V7D&#45;JD" class="node">
<title>V7D&#45;JD</title>
<ellipse fill="none" stroke="black" cx="872.26" cy="-621.67" rx="44.39" ry="18"/>
<text text-anchor="middle" x="872.26" y="-617.97" font-family="Times,serif" font-size="14.00">V7D&#45;JD</text>
</g>
<!-- D87E&#45;A&#45;&#45;V7D&#45;JD -->
<g id="edge15" class="edge">
<title>D87E&#45;A&#45;&#45;V7D&#45;JD</title>
<path fill="none" stroke="black" d="M820.1,-621.82C822.7,-621.81 825.3,-621.81 827.89,-621.8"/>
</g>
<!-- K&#45;B2D3&#45;&#45;PO4F&#45;3 -->
<g id="edge16" class="edge">
<title>K&#45;B2D3&#45;&#45;PO4F&#45;3</title>
<path fill="none" stroke="black" d="M688.91,-590.18C687.01,-594.09 684.99,-598.25 683.08,-602.17"/>
</g>
<!-- VOL&#45;MI -->
<g id="VOL&#45;MI" class="node">
<title>VOL&#45;MI</title>
<ellipse fill="none" stroke="black" cx="701.04" cy="-528.4" rx="46.29" ry="18"/>
<text text-anchor="middle" x="701.04" y="-524.7" font-family="Times,serif" font-size="14.00">VOL&#45;MI</text>
</g>
<!-- K&#45;B2D3&#45;&#45;VOL&#45;MI -->
<g id="edge17" class="edge">
<title>K&#45;B2D3&#45;&#45;VOL&#45;MI</title>
<path fill="none" stroke="black" d="M698.98,-554.26C699.18,-551.7 699.39,-549.07 699.6,-546.52"/>
</g>
<!-- PO4F&#45;3&#45;&#45;V&#45;IUEL -->
<g id="edge18" class="edge">
<title>PO4F&#45;3&#45;&#45;V&#45;IUEL</title>
<path fill="none" stroke="black" d="M679.29,-638.16C680.46,-642.44 681.7,-647.01 682.87,-651.29"/>
</g>
<!-- VOL&#45;MI&#45;&#45;ARG&#45;3R -->
<g id="edge19" class="edge">
<title>VOL&#45;MI&#45;&#45;ARG&#45;3R</title>
<path fill="none" stroke="black" d="M667.44,-515.85C658.69,-512.58 649.24,-509.05 640.37,-505.74"/>
</g>
<!-- J7A&#45;UR -->
<g id="J7A&#45;UR" class="node">
<title>J7A&#45;UR</title>
<ellipse fill="none" stroke="black" cx="891.3" cy="-754.27" rx="44.39" ry="18"/>
<text text-anchor="middle" x="891.3" y="-750.57" font-family="Times,serif" font-size="14.00">J7A&#45;UR</text>
</g>
<!-- J7A&#45;UR&#45;&#45;JWJ&#45;P1 -->
<g id="edge20" class="edge">
<title>J7A&#45;UR&#45;&#45;JWJ&#45;P1</title>
<path fill="none" stroke="black" d="M878.92,-736.77C876.74,-733.68 874.46,-730.46 872.27,-727.37"/>
</g>
<!-- 5E&#45;VR8 -->
<g id="_5E&#45;VR8" class="node">
<title>5E&#45;VR8</title>
<ellipse fill="none" stroke="black" cx="804.1" cy="-577.67" rx="45" ry="18"/>
<text text-anchor="middle" x="804.1" y="-573.97" font-family="Times,serif" font-size="14.00">5E&#45;VR8</text>
</g>
<!-- 5E&#45;VR8&#45;&#45;D87E&#45;A -->
<g id="edge21" class="edge">
<title>5E&#45;VR8&#45;&#45;D87E&#45;A</title>
<path fill="none" stroke="black" d="M792.09,-595.17C790.03,-598.17 787.89,-601.29 785.83,-604.29"/>
</g>
<!-- 5E&#45;VR8&#45;&#45;K&#45;B2D3 -->
<g id="edge22" class="edge">
<title>5E&#45;VR8&#45;&#45;K&#45;B2D3</title>
<path fill="none" stroke="black" d="M759.52,-575.48C754.28,-575.22 748.91,-574.95 743.65,-574.69"/>
</g>
<!-- 5E&#45;VR8&#45;&#45;V7D&#45;JD -->
<g id="edge23" class="edge">
<title>5E&#45;VR8&#45;&#45;V7D&#45;JD</title>
<path fill="none" stroke="black" d="M827.94,-593.06C834.54,-597.32 841.71,-601.95 848.32,-606.22"/>
</g>
<!-- HLW&#45;HP -->
<g id="HLW&#45;HP" class="node">
<title>HLW&#45;HP</title>
<ellipse fill="none" stroke="black" cx="659.93" cy="-448.21" rx="50.09" ry="18"/>
<text text-anchor="middle" x="659.93" y="-444.51" font-family="Times,serif" font-size="14.00">HLW&#45;HP</text>
</g>
<!-- HLW&#45;HP&#45;&#45;VOL&#45;MI -->
<g id="edge24" class="edge">
<title>HLW&#45;HP&#45;&#45;VOL&#45;MI</title>
<path fill="none" stroke="black" d="M669.06,-466.01C675.87,-479.3 685.13,-497.38 691.94,-510.65"/>
</g>
<!-- RA&#45;NXN -->
<g id="RA&#45;NXN" class="node">
<title>RA&#45;NXN</title>
<ellipse fill="none" stroke="black" cx="617.58" cy="-404.2" rx="48.99" ry="18"/>
<text text-anchor="middle" x="617.58" y="-400.5" font-family="Times,serif" font-size="14.00">RA&#45;NXN</text>
</g>
<!-- HLW&#45;HP&#45;&#45;RA&#45;NXN -->
<g id="edge25" class="edge">
<title>HLW&#45;HP&#45;&#45;RA&#45;NXN</title>
<path fill="none" stroke="black" d="M643.44,-431.07C640.37,-427.88 637.17,-424.55 634.1,-421.37"/>
</g>
<!-- KLMT&#45;W -->
<g id="KLMT&#45;W" class="node">
<title>KLMT&#45;W</title>
<ellipse fill="none" stroke="black" cx="767.38" cy="-456.25" rx="49.5" ry="18"/>
<text text-anchor="middle" x="767.38" y="-452.55" font-family="Times,serif" font-size="14.00">KLMT&#45;W</text>
</g>
<!-- HLW&#45;HP&#45;&#45;KLMT&#45;W -->
<g id="edge26" class="edge">
<title>HLW&#45;HP&#45;&#45;KLMT&#45;W</title>
<path fill="none" stroke="black" d="M708.94,-451.88C712.26,-452.13 715.61,-452.38 718.92,-452.62"/>
</g>
<!-- XX9&#45;WV -->
<g id="XX9&#45;WV" class="node">
<title>XX9&#45;WV</title>
<ellipse fill="none" stroke="black" cx="708.82" cy="-360.17" rx="47.5" ry="18"/>
<text text-anchor="middle" x="708.82" y="-356.47" font-family="Times,serif" font-size="14.00">XX9&#45;WV</text>
</g>
<!-- RA&#45;NXN&#45;&#45;XX9&#45;WV -->
<g id="edge27" class="edge">
<title>RA&#45;NXN&#45;&#45;XX9&#45;WV</title>
<path fill="none" stroke="black" d="M647.46,-389.78C657.64,-384.87 669.02,-379.37 679.19,-374.47"/>
</g>
<!-- KLMT&#45;W&#45;&#45;UT&#45;UZB -->
<g id="edge28" class="edge">
<title>KLMT&#45;W&#45;&#45;UT&#45;UZB</title>
<path fill="none" stroke="black" d="M762.9,-438.05C761.66,-433.01 760.31,-427.53 759.07,-422.49"/>
</g>
<!-- XX9&#45;WV&#45;&#45;ZFJH&#45;T -->
<g id="edge29" class="edge">
<title>XX9&#45;WV&#45;&#45;ZFJH&#45;T</title>
<path fill="none" stroke="black" d="M661.23,-359.96C646.32,-359.89 630.2,-359.82 616.48,-359.76"/>
</g>
<!-- 8G&#45;MQV -->
<g id="_8G&#45;MQV" class="node">
<title>8G&#45;MQV</title>
<ellipse fill="none" stroke="black" cx="591.37" cy="-536.24" rx="50.09" ry="18"/>
<text text-anchor="middle" x="591.37" y="-532.54" font-family="Times,serif" font-size="14.00">8G&#45;MQV</text>
</g>
<!-- 8G&#45;MQV&#45;&#45;VOL&#45;MI -->
<g id="edge30" class="edge">
<title>8G&#45;MQV&#45;&#45;VOL&#45;MI</title>
<path fill="none" stroke="black" d="M640.75,-532.71C645.64,-532.36 650.59,-532.01 655.44,-531.66"/>
</g>
<!-- CL&#45;85V -->
<g id="CL&#45;85V" class="node">
<title>CL&#45;85V</title>
<ellipse fill="none" stroke="black" cx="489.12" cy="-575.46" rx="44.39" ry="18"/>
<text text-anchor="middle" x="489.12" y="-571.76" font-family="Times,serif" font-size="14.00">CL&#45;85V</text>
</g>
<!-- 8G&#45;MQV&#45;&#45;CL&#45;85V -->
<g id="edge31" class="edge">
<title>8G&#45;MQV&#45;&#45;CL&#45;85V</title>
<path fill="none" stroke="black" d="M557.04,-549.41C545.55,-553.82 532.79,-558.71 521.46,-563.06"/>
</g>
<!-- K&#45;QWHE -->
<g id="K&#45;QWHE" class="node">
<title>K&#45;QWHE</title>
<ellipse fill="none" stroke="black" cx="560.16" cy="-619.48" rx="51.5" ry="18"/>
<text text-anchor="middle" x="560.16" y="-615.78" font-family="Times,serif" font-size="14.00">K&#45;QWHE</text>
</g>
<!-- CL&#45;85V&#45;&#45;K&#45;QWHE -->
<g id="edge32" class="edge">
<title>CL&#45;85V&#45;&#45;K&#45;QWHE</title>
<path fill="none" stroke="black" d="M513.57,-590.61C520.31,-594.79 527.65,-599.33 534.46,-603.55"/>
</g>
<!-- EW&#45;JR5 -->
<g id="EW&#45;JR5" class="node">
<title>EW&#45;JR5</title>
<ellipse fill="none" stroke="black" cx="486.38" cy="-499.3" rx="45.5" ry="18"/>
<text text-anchor="middle" x="486.38" y="-495.6" font-family="Times,serif" font-size="14.00">EW&#45;JR5</text>
</g>
<!-- CL&#45;85V&#45;&#45;EW&#45;JR5 -->
<g id="edge33" class="edge">
<title>CL&#45;85V&#45;&#45;EW&#45;JR5</title>
<path fill="none" stroke="black" d="M488.47,-557.41C488.04,-545.36 487.47,-529.56 487.04,-517.48"/>
</g>
<!-- YKE4&#45;3 -->
<g id="YKE4&#45;3" class="node">
<title>YKE4&#45;3</title>
<ellipse fill="none" stroke="black" cx="391.91" cy="-579.82" rx="45" ry="18"/>
<text text-anchor="middle" x="391.91" y="-576.12" font-family="Times,serif" font-size="14.00">YKE4&#45;3</text>
</g>
<!-- K&#45;QWHE&#45;&#45;YKE4&#45;3 -->
<g id="edge34" class="edge">
<title>K&#45;QWHE&#45;&#45;YKE4&#45;3</title>
<path fill="none" stroke="black" d="M517.27,-609.37C490.59,-603.08 456.57,-595.06 430.7,-588.96"/>
</g>
<!-- RMOC&#45;W -->
<g id="RMOC&#45;W" class="node">
<title>RMOC&#45;W</title>
<ellipse fill="none" stroke="black" cx="477.69" cy="-663.48" rx="52.79" ry="18"/>
<text text-anchor="middle" x="477.69" y="-659.78" font-family="Times,serif" font-size="14.00">RMOC&#45;W</text>
</g>
<!-- K&#45;QWHE&#45;&#45;RMOC&#45;W -->
<g id="edge35" class="edge">
<title>K&#45;QWHE&#45;&#45;RMOC&#45;W</title>
<path fill="none" stroke="black" d="M531.78,-634.62C523.49,-639.05 514.42,-643.88 506.13,-648.31"/>
</g>
<!-- MDD&#45;79 -->
<g id="MDD&#45;79" class="node">
<title>MDD&#45;79</title>
<ellipse fill="none" stroke="black" cx="410.72" cy="-455.18" rx="49.5" ry="18"/>
<text text-anchor="middle" x="410.72" y="-451.48" font-family="Times,serif" font-size="14.00">MDD&#45;79</text>
</g>
<!-- EW&#45;JR5&#45;&#45;MDD&#45;79 -->
<g id="edge36" class="edge">
<title>EW&#45;JR5&#45;&#45;MDD&#45;79</title>
<path fill="none" stroke="black" d="M460.77,-484.36C453.14,-479.92 444.76,-475.03 437.09,-470.56"/>
</g>
<!-- RMOC&#45;W&#45;&#45;YKE4&#45;3 -->
<g id="edge38" class="edge">
<title>RMOC&#45;W&#45;&#45;YKE4&#45;3</title>
<path fill="none" stroke="black" d="M459.92,-646.15C445,-631.6 423.82,-610.94 409.08,-596.56"/>
</g>
<!-- AAM&#45;1A -->
<g id="AAM&#45;1A" class="node">
<title>AAM&#45;1A</title>
<ellipse fill="none" stroke="black" cx="588.09" cy="-674.71" rx="48.19" ry="18"/>
<text text-anchor="middle" x="588.09" y="-671.01" font-family="Times,serif" font-size="14.00">AAM&#45;1A</text>
</g>
<!-- AAM&#45;1A&#45;&#45;K&#45;QWHE -->
<g id="edge37" class="edge">
<title>AAM&#45;1A&#45;&#45;K&#45;QWHE</title>
<path fill="none" stroke="black" d="M579.1,-656.93C575.91,-650.62 572.32,-643.53 569.14,-637.22"/>
</g>
<!-- ES&#45;UWY -->
<g id="ES&#45;UWY" class="node">
<title>ES&#45;UWY</title>
<ellipse fill="none" stroke="black" cx="780.1" cy="-258.14" rx="50.09" ry="18"/>
<text text-anchor="middle" x="780.1" y="-254.44" font-family="Times,serif" font-size="14.00">ES&#45;UWY</text>
</g>
<!-- ES&#45;UWY&#45;&#45;S&#45;E6ES -->
<g id="edge39" class="edge">
<title>ES&#45;UWY&#45;&#45;S&#45;E6ES</title>
<path fill="none" stroke="black" d="M781.76,-240.07C782.03,-237.14 782.31,-234.09 782.58,-231.15"/>
</g>
<!-- ES&#45;UWY&#45;&#45;Y&#45;DW5K -->
<g id="edge40" class="edge">
<title>ES&#45;UWY&#45;&#45;Y&#45;DW5K</title>
<path fill="none" stroke="black" d="M732.86,-264.19C727.45,-264.89 721.93,-265.59 716.54,-266.28"/>
</g>
<!-- S1DP&#45;Y -->
<g id="S1DP&#45;Y" class="node">
<title>S1DP&#45;Y</title>
<ellipse fill="none" stroke="black" cx="565.96" cy="-315.42" rx="44.39" ry="18"/>
<text text-anchor="middle" x="565.96" y="-311.72" font-family="Times,serif" font-size="14.00">S1DP&#45;Y</text>
</g>
<!-- M&#45;N7WD -->
<g id="M&#45;N7WD" class="node">
<title>M&#45;N7WD</title>
<ellipse fill="none" stroke="black" cx="683.41" cy="-316.15" rx="53.5" ry="18"/>
<text text-anchor="middle" x="683.41" y="-312.45" font-family="Times,serif" font-size="14.00">M&#45;N7WD</text>
</g>
<!-- M&#45;N7WD&#45;&#45;Y&#45;DW5K -->
<g id="edge41" class="edge">
<title>M&#45;N7WD&#45;&#45;Y&#45;DW5K</title>
<path fill="none" stroke="black" d="M678.27,-297.98C677.55,-295.43 676.8,-292.8 676.08,-290.24"/>
</g>
<!-- M&#45;N7WD&#45;&#45;XX9&#45;WV -->
<g id="edge42" class="edge">
<title>M&#45;N7WD&#45;&#45;XX9&#45;WV</title>
<path fill="none" stroke="black" d="M693.74,-334.05C695.34,-336.81 696.98,-339.66 698.58,-342.42"/>
</g>
<!-- M&#45;N7WD&#45;&#45;S1DP&#45;Y -->
<g id="edge43" class="edge">
<title>M&#45;N7WD&#45;&#45;S1DP&#45;Y</title>
<path fill="none" stroke="black" d="M629.84,-315.81C623.3,-315.77 616.68,-315.73 610.3,-315.69"/>
</g>
<!-- QFEW&#45;K -->
<g id="QFEW&#45;K" class="node">
<title>QFEW&#45;K</title>
<ellipse fill="none" stroke="black" cx="560.9" cy="-254.13" rx="50.09" ry="18"/>
<text text-anchor="middle" x="560.9" y="-250.43" font-family="Times,serif" font-size="14.00">QFEW&#45;K</text>
</g>
<!-- QFEW&#45;K&#45;&#45;Y&#45;DW5K -->
<g id="edge44" class="edge">
<title>QFEW&#45;K&#45;&#45;Y&#45;DW5K</title>
<path fill="none" stroke="black" d="M606.62,-261.6C613.23,-262.68 620.03,-263.79 626.62,-264.87"/>
</g>
<!-- CVY&#45;UC -->
<g id="CVY&#45;UC" class="node">
<title>CVY&#45;UC</title>
<ellipse fill="none" stroke="black" cx="430.95" cy="-239.17" rx="46.29" ry="18"/>
<text text-anchor="middle" x="430.95" y="-235.47" font-family="Times,serif" font-size="14.00">CVY&#45;UC</text>
</g>
<!-- CVY&#45;UC&#45;&#45;QFEW&#45;K -->
<g id="edge45" class="edge">
<title>CVY&#45;UC&#45;&#45;QFEW&#45;K</title>
<path fill="none" stroke="black" d="M475.3,-244.28C487.51,-245.68 500.8,-247.21 513.19,-248.64"/>
</g>
<!-- EQX&#45;AE -->
<g id="EQX&#45;AE" class="node">
<title>EQX&#45;AE</title>
<ellipse fill="none" stroke="black" cx="532.56" cy="-210.09" rx="47.5" ry="18"/>
<text text-anchor="middle" x="532.56" y="-206.39" font-family="Times,serif" font-size="14.00">EQX&#45;AE</text>
</g>
<!-- EQX&#45;AE&#45;&#45;H&#45;ADOC -->
<g id="edge46" class="edge">
<title>EQX&#45;AE&#45;&#45;H&#45;ADOC</title>
<path fill="none" stroke="black" d="M580.24,-211.08C597.3,-211.43 616.57,-211.83 633.79,-212.19"/>
</g>
<!-- EQX&#45;AE&#45;&#45;QFEW&#45;K -->
<g id="edge47" class="edge">
<title>EQX&#45;AE&#45;&#45;QFEW&#45;K</title>
<path fill="none" stroke="black" d="M543.93,-227.75C545.77,-230.62 547.69,-233.59 549.54,-236.46"/>
</g>
<!-- G&#45;R4W1 -->
<g id="G&#45;R4W1" class="node">
<title>G&#45;R4W1</title>
<ellipse fill="none" stroke="black" cx="940.62" cy="-525.09" rx="48.99" ry="18"/>
<text text-anchor="middle" x="940.62" y="-521.39" font-family="Times,serif" font-size="14.00">G&#45;R4W1</text>
</g>
<!-- BPK&#45;XK -->
<g id="BPK&#45;XK" class="node">
<title>BPK&#45;XK</title>
<ellipse fill="none" stroke="black" cx="1069" cy="-510.33" rx="46.29" ry="18"/>
<text text-anchor="middle" x="1069" y="-506.63" font-family="Times,serif" font-size="14.00">BPK&#45;XK</text>
</g>
<!-- Y&#45;K50G -->
<g id="Y&#45;K50G" class="node">
<title>Y&#45;K50G</title>
<ellipse fill="none" stroke="black" cx="969.4" cy="-470.42" rx="44.39" ry="18"/>
<text text-anchor="middle" x="969.4" y="-466.72" font-family="Times,serif" font-size="14.00">Y&#45;K50G</text>
</g>
<!-- BPK&#45;XK&#45;&#45;Y&#45;K50G -->
<g id="edge48" class="edge">
<title>BPK&#45;XK&#45;&#45;Y&#45;K50G</title>
<path fill="none" stroke="black" d="M1036.7,-497.37C1025.3,-492.82 1012.6,-487.71 1001.2,-483.18"/>
</g>
<!-- CL&#45;1JE -->
<g id="CL&#45;1JE" class="node">
<title>CL&#45;1JE</title>
<ellipse fill="none" stroke="black" cx="1063.9" cy="-439.18" rx="42.49" ry="18"/>
<text text-anchor="middle" x="1063.9" y="-435.48" font-family="Times,serif" font-size="14.00">CL&#45;1JE</text>
</g>
<!-- BPK&#45;XK&#45;&#45;CL&#45;1JE -->
<g id="edge49" class="edge">
<title>BPK&#45;XK&#45;&#45;CL&#45;1JE</title>
<path fill="none" stroke="black" d="M1067.7,-492C1066.9,-481.3 1065.9,-467.84 1065.2,-457.19"/>
</g>
<!-- LJ&#45;YSW -->
<g id="LJ&#45;YSW" class="node">
<title>LJ&#45;YSW</title>
<ellipse fill="none" stroke="black" cx="950.83" cy="-425.74" rx="43.59" ry="18"/>
<text text-anchor="middle" x="950.83" y="-422.04" font-family="Times,serif" font-size="14.00">LJ&#45;YSW</text>
</g>
<!-- CL&#45;1JE&#45;&#45;LJ&#45;YSW -->
<g id="edge50" class="edge">
<title>CL&#45;1JE&#45;&#45;LJ&#45;YSW</title>
<path fill="none" stroke="black" d="M1023.1,-434.33C1013.2,-433.15 1002.6,-431.9 992.72,-430.72"/>
</g>
<!-- J4UD&#45;J -->
<g id="J4UD&#45;J" class="node">
<title>J4UD&#45;J</title>
<ellipse fill="none" stroke="black" cx="1155.7" cy="-442.86" rx="41.69" ry="18"/>
<text text-anchor="middle" x="1155.7" y="-439.16" font-family="Times,serif" font-size="14.00">J4UD&#45;J</text>
</g>
<!-- CL&#45;1JE&#45;&#45;J4UD&#45;J -->
<g id="edge51" class="edge">
<title>CL&#45;1JE&#45;&#45;J4UD&#45;J</title>
<path fill="none" stroke="black" d="M1106,-440.87C1108.8,-440.98 1111.5,-441.09 1114.3,-441.2"/>
</g>
<!-- K88X&#45;J -->
<g id="K88X&#45;J" class="node">
<title>K88X&#45;J</title>
<ellipse fill="none" stroke="black" cx="1020.5" cy="-379.12" rx="42.49" ry="18"/>
<text text-anchor="middle" x="1020.5" y="-375.42" font-family="Times,serif" font-size="14.00">K88X&#45;J</text>
</g>
<!-- K88X&#45;J&#45;&#45;Y&#45;K50G -->
<g id="edge52" class="edge">
<title>K88X&#45;J&#45;&#45;Y&#45;K50G</title>
<path fill="none" stroke="black" d="M1011.4,-397C1006.9,-405.76 1001.3,-416.43 995.98,-425.86 990.96,-434.82 985.14,-444.64 980.23,-452.77"/>
</g>
<!-- G&#45;0Q86 -->
<g id="G&#45;0Q86" class="node">
<title>G&#45;0Q86</title>
<ellipse fill="none" stroke="black" cx="871" cy="-470.13" rx="46.29" ry="18"/>
<text text-anchor="middle" x="871" y="-466.43" font-family="Times,serif" font-size="14.00">G&#45;0Q86</text>
</g>
<!-- G&#45;0Q86&#45;&#45;KLMT&#45;W -->
<g id="edge53" class="edge">
<title>G&#45;0Q86&#45;&#45;KLMT&#45;W</title>
<path fill="none" stroke="black" d="M827.36,-464.28C822.93,-463.69 818.43,-463.09 813.97,-462.49"/>
</g>
<!-- G&#45;0Q86&#45;&#45;G&#45;R4W1 -->
<g id="edge54" class="edge">
<title>G&#45;0Q86&#45;&#45;G&#45;R4W1</title>
<path fill="none" stroke="black" d="M891.51,-486.32C900.34,-493.29 910.64,-501.43 919.53,-508.44"/>
</g>
<!-- G&#45;0Q86&#45;&#45;Y&#45;K50G -->
<g id="edge55" class="edge">
<title>G&#45;0Q86&#45;&#45;Y&#45;K50G</title>
<path fill="none" stroke="black" d="M917.32,-470.27C919.91,-470.27 922.51,-470.28 925.1,-470.29"/>
</g>
<!-- G&#45;0Q86&#45;&#45;LJ&#45;YSW -->
<g id="edge56" class="edge">
<title>G&#45;0Q86&#45;&#45;LJ&#45;YSW</title>
<path fill="none" stroke="black" d="M897.58,-455.35C906.29,-450.51 915.96,-445.13 924.64,-440.31"/>
</g>
<!-- Hemin -->
<g id="Hemin" class="node">
<title>Hemin</title>
<ellipse fill="none" stroke="black" cx="419.5" cy="-707.49" rx="41.69" ry="18"/>
<text text-anchor="middle" x="419.5" y="-703.79" font-family="Times,serif" font-size="14.00">Hemin</text>
</g>
<!-- Hemin&#45;&#45;RMOC&#45;W -->
<g id="edge57" class="edge">
<title>Hemin&#45;&#45;RMOC&#45;W</title>
<path fill="none" stroke="black" d="M440.18,-691.85C445.28,-688 450.75,-683.86 455.9,-679.97"/>
</g>
<!-- Utopia -->
<g id="Utopia" class="node">
<title>Utopia</title>
<ellipse fill="none" stroke="black" cx="327.22" cy="-700.01" rx="42.49" ry="18"/>
<text text-anchor="middle" x="327.22" y="-696.31" font-family="Times,serif" font-size="14.00">Utopia</text>
</g>
<!-- Hemin&#45;&#45;Utopia -->
<g id="edge58" class="edge">
<title>Hemin&#45;&#45;Utopia</title>
<path fill="none" stroke="black" d="M378.49,-704.17C375.31,-703.91 372.1,-703.65 368.92,-703.39"/>
</g>
<!-- Jorund -->
<g id="Jorund" class="node">
<title>Jorund</title>
<ellipse fill="none" stroke="black" cx="471.43" cy="-751.52" rx="41.69" ry="18"/>
<text text-anchor="middle" x="471.43" y="-747.82" font-family="Times,serif" font-size="14.00">Jorund</text>
</g>
<!-- Hemin&#45;&#45;Jorund -->
<g id="edge59" class="edge">
<title>Hemin&#45;&#45;Jorund</title>
<path fill="none" stroke="black" d="M438.54,-723.64C443.06,-727.47 447.88,-731.55 452.39,-735.38"/>
</g>
<!-- Doril -->
<g id="Doril" class="node">
<title>Doril</title>
<ellipse fill="none" stroke="black" cx="368.66" cy="-751.52" rx="34" ry="18"/>
<text text-anchor="middle" x="368.66" y="-747.82" font-family="Times,serif" font-size="14.00">Doril</text>
</g>
<!-- Doril&#45;&#45;Sendaya -->
<g id="edge60" class="edge">
<title>Doril&#45;&#45;Sendaya</title>
<path fill="none" stroke="black" d="M352.89,-767.66C349.82,-770.8 346.58,-774.11 343.45,-777.32"/>
</g>
<!-- Doril&#45;&#45;Utopia -->
<g id="edge61" class="edge">
<title>Doril&#45;&#45;Utopia</title>
<path fill="none" stroke="black" d="M355.32,-734.94C350.78,-729.29 345.69,-722.97 341.11,-717.27"/>
</g>
<!-- Doril&#45;&#45;Jorund -->
<g id="edge62" class="edge">
<title>Doril&#45;&#45;Jorund</title>
<path fill="none" stroke="black" d="M402.59,-751.52C411.25,-751.52 420.65,-751.52 429.65,-751.52"/>
</g>
<!-- Litom -->
<g id="Litom" class="node">
<title>Litom</title>
<ellipse fill="none" stroke="black" cx="231.65" cy="-646.46" rx="37.89" ry="18"/>
<text text-anchor="middle" x="231.65" y="-642.76" font-family="Times,serif" font-size="14.00">Litom</text>
</g>
<!-- Litom&#45;&#45;Utopia -->
<g id="edge63" class="edge">
<title>Litom&#45;&#45;Utopia</title>
<path fill="none" stroke="black" d="M256.26,-660.25C270.09,-668 287.33,-677.66 301.36,-685.52"/>
</g>
<!-- Farit -->
<g id="Farit" class="node">
<title>Farit</title>
<ellipse fill="none" stroke="black" cx="473.42" cy="-798.23" rx="33.29" ry="18"/>
<text text-anchor="middle" x="473.42" y="-794.53" font-family="Times,serif" font-size="14.00">Farit</text>
</g>
<!-- Farit&#45;&#45;Jorund -->
<g id="edge64" class="edge">
<title>Farit&#45;&#45;Jorund</title>
<path fill="none" stroke="black" d="M472.65,-780.04C472.5,-776.65 472.35,-773.12 472.21,-769.74"/>
</g>
<!-- Jamunda -->
<g id="Jamunda" class="node">
<title>Jamunda</title>
<ellipse fill="none" stroke="black" cx="134.01" cy="-628.62" rx="51.5" ry="18"/>
<text text-anchor="middle" x="134.01" y="-624.92" font-family="Times,serif" font-size="14.00">Jamunda</text>
</g>
<!-- Jamunda&#45;&#45;Litom -->
<g id="edge65" class="edge">
<title>Jamunda&#45;&#45;Litom</title>
<path fill="none" stroke="black" d="M179.69,-636.97C185.25,-637.98 190.86,-639.01 196.24,-639.99"/>
</g>
<!-- 1P&#45;WGB -->
<g id="_1P&#45;WGB" class="node">
<title>1P&#45;WGB</title>
<polygon fill="none" stroke="black" points="74,-653.78 0,-653.78 0,-617.78 74,-617.78 74,-653.78"/>
<text text-anchor="middle" x="37" y="-632.08" font-family="Times,serif" font-size="14.00">1P&#45;WGB</text>
</g>
<!-- Jamunda&#45;&#45;1P&#45;WGB -->
<g id="edge66" class="edge">
<title>Jamunda&#45;&#45;1P&#45;WGB</title>
<path fill="none" stroke="black" d="M83.52,-632.35C80.39,-632.58 77.27,-632.81 74.21,-633.03"/>
</g>
</g>
</svg>
