<?xml version="1.0" encoding="UTF-8" standalone="no"?>
<!DOCTYPE svg PUBLIC "-//W3C//DTD SVG 1.1//EN"
 "http://www.w3.org/Graphics/SVG/1.1/DTD/svg11.dtd">
<!-- Generated by graphviz version 2.43.0 (0)
 -->
<!-- Pages: 1 -->
<svg width="917pt" height="1339pt"
 viewBox="0.00 0.00 916.87 1338.90" xmlns="http://www.w3.org/2000/svg" xmlns:xlink="http://www.w3.org/1999/xlink">
<g id="graph0" class="graph" transform="scale(1 1) rotate(0) translate(4 1334.9)">
<polygon fill="white" stroke="transparent" points="-4,4 -4,-1334.9 912.87,-1334.9 912.87,4 -4,4"/>
<!-- Lashesih -->
<g id="Lashesih" class="node">
<title>Lashesih</title>
<polygon fill="none" stroke="black" points="196.1,-595.32 116.1,-595.32 116.1,-559.32 196.1,-559.32 196.1,-595.32"/>
<text text-anchor="middle" x="156.1" y="-573.62" font-family="Times,serif" font-size="14.00">Lashesih</text>
</g>
<!-- Nakah -->
<g id="Nakah" class="node">
<title>Nakah</title>
<polygon fill="none" stroke="black" points="841.76,-1145.8 779.76,-1145.8 779.76,-1109.8 841.76,-1109.8 841.76,-1145.8"/>
<text text-anchor="middle" x="810.76" y="-1124.1" font-family="Times,serif" font-size="14.00">Nakah</text>
</g>
<!-- Vard -->
<g id="Vard" class="node">
<title>Vard</title>
<polygon fill="none" stroke="black" points="673.03,-312.87 619.03,-312.87 619.03,-276.87 673.03,-276.87 673.03,-312.87"/>
<text text-anchor="middle" x="646.03" y="-291.17" font-family="Times,serif" font-size="14.00">Vard</text>
</g>
<!-- Tzvi -->
<g id="Tzvi" class="node">
<title>Tzvi</title>
<ellipse fill="none" stroke="black" cx="490.87" cy="-442.5" rx="30" ry="18"/>
<text text-anchor="middle" x="490.87" y="-438.8" font-family="Times,serif" font-size="14.00">Tzvi</text>
</g>
<!-- Lamaa -->
<g id="Lamaa" class="node">
<title>Lamaa</title>
<polygon fill="none" stroke="black" points="618.87,-459.28 554.87,-459.28 554.87,-423.28 618.87,-423.28 618.87,-459.28"/>
<text text-anchor="middle" x="586.87" y="-437.58" font-family="Times,serif" font-size="14.00">Lamaa</text>
</g>
<!-- Tzvi&#45;&#45;Lamaa -->
<g id="edge1" class="edge">
<title>Tzvi&#45;&#45;Lamaa</title>
<path fill="none" stroke="black" d="M520.98,-442.12C531.65,-441.98 543.69,-441.83 554.54,-441.69"/>
</g>
<!-- Raa -->
<g id="Raa" class="node">
<title>Raa</title>
<ellipse fill="none" stroke="black" cx="422.28" cy="-474" rx="28.7" ry="18"/>
<text text-anchor="middle" x="422.28" y="-470.3" font-family="Times,serif" font-size="14.00">Raa</text>
</g>
<!-- Raa&#45;&#45;Tzvi -->
<g id="edge2" class="edge">
<title>Raa&#45;&#45;Tzvi</title>
<path fill="none" stroke="black" d="M445.5,-463.34C452.34,-460.2 459.84,-456.75 466.73,-453.59"/>
</g>
<!-- Sifilar -->
<g id="Sifilar" class="node">
<title>Sifilar</title>
<ellipse fill="none" stroke="black" cx="448.12" cy="-398.49" rx="38.5" ry="18"/>
<text text-anchor="middle" x="448.12" y="-394.79" font-family="Times,serif" font-size="14.00">Sifilar</text>
</g>
<!-- Raa&#45;&#45;Sifilar -->
<g id="edge3" class="edge">
<title>Raa&#45;&#45;Sifilar</title>
<path fill="none" stroke="black" d="M428.4,-456.11C432.49,-444.16 437.85,-428.49 441.95,-416.52"/>
</g>
<!-- Sifilar&#45;&#45;Tzvi -->
<g id="edge4" class="edge">
<title>Sifilar&#45;&#45;Tzvi</title>
<path fill="none" stroke="black" d="M464.04,-414.88C467.84,-418.79 471.88,-422.95 475.65,-426.83"/>
</g>
<!-- Arzad -->
<g id="Arzad" class="node">
<title>Arzad</title>
<ellipse fill="none" stroke="black" cx="477.11" cy="-340.19" rx="37.89" ry="18"/>
<text text-anchor="middle" x="477.11" y="-336.49" font-family="Times,serif" font-size="14.00">Arzad</text>
</g>
<!-- Arzad&#45;&#45;Sifilar -->
<g id="edge5" class="edge">
<title>Arzad&#45;&#45;Sifilar</title>
<path fill="none" stroke="black" d="M468.26,-358C464.66,-365.23 460.51,-373.57 456.92,-380.79"/>
</g>
<!-- Ezzara -->
<g id="Ezzara" class="node">
<title>Ezzara</title>
<ellipse fill="none" stroke="black" cx="567.51" cy="-323.48" rx="42.49" ry="18"/>
<text text-anchor="middle" x="567.51" y="-319.78" font-family="Times,serif" font-size="14.00">Ezzara</text>
</g>
<!-- Arzad&#45;&#45;Ezzara -->
<g id="edge6" class="edge">
<title>Arzad&#45;&#45;Ezzara</title>
<path fill="none" stroke="black" d="M512.32,-333.69C517.67,-332.7 523.22,-331.67 528.65,-330.67"/>
</g>
<!-- Tararan -->
<g id="Tararan" class="node">
<title>Tararan</title>
<ellipse fill="none" stroke="black" cx="477.83" cy="-279.48" rx="47" ry="18"/>
<text text-anchor="middle" x="477.83" y="-275.78" font-family="Times,serif" font-size="14.00">Tararan</text>
</g>
<!-- Arzad&#45;&#45;Tararan -->
<g id="edge7" class="edge">
<title>Arzad&#45;&#45;Tararan</title>
<path fill="none" stroke="black" d="M477.33,-321.98C477.42,-314.29 477.53,-305.36 477.62,-297.68"/>
</g>
<!-- Ezzara&#45;&#45;Vard -->
<g id="edge8" class="edge">
<title>Ezzara&#45;&#45;Vard</title>
<path fill="none" stroke="black" d="M599.9,-311.68C606.15,-309.4 612.64,-307.04 618.71,-304.82"/>
</g>
<!-- Oyeman -->
<g id="Oyeman" class="node">
<title>Oyeman</title>
<ellipse fill="none" stroke="black" cx="543.66" cy="-394.95" rx="48.99" ry="18"/>
<text text-anchor="middle" x="543.66" y="-391.25" font-family="Times,serif" font-size="14.00">Oyeman</text>
</g>
<!-- Oyeman&#45;&#45;Tzvi -->
<g id="edge9" class="edge">
<title>Oyeman&#45;&#45;Tzvi</title>
<path fill="none" stroke="black" d="M524.9,-411.85C519.33,-416.87 513.26,-422.34 507.81,-427.24"/>
</g>
<!-- Oyeman&#45;&#45;Sifilar -->
<g id="edge10" class="edge">
<title>Oyeman&#45;&#45;Sifilar</title>
<path fill="none" stroke="black" d="M495.05,-396.75C492.19,-396.86 489.34,-396.96 486.53,-397.07"/>
</g>
<!-- Odin -->
<g id="Odin" class="node">
<title>Odin</title>
<ellipse fill="none" stroke="black" cx="580.19" cy="-754.2" rx="32.5" ry="18"/>
<text text-anchor="middle" x="580.19" y="-750.5" font-family="Times,serif" font-size="14.00">Odin</text>
</g>
<!-- Ohide -->
<g id="Ohide" class="node">
<title>Ohide</title>
<ellipse fill="none" stroke="black" cx="519.95" cy="-710.12" rx="38.5" ry="18"/>
<text text-anchor="middle" x="519.95" y="-706.42" font-family="Times,serif" font-size="14.00">Ohide</text>
</g>
<!-- Odin&#45;&#45;Ohide -->
<g id="edge11" class="edge">
<title>Odin&#45;&#45;Ohide</title>
<path fill="none" stroke="black" d="M560.47,-739.76C554.15,-735.14 547.14,-730.02 540.75,-725.34"/>
</g>
<!-- Kamela -->
<g id="Kamela" class="node">
<title>Kamela</title>
<polygon fill="none" stroke="black" points="499.2,-782.72 429.2,-782.72 429.2,-746.72 499.2,-746.72 499.2,-782.72"/>
<text text-anchor="middle" x="464.2" y="-761.02" font-family="Times,serif" font-size="14.00">Kamela</text>
</g>
<!-- Ohide&#45;&#45;Kamela -->
<g id="edge12" class="edge">
<title>Ohide&#45;&#45;Kamela</title>
<path fill="none" stroke="black" d="M503.22,-726.5C496.81,-732.78 489.45,-739.99 482.86,-746.44"/>
</g>
<!-- Sasoutikh -->
<g id="Sasoutikh" class="node">
<title>Sasoutikh</title>
<ellipse fill="none" stroke="black" cx="495.02" cy="-649.34" rx="56.59" ry="18"/>
<text text-anchor="middle" x="495.02" y="-645.64" font-family="Times,serif" font-size="14.00">Sasoutikh</text>
</g>
<!-- Ohide&#45;&#45;Sasoutikh -->
<g id="edge13" class="edge">
<title>Ohide&#45;&#45;Sasoutikh</title>
<path fill="none" stroke="black" d="M512.6,-692.21C509.39,-684.37 505.62,-675.18 502.4,-667.33"/>
</g>
<!-- Esescama -->
<g id="Esescama" class="node">
<title>Esescama</title>
<ellipse fill="none" stroke="black" cx="608.84" cy="-822.57" rx="57.39" ry="18"/>
<text text-anchor="middle" x="608.84" y="-818.87" font-family="Times,serif" font-size="14.00">Esescama</text>
</g>
<!-- Esescama&#45;&#45;Odin -->
<g id="edge14" class="edge">
<title>Esescama&#45;&#45;Odin</title>
<path fill="none" stroke="black" d="M601.32,-804.61C597.07,-794.48 591.79,-781.87 587.57,-771.8"/>
</g>
<!-- Uadelah -->
<g id="Uadelah" class="node">
<title>Uadelah</title>
<ellipse fill="none" stroke="black" cx="639.07" cy="-885.58" rx="49.5" ry="18"/>
<text text-anchor="middle" x="639.07" y="-881.88" font-family="Times,serif" font-size="14.00">Uadelah</text>
</g>
<!-- Esescama&#45;&#45;Uadelah -->
<g id="edge15" class="edge">
<title>Esescama&#45;&#45;Uadelah</title>
<path fill="none" stroke="black" d="M617.42,-840.46C621.47,-848.9 626.3,-858.95 630.36,-867.43"/>
</g>
<!-- Choonka -->
<g id="Choonka" class="node">
<title>Choonka</title>
<ellipse fill="none" stroke="black" cx="481.61" cy="-821.05" rx="50.89" ry="18"/>
<text text-anchor="middle" x="481.61" y="-817.35" font-family="Times,serif" font-size="14.00">Choonka</text>
</g>
<!-- Choonka&#45;&#45;Kamela -->
<g id="edge16" class="edge">
<title>Choonka&#45;&#45;Kamela</title>
<path fill="none" stroke="black" d="M476,-802.92C474.02,-796.48 471.78,-789.25 469.79,-782.82"/>
</g>
<!-- Choonka&#45;&#45;Esescama -->
<g id="edge17" class="edge">
<title>Choonka&#45;&#45;Esescama</title>
<path fill="none" stroke="black" d="M532.63,-821.66C538.85,-821.73 545.24,-821.81 551.54,-821.89"/>
</g>
<!-- Thasinaz -->
<g id="Thasinaz" class="node">
<title>Thasinaz</title>
<ellipse fill="none" stroke="black" cx="372.38" cy="-869.7" rx="52" ry="18"/>
<text text-anchor="middle" x="372.38" y="-866" font-family="Times,serif" font-size="14.00">Thasinaz</text>
</g>
<!-- Choonka&#45;&#45;Thasinaz -->
<g id="edge18" class="edge">
<title>Choonka&#45;&#45;Thasinaz</title>
<path fill="none" stroke="black" d="M449.72,-835.25C435.49,-841.59 418.75,-849.05 404.49,-855.4"/>
</g>
<!-- Dihra -->
<g id="Dihra" class="node">
<title>Dihra</title>
<ellipse fill="none" stroke="black" cx="433.63" cy="-913.75" rx="36.5" ry="18"/>
<text text-anchor="middle" x="433.63" y="-910.05" font-family="Times,serif" font-size="14.00">Dihra</text>
</g>
<!-- Choonka&#45;&#45;Dihra -->
<g id="edge19" class="edge">
<title>Choonka&#45;&#45;Dihra</title>
<path fill="none" stroke="black" d="M461.4,-837.88C453.86,-845.36 446.09,-854.79 441.75,-865.04 437.67,-874.67 435.63,-886.18 434.62,-895.6"/>
</g>
<!-- Dital -->
<g id="Dital" class="node">
<title>Dital</title>
<ellipse fill="none" stroke="black" cx="476.49" cy="-865.09" rx="33.29" ry="18"/>
<text text-anchor="middle" x="476.49" y="-861.39" font-family="Times,serif" font-size="14.00">Dital</text>
</g>
<!-- Choonka&#45;&#45;Dital -->
<g id="edge20" class="edge">
<title>Choonka&#45;&#45;Dital</title>
<path fill="none" stroke="black" d="M479.5,-839.22C479.2,-841.77 478.89,-844.41 478.6,-846.96"/>
</g>
<!-- Dihra&#45;&#45;Thasinaz -->
<g id="edge21" class="edge">
<title>Dihra&#45;&#45;Thasinaz</title>
<path fill="none" stroke="black" d="M412.89,-898.84C407.2,-894.74 401,-890.28 395.2,-886.11"/>
</g>
<!-- Dihra&#45;&#45;Dital -->
<g id="edge22" class="edge">
<title>Dihra&#45;&#45;Dital</title>
<path fill="none" stroke="black" d="M448.38,-897C452.84,-891.94 457.72,-886.4 462.15,-881.37"/>
</g>
<!-- Naeel -->
<g id="Naeel" class="node">
<title>Naeel</title>
<ellipse fill="none" stroke="black" cx="454.01" cy="-957.77" rx="37.89" ry="18"/>
<text text-anchor="middle" x="454.01" y="-954.07" font-family="Times,serif" font-size="14.00">Naeel</text>
</g>
<!-- Dihra&#45;&#45;Naeel -->
<g id="edge23" class="edge">
<title>Dihra&#45;&#45;Naeel</title>
<path fill="none" stroke="black" d="M441.8,-931.4C443.13,-934.27 444.51,-937.24 445.84,-940.11"/>
</g>
<!-- Dital&#45;&#45;Esescama -->
<g id="edge24" class="edge">
<title>Dital&#45;&#45;Esescama</title>
<path fill="none" stroke="black" d="M505.21,-855.86C523.76,-849.9 548.17,-842.06 568.63,-835.49"/>
</g>
<!-- KBP7&#45;G -->
<g id="KBP7&#45;G" class="node">
<title>KBP7&#45;G</title>
<polygon fill="none" stroke="black" points="317.71,-931.72 245.71,-931.72 245.71,-895.72 317.71,-895.72 317.71,-931.72"/>
<text text-anchor="middle" x="281.71" y="-910.02" font-family="Times,serif" font-size="14.00">KBP7&#45;G</text>
</g>
<!-- Dital&#45;&#45;KBP7&#45;G -->
<g id="edge25" class="edge">
<title>Dital&#45;&#45;KBP7&#45;G</title>
<path fill="none" stroke="black" d="M447.1,-873.59C435.56,-876.85 422.18,-880.54 409.99,-883.67 378.97,-891.63 343.51,-899.87 317.75,-905.71"/>
</g>
<!-- Shastal -->
<g id="Shastal" class="node">
<title>Shastal</title>
<ellipse fill="none" stroke="black" cx="465.47" cy="-1066.2" rx="45.5" ry="18"/>
<text text-anchor="middle" x="465.47" y="-1062.5" font-family="Times,serif" font-size="14.00">Shastal</text>
</g>
<!-- Naeel&#45;&#45;Shastal -->
<g id="edge26" class="edge">
<title>Naeel&#45;&#45;Shastal</title>
<path fill="none" stroke="black" d="M433.31,-972.94C425.44,-980.51 418.26,-990.45 417.96,-1001.7 417.46,-1021 431.51,-1038.4 444.45,-1050.2"/>
</g>
<!-- Thakala -->
<g id="Thakala" class="node">
<title>Thakala</title>
<ellipse fill="none" stroke="black" cx="416.2" cy="-1112.4" rx="47" ry="18"/>
<text text-anchor="middle" x="416.2" y="-1108.7" font-family="Times,serif" font-size="14.00">Thakala</text>
</g>
<!-- Shastal&#45;&#45;Thakala -->
<g id="edge27" class="edge">
<title>Shastal&#45;&#45;Thakala</title>
<path fill="none" stroke="black" d="M447.68,-1082.9C443.27,-1087 438.54,-1091.5 434.13,-1095.6"/>
</g>
<!-- Eredan -->
<g id="Eredan" class="node">
<title>Eredan</title>
<ellipse fill="none" stroke="black" cx="351.48" cy="-545.16" rx="44.39" ry="18"/>
<text text-anchor="middle" x="351.48" y="-541.46" font-family="Times,serif" font-size="14.00">Eredan</text>
</g>
<!-- Lisudeh -->
<g id="Lisudeh" class="node">
<title>Lisudeh</title>
<ellipse fill="none" stroke="black" cx="251.73" cy="-561.13" rx="47.5" ry="18"/>
<text text-anchor="middle" x="251.73" y="-557.43" font-family="Times,serif" font-size="14.00">Lisudeh</text>
</g>
<!-- Eredan&#45;&#45;Lisudeh -->
<g id="edge28" class="edge">
<title>Eredan&#45;&#45;Lisudeh</title>
<path fill="none" stroke="black" d="M310.33,-551.75C305.5,-552.52 300.56,-553.31 295.69,-554.09"/>
</g>
<!-- Mehatoor -->
<g id="Mehatoor" class="node">
<title>Mehatoor</title>
<ellipse fill="none" stroke="black" cx="459.59" cy="-529.98" rx="56" ry="18"/>
<text text-anchor="middle" x="459.59" y="-526.28" font-family="Times,serif" font-size="14.00">Mehatoor</text>
</g>
<!-- Eredan&#45;&#45;Mehatoor -->
<g id="edge29" class="edge">
<title>Eredan&#45;&#45;Mehatoor</title>
<path fill="none" stroke="black" d="M393.28,-539.29C398.15,-538.6 403.16,-537.9 408.15,-537.2"/>
</g>
<!-- Lisudeh&#45;&#45;Lashesih -->
<g id="edge30" class="edge">
<title>Lisudeh&#45;&#45;Lashesih</title>
<path fill="none" stroke="black" d="M208.39,-568.47C204.34,-569.15 200.24,-569.85 196.22,-570.53"/>
</g>
<!-- Mehatoor&#45;&#45;Raa -->
<g id="edge31" class="edge">
<title>Mehatoor&#45;&#45;Raa</title>
<path fill="none" stroke="black" d="M447.78,-512.27C443.17,-505.35 437.91,-497.46 433.37,-490.64"/>
</g>
<!-- Gheth -->
<g id="Gheth" class="node">
<title>Gheth</title>
<ellipse fill="none" stroke="black" cx="471.23" cy="-591.89" rx="39" ry="18"/>
<text text-anchor="middle" x="471.23" y="-588.19" font-family="Times,serif" font-size="14.00">Gheth</text>
</g>
<!-- Gheth&#45;&#45;Sasoutikh -->
<g id="edge32" class="edge">
<title>Gheth&#45;&#45;Sasoutikh</title>
<path fill="none" stroke="black" d="M478.63,-609.76C481.46,-616.61 484.7,-624.42 487.55,-631.29"/>
</g>
<!-- Gheth&#45;&#45;Mehatoor -->
<g id="edge33" class="edge">
<title>Gheth&#45;&#45;Mehatoor</title>
<path fill="none" stroke="black" d="M467.8,-573.65C466.3,-565.66 464.54,-556.3 463.04,-548.3"/>
</g>
<!-- Roushzar -->
<g id="Roushzar" class="node">
<title>Roushzar</title>
<ellipse fill="none" stroke="black" cx="546" cy="-67.53" rx="54" ry="18"/>
<text text-anchor="middle" x="546" y="-63.83" font-family="Times,serif" font-size="14.00">Roushzar</text>
</g>
<!-- Huola -->
<g id="Huola" class="node">
<title>Huola</title>
<polygon fill="none" stroke="black" points="625.77,-36 566.77,-36 566.77,0 625.77,0 625.77,-36"/>
<text text-anchor="middle" x="596.27" y="-14.3" font-family="Times,serif" font-size="14.00">Huola</text>
</g>
<!-- Roushzar&#45;&#45;Huola -->
<g id="edge34" class="edge">
<title>Roushzar&#45;&#45;Huola</title>
<path fill="none" stroke="black" d="M563.58,-50.2C568.23,-45.63 573.25,-40.68 577.93,-36.07"/>
</g>
<!-- Labapi -->
<g id="Labapi" class="node">
<title>Labapi</title>
<ellipse fill="none" stroke="black" cx="499.45" cy="-119.09" rx="42.49" ry="18"/>
<text text-anchor="middle" x="499.45" y="-115.39" font-family="Times,serif" font-size="14.00">Labapi</text>
</g>
<!-- Labapi&#45;&#45;Roushzar -->
<g id="edge35" class="edge">
<title>Labapi&#45;&#45;Roushzar</title>
<path fill="none" stroke="black" d="M514.69,-102.21C519.68,-96.69 525.22,-90.54 530.24,-84.98"/>
</g>
<!-- Arayar -->
<g id="Arayar" class="node">
<title>Arayar</title>
<ellipse fill="none" stroke="black" cx="406.74" cy="-150.98" rx="42.49" ry="18"/>
<text text-anchor="middle" x="406.74" y="-147.28" font-family="Times,serif" font-size="14.00">Arayar</text>
</g>
<!-- Arayar&#45;&#45;Labapi -->
<g id="edge36" class="edge">
<title>Arayar&#45;&#45;Labapi</title>
<path fill="none" stroke="black" d="M439.68,-139.65C448.32,-136.68 457.64,-133.47 466.29,-130.5"/>
</g>
<!-- Asghed -->
<g id="Asghed" class="node">
<title>Asghed</title>
<ellipse fill="none" stroke="black" cx="466.31" cy="-195.02" rx="45" ry="18"/>
<text text-anchor="middle" x="466.31" y="-191.32" font-family="Times,serif" font-size="14.00">Asghed</text>
</g>
<!-- Arayar&#45;&#45;Asghed -->
<g id="edge37" class="edge">
<title>Arayar&#45;&#45;Asghed</title>
<path fill="none" stroke="black" d="M427.91,-166.63C433.39,-170.69 439.3,-175.06 444.8,-179.12"/>
</g>
<!-- Halmah -->
<g id="Halmah" class="node">
<title>Halmah</title>
<ellipse fill="none" stroke="black" cx="366.66" cy="-225.87" rx="47" ry="18"/>
<text text-anchor="middle" x="366.66" y="-222.17" font-family="Times,serif" font-size="14.00">Halmah</text>
</g>
<!-- Arayar&#45;&#45;Halmah -->
<g id="edge38" class="edge">
<title>Arayar&#45;&#45;Halmah</title>
<path fill="none" stroke="black" d="M397.24,-168.73C390.9,-180.58 382.58,-196.11 376.23,-207.99"/>
</g>
<!-- Asghed&#45;&#45;Tararan -->
<g id="edge39" class="edge">
<title>Asghed&#45;&#45;Tararan</title>
<path fill="none" stroke="black" d="M468.81,-213.35C470.76,-227.61 473.44,-247.3 475.38,-261.48"/>
</g>
<!-- Asghed&#45;&#45;Labapi -->
<g id="edge40" class="edge">
<title>Asghed&#45;&#45;Labapi</title>
<path fill="none" stroke="black" d="M474.16,-177.03C479.44,-164.92 486.38,-149.04 491.65,-136.96"/>
</g>
<!-- Asghed&#45;&#45;Halmah -->
<g id="edge41" class="edge">
<title>Asghed&#45;&#45;Halmah</title>
<path fill="none" stroke="black" d="M430.61,-206.07C421.79,-208.8 412.32,-211.73 403.45,-214.48"/>
</g>
<!-- Sosan -->
<g id="Sosan" class="node">
<title>Sosan</title>
<ellipse fill="none" stroke="black" cx="557.53" cy="-235.45" rx="38.5" ry="18"/>
<text text-anchor="middle" x="557.53" y="-231.75" font-family="Times,serif" font-size="14.00">Sosan</text>
</g>
<!-- Asghed&#45;&#45;Sosan -->
<g id="edge42" class="edge">
<title>Asghed&#45;&#45;Sosan</title>
<path fill="none" stroke="black" d="M496.43,-208.37C507.12,-213.11 519.1,-218.42 529.6,-223.07"/>
</g>
<!-- Halmah&#45;&#45;Tararan -->
<g id="edge43" class="edge">
<title>Halmah&#45;&#45;Tararan</title>
<path fill="none" stroke="black" d="M395.87,-239.95C412.08,-247.77 432.19,-257.47 448.43,-265.3"/>
</g>
<!-- Mili -->
<g id="Mili" class="node">
<title>Mili</title>
<ellipse fill="none" stroke="black" cx="283.21" cy="-186.9" rx="28.7" ry="18"/>
<text text-anchor="middle" x="283.21" y="-183.2" font-family="Times,serif" font-size="14.00">Mili</text>
</g>
<!-- Halmah&#45;&#45;Mili -->
<g id="edge44" class="edge">
<title>Halmah&#45;&#45;Mili</title>
<path fill="none" stroke="black" d="M336.53,-211.8C326.54,-207.13 315.59,-202.02 306.22,-197.64"/>
</g>
<!-- Sosan&#45;&#45;Tararan -->
<g id="edge45" class="edge">
<title>Sosan&#45;&#45;Tararan</title>
<path fill="none" stroke="black" d="M532.31,-249.38C523.56,-254.22 513.71,-259.66 504.81,-264.57"/>
</g>
<!-- Oyonata -->
<g id="Oyonata" class="node">
<title>Oyonata</title>
<polygon fill="none" stroke="black" points="671.75,-201.35 595.75,-201.35 595.75,-165.35 671.75,-165.35 671.75,-201.35"/>
<text text-anchor="middle" x="633.75" y="-179.65" font-family="Times,serif" font-size="14.00">Oyonata</text>
</g>
<!-- Sosan&#45;&#45;Oyonata -->
<g id="edge46" class="edge">
<title>Sosan&#45;&#45;Oyonata</title>
<path fill="none" stroke="black" d="M579.57,-220.38C588.19,-214.49 598.15,-207.68 607.16,-201.52"/>
</g>
<!-- Rahadalon -->
<g id="Rahadalon" class="node">
<title>Rahadalon</title>
<ellipse fill="none" stroke="black" cx="710.87" cy="-1135.8" rx="60" ry="18"/>
<text text-anchor="middle" x="710.87" y="-1132.1" font-family="Times,serif" font-size="14.00">Rahadalon</text>
</g>
<!-- Rahadalon&#45;&#45;Nakah -->
<g id="edge47" class="edge">
<title>Rahadalon&#45;&#45;Nakah</title>
<path fill="none" stroke="black" d="M768.69,-1131.2C772.31,-1130.9 775.88,-1130.6 779.31,-1130.3"/>
</g>
<!-- Soosat -->
<g id="Soosat" class="node">
<title>Soosat</title>
<ellipse fill="none" stroke="black" cx="755.68" cy="-1183.8" rx="42.49" ry="18"/>
<text text-anchor="middle" x="755.68" y="-1180.1" font-family="Times,serif" font-size="14.00">Soosat</text>
</g>
<!-- Rahadalon&#45;&#45;Soosat -->
<g id="edge48" class="edge">
<title>Rahadalon&#45;&#45;Soosat</title>
<path fill="none" stroke="black" d="M727.05,-1153.1C731.26,-1157.6 735.79,-1162.5 739.98,-1167"/>
</g>
<!-- Ibash -->
<g id="Ibash" class="node">
<title>Ibash</title>
<ellipse fill="none" stroke="black" cx="717.28" cy="-1251.5" rx="36.5" ry="18"/>
<text text-anchor="middle" x="717.28" y="-1247.8" font-family="Times,serif" font-size="14.00">Ibash</text>
</g>
<!-- Ibash&#45;&#45;Soosat -->
<g id="edge49" class="edge">
<title>Ibash&#45;&#45;Soosat</title>
<path fill="none" stroke="black" d="M727.17,-1234.1C732.86,-1224.1 739.99,-1211.5 745.69,-1201.4"/>
</g>
<!-- Itsyamil -->
<g id="Itsyamil" class="node">
<title>Itsyamil</title>
<ellipse fill="none" stroke="black" cx="657.25" cy="-1205.2" rx="48.19" ry="18"/>
<text text-anchor="middle" x="657.25" y="-1201.5" font-family="Times,serif" font-size="14.00">Itsyamil</text>
</g>
<!-- Ibash&#45;&#45;Itsyamil -->
<g id="edge50" class="edge">
<title>Ibash&#45;&#45;Itsyamil</title>
<path fill="none" stroke="black" d="M697.62,-1236.4C691.47,-1231.6 684.65,-1226.3 678.4,-1221.5"/>
</g>
<!-- Ussad -->
<g id="Ussad" class="node">
<title>Ussad</title>
<ellipse fill="none" stroke="black" cx="729.84" cy="-1312.9" rx="39.79" ry="18"/>
<text text-anchor="middle" x="729.84" y="-1309.2" font-family="Times,serif" font-size="14.00">Ussad</text>
</g>
<!-- Ibash&#45;&#45;Ussad -->
<g id="edge51" class="edge">
<title>Ibash&#45;&#45;Ussad</title>
<path fill="none" stroke="black" d="M720.98,-1269.6C722.6,-1277.5 724.5,-1286.8 726.12,-1294.7"/>
</g>
<!-- Itsyamil&#45;&#45;Rahadalon -->
<g id="edge52" class="edge">
<title>Itsyamil&#45;&#45;Rahadalon</title>
<path fill="none" stroke="black" d="M670.78,-1187.7C678.85,-1177.2 689.06,-1164 697.15,-1153.5"/>
</g>
<!-- Mendori -->
<g id="Mendori" class="node">
<title>Mendori</title>
<ellipse fill="none" stroke="black" cx="693.05" cy="-1091.8" rx="50.09" ry="18"/>
<text text-anchor="middle" x="693.05" y="-1088.1" font-family="Times,serif" font-size="14.00">Mendori</text>
</g>
<!-- Mendori&#45;&#45;Rahadalon -->
<g id="edge53" class="edge">
<title>Mendori&#45;&#45;Rahadalon</title>
<path fill="none" stroke="black" d="M700.3,-1109.7C701.38,-1112.3 702.49,-1115.1 703.57,-1117.7"/>
</g>
<!-- Nakatre -->
<g id="Nakatre" class="node">
<title>Nakatre</title>
<ellipse fill="none" stroke="black" cx="860.76" cy="-994.8" rx="48.19" ry="18"/>
<text text-anchor="middle" x="860.76" y="-991.1" font-family="Times,serif" font-size="14.00">Nakatre</text>
</g>
<!-- Mendori&#45;&#45;Nakatre -->
<g id="edge54" class="edge">
<title>Mendori&#45;&#45;Nakatre</title>
<path fill="none" stroke="black" d="M726.1,-1078.1C745.19,-1069.8 769.38,-1058.4 789.84,-1046.3 807.66,-1035.8 826.56,-1021.9 840.36,-1011.2"/>
</g>
<!-- Riavayed -->
<g id="Riavayed" class="node">
<title>Riavayed</title>
<ellipse fill="none" stroke="black" cx="855.37" cy="-950.77" rx="53.5" ry="18"/>
<text text-anchor="middle" x="855.37" y="-947.07" font-family="Times,serif" font-size="14.00">Riavayed</text>
</g>
<!-- Nakatre&#45;&#45;Riavayed -->
<g id="edge55" class="edge">
<title>Nakatre&#45;&#45;Riavayed</title>
<path fill="none" stroke="black" d="M858.54,-976.64C858.22,-974.08 857.9,-971.45 857.59,-968.9"/>
</g>
<!-- Laddiaha -->
<g id="Laddiaha" class="node">
<title>Laddiaha</title>
<ellipse fill="none" stroke="black" cx="647.06" cy="-952.05" rx="53.5" ry="18"/>
<text text-anchor="middle" x="647.06" y="-948.35" font-family="Times,serif" font-size="14.00">Laddiaha</text>
</g>
<!-- Laddiaha&#45;&#45;Uadelah -->
<g id="edge56" class="edge">
<title>Laddiaha&#45;&#45;Uadelah</title>
<path fill="none" stroke="black" d="M644.87,-933.89C643.75,-924.51 642.37,-913.1 641.25,-903.72"/>
</g>
<!-- Laddiaha&#45;&#45;Naeel -->
<g id="edge57" class="edge">
<title>Laddiaha&#45;&#45;Naeel</title>
<path fill="none" stroke="black" d="M593.79,-953.63C561.43,-954.59 520.88,-955.79 491.81,-956.65"/>
</g>
<!-- Laddiaha&#45;&#45;Nakatre -->
<g id="edge58" class="edge">
<title>Laddiaha&#45;&#45;Nakatre</title>
<path fill="none" stroke="black" d="M693.16,-961.28C730.22,-968.69 781.87,-979.02 818,-986.25"/>
</g>
<!-- Lower Debyl -->
<g id="Lower Debyl" class="node">
<title>Lower Debyl</title>
<ellipse fill="none" stroke="black" cx="489.11" cy="-1001.8" rx="69.59" ry="18"/>
<text text-anchor="middle" x="489.11" y="-998.1" font-family="Times,serif" font-size="14.00">Lower Debyl</text>
</g>
<!-- Laddiaha&#45;&#45;Lower Debyl -->
<g id="edge59" class="edge">
<title>Laddiaha&#45;&#45;Lower Debyl</title>
<path fill="none" stroke="black" d="M608.01,-964.35C585.36,-971.49 556.75,-980.5 533.27,-987.9"/>
</g>
<!-- Upper Debyl -->
<g id="Upper Debyl" class="node">
<title>Upper Debyl</title>
<ellipse fill="none" stroke="black" cx="619.06" cy="-1045.9" rx="69.59" ry="18"/>
<text text-anchor="middle" x="619.06" y="-1042.2" font-family="Times,serif" font-size="14.00">Upper Debyl</text>
</g>
<!-- Laddiaha&#45;&#45;Upper Debyl -->
<g id="edge60" class="edge">
<title>Laddiaha&#45;&#45;Upper Debyl</title>
<path fill="none" stroke="black" d="M641.66,-970.14C636.7,-986.76 629.4,-1011.2 624.45,-1027.8"/>
</g>
<!-- Lower Debyl&#45;&#45;Naeel -->
<g id="edge61" class="edge">
<title>Lower Debyl&#45;&#45;Naeel</title>
<path fill="none" stroke="black" d="M475.03,-984.15C472.59,-981.09 470.06,-977.91 467.63,-974.86"/>
</g>
<!-- Lower Debyl&#45;&#45;Shastal -->
<g id="edge62" class="edge">
<title>Lower Debyl&#45;&#45;Shastal</title>
<path fill="none" stroke="black" d="M482.52,-1019.7C479.24,-1028.7 475.29,-1039.4 472.02,-1048.3"/>
</g>
<!-- Lower Debyl&#45;&#45;Upper Debyl -->
<g id="edge63" class="edge">
<title>Lower Debyl&#45;&#45;Upper Debyl</title>
<path fill="none" stroke="black" d="M531.66,-1016.2C546.17,-1021.2 562.38,-1026.7 576.86,-1031.6"/>
</g>
<!-- Hakshma -->
<g id="Hakshma" class="node">
<title>Hakshma</title>
<ellipse fill="none" stroke="black" cx="750.63" cy="-1032.4" rx="54" ry="18"/>
<text text-anchor="middle" x="750.63" y="-1028.7" font-family="Times,serif" font-size="14.00">Hakshma</text>
</g>
<!-- Hakshma&#45;&#45;Shastal -->
<g id="edge64" class="edge">
<title>Hakshma&#45;&#45;Shastal</title>
<path fill="none" stroke="black" d="M715.06,-1046.2C701,-1051.2 684.58,-1056.4 669.31,-1059.8 615.56,-1071.7 551.9,-1071.5 510.2,-1069.5"/>
</g>
<!-- Hakshma&#45;&#45;Nakatre -->
<g id="edge65" class="edge">
<title>Hakshma&#45;&#45;Nakatre</title>
<path fill="none" stroke="black" d="M788.53,-1019.5C800.35,-1015.4 813.35,-1011 825.01,-1007"/>
</g>
<!-- Hakshma&#45;&#45;Riavayed -->
<g id="edge66" class="edge">
<title>Hakshma&#45;&#45;Riavayed</title>
<path fill="none" stroke="black" d="M772.08,-1015.7C790.16,-1001.6 815.89,-981.56 833.95,-967.48"/>
</g>
<!-- Akes -->
<g id="Akes" class="node">
<title>Akes</title>
<ellipse fill="none" stroke="black" cx="718.82" cy="-839.73" rx="32.5" ry="18"/>
<text text-anchor="middle" x="718.82" y="-836.03" font-family="Times,serif" font-size="14.00">Akes</text>
</g>
<!-- Akes&#45;&#45;Uadelah -->
<g id="edge67" class="edge">
<title>Akes&#45;&#45;Uadelah</title>
<path fill="none" stroke="black" d="M696.18,-852.75C686.69,-858.2 675.6,-864.58 665.72,-870.26"/>
</g>
<!-- Hati -->
<g id="Hati" class="node">
<title>Hati</title>
<ellipse fill="none" stroke="black" cx="751.19" cy="-896.21" rx="30.59" ry="18"/>
<text text-anchor="middle" x="751.19" y="-892.51" font-family="Times,serif" font-size="14.00">Hati</text>
</g>
<!-- Akes&#45;&#45;Hati -->
<g id="edge68" class="edge">
<title>Akes&#45;&#45;Hati</title>
<path fill="none" stroke="black" d="M728.71,-856.99C732.72,-863.99 737.35,-872.07 741.36,-879.07"/>
</g>
<!-- Hati&#45;&#45;Uadelah -->
<g id="edge69" class="edge">
<title>Hati&#45;&#45;Uadelah</title>
<path fill="none" stroke="black" d="M720.85,-893.34C710.47,-892.35 698.59,-891.22 687.16,-890.14"/>
</g>
<!-- Hati&#45;&#45;Riavayed -->
<g id="edge70" class="edge">
<title>Hati&#45;&#45;Riavayed</title>
<path fill="none" stroke="black" d="M774.05,-908.19C789.39,-916.22 809.72,-926.86 826.21,-935.5"/>
</g>
<!-- Jarkkolen -->
<g id="Jarkkolen" class="node">
<title>Jarkkolen</title>
<polygon fill="none" stroke="black" points="847.07,-867.45 764.07,-867.45 764.07,-831.45 847.07,-831.45 847.07,-867.45"/>
<text text-anchor="middle" x="805.57" y="-845.75" font-family="Times,serif" font-size="14.00">Jarkkolen</text>
</g>
<!-- Hati&#45;&#45;Jarkkolen -->
<g id="edge71" class="edge">
<title>Hati&#45;&#45;Jarkkolen</title>
<path fill="none" stroke="black" d="M768.69,-881.16C773.66,-876.89 779.12,-872.19 784.29,-867.75"/>
</g>
<!-- Yuhelia -->
<g id="Yuhelia" class="node">
<title>Yuhelia</title>
<polygon fill="none" stroke="black" points="870.41,-912.36 802.41,-912.36 802.41,-876.36 870.41,-876.36 870.41,-912.36"/>
<text text-anchor="middle" x="836.41" y="-890.66" font-family="Times,serif" font-size="14.00">Yuhelia</text>
</g>
<!-- Hati&#45;&#45;Yuhelia -->
<g id="edge72" class="edge">
<title>Hati&#45;&#45;Yuhelia</title>
<path fill="none" stroke="black" d="M781.96,-895.55C788.53,-895.4 795.52,-895.25 802.22,-895.11"/>
</g>
<!-- Ehnoum -->
<g id="Ehnoum" class="node">
<title>Ehnoum</title>
<ellipse fill="none" stroke="black" cx="530.56" cy="-1112.2" rx="49.5" ry="18"/>
<text text-anchor="middle" x="530.56" y="-1108.5" font-family="Times,serif" font-size="14.00">Ehnoum</text>
</g>
<!-- Ehnoum&#45;&#45;Shastal -->
<g id="edge73" class="edge">
<title>Ehnoum&#45;&#45;Shastal</title>
<path fill="none" stroke="black" d="M507.79,-1096.1C501.34,-1091.5 494.32,-1086.6 487.89,-1082"/>
</g>
<!-- Ehnoum&#45;&#45;Mendori -->
<g id="edge74" class="edge">
<title>Ehnoum&#45;&#45;Mendori</title>
<path fill="none" stroke="black" d="M577.56,-1106.3C598.93,-1103.6 624.17,-1100.4 645.6,-1097.7"/>
</g>
<!-- Ehnoum&#45;&#45;Lower Debyl -->
<g id="edge75" class="edge">
<title>Ehnoum&#45;&#45;Lower Debyl</title>
<path fill="none" stroke="black" d="M523.71,-1094C516.03,-1073.5 503.65,-1040.5 495.96,-1020.1"/>
</g>
<!-- Ehnoum&#45;&#45;Upper Debyl -->
<g id="edge76" class="edge">
<title>Ehnoum&#45;&#45;Upper Debyl</title>
<path fill="none" stroke="black" d="M552.44,-1095.8C565.75,-1085.8 582.72,-1073.1 596.2,-1063"/>
</g>
<!-- Faktun -->
<g id="Faktun" class="node">
<title>Faktun</title>
<ellipse fill="none" stroke="black" cx="308.1" cy="-123.86" rx="43" ry="18"/>
<text text-anchor="middle" x="308.1" y="-120.16" font-family="Times,serif" font-size="14.00">Faktun</text>
</g>
<!-- Faktun&#45;&#45;Mili -->
<g id="edge77" class="edge">
<title>Faktun&#45;&#45;Mili</title>
<path fill="none" stroke="black" d="M301.03,-141.75C297.64,-150.35 293.59,-160.61 290.21,-169.18"/>
</g>
<!-- Ulerah -->
<g id="Ulerah" class="node">
<title>Ulerah</title>
<ellipse fill="none" stroke="black" cx="214.9" cy="-85.6" rx="42.49" ry="18"/>
<text text-anchor="middle" x="214.9" y="-81.9" font-family="Times,serif" font-size="14.00">Ulerah</text>
</g>
<!-- Faktun&#45;&#45;Ulerah -->
<g id="edge78" class="edge">
<title>Faktun&#45;&#45;Ulerah</title>
<path fill="none" stroke="black" d="M277.32,-111.22C267.04,-107 255.59,-102.3 245.33,-98.09"/>
</g>
<!-- Halenan -->
<g id="Halenan" class="node">
<title>Halenan</title>
<ellipse fill="none" stroke="black" cx="197.19" cy="-161.26" rx="49.5" ry="18"/>
<text text-anchor="middle" x="197.19" y="-157.56" font-family="Times,serif" font-size="14.00">Halenan</text>
</g>
<!-- Halenan&#45;&#45;Mili -->
<g id="edge79" class="edge">
<title>Halenan&#45;&#45;Mili</title>
<path fill="none" stroke="black" d="M235.67,-172.73C243.01,-174.91 250.52,-177.15 257.35,-179.19"/>
</g>
<!-- Halenan&#45;&#45;Ulerah -->
<g id="edge80" class="edge">
<title>Halenan&#45;&#45;Ulerah</title>
<path fill="none" stroke="black" d="M201.48,-142.94C204.27,-131.05 207.88,-115.61 210.66,-103.74"/>
</g>
<!-- Uktiad -->
<g id="Uktiad" class="node">
<title>Uktiad</title>
<ellipse fill="none" stroke="black" cx="97.46" cy="-168.87" rx="42.49" ry="18"/>
<text text-anchor="middle" x="97.46" y="-165.17" font-family="Times,serif" font-size="14.00">Uktiad</text>
</g>
<!-- Halenan&#45;&#45;Uktiad -->
<g id="edge81" class="edge">
<title>Halenan&#45;&#45;Uktiad</title>
<path fill="none" stroke="black" d="M148.79,-164.95C145.61,-165.19 142.42,-165.44 139.28,-165.68"/>
</g>
<!-- Nidebora -->
<g id="Nidebora" class="node">
<title>Nidebora</title>
<ellipse fill="none" stroke="black" cx="191.71" cy="-41.57" rx="54" ry="18"/>
<text text-anchor="middle" x="191.71" y="-37.87" font-family="Times,serif" font-size="14.00">Nidebora</text>
</g>
<!-- Nidebora&#45;&#45;Ulerah -->
<g id="edge82" class="edge">
<title>Nidebora&#45;&#45;Ulerah</title>
<path fill="none" stroke="black" d="M201.14,-59.48C202.6,-62.24 204.1,-65.09 205.55,-67.85"/>
</g>
<!-- Palpis -->
<g id="Palpis" class="node">
<title>Palpis</title>
<ellipse fill="none" stroke="black" cx="74.27" cy="-61.13" rx="38.5" ry="18"/>
<text text-anchor="middle" x="74.27" y="-57.43" font-family="Times,serif" font-size="14.00">Palpis</text>
</g>
<!-- Nidebora&#45;&#45;Palpis -->
<g id="edge83" class="edge">
<title>Nidebora&#45;&#45;Palpis</title>
<path fill="none" stroke="black" d="M143.26,-49.64C132.39,-51.45 121.04,-53.34 110.76,-55.05"/>
</g>
<!-- Arveyil -->
<g id="Arveyil" class="node">
<title>Arveyil</title>
<ellipse fill="none" stroke="black" cx="43.55" cy="-124.72" rx="43.59" ry="18"/>
<text text-anchor="middle" x="43.55" y="-121.02" font-family="Times,serif" font-size="14.00">Arveyil</text>
</g>
<!-- Arveyil&#45;&#45;Uktiad -->
<g id="edge84" class="edge">
<title>Arveyil&#45;&#45;Uktiad</title>
<path fill="none" stroke="black" d="M63.31,-140.91C68,-144.75 73,-148.84 77.69,-152.68"/>
</g>
<!-- Arveyil&#45;&#45;Palpis -->
<g id="edge85" class="edge">
<title>Arveyil&#45;&#45;Palpis</title>
<path fill="none" stroke="black" d="M52.1,-107.01C56.37,-98.19 61.5,-87.56 65.76,-78.75"/>
</g>
</g>
</svg>
