<?xml version="1.0" encoding="UTF-8" standalone="no"?>
<!DOCTYPE svg PUBLIC "-//W3C//DTD SVG 1.1//EN"
 "http://www.w3.org/Graphics/SVG/1.1/DTD/svg11.dtd">
<!-- Generated by graphviz version 2.43.0 (0)
 -->
<!-- Pages: 1 -->
<svg width="1379pt" height="762pt"
 viewBox="0.00 0.00 1379.10 762.36" xmlns="http://www.w3.org/2000/svg" xmlns:xlink="http://www.w3.org/1999/xlink">
<g id="graph0" class="graph" transform="scale(1 1) rotate(0) translate(4 758.36)">
<polygon fill="white" stroke="transparent" points="-4,4 -4,-758.36 1375.1,-758.36 1375.1,4 -4,4"/>
<!-- Pettinck -->
<g id="Pettinck" class="node">
<title>Pettinck</title>
<polygon fill="none" stroke="black" points="1250.1,-406.81 1175.1,-406.81 1175.1,-370.81 1250.1,-370.81 1250.1,-406.81"/>
<text text-anchor="middle" x="1212.6" y="-385.11" font-family="Times,serif" font-size="14.00">Pettinck</text>
</g>
<!-- Du Annes -->
<g id="Du Annes" class="node">
<title>Du Annes</title>
<polygon fill="none" stroke="black" points="1352.2,-277.59 1267.2,-277.59 1267.2,-241.59 1352.2,-241.59 1352.2,-277.59"/>
<text text-anchor="middle" x="1309.7" y="-255.89" font-family="Times,serif" font-size="14.00">Du Annes</text>
</g>
<!-- Grinacanne -->
<g id="Grinacanne" class="node">
<title>Grinacanne</title>
<polygon fill="none" stroke="black" points="1371.1,-214.63 1273.1,-214.63 1273.1,-178.63 1371.1,-178.63 1371.1,-214.63"/>
<text text-anchor="middle" x="1322.1" y="-192.93" font-family="Times,serif" font-size="14.00">Grinacanne</text>
</g>
<!-- Metserel -->
<g id="Metserel" class="node">
<title>Metserel</title>
<polygon fill="none" stroke="black" points="740.16,-94.08 660.16,-94.08 660.16,-58.08 740.16,-58.08 740.16,-94.08"/>
<text text-anchor="middle" x="700.16" y="-72.38" font-family="Times,serif" font-size="14.00">Metserel</text>
</g>
<!-- Erme -->
<g id="Erme" class="node">
<title>Erme</title>
<polygon fill="none" stroke="black" points="816.52,-525.67 760.52,-525.67 760.52,-489.67 816.52,-489.67 816.52,-525.67"/>
<text text-anchor="middle" x="788.52" y="-503.97" font-family="Times,serif" font-size="14.00">Erme</text>
</g>
<!-- Trosquesere -->
<g id="Trosquesere" class="node">
<title>Trosquesere</title>
<polygon fill="none" stroke="black" points="1310,-125.3 1205,-125.3 1205,-89.3 1310,-89.3 1310,-125.3"/>
<text text-anchor="middle" x="1257.5" y="-103.6" font-family="Times,serif" font-size="14.00">Trosquesere</text>
</g>
<!-- Lermireve -->
<g id="Lermireve" class="node">
<title>Lermireve</title>
<polygon fill="none" stroke="black" points="187.91,-659.03 97.91,-659.03 97.91,-623.03 187.91,-623.03 187.91,-659.03"/>
<text text-anchor="middle" x="142.91" y="-637.33" font-family="Times,serif" font-size="14.00">Lermireve</text>
</g>
<!-- Kassigainen -->
<g id="Kassigainen" class="node">
<title>Kassigainen</title>
<polygon fill="none" stroke="black" points="1047.26,-356.36 944.26,-356.36 944.26,-320.36 1047.26,-320.36 1047.26,-356.36"/>
<text text-anchor="middle" x="995.76" y="-334.66" font-family="Times,serif" font-size="14.00">Kassigainen</text>
</g>
<!-- Yashunen -->
<g id="Yashunen" class="node">
<title>Yashunen</title>
<polygon fill="none" stroke="black" points="986.22,-414.06 901.22,-414.06 901.22,-378.06 986.22,-378.06 986.22,-414.06"/>
<text text-anchor="middle" x="943.72" y="-392.36" font-family="Times,serif" font-size="14.00">Yashunen</text>
</g>
<!-- Nagamanen -->
<g id="Nagamanen" class="node">
<title>Nagamanen</title>
<polygon fill="none" stroke="black" points="446.04,-220.18 344.04,-220.18 344.04,-184.18 446.04,-184.18 446.04,-220.18"/>
<text text-anchor="middle" x="395.04" y="-198.48" font-family="Times,serif" font-size="14.00">Nagamanen</text>
</g>
<!-- Bereye -->
<g id="Bereye" class="node">
<title>Bereye</title>
<polygon fill="none" stroke="black" points="1246.3,-485.53 1179.3,-485.53 1179.3,-449.53 1246.3,-449.53 1246.3,-485.53"/>
<text text-anchor="middle" x="1212.8" y="-463.83" font-family="Times,serif" font-size="14.00">Bereye</text>
</g>
<!-- Orvolle -->
<g id="Orvolle" class="node">
<title>Orvolle</title>
<polygon fill="none" stroke="black" points="930.75,-466.91 862.75,-466.91 862.75,-430.91 930.75,-430.91 930.75,-466.91"/>
<text text-anchor="middle" x="896.75" y="-445.21" font-family="Times,serif" font-size="14.00">Orvolle</text>
</g>
<!-- Luminaire -->
<g id="Luminaire" class="node">
<title>Luminaire</title>
<ellipse fill="none" stroke="black" cx="1052.2" cy="-391.9" rx="58" ry="18"/>
<text text-anchor="middle" x="1052.2" y="-388.2" font-family="Times,serif" font-size="14.00">Luminaire</text>
</g>
<!-- Luminaire&#45;&#45;Pettinck -->
<g id="edge1" class="edge">
<title>Luminaire&#45;&#45;Pettinck</title>
<path fill="none" stroke="black" d="M1110.1,-390.79C1131.6,-390.37 1155.5,-389.91 1174.8,-389.54"/>
</g>
<!-- Mies -->
<g id="Mies" class="node">
<title>Mies</title>
<ellipse fill="none" stroke="black" cx="1136.6" cy="-435.94" rx="33.29" ry="18"/>
<text text-anchor="middle" x="1136.6" y="-432.24" font-family="Times,serif" font-size="14.00">Mies</text>
</g>
<!-- Luminaire&#45;&#45;Mies -->
<g id="edge2" class="edge">
<title>Luminaire&#45;&#45;Mies</title>
<path fill="none" stroke="black" d="M1082.2,-407.55C1092.1,-412.74 1103.1,-418.45 1112.5,-423.38"/>
</g>
<!-- Mies&#45;&#45;Bereye -->
<g id="edge3" class="edge">
<title>Mies&#45;&#45;Bereye</title>
<path fill="none" stroke="black" d="M1163.2,-446.99C1168.4,-449.12 1173.8,-451.38 1179.2,-453.6"/>
</g>
<!-- Oursulaert -->
<g id="Oursulaert" class="node">
<title>Oursulaert</title>
<ellipse fill="none" stroke="black" cx="1162.9" cy="-340" rx="61.19" ry="18"/>
<text text-anchor="middle" x="1162.9" y="-336.3" font-family="Times,serif" font-size="14.00">Oursulaert</text>
</g>
<!-- Mies&#45;&#45;Oursulaert -->
<g id="edge4" class="edge">
<title>Mies&#45;&#45;Oursulaert</title>
<path fill="none" stroke="black" d="M1141.6,-417.89C1146.3,-400.74 1153.3,-375.09 1158,-357.96"/>
</g>
<!-- Renyn -->
<g id="Renyn" class="node">
<title>Renyn</title>
<ellipse fill="none" stroke="black" cx="1218.8" cy="-233.16" rx="40.5" ry="18"/>
<text text-anchor="middle" x="1218.8" y="-229.46" font-family="Times,serif" font-size="14.00">Renyn</text>
</g>
<!-- Oursulaert&#45;&#45;Renyn -->
<g id="edge5" class="edge">
<title>Oursulaert&#45;&#45;Renyn</title>
<path fill="none" stroke="black" d="M1172.4,-321.87C1182.8,-302.11 1199.2,-270.67 1209.5,-251.01"/>
</g>
<!-- Pakhshi -->
<g id="Pakhshi" class="node">
<title>Pakhshi</title>
<polygon fill="none" stroke="black" points="1156.5,-310.25 1084.5,-310.25 1084.5,-274.25 1156.5,-274.25 1156.5,-310.25"/>
<text text-anchor="middle" x="1120.5" y="-288.55" font-family="Times,serif" font-size="14.00">Pakhshi</text>
</g>
<!-- Oursulaert&#45;&#45;Pakhshi -->
<g id="edge6" class="edge">
<title>Oursulaert&#45;&#45;Pakhshi</title>
<path fill="none" stroke="black" d="M1147.4,-322.49C1143.9,-318.55 1140.2,-314.36 1136.7,-310.39"/>
</g>
<!-- Renyn&#45;&#45;Du Annes -->
<g id="edge7" class="edge">
<title>Renyn&#45;&#45;Du Annes</title>
<path fill="none" stroke="black" d="M1252.7,-243C1257.3,-244.35 1262.1,-245.75 1266.9,-247.14"/>
</g>
<!-- Renyn&#45;&#45;Grinacanne -->
<g id="edge8" class="edge">
<title>Renyn&#45;&#45;Grinacanne</title>
<path fill="none" stroke="black" d="M1250.7,-221.9C1257.6,-219.43 1265.2,-216.75 1272.7,-214.1"/>
</g>
<!-- Renyn&#45;&#45;Pakhshi -->
<g id="edge9" class="edge">
<title>Renyn&#45;&#45;Pakhshi</title>
<path fill="none" stroke="black" d="M1194.8,-247.61C1181.5,-255.61 1164.8,-265.62 1150.7,-274.13"/>
</g>
<!-- Duripant -->
<g id="Duripant" class="node">
<title>Duripant</title>
<ellipse fill="none" stroke="black" cx="1228.7" cy="-151.31" rx="52" ry="18"/>
<text text-anchor="middle" x="1228.7" y="-147.61" font-family="Times,serif" font-size="14.00">Duripant</text>
</g>
<!-- Duripant&#45;&#45;Trosquesere -->
<g id="edge10" class="edge">
<title>Duripant&#45;&#45;Trosquesere</title>
<path fill="none" stroke="black" d="M1240.3,-133.66C1242,-130.98 1243.8,-128.22 1245.6,-125.53"/>
</g>
<!-- Duripant&#45;&#45;Renyn -->
<g id="edge11" class="edge">
<title>Duripant&#45;&#45;Renyn</title>
<path fill="none" stroke="black" d="M1226.5,-169.47C1224.9,-183.04 1222.7,-201.49 1221,-215.04"/>
</g>
<!-- Algogille -->
<g id="Algogille" class="node">
<title>Algogille</title>
<ellipse fill="none" stroke="black" cx="1119.2" cy="-248.15" rx="51.5" ry="18"/>
<text text-anchor="middle" x="1119.2" y="-244.45" font-family="Times,serif" font-size="14.00">Algogille</text>
</g>
<!-- Algogille&#45;&#45;Kassigainen -->
<g id="edge12" class="edge">
<title>Algogille&#45;&#45;Kassigainen</title>
<path fill="none" stroke="black" d="M1092.5,-263.76C1088.7,-266.13 1084.9,-268.6 1081.3,-271.05 1058.8,-286.64 1034.3,-306.17 1017.4,-320.17"/>
</g>
<!-- Algogille&#45;&#45;Luminaire -->
<g id="edge13" class="edge">
<title>Algogille&#45;&#45;Luminaire</title>
<path fill="none" stroke="black" d="M1089.1,-263.04C1086.2,-265.41 1083.5,-268.07 1081.3,-271.05 1058.6,-302.05 1053.4,-348.37 1052.3,-373.71"/>
</g>
<!-- Algogille&#45;&#45;Renyn -->
<g id="edge14" class="edge">
<title>Algogille&#45;&#45;Renyn</title>
<path fill="none" stroke="black" d="M1166.4,-241.05C1171.1,-240.34 1175.9,-239.62 1180.5,-238.93"/>
</g>
<!-- Synchelle -->
<g id="Synchelle" class="node">
<title>Synchelle</title>
<ellipse fill="none" stroke="black" cx="1003.9" cy="-251.19" rx="56" ry="18"/>
<text text-anchor="middle" x="1003.9" y="-247.49" font-family="Times,serif" font-size="14.00">Synchelle</text>
</g>
<!-- Algogille&#45;&#45;Synchelle -->
<g id="edge15" class="edge">
<title>Algogille&#45;&#45;Synchelle</title>
<path fill="none" stroke="black" d="M1068,-249.5C1065.2,-249.57 1062.4,-249.65 1059.6,-249.72"/>
</g>
<!-- Couster -->
<g id="Couster" class="node">
<title>Couster</title>
<ellipse fill="none" stroke="black" cx="1121.2" cy="-176.06" rx="47.5" ry="18"/>
<text text-anchor="middle" x="1121.2" y="-172.36" font-family="Times,serif" font-size="14.00">Couster</text>
</g>
<!-- Algogille&#45;&#45;Couster -->
<g id="edge16" class="edge">
<title>Algogille&#45;&#45;Couster</title>
<path fill="none" stroke="black" d="M1119.7,-229.96C1120,-219.03 1120.4,-205.17 1120.7,-194.25"/>
</g>
<!-- Synchelle&#45;&#45;Kassigainen -->
<g id="edge17" class="edge">
<title>Synchelle&#45;&#45;Kassigainen</title>
<path fill="none" stroke="black" d="M1002.2,-269.25C1000.8,-284.21 998.84,-305.37 997.44,-320.32"/>
</g>
<!-- Synchelle&#45;&#45;Pakhshi -->
<g id="edge18" class="edge">
<title>Synchelle&#45;&#45;Pakhshi</title>
<path fill="none" stroke="black" d="M1041.8,-264.52C1055.5,-269.34 1070.9,-274.77 1084.5,-279.54"/>
</g>
<!-- Wysalan -->
<g id="Wysalan" class="node">
<title>Wysalan</title>
<ellipse fill="none" stroke="black" cx="925.36" cy="-203.04" rx="50.09" ry="18"/>
<text text-anchor="middle" x="925.36" y="-199.34" font-family="Times,serif" font-size="14.00">Wysalan</text>
</g>
<!-- Synchelle&#45;&#45;Wysalan -->
<g id="edge19" class="edge">
<title>Synchelle&#45;&#45;Wysalan</title>
<path fill="none" stroke="black" d="M977.76,-235.16C969.1,-229.85 959.48,-223.95 950.87,-218.68"/>
</g>
<!-- Yona -->
<g id="Yona" class="node">
<title>Yona</title>
<ellipse fill="none" stroke="black" cx="831.84" cy="-208.15" rx="32.5" ry="18"/>
<text text-anchor="middle" x="831.84" y="-204.45" font-family="Times,serif" font-size="14.00">Yona</text>
</g>
<!-- Wysalan&#45;&#45;Yona -->
<g id="edge20" class="edge">
<title>Wysalan&#45;&#45;Yona</title>
<path fill="none" stroke="black" d="M875.86,-205.74C871.92,-205.96 868,-206.17 864.22,-206.38"/>
</g>
<!-- Caslemon -->
<g id="Caslemon" class="node">
<title>Caslemon</title>
<ellipse fill="none" stroke="black" cx="774.61" cy="-303.96" rx="56" ry="18"/>
<text text-anchor="middle" x="774.61" y="-300.26" font-family="Times,serif" font-size="14.00">Caslemon</text>
</g>
<!-- Jolevier -->
<g id="Jolevier" class="node">
<title>Jolevier</title>
<ellipse fill="none" stroke="black" cx="825.88" cy="-348" rx="46.29" ry="18"/>
<text text-anchor="middle" x="825.88" y="-344.3" font-family="Times,serif" font-size="14.00">Jolevier</text>
</g>
<!-- Caslemon&#45;&#45;Jolevier -->
<g id="edge21" class="edge">
<title>Caslemon&#45;&#45;Jolevier</title>
<path fill="none" stroke="black" d="M794.28,-320.86C798.35,-324.36 802.63,-328.03 806.68,-331.51"/>
</g>
<!-- Mesybier -->
<g id="Mesybier" class="node">
<title>Mesybier</title>
<ellipse fill="none" stroke="black" cx="803.76" cy="-392.02" rx="54" ry="18"/>
<text text-anchor="middle" x="803.76" y="-388.32" font-family="Times,serif" font-size="14.00">Mesybier</text>
</g>
<!-- Caslemon&#45;&#45;Mesybier -->
<g id="edge22" class="edge">
<title>Caslemon&#45;&#45;Mesybier</title>
<path fill="none" stroke="black" d="M774.27,-322.29C774.58,-330.32 775.57,-339.76 778.13,-347.95 781.04,-357.24 786.18,-366.69 791.1,-374.44"/>
</g>
<!-- Charmerout -->
<g id="Charmerout" class="node">
<title>Charmerout</title>
<ellipse fill="none" stroke="black" cx="644.55" cy="-259.93" rx="67" ry="18"/>
<text text-anchor="middle" x="644.55" y="-256.23" font-family="Times,serif" font-size="14.00">Charmerout</text>
</g>
<!-- Caslemon&#45;&#45;Charmerout -->
<g id="edge23" class="edge">
<title>Caslemon&#45;&#45;Charmerout</title>
<path fill="none" stroke="black" d="M735.94,-290.87C720.36,-285.6 702.36,-279.5 686.47,-274.12"/>
</g>
<!-- Noghere -->
<g id="Noghere" class="node">
<title>Noghere</title>
<ellipse fill="none" stroke="black" cx="889.26" cy="-292.46" rx="50.89" ry="18"/>
<text text-anchor="middle" x="889.26" y="-288.76" font-family="Times,serif" font-size="14.00">Noghere</text>
</g>
<!-- Caslemon&#45;&#45;Noghere -->
<g id="edge24" class="edge">
<title>Caslemon&#45;&#45;Noghere</title>
<path fill="none" stroke="black" d="M828.24,-298.58C832.32,-298.17 836.43,-297.76 840.47,-297.35"/>
</g>
<!-- Jolevier&#45;&#45;Yashunen -->
<g id="edge25" class="edge">
<title>Jolevier&#45;&#45;Yashunen</title>
<path fill="none" stroke="black" d="M858.08,-361.14C871.3,-366.53 886.8,-372.85 900.95,-378.62"/>
</g>
<!-- Mesybier&#45;&#45;Orvolle -->
<g id="edge26" class="edge">
<title>Mesybier&#45;&#45;Orvolle</title>
<path fill="none" stroke="black" d="M829.66,-407.87C841.27,-414.97 855.02,-423.39 867.05,-430.74"/>
</g>
<!-- Pemene -->
<g id="Pemene" class="node">
<title>Pemene</title>
<ellipse fill="none" stroke="black" cx="790.63" cy="-436.02" rx="47.5" ry="18"/>
<text text-anchor="middle" x="790.63" y="-432.32" font-family="Times,serif" font-size="14.00">Pemene</text>
</g>
<!-- Mesybier&#45;&#45;Pemene -->
<g id="edge27" class="edge">
<title>Mesybier&#45;&#45;Pemene</title>
<path fill="none" stroke="black" d="M798.34,-410.17C797.58,-412.73 796.8,-415.36 796.03,-417.91"/>
</g>
<!-- Murethand -->
<g id="Murethand" class="node">
<title>Murethand</title>
<polygon fill="none" stroke="black" points="727.61,-366.05 631.61,-366.05 631.61,-330.05 727.61,-330.05 727.61,-366.05"/>
<text text-anchor="middle" x="679.61" y="-344.35" font-family="Times,serif" font-size="14.00">Murethand</text>
</g>
<!-- Mesybier&#45;&#45;Murethand -->
<g id="edge28" class="edge">
<title>Mesybier&#45;&#45;Murethand</title>
<path fill="none" stroke="black" d="M766.51,-378.83C754.37,-374.53 740.71,-369.69 727.88,-365.14"/>
</g>
<!-- Charmerout&#45;&#45;Jolevier -->
<g id="edge29" class="edge">
<title>Charmerout&#45;&#45;Jolevier</title>
<path fill="none" stroke="black" d="M667.11,-276.88C684.63,-289.45 709.91,-306.33 733.93,-317.81 750.91,-325.93 770.63,-332.72 787.44,-337.8"/>
</g>
<!-- Yvangier -->
<g id="Yvangier" class="node">
<title>Yvangier</title>
<ellipse fill="none" stroke="black" cx="525.53" cy="-304.02" rx="52" ry="18"/>
<text text-anchor="middle" x="525.53" y="-300.32" font-family="Times,serif" font-size="14.00">Yvangier</text>
</g>
<!-- Charmerout&#45;&#45;Yvangier -->
<g id="edge30" class="edge">
<title>Charmerout&#45;&#45;Yvangier</title>
<path fill="none" stroke="black" d="M604.92,-274.61C590.85,-279.82 575.11,-285.65 561.38,-290.74"/>
</g>
<!-- Noghere&#45;&#45;Yona -->
<g id="edge31" class="edge">
<title>Noghere&#45;&#45;Yona</title>
<path fill="none" stroke="black" d="M877.09,-274.58C867.14,-259.98 853.19,-239.49 843.41,-225.14"/>
</g>
<!-- Villore -->
<g id="Villore" class="node">
<title>Villore</title>
<ellipse fill="none" stroke="black" cx="711.22" cy="-480.04" rx="41" ry="18"/>
<text text-anchor="middle" x="711.22" y="-476.34" font-family="Times,serif" font-size="14.00">Villore</text>
</g>
<!-- Pemene&#45;&#45;Villore -->
<g id="edge32" class="edge">
<title>Pemene&#45;&#45;Villore</title>
<path fill="none" stroke="black" d="M763.74,-450.93C755.01,-455.76 745.36,-461.12 736.73,-465.9"/>
</g>
<!-- Amoderia -->
<g id="Amoderia" class="node">
<title>Amoderia</title>
<polygon fill="none" stroke="black" points="920.6,-517.67 835.6,-517.67 835.6,-481.67 920.6,-481.67 920.6,-517.67"/>
<text text-anchor="middle" x="878.1" y="-495.97" font-family="Times,serif" font-size="14.00">Amoderia</text>
</g>
<!-- Pemene&#45;&#45;Amoderia -->
<g id="edge33" class="edge">
<title>Pemene&#45;&#45;Amoderia</title>
<path fill="none" stroke="black" d="M812.7,-452.08C825.05,-461.07 840.48,-472.3 853.26,-481.59"/>
</g>
<!-- Villore&#45;&#45;Erme -->
<g id="edge34" class="edge">
<title>Villore&#45;&#45;Erme</title>
<path fill="none" stroke="black" d="M743.11,-491.44C748.76,-493.46 754.62,-495.55 760.17,-497.53"/>
</g>
<!-- Heydieles -->
<g id="Heydieles" class="node">
<title>Heydieles</title>
<ellipse fill="none" stroke="black" cx="423.11" cy="-348.06" rx="56.59" ry="18"/>
<text text-anchor="middle" x="423.11" y="-344.36" font-family="Times,serif" font-size="14.00">Heydieles</text>
</g>
<!-- Heydieles&#45;&#45;Yvangier -->
<g id="edge35" class="edge">
<title>Heydieles&#45;&#45;Yvangier</title>
<path fill="none" stroke="black" d="M456.93,-333.52C468.47,-328.56 481.34,-323.02 492.79,-318.1"/>
</g>
<!-- Indregulle -->
<g id="Indregulle" class="node">
<title>Indregulle</title>
<ellipse fill="none" stroke="black" cx="546.93" cy="-348.05" rx="58.5" ry="18"/>
<text text-anchor="middle" x="546.93" y="-344.35" font-family="Times,serif" font-size="14.00">Indregulle</text>
</g>
<!-- Heydieles&#45;&#45;Indregulle -->
<g id="edge36" class="edge">
<title>Heydieles&#45;&#45;Indregulle</title>
<path fill="none" stroke="black" d="M479.95,-348.06C482.75,-348.06 485.56,-348.06 488.36,-348.06"/>
</g>
<!-- Old Man Star -->
<g id="Old Man Star" class="node">
<title>Old Man Star</title>
<ellipse fill="none" stroke="black" cx="609.95" cy="-392.06" rx="73.5" ry="18"/>
<text text-anchor="middle" x="609.95" y="-388.36" font-family="Times,serif" font-size="14.00">Old Man Star</text>
</g>
<!-- Heydieles&#45;&#45;Old Man Star -->
<g id="edge37" class="edge">
<title>Heydieles&#45;&#45;Old Man Star</title>
<path fill="none" stroke="black" d="M468.82,-358.82C495.39,-365.08 529.01,-373 556.77,-379.54"/>
</g>
<!-- Indregulle&#45;&#45;Murethand -->
<g id="edge38" class="edge">
<title>Indregulle&#45;&#45;Murethand</title>
<path fill="none" stroke="black" d="M605.51,-348.05C614.12,-348.05 622.9,-348.05 631.28,-348.05"/>
</g>
<!-- Old Man Star&#45;&#45;Villore -->
<g id="edge39" class="edge">
<title>Old Man Star&#45;&#45;Villore</title>
<path fill="none" stroke="black" d="M629.95,-409.44C648.17,-425.27 674.86,-448.45 692.62,-463.88"/>
</g>
<!-- Fliet -->
<g id="Fliet" class="node">
<title>Fliet</title>
<ellipse fill="none" stroke="black" cx="315.18" cy="-307.9" rx="32.5" ry="18"/>
<text text-anchor="middle" x="315.18" y="-304.2" font-family="Times,serif" font-size="14.00">Fliet</text>
</g>
<!-- Fliet&#45;&#45;Heydieles -->
<g id="edge40" class="edge">
<title>Fliet&#45;&#45;Heydieles</title>
<path fill="none" stroke="black" d="M342.41,-318.03C355.65,-322.96 371.76,-328.96 386.1,-334.29"/>
</g>
<!-- Actee -->
<g id="Actee" class="node">
<title>Actee</title>
<ellipse fill="none" stroke="black" cx="312" cy="-259.79" rx="36.5" ry="18"/>
<text text-anchor="middle" x="312" y="-256.09" font-family="Times,serif" font-size="14.00">Actee</text>
</g>
<!-- Actee&#45;&#45;Heydieles -->
<g id="edge41" class="edge">
<title>Actee&#45;&#45;Heydieles</title>
<path fill="none" stroke="black" d="M331.35,-275.17C351,-290.78 381.35,-314.88 401.7,-331.06"/>
</g>
<!-- Actee&#45;&#45;Fliet -->
<g id="edge42" class="edge">
<title>Actee&#45;&#45;Fliet</title>
<path fill="none" stroke="black" d="M313.2,-277.98C313.45,-281.81 313.72,-285.85 313.97,-289.69"/>
</g>
<!-- Amane -->
<g id="Amane" class="node">
<title>Amane</title>
<ellipse fill="none" stroke="black" cx="497.5" cy="-197.28" rx="42.49" ry="18"/>
<text text-anchor="middle" x="497.5" y="-193.58" font-family="Times,serif" font-size="14.00">Amane</text>
</g>
<!-- Actee&#45;&#45;Amane -->
<g id="edge43" class="edge">
<title>Actee&#45;&#45;Amane</title>
<path fill="none" stroke="black" d="M335.84,-246.15C345.35,-241.19 356.55,-235.92 367.2,-232.32 379.91,-228.02 383.54,-228.3 396.85,-226.61 419.99,-223.69 426.81,-229.79 449.24,-223.38 457.84,-220.91 466.64,-216.74 474.32,-212.45"/>
</g>
<!-- Estaunitte -->
<g id="Estaunitte" class="node">
<title>Estaunitte</title>
<ellipse fill="none" stroke="black" cx="523.66" cy="-152.38" rx="60" ry="18"/>
<text text-anchor="middle" x="523.66" y="-148.68" font-family="Times,serif" font-size="14.00">Estaunitte</text>
</g>
<!-- Amane&#45;&#45;Estaunitte -->
<g id="edge44" class="edge">
<title>Amane&#45;&#45;Estaunitte</title>
<path fill="none" stroke="black" d="M507.69,-179.79C509.52,-176.64 511.44,-173.35 513.28,-170.19"/>
</g>
<!-- Abune -->
<g id="Abune" class="node">
<title>Abune</title>
<ellipse fill="none" stroke="black" cx="485.36" cy="-254.71" rx="40.5" ry="18"/>
<text text-anchor="middle" x="485.36" y="-251.01" font-family="Times,serif" font-size="14.00">Abune</text>
</g>
<!-- Abune&#45;&#45;Heydieles -->
<g id="edge45" class="edge">
<title>Abune&#45;&#45;Heydieles</title>
<path fill="none" stroke="black" d="M473.65,-272.27C462.59,-288.85 446.09,-313.6 434.98,-330.26"/>
</g>
<!-- Oinasiken -->
<g id="Oinasiken" class="node">
<title>Oinasiken</title>
<polygon fill="none" stroke="black" points="634.79,-220.47 547.79,-220.47 547.79,-184.47 634.79,-184.47 634.79,-220.47"/>
<text text-anchor="middle" x="591.29" y="-198.77" font-family="Times,serif" font-size="14.00">Oinasiken</text>
</g>
<!-- Abune&#45;&#45;Oinasiken -->
<g id="edge46" class="edge">
<title>Abune&#45;&#45;Oinasiken</title>
<path fill="none" stroke="black" d="M512.64,-241.26C525.39,-234.97 540.77,-227.39 554.52,-220.6"/>
</g>
<!-- Deven -->
<g id="Deven" class="node">
<title>Deven</title>
<ellipse fill="none" stroke="black" cx="396.75" cy="-246.21" rx="40.5" ry="18"/>
<text text-anchor="middle" x="396.75" y="-242.51" font-family="Times,serif" font-size="14.00">Deven</text>
</g>
<!-- Deven&#45;&#45;Nagamanen -->
<g id="edge47" class="edge">
<title>Deven&#45;&#45;Nagamanen</title>
<path fill="none" stroke="black" d="M396.04,-228.05C395.94,-225.49 395.84,-222.86 395.74,-220.3"/>
</g>
<!-- Deven&#45;&#45;Fliet -->
<g id="edge48" class="edge">
<title>Deven&#45;&#45;Fliet</title>
<path fill="none" stroke="black" d="M376.16,-261.78C363.42,-271.42 347.16,-283.72 334.63,-293.19"/>
</g>
<!-- Deninard -->
<g id="Deninard" class="node">
<title>Deninard</title>
<ellipse fill="none" stroke="black" cx="484.69" cy="-496.95" rx="54" ry="18"/>
<text text-anchor="middle" x="484.69" y="-493.25" font-family="Times,serif" font-size="14.00">Deninard</text>
</g>
<!-- Hulmate -->
<g id="Hulmate" class="node">
<title>Hulmate</title>
<ellipse fill="none" stroke="black" cx="290.33" cy="-510.07" rx="50.89" ry="18"/>
<text text-anchor="middle" x="290.33" y="-506.37" font-family="Times,serif" font-size="14.00">Hulmate</text>
</g>
<!-- Deninard&#45;&#45;Hulmate -->
<g id="edge49" class="edge">
<title>Deninard&#45;&#45;Hulmate</title>
<path fill="none" stroke="black" d="M431.58,-500.54C403.14,-502.46 368.32,-504.81 340.37,-506.69"/>
</g>
<!-- Onne -->
<g id="Onne" class="node">
<title>Onne</title>
<ellipse fill="none" stroke="black" cx="379.19" cy="-466.05" rx="35.19" ry="18"/>
<text text-anchor="middle" x="379.19" y="-462.35" font-family="Times,serif" font-size="14.00">Onne</text>
</g>
<!-- Deninard&#45;&#45;Onne -->
<g id="edge50" class="edge">
<title>Deninard&#45;&#45;Onne</title>
<path fill="none" stroke="black" d="M443.9,-485C432.54,-481.67 420.39,-478.11 409.73,-474.99"/>
</g>
<!-- Kemerk -->
<g id="Kemerk" class="node">
<title>Kemerk</title>
<polygon fill="none" stroke="black" points="633.91,-536.13 562.91,-536.13 562.91,-500.13 633.91,-500.13 633.91,-536.13"/>
<text text-anchor="middle" x="598.41" y="-514.43" font-family="Times,serif" font-size="14.00">Kemerk</text>
</g>
<!-- Deninard&#45;&#45;Kemerk -->
<g id="edge51" class="edge">
<title>Deninard&#45;&#45;Kemerk</title>
<path fill="none" stroke="black" d="M531.93,-505.75C542.18,-507.66 552.86,-509.65 562.58,-511.46"/>
</g>
<!-- Hulmate&#45;&#45;Onne -->
<g id="edge52" class="edge">
<title>Hulmate&#45;&#45;Onne</title>
<path fill="none" stroke="black" d="M319.92,-495.41C330.93,-489.96 343.31,-483.83 353.89,-478.58"/>
</g>
<!-- Vitrauze -->
<g id="Vitrauze" class="node">
<title>Vitrauze</title>
<ellipse fill="none" stroke="black" cx="314.26" cy="-585.22" rx="50.09" ry="18"/>
<text text-anchor="middle" x="314.26" y="-581.52" font-family="Times,serif" font-size="14.00">Vitrauze</text>
</g>
<!-- Onne&#45;&#45;Vitrauze -->
<g id="edge53" class="edge">
<title>Onne&#45;&#45;Vitrauze</title>
<path fill="none" stroke="black" d="M369.61,-483.63C357.41,-506.03 336.42,-544.55 324.09,-567.17"/>
</g>
<!-- Annages -->
<g id="Annages" class="node">
<title>Annages</title>
<ellipse fill="none" stroke="black" cx="413.73" cy="-541.18" rx="50.09" ry="18"/>
<text text-anchor="middle" x="413.73" y="-537.48" font-family="Times,serif" font-size="14.00">Annages</text>
</g>
<!-- Annages&#45;&#45;Deninard -->
<g id="edge54" class="edge">
<title>Annages&#45;&#45;Deninard</title>
<path fill="none" stroke="black" d="M438.95,-525.46C445.48,-521.39 452.52,-517 459.07,-512.92"/>
</g>
<!-- Annages&#45;&#45;Hulmate -->
<g id="edge55" class="edge">
<title>Annages&#45;&#45;Hulmate</title>
<path fill="none" stroke="black" d="M372.64,-530.82C359.6,-527.53 345.17,-523.9 332.09,-520.6"/>
</g>
<!-- Palmon -->
<g id="Palmon" class="node">
<title>Palmon</title>
<ellipse fill="none" stroke="black" cx="211.34" cy="-596.67" rx="45" ry="18"/>
<text text-anchor="middle" x="211.34" y="-592.97" font-family="Times,serif" font-size="14.00">Palmon</text>
</g>
<!-- Palmon&#45;&#45;Lermireve -->
<g id="edge56" class="edge">
<title>Palmon&#45;&#45;Lermireve</title>
<path fill="none" stroke="black" d="M187.41,-612.19C182.01,-615.68 176.24,-619.43 170.7,-623.02"/>
</g>
<!-- Palmon&#45;&#45;Vitrauze -->
<g id="edge57" class="edge">
<title>Palmon&#45;&#45;Vitrauze</title>
<path fill="none" stroke="black" d="M254.69,-591.85C258.54,-591.42 262.44,-590.98 266.32,-590.55"/>
</g>
<!-- Arant -->
<g id="Arant" class="node">
<title>Arant</title>
<ellipse fill="none" stroke="black" cx="678.32" cy="-529.1" rx="36.5" ry="18"/>
<text text-anchor="middle" x="678.32" y="-525.4" font-family="Times,serif" font-size="14.00">Arant</text>
</g>
<!-- Arant&#45;&#45;Villore -->
<g id="edge58" class="edge">
<title>Arant&#45;&#45;Villore</title>
<path fill="none" stroke="black" d="M689.82,-511.94C692.94,-507.3 696.31,-502.27 699.44,-497.6"/>
</g>
<!-- Arant&#45;&#45;Kemerk -->
<g id="edge59" class="edge">
<title>Arant&#45;&#45;Kemerk</title>
<path fill="none" stroke="black" d="M643.03,-524.25C640.02,-523.84 636.98,-523.42 633.96,-523.01"/>
</g>
<!-- Obalyu -->
<g id="Obalyu" class="node">
<title>Obalyu</title>
<ellipse fill="none" stroke="black" cx="717.3" cy="-574.13" rx="43.59" ry="18"/>
<text text-anchor="middle" x="717.3" y="-570.43" font-family="Times,serif" font-size="14.00">Obalyu</text>
</g>
<!-- Arant&#45;&#45;Obalyu -->
<g id="edge60" class="edge">
<title>Arant&#45;&#45;Obalyu</title>
<path fill="none" stroke="black" d="M692.83,-545.87C695.95,-549.47 699.25,-553.28 702.38,-556.9"/>
</g>
<!-- Parts -->
<g id="Parts" class="node">
<title>Parts</title>
<ellipse fill="none" stroke="black" cx="689.34" cy="-618.37" rx="35.19" ry="18"/>
<text text-anchor="middle" x="689.34" y="-614.67" font-family="Times,serif" font-size="14.00">Parts</text>
</g>
<!-- Obalyu&#45;&#45;Parts -->
<g id="edge61" class="edge">
<title>Obalyu&#45;&#45;Parts</title>
<path fill="none" stroke="black" d="M706.25,-591.61C704.29,-594.7 702.26,-597.92 700.31,-601.01"/>
</g>
<!-- Allamotte -->
<g id="Allamotte" class="node">
<title>Allamotte</title>
<ellipse fill="none" stroke="black" cx="602.59" cy="-473.96" rx="56" ry="18"/>
<text text-anchor="middle" x="602.59" y="-470.26" font-family="Times,serif" font-size="14.00">Allamotte</text>
</g>
<!-- Allamotte&#45;&#45;Villore -->
<g id="edge62" class="edge">
<title>Allamotte&#45;&#45;Villore</title>
<path fill="none" stroke="black" d="M657.86,-477.05C662.05,-477.29 666.24,-477.52 670.32,-477.75"/>
</g>
<!-- Vifrevaert -->
<g id="Vifrevaert" class="node">
<title>Vifrevaert</title>
<ellipse fill="none" stroke="black" cx="480.21" cy="-436.11" rx="58" ry="18"/>
<text text-anchor="middle" x="480.21" y="-432.41" font-family="Times,serif" font-size="14.00">Vifrevaert</text>
</g>
<!-- Allamotte&#45;&#45;Vifrevaert -->
<g id="edge63" class="edge">
<title>Allamotte&#45;&#45;Vifrevaert</title>
<path fill="none" stroke="black" d="M562.18,-461.46C549.09,-457.41 534.56,-452.92 521.42,-448.85"/>
</g>
<!-- Ladistier -->
<g id="Ladistier" class="node">
<title>Ladistier</title>
<ellipse fill="none" stroke="black" cx="468.78" cy="-392.08" rx="52" ry="18"/>
<text text-anchor="middle" x="468.78" y="-388.38" font-family="Times,serif" font-size="14.00">Ladistier</text>
</g>
<!-- Ladistier&#45;&#45;Old Man Star -->
<g id="edge64" class="edge">
<title>Ladistier&#45;&#45;Old Man Star</title>
<path fill="none" stroke="black" d="M520.95,-392.07C525.97,-392.07 531.13,-392.07 536.32,-392.07"/>
</g>
<!-- Ladistier&#45;&#45;Vifrevaert -->
<g id="edge65" class="edge">
<title>Ladistier&#45;&#45;Vifrevaert</title>
<path fill="none" stroke="black" d="M473.5,-410.24C474.16,-412.8 474.84,-415.43 475.51,-417.99"/>
</g>
<!-- Arnon -->
<g id="Arnon" class="node">
<title>Arnon</title>
<ellipse fill="none" stroke="black" cx="109.49" cy="-398.96" rx="38.5" ry="18"/>
<text text-anchor="middle" x="109.49" y="-395.26" font-family="Times,serif" font-size="14.00">Arnon</text>
</g>
<!-- Laurvier -->
<g id="Laurvier" class="node">
<title>Laurvier</title>
<ellipse fill="none" stroke="black" cx="127.27" cy="-323.44" rx="50.09" ry="18"/>
<text text-anchor="middle" x="127.27" y="-319.74" font-family="Times,serif" font-size="14.00">Laurvier</text>
</g>
<!-- Arnon&#45;&#45;Laurvier -->
<g id="edge66" class="edge">
<title>Arnon&#45;&#45;Laurvier</title>
<path fill="none" stroke="black" d="M113.7,-381.06C116.52,-369.11 120.21,-353.45 123.03,-341.47"/>
</g>
<!-- Emsar -->
<g id="Emsar" class="node">
<title>Emsar</title>
<polygon fill="none" stroke="black" points="63,-439.64 0,-439.64 0,-403.64 63,-403.64 63,-439.64"/>
<text text-anchor="middle" x="31.5" y="-417.94" font-family="Times,serif" font-size="14.00">Emsar</text>
</g>
<!-- Arnon&#45;&#45;Emsar -->
<g id="edge67" class="edge">
<title>Arnon&#45;&#45;Emsar</title>
<path fill="none" stroke="black" d="M76.87,-408.45C72.36,-409.76 67.73,-411.1 63.24,-412.41"/>
</g>
<!-- Adirain -->
<g id="Adirain" class="node">
<title>Adirain</title>
<ellipse fill="none" stroke="black" cx="220.29" cy="-367.47" rx="44.39" ry="18"/>
<text text-anchor="middle" x="220.29" y="-363.77" font-family="Times,serif" font-size="14.00">Adirain</text>
</g>
<!-- Adirain&#45;&#45;Arnon -->
<g id="edge68" class="edge">
<title>Adirain&#45;&#45;Arnon</title>
<path fill="none" stroke="black" d="M184.01,-377.78C170.63,-381.58 155.55,-385.87 142.48,-389.58"/>
</g>
<!-- Adirain&#45;&#45;Laurvier -->
<g id="edge69" class="edge">
<title>Adirain&#45;&#45;Laurvier</title>
<path fill="none" stroke="black" d="M191.37,-353.78C180.7,-348.73 168.59,-343 157.79,-337.89"/>
</g>
<!-- Aeschee -->
<g id="Aeschee" class="node">
<title>Aeschee</title>
<ellipse fill="none" stroke="black" cx="348.46" cy="-421.47" rx="48.99" ry="18"/>
<text text-anchor="middle" x="348.46" y="-417.77" font-family="Times,serif" font-size="14.00">Aeschee</text>
</g>
<!-- Adirain&#45;&#45;Aeschee -->
<g id="edge70" class="edge">
<title>Adirain&#45;&#45;Aeschee</title>
<path fill="none" stroke="black" d="M251.32,-380.54C270.88,-388.78 296.09,-399.41 315.93,-407.77"/>
</g>
<!-- Aeschee&#45;&#45;Onne -->
<g id="edge71" class="edge">
<title>Aeschee&#45;&#45;Onne</title>
<path fill="none" stroke="black" d="M360.6,-439.09C362.82,-442.3 365.13,-445.65 367.33,-448.85"/>
</g>
<!-- Aeschee&#45;&#45;Ladistier -->
<g id="edge72" class="edge">
<title>Aeschee&#45;&#45;Ladistier</title>
<path fill="none" stroke="black" d="M389.19,-411.52C401.06,-408.62 414.05,-405.45 426.03,-402.52"/>
</g>
<!-- Lisbaetanne -->
<g id="Lisbaetanne" class="node">
<title>Lisbaetanne</title>
<ellipse fill="none" stroke="black" cx="223.57" cy="-411.53" rx="67.69" ry="18"/>
<text text-anchor="middle" x="223.57" y="-407.83" font-family="Times,serif" font-size="14.00">Lisbaetanne</text>
</g>
<!-- Aeschee&#45;&#45;Lisbaetanne -->
<g id="edge73" class="edge">
<title>Aeschee&#45;&#45;Lisbaetanne</title>
<path fill="none" stroke="black" d="M300.53,-417.66C296.54,-417.34 292.47,-417.02 288.38,-416.69"/>
</g>
<!-- Jovainnon -->
<g id="Jovainnon" class="node">
<title>Jovainnon</title>
<polygon fill="none" stroke="black" points="358.5,-372.38 272.5,-372.38 272.5,-336.38 358.5,-336.38 358.5,-372.38"/>
<text text-anchor="middle" x="315.5" y="-350.68" font-family="Times,serif" font-size="14.00">Jovainnon</text>
</g>
<!-- Aeschee&#45;&#45;Jovainnon -->
<g id="edge74" class="edge">
<title>Aeschee&#45;&#45;Jovainnon</title>
<path fill="none" stroke="black" d="M339.62,-403.49C334.9,-393.87 329.09,-382.04 324.36,-372.41"/>
</g>
<!-- Attyn -->
<g id="Attyn" class="node">
<title>Attyn</title>
<ellipse fill="none" stroke="black" cx="164.87" cy="-279.41" rx="36.5" ry="18"/>
<text text-anchor="middle" x="164.87" y="-275.71" font-family="Times,serif" font-size="14.00">Attyn</text>
</g>
<!-- Attyn&#45;&#45;Laurvier -->
<g id="edge75" class="edge">
<title>Attyn&#45;&#45;Laurvier</title>
<path fill="none" stroke="black" d="M150.66,-296.06C147.83,-299.37 144.85,-302.85 142.01,-306.19"/>
</g>
<!-- Arraron -->
<g id="Arraron" class="node">
<title>Arraron</title>
<polygon fill="none" stroke="black" points="120.4,-270.27 48.4,-270.27 48.4,-234.27 120.4,-234.27 120.4,-270.27"/>
<text text-anchor="middle" x="84.4" y="-248.57" font-family="Times,serif" font-size="14.00">Arraron</text>
</g>
<!-- Attyn&#45;&#45;Arraron -->
<g id="edge76" class="edge">
<title>Attyn&#45;&#45;Arraron</title>
<path fill="none" stroke="black" d="M134.45,-269.15C129.91,-267.62 125.19,-266.03 120.55,-264.46"/>
</g>
<!-- Aere -->
<g id="Aere" class="node">
<title>Aere</title>
<ellipse fill="none" stroke="black" cx="149.74" cy="-455.53" rx="32.5" ry="18"/>
<text text-anchor="middle" x="149.74" y="-451.83" font-family="Times,serif" font-size="14.00">Aere</text>
</g>
<!-- Aere&#45;&#45;Hulmate -->
<g id="edge77" class="edge">
<title>Aere&#45;&#45;Hulmate</title>
<path fill="none" stroke="black" d="M176.52,-465.92C199.06,-474.67 231.46,-487.23 255.93,-496.72"/>
</g>
<!-- Aere&#45;&#45;Arnon -->
<g id="edge78" class="edge">
<title>Aere&#45;&#45;Arnon</title>
<path fill="none" stroke="black" d="M137.66,-438.56C132.66,-431.53 126.87,-423.38 121.84,-416.31"/>
</g>
<!-- Aere&#45;&#45;Lisbaetanne -->
<g id="edge79" class="edge">
<title>Aere&#45;&#45;Lisbaetanne</title>
<path fill="none" stroke="black" d="M171.89,-442.33C179.45,-437.82 188,-432.73 195.94,-428"/>
</g>
<!-- Allebin -->
<g id="Allebin" class="node">
<title>Allebin</title>
<ellipse fill="none" stroke="black" cx="630.49" cy="-664" rx="43" ry="18"/>
<text text-anchor="middle" x="630.49" y="-660.3" font-family="Times,serif" font-size="14.00">Allebin</text>
</g>
<!-- Allebin&#45;&#45;Parts -->
<g id="edge80" class="edge">
<title>Allebin&#45;&#45;Parts</title>
<path fill="none" stroke="black" d="M651.07,-648.04C657.17,-643.31 663.83,-638.15 669.85,-633.47"/>
</g>
<!-- Atlulle -->
<g id="Atlulle" class="node">
<title>Atlulle</title>
<ellipse fill="none" stroke="black" cx="456.35" cy="-673.31" rx="41" ry="18"/>
<text text-anchor="middle" x="456.35" y="-669.61" font-family="Times,serif" font-size="14.00">Atlulle</text>
</g>
<!-- Allebin&#45;&#45;Atlulle -->
<g id="edge81" class="edge">
<title>Allebin&#45;&#45;Atlulle</title>
<path fill="none" stroke="black" d="M587.89,-666.28C560.2,-667.76 524.31,-669.68 497.02,-671.13"/>
</g>
<!-- Haine -->
<g id="Haine" class="node">
<title>Haine</title>
<ellipse fill="none" stroke="black" cx="548.52" cy="-722.67" rx="38.5" ry="18"/>
<text text-anchor="middle" x="548.52" y="-718.97" font-family="Times,serif" font-size="14.00">Haine</text>
</g>
<!-- Allebin&#45;&#45;Haine -->
<g id="edge82" class="edge">
<title>Allebin&#45;&#45;Haine</title>
<path fill="none" stroke="black" d="M608.53,-679.72C596.48,-688.34 581.62,-698.98 569.7,-707.51"/>
</g>
<!-- Perckhevin -->
<g id="Perckhevin" class="node">
<title>Perckhevin</title>
<ellipse fill="none" stroke="black" cx="663.78" cy="-708.31" rx="61.99" ry="18"/>
<text text-anchor="middle" x="663.78" y="-704.61" font-family="Times,serif" font-size="14.00">Perckhevin</text>
</g>
<!-- Allebin&#45;&#45;Perckhevin -->
<g id="edge83" class="edge">
<title>Allebin&#45;&#45;Perckhevin</title>
<path fill="none" stroke="black" d="M643.46,-681.26C645.72,-684.27 648.08,-687.41 650.36,-690.44"/>
</g>
<!-- Droselory -->
<g id="Droselory" class="node">
<title>Droselory</title>
<ellipse fill="none" stroke="black" cx="380.31" cy="-629.26" rx="56" ry="18"/>
<text text-anchor="middle" x="380.31" y="-625.56" font-family="Times,serif" font-size="14.00">Droselory</text>
</g>
<!-- Atlulle&#45;&#45;Droselory -->
<g id="edge84" class="edge">
<title>Atlulle&#45;&#45;Droselory</title>
<path fill="none" stroke="black" d="M431.45,-658.88C423.83,-654.47 415.41,-649.59 407.63,-645.08"/>
</g>
<!-- Isenan -->
<g id="Isenan" class="node">
<title>Isenan</title>
<ellipse fill="none" stroke="black" cx="454.46" cy="-717.32" rx="41.69" ry="18"/>
<text text-anchor="middle" x="454.46" y="-713.62" font-family="Times,serif" font-size="14.00">Isenan</text>
</g>
<!-- Atlulle&#45;&#45;Isenan -->
<g id="edge85" class="edge">
<title>Atlulle&#45;&#45;Isenan</title>
<path fill="none" stroke="black" d="M455.57,-691.46C455.46,-694.02 455.35,-696.65 455.24,-699.21"/>
</g>
<!-- Haine&#45;&#45;Perckhevin -->
<g id="edge86" class="edge">
<title>Haine&#45;&#45;Perckhevin</title>
<path fill="none" stroke="black" d="M585.62,-718.05C592.34,-717.21 599.48,-716.32 606.61,-715.43"/>
</g>
<!-- Droselory&#45;&#45;Vitrauze -->
<g id="edge87" class="edge">
<title>Droselory&#45;&#45;Vitrauze</title>
<path fill="none" stroke="black" d="M355.72,-612.86C349.99,-609.04 343.91,-604.99 338.22,-601.19"/>
</g>
<!-- Aporulie -->
<g id="Aporulie" class="node">
<title>Aporulie</title>
<ellipse fill="none" stroke="black" cx="784.79" cy="-164.13" rx="50.09" ry="18"/>
<text text-anchor="middle" x="784.79" y="-160.43" font-family="Times,serif" font-size="14.00">Aporulie</text>
</g>
<!-- Aporulie&#45;&#45;Wysalan -->
<g id="edge88" class="edge">
<title>Aporulie&#45;&#45;Wysalan</title>
<path fill="none" stroke="black" d="M824.7,-175.18C843.69,-180.44 866.35,-186.71 885.36,-191.97"/>
</g>
<!-- Aporulie&#45;&#45;Yona -->
<g id="edge89" class="edge">
<title>Aporulie&#45;&#45;Yona</title>
<path fill="none" stroke="black" d="M802.85,-181.02C806.89,-184.81 811.16,-188.8 815.14,-192.53"/>
</g>
<!-- Seyllin -->
<g id="Seyllin" class="node">
<title>Seyllin</title>
<ellipse fill="none" stroke="black" cx="764.38" cy="-120.1" rx="42.49" ry="18"/>
<text text-anchor="middle" x="764.38" y="-116.4" font-family="Times,serif" font-size="14.00">Seyllin</text>
</g>
<!-- Aporulie&#45;&#45;Seyllin -->
<g id="edge90" class="edge">
<title>Aporulie&#45;&#45;Seyllin</title>
<path fill="none" stroke="black" d="M776.49,-146.22C775.21,-143.46 773.88,-140.61 772.61,-137.85"/>
</g>
<!-- Seyllin&#45;&#45;Metserel -->
<g id="edge91" class="edge">
<title>Seyllin&#45;&#45;Metserel</title>
<path fill="none" stroke="black" d="M741.92,-104.7C737,-101.33 731.75,-97.73 726.68,-94.26"/>
</g>
<!-- Adrel -->
<g id="Adrel" class="node">
<title>Adrel</title>
<ellipse fill="none" stroke="black" cx="755.41" cy="-232.99" rx="36" ry="18"/>
<text text-anchor="middle" x="755.41" y="-229.29" font-family="Times,serif" font-size="14.00">Adrel</text>
</g>
<!-- Adrel&#45;&#45;Yona -->
<g id="edge94" class="edge">
<title>Adrel&#45;&#45;Yona</title>
<path fill="none" stroke="black" d="M785.62,-223.17C791.46,-221.27 797.56,-219.29 803.35,-217.41"/>
</g>
<!-- Adrel&#45;&#45;Caslemon -->
<g id="edge92" class="edge">
<title>Adrel&#45;&#45;Caslemon</title>
<path fill="none" stroke="black" d="M760.26,-250.9C763.14,-261.58 766.8,-275.09 769.7,-285.81"/>
</g>
<!-- Adrel&#45;&#45;Noghere -->
<g id="edge93" class="edge">
<title>Adrel&#45;&#45;Noghere</title>
<path fill="none" stroke="black" d="M782.5,-245.02C804.19,-254.66 834.67,-268.2 857.51,-278.35"/>
</g>
<!-- Ane -->
<g id="Ane" class="node">
<title>Ane</title>
<ellipse fill="none" stroke="black" cx="799.82" cy="-64.7" rx="28.7" ry="18"/>
<text text-anchor="middle" x="799.82" y="-61" font-family="Times,serif" font-size="14.00">Ane</text>
</g>
<!-- Ane&#45;&#45;Seyllin -->
<g id="edge95" class="edge">
<title>Ane&#45;&#45;Seyllin</title>
<path fill="none" stroke="black" d="M788.99,-81.63C784.76,-88.25 779.9,-95.84 775.63,-102.52"/>
</g>
<!-- Clorteler -->
<g id="Clorteler" class="node">
<title>Clorteler</title>
<ellipse fill="none" stroke="black" cx="748.3" cy="-18" rx="52" ry="18"/>
<text text-anchor="middle" x="748.3" y="-14.3" font-family="Times,serif" font-size="14.00">Clorteler</text>
</g>
<!-- Ane&#45;&#45;Clorteler -->
<g id="edge96" class="edge">
<title>Ane&#45;&#45;Clorteler</title>
<path fill="none" stroke="black" d="M783.24,-49.67C778.06,-44.98 772.32,-39.77 767,-34.95"/>
</g>
<!-- Atlangeins -->
<g id="Atlangeins" class="node">
<title>Atlangeins</title>
<ellipse fill="none" stroke="black" cx="911.64" cy="-658" rx="60" ry="18"/>
<text text-anchor="middle" x="911.64" y="-654.3" font-family="Times,serif" font-size="14.00">Atlangeins</text>
</g>
<!-- Derririntel -->
<g id="Derririntel" class="node">
<title>Derririntel</title>
<ellipse fill="none" stroke="black" cx="856.81" cy="-595.74" rx="60.5" ry="18"/>
<text text-anchor="middle" x="856.81" y="-592.04" font-family="Times,serif" font-size="14.00">Derririntel</text>
</g>
<!-- Atlangeins&#45;&#45;Derririntel -->
<g id="edge97" class="edge">
<title>Atlangeins&#45;&#45;Derririntel</title>
<path fill="none" stroke="black" d="M896.07,-640.32C888.6,-631.84 879.67,-621.7 872.22,-613.24"/>
</g>
<!-- Ourapheh -->
<g id="Ourapheh" class="node">
<title>Ourapheh</title>
<polygon fill="none" stroke="black" points="966.96,-754.36 879.96,-754.36 879.96,-718.36 966.96,-718.36 966.96,-754.36"/>
<text text-anchor="middle" x="923.46" y="-732.66" font-family="Times,serif" font-size="14.00">Ourapheh</text>
</g>
<!-- Atlangeins&#45;&#45;Ourapheh -->
<g id="edge98" class="edge">
<title>Atlangeins&#45;&#45;Ourapheh</title>
<path fill="none" stroke="black" d="M914.38,-676.17C916.29,-688.83 918.83,-705.64 920.73,-718.28"/>
</g>
<!-- Hecarrin -->
<g id="Hecarrin" class="node">
<title>Hecarrin</title>
<ellipse fill="none" stroke="black" cx="1031.7" cy="-693.46" rx="52" ry="18"/>
<text text-anchor="middle" x="1031.7" y="-689.76" font-family="Times,serif" font-size="14.00">Hecarrin</text>
</g>
<!-- Atlangeins&#45;&#45;Hecarrin -->
<g id="edge99" class="edge">
<title>Atlangeins&#45;&#45;Hecarrin</title>
<path fill="none" stroke="black" d="M954.64,-670.7C966.76,-674.28 979.87,-678.15 991.8,-681.68"/>
</g>
<!-- Tierijev -->
<g id="Tierijev" class="node">
<title>Tierijev</title>
<polygon fill="none" stroke="black" points="996.28,-631.91 925.28,-631.91 925.28,-595.91 996.28,-595.91 996.28,-631.91"/>
<text text-anchor="middle" x="960.78" y="-610.21" font-family="Times,serif" font-size="14.00">Tierijev</text>
</g>
<!-- Derririntel&#45;&#45;Tierijev -->
<g id="edge100" class="edge">
<title>Derririntel&#45;&#45;Tierijev</title>
<path fill="none" stroke="black" d="M909.1,-604.88C914.56,-605.83 920.01,-606.79 925.22,-607.7"/>
</g>
<!-- Cat -->
<g id="Cat" class="node">
<title>Cat</title>
<ellipse fill="none" stroke="black" cx="820.93" cy="-551.71" rx="27" ry="18"/>
<text text-anchor="middle" x="820.93" y="-548.01" font-family="Times,serif" font-size="14.00">Cat</text>
</g>
<!-- Cat&#45;&#45;Villore -->
<g id="edge101" class="edge">
<title>Cat&#45;&#45;Villore</title>
<path fill="none" stroke="black" d="M795.51,-545.56C783.33,-541.89 768.91,-536.45 757.32,-528.87 744.44,-520.44 732.59,-507.72 724.12,-497.38"/>
</g>
<!-- Cat&#45;&#45;Derririntel -->
<g id="edge102" class="edge">
<title>Cat&#45;&#45;Derririntel</title>
<path fill="none" stroke="black" d="M833.89,-567.61C836.7,-571.05 839.68,-574.72 842.54,-578.23"/>
</g>
<!-- Ommare -->
<g id="Ommare" class="node">
<title>Ommare</title>
<ellipse fill="none" stroke="black" cx="909.13" cy="-546.13" rx="50.89" ry="18"/>
<text text-anchor="middle" x="909.13" y="-542.43" font-family="Times,serif" font-size="14.00">Ommare</text>
</g>
<!-- Cat&#45;&#45;Ommare -->
<g id="edge103" class="edge">
<title>Cat&#45;&#45;Ommare</title>
<path fill="none" stroke="black" d="M847.88,-550C851.42,-549.78 855.14,-549.54 858.93,-549.31"/>
</g>
<!-- Andole -->
<g id="Andole" class="node">
<title>Andole</title>
<ellipse fill="none" stroke="black" cx="1010.8" cy="-568.09" rx="42.49" ry="18"/>
<text text-anchor="middle" x="1010.8" y="-564.39" font-family="Times,serif" font-size="14.00">Andole</text>
</g>
<!-- Andole&#45;&#45;Ommare -->
<g id="edge104" class="edge">
<title>Andole&#45;&#45;Ommare</title>
<path fill="none" stroke="black" d="M972.95,-559.91C966.29,-558.47 959.3,-556.97 952.5,-555.5"/>
</g>
<!-- Henebene -->
<g id="Henebene" class="node">
<title>Henebene</title>
<ellipse fill="none" stroke="black" cx="1007.8" cy="-157.82" rx="58" ry="18"/>
<text text-anchor="middle" x="1007.8" y="-154.12" font-family="Times,serif" font-size="14.00">Henebene</text>
</g>
<!-- Henebene&#45;&#45;Synchelle -->
<g id="edge105" class="edge">
<title>Henebene&#45;&#45;Synchelle</title>
<path fill="none" stroke="black" d="M1007,-175.82C1006.4,-192.25 1005.4,-216.41 1004.7,-232.92"/>
</g>
<!-- Mesokel -->
<g id="Mesokel" class="node">
<title>Mesokel</title>
<ellipse fill="none" stroke="black" cx="892.38" cy="-141.73" rx="49.5" ry="18"/>
<text text-anchor="middle" x="892.38" y="-138.03" font-family="Times,serif" font-size="14.00">Mesokel</text>
</g>
<!-- Mesokel&#45;&#45;Wysalan -->
<g id="edge106" class="edge">
<title>Mesokel&#45;&#45;Wysalan</title>
<path fill="none" stroke="black" d="M901.92,-159.46C906.26,-167.53 911.38,-177.05 915.73,-185.13"/>
</g>
</g>
</svg>
