<?xml version="1.0" encoding="UTF-8" standalone="no"?>
<!DOCTYPE svg PUBLIC "-//W3C//DTD SVG 1.1//EN"
 "http://www.w3.org/Graphics/SVG/1.1/DTD/svg11.dtd">
<!-- Generated by graphviz version 2.43.0 (0)
 -->
<!-- Pages: 1 -->
<svg width="1288pt" height="832pt"
 viewBox="0.00 0.00 1288.10 832.16" xmlns="http://www.w3.org/2000/svg" xmlns:xlink="http://www.w3.org/1999/xlink">
<g id="graph0" class="graph" transform="scale(1 1) rotate(0) translate(4 828.16)">
<polygon fill="white" stroke="transparent" points="-4,4 -4,-828.16 1284.1,-828.16 1284.1,4 -4,4"/>
<!-- Adreland -->
<g id="Adreland" class="node">
<title>Adreland</title>
<polygon fill="none" stroke="black" points="1022.59,-99.56 941.59,-99.56 941.59,-63.56 1022.59,-63.56 1022.59,-99.56"/>
<text text-anchor="middle" x="982.09" y="-77.86" font-family="Times,serif" font-size="14.00">Adreland</text>
</g>
<!-- Ardene -->
<g id="Ardene" class="node">
<title>Ardene</title>
<polygon fill="none" stroke="black" points="795.71,-36 727.71,-36 727.71,0 795.71,0 795.71,-36"/>
<text text-anchor="middle" x="761.71" y="-14.3" font-family="Times,serif" font-size="14.00">Ardene</text>
</g>
<!-- Schoorasana -->
<g id="Schoorasana" class="node">
<title>Schoorasana</title>
<polygon fill="none" stroke="black" points="1065.2,-824.16 958.2,-824.16 958.2,-788.16 1065.2,-788.16 1065.2,-824.16"/>
<text text-anchor="middle" x="1011.7" y="-802.46" font-family="Times,serif" font-size="14.00">Schoorasana</text>
</g>
<!-- Vylade -->
<g id="Vylade" class="node">
<title>Vylade</title>
<polygon fill="none" stroke="black" points="567.43,-124.33 502.43,-124.33 502.43,-88.33 567.43,-88.33 567.43,-124.33"/>
<text text-anchor="middle" x="534.93" y="-102.63" font-family="Times,serif" font-size="14.00">Vylade</text>
</g>
<!-- Dodixie -->
<g id="Dodixie" class="node">
<title>Dodixie</title>
<polygon fill="none" stroke="black" points="913.62,-113.38 842.62,-113.38 842.62,-77.38 913.62,-77.38 913.62,-113.38"/>
<text text-anchor="middle" x="878.12" y="-91.68" font-family="Times,serif" font-size="14.00">Dodixie</text>
</g>
<!-- Pulin -->
<g id="Pulin" class="node">
<title>Pulin</title>
<polygon fill="none" stroke="black" points="614.27,-257.48 560.27,-257.48 560.27,-221.48 614.27,-221.48 614.27,-257.48"/>
<text text-anchor="middle" x="587.27" y="-235.78" font-family="Times,serif" font-size="14.00">Pulin</text>
</g>
<!-- Jel -->
<g id="Jel" class="node">
<title>Jel</title>
<polygon fill="none" stroke="black" points="618.38,-80.3 564.38,-80.3 564.38,-44.3 618.38,-44.3 618.38,-80.3"/>
<text text-anchor="middle" x="591.38" y="-58.6" font-family="Times,serif" font-size="14.00">Jel</text>
</g>
<!-- Brapelille -->
<g id="Brapelille" class="node">
<title>Brapelille</title>
<polygon fill="none" stroke="black" points="714.06,-36.81 628.06,-36.81 628.06,-0.81 714.06,-0.81 714.06,-36.81"/>
<text text-anchor="middle" x="671.06" y="-15.11" font-family="Times,serif" font-size="14.00">Brapelille</text>
</g>
<!-- Doussivitte -->
<g id="Doussivitte" class="node">
<title>Doussivitte</title>
<polygon fill="none" stroke="black" points="1095.6,-143.57 997.6,-143.57 997.6,-107.57 1095.6,-107.57 1095.6,-143.57"/>
<text text-anchor="middle" x="1046.6" y="-121.87" font-family="Times,serif" font-size="14.00">Doussivitte</text>
</g>
<!-- Claysson -->
<g id="Claysson" class="node">
<title>Claysson</title>
<polygon fill="none" stroke="black" points="1082.2,-342.39 1002.2,-342.39 1002.2,-306.39 1082.2,-306.39 1082.2,-342.39"/>
<text text-anchor="middle" x="1042.2" y="-320.69" font-family="Times,serif" font-size="14.00">Claysson</text>
</g>
<!-- Bourynes -->
<g id="Bourynes" class="node">
<title>Bourynes</title>
<polygon fill="none" stroke="black" points="1085.8,-275.61 1001.8,-275.61 1001.8,-239.61 1085.8,-239.61 1085.8,-275.61"/>
<text text-anchor="middle" x="1043.8" y="-253.91" font-family="Times,serif" font-size="14.00">Bourynes</text>
</g>
<!-- Lermireve -->
<g id="Lermireve" class="node">
<title>Lermireve</title>
<polygon fill="none" stroke="black" points="1214,-724.46 1124,-724.46 1124,-688.46 1214,-688.46 1214,-724.46"/>
<text text-anchor="middle" x="1169" y="-702.76" font-family="Times,serif" font-size="14.00">Lermireve</text>
</g>
<!-- Arnatele -->
<g id="Arnatele" class="node">
<title>Arnatele</title>
<ellipse fill="none" stroke="black" cx="592.12" cy="-666.15" rx="50.09" ry="18"/>
<text text-anchor="middle" x="592.12" y="-662.45" font-family="Times,serif" font-size="14.00">Arnatele</text>
</g>
<!-- Halle -->
<g id="Halle" class="node">
<title>Halle</title>
<ellipse fill="none" stroke="black" cx="685.32" cy="-666.01" rx="35.19" ry="18"/>
<text text-anchor="middle" x="685.32" y="-662.31" font-family="Times,serif" font-size="14.00">Halle</text>
</g>
<!-- Arnatele&#45;&#45;Halle -->
<g id="edge1" class="edge">
<title>Arnatele&#45;&#45;Halle</title>
<path fill="none" stroke="black" d="M642.26,-666.07C644.94,-666.07 647.59,-666.07 650.2,-666.06"/>
</g>
<!-- Mormoen -->
<g id="Mormoen" class="node">
<title>Mormoen</title>
<ellipse fill="none" stroke="black" cx="633.37" cy="-754.19" rx="55.49" ry="18"/>
<text text-anchor="middle" x="633.37" y="-750.49" font-family="Times,serif" font-size="14.00">Mormoen</text>
</g>
<!-- Arnatele&#45;&#45;Mormoen -->
<g id="edge2" class="edge">
<title>Arnatele&#45;&#45;Mormoen</title>
<path fill="none" stroke="black" d="M600.47,-683.97C607.58,-699.14 617.75,-720.85 624.89,-736.1"/>
</g>
<!-- Jurlesel -->
<g id="Jurlesel" class="node">
<title>Jurlesel</title>
<ellipse fill="none" stroke="black" cx="483.45" cy="-626.19" rx="46.29" ry="18"/>
<text text-anchor="middle" x="483.45" y="-622.49" font-family="Times,serif" font-size="14.00">Jurlesel</text>
</g>
<!-- Arnatele&#45;&#45;Jurlesel -->
<g id="edge3" class="edge">
<title>Arnatele&#45;&#45;Jurlesel</title>
<path fill="none" stroke="black" d="M556.84,-653.18C544.07,-648.48 529.7,-643.2 517.08,-638.56"/>
</g>
<!-- Bereye -->
<g id="Bereye" class="node">
<title>Bereye</title>
<ellipse fill="none" stroke="black" cx="601.58" cy="-545.7" rx="43.59" ry="18"/>
<text text-anchor="middle" x="601.58" y="-542" font-family="Times,serif" font-size="14.00">Bereye</text>
</g>
<!-- Arnatele&#45;&#45;Bereye -->
<g id="edge4" class="edge">
<title>Arnatele&#45;&#45;Bereye</title>
<path fill="none" stroke="black" d="M615.43,-649.92C632.37,-635.98 651.98,-614.29 649.74,-589.81 648.58,-577.17 639.22,-567.14 629.05,-559.87"/>
</g>
<!-- Junsoraert -->
<g id="Junsoraert" class="node">
<title>Junsoraert</title>
<ellipse fill="none" stroke="black" cx="529.38" cy="-710.16" rx="60" ry="18"/>
<text text-anchor="middle" x="529.38" y="-706.46" font-family="Times,serif" font-size="14.00">Junsoraert</text>
</g>
<!-- Arnatele&#45;&#45;Junsoraert -->
<g id="edge5" class="edge">
<title>Arnatele&#45;&#45;Junsoraert</title>
<path fill="none" stroke="black" d="M569.11,-682.29C563.94,-685.92 558.43,-689.78 553.22,-693.43"/>
</g>
<!-- Halle&#45;&#45;Mormoen -->
<g id="edge6" class="edge">
<title>Halle&#45;&#45;Mormoen</title>
<path fill="none" stroke="black" d="M675.05,-683.43C666.01,-698.79 652.88,-721.06 643.79,-736.5"/>
</g>
<!-- Bereye&#45;&#45;Halle -->
<g id="edge7" class="edge">
<title>Bereye&#45;&#45;Halle</title>
<path fill="none" stroke="black" d="M622.54,-561.74C631.71,-569.5 642.09,-579.39 649.74,-589.81 663.04,-607.94 673.21,-631.83 679.21,-647.99"/>
</g>
<!-- Bereye&#45;&#45;Jurlesel -->
<g id="edge8" class="edge">
<title>Bereye&#45;&#45;Jurlesel</title>
<path fill="none" stroke="black" d="M576.59,-560.65C568.92,-565.38 560.49,-570.7 552.9,-575.79 536.45,-586.82 518.34,-600 504.75,-610.11"/>
</g>
<!-- Leremblompes -->
<g id="Leremblompes" class="node">
<title>Leremblompes</title>
<ellipse fill="none" stroke="black" cx="649.88" cy="-482.78" rx="79.5" ry="18"/>
<text text-anchor="middle" x="649.88" y="-479.08" font-family="Times,serif" font-size="14.00">Leremblompes</text>
</g>
<!-- Bereye&#45;&#45;Leremblompes -->
<g id="edge9" class="edge">
<title>Bereye&#45;&#45;Leremblompes</title>
<path fill="none" stroke="black" d="M614.78,-528.51C621.37,-519.92 629.34,-509.53 636.02,-500.83"/>
</g>
<!-- Mies -->
<g id="Mies" class="node">
<title>Mies</title>
<polygon fill="none" stroke="black" points="550.18,-519.68 496.18,-519.68 496.18,-483.68 550.18,-483.68 550.18,-519.68"/>
<text text-anchor="middle" x="523.18" y="-497.98" font-family="Times,serif" font-size="14.00">Mies</text>
</g>
<!-- Bereye&#45;&#45;Mies -->
<g id="edge10" class="edge">
<title>Bereye&#45;&#45;Mies</title>
<path fill="none" stroke="black" d="M575.48,-531.04C567.37,-526.49 558.42,-521.47 550.25,-516.88"/>
</g>
<!-- Junsoraert&#45;&#45;Jurlesel -->
<g id="edge11" class="edge">
<title>Junsoraert&#45;&#45;Jurlesel</title>
<path fill="none" stroke="black" d="M519.64,-692.35C511.84,-678.1 500.97,-658.22 493.18,-643.97"/>
</g>
<!-- Uphene -->
<g id="Uphene" class="node">
<title>Uphene</title>
<ellipse fill="none" stroke="black" cx="699.93" cy="-526.79" rx="47" ry="18"/>
<text text-anchor="middle" x="699.93" y="-523.09" font-family="Times,serif" font-size="14.00">Uphene</text>
</g>
<!-- Leremblompes&#45;&#45;Uphene -->
<g id="edge12" class="edge">
<title>Leremblompes&#45;&#45;Uphene</title>
<path fill="none" stroke="black" d="M669.95,-500.43C673.65,-503.68 677.5,-507.06 681.16,-510.28"/>
</g>
<!-- Amattens -->
<g id="Amattens" class="node">
<title>Amattens</title>
<ellipse fill="none" stroke="black" cx="592.9" cy="-589.71" rx="55.49" ry="18"/>
<text text-anchor="middle" x="592.9" y="-586.01" font-family="Times,serif" font-size="14.00">Amattens</text>
</g>
<!-- Amattens&#45;&#45;Arnatele -->
<g id="edge13" class="edge">
<title>Amattens&#45;&#45;Arnatele</title>
<path fill="none" stroke="black" d="M592.71,-607.83C592.59,-619.93 592.43,-635.78 592.3,-647.9"/>
</g>
<!-- Amattens&#45;&#45;Jurlesel -->
<g id="edge14" class="edge">
<title>Amattens&#45;&#45;Jurlesel</title>
<path fill="none" stroke="black" d="M554,-602.68C542.45,-606.53 529.87,-610.72 518.57,-614.49"/>
</g>
<!-- Amattens&#45;&#45;Bereye -->
<g id="edge15" class="edge">
<title>Amattens&#45;&#45;Bereye</title>
<path fill="none" stroke="black" d="M596.48,-571.56C596.98,-569 597.5,-566.37 598.01,-563.81"/>
</g>
<!-- Amattens&#45;&#45;Junsoraert -->
<g id="edge16" class="edge">
<title>Amattens&#45;&#45;Junsoraert</title>
<path fill="none" stroke="black" d="M578.24,-607.12C566.47,-621.92 550.33,-644.18 540.47,-666 536.77,-674.21 534.16,-683.87 532.41,-692.05"/>
</g>
<!-- Amattens&#45;&#45;Uphene -->
<g id="edge17" class="edge">
<title>Amattens&#45;&#45;Uphene</title>
<path fill="none" stroke="black" d="M619.91,-573.84C636.5,-564.08 657.65,-551.65 674.04,-542.01"/>
</g>
<!-- Aice -->
<g id="Aice" class="node">
<title>Aice</title>
<ellipse fill="none" stroke="black" cx="498.49" cy="-552.25" rx="30.59" ry="18"/>
<text text-anchor="middle" x="498.49" y="-548.55" font-family="Times,serif" font-size="14.00">Aice</text>
</g>
<!-- Aice&#45;&#45;Jurlesel -->
<g id="edge18" class="edge">
<title>Aice&#45;&#45;Jurlesel</title>
<path fill="none" stroke="black" d="M494.85,-570.15C492.5,-581.69 489.46,-596.64 487.11,-608.2"/>
</g>
<!-- Aice&#45;&#45;Bereye -->
<g id="edge19" class="edge">
<title>Aice&#45;&#45;Bereye</title>
<path fill="none" stroke="black" d="M528.86,-550.32C538.13,-549.73 548.5,-549.07 558.44,-548.44"/>
</g>
<!-- Aice&#45;&#45;Amattens -->
<g id="edge20" class="edge">
<title>Aice&#45;&#45;Amattens</title>
<path fill="none" stroke="black" d="M524.28,-562.49C534.55,-566.56 546.53,-571.31 557.57,-575.7"/>
</g>
<!-- Enedore -->
<g id="Enedore" class="node">
<title>Enedore</title>
<ellipse fill="none" stroke="black" cx="409.88" cy="-518.31" rx="50.09" ry="18"/>
<text text-anchor="middle" x="409.88" y="-514.61" font-family="Times,serif" font-size="14.00">Enedore</text>
</g>
<!-- Aice&#45;&#45;Enedore -->
<g id="edge21" class="edge">
<title>Aice&#45;&#45;Enedore</title>
<path fill="none" stroke="black" d="M472.86,-542.43C463.96,-539.03 453.84,-535.15 444.35,-531.51"/>
</g>
<!-- Laic -->
<g id="Laic" class="node">
<title>Laic</title>
<ellipse fill="none" stroke="black" cx="341.82" cy="-460.53" rx="30" ry="18"/>
<text text-anchor="middle" x="341.82" y="-456.83" font-family="Times,serif" font-size="14.00">Laic</text>
</g>
<!-- Enedore&#45;&#45;Laic -->
<g id="edge22" class="edge">
<title>Enedore&#45;&#45;Laic</title>
<path fill="none" stroke="black" d="M390.19,-501.6C380.46,-493.33 368.8,-483.44 359.38,-475.43"/>
</g>
<!-- Scuelazyns -->
<g id="Scuelazyns" class="node">
<title>Scuelazyns</title>
<ellipse fill="none" stroke="black" cx="289.42" cy="-514.16" rx="62.5" ry="18"/>
<text text-anchor="middle" x="289.42" y="-510.46" font-family="Times,serif" font-size="14.00">Scuelazyns</text>
</g>
<!-- Enedore&#45;&#45;Scuelazyns -->
<g id="edge23" class="edge">
<title>Enedore&#45;&#45;Scuelazyns</title>
<path fill="none" stroke="black" d="M359.84,-516.59C357.12,-516.49 354.38,-516.4 351.63,-516.3"/>
</g>
<!-- Harerget -->
<g id="Harerget" class="node">
<title>Harerget</title>
<ellipse fill="none" stroke="black" cx="940.37" cy="-288.44" rx="53.5" ry="18"/>
<text text-anchor="middle" x="940.37" y="-284.74" font-family="Times,serif" font-size="14.00">Harerget</text>
</g>
<!-- Harerget&#45;&#45;Claysson -->
<g id="edge24" class="edge">
<title>Harerget&#45;&#45;Claysson</title>
<path fill="none" stroke="black" d="M977.41,-301.52C985.36,-304.33 993.81,-307.31 1001.9,-310.16"/>
</g>
<!-- Azer -->
<g id="Azer" class="node">
<title>Azer</title>
<ellipse fill="none" stroke="black" cx="926.36" cy="-369.84" rx="32" ry="18"/>
<text text-anchor="middle" x="926.36" y="-366.14" font-family="Times,serif" font-size="14.00">Azer</text>
</g>
<!-- Azer&#45;&#45;Harerget -->
<g id="edge25" class="edge">
<title>Azer&#45;&#45;Harerget</title>
<path fill="none" stroke="black" d="M929.47,-351.78C931.79,-338.29 934.95,-319.93 937.27,-306.46"/>
</g>
<!-- Cherore -->
<g id="Cherore" class="node">
<title>Cherore</title>
<ellipse fill="none" stroke="black" cx="825.31" cy="-294.64" rx="48.19" ry="18"/>
<text text-anchor="middle" x="825.31" y="-290.94" font-family="Times,serif" font-size="14.00">Cherore</text>
</g>
<!-- Azer&#45;&#45;Cherore -->
<g id="edge26" class="edge">
<title>Azer&#45;&#45;Cherore</title>
<path fill="none" stroke="black" d="M906.88,-355.34C889.79,-342.62 864.96,-324.15 847.19,-310.92"/>
</g>
<!-- Torvi -->
<g id="Torvi" class="node">
<title>Torvi</title>
<ellipse fill="none" stroke="black" cx="991.72" cy="-414.23" rx="34.5" ry="18"/>
<text text-anchor="middle" x="991.72" y="-410.53" font-family="Times,serif" font-size="14.00">Torvi</text>
</g>
<!-- Azer&#45;&#45;Torvi -->
<g id="edge27" class="edge">
<title>Azer&#45;&#45;Torvi</title>
<path fill="none" stroke="black" d="M947.04,-383.89C954.52,-388.97 962.97,-394.71 970.5,-399.82"/>
</g>
<!-- Mosson -->
<g id="Mosson" class="node">
<title>Mosson</title>
<ellipse fill="none" stroke="black" cx="819.39" cy="-338.68" rx="46.29" ry="18"/>
<text text-anchor="middle" x="819.39" y="-334.98" font-family="Times,serif" font-size="14.00">Mosson</text>
</g>
<!-- Azer&#45;&#45;Mosson -->
<g id="edge28" class="edge">
<title>Azer&#45;&#45;Mosson</title>
<path fill="none" stroke="black" d="M897.97,-361.58C885.22,-357.86 870.01,-353.43 856.39,-349.46"/>
</g>
<!-- Cherore&#45;&#45;Harerget -->
<g id="edge29" class="edge">
<title>Cherore&#45;&#45;Harerget</title>
<path fill="none" stroke="black" d="M873.11,-292.06C877.92,-291.8 882.83,-291.54 887.7,-291.28"/>
</g>
<!-- Cherore&#45;&#45;Mosson -->
<g id="edge30" class="edge">
<title>Cherore&#45;&#45;Mosson</title>
<path fill="none" stroke="black" d="M822.87,-312.81C822.53,-315.37 822.17,-318 821.83,-320.56"/>
</g>
<!-- Jaschercis -->
<g id="Jaschercis" class="node">
<title>Jaschercis</title>
<ellipse fill="none" stroke="black" cx="665.82" cy="-299.4" rx="58" ry="18"/>
<text text-anchor="middle" x="665.82" y="-295.7" font-family="Times,serif" font-size="14.00">Jaschercis</text>
</g>
<!-- Cherore&#45;&#45;Jaschercis -->
<g id="edge31" class="edge">
<title>Cherore&#45;&#45;Jaschercis</title>
<path fill="none" stroke="black" d="M777.03,-296.08C760.16,-296.58 741.05,-297.15 723.49,-297.68"/>
</g>
<!-- Vaurent -->
<g id="Vaurent" class="node">
<title>Vaurent</title>
<ellipse fill="none" stroke="black" cx="717.27" cy="-343.42" rx="47.5" ry="18"/>
<text text-anchor="middle" x="717.27" y="-339.72" font-family="Times,serif" font-size="14.00">Vaurent</text>
</g>
<!-- Mosson&#45;&#45;Vaurent -->
<g id="edge32" class="edge">
<title>Mosson&#45;&#45;Vaurent</title>
<path fill="none" stroke="black" d="M773.41,-340.82C770.45,-340.95 767.46,-341.09 764.49,-341.23"/>
</g>
<!-- Jaschercis&#45;&#45;Pulin -->
<g id="edge33" class="edge">
<title>Jaschercis&#45;&#45;Pulin</title>
<path fill="none" stroke="black" d="M643.94,-282.71C633.68,-274.88 621.44,-265.54 610.96,-257.55"/>
</g>
<!-- Jaschercis&#45;&#45;Vaurent -->
<g id="edge34" class="edge">
<title>Jaschercis&#45;&#45;Vaurent</title>
<path fill="none" stroke="black" d="M685.86,-316.54C689.81,-319.92 693.95,-323.47 697.88,-326.83"/>
</g>
<!-- Marosier -->
<g id="Marosier" class="node">
<title>Marosier</title>
<ellipse fill="none" stroke="black" cx="675.65" cy="-255.37" rx="52.79" ry="18"/>
<text text-anchor="middle" x="675.65" y="-251.67" font-family="Times,serif" font-size="14.00">Marosier</text>
</g>
<!-- Jaschercis&#45;&#45;Marosier -->
<g id="edge35" class="edge">
<title>Jaschercis&#45;&#45;Marosier</title>
<path fill="none" stroke="black" d="M669.88,-281.24C670.45,-278.68 671.04,-276.05 671.61,-273.49"/>
</g>
<!-- Marosier&#45;&#45;Vaurent -->
<g id="edge36" class="edge">
<title>Marosier&#45;&#45;Vaurent</title>
<path fill="none" stroke="black" d="M702.43,-270.98C711.92,-278.24 721.25,-287.87 725.27,-299.53 728.14,-307.88 726.87,-317.5 724.58,-325.6"/>
</g>
<!-- Mya -->
<g id="Mya" class="node">
<title>Mya</title>
<ellipse fill="none" stroke="black" cx="1064.7" cy="-440.26" rx="30.59" ry="18"/>
<text text-anchor="middle" x="1064.7" y="-436.56" font-family="Times,serif" font-size="14.00">Mya</text>
</g>
<!-- Mya&#45;&#45;Torvi -->
<g id="edge37" class="edge">
<title>Mya&#45;&#45;Torvi</title>
<path fill="none" stroke="black" d="M1038.4,-430.86C1032.5,-428.77 1026.2,-426.53 1020.3,-424.41"/>
</g>
<!-- Gerper -->
<g id="Gerper" class="node">
<title>Gerper</title>
<ellipse fill="none" stroke="black" cx="1146.9" cy="-456.16" rx="43.59" ry="18"/>
<text text-anchor="middle" x="1146.9" y="-452.46" font-family="Times,serif" font-size="14.00">Gerper</text>
</g>
<!-- Gerper&#45;&#45;Mya -->
<g id="edge38" class="edge">
<title>Gerper&#45;&#45;Mya</title>
<path fill="none" stroke="black" d="M1107.2,-448.49C1102.8,-447.63 1098.4,-446.77 1094.1,-445.94"/>
</g>
<!-- Lirsautton -->
<g id="Lirsautton" class="node">
<title>Lirsautton</title>
<ellipse fill="none" stroke="black" cx="671.26" cy="-195.45" rx="59.29" ry="18"/>
<text text-anchor="middle" x="671.26" y="-191.75" font-family="Times,serif" font-size="14.00">Lirsautton</text>
</g>
<!-- Lirsautton&#45;&#45;Marosier -->
<g id="edge39" class="edge">
<title>Lirsautton&#45;&#45;Marosier</title>
<path fill="none" stroke="black" d="M672.6,-213.75C673.15,-221.19 673.78,-229.76 674.32,-237.18"/>
</g>
<!-- Meves -->
<g id="Meves" class="node">
<title>Meves</title>
<ellipse fill="none" stroke="black" cx="779.45" cy="-181.33" rx="41" ry="18"/>
<text text-anchor="middle" x="779.45" y="-177.63" font-family="Times,serif" font-size="14.00">Meves</text>
</g>
<!-- Lirsautton&#45;&#45;Meves -->
<g id="edge40" class="edge">
<title>Lirsautton&#45;&#45;Meves</title>
<path fill="none" stroke="black" d="M725.68,-188.35C730.52,-187.72 735.36,-187.09 740.03,-186.48"/>
</g>
<!-- Meves&#45;&#45;Dodixie -->
<g id="edge41" class="edge">
<title>Meves&#45;&#45;Dodixie</title>
<path fill="none" stroke="black" d="M798.01,-165.17C814.87,-150.48 839.71,-128.84 857.26,-113.56"/>
</g>
<!-- Blameston -->
<g id="Blameston" class="node">
<title>Blameston</title>
<ellipse fill="none" stroke="black" cx="608.65" cy="-150.35" rx="60" ry="18"/>
<text text-anchor="middle" x="608.65" y="-146.65" font-family="Times,serif" font-size="14.00">Blameston</text>
</g>
<!-- Blameston&#45;&#45;Vylade -->
<g id="edge42" class="edge">
<title>Blameston&#45;&#45;Vylade</title>
<path fill="none" stroke="black" d="M581.62,-134.2C576.27,-131.01 570.63,-127.65 565.19,-124.4"/>
</g>
<!-- Blameston&#45;&#45;Lirsautton -->
<g id="edge43" class="edge">
<title>Blameston&#45;&#45;Lirsautton</title>
<path fill="none" stroke="black" d="M631.96,-167.14C637.25,-170.95 642.86,-174.99 648.14,-178.79"/>
</g>
<!-- Aclan -->
<g id="Aclan" class="node">
<title>Aclan</title>
<ellipse fill="none" stroke="black" cx="559.77" cy="-283.53" rx="36.5" ry="18"/>
<text text-anchor="middle" x="559.77" y="-279.83" font-family="Times,serif" font-size="14.00">Aclan</text>
</g>
<!-- Aclan&#45;&#45;Jaschercis -->
<g id="edge44" class="edge">
<title>Aclan&#45;&#45;Jaschercis</title>
<path fill="none" stroke="black" d="M594.79,-288.77C600.82,-289.67 607.21,-290.63 613.58,-291.58"/>
</g>
<!-- Ardallabier -->
<g id="Ardallabier" class="node">
<title>Ardallabier</title>
<ellipse fill="none" stroke="black" cx="659.29" cy="-106.31" rx="62.5" ry="18"/>
<text text-anchor="middle" x="659.29" y="-102.61" font-family="Times,serif" font-size="14.00">Ardallabier</text>
</g>
<!-- Ardallabier&#45;&#45;Ardene -->
<g id="edge45" class="edge">
<title>Ardallabier&#45;&#45;Ardene</title>
<path fill="none" stroke="black" d="M679.52,-88.86C697.25,-73.58 722.9,-51.46 740.81,-36.02"/>
</g>
<!-- Ardallabier&#45;&#45;Jel -->
<g id="edge46" class="edge">
<title>Ardallabier&#45;&#45;Jel</title>
<path fill="none" stroke="black" d="M633.61,-89.67C628.66,-86.46 623.45,-83.08 618.45,-79.84"/>
</g>
<!-- Ardallabier&#45;&#45;Brapelille -->
<g id="edge47" class="edge">
<title>Ardallabier&#45;&#45;Brapelille</title>
<path fill="none" stroke="black" d="M661.73,-88.18C663.75,-73.16 666.6,-51.93 668.62,-36.91"/>
</g>
<!-- Ardallabier&#45;&#45;Lirsautton -->
<g id="edge48" class="edge">
<title>Ardallabier&#45;&#45;Lirsautton</title>
<path fill="none" stroke="black" d="M664.67,-124.61C666.74,-132.49 668.89,-141.85 670.04,-150.45 671.22,-159.28 671.59,-169.17 671.64,-177.42"/>
</g>
<!-- Athinard -->
<g id="Athinard" class="node">
<title>Athinard</title>
<ellipse fill="none" stroke="black" cx="879.81" cy="-178.8" rx="51.5" ry="18"/>
<text text-anchor="middle" x="879.81" y="-175.1" font-family="Times,serif" font-size="14.00">Athinard</text>
</g>
<!-- Athinard&#45;&#45;Dodixie -->
<g id="edge49" class="edge">
<title>Athinard&#45;&#45;Dodixie</title>
<path fill="none" stroke="black" d="M879.44,-160.69C879.16,-146.7 878.77,-127.43 878.49,-113.44"/>
</g>
<!-- Athinard&#45;&#45;Meves -->
<g id="edge50" class="edge">
<title>Athinard&#45;&#45;Meves</title>
<path fill="none" stroke="black" d="M828.46,-180.09C825.76,-180.16 823.06,-180.23 820.4,-180.3"/>
</g>
<!-- Ethernity -->
<g id="Ethernity" class="node">
<title>Ethernity</title>
<ellipse fill="none" stroke="black" cx="925.66" cy="-235.02" rx="55.49" ry="18"/>
<text text-anchor="middle" x="925.66" y="-231.32" font-family="Times,serif" font-size="14.00">Ethernity</text>
</g>
<!-- Athinard&#45;&#45;Ethernity -->
<g id="edge51" class="edge">
<title>Athinard&#45;&#45;Ethernity</title>
<path fill="none" stroke="black" d="M894.07,-196.28C899.53,-202.98 905.77,-210.63 911.26,-217.35"/>
</g>
<!-- Ethernity&#45;&#45;Bourynes -->
<g id="edge52" class="edge">
<title>Ethernity&#45;&#45;Bourynes</title>
<path fill="none" stroke="black" d="M973.35,-244.14C982.7,-245.93 992.44,-247.79 1001.6,-249.54"/>
</g>
<!-- Ethernity&#45;&#45;Harerget -->
<g id="edge53" class="edge">
<title>Ethernity&#45;&#45;Harerget</title>
<path fill="none" stroke="black" d="M930.64,-253.1C932.17,-258.67 933.86,-264.8 935.4,-270.37"/>
</g>
<!-- Ethernity&#45;&#45;Meves -->
<g id="edge54" class="edge">
<title>Ethernity&#45;&#45;Meves</title>
<path fill="none" stroke="black" d="M888.77,-221.47C864.74,-212.65 833.74,-201.26 810.89,-192.87"/>
</g>
<!-- Mattere -->
<g id="Mattere" class="node">
<title>Mattere</title>
<ellipse fill="none" stroke="black" cx="987.3" cy="-169.58" rx="48.19" ry="18"/>
<text text-anchor="middle" x="987.3" y="-165.88" font-family="Times,serif" font-size="14.00">Mattere</text>
</g>
<!-- Ethernity&#45;&#45;Mattere -->
<g id="edge55" class="edge">
<title>Ethernity&#45;&#45;Mattere</title>
<path fill="none" stroke="black" d="M942.18,-217.48C951.17,-207.94 962.24,-196.19 971.16,-186.71"/>
</g>
<!-- Gicodel -->
<g id="Gicodel" class="node">
<title>Gicodel</title>
<ellipse fill="none" stroke="black" cx="1048.9" cy="-213.61" rx="45.5" ry="18"/>
<text text-anchor="middle" x="1048.9" y="-209.91" font-family="Times,serif" font-size="14.00">Gicodel</text>
</g>
<!-- Ethernity&#45;&#45;Gicodel -->
<g id="edge56" class="edge">
<title>Ethernity&#45;&#45;Gicodel</title>
<path fill="none" stroke="black" d="M974.72,-226.5C985.46,-224.63 996.74,-222.67 1007.2,-220.86"/>
</g>
<!-- Mattere&#45;&#45;Adreland -->
<g id="edge57" class="edge">
<title>Mattere&#45;&#45;Adreland</title>
<path fill="none" stroke="black" d="M986.22,-151.35C985.33,-136.24 984.06,-114.87 983.17,-99.77"/>
</g>
<!-- Mattere&#45;&#45;Doussivitte -->
<g id="edge58" class="edge">
<title>Mattere&#45;&#45;Doussivitte</title>
<path fill="none" stroke="black" d="M1009.1,-153.45C1013.3,-150.31 1017.7,-146.99 1022.1,-143.79"/>
</g>
<!-- Mattere&#45;&#45;Meves -->
<g id="edge59" class="edge">
<title>Mattere&#45;&#45;Meves</title>
<path fill="none" stroke="black" d="M942.7,-162.78C923.42,-160.48 900.57,-158.62 879.87,-159.2 863.04,-159.66 858.91,-161.52 842.42,-164.92 833.23,-166.81 823.39,-169.2 814.27,-171.57"/>
</g>
<!-- Gicodel&#45;&#45;Mattere -->
<g id="edge60" class="edge">
<title>Gicodel&#45;&#45;Mattere</title>
<path fill="none" stroke="black" d="M1026.7,-197.72C1021.2,-193.78 1015.2,-189.55 1009.7,-185.6"/>
</g>
<!-- Frarolle -->
<g id="Frarolle" class="node">
<title>Frarolle</title>
<ellipse fill="none" stroke="black" cx="1150.5" cy="-197.09" rx="48.19" ry="18"/>
<text text-anchor="middle" x="1150.5" y="-193.39" font-family="Times,serif" font-size="14.00">Frarolle</text>
</g>
<!-- Frarolle&#45;&#45;Gicodel -->
<g id="edge61" class="edge">
<title>Frarolle&#45;&#45;Gicodel</title>
<path fill="none" stroke="black" d="M1106.2,-204.29C1101.2,-205.11 1096.1,-205.94 1091.1,-206.75"/>
</g>
<!-- Quier -->
<g id="Quier" class="node">
<title>Quier</title>
<ellipse fill="none" stroke="black" cx="1243.6" cy="-153.79" rx="36.5" ry="18"/>
<text text-anchor="middle" x="1243.6" y="-150.09" font-family="Times,serif" font-size="14.00">Quier</text>
</g>
<!-- Frarolle&#45;&#45;Quier -->
<g id="edge62" class="edge">
<title>Frarolle&#45;&#45;Quier</title>
<path fill="none" stroke="black" d="M1180.8,-183.03C1192.4,-177.6 1205.7,-171.43 1217,-166.17"/>
</g>
<!-- Atlanins -->
<g id="Atlanins" class="node">
<title>Atlanins</title>
<ellipse fill="none" stroke="black" cx="837.7" cy="-412.56" rx="48.99" ry="18"/>
<text text-anchor="middle" x="837.7" y="-408.86" font-family="Times,serif" font-size="14.00">Atlanins</text>
</g>
<!-- Atlanins&#45;&#45;Leremblompes -->
<g id="edge63" class="edge">
<title>Atlanins&#45;&#45;Leremblompes</title>
<path fill="none" stroke="black" d="M813.4,-428.31C799.97,-436.48 782.72,-446.09 766.38,-452.67 748.16,-460 727.62,-466.01 708.91,-470.67"/>
</g>
<!-- Atlanins&#45;&#45;Azer -->
<g id="edge64" class="edge">
<title>Atlanins&#45;&#45;Azer</title>
<path fill="none" stroke="black" d="M867.72,-398.1C878.87,-392.73 891.37,-386.7 901.96,-381.6"/>
</g>
<!-- Atlanins&#45;&#45;Vaurent -->
<g id="edge65" class="edge">
<title>Atlanins&#45;&#45;Vaurent</title>
<path fill="none" stroke="black" d="M811.27,-397.39C791.19,-385.86 763.7,-370.08 743.64,-358.56"/>
</g>
<!-- Bille -->
<g id="Bille" class="node">
<title>Bille</title>
<ellipse fill="none" stroke="black" cx="785.68" cy="-482.78" rx="32" ry="18"/>
<text text-anchor="middle" x="785.68" y="-479.08" font-family="Times,serif" font-size="14.00">Bille</text>
</g>
<!-- Atlanins&#45;&#45;Bille -->
<g id="edge66" class="edge">
<title>Atlanins&#45;&#45;Bille</title>
<path fill="none" stroke="black" d="M824.57,-430.28C816.51,-441.17 806.23,-455.04 798.27,-465.8"/>
</g>
<!-- Elarel -->
<g id="Elarel" class="node">
<title>Elarel</title>
<ellipse fill="none" stroke="black" cx="872.38" cy="-494.43" rx="38.5" ry="18"/>
<text text-anchor="middle" x="872.38" y="-490.73" font-family="Times,serif" font-size="14.00">Elarel</text>
</g>
<!-- Atlanins&#45;&#45;Elarel -->
<g id="edge67" class="edge">
<title>Atlanins&#45;&#45;Elarel</title>
<path fill="none" stroke="black" d="M845.4,-430.73C851.18,-444.39 859.07,-463.01 864.82,-476.59"/>
</g>
<!-- Bille&#45;&#45;Leremblompes -->
<g id="edge68" class="edge">
<title>Bille&#45;&#45;Leremblompes</title>
<path fill="none" stroke="black" d="M753.5,-482.78C746.05,-482.78 737.79,-482.78 729.29,-482.78"/>
</g>
<!-- Bille&#45;&#45;Uphene -->
<g id="edge69" class="edge">
<title>Bille&#45;&#45;Uphene</title>
<path fill="none" stroke="black" d="M761.8,-495.04C751.39,-500.38 739.11,-506.68 728.25,-512.26"/>
</g>
<!-- Bille&#45;&#45;Elarel -->
<g id="edge70" class="edge">
<title>Bille&#45;&#45;Elarel</title>
<path fill="none" stroke="black" d="M816.98,-486.99C822.9,-487.78 829.14,-488.62 835.22,-489.44"/>
</g>
<!-- Groothese -->
<g id="Groothese" class="node">
<title>Groothese</title>
<ellipse fill="none" stroke="black" cx="901.98" cy="-563.79" rx="58.5" ry="18"/>
<text text-anchor="middle" x="901.98" y="-560.09" font-family="Times,serif" font-size="14.00">Groothese</text>
</g>
<!-- Elarel&#45;&#45;Groothese -->
<g id="edge71" class="edge">
<title>Elarel&#45;&#45;Groothese</title>
<path fill="none" stroke="black" d="M880,-512.29C884.39,-522.57 889.88,-535.44 894.28,-545.75"/>
</g>
<!-- Olide -->
<g id="Olide" class="node">
<title>Olide</title>
<ellipse fill="none" stroke="black" cx="916.08" cy="-613.05" rx="35.19" ry="18"/>
<text text-anchor="middle" x="916.08" y="-609.35" font-family="Times,serif" font-size="14.00">Olide</text>
</g>
<!-- Groothese&#45;&#45;Olide -->
<g id="edge72" class="edge">
<title>Groothese&#45;&#45;Olide</title>
<path fill="none" stroke="black" d="M907.15,-581.85C908.38,-586.13 909.68,-590.7 910.91,-594.99"/>
</g>
<!-- Colcer -->
<g id="Colcer" class="node">
<title>Colcer</title>
<ellipse fill="none" stroke="black" cx="795.1" cy="-555.91" rx="40.5" ry="18"/>
<text text-anchor="middle" x="795.1" y="-552.21" font-family="Times,serif" font-size="14.00">Colcer</text>
</g>
<!-- Colcer&#45;&#45;Leremblompes -->
<g id="edge73" class="edge">
<title>Colcer&#45;&#45;Leremblompes</title>
<path fill="none" stroke="black" d="M775.49,-539.98C764.02,-531.21 748.98,-520.6 734.45,-513.05 722.83,-507.01 709.72,-501.67 697.37,-497.23"/>
</g>
<!-- Alachene -->
<g id="Alachene" class="node">
<title>Alachene</title>
<ellipse fill="none" stroke="black" cx="728.2" cy="-438.75" rx="52.79" ry="18"/>
<text text-anchor="middle" x="728.2" y="-435.05" font-family="Times,serif" font-size="14.00">Alachene</text>
</g>
<!-- Alachene&#45;&#45;Uphene -->
<g id="edge74" class="edge">
<title>Alachene&#45;&#45;Uphene</title>
<path fill="none" stroke="black" d="M731.95,-457.07C732.92,-465.12 733.12,-474.59 730.77,-482.86 727.97,-492.72 721.88,-502.22 715.85,-509.84"/>
</g>
<!-- Alachene&#45;&#45;Atlanins -->
<g id="edge75" class="edge">
<title>Alachene&#45;&#45;Atlanins</title>
<path fill="none" stroke="black" d="M771.48,-428.4C779.73,-426.42 788.34,-424.37 796.52,-422.41"/>
</g>
<!-- Averon -->
<g id="Averon" class="node">
<title>Averon</title>
<ellipse fill="none" stroke="black" cx="331.89" cy="-563.99" rx="43.59" ry="18"/>
<text text-anchor="middle" x="331.89" y="-560.29" font-family="Times,serif" font-size="14.00">Averon</text>
</g>
<!-- Averon&#45;&#45;Enedore -->
<g id="edge76" class="edge">
<title>Averon&#45;&#45;Enedore</title>
<path fill="none" stroke="black" d="M357.42,-549.03C365.78,-544.14 375.07,-538.7 383.48,-533.77"/>
</g>
<!-- Averon&#45;&#45;Scuelazyns -->
<g id="edge77" class="edge">
<title>Averon&#45;&#45;Scuelazyns</title>
<path fill="none" stroke="black" d="M317.27,-546.84C313.15,-542 308.65,-536.72 304.5,-531.85"/>
</g>
<!-- Carirgnottin -->
<g id="Carirgnottin" class="node">
<title>Carirgnottin</title>
<ellipse fill="none" stroke="black" cx="205.82" cy="-605.34" rx="68.49" ry="18"/>
<text text-anchor="middle" x="205.82" y="-601.64" font-family="Times,serif" font-size="14.00">Carirgnottin</text>
</g>
<!-- Averon&#45;&#45;Carirgnottin -->
<g id="edge78" class="edge">
<title>Averon&#45;&#45;Carirgnottin</title>
<path fill="none" stroke="black" d="M297.77,-575.18C282.75,-580.1 264.93,-585.95 249,-591.18"/>
</g>
<!-- Odixie -->
<g id="Odixie" class="node">
<title>Odixie</title>
<ellipse fill="none" stroke="black" cx="178.69" cy="-528.58" rx="40.5" ry="18"/>
<text text-anchor="middle" x="178.69" y="-524.88" font-family="Times,serif" font-size="14.00">Odixie</text>
</g>
<!-- Averon&#45;&#45;Odixie -->
<g id="edge79" class="edge">
<title>Averon&#45;&#45;Odixie</title>
<path fill="none" stroke="black" d="M293.63,-555.14C269.43,-549.55 238.36,-542.37 214.63,-536.89"/>
</g>
<!-- Carirgnottin&#45;&#45;Scuelazyns -->
<g id="edge80" class="edge">
<title>Carirgnottin&#45;&#45;Scuelazyns</title>
<path fill="none" stroke="black" d="M221.94,-587.76C236.74,-571.61 258.56,-547.82 273.35,-531.69"/>
</g>
<!-- Carirgnottin&#45;&#45;Odixie -->
<g id="edge81" class="edge">
<title>Carirgnottin&#45;&#45;Odixie</title>
<path fill="none" stroke="black" d="M199.39,-587.15C195.04,-574.82 189.31,-558.62 184.98,-546.38"/>
</g>
<!-- Tolle -->
<g id="Tolle" class="node">
<title>Tolle</title>
<ellipse fill="none" stroke="black" cx="112.89" cy="-650.15" rx="32.5" ry="18"/>
<text text-anchor="middle" x="112.89" y="-646.45" font-family="Times,serif" font-size="14.00">Tolle</text>
</g>
<!-- Carirgnottin&#45;&#45;Tolle -->
<g id="edge82" class="edge">
<title>Carirgnottin&#45;&#45;Tolle</title>
<path fill="none" stroke="black" d="M173.06,-621.14C161.35,-626.78 148.37,-633.04 137.47,-638.3"/>
</g>
<!-- Odixie&#45;&#45;Scuelazyns -->
<g id="edge83" class="edge">
<title>Odixie&#45;&#45;Scuelazyns</title>
<path fill="none" stroke="black" d="M217.42,-523.54C222.29,-522.91 227.34,-522.25 232.41,-521.59"/>
</g>
<!-- Manarq -->
<g id="Manarq" class="node">
<title>Manarq</title>
<polygon fill="none" stroke="black" points="72,-633.88 0,-633.88 0,-597.88 72,-597.88 72,-633.88"/>
<text text-anchor="middle" x="36" y="-612.18" font-family="Times,serif" font-size="14.00">Manarq</text>
</g>
<!-- Tolle&#45;&#45;Manarq -->
<g id="edge84" class="edge">
<title>Tolle&#45;&#45;Manarq</title>
<path fill="none" stroke="black" d="M87.29,-638.74C82.39,-636.56 77.19,-634.24 72.04,-631.94"/>
</g>
<!-- Antollare -->
<g id="Antollare" class="node">
<title>Antollare</title>
<ellipse fill="none" stroke="black" cx="433.77" cy="-462.58" rx="53.5" ry="18"/>
<text text-anchor="middle" x="433.77" y="-458.88" font-family="Times,serif" font-size="14.00">Antollare</text>
</g>
<!-- Antollare&#45;&#45;Enedore -->
<g id="edge85" class="edge">
<title>Antollare&#45;&#45;Enedore</title>
<path fill="none" stroke="black" d="M426.08,-480.52C423.35,-486.88 420.28,-494.04 417.55,-500.4"/>
</g>
<!-- Antollare&#45;&#45;Laic -->
<g id="edge86" class="edge">
<title>Antollare&#45;&#45;Laic</title>
<path fill="none" stroke="black" d="M380.55,-461.39C377.69,-461.33 374.87,-461.26 372.13,-461.2"/>
</g>
<!-- Avele -->
<g id="Avele" class="node">
<title>Avele</title>
<ellipse fill="none" stroke="black" cx="536.07" cy="-438.75" rx="36.5" ry="18"/>
<text text-anchor="middle" x="536.07" y="-435.05" font-family="Times,serif" font-size="14.00">Avele</text>
</g>
<!-- Antollare&#45;&#45;Avele -->
<g id="edge87" class="edge">
<title>Antollare&#45;&#45;Avele</title>
<path fill="none" stroke="black" d="M477.75,-452.33C486.2,-450.37 494.91,-448.34 502.95,-446.46"/>
</g>
<!-- Avele&#45;&#45;Leremblompes -->
<g id="edge88" class="edge">
<title>Avele&#45;&#45;Leremblompes</title>
<path fill="none" stroke="black" d="M564.79,-449.86C578.36,-455.11 594.78,-461.46 609.56,-467.18"/>
</g>
<!-- Aydoteaux -->
<g id="Aydoteaux" class="node">
<title>Aydoteaux</title>
<ellipse fill="none" stroke="black" cx="88.75" cy="-710.96" rx="60" ry="18"/>
<text text-anchor="middle" x="88.75" y="-707.26" font-family="Times,serif" font-size="14.00">Aydoteaux</text>
</g>
<!-- Aydoteaux&#45;&#45;Tolle -->
<g id="edge89" class="edge">
<title>Aydoteaux&#45;&#45;Tolle</title>
<path fill="none" stroke="black" d="M95.86,-693.04C98.98,-685.2 102.63,-676.01 105.75,-668.15"/>
</g>
<!-- Girani&#45;Fa -->
<g id="Girani&#45;Fa" class="node">
<title>Girani&#45;Fa</title>
<polygon fill="none" stroke="black" points="85.08,-773.49 2.08,-773.49 2.08,-737.49 85.08,-737.49 85.08,-773.49"/>
<text text-anchor="middle" x="43.58" y="-751.79" font-family="Times,serif" font-size="14.00">Girani&#45;Fa</text>
</g>
<!-- Aydoteaux&#45;&#45;Girani&#45;Fa -->
<g id="edge90" class="edge">
<title>Aydoteaux&#45;&#45;Girani&#45;Fa</title>
<path fill="none" stroke="black" d="M71.16,-728.3C68.18,-731.24 65.09,-734.29 62.09,-737.24"/>
</g>
<!-- Muer -->
<g id="Muer" class="node">
<title>Muer</title>
<ellipse fill="none" stroke="black" cx="205.23" cy="-470.14" rx="36" ry="18"/>
<text text-anchor="middle" x="205.23" y="-466.44" font-family="Times,serif" font-size="14.00">Muer</text>
</g>
<!-- Muer&#45;&#45;Scuelazyns -->
<g id="edge91" class="edge">
<title>Muer&#45;&#45;Scuelazyns</title>
<path fill="none" stroke="black" d="M230.04,-483.11C239.15,-487.88 249.58,-493.33 259.13,-498.32"/>
</g>
<!-- Muer&#45;&#45;Odixie -->
<g id="edge92" class="edge">
<title>Muer&#45;&#45;Odixie</title>
<path fill="none" stroke="black" d="M197.13,-487.99C193.83,-495.24 190.04,-503.6 186.75,-510.84"/>
</g>
<!-- Adeel -->
<g id="Adeel" class="node">
<title>Adeel</title>
<ellipse fill="none" stroke="black" cx="868.76" cy="-684.92" rx="36.5" ry="18"/>
<text text-anchor="middle" x="868.76" y="-681.22" font-family="Times,serif" font-size="14.00">Adeel</text>
</g>
<!-- Adeel&#45;&#45;Olide -->
<g id="edge93" class="edge">
<title>Adeel&#45;&#45;Olide</title>
<path fill="none" stroke="black" d="M880.22,-667.53C887.66,-656.23 897.31,-641.56 904.73,-630.29"/>
</g>
<!-- Mannar -->
<g id="Mannar" class="node">
<title>Mannar</title>
<ellipse fill="none" stroke="black" cx="960.06" cy="-657.05" rx="47" ry="18"/>
<text text-anchor="middle" x="960.06" y="-653.35" font-family="Times,serif" font-size="14.00">Mannar</text>
</g>
<!-- Mannar&#45;&#45;Olide -->
<g id="edge94" class="edge">
<title>Mannar&#45;&#45;Olide</title>
<path fill="none" stroke="black" d="M943.18,-640.17C939.59,-636.58 935.82,-632.8 932.26,-629.24"/>
</g>
<!-- Mormelot -->
<g id="Mormelot" class="node">
<title>Mormelot</title>
<ellipse fill="none" stroke="black" cx="982.89" cy="-736.11" rx="56" ry="18"/>
<text text-anchor="middle" x="982.89" y="-732.41" font-family="Times,serif" font-size="14.00">Mormelot</text>
</g>
<!-- Mannar&#45;&#45;Mormelot -->
<g id="edge95" class="edge">
<title>Mannar&#45;&#45;Mormelot</title>
<path fill="none" stroke="black" d="M965.24,-674.99C968.95,-687.84 973.92,-705.08 977.65,-717.97"/>
</g>
<!-- Mormelot&#45;&#45;Schoorasana -->
<g id="edge96" class="edge">
<title>Mormelot&#45;&#45;Schoorasana</title>
<path fill="none" stroke="black" d="M990.3,-754.15C994.57,-764.53 999.92,-777.53 1004.2,-787.94"/>
</g>
<!-- Angatalie -->
<g id="Angatalie" class="node">
<title>Angatalie</title>
<ellipse fill="none" stroke="black" cx="1069.5" cy="-662.43" rx="54.69" ry="18"/>
<text text-anchor="middle" x="1069.5" y="-658.73" font-family="Times,serif" font-size="14.00">Angatalie</text>
</g>
<!-- Angatalie&#45;&#45;Lermireve -->
<g id="edge97" class="edge">
<title>Angatalie&#45;&#45;Lermireve</title>
<path fill="none" stroke="black" d="M1102.3,-676.97C1110.6,-680.63 1119.6,-684.6 1128.2,-688.4"/>
</g>
<!-- Angatalie&#45;&#45;Mannar -->
<g id="edge98" class="edge">
<title>Angatalie&#45;&#45;Mannar</title>
<path fill="none" stroke="black" d="M1015.4,-659.77C1012.5,-659.63 1009.6,-659.49 1006.7,-659.34"/>
</g>
</g>
</svg>
