<?xml version="1.0" encoding="UTF-8" standalone="no"?>
<!DOCTYPE svg PUBLIC "-//W3C//DTD SVG 1.1//EN"
 "http://www.w3.org/Graphics/SVG/1.1/DTD/svg11.dtd">
<!-- Generated by graphviz version 2.43.0 (0)
 -->
<!-- Pages: 1 -->
<svg width="1397pt" height="628pt"
 viewBox="0.00 0.00 1396.55 627.90" xmlns="http://www.w3.org/2000/svg" xmlns:xlink="http://www.w3.org/1999/xlink">
<g id="graph0" class="graph" transform="scale(1 1) rotate(0) translate(4 623.9)">
<polygon fill="white" stroke="transparent" points="-4,4 -4,-623.9 1392.55,-623.9 1392.55,4 -4,4"/>
<!-- E3&#45;SDZ -->
<g id="E3&#45;SDZ" class="node">
<title>E3&#45;SDZ</title>
<polygon fill="none" stroke="black" points="296.44,-399.64 225.44,-399.64 225.44,-363.64 296.44,-363.64 296.44,-399.64"/>
<text text-anchor="middle" x="260.94" y="-377.94" font-family="Times,serif" font-size="14.00">E3&#45;SDZ</text>
</g>
<!-- 1&#45;7KWU -->
<g id="1&#45;7KWU" class="node">
<title>1&#45;7KWU</title>
<ellipse fill="none" stroke="black" cx="132.44" cy="-308.38" rx="48.99" ry="18"/>
<text text-anchor="middle" x="132.44" y="-304.68" font-family="Times,serif" font-size="14.00">1&#45;7KWU</text>
</g>
<!-- 3&#45;UCBF -->
<g id="3&#45;UCBF" class="node">
<title>3&#45;UCBF</title>
<ellipse fill="none" stroke="black" cx="236.71" cy="-285.2" rx="47.5" ry="18"/>
<text text-anchor="middle" x="236.71" y="-281.5" font-family="Times,serif" font-size="14.00">3&#45;UCBF</text>
</g>
<!-- 1&#45;7KWU&#45;&#45;3&#45;UCBF -->
<g id="edge1" class="edge">
<title>1&#45;7KWU&#45;&#45;3&#45;UCBF</title>
<path fill="none" stroke="black" d="M174.25,-299.09C181.28,-297.53 188.57,-295.91 195.57,-294.35"/>
</g>
<!-- H&#45;HWQR -->
<g id="H&#45;HWQR" class="node">
<title>H&#45;HWQR</title>
<polygon fill="none" stroke="black" points="81,-370.54 0,-370.54 0,-334.54 81,-334.54 81,-370.54"/>
<text text-anchor="middle" x="40.5" y="-348.84" font-family="Times,serif" font-size="14.00">H&#45;HWQR</text>
</g>
<!-- 1&#45;7KWU&#45;&#45;H&#45;HWQR -->
<g id="edge2" class="edge">
<title>1&#45;7KWU&#45;&#45;H&#45;HWQR</title>
<path fill="none" stroke="black" d="M102.59,-322.72C94.83,-326.45 86.37,-330.51 78.26,-334.4"/>
</g>
<!-- N&#45;CREL -->
<g id="N&#45;CREL" class="node">
<title>N&#45;CREL</title>
<ellipse fill="none" stroke="black" cx="274" cy="-337.61" rx="48.19" ry="18"/>
<text text-anchor="middle" x="274" y="-333.91" font-family="Times,serif" font-size="14.00">N&#45;CREL</text>
</g>
<!-- 3&#45;UCBF&#45;&#45;N&#45;CREL -->
<g id="edge3" class="edge">
<title>3&#45;UCBF&#45;&#45;N&#45;CREL</title>
<path fill="none" stroke="black" d="M249.13,-302.65C253.11,-308.25 257.52,-314.45 261.51,-320.06"/>
</g>
<!-- N&#45;CREL&#45;&#45;E3&#45;SDZ -->
<g id="edge4" class="edge">
<title>N&#45;CREL&#45;&#45;E3&#45;SDZ</title>
<path fill="none" stroke="black" d="M268.69,-355.52C267.9,-358.19 267.08,-360.94 266.29,-363.61"/>
</g>
<!-- TM&#45;0P2 -->
<g id="TM&#45;0P2" class="node">
<title>TM&#45;0P2</title>
<ellipse fill="none" stroke="black" cx="366.58" cy="-293.61" rx="47" ry="18"/>
<text text-anchor="middle" x="366.58" y="-289.91" font-family="Times,serif" font-size="14.00">TM&#45;0P2</text>
</g>
<!-- N&#45;CREL&#45;&#45;TM&#45;0P2 -->
<g id="edge5" class="edge">
<title>N&#45;CREL&#45;&#45;TM&#45;0P2</title>
<path fill="none" stroke="black" d="M303.8,-323.45C314.37,-318.42 326.27,-312.77 336.83,-307.75"/>
</g>
<!-- 4OIV&#45;X -->
<g id="4OIV&#45;X" class="node">
<title>4OIV&#45;X</title>
<ellipse fill="none" stroke="black" cx="463.67" cy="-269.11" rx="42.49" ry="18"/>
<text text-anchor="middle" x="463.67" y="-265.41" font-family="Times,serif" font-size="14.00">4OIV&#45;X</text>
</g>
<!-- 4OIV&#45;X&#45;&#45;TM&#45;0P2 -->
<g id="edge6" class="edge">
<title>4OIV&#45;X&#45;&#45;TM&#45;0P2</title>
<path fill="none" stroke="black" d="M427.24,-278.3C420.25,-280.06 412.89,-281.92 405.81,-283.71"/>
</g>
<!-- Y&#45;JKJ8 -->
<g id="Y&#45;JKJ8" class="node">
<title>Y&#45;JKJ8</title>
<ellipse fill="none" stroke="black" cx="552.3" cy="-259.58" rx="38.5" ry="18"/>
<text text-anchor="middle" x="552.3" y="-255.88" font-family="Times,serif" font-size="14.00">Y&#45;JKJ8</text>
</g>
<!-- 4OIV&#45;X&#45;&#45;Y&#45;JKJ8 -->
<g id="edge7" class="edge">
<title>4OIV&#45;X&#45;&#45;Y&#45;JKJ8</title>
<path fill="none" stroke="black" d="M504.87,-264.68C508.21,-264.32 511.58,-263.95 514.9,-263.6"/>
</g>
<!-- AFJ&#45;NB -->
<g id="AFJ&#45;NB" class="node">
<title>AFJ&#45;NB</title>
<ellipse fill="none" stroke="black" cx="642.92" cy="-270.02" rx="44.39" ry="18"/>
<text text-anchor="middle" x="642.92" y="-266.32" font-family="Times,serif" font-size="14.00">AFJ&#45;NB</text>
</g>
<!-- AFJ&#45;NB&#45;&#45;Y&#45;JKJ8 -->
<g id="edge8" class="edge">
<title>AFJ&#45;NB&#45;&#45;Y&#45;JKJ8</title>
<path fill="none" stroke="black" d="M600.26,-265.11C596.68,-264.69 593.08,-264.28 589.54,-263.87"/>
</g>
<!-- H&#45;64KI -->
<g id="H&#45;64KI" class="node">
<title>H&#45;64KI</title>
<ellipse fill="none" stroke="black" cx="738.69" cy="-282.12" rx="43.59" ry="18"/>
<text text-anchor="middle" x="738.69" y="-278.42" font-family="Times,serif" font-size="14.00">H&#45;64KI</text>
</g>
<!-- AFJ&#45;NB&#45;&#45;H&#45;64KI -->
<g id="edge9" class="edge">
<title>AFJ&#45;NB&#45;&#45;H&#45;64KI</title>
<path fill="none" stroke="black" d="M685.2,-275.36C689.11,-275.86 693.07,-276.36 696.97,-276.85"/>
</g>
<!-- 9I&#45;SRF -->
<g id="9I&#45;SRF" class="node">
<title>9I&#45;SRF</title>
<ellipse fill="none" stroke="black" cx="747.59" cy="-327.64" rx="42.49" ry="18"/>
<text text-anchor="middle" x="747.59" y="-323.94" font-family="Times,serif" font-size="14.00">9I&#45;SRF</text>
</g>
<!-- 9I&#45;SRF&#45;&#45;H&#45;64KI -->
<g id="edge10" class="edge">
<title>9I&#45;SRF&#45;&#45;H&#45;64KI</title>
<path fill="none" stroke="black" d="M744.07,-309.65C743.47,-306.57 742.84,-303.36 742.24,-300.28"/>
</g>
<!-- YALR&#45;F -->
<g id="YALR&#45;F" class="node">
<title>YALR&#45;F</title>
<ellipse fill="none" stroke="black" cx="673.64" cy="-371.86" rx="44.39" ry="18"/>
<text text-anchor="middle" x="673.64" y="-368.16" font-family="Times,serif" font-size="14.00">YALR&#45;F</text>
</g>
<!-- 9I&#45;SRF&#45;&#45;YALR&#45;F -->
<g id="edge11" class="edge">
<title>9I&#45;SRF&#45;&#45;YALR&#45;F</title>
<path fill="none" stroke="black" d="M722.97,-342.36C715.15,-347.04 706.51,-352.21 698.66,-356.89"/>
</g>
<!-- 9&#45;IIBL -->
<g id="9&#45;IIBL" class="node">
<title>9&#45;IIBL</title>
<ellipse fill="none" stroke="black" cx="829.27" cy="-283.02" rx="39" ry="18"/>
<text text-anchor="middle" x="829.27" y="-279.32" font-family="Times,serif" font-size="14.00">9&#45;IIBL</text>
</g>
<!-- 9&#45;IIBL&#45;&#45;H&#45;64KI -->
<g id="edge12" class="edge">
<title>9&#45;IIBL&#45;&#45;H&#45;64KI</title>
<path fill="none" stroke="black" d="M790.06,-282.63C787.48,-282.61 784.87,-282.58 782.27,-282.55"/>
</g>
<!-- 5GQ&#45;S9 -->
<g id="5GQ&#45;S9" class="node">
<title>5GQ&#45;S9</title>
<ellipse fill="none" stroke="black" cx="983.75" cy="-333.09" rx="47" ry="18"/>
<text text-anchor="middle" x="983.75" y="-329.39" font-family="Times,serif" font-size="14.00">5GQ&#45;S9</text>
</g>
<!-- 5GQ&#45;S9&#45;&#45;9&#45;IIBL -->
<g id="edge13" class="edge">
<title>5GQ&#45;S9&#45;&#45;9&#45;IIBL</title>
<path fill="none" stroke="black" d="M947.92,-321.48C921.72,-312.99 886.48,-301.57 861.23,-293.38"/>
</g>
<!-- D&#45;L4H0 -->
<g id="D&#45;L4H0" class="node">
<title>D&#45;L4H0</title>
<ellipse fill="none" stroke="black" cx="1095.4" cy="-297.33" rx="46.29" ry="18"/>
<text text-anchor="middle" x="1095.4" y="-293.63" font-family="Times,serif" font-size="14.00">D&#45;L4H0</text>
</g>
<!-- 5GQ&#45;S9&#45;&#45;D&#45;L4H0 -->
<g id="edge14" class="edge">
<title>5GQ&#45;S9&#45;&#45;D&#45;L4H0</title>
<path fill="none" stroke="black" d="M1020,-321.48C1032.8,-317.4 1047.1,-312.82 1059.7,-308.76"/>
</g>
<!-- GU&#45;9F4 -->
<g id="GU&#45;9F4" class="node">
<title>GU&#45;9F4</title>
<ellipse fill="none" stroke="black" cx="1116.2" cy="-239.26" rx="46.29" ry="18"/>
<text text-anchor="middle" x="1116.2" y="-235.56" font-family="Times,serif" font-size="14.00">GU&#45;9F4</text>
</g>
<!-- D&#45;L4H0&#45;&#45;GU&#45;9F4 -->
<g id="edge15" class="edge">
<title>D&#45;L4H0&#45;&#45;GU&#45;9F4</title>
<path fill="none" stroke="black" d="M1101.9,-279.27C1104.4,-272.22 1107.3,-264.14 1109.8,-257.11"/>
</g>
<!-- FG&#45;1GH -->
<g id="FG&#45;1GH" class="node">
<title>FG&#45;1GH</title>
<ellipse fill="none" stroke="black" cx="1197.8" cy="-286.59" rx="48.19" ry="18"/>
<text text-anchor="middle" x="1197.8" y="-282.89" font-family="Times,serif" font-size="14.00">FG&#45;1GH</text>
</g>
<!-- D&#45;L4H0&#45;&#45;FG&#45;1GH -->
<g id="edge16" class="edge">
<title>D&#45;L4H0&#45;&#45;FG&#45;1GH</title>
<path fill="none" stroke="black" d="M1140,-292.65C1143.8,-292.25 1147.6,-291.85 1151.4,-291.46"/>
</g>
<!-- FG&#45;1GH&#45;&#45;GU&#45;9F4 -->
<g id="edge17" class="edge">
<title>FG&#45;1GH&#45;&#45;GU&#45;9F4</title>
<path fill="none" stroke="black" d="M1171.5,-271.35C1162.1,-265.9 1151.5,-259.75 1142.1,-254.31"/>
</g>
<!-- WFYM&#45;0 -->
<g id="WFYM&#45;0" class="node">
<title>WFYM&#45;0</title>
<ellipse fill="none" stroke="black" cx="1220.6" cy="-233.62" rx="50.09" ry="18"/>
<text text-anchor="middle" x="1220.6" y="-229.92" font-family="Times,serif" font-size="14.00">WFYM&#45;0</text>
</g>
<!-- FG&#45;1GH&#45;&#45;WFYM&#45;0 -->
<g id="edge18" class="edge">
<title>FG&#45;1GH&#45;&#45;WFYM&#45;0</title>
<path fill="none" stroke="black" d="M1205.5,-268.66C1207.9,-263.14 1210.5,-257.06 1212.9,-251.54"/>
</g>
<!-- 68FT&#45;6 -->
<g id="68FT&#45;6" class="node">
<title>68FT&#45;6</title>
<ellipse fill="none" stroke="black" cx="879.68" cy="-327.04" rx="42.49" ry="18"/>
<text text-anchor="middle" x="879.68" y="-323.34" font-family="Times,serif" font-size="14.00">68FT&#45;6</text>
</g>
<!-- 68FT&#45;6&#45;&#45;9I&#45;SRF -->
<g id="edge19" class="edge">
<title>68FT&#45;6&#45;&#45;9I&#45;SRF</title>
<path fill="none" stroke="black" d="M837.16,-327.24C822.07,-327.3 805.11,-327.38 790.03,-327.45"/>
</g>
<!-- 68FT&#45;6&#45;&#45;9&#45;IIBL -->
<g id="edge20" class="edge">
<title>68FT&#45;6&#45;&#45;9&#45;IIBL</title>
<path fill="none" stroke="black" d="M860.91,-310.65C856.54,-306.84 851.9,-302.78 847.55,-298.99"/>
</g>
<!-- IRE&#45;98 -->
<g id="IRE&#45;98" class="node">
<title>IRE&#45;98</title>
<ellipse fill="none" stroke="black" cx="924.41" cy="-240.6" rx="42.49" ry="18"/>
<text text-anchor="middle" x="924.41" y="-236.9" font-family="Times,serif" font-size="14.00">IRE&#45;98</text>
</g>
<!-- 68FT&#45;6&#45;&#45;IRE&#45;98 -->
<g id="edge21" class="edge">
<title>68FT&#45;6&#45;&#45;IRE&#45;98</title>
<path fill="none" stroke="black" d="M888.95,-309.13C896.68,-294.2 907.63,-273.04 915.31,-258.19"/>
</g>
<!-- HOHF&#45;B -->
<g id="HOHF&#45;B" class="node">
<title>HOHF&#45;B</title>
<ellipse fill="none" stroke="black" cx="849.92" cy="-371.08" rx="49.5" ry="18"/>
<text text-anchor="middle" x="849.92" y="-367.38" font-family="Times,serif" font-size="14.00">HOHF&#45;B</text>
</g>
<!-- 68FT&#45;6&#45;&#45;HOHF&#45;B -->
<g id="edge22" class="edge">
<title>68FT&#45;6&#45;&#45;HOHF&#45;B</title>
<path fill="none" stroke="black" d="M867.92,-344.45C865.9,-347.43 863.81,-350.53 861.79,-353.51"/>
</g>
<!-- Y&#45;6B0E -->
<g id="Y&#45;6B0E" class="node">
<title>Y&#45;6B0E</title>
<ellipse fill="none" stroke="black" cx="829.89" cy="-238.12" rx="44.39" ry="18"/>
<text text-anchor="middle" x="829.89" y="-234.42" font-family="Times,serif" font-size="14.00">Y&#45;6B0E</text>
</g>
<!-- 68FT&#45;6&#45;&#45;Y&#45;6B0E -->
<g id="edge23" class="edge">
<title>68FT&#45;6&#45;&#45;Y&#45;6B0E</title>
<path fill="none" stroke="black" d="M877.65,-308.81C876.24,-300.62 873.85,-291.02 869.86,-283.03 864.63,-272.58 856.33,-262.67 848.64,-254.84"/>
</g>
<!-- N&#45;7ECY -->
<g id="N&#45;7ECY" class="node">
<title>N&#45;7ECY</title>
<ellipse fill="none" stroke="black" cx="994.43" cy="-284.6" rx="47" ry="18"/>
<text text-anchor="middle" x="994.43" y="-280.9" font-family="Times,serif" font-size="14.00">N&#45;7ECY</text>
</g>
<!-- IRE&#45;98&#45;&#45;N&#45;7ECY -->
<g id="edge24" class="edge">
<title>IRE&#45;98&#45;&#45;N&#45;7ECY</title>
<path fill="none" stroke="black" d="M948.51,-255.74C955.31,-260.02 962.73,-264.68 969.57,-268.98"/>
</g>
<!-- IV&#45;UNR -->
<g id="IV&#45;UNR" class="node">
<title>IV&#45;UNR</title>
<ellipse fill="none" stroke="black" cx="601.96" cy="-423.14" rx="45.5" ry="18"/>
<text text-anchor="middle" x="601.96" y="-419.44" font-family="Times,serif" font-size="14.00">IV&#45;UNR</text>
</g>
<!-- IV&#45;UNR&#45;&#45;YALR&#45;F -->
<g id="edge25" class="edge">
<title>IV&#45;UNR&#45;&#45;YALR&#45;F</title>
<path fill="none" stroke="black" d="M624.25,-407.19C632.96,-400.96 642.93,-393.83 651.62,-387.61"/>
</g>
<!-- UD&#45;VZW -->
<g id="UD&#45;VZW" class="node">
<title>UD&#45;VZW</title>
<polygon fill="none" stroke="black" points="608.79,-490.4 531.79,-490.4 531.79,-454.4 608.79,-454.4 608.79,-490.4"/>
<text text-anchor="middle" x="570.29" y="-468.7" font-family="Times,serif" font-size="14.00">UD&#45;VZW</text>
</g>
<!-- IV&#45;UNR&#45;&#45;UD&#45;VZW -->
<g id="edge26" class="edge">
<title>IV&#45;UNR&#45;&#45;UD&#45;VZW</title>
<path fill="none" stroke="black" d="M590.71,-440.64C587.86,-445.07 584.8,-449.83 581.94,-454.28"/>
</g>
<!-- F&#45;3H2P -->
<g id="F&#45;3H2P" class="node">
<title>F&#45;3H2P</title>
<ellipse fill="none" stroke="black" cx="897.49" cy="-194.07" rx="45.5" ry="18"/>
<text text-anchor="middle" x="897.49" y="-190.37" font-family="Times,serif" font-size="14.00">F&#45;3H2P</text>
</g>
<!-- F&#45;3H2P&#45;&#45;IRE&#45;98 -->
<g id="edge27" class="edge">
<title>F&#45;3H2P&#45;&#45;IRE&#45;98</title>
<path fill="none" stroke="black" d="M907.67,-211.66C909.81,-215.36 912.07,-219.28 914.22,-222.98"/>
</g>
<!-- F&#45;3H2P&#45;&#45;Y&#45;6B0E -->
<g id="edge28" class="edge">
<title>F&#45;3H2P&#45;&#45;Y&#45;6B0E</title>
<path fill="none" stroke="black" d="M873.84,-209.47C867.29,-213.74 860.18,-218.37 853.63,-222.64"/>
</g>
<!-- DY&#45;40Z -->
<g id="DY&#45;40Z" class="node">
<title>DY&#45;40Z</title>
<ellipse fill="none" stroke="black" cx="760.55" cy="-194.11" rx="44.39" ry="18"/>
<text text-anchor="middle" x="760.55" y="-190.41" font-family="Times,serif" font-size="14.00">DY&#45;40Z</text>
</g>
<!-- DY&#45;40Z&#45;&#45;IRE&#45;98 -->
<g id="edge29" class="edge">
<title>DY&#45;40Z&#45;&#45;IRE&#45;98</title>
<path fill="none" stroke="black" d="M796.91,-204.43C824.35,-212.21 861.79,-222.83 888.99,-230.55"/>
</g>
<!-- XWY&#45;YM -->
<g id="XWY&#45;YM" class="node">
<title>XWY&#45;YM</title>
<ellipse fill="none" stroke="black" cx="711.09" cy="-150.07" rx="48.19" ry="18"/>
<text text-anchor="middle" x="711.09" y="-146.37" font-family="Times,serif" font-size="14.00">XWY&#45;YM</text>
</g>
<!-- DY&#45;40Z&#45;&#45;XWY&#45;YM -->
<g id="edge30" class="edge">
<title>DY&#45;40Z&#45;&#45;XWY&#45;YM</title>
<path fill="none" stroke="black" d="M742.13,-177.71C738.18,-174.19 733.99,-170.46 730.02,-166.93"/>
</g>
<!-- M&#45;9V5D -->
<g id="M&#45;9V5D" class="node">
<title>M&#45;9V5D</title>
<ellipse fill="none" stroke="black" cx="669.96" cy="-106.05" rx="48.19" ry="18"/>
<text text-anchor="middle" x="669.96" y="-102.35" font-family="Times,serif" font-size="14.00">M&#45;9V5D</text>
</g>
<!-- M&#45;9V5D&#45;&#45;XWY&#45;YM -->
<g id="edge31" class="edge">
<title>M&#45;9V5D&#45;&#45;XWY&#45;YM</title>
<path fill="none" stroke="black" d="M685.98,-123.2C688.96,-126.39 692.07,-129.72 695.05,-132.9"/>
</g>
<!-- O2&#45;39S -->
<g id="O2&#45;39S" class="node">
<title>O2&#45;39S</title>
<ellipse fill="none" stroke="black" cx="664.49" cy="-62.04" rx="45" ry="18"/>
<text text-anchor="middle" x="664.49" y="-58.34" font-family="Times,serif" font-size="14.00">O2&#45;39S</text>
</g>
<!-- M&#45;9V5D&#45;&#45;O2&#45;39S -->
<g id="edge32" class="edge">
<title>M&#45;9V5D&#45;&#45;O2&#45;39S</title>
<path fill="none" stroke="black" d="M667.71,-87.9C667.39,-85.34 667.06,-82.71 666.74,-80.16"/>
</g>
<!-- M&#45;VEJZ -->
<g id="M&#45;VEJZ" class="node">
<title>M&#45;VEJZ</title>
<ellipse fill="none" stroke="black" cx="552.47" cy="-106.9" rx="45.5" ry="18"/>
<text text-anchor="middle" x="552.47" y="-103.2" font-family="Times,serif" font-size="14.00">M&#45;VEJZ</text>
</g>
<!-- M&#45;9V5D&#45;&#45;M&#45;VEJZ -->
<g id="edge33" class="edge">
<title>M&#45;9V5D&#45;&#45;M&#45;VEJZ</title>
<path fill="none" stroke="black" d="M621.83,-106.4C613.98,-106.46 605.86,-106.52 598.06,-106.57"/>
</g>
<!-- LJK&#45;T0 -->
<g id="LJK&#45;T0" class="node">
<title>LJK&#45;T0</title>
<ellipse fill="none" stroke="black" cx="642.8" cy="-18" rx="41" ry="18"/>
<text text-anchor="middle" x="642.8" y="-14.3" font-family="Times,serif" font-size="14.00">LJK&#45;T0</text>
</g>
<!-- LJK&#45;T0&#45;&#45;O2&#45;39S -->
<g id="edge34" class="edge">
<title>LJK&#45;T0&#45;&#45;O2&#45;39S</title>
<path fill="none" stroke="black" d="M651.49,-35.66C652.91,-38.53 654.37,-41.51 655.79,-44.38"/>
</g>
<!-- E7VE&#45;V -->
<g id="E7VE&#45;V" class="node">
<title>E7VE&#45;V</title>
<ellipse fill="none" stroke="black" cx="849.57" cy="-415.11" rx="45.5" ry="18"/>
<text text-anchor="middle" x="849.57" y="-411.41" font-family="Times,serif" font-size="14.00">E7VE&#45;V</text>
</g>
<!-- E7VE&#45;V&#45;&#45;HOHF&#45;B -->
<g id="edge35" class="edge">
<title>E7VE&#45;V&#45;&#45;HOHF&#45;B</title>
<path fill="none" stroke="black" d="M849.71,-396.95C849.73,-394.39 849.75,-391.76 849.77,-389.2"/>
</g>
<!-- NUG&#45;OF -->
<g id="NUG&#45;OF" class="node">
<title>NUG&#45;OF</title>
<ellipse fill="none" stroke="black" cx="849.85" cy="-459.13" rx="50.09" ry="18"/>
<text text-anchor="middle" x="849.85" y="-455.43" font-family="Times,serif" font-size="14.00">NUG&#45;OF</text>
</g>
<!-- E7VE&#45;V&#45;&#45;NUG&#45;OF -->
<g id="edge36" class="edge">
<title>E7VE&#45;V&#45;&#45;NUG&#45;OF</title>
<path fill="none" stroke="black" d="M849.68,-433.27C849.7,-435.83 849.72,-438.46 849.73,-441.02"/>
</g>
<!-- U3SQ&#45;X -->
<g id="U3SQ&#45;X" class="node">
<title>U3SQ&#45;X</title>
<ellipse fill="none" stroke="black" cx="882.74" cy="-513.59" rx="48.19" ry="18"/>
<text text-anchor="middle" x="882.74" y="-509.89" font-family="Times,serif" font-size="14.00">U3SQ&#45;X</text>
</g>
<!-- NUG&#45;OF&#45;&#45;U3SQ&#45;X -->
<g id="edge37" class="edge">
<title>NUG&#45;OF&#45;&#45;U3SQ&#45;X</title>
<path fill="none" stroke="black" d="M860.62,-476.97C864.29,-483.05 868.39,-489.84 872.06,-495.91"/>
</g>
<!-- L6BY&#45;P -->
<g id="L6BY&#45;P" class="node">
<title>L6BY&#45;P</title>
<ellipse fill="none" stroke="black" cx="782.08" cy="-503.15" rx="43" ry="18"/>
<text text-anchor="middle" x="782.08" y="-499.45" font-family="Times,serif" font-size="14.00">L6BY&#45;P</text>
</g>
<!-- L6BY&#45;P&#45;&#45;NUG&#45;OF -->
<g id="edge38" class="edge">
<title>L6BY&#45;P&#45;&#45;NUG&#45;OF</title>
<path fill="none" stroke="black" d="M805.41,-488C811.84,-483.82 818.83,-479.28 825.33,-475.06"/>
</g>
<!-- L6BY&#45;P&#45;&#45;U3SQ&#45;X -->
<g id="edge39" class="edge">
<title>L6BY&#45;P&#45;&#45;U3SQ&#45;X</title>
<path fill="none" stroke="black" d="M823.9,-507.49C828,-507.91 832.18,-508.35 836.33,-508.78"/>
</g>
<!-- 01TG&#45;J -->
<g id="01TG&#45;J" class="node">
<title>01TG&#45;J</title>
<ellipse fill="none" stroke="black" cx="923" cy="-557.61" rx="42.49" ry="18"/>
<text text-anchor="middle" x="923" y="-553.91" font-family="Times,serif" font-size="14.00">01TG&#45;J</text>
</g>
<!-- 01TG&#45;J&#45;&#45;U3SQ&#45;X -->
<g id="edge40" class="edge">
<title>01TG&#45;J&#45;&#45;U3SQ&#45;X</title>
<path fill="none" stroke="black" d="M907.55,-540.72C904.53,-537.42 901.37,-533.96 898.35,-530.66"/>
</g>
<!-- UK&#45;SHL -->
<g id="UK&#45;SHL" class="node">
<title>UK&#45;SHL</title>
<ellipse fill="none" stroke="black" cx="926.25" cy="-601.9" rx="48.19" ry="18"/>
<text text-anchor="middle" x="926.25" y="-598.2" font-family="Times,serif" font-size="14.00">UK&#45;SHL</text>
</g>
<!-- 01TG&#45;J&#45;&#45;UK&#45;SHL -->
<g id="edge41" class="edge">
<title>01TG&#45;J&#45;&#45;UK&#45;SHL</title>
<path fill="none" stroke="black" d="M924.32,-575.63C924.52,-578.31 924.72,-581.08 924.92,-583.76"/>
</g>
<!-- A1BK&#45;A -->
<g id="A1BK&#45;A" class="node">
<title>A1BK&#45;A</title>
<ellipse fill="none" stroke="black" cx="826.07" cy="-557.9" rx="45.5" ry="18"/>
<text text-anchor="middle" x="826.07" y="-554.2" font-family="Times,serif" font-size="14.00">A1BK&#45;A</text>
</g>
<!-- A1BK&#45;A&#45;&#45;U3SQ&#45;X -->
<g id="edge42" class="edge">
<title>A1BK&#45;A&#45;&#45;U3SQ&#45;X</title>
<path fill="none" stroke="black" d="M846.85,-541.65C851.78,-537.8 857.04,-533.69 861.96,-529.84"/>
</g>
<!-- 4&#45;MPSJ -->
<g id="4&#45;MPSJ" class="node">
<title>4&#45;MPSJ</title>
<ellipse fill="none" stroke="black" cx="1094.5" cy="-341.36" rx="45" ry="18"/>
<text text-anchor="middle" x="1094.5" y="-337.66" font-family="Times,serif" font-size="14.00">4&#45;MPSJ</text>
</g>
<!-- 4&#45;MPSJ&#45;&#45;N&#45;7ECY -->
<g id="edge43" class="edge">
<title>4&#45;MPSJ&#45;&#45;N&#45;7ECY</title>
<path fill="none" stroke="black" d="M1068.5,-326.59C1053.9,-318.32 1035.7,-308.01 1021,-299.68"/>
</g>
<!-- TWJ&#45;AW -->
<g id="TWJ&#45;AW" class="node">
<title>TWJ&#45;AW</title>
<ellipse fill="none" stroke="black" cx="1148" cy="-385.4" rx="48.19" ry="18"/>
<text text-anchor="middle" x="1148" y="-381.7" font-family="Times,serif" font-size="14.00">TWJ&#45;AW</text>
</g>
<!-- 4&#45;MPSJ&#45;&#45;TWJ&#45;AW -->
<g id="edge44" class="edge">
<title>4&#45;MPSJ&#45;&#45;TWJ&#45;AW</title>
<path fill="none" stroke="black" d="M1114.4,-357.76C1118.8,-361.38 1123.5,-365.21 1127.9,-368.84"/>
</g>
<!-- PZMA&#45;E -->
<g id="PZMA&#45;E" class="node">
<title>PZMA&#45;E</title>
<ellipse fill="none" stroke="black" cx="1165.9" cy="-448.53" rx="48.99" ry="18"/>
<text text-anchor="middle" x="1165.9" y="-444.83" font-family="Times,serif" font-size="14.00">PZMA&#45;E</text>
</g>
<!-- PZMA&#45;E&#45;&#45;TWJ&#45;AW -->
<g id="edge45" class="edge">
<title>PZMA&#45;E&#45;&#45;TWJ&#45;AW</title>
<path fill="none" stroke="black" d="M1160.8,-430.61C1158.4,-422.15 1155.6,-412.07 1153.1,-403.58"/>
</g>
<!-- 442&#45;CS -->
<g id="442&#45;CS" class="node">
<title>442&#45;CS</title>
<ellipse fill="none" stroke="black" cx="1248.3" cy="-404.46" rx="44.39" ry="18"/>
<text text-anchor="middle" x="1248.3" y="-400.76" font-family="Times,serif" font-size="14.00">442&#45;CS</text>
</g>
<!-- 442&#45;CS&#45;&#45;TWJ&#45;AW -->
<g id="edge46" class="edge">
<title>442&#45;CS&#45;&#45;TWJ&#45;AW</title>
<path fill="none" stroke="black" d="M1208.1,-396.82C1202.5,-395.76 1196.8,-394.67 1191.2,-393.61"/>
</g>
<!-- Z&#45;N9IP -->
<g id="Z&#45;N9IP" class="node">
<title>Z&#45;N9IP</title>
<ellipse fill="none" stroke="black" cx="1345" cy="-380.97" rx="43.59" ry="18"/>
<text text-anchor="middle" x="1345" y="-377.27" font-family="Times,serif" font-size="14.00">Z&#45;N9IP</text>
</g>
<!-- 442&#45;CS&#45;&#45;Z&#45;N9IP -->
<g id="edge47" class="edge">
<title>442&#45;CS&#45;&#45;Z&#45;N9IP</title>
<path fill="none" stroke="black" d="M1286.5,-395.18C1293.4,-393.51 1300.5,-391.77 1307.4,-390.11"/>
</g>
<!-- 9ZFH&#45;Z -->
<g id="9ZFH&#45;Z" class="node">
<title>9ZFH&#45;Z</title>
<ellipse fill="none" stroke="black" cx="1270.4" cy="-449.68" rx="46.29" ry="18"/>
<text text-anchor="middle" x="1270.4" y="-445.98" font-family="Times,serif" font-size="14.00">9ZFH&#45;Z</text>
</g>
<!-- 442&#45;CS&#45;&#45;9ZFH&#45;Z -->
<g id="edge48" class="edge">
<title>442&#45;CS&#45;&#45;9ZFH&#45;Z</title>
<path fill="none" stroke="black" d="M1257,-422.34C1258.6,-425.49 1260.2,-428.78 1261.7,-431.94"/>
</g>
<!-- 6E&#45;MOW -->
<g id="6E&#45;MOW" class="node">
<title>6E&#45;MOW</title>
<ellipse fill="none" stroke="black" cx="944.84" cy="-150.03" rx="52" ry="18"/>
<text text-anchor="middle" x="944.84" y="-146.33" font-family="Times,serif" font-size="14.00">6E&#45;MOW</text>
</g>
<!-- 6E&#45;MOW&#45;&#45;F&#45;3H2P -->
<g id="edge49" class="edge">
<title>6E&#45;MOW&#45;&#45;F&#45;3H2P</title>
<path fill="none" stroke="black" d="M926.67,-166.93C923.02,-170.33 919.18,-173.9 915.53,-177.29"/>
</g>
<!-- GBT4&#45;J -->
<g id="GBT4&#45;J" class="node">
<title>GBT4&#45;J</title>
<ellipse fill="none" stroke="black" cx="1047.8" cy="-128.1" rx="43" ry="18"/>
<text text-anchor="middle" x="1047.8" y="-124.4" font-family="Times,serif" font-size="14.00">GBT4&#45;J</text>
</g>
<!-- 6E&#45;MOW&#45;&#45;GBT4&#45;J -->
<g id="edge50" class="edge">
<title>6E&#45;MOW&#45;&#45;GBT4&#45;J</title>
<path fill="none" stroke="black" d="M989.39,-140.54C996.02,-139.13 1002.8,-137.68 1009.3,-136.3"/>
</g>
<!-- GZ1&#45;A1 -->
<g id="GZ1&#45;A1" class="node">
<title>GZ1&#45;A1</title>
<ellipse fill="none" stroke="black" cx="922.89" cy="-104.07" rx="45.5" ry="18"/>
<text text-anchor="middle" x="922.89" y="-100.37" font-family="Times,serif" font-size="14.00">GZ1&#45;A1</text>
</g>
<!-- 6E&#45;MOW&#45;&#45;GZ1&#45;A1 -->
<g id="edge51" class="edge">
<title>6E&#45;MOW&#45;&#45;GZ1&#45;A1</title>
<path fill="none" stroke="black" d="M936.29,-132.13C934.71,-128.8 933.04,-125.33 931.46,-122"/>
</g>
<!-- X&#45;0CKQ -->
<g id="X&#45;0CKQ" class="node">
<title>X&#45;0CKQ</title>
<ellipse fill="none" stroke="black" cx="1145.5" cy="-119.75" rx="47" ry="18"/>
<text text-anchor="middle" x="1145.5" y="-116.05" font-family="Times,serif" font-size="14.00">X&#45;0CKQ</text>
</g>
<!-- GBT4&#45;J&#45;&#45;X&#45;0CKQ -->
<g id="edge52" class="edge">
<title>GBT4&#45;J&#45;&#45;X&#45;0CKQ</title>
<path fill="none" stroke="black" d="M1089.8,-124.51C1093.1,-124.23 1096.5,-123.94 1099.8,-123.66"/>
</g>
<!-- LHGA&#45;W -->
<g id="LHGA&#45;W" class="node">
<title>LHGA&#45;W</title>
<ellipse fill="none" stroke="black" cx="979.01" cy="-50.91" rx="50.09" ry="18"/>
<text text-anchor="middle" x="979.01" y="-47.21" font-family="Times,serif" font-size="14.00">LHGA&#45;W</text>
</g>
<!-- GZ1&#45;A1&#45;&#45;LHGA&#45;W -->
<g id="edge53" class="edge">
<title>GZ1&#45;A1&#45;&#45;LHGA&#45;W</title>
<path fill="none" stroke="black" d="M940.65,-87.25C947.2,-81.04 954.62,-74.02 961.18,-67.8"/>
</g>
<!-- 6B&#45;GKA -->
<g id="6B&#45;GKA" class="node">
<title>6B&#45;GKA</title>
<ellipse fill="none" stroke="black" cx="865.04" cy="-59.97" rx="46.29" ry="18"/>
<text text-anchor="middle" x="865.04" y="-56.27" font-family="Times,serif" font-size="14.00">6B&#45;GKA</text>
</g>
<!-- 6B&#45;GKA&#45;&#45;GZ1&#45;A1 -->
<g id="edge54" class="edge">
<title>6B&#45;GKA&#45;&#45;GZ1&#45;A1</title>
<path fill="none" stroke="black" d="M886.25,-76.14C891.29,-79.98 896.65,-84.07 901.68,-87.9"/>
</g>
<!-- 4RS&#45;L1 -->
<g id="4RS&#45;L1" class="node">
<title>4RS&#45;L1</title>
<ellipse fill="none" stroke="black" cx="1092.7" cy="-75.7" rx="44.39" ry="18"/>
<text text-anchor="middle" x="1092.7" y="-72" font-family="Times,serif" font-size="14.00">4RS&#45;L1</text>
</g>
<!-- 4RS&#45;L1&#45;&#45;GBT4&#45;J -->
<g id="edge55" class="edge">
<title>4RS&#45;L1&#45;&#45;GBT4&#45;J</title>
<path fill="none" stroke="black" d="M1078,-92.86C1073,-98.71 1067.4,-105.25 1062.4,-111.09"/>
</g>
<!-- FR&#45;B1H -->
<g id="FR&#45;B1H" class="node">
<title>FR&#45;B1H</title>
<ellipse fill="none" stroke="black" cx="1327.5" cy="-272.42" rx="47.5" ry="18"/>
<text text-anchor="middle" x="1327.5" y="-268.72" font-family="Times,serif" font-size="14.00">FR&#45;B1H</text>
</g>
<!-- FR&#45;B1H&#45;&#45;WFYM&#45;0 -->
<g id="edge56" class="edge">
<title>FR&#45;B1H&#45;&#45;WFYM&#45;0</title>
<path fill="none" stroke="black" d="M1293.1,-259.93C1281.2,-255.64 1268,-250.82 1256,-246.49"/>
</g>
<!-- DDI&#45;B7 -->
<g id="DDI&#45;B7" class="node">
<title>DDI&#45;B7</title>
<ellipse fill="none" stroke="black" cx="1298.1" cy="-319.67" rx="44.39" ry="18"/>
<text text-anchor="middle" x="1298.1" y="-315.97" font-family="Times,serif" font-size="14.00">DDI&#45;B7</text>
</g>
<!-- DDI&#45;B7&#45;&#45;FG&#45;1GH -->
<g id="edge57" class="edge">
<title>DDI&#45;B7&#45;&#45;FG&#45;1GH</title>
<path fill="none" stroke="black" d="M1263.6,-308.29C1254.1,-305.15 1243.7,-301.73 1234.1,-298.56"/>
</g>
<!-- DDI&#45;B7&#45;&#45;FR&#45;B1H -->
<g id="edge58" class="edge">
<title>DDI&#45;B7&#45;&#45;FR&#45;B1H</title>
<path fill="none" stroke="black" d="M1309.1,-302.08C1311.5,-298.19 1314,-294.08 1316.5,-290.19"/>
</g>
</g>
</svg>
