<?xml version="1.0" encoding="UTF-8" standalone="no"?>
<!DOCTYPE svg PUBLIC "-//W3C//DTD SVG 1.1//EN"
 "http://www.w3.org/Graphics/SVG/1.1/DTD/svg11.dtd">
<!-- Generated by graphviz version 2.43.0 (0)
 -->
<!-- Pages: 1 -->
<svg width="1409pt" height="1638pt"
 viewBox="0.00 0.00 1409.30 1637.80" xmlns="http://www.w3.org/2000/svg" xmlns:xlink="http://www.w3.org/1999/xlink">
<g id="graph0" class="graph" transform="scale(1 1) rotate(0) translate(4 1633.8)">
<polygon fill="white" stroke="transparent" points="-4,4 -4,-1633.8 1405.3,-1633.8 1405.3,4 -4,4"/>
<!-- Amarr -->
<g id="Amarr" class="node">
<title>Amarr</title>
<polygon fill="none" stroke="black" points="131.72,-334.41 69.72,-334.41 69.72,-298.41 131.72,-298.41 131.72,-334.41"/>
<text text-anchor="middle" x="100.72" y="-312.71" font-family="Times,serif" font-size="14.00">Amarr</text>
</g>
<!-- Narai -->
<g id="Narai" class="node">
<title>Narai</title>
<polygon fill="none" stroke="black" points="682.12,-417.36 626.12,-417.36 626.12,-381.36 682.12,-381.36 682.12,-417.36"/>
<text text-anchor="middle" x="654.12" y="-395.66" font-family="Times,serif" font-size="14.00">Narai</text>
</g>
<!-- Sakhti -->
<g id="Sakhti" class="node">
<title>Sakhti</title>
<polygon fill="none" stroke="black" points="622.24,-36 560.24,-36 560.24,0 622.24,0 622.24,-36"/>
<text text-anchor="middle" x="591.24" y="-14.3" font-family="Times,serif" font-size="14.00">Sakhti</text>
</g>
<!-- Ervekam -->
<g id="Ervekam" class="node">
<title>Ervekam</title>
<polygon fill="none" stroke="black" points="85.44,-505.95 5.44,-505.95 5.44,-469.95 85.44,-469.95 85.44,-505.95"/>
<text text-anchor="middle" x="45.44" y="-484.25" font-family="Times,serif" font-size="14.00">Ervekam</text>
</g>
<!-- Molea -->
<g id="Molea" class="node">
<title>Molea</title>
<polygon fill="none" stroke="black" points="125.34,-238.16 65.34,-238.16 65.34,-202.16 125.34,-202.16 125.34,-238.16"/>
<text text-anchor="middle" x="95.34" y="-216.46" font-family="Times,serif" font-size="14.00">Molea</text>
</g>
<!-- Moniyyuku -->
<g id="Moniyyuku" class="node">
<title>Moniyyuku</title>
<polygon fill="none" stroke="black" points="730.43,-1241.2 635.43,-1241.2 635.43,-1205.2 730.43,-1205.2 730.43,-1241.2"/>
<text text-anchor="middle" x="682.93" y="-1219.5" font-family="Times,serif" font-size="14.00">Moniyyuku</text>
</g>
<!-- Nahrneder -->
<g id="Nahrneder" class="node">
<title>Nahrneder</title>
<polygon fill="none" stroke="black" points="1401.3,-1553.8 1307.3,-1553.8 1307.3,-1517.8 1401.3,-1517.8 1401.3,-1553.8"/>
<text text-anchor="middle" x="1354.3" y="-1532.1" font-family="Times,serif" font-size="14.00">Nahrneder</text>
</g>
<!-- Dantan -->
<g id="Dantan" class="node">
<title>Dantan</title>
<polygon fill="none" stroke="black" points="397.3,-459.76 329.3,-459.76 329.3,-423.76 397.3,-423.76 397.3,-459.76"/>
<text text-anchor="middle" x="363.3" y="-438.06" font-family="Times,serif" font-size="14.00">Dantan</text>
</g>
<!-- Suner -->
<g id="Suner" class="node">
<title>Suner</title>
<polygon fill="none" stroke="black" points="59,-410.19 0,-410.19 0,-374.19 59,-374.19 59,-410.19"/>
<text text-anchor="middle" x="29.5" y="-388.49" font-family="Times,serif" font-size="14.00">Suner</text>
</g>
<!-- Vehan -->
<g id="Vehan" class="node">
<title>Vehan</title>
<polygon fill="none" stroke="black" points="1092.2,-1034.2 1032.2,-1034.2 1032.2,-998.2 1092.2,-998.2 1092.2,-1034.2"/>
<text text-anchor="middle" x="1062.2" y="-1012.5" font-family="Times,serif" font-size="14.00">Vehan</text>
</g>
<!-- Fensi -->
<g id="Fensi" class="node">
<title>Fensi</title>
<ellipse fill="none" stroke="black" cx="577.94" cy="-399.39" rx="36" ry="18"/>
<text text-anchor="middle" x="577.94" y="-395.69" font-family="Times,serif" font-size="14.00">Fensi</text>
</g>
<!-- Fensi&#45;&#45;Narai -->
<g id="edge1" class="edge">
<title>Fensi&#45;&#45;Narai</title>
<path fill="none" stroke="black" d="M613.8,-399.38C617.81,-399.37 621.86,-399.37 625.76,-399.37"/>
</g>
<!-- Nebian -->
<g id="Nebian" class="node">
<title>Nebian</title>
<ellipse fill="none" stroke="black" cx="654.31" cy="-339.73" rx="44.39" ry="18"/>
<text text-anchor="middle" x="654.31" y="-336.03" font-family="Times,serif" font-size="14.00">Nebian</text>
</g>
<!-- Fensi&#45;&#45;Nebian -->
<g id="edge2" class="edge">
<title>Fensi&#45;&#45;Nebian</title>
<path fill="none" stroke="black" d="M597.61,-384.03C608.66,-375.39 622.44,-364.63 633.65,-355.87"/>
</g>
<!-- Rannoze -->
<g id="Rannoze" class="node">
<title>Rannoze</title>
<ellipse fill="none" stroke="black" cx="614.02" cy="-501.1" rx="50.09" ry="18"/>
<text text-anchor="middle" x="614.02" y="-497.4" font-family="Times,serif" font-size="14.00">Rannoze</text>
</g>
<!-- Fensi&#45;&#45;Rannoze -->
<g id="edge3" class="edge">
<title>Fensi&#45;&#45;Rannoze</title>
<path fill="none" stroke="black" d="M599.3,-414.36C607.97,-421.9 616.79,-431.9 620.44,-443.45 624.5,-456.32 622.55,-471.51 619.77,-483.06"/>
</g>
<!-- Noranim -->
<g id="Noranim" class="node">
<title>Noranim</title>
<polygon fill="none" stroke="black" points="787.69,-317.59 708.69,-317.59 708.69,-281.59 787.69,-281.59 787.69,-317.59"/>
<text text-anchor="middle" x="748.19" y="-295.89" font-family="Times,serif" font-size="14.00">Noranim</text>
</g>
<!-- Nebian&#45;&#45;Noranim -->
<g id="edge4" class="edge">
<title>Nebian&#45;&#45;Noranim</title>
<path fill="none" stroke="black" d="M685.05,-326.59C692.54,-323.39 700.65,-319.92 708.49,-316.57"/>
</g>
<!-- Khabara -->
<g id="Khabara" class="node">
<title>Khabara</title>
<ellipse fill="none" stroke="black" cx="756.9" cy="-343.64" rx="50.09" ry="18"/>
<text text-anchor="middle" x="756.9" y="-339.94" font-family="Times,serif" font-size="14.00">Khabara</text>
</g>
<!-- Khabara&#45;&#45;Nebian -->
<g id="edge5" class="edge">
<title>Khabara&#45;&#45;Nebian</title>
<path fill="none" stroke="black" d="M707.11,-341.74C704.25,-341.63 701.39,-341.52 698.55,-341.41"/>
</g>
<!-- Jeni -->
<g id="Jeni" class="node">
<title>Jeni</title>
<ellipse fill="none" stroke="black" cx="677.07" cy="-255.57" rx="28.7" ry="18"/>
<text text-anchor="middle" x="677.07" y="-251.87" font-family="Times,serif" font-size="14.00">Jeni</text>
</g>
<!-- Jeni&#45;&#45;Nebian -->
<g id="edge6" class="edge">
<title>Jeni&#45;&#45;Nebian</title>
<path fill="none" stroke="black" d="M672.25,-273.41C668.41,-287.6 663.07,-307.36 659.21,-321.61"/>
</g>
<!-- Jeni&#45;&#45;Khabara -->
<g id="edge7" class="edge">
<title>Jeni&#45;&#45;Khabara</title>
<path fill="none" stroke="black" d="M681.1,-273.67C685.12,-288.05 692.61,-307.82 705.49,-320.79 709.62,-324.95 714.64,-328.42 719.9,-331.28"/>
</g>
<!-- Bridi -->
<g id="Bridi" class="node">
<title>Bridi</title>
<ellipse fill="none" stroke="black" cx="527.95" cy="-355.37" rx="34" ry="18"/>
<text text-anchor="middle" x="527.95" y="-351.67" font-family="Times,serif" font-size="14.00">Bridi</text>
</g>
<!-- Bridi&#45;&#45;Fensi -->
<g id="edge8" class="edge">
<title>Bridi&#45;&#45;Fensi</title>
<path fill="none" stroke="black" d="M545.72,-371.01C550.32,-375.07 555.28,-379.43 559.9,-383.5"/>
</g>
<!-- Ami -->
<g id="Ami" class="node">
<title>Ami</title>
<ellipse fill="none" stroke="black" cx="457.55" cy="-357.89" rx="28.7" ry="18"/>
<text text-anchor="middle" x="457.55" y="-354.19" font-family="Times,serif" font-size="14.00">Ami</text>
</g>
<!-- Ami&#45;&#45;Fensi -->
<g id="edge9" class="edge">
<title>Ami&#45;&#45;Fensi</title>
<path fill="none" stroke="black" d="M482.78,-366.59C501.82,-373.15 527.98,-382.17 548.06,-389.09"/>
</g>
<!-- Ami&#45;&#45;Bridi -->
<g id="edge10" class="edge">
<title>Ami&#45;&#45;Bridi</title>
<path fill="none" stroke="black" d="M486.18,-356.86C488.77,-356.77 491.41,-356.68 494.04,-356.58"/>
</g>
<!-- Daran -->
<g id="Daran" class="node">
<title>Daran</title>
<ellipse fill="none" stroke="black" cx="503.02" cy="-261.06" rx="39" ry="18"/>
<text text-anchor="middle" x="503.02" y="-257.36" font-family="Times,serif" font-size="14.00">Daran</text>
</g>
<!-- Ami&#45;&#45;Daran -->
<g id="edge11" class="edge">
<title>Ami&#45;&#45;Daran</title>
<path fill="none" stroke="black" d="M465.67,-340.58C473.85,-323.17 486.39,-296.46 494.65,-278.88"/>
</g>
<!-- Pananan -->
<g id="Pananan" class="node">
<title>Pananan</title>
<ellipse fill="none" stroke="black" cx="548.39" cy="-180.22" rx="50.09" ry="18"/>
<text text-anchor="middle" x="548.39" y="-176.52" font-family="Times,serif" font-size="14.00">Pananan</text>
</g>
<!-- Daran&#45;&#45;Pananan -->
<g id="edge12" class="edge">
<title>Daran&#45;&#45;Pananan</title>
<path fill="none" stroke="black" d="M512.86,-243.52C520.42,-230.05 530.81,-211.53 538.4,-198"/>
</g>
<!-- Amdonen -->
<g id="Amdonen" class="node">
<title>Amdonen</title>
<ellipse fill="none" stroke="black" cx="360.22" cy="-387.65" rx="54" ry="18"/>
<text text-anchor="middle" x="360.22" y="-383.95" font-family="Times,serif" font-size="14.00">Amdonen</text>
</g>
<!-- Amdonen&#45;&#45;Dantan -->
<g id="edge13" class="edge">
<title>Amdonen&#45;&#45;Dantan</title>
<path fill="none" stroke="black" d="M361.24,-405.67C361.57,-411.45 361.94,-417.85 362.27,-423.64"/>
</g>
<!-- Amdonen&#45;&#45;Ami -->
<g id="edge14" class="edge">
<title>Amdonen&#45;&#45;Ami</title>
<path fill="none" stroke="black" d="M400.08,-375.46C410.79,-372.18 422.09,-368.73 431.81,-365.76"/>
</g>
<!-- Mora -->
<g id="Mora" class="node">
<title>Mora</title>
<ellipse fill="none" stroke="black" cx="296.96" cy="-506.27" rx="35.19" ry="18"/>
<text text-anchor="middle" x="296.96" y="-502.57" font-family="Times,serif" font-size="14.00">Mora</text>
</g>
<!-- Amdonen&#45;&#45;Mora -->
<g id="edge15" class="edge">
<title>Amdonen&#45;&#45;Mora</title>
<path fill="none" stroke="black" d="M339.73,-404.35C334.75,-409.17 329.81,-414.72 326.1,-420.56 322.4,-426.4 310.01,-464.72 302.63,-488.1"/>
</g>
<!-- Kor&#45;Azor Prime -->
<g id="Kor&#45;Azor Prime" class="node">
<title>Kor&#45;Azor Prime</title>
<ellipse fill="none" stroke="black" cx="221.07" cy="-343.65" rx="81.49" ry="18"/>
<text text-anchor="middle" x="221.07" y="-339.95" font-family="Times,serif" font-size="14.00">Kor&#45;Azor Prime</text>
</g>
<!-- Amdonen&#45;&#45;Kor&#45;Azor Prime -->
<g id="edge16" class="edge">
<title>Amdonen&#45;&#45;Kor&#45;Azor Prime</title>
<path fill="none" stroke="black" d="M320.72,-375.16C304.24,-369.95 284.99,-363.86 267.82,-358.43"/>
</g>
<!-- Leva -->
<g id="Leva" class="node">
<title>Leva</title>
<ellipse fill="none" stroke="black" cx="214.33" cy="-394.06" rx="32.5" ry="18"/>
<text text-anchor="middle" x="214.33" y="-390.36" font-family="Times,serif" font-size="14.00">Leva</text>
</g>
<!-- Amdonen&#45;&#45;Leva -->
<g id="edge17" class="edge">
<title>Amdonen&#45;&#45;Leva</title>
<path fill="none" stroke="black" d="M306.72,-390C286.72,-390.88 264.61,-391.85 247.03,-392.62"/>
</g>
<!-- Nishah -->
<g id="Nishah" class="node">
<title>Nishah</title>
<ellipse fill="none" stroke="black" cx="300.47" cy="-299.6" rx="43.59" ry="18"/>
<text text-anchor="middle" x="300.47" y="-295.9" font-family="Times,serif" font-size="14.00">Nishah</text>
</g>
<!-- Amdonen&#45;&#45;Nishah -->
<g id="edge18" class="edge">
<title>Amdonen&#45;&#45;Nishah</title>
<path fill="none" stroke="black" d="M348.13,-369.83C337.69,-354.45 322.71,-332.37 312.34,-317.09"/>
</g>
<!-- Sehmy -->
<g id="Sehmy" class="node">
<title>Sehmy</title>
<ellipse fill="none" stroke="black" cx="266.53" cy="-462.21" rx="42.49" ry="18"/>
<text text-anchor="middle" x="266.53" y="-458.51" font-family="Times,serif" font-size="14.00">Sehmy</text>
</g>
<!-- Mora&#45;&#45;Sehmy -->
<g id="edge19" class="edge">
<title>Mora&#45;&#45;Sehmy</title>
<path fill="none" stroke="black" d="M285.11,-489.11C282.97,-486.01 280.74,-482.79 278.6,-479.69"/>
</g>
<!-- Polfaly -->
<g id="Polfaly" class="node">
<title>Polfaly</title>
<ellipse fill="none" stroke="black" cx="373.3" cy="-578.05" rx="42.49" ry="18"/>
<text text-anchor="middle" x="373.3" y="-574.35" font-family="Times,serif" font-size="14.00">Polfaly</text>
</g>
<!-- Mora&#45;&#45;Polfaly -->
<g id="edge20" class="edge">
<title>Mora&#45;&#45;Polfaly</title>
<path fill="none" stroke="black" d="M313.9,-522.2C326.29,-533.85 343.05,-549.61 355.6,-561.42"/>
</g>
<!-- Kor&#45;Azor Prime&#45;&#45;Amarr -->
<g id="edge21" class="edge">
<title>Kor&#45;Azor Prime&#45;&#45;Amarr</title>
<path fill="none" stroke="black" d="M164.07,-330.75C153.01,-328.24 141.81,-325.71 131.96,-323.48"/>
</g>
<!-- Kor&#45;Azor Prime&#45;&#45;Leva -->
<g id="edge22" class="edge">
<title>Kor&#45;Azor Prime&#45;&#45;Leva</title>
<path fill="none" stroke="black" d="M218.64,-361.85C218.02,-366.47 217.35,-371.44 216.74,-376.05"/>
</g>
<!-- Kor&#45;Azor Prime&#45;&#45;Sehmy -->
<g id="edge23" class="edge">
<title>Kor&#45;Azor Prime&#45;&#45;Sehmy</title>
<path fill="none" stroke="black" d="M232.29,-361.84C237.72,-371.23 244.01,-383.01 248.42,-394.13 254.97,-410.61 259.91,-430.26 262.97,-444.21"/>
</g>
<!-- Nakregde -->
<g id="Nakregde" class="node">
<title>Nakregde</title>
<ellipse fill="none" stroke="black" cx="178.96" cy="-272.36" rx="56" ry="18"/>
<text text-anchor="middle" x="178.96" y="-268.66" font-family="Times,serif" font-size="14.00">Nakregde</text>
</g>
<!-- Kor&#45;Azor Prime&#45;&#45;Nakregde -->
<g id="edge24" class="edge">
<title>Kor&#45;Azor Prime&#45;&#45;Nakregde</title>
<path fill="none" stroke="black" d="M210.44,-325.66C204.01,-314.77 195.84,-300.94 189.44,-290.09"/>
</g>
<!-- Masanuh -->
<g id="Masanuh" class="node">
<title>Masanuh</title>
<ellipse fill="none" stroke="black" cx="120.42" cy="-434.66" rx="53.5" ry="18"/>
<text text-anchor="middle" x="120.42" y="-430.96" font-family="Times,serif" font-size="14.00">Masanuh</text>
</g>
<!-- Leva&#45;&#45;Masanuh -->
<g id="edge25" class="edge">
<title>Leva&#45;&#45;Masanuh</title>
<path fill="none" stroke="black" d="M188.67,-405.15C177.81,-409.85 165.02,-415.38 153.46,-420.37"/>
</g>
<!-- Nakregde&#45;&#45;Molea -->
<g id="edge26" class="edge">
<title>Nakregde&#45;&#45;Molea</title>
<path fill="none" stroke="black" d="M152.96,-256.13C143.85,-250.44 133.57,-244.02 124.24,-238.2"/>
</g>
<!-- Masanuh&#45;&#45;Ervekam -->
<g id="edge27" class="edge">
<title>Masanuh&#45;&#45;Ervekam</title>
<path fill="none" stroke="black" d="M97.51,-450.94C89.07,-456.94 79.46,-463.77 70.81,-469.91"/>
</g>
<!-- Masanuh&#45;&#45;Suner -->
<g id="edge28" class="edge">
<title>Masanuh&#45;&#45;Suner</title>
<path fill="none" stroke="black" d="M89.13,-420.04C79.37,-415.48 68.64,-410.47 59.01,-405.97"/>
</g>
<!-- Danyana -->
<g id="Danyana" class="node">
<title>Danyana</title>
<ellipse fill="none" stroke="black" cx="391.43" cy="-490.01" rx="51.5" ry="18"/>
<text text-anchor="middle" x="391.43" y="-486.31" font-family="Times,serif" font-size="14.00">Danyana</text>
</g>
<!-- Danyana&#45;&#45;Dantan -->
<g id="edge29" class="edge">
<title>Danyana&#45;&#45;Dantan</title>
<path fill="none" stroke="black" d="M381.12,-472.31C378.73,-468.23 376.19,-463.87 373.8,-459.77"/>
</g>
<!-- Danyana&#45;&#45;Sehmy -->
<g id="edge30" class="edge">
<title>Danyana&#45;&#45;Sehmy</title>
<path fill="none" stroke="black" d="M347.75,-480.28C333.54,-477.12 317.9,-473.64 304.17,-470.59"/>
</g>
<!-- Danyana&#45;&#45;Polfaly -->
<g id="edge31" class="edge">
<title>Danyana&#45;&#45;Polfaly</title>
<path fill="none" stroke="black" d="M387.67,-508.25C384.56,-523.36 380.16,-544.73 377.05,-559.83"/>
</g>
<!-- Nahyeen -->
<g id="Nahyeen" class="node">
<title>Nahyeen</title>
<ellipse fill="none" stroke="black" cx="474.21" cy="-424.55" rx="52" ry="18"/>
<text text-anchor="middle" x="474.21" y="-420.85" font-family="Times,serif" font-size="14.00">Nahyeen</text>
</g>
<!-- Danyana&#45;&#45;Nahyeen -->
<g id="edge32" class="edge">
<title>Danyana&#45;&#45;Nahyeen</title>
<path fill="none" stroke="black" d="M412.32,-473.49C424.87,-463.57 440.78,-450.99 453.33,-441.07"/>
</g>
<!-- Nibainkier -->
<g id="Nibainkier" class="node">
<title>Nibainkier</title>
<ellipse fill="none" stroke="black" cx="469.52" cy="-534.04" rx="60" ry="18"/>
<text text-anchor="middle" x="469.52" y="-530.34" font-family="Times,serif" font-size="14.00">Nibainkier</text>
</g>
<!-- Danyana&#45;&#45;Nibainkier -->
<g id="edge33" class="edge">
<title>Danyana&#45;&#45;Nibainkier</title>
<path fill="none" stroke="black" d="M418.74,-505.41C426.04,-509.53 433.94,-513.98 441.29,-518.13"/>
</g>
<!-- Nahyeen&#45;&#45;Nibainkier -->
<g id="edge34" class="edge">
<title>Nahyeen&#45;&#45;Nibainkier</title>
<path fill="none" stroke="black" d="M461.23,-442.38C455.58,-451.7 450.07,-463.6 449.34,-475.37 448.46,-489.56 453.85,-504.72 459.28,-516.07"/>
</g>
<!-- Nibainkier&#45;&#45;Polfaly -->
<g id="edge35" class="edge">
<title>Nibainkier&#45;&#45;Polfaly</title>
<path fill="none" stroke="black" d="M436.4,-549.19C425.31,-554.26 413.04,-559.87 402.29,-564.79"/>
</g>
<!-- Shokal -->
<g id="Shokal" class="node">
<title>Shokal</title>
<ellipse fill="none" stroke="black" cx="500.67" cy="-584.55" rx="42.49" ry="18"/>
<text text-anchor="middle" x="500.67" y="-580.85" font-family="Times,serif" font-size="14.00">Shokal</text>
</g>
<!-- Nibainkier&#45;&#45;Shokal -->
<g id="edge36" class="edge">
<title>Nibainkier&#45;&#45;Shokal</title>
<path fill="none" stroke="black" d="M480.59,-551.99C483.6,-556.87 486.85,-562.14 489.84,-567"/>
</g>
<!-- Zatamaka -->
<g id="Zatamaka" class="node">
<title>Zatamaka</title>
<ellipse fill="none" stroke="black" cx="584.36" cy="-639.7" rx="56.59" ry="18"/>
<text text-anchor="middle" x="584.36" y="-636" font-family="Times,serif" font-size="14.00">Zatamaka</text>
</g>
<!-- Shokal&#45;&#45;Zatamaka -->
<g id="edge37" class="edge">
<title>Shokal&#45;&#45;Zatamaka</title>
<path fill="none" stroke="black" d="M523.98,-599.91C535.11,-607.24 548.42,-616.02 559.72,-623.46"/>
</g>
<!-- Jinkah -->
<g id="Jinkah" class="node">
<title>Jinkah</title>
<ellipse fill="none" stroke="black" cx="490.59" cy="-475.49" rx="39.79" ry="18"/>
<text text-anchor="middle" x="490.59" y="-471.79" font-family="Times,serif" font-size="14.00">Jinkah</text>
</g>
<!-- Jinkah&#45;&#45;Nahyeen -->
<g id="edge38" class="edge">
<title>Jinkah&#45;&#45;Nahyeen</title>
<path fill="none" stroke="black" d="M484.86,-457.67C483.31,-452.85 481.63,-447.63 480.08,-442.79"/>
</g>
<!-- Jinkah&#45;&#45;Nibainkier -->
<g id="edge39" class="edge">
<title>Jinkah&#45;&#45;Nibainkier</title>
<path fill="none" stroke="black" d="M484.15,-493.37C481.58,-500.5 478.63,-508.7 476.06,-515.86"/>
</g>
<!-- Andrub -->
<g id="Andrub" class="node">
<title>Andrub</title>
<ellipse fill="none" stroke="black" cx="411.07" cy="-302.26" rx="45" ry="18"/>
<text text-anchor="middle" x="411.07" y="-298.56" font-family="Times,serif" font-size="14.00">Andrub</text>
</g>
<!-- Andrub&#45;&#45;Nahyeen -->
<g id="edge40" class="edge">
<title>Andrub&#45;&#45;Nahyeen</title>
<path fill="none" stroke="black" d="M415,-320.2C417.76,-331.29 421.92,-345.66 427.35,-357.75 435.54,-375.97 448.92,-394.39 459.3,-407.26"/>
</g>
<!-- Nahol -->
<g id="Nahol" class="node">
<title>Nahol</title>
<ellipse fill="none" stroke="black" cx="400.84" cy="-186.49" rx="38.5" ry="18"/>
<text text-anchor="middle" x="400.84" y="-182.79" font-family="Times,serif" font-size="14.00">Nahol</text>
</g>
<!-- Andrub&#45;&#45;Nahol -->
<g id="edge41" class="edge">
<title>Andrub&#45;&#45;Nahol</title>
<path fill="none" stroke="black" d="M409.47,-284.17C407.56,-262.55 404.38,-226.57 402.46,-204.84"/>
</g>
<!-- Tadadan -->
<g id="Tadadan" class="node">
<title>Tadadan</title>
<ellipse fill="none" stroke="black" cx="471" cy="-113.62" rx="50.09" ry="18"/>
<text text-anchor="middle" x="471" y="-109.92" font-family="Times,serif" font-size="14.00">Tadadan</text>
</g>
<!-- Nahol&#45;&#45;Tadadan -->
<g id="edge42" class="edge">
<title>Nahol&#45;&#45;Tadadan</title>
<path fill="none" stroke="black" d="M416.76,-169.96C428,-158.28 443.02,-142.68 454.41,-130.85"/>
</g>
<!-- Tralasa -->
<g id="Tralasa" class="node">
<title>Tralasa</title>
<ellipse fill="none" stroke="black" cx="368.02" cy="-96.94" rx="45" ry="18"/>
<text text-anchor="middle" x="368.02" y="-93.24" font-family="Times,serif" font-size="14.00">Tralasa</text>
</g>
<!-- Nahol&#45;&#45;Tralasa -->
<g id="edge43" class="edge">
<title>Nahol&#45;&#45;Tralasa</title>
<path fill="none" stroke="black" d="M394.2,-168.37C388.51,-152.84 380.35,-130.57 374.66,-115.04"/>
</g>
<!-- Kulu -->
<g id="Kulu" class="node">
<title>Kulu</title>
<ellipse fill="none" stroke="black" cx="740.73" cy="-1161.3" rx="32.5" ry="18"/>
<text text-anchor="middle" x="740.73" y="-1157.6" font-family="Times,serif" font-size="14.00">Kulu</text>
</g>
<!-- Kulu&#45;&#45;Moniyyuku -->
<g id="edge44" class="edge">
<title>Kulu&#45;&#45;Moniyyuku</title>
<path fill="none" stroke="black" d="M725.54,-1177.6C717.65,-1186.1 707.98,-1196.4 699.85,-1205.1"/>
</g>
<!-- Soumi -->
<g id="Soumi" class="node">
<title>Soumi</title>
<ellipse fill="none" stroke="black" cx="821.63" cy="-1140.8" rx="40.5" ry="18"/>
<text text-anchor="middle" x="821.63" y="-1137.1" font-family="Times,serif" font-size="14.00">Soumi</text>
</g>
<!-- Kulu&#45;&#45;Soumi -->
<g id="edge45" class="edge">
<title>Kulu&#45;&#45;Soumi</title>
<path fill="none" stroke="black" d="M770.39,-1153.8C775.62,-1152.5 781.12,-1151.1 786.48,-1149.7"/>
</g>
<!-- Choga -->
<g id="Choga" class="node">
<title>Choga</title>
<ellipse fill="none" stroke="black" cx="764.59" cy="-1085.1" rx="40.5" ry="18"/>
<text text-anchor="middle" x="764.59" y="-1081.4" font-family="Times,serif" font-size="14.00">Choga</text>
</g>
<!-- Choga&#45;&#45;Kulu -->
<g id="edge46" class="edge">
<title>Choga&#45;&#45;Kulu</title>
<path fill="none" stroke="black" d="M758.93,-1103.2C755.13,-1115.3 750.14,-1131.3 746.34,-1143.4"/>
</g>
<!-- Choga&#45;&#45;Soumi -->
<g id="edge47" class="edge">
<title>Choga&#45;&#45;Soumi</title>
<path fill="none" stroke="black" d="M781.39,-1101.5C788.76,-1108.7 797.38,-1117.1 804.75,-1124.3"/>
</g>
<!-- Imih -->
<g id="Imih" class="node">
<title>Imih</title>
<ellipse fill="none" stroke="black" cx="830.83" cy="-1023.9" rx="32" ry="18"/>
<text text-anchor="middle" x="830.83" y="-1020.2" font-family="Times,serif" font-size="14.00">Imih</text>
</g>
<!-- Choga&#45;&#45;Imih -->
<g id="edge48" class="edge">
<title>Choga&#45;&#45;Imih</title>
<path fill="none" stroke="black" d="M782.34,-1068.7C792.15,-1059.7 804.27,-1048.5 813.94,-1039.5"/>
</g>
<!-- Nare -->
<g id="Nare" class="node">
<title>Nare</title>
<ellipse fill="none" stroke="black" cx="893.19" cy="-1087.9" rx="34" ry="18"/>
<text text-anchor="middle" x="893.19" y="-1084.2" font-family="Times,serif" font-size="14.00">Nare</text>
</g>
<!-- Imih&#45;&#45;Nare -->
<g id="edge49" class="edge">
<title>Imih&#45;&#45;Nare</title>
<path fill="none" stroke="black" d="M846.24,-1039.8C855.77,-1049.5 867.95,-1062 877.52,-1071.8"/>
</g>
<!-- Liparer -->
<g id="Liparer" class="node">
<title>Liparer</title>
<ellipse fill="none" stroke="black" cx="814.33" cy="-937.24" rx="45" ry="18"/>
<text text-anchor="middle" x="814.33" y="-933.54" font-family="Times,serif" font-size="14.00">Liparer</text>
</g>
<!-- Imih&#45;&#45;Liparer -->
<g id="edge50" class="edge">
<title>Imih&#45;&#45;Liparer</title>
<path fill="none" stroke="black" d="M827.41,-1006C824.6,-991.2 820.63,-970.34 817.8,-955.48"/>
</g>
<!-- Nare&#45;&#45;Soumi -->
<g id="edge51" class="edge">
<title>Nare&#45;&#45;Soumi</title>
<path fill="none" stroke="black" d="M873.26,-1102.6C863.75,-1109.7 852.36,-1118.1 842.71,-1125.2"/>
</g>
<!-- Zinkon -->
<g id="Zinkon" class="node">
<title>Zinkon</title>
<ellipse fill="none" stroke="black" cx="977.5" cy="-1045" rx="42.49" ry="18"/>
<text text-anchor="middle" x="977.5" y="-1041.3" font-family="Times,serif" font-size="14.00">Zinkon</text>
</g>
<!-- Nare&#45;&#45;Zinkon -->
<g id="edge52" class="edge">
<title>Nare&#45;&#45;Zinkon</title>
<path fill="none" stroke="black" d="M918.03,-1075.3C928.13,-1070.1 939.84,-1064.2 950.18,-1058.9"/>
</g>
<!-- Miroona -->
<g id="Miroona" class="node">
<title>Miroona</title>
<ellipse fill="none" stroke="black" cx="813.56" cy="-848.62" rx="49.5" ry="18"/>
<text text-anchor="middle" x="813.56" y="-844.92" font-family="Times,serif" font-size="14.00">Miroona</text>
</g>
<!-- Liparer&#45;&#45;Miroona -->
<g id="edge53" class="edge">
<title>Liparer&#45;&#45;Miroona</title>
<path fill="none" stroke="black" d="M814.17,-918.88C814.04,-903.57 813.85,-881.87 813.72,-866.66"/>
</g>
<!-- Zinkon&#45;&#45;Vehan -->
<g id="edge54" class="edge">
<title>Zinkon&#45;&#45;Vehan</title>
<path fill="none" stroke="black" d="M1011,-1033.7C1017.9,-1031.3 1025.2,-1028.8 1032,-1026.5"/>
</g>
<!-- Ranni -->
<g id="Ranni" class="node">
<title>Ranni</title>
<ellipse fill="none" stroke="black" cx="908.49" cy="-804.6" rx="37.89" ry="18"/>
<text text-anchor="middle" x="908.49" y="-800.9" font-family="Times,serif" font-size="14.00">Ranni</text>
</g>
<!-- Miroona&#45;&#45;Ranni -->
<g id="edge55" class="edge">
<title>Miroona&#45;&#45;Ranni</title>
<path fill="none" stroke="black" d="M844.12,-834.45C856.05,-828.92 869.61,-822.63 881.2,-817.26"/>
</g>
<!-- Kizama -->
<g id="Kizama" class="node">
<title>Kizama</title>
<ellipse fill="none" stroke="black" cx="944.05" cy="-1157.5" rx="45" ry="18"/>
<text text-anchor="middle" x="944.05" y="-1153.8" font-family="Times,serif" font-size="14.00">Kizama</text>
</g>
<!-- Kizama&#45;&#45;Nare -->
<g id="edge56" class="edge">
<title>Kizama&#45;&#45;Nare</title>
<path fill="none" stroke="black" d="M931.21,-1139.9C923.33,-1129.1 913.28,-1115.4 905.49,-1104.7"/>
</g>
<!-- Shaha -->
<g id="Shaha" class="node">
<title>Shaha</title>
<ellipse fill="none" stroke="black" cx="1002.5" cy="-1216.6" rx="39.79" ry="18"/>
<text text-anchor="middle" x="1002.5" y="-1212.9" font-family="Times,serif" font-size="14.00">Shaha</text>
</g>
<!-- Kizama&#45;&#45;Shaha -->
<g id="edge57" class="edge">
<title>Kizama&#45;&#45;Shaha</title>
<path fill="none" stroke="black" d="M960.65,-1174.3C968.62,-1182.3 978.14,-1191.9 986.09,-1200"/>
</g>
<!-- Neesher -->
<g id="Neesher" class="node">
<title>Neesher</title>
<ellipse fill="none" stroke="black" cx="1041" cy="-1289" rx="50.09" ry="18"/>
<text text-anchor="middle" x="1041" y="-1285.3" font-family="Times,serif" font-size="14.00">Neesher</text>
</g>
<!-- Neesher&#45;&#45;Shaha -->
<g id="edge58" class="edge">
<title>Neesher&#45;&#45;Shaha</title>
<path fill="none" stroke="black" d="M1031.5,-1271.1C1025.5,-1259.8 1017.9,-1245.4 1011.9,-1234.3"/>
</g>
<!-- Perbhe -->
<g id="Perbhe" class="node">
<title>Perbhe</title>
<ellipse fill="none" stroke="black" cx="1051" cy="-1371.4" rx="43.59" ry="18"/>
<text text-anchor="middle" x="1051" y="-1367.7" font-family="Times,serif" font-size="14.00">Perbhe</text>
</g>
<!-- Neesher&#45;&#45;Perbhe -->
<g id="edge59" class="edge">
<title>Neesher&#45;&#45;Perbhe</title>
<path fill="none" stroke="black" d="M1043.2,-1307.3C1044.9,-1320.9 1047.2,-1339.5 1048.8,-1353.2"/>
</g>
<!-- Misha -->
<g id="Misha" class="node">
<title>Misha</title>
<ellipse fill="none" stroke="black" cx="1089.2" cy="-1226.7" rx="39" ry="18"/>
<text text-anchor="middle" x="1089.2" y="-1223" font-family="Times,serif" font-size="14.00">Misha</text>
</g>
<!-- Misha&#45;&#45;Shaha -->
<g id="edge60" class="edge">
<title>Misha&#45;&#45;Shaha</title>
<path fill="none" stroke="black" d="M1051.2,-1222.3C1047.8,-1221.9 1044.4,-1221.5 1041.1,-1221.1"/>
</g>
<!-- Misha&#45;&#45;Neesher -->
<g id="edge61" class="edge">
<title>Misha&#45;&#45;Neesher</title>
<path fill="none" stroke="black" d="M1076.1,-1243.7C1069.4,-1252.4 1061.2,-1262.9 1054.5,-1271.5"/>
</g>
<!-- Ordion -->
<g id="Ordion" class="node">
<title>Ordion</title>
<ellipse fill="none" stroke="black" cx="1178.8" cy="-1202.7" rx="42.49" ry="18"/>
<text text-anchor="middle" x="1178.8" y="-1199" font-family="Times,serif" font-size="14.00">Ordion</text>
</g>
<!-- Misha&#45;&#45;Ordion -->
<g id="edge62" class="edge">
<title>Misha&#45;&#45;Ordion</title>
<path fill="none" stroke="black" d="M1123.1,-1217.7C1129.5,-1215.9 1136.3,-1214.1 1142.8,-1212.4"/>
</g>
<!-- Abath -->
<g id="Abath" class="node">
<title>Abath</title>
<ellipse fill="none" stroke="black" cx="1260.6" cy="-1503.1" rx="38.5" ry="18"/>
<text text-anchor="middle" x="1260.6" y="-1499.4" font-family="Times,serif" font-size="14.00">Abath</text>
</g>
<!-- Abath&#45;&#45;Nahrneder -->
<g id="edge63" class="edge">
<title>Abath&#45;&#45;Nahrneder</title>
<path fill="none" stroke="black" d="M1291.5,-1513.9C1296.5,-1515.6 1301.8,-1517.5 1307.1,-1519.3"/>
</g>
<!-- Schmaeel -->
<g id="Schmaeel" class="node">
<title>Schmaeel</title>
<ellipse fill="none" stroke="black" cx="1158.2" cy="-1494.3" rx="56" ry="18"/>
<text text-anchor="middle" x="1158.2" y="-1490.6" font-family="Times,serif" font-size="14.00">Schmaeel</text>
</g>
<!-- Abath&#45;&#45;Schmaeel -->
<g id="edge64" class="edge">
<title>Abath&#45;&#45;Schmaeel</title>
<path fill="none" stroke="black" d="M1222.8,-1499.9C1219.3,-1499.6 1215.8,-1499.3 1212.3,-1499"/>
</g>
<!-- Zorenyen -->
<g id="Zorenyen" class="node">
<title>Zorenyen</title>
<ellipse fill="none" stroke="black" cx="1078.8" cy="-1598" rx="54.69" ry="18"/>
<text text-anchor="middle" x="1078.8" y="-1594.3" font-family="Times,serif" font-size="14.00">Zorenyen</text>
</g>
<!-- Schmaeel&#45;&#45;Zorenyen -->
<g id="edge65" class="edge">
<title>Schmaeel&#45;&#45;Zorenyen</title>
<path fill="none" stroke="black" d="M1144.8,-1511.9C1130.1,-1531 1107,-1561.2 1092.3,-1580.3"/>
</g>
<!-- Mafra -->
<g id="Mafra" class="node">
<title>Mafra</title>
<ellipse fill="none" stroke="black" cx="1179.8" cy="-1555.4" rx="38.5" ry="18"/>
<text text-anchor="middle" x="1179.8" y="-1551.7" font-family="Times,serif" font-size="14.00">Mafra</text>
</g>
<!-- Mafra&#45;&#45;Schmaeel -->
<g id="edge66" class="edge">
<title>Mafra&#45;&#45;Schmaeel</title>
<path fill="none" stroke="black" d="M1173.4,-1537.4C1170.7,-1529.5 1167.4,-1520.3 1164.6,-1512.4"/>
</g>
<!-- Arzi -->
<g id="Arzi" class="node">
<title>Arzi</title>
<ellipse fill="none" stroke="black" cx="1036.9" cy="-1541.5" rx="29.5" ry="18"/>
<text text-anchor="middle" x="1036.9" y="-1537.8" font-family="Times,serif" font-size="14.00">Arzi</text>
</g>
<!-- Arzi&#45;&#45;Zorenyen -->
<g id="edge67" class="edge">
<title>Arzi&#45;&#45;Zorenyen</title>
<path fill="none" stroke="black" d="M1049.2,-1558.2C1054.4,-1565.2 1060.5,-1573.4 1065.8,-1580.5"/>
</g>
<!-- Arzi&#45;&#45;Mafra -->
<g id="edge68" class="edge">
<title>Arzi&#45;&#45;Mafra</title>
<path fill="none" stroke="black" d="M1065.8,-1544.3C1087.8,-1546.5 1118.3,-1549.4 1142.2,-1551.8"/>
</g>
<!-- Kerying -->
<g id="Kerying" class="node">
<title>Kerying</title>
<ellipse fill="none" stroke="black" cx="969.34" cy="-1611.8" rx="47" ry="18"/>
<text text-anchor="middle" x="969.34" y="-1608.1" font-family="Times,serif" font-size="14.00">Kerying</text>
</g>
<!-- Arzi&#45;&#45;Kerying -->
<g id="edge69" class="edge">
<title>Arzi&#45;&#45;Kerying</title>
<path fill="none" stroke="black" d="M1021.9,-1557.1C1011.2,-1568.3 996.72,-1583.3 985.7,-1594.8"/>
</g>
<!-- Oguser -->
<g id="Oguser" class="node">
<title>Oguser</title>
<ellipse fill="none" stroke="black" cx="1074.6" cy="-1450.3" rx="44.39" ry="18"/>
<text text-anchor="middle" x="1074.6" y="-1446.6" font-family="Times,serif" font-size="14.00">Oguser</text>
</g>
<!-- Arzi&#45;&#45;Oguser -->
<g id="edge70" class="edge">
<title>Arzi&#45;&#45;Oguser</title>
<path fill="none" stroke="black" d="M1044.1,-1523.9C1050.8,-1507.9 1060.5,-1484.3 1067.2,-1468.1"/>
</g>
<!-- Oguser&#45;&#45;Perbhe -->
<g id="edge71" class="edge">
<title>Oguser&#45;&#45;Perbhe</title>
<path fill="none" stroke="black" d="M1069.2,-1432.4C1065.4,-1419.6 1060.3,-1402.4 1056.4,-1389.5"/>
</g>
<!-- Oguser&#45;&#45;Schmaeel -->
<g id="edge72" class="edge">
<title>Oguser&#45;&#45;Schmaeel</title>
<path fill="none" stroke="black" d="M1102,-1464.7C1110.6,-1469.3 1120.3,-1474.3 1129.1,-1479"/>
</g>
<!-- Gademam -->
<g id="Gademam" class="node">
<title>Gademam</title>
<ellipse fill="none" stroke="black" cx="586.93" cy="-96.32" rx="58" ry="18"/>
<text text-anchor="middle" x="586.93" y="-92.62" font-family="Times,serif" font-size="14.00">Gademam</text>
</g>
<!-- Gademam&#45;&#45;Sakhti -->
<g id="edge73" class="edge">
<title>Gademam&#45;&#45;Sakhti</title>
<path fill="none" stroke="black" d="M587.93,-78.16C588.63,-65.5 589.55,-48.7 590.25,-36.07"/>
</g>
<!-- Gademam&#45;&#45;Pananan -->
<g id="edge74" class="edge">
<title>Gademam&#45;&#45;Pananan</title>
<path fill="none" stroke="black" d="M578.57,-114.52C572.06,-128.69 563.07,-148.25 556.6,-162.34"/>
</g>
<!-- Gademam&#45;&#45;Tadadan -->
<g id="edge75" class="edge">
<title>Gademam&#45;&#45;Tadadan</title>
<path fill="none" stroke="black" d="M534.73,-104.11C528.96,-104.97 523.11,-105.84 517.42,-106.69"/>
</g>
<!-- Latari -->
<g id="Latari" class="node">
<title>Latari</title>
<ellipse fill="none" stroke="black" cx="296.54" cy="-140.95" rx="38.5" ry="18"/>
<text text-anchor="middle" x="296.54" y="-137.25" font-family="Times,serif" font-size="14.00">Latari</text>
</g>
<!-- Latari&#45;&#45;Nahol -->
<g id="edge76" class="edge">
<title>Latari&#45;&#45;Nahol</title>
<path fill="none" stroke="black" d="M324.76,-153.28C339.61,-159.76 357.75,-167.68 372.59,-174.16"/>
</g>
<!-- Latari&#45;&#45;Tralasa -->
<g id="edge77" class="edge">
<title>Latari&#45;&#45;Tralasa</title>
<path fill="none" stroke="black" d="M319.94,-126.54C327.44,-121.93 335.75,-116.81 343.33,-112.14"/>
</g>
<!-- Atarli -->
<g id="Atarli" class="node">
<title>Atarli</title>
<ellipse fill="none" stroke="black" cx="602.43" cy="-586.05" rx="36.5" ry="18"/>
<text text-anchor="middle" x="602.43" y="-582.35" font-family="Times,serif" font-size="14.00">Atarli</text>
</g>
<!-- Atarli&#45;&#45;Rannoze -->
<g id="edge78" class="edge">
<title>Atarli&#45;&#45;Rannoze</title>
<path fill="none" stroke="black" d="M604.89,-568.03C606.85,-553.61 609.6,-533.5 611.56,-519.09"/>
</g>
<!-- Atarli&#45;&#45;Shokal -->
<g id="edge79" class="edge">
<title>Atarli&#45;&#45;Shokal</title>
<path fill="none" stroke="black" d="M565.98,-585.51C558.57,-585.4 550.71,-585.29 543.11,-585.17"/>
</g>
<!-- Atarli&#45;&#45;Zatamaka -->
<g id="edge80" class="edge">
<title>Atarli&#45;&#45;Zatamaka</title>
<path fill="none" stroke="black" d="M596.41,-603.91C594.48,-609.64 592.35,-615.99 590.42,-621.73"/>
</g>
<!-- Keproh -->
<g id="Keproh" class="node">
<title>Keproh</title>
<ellipse fill="none" stroke="black" cx="475.52" cy="-640.63" rx="44.39" ry="18"/>
<text text-anchor="middle" x="475.52" y="-636.93" font-family="Times,serif" font-size="14.00">Keproh</text>
</g>
<!-- Atarli&#45;&#45;Keproh -->
<g id="edge81" class="edge">
<title>Atarli&#45;&#45;Keproh</title>
<path fill="none" stroke="black" d="M574.89,-597.89C554.62,-606.61 527.07,-618.46 506.11,-627.47"/>
</g>
<!-- Piri -->
<g id="Piri" class="node">
<title>Piri</title>
<ellipse fill="none" stroke="black" cx="676.29" cy="-669.26" rx="27.5" ry="18"/>
<text text-anchor="middle" x="676.29" y="-665.56" font-family="Times,serif" font-size="14.00">Piri</text>
</g>
<!-- Atarli&#45;&#45;Piri -->
<g id="edge82" class="edge">
<title>Atarli&#45;&#45;Piri</title>
<path fill="none" stroke="black" d="M617.38,-602.89C630.53,-617.7 649.53,-639.11 662.36,-653.57"/>
</g>
<!-- Menai -->
<g id="Menai" class="node">
<title>Menai</title>
<polygon fill="none" stroke="black" points="731.12,-595.55 670.12,-595.55 670.12,-559.55 731.12,-559.55 731.12,-595.55"/>
<text text-anchor="middle" x="700.62" y="-573.85" font-family="Times,serif" font-size="14.00">Menai</text>
</g>
<!-- Atarli&#45;&#45;Menai -->
<g id="edge83" class="edge">
<title>Atarli&#45;&#45;Menai</title>
<path fill="none" stroke="black" d="M638.43,-582.93C648.83,-582.03 660.08,-581.06 670.11,-580.19"/>
</g>
<!-- Keproh&#45;&#45;Shokal -->
<g id="edge84" class="edge">
<title>Keproh&#45;&#45;Shokal</title>
<path fill="none" stroke="black" d="M483.47,-622.89C486.41,-616.34 489.74,-608.93 492.68,-602.37"/>
</g>
<!-- Keproh&#45;&#45;Zatamaka -->
<g id="edge85" class="edge">
<title>Keproh&#45;&#45;Zatamaka</title>
<path fill="none" stroke="black" d="M519.79,-640.25C522.38,-640.23 525,-640.21 527.63,-640.19"/>
</g>
<!-- Piri&#45;&#45;Zatamaka -->
<g id="edge86" class="edge">
<title>Piri&#45;&#45;Zatamaka</title>
<path fill="none" stroke="black" d="M651.65,-661.34C643.25,-658.64 633.63,-655.54 624.33,-652.55"/>
</g>
<!-- Enal -->
<g id="Enal" class="node">
<title>Enal</title>
<ellipse fill="none" stroke="black" cx="710" cy="-733.93" rx="32" ry="18"/>
<text text-anchor="middle" x="710" y="-730.23" font-family="Times,serif" font-size="14.00">Enal</text>
</g>
<!-- Enal&#45;&#45;Piri -->
<g id="edge87" class="edge">
<title>Enal&#45;&#45;Piri</title>
<path fill="none" stroke="black" d="M700.97,-716.6C696.13,-707.32 690.19,-695.92 685.35,-686.64"/>
</g>
<!-- Jedandan -->
<g id="Jedandan" class="node">
<title>Jedandan</title>
<ellipse fill="none" stroke="black" cx="757.88" cy="-794.26" rx="54" ry="18"/>
<text text-anchor="middle" x="757.88" y="-790.56" font-family="Times,serif" font-size="14.00">Jedandan</text>
</g>
<!-- Enal&#45;&#45;Jedandan -->
<g id="edge88" class="edge">
<title>Enal&#45;&#45;Jedandan</title>
<path fill="none" stroke="black" d="M723.09,-750.42C729.51,-758.51 737.25,-768.27 743.81,-776.52"/>
</g>
<!-- Jedandan&#45;&#45;Miroona -->
<g id="edge89" class="edge">
<title>Jedandan&#45;&#45;Miroona</title>
<path fill="none" stroke="black" d="M775.5,-811.46C782.12,-817.93 789.65,-825.27 796.25,-831.72"/>
</g>
<!-- Arza -->
<g id="Arza" class="node">
<title>Arza</title>
<ellipse fill="none" stroke="black" cx="993.37" cy="-770.65" rx="32" ry="18"/>
<text text-anchor="middle" x="993.37" y="-766.95" font-family="Times,serif" font-size="14.00">Arza</text>
</g>
<!-- Arza&#45;&#45;Ranni -->
<g id="edge90" class="edge">
<title>Arza&#45;&#45;Ranni</title>
<path fill="none" stroke="black" d="M966.98,-781.21C957.64,-784.95 947.08,-789.17 937.52,-792.99"/>
</g>
<!-- Annad -->
<g id="Annad" class="node">
<title>Annad</title>
<ellipse fill="none" stroke="black" cx="578.55" cy="-443.42" rx="40.5" ry="18"/>
<text text-anchor="middle" x="578.55" y="-439.72" font-family="Times,serif" font-size="14.00">Annad</text>
</g>
<!-- Annad&#45;&#45;Jinkah -->
<g id="edge91" class="edge">
<title>Annad&#45;&#45;Jinkah</title>
<path fill="none" stroke="black" d="M547.29,-454.82C538.99,-457.84 530.03,-461.11 521.74,-464.13"/>
</g>
<!-- Chaktaren -->
<g id="Chaktaren" class="node">
<title>Chaktaren</title>
<ellipse fill="none" stroke="black" cx="302.68" cy="-645.5" rx="59.29" ry="18"/>
<text text-anchor="middle" x="302.68" y="-641.8" font-family="Times,serif" font-size="14.00">Chaktaren</text>
</g>
<!-- Chaktaren&#45;&#45;Polfaly -->
<g id="edge92" class="edge">
<title>Chaktaren&#45;&#45;Polfaly</title>
<path fill="none" stroke="black" d="M320.86,-628.13C331.65,-617.83 345.26,-604.84 355.9,-594.67"/>
</g>
<!-- Conoban -->
<g id="Conoban" class="node">
<title>Conoban</title>
<ellipse fill="none" stroke="black" cx="220.74" cy="-565.69" rx="51.5" ry="18"/>
<text text-anchor="middle" x="220.74" y="-561.99" font-family="Times,serif" font-size="14.00">Conoban</text>
</g>
<!-- Conoban&#45;&#45;Mora -->
<g id="edge93" class="edge">
<title>Conoban&#45;&#45;Mora</title>
<path fill="none" stroke="black" d="M241.97,-549.14C253.16,-540.42 266.78,-529.8 277.66,-521.31"/>
</g>
</g>
</svg>
