<?xml version="1.0" encoding="UTF-8" standalone="no"?>
<!DOCTYPE svg PUBLIC "-//W3C//DTD SVG 1.1//EN"
 "http://www.w3.org/Graphics/SVG/1.1/DTD/svg11.dtd">
<!-- Generated by graphviz version 2.43.0 (0)
 -->
<!-- Pages: 1 -->
<svg width="898pt" height="534pt"
 viewBox="0.00 0.00 897.94 534.39" xmlns="http://www.w3.org/2000/svg" xmlns:xlink="http://www.w3.org/1999/xlink">
<g id="graph0" class="graph" transform="scale(1 1) rotate(0) translate(4 530.39)">
<polygon fill="white" stroke="transparent" points="-4,4 -4,-530.39 893.94,-530.39 893.94,4 -4,4"/>
<!-- Kenobanala -->
<g id="Kenobanala" class="node">
<title>Kenobanala</title>
<polygon fill="none" stroke="black" points="647.58,-526.39 548.58,-526.39 548.58,-490.39 647.58,-490.39 647.58,-526.39"/>
<text text-anchor="middle" x="598.08" y="-504.69" font-family="Times,serif" font-size="14.00">Kenobanala</text>
</g>
<!-- B&#45;VIP9 -->
<g id="B&#45;VIP9" class="node">
<title>B&#45;VIP9</title>
<polygon fill="none" stroke="black" points="750.62,-412.84 685.62,-412.84 685.62,-376.84 750.62,-376.84 750.62,-412.84"/>
<text text-anchor="middle" x="718.12" y="-391.14" font-family="Times,serif" font-size="14.00">B&#45;VIP9</text>
</g>
<!-- Aeddin -->
<g id="Aeddin" class="node">
<title>Aeddin</title>
<ellipse fill="none" stroke="black" cx="208.36" cy="-395.4" rx="43" ry="18"/>
<text text-anchor="middle" x="208.36" y="-391.7" font-family="Times,serif" font-size="14.00">Aeddin</text>
</g>
<!-- Gulfonodi -->
<g id="Gulfonodi" class="node">
<title>Gulfonodi</title>
<ellipse fill="none" stroke="black" cx="317.45" cy="-396.33" rx="56" ry="18"/>
<text text-anchor="middle" x="317.45" y="-392.63" font-family="Times,serif" font-size="14.00">Gulfonodi</text>
</g>
<!-- Aeddin&#45;&#45;Gulfonodi -->
<g id="edge1" class="edge">
<title>Aeddin&#45;&#45;Gulfonodi</title>
<path fill="none" stroke="black" d="M251.48,-395.77C254.69,-395.8 257.96,-395.82 261.24,-395.85"/>
</g>
<!-- Teonusude -->
<g id="Teonusude" class="node">
<title>Teonusude</title>
<ellipse fill="none" stroke="black" cx="319.69" cy="-351.05" rx="60.5" ry="18"/>
<text text-anchor="middle" x="319.69" y="-347.35" font-family="Times,serif" font-size="14.00">Teonusude</text>
</g>
<!-- Aeddin&#45;&#45;Teonusude -->
<g id="edge2" class="edge">
<title>Aeddin&#45;&#45;Teonusude</title>
<path fill="none" stroke="black" d="M239.67,-382.93C253.17,-377.55 269.06,-371.22 283.11,-365.63"/>
</g>
<!-- Austraka -->
<g id="Austraka" class="node">
<title>Austraka</title>
<polygon fill="none" stroke="black" points="240.28,-458.33 160.28,-458.33 160.28,-422.33 240.28,-422.33 240.28,-458.33"/>
<text text-anchor="middle" x="200.28" y="-436.63" font-family="Times,serif" font-size="14.00">Austraka</text>
</g>
<!-- Aeddin&#45;&#45;Austraka -->
<g id="edge3" class="edge">
<title>Aeddin&#45;&#45;Austraka</title>
<path fill="none" stroke="black" d="M205.12,-413.42C204.59,-416.35 204.05,-419.38 203.52,-422.31"/>
</g>
<!-- Gulfonodi&#45;&#45;Teonusude -->
<g id="edge4" class="edge">
<title>Gulfonodi&#45;&#45;Teonusude</title>
<path fill="none" stroke="black" d="M318.35,-378.18C318.5,-375.22 318.65,-372.17 318.79,-369.21"/>
</g>
<!-- Magiko -->
<g id="Magiko" class="node">
<title>Magiko</title>
<polygon fill="none" stroke="black" points="226.2,-360.5 157.2,-360.5 157.2,-324.5 226.2,-324.5 226.2,-360.5"/>
<text text-anchor="middle" x="191.7" y="-338.8" font-family="Times,serif" font-size="14.00">Magiko</text>
</g>
<!-- Teonusude&#45;&#45;Magiko -->
<g id="edge5" class="edge">
<title>Teonusude&#45;&#45;Magiko</title>
<path fill="none" stroke="black" d="M260.56,-347.1C248.9,-346.33 237.03,-345.53 226.49,-344.83"/>
</g>
<!-- Gelfiven -->
<g id="Gelfiven" class="node">
<title>Gelfiven</title>
<ellipse fill="none" stroke="black" cx="423.51" cy="-307.01" rx="48.99" ry="18"/>
<text text-anchor="middle" x="423.51" y="-303.31" font-family="Times,serif" font-size="14.00">Gelfiven</text>
</g>
<!-- Gelfiven&#45;&#45;Teonusude -->
<g id="edge6" class="edge">
<title>Gelfiven&#45;&#45;Teonusude</title>
<path fill="none" stroke="black" d="M391.23,-320.7C379.56,-325.65 366.34,-331.26 354.47,-336.3"/>
</g>
<!-- Oddelulf -->
<g id="Oddelulf" class="node">
<title>Oddelulf</title>
<ellipse fill="none" stroke="black" cx="316.58" cy="-265.58" rx="50.09" ry="18"/>
<text text-anchor="middle" x="316.58" y="-261.88" font-family="Times,serif" font-size="14.00">Oddelulf</text>
</g>
<!-- Gelfiven&#45;&#45;Oddelulf -->
<g id="edge7" class="edge">
<title>Gelfiven&#45;&#45;Oddelulf</title>
<path fill="none" stroke="black" d="M389.68,-293.9C377.32,-289.11 363.33,-283.7 350.93,-278.89"/>
</g>
<!-- Bosena -->
<g id="Bosena" class="node">
<title>Bosena</title>
<ellipse fill="none" stroke="black" cx="454.46" cy="-351.04" rx="44.39" ry="18"/>
<text text-anchor="middle" x="454.46" y="-347.34" font-family="Times,serif" font-size="14.00">Bosena</text>
</g>
<!-- Bosena&#45;&#45;Teonusude -->
<g id="edge8" class="edge">
<title>Bosena&#45;&#45;Teonusude</title>
<path fill="none" stroke="black" d="M409.96,-351.04C400.45,-351.05 390.26,-351.05 380.26,-351.05"/>
</g>
<!-- Bosena&#45;&#45;Oddelulf -->
<g id="edge9" class="edge">
<title>Bosena&#45;&#45;Oddelulf</title>
<path fill="none" stroke="black" d="M422.43,-338.35C411.16,-333.41 398.58,-327.35 387.68,-320.78 368.95,-309.48 349.44,-294.03 335.6,-282.35"/>
</g>
<!-- Heild -->
<g id="Heild" class="node">
<title>Heild</title>
<ellipse fill="none" stroke="black" cx="472.77" cy="-395.08" rx="36" ry="18"/>
<text text-anchor="middle" x="472.77" y="-391.38" font-family="Times,serif" font-size="14.00">Heild</text>
</g>
<!-- Bosena&#45;&#45;Heild -->
<g id="edge10" class="edge">
<title>Bosena&#45;&#45;Heild</title>
<path fill="none" stroke="black" d="M461.91,-368.95C463.06,-371.71 464.24,-374.57 465.39,-377.32"/>
</g>
<!-- Hrokkur -->
<g id="Hrokkur" class="node">
<title>Hrokkur</title>
<ellipse fill="none" stroke="black" cx="458.12" cy="-459.08" rx="49.5" ry="18"/>
<text text-anchor="middle" x="458.12" y="-455.38" font-family="Times,serif" font-size="14.00">Hrokkur</text>
</g>
<!-- Heild&#45;&#45;Hrokkur -->
<g id="edge11" class="edge">
<title>Heild&#45;&#45;Hrokkur</title>
<path fill="none" stroke="black" d="M468.61,-413.25C466.62,-421.97 464.23,-432.39 462.24,-441.09"/>
</g>
<!-- Atlar -->
<g id="Atlar" class="node">
<title>Atlar</title>
<ellipse fill="none" stroke="black" cx="353.89" cy="-221.54" rx="34" ry="18"/>
<text text-anchor="middle" x="353.89" y="-217.84" font-family="Times,serif" font-size="14.00">Atlar</text>
</g>
<!-- Atlar&#45;&#45;Gelfiven -->
<g id="edge12" class="edge">
<title>Atlar&#45;&#45;Gelfiven</title>
<path fill="none" stroke="black" d="M367.64,-238.43C379.69,-253.22 397.13,-274.62 409.31,-289.57"/>
</g>
<!-- Atlar&#45;&#45;Oddelulf -->
<g id="edge13" class="edge">
<title>Atlar&#45;&#45;Oddelulf</title>
<path fill="none" stroke="black" d="M339.78,-238.19C336.98,-241.51 334.02,-244.99 331.2,-248.32"/>
</g>
<!-- Illamur -->
<g id="Illamur" class="node">
<title>Illamur</title>
<ellipse fill="none" stroke="black" cx="351.43" cy="-177.52" rx="44.39" ry="18"/>
<text text-anchor="middle" x="351.43" y="-173.82" font-family="Times,serif" font-size="14.00">Illamur</text>
</g>
<!-- Atlar&#45;&#45;Illamur -->
<g id="edge14" class="edge">
<title>Atlar&#45;&#45;Illamur</title>
<path fill="none" stroke="black" d="M352.87,-203.38C352.73,-200.83 352.58,-198.2 352.44,-195.64"/>
</g>
<!-- Meildolf -->
<g id="Meildolf" class="node">
<title>Meildolf</title>
<ellipse fill="none" stroke="black" cx="351.58" cy="-120.35" rx="48.99" ry="18"/>
<text text-anchor="middle" x="351.58" y="-116.65" font-family="Times,serif" font-size="14.00">Meildolf</text>
</g>
<!-- Illamur&#45;&#45;Meildolf -->
<g id="edge15" class="edge">
<title>Illamur&#45;&#45;Meildolf</title>
<path fill="none" stroke="black" d="M351.47,-159.43C351.49,-152.76 351.51,-145.2 351.53,-138.52"/>
</g>
<!-- Orien -->
<g id="Orien" class="node">
<title>Orien</title>
<ellipse fill="none" stroke="black" cx="541.2" cy="-106.46" rx="36.5" ry="18"/>
<text text-anchor="middle" x="541.2" y="-102.76" font-family="Times,serif" font-size="14.00">Orien</text>
</g>
<!-- Meildolf&#45;&#45;Orien -->
<g id="edge16" class="edge">
<title>Meildolf&#45;&#45;Orien</title>
<path fill="none" stroke="black" d="M399.43,-116.84C432.23,-114.44 475.07,-111.3 505.04,-109.11"/>
</g>
<!-- Hrober -->
<g id="Hrober" class="node">
<title>Hrober</title>
<ellipse fill="none" stroke="black" cx="454.14" cy="-503.13" rx="44.39" ry="18"/>
<text text-anchor="middle" x="454.14" y="-499.43" font-family="Times,serif" font-size="14.00">Hrober</text>
</g>
<!-- Hrober&#45;&#45;Hrokkur -->
<g id="edge17" class="edge">
<title>Hrober&#45;&#45;Hrokkur</title>
<path fill="none" stroke="black" d="M455.78,-484.96C456.01,-482.4 456.25,-479.77 456.48,-477.21"/>
</g>
<!-- Aedald -->
<g id="Aedald" class="node">
<title>Aedald</title>
<ellipse fill="none" stroke="black" cx="558.79" cy="-420.34" rx="42.49" ry="18"/>
<text text-anchor="middle" x="558.79" y="-416.64" font-family="Times,serif" font-size="14.00">Aedald</text>
</g>
<!-- Aedald&#45;&#45;Heild -->
<g id="edge18" class="edge">
<title>Aedald&#45;&#45;Heild</title>
<path fill="none" stroke="black" d="M523.8,-410.07C517.2,-408.13 510.33,-406.11 503.86,-404.21"/>
</g>
<!-- Muttokon -->
<g id="Muttokon" class="node">
<title>Muttokon</title>
<ellipse fill="none" stroke="black" cx="593.36" cy="-363.91" rx="56" ry="18"/>
<text text-anchor="middle" x="593.36" y="-360.21" font-family="Times,serif" font-size="14.00">Muttokon</text>
</g>
<!-- Aedald&#45;&#45;Muttokon -->
<g id="edge19" class="edge">
<title>Aedald&#45;&#45;Muttokon</title>
<path fill="none" stroke="black" d="M569.54,-402.8C573.66,-396.07 578.36,-388.39 582.5,-381.64"/>
</g>
<!-- Audesder -->
<g id="Audesder" class="node">
<title>Audesder</title>
<ellipse fill="none" stroke="black" cx="588.93" cy="-464.38" rx="54.69" ry="18"/>
<text text-anchor="middle" x="588.93" y="-460.68" font-family="Times,serif" font-size="14.00">Audesder</text>
</g>
<!-- Aedald&#45;&#45;Audesder -->
<g id="edge20" class="edge">
<title>Aedald&#45;&#45;Audesder</title>
<path fill="none" stroke="black" d="M570.7,-437.75C572.74,-440.73 574.87,-443.83 576.91,-446.81"/>
</g>
<!-- Audesder&#45;&#45;Kenobanala -->
<g id="edge21" class="edge">
<title>Audesder&#45;&#45;Kenobanala</title>
<path fill="none" stroke="black" d="M592.71,-482.54C593.24,-485.09 593.78,-487.72 594.31,-490.28"/>
</g>
<!-- Horaka -->
<g id="Horaka" class="node">
<title>Horaka</title>
<ellipse fill="none" stroke="black" cx="452.57" cy="-141.03" rx="44.39" ry="18"/>
<text text-anchor="middle" x="452.57" y="-137.33" font-family="Times,serif" font-size="14.00">Horaka</text>
</g>
<!-- Horaka&#45;&#45;Illamur -->
<g id="edge22" class="edge">
<title>Horaka&#45;&#45;Illamur</title>
<path fill="none" stroke="black" d="M419.45,-152.98C408.28,-157.01 395.8,-161.51 384.62,-165.55"/>
</g>
<!-- Horaka&#45;&#45;Orien -->
<g id="edge23" class="edge">
<title>Horaka&#45;&#45;Orien</title>
<path fill="none" stroke="black" d="M484.57,-128.55C493.69,-124.99 503.57,-121.14 512.49,-117.66"/>
</g>
<!-- Varigne -->
<g id="Varigne" class="node">
<title>Varigne</title>
<ellipse fill="none" stroke="black" cx="460.26" cy="-62.45" rx="46.29" ry="18"/>
<text text-anchor="middle" x="460.26" y="-58.75" font-family="Times,serif" font-size="14.00">Varigne</text>
</g>
<!-- Horaka&#45;&#45;Varigne -->
<g id="edge24" class="edge">
<title>Horaka&#45;&#45;Varigne</title>
<path fill="none" stroke="black" d="M454.36,-122.81C455.6,-110.11 457.25,-93.25 458.49,-80.58"/>
</g>
<!-- Eldulf -->
<g id="Eldulf" class="node">
<title>Eldulf</title>
<ellipse fill="none" stroke="black" cx="357.61" cy="-75.65" rx="38.5" ry="18"/>
<text text-anchor="middle" x="357.61" y="-71.95" font-family="Times,serif" font-size="14.00">Eldulf</text>
</g>
<!-- Eldulf&#45;&#45;Horaka -->
<g id="edge25" class="edge">
<title>Eldulf&#45;&#45;Horaka</title>
<path fill="none" stroke="black" d="M379.64,-90.81C394.76,-101.22 414.77,-115 430.01,-125.49"/>
</g>
<!-- Eldulf&#45;&#45;Varigne -->
<g id="edge26" class="edge">
<title>Eldulf&#45;&#45;Varigne</title>
<path fill="none" stroke="black" d="M394.67,-70.88C401.68,-69.98 409.07,-69.03 416.26,-68.11"/>
</g>
<!-- Istodard -->
<g id="Istodard" class="node">
<title>Istodard</title>
<ellipse fill="none" stroke="black" cx="228.86" cy="-221.46" rx="50.09" ry="18"/>
<text text-anchor="middle" x="228.86" y="-217.76" font-family="Times,serif" font-size="14.00">Istodard</text>
</g>
<!-- Istodard&#45;&#45;Oddelulf -->
<g id="edge27" class="edge">
<title>Istodard&#45;&#45;Oddelulf</title>
<path fill="none" stroke="black" d="M258.07,-236.15C267.44,-240.86 277.81,-246.08 287.19,-250.8"/>
</g>
<!-- Gonheim -->
<g id="Gonheim" class="node">
<title>Gonheim</title>
<ellipse fill="none" stroke="black" cx="167.01" cy="-171.68" rx="52" ry="18"/>
<text text-anchor="middle" x="167.01" y="-167.98" font-family="Times,serif" font-size="14.00">Gonheim</text>
</g>
<!-- Gonheim&#45;&#45;Istodard -->
<g id="edge28" class="edge">
<title>Gonheim&#45;&#45;Istodard</title>
<path fill="none" stroke="black" d="M187.6,-188.26C194.21,-193.57 201.52,-199.46 208.14,-204.78"/>
</g>
<!-- Half -->
<g id="Half" class="node">
<title>Half</title>
<ellipse fill="none" stroke="black" cx="140.19" cy="-217" rx="30.59" ry="18"/>
<text text-anchor="middle" x="140.19" y="-213.3" font-family="Times,serif" font-size="14.00">Half</text>
</g>
<!-- Gonheim&#45;&#45;Half -->
<g id="edge29" class="edge">
<title>Gonheim&#45;&#45;Half</title>
<path fill="none" stroke="black" d="M156.56,-189.33C154.5,-192.81 152.35,-196.46 150.3,-199.92"/>
</g>
<!-- Hedaleolfarber -->
<g id="Hedaleolfarber" class="node">
<title>Hedaleolfarber</title>
<ellipse fill="none" stroke="black" cx="80.59" cy="-127.31" rx="80.69" ry="18"/>
<text text-anchor="middle" x="80.59" y="-123.61" font-family="Times,serif" font-size="14.00">Hedaleolfarber</text>
</g>
<!-- Gonheim&#45;&#45;Hedaleolfarber -->
<g id="edge30" class="edge">
<title>Gonheim&#45;&#45;Hedaleolfarber</title>
<path fill="none" stroke="black" d="M137.75,-156.66C129.72,-152.54 120.97,-148.04 112.79,-143.84"/>
</g>
<!-- Half&#45;&#45;Istodard -->
<g id="edge31" class="edge">
<title>Half&#45;&#45;Istodard</title>
<path fill="none" stroke="black" d="M170.7,-218.53C173.41,-218.67 176.19,-218.81 179,-218.95"/>
</g>
<!-- Sakulda -->
<g id="Sakulda" class="node">
<title>Sakulda</title>
<ellipse fill="none" stroke="black" cx="53.43" cy="-224.68" rx="48.19" ry="18"/>
<text text-anchor="middle" x="53.43" y="-220.98" font-family="Times,serif" font-size="14.00">Sakulda</text>
</g>
<!-- Half&#45;&#45;Sakulda -->
<g id="edge32" class="edge">
<title>Half&#45;&#45;Sakulda</title>
<path fill="none" stroke="black" d="M109.85,-219.69C106.72,-219.96 103.49,-220.25 100.24,-220.54"/>
</g>
<!-- Altbrard -->
<g id="Altbrard" class="node">
<title>Altbrard</title>
<ellipse fill="none" stroke="black" cx="166.61" cy="-268.04" rx="50.09" ry="18"/>
<text text-anchor="middle" x="166.61" y="-264.34" font-family="Times,serif" font-size="14.00">Altbrard</text>
</g>
<!-- Altbrard&#45;&#45;Istodard -->
<g id="edge33" class="edge">
<title>Altbrard&#45;&#45;Istodard</title>
<path fill="none" stroke="black" d="M188.38,-251.74C194.41,-247.23 200.96,-242.33 206.99,-237.82"/>
</g>
<!-- Fegomenko -->
<g id="Fegomenko" class="node">
<title>Fegomenko</title>
<ellipse fill="none" stroke="black" cx="647.64" cy="-62.04" rx="63.89" ry="18"/>
<text text-anchor="middle" x="647.64" y="-58.34" font-family="Times,serif" font-size="14.00">Fegomenko</text>
</g>
<!-- Fegomenko&#45;&#45;Orien -->
<g id="edge34" class="edge">
<title>Fegomenko&#45;&#45;Orien</title>
<path fill="none" stroke="black" d="M611.9,-76.95C598.01,-82.75 582.34,-89.3 569.28,-94.75"/>
</g>
<!-- Osvetur -->
<g id="Osvetur" class="node">
<title>Osvetur</title>
<ellipse fill="none" stroke="black" cx="767.57" cy="-99.48" rx="48.19" ry="18"/>
<text text-anchor="middle" x="767.57" y="-95.78" font-family="Times,serif" font-size="14.00">Osvetur</text>
</g>
<!-- Fegomenko&#45;&#45;Osvetur -->
<g id="edge35" class="edge">
<title>Fegomenko&#45;&#45;Osvetur</title>
<path fill="none" stroke="black" d="M690.6,-75.45C703.64,-79.52 717.85,-83.96 730.47,-87.9"/>
</g>
<!-- Mimiror -->
<g id="Mimiror" class="node">
<title>Mimiror</title>
<ellipse fill="none" stroke="black" cx="717.32" cy="-18" rx="48.99" ry="18"/>
<text text-anchor="middle" x="717.32" y="-14.3" font-family="Times,serif" font-size="14.00">Mimiror</text>
</g>
<!-- Fegomenko&#45;&#45;Mimiror -->
<g id="edge36" class="edge">
<title>Fegomenko&#45;&#45;Mimiror</title>
<path fill="none" stroke="black" d="M673.99,-45.39C680,-41.59 686.37,-37.56 692.32,-33.8"/>
</g>
<!-- Unertek -->
<g id="Unertek" class="node">
<title>Unertek</title>
<ellipse fill="none" stroke="black" cx="806.34" cy="-143.49" rx="48.99" ry="18"/>
<text text-anchor="middle" x="806.34" y="-139.79" font-family="Times,serif" font-size="14.00">Unertek</text>
</g>
<!-- Osvetur&#45;&#45;Unertek -->
<g id="edge37" class="edge">
<title>Osvetur&#45;&#45;Unertek</title>
<path fill="none" stroke="black" d="M782.67,-116.62C785.48,-119.81 788.41,-123.13 791.22,-126.32"/>
</g>
<!-- Mimiror&#45;&#45;Osvetur -->
<g id="edge38" class="edge">
<title>Mimiror&#45;&#45;Osvetur</title>
<path fill="none" stroke="black" d="M728.23,-35.68C736.65,-49.35 748.27,-68.18 756.69,-81.83"/>
</g>
<!-- Ennur -->
<g id="Ennur" class="node">
<title>Ennur</title>
<ellipse fill="none" stroke="black" cx="271.46" cy="-70.81" rx="39.79" ry="18"/>
<text text-anchor="middle" x="271.46" y="-67.11" font-family="Times,serif" font-size="14.00">Ennur</text>
</g>
<!-- Ennur&#45;&#45;Meildolf -->
<g id="edge39" class="edge">
<title>Ennur&#45;&#45;Meildolf</title>
<path fill="none" stroke="black" d="M295.07,-85.41C304.94,-91.51 316.44,-98.62 326.47,-104.82"/>
</g>
<!-- Tabbetzur -->
<g id="Tabbetzur" class="node">
<title>Tabbetzur</title>
<polygon fill="none" stroke="black" points="314.66,-44.8 225.66,-44.8 225.66,-8.8 314.66,-8.8 314.66,-44.8"/>
<text text-anchor="middle" x="270.16" y="-23.1" font-family="Times,serif" font-size="14.00">Tabbetzur</text>
</g>
<!-- Ennur&#45;&#45;Tabbetzur -->
<g id="edge40" class="edge">
<title>Ennur&#45;&#45;Tabbetzur</title>
<path fill="none" stroke="black" d="M270.93,-52.66C270.85,-50.1 270.77,-47.47 270.7,-44.91"/>
</g>
<!-- Klingt -->
<g id="Klingt" class="node">
<title>Klingt</title>
<ellipse fill="none" stroke="black" cx="718.26" cy="-187.8" rx="39" ry="18"/>
<text text-anchor="middle" x="718.26" y="-184.1" font-family="Times,serif" font-size="14.00">Klingt</text>
</g>
<!-- Klingt&#45;&#45;Unertek -->
<g id="edge41" class="edge">
<title>Klingt&#45;&#45;Unertek</title>
<path fill="none" stroke="black" d="M744.69,-174.51C755.02,-169.3 766.91,-163.32 777.47,-158.01"/>
</g>
<!-- Weld -->
<g id="Weld" class="node">
<title>Weld</title>
<ellipse fill="none" stroke="black" cx="637.34" cy="-212.42" rx="34" ry="18"/>
<text text-anchor="middle" x="637.34" y="-208.72" font-family="Times,serif" font-size="14.00">Weld</text>
</g>
<!-- Klingt&#45;&#45;Weld -->
<g id="edge42" class="edge">
<title>Klingt&#45;&#45;Weld</title>
<path fill="none" stroke="black" d="M685.35,-197.82C679.22,-199.68 672.86,-201.62 666.84,-203.45"/>
</g>
<!-- Kattegaud -->
<g id="Kattegaud" class="node">
<title>Kattegaud</title>
<ellipse fill="none" stroke="black" cx="770.61" cy="-231.83" rx="59.29" ry="18"/>
<text text-anchor="middle" x="770.61" y="-228.13" font-family="Times,serif" font-size="14.00">Kattegaud</text>
</g>
<!-- Kattegaud&#45;&#45;Weld -->
<g id="edge43" class="edge">
<title>Kattegaud&#45;&#45;Weld</title>
<path fill="none" stroke="black" d="M717.17,-224.05C701.24,-221.73 684.26,-219.25 670.08,-217.19"/>
</g>
<!-- Kadlina -->
<g id="Kadlina" class="node">
<title>Kadlina</title>
<ellipse fill="none" stroke="black" cx="742.03" cy="-275.84" rx="46.29" ry="18"/>
<text text-anchor="middle" x="742.03" y="-272.14" font-family="Times,serif" font-size="14.00">Kadlina</text>
</g>
<!-- Kadlina&#45;&#45;Kattegaud -->
<g id="edge44" class="edge">
<title>Kadlina&#45;&#45;Kattegaud</title>
<path fill="none" stroke="black" d="M753.49,-258.19C755.29,-255.42 757.15,-252.55 758.96,-249.77"/>
</g>
<!-- Hegfunden -->
<g id="Hegfunden" class="node">
<title>Hegfunden</title>
<ellipse fill="none" stroke="black" cx="828.2" cy="-319.86" rx="61.99" ry="18"/>
<text text-anchor="middle" x="828.2" y="-316.16" font-family="Times,serif" font-size="14.00">Hegfunden</text>
</g>
<!-- Hegfunden&#45;&#45;Kattegaud -->
<g id="edge45" class="edge">
<title>Hegfunden&#45;&#45;Kattegaud</title>
<path fill="none" stroke="black" d="M816.55,-302.05C806.55,-286.77 792.23,-264.88 782.25,-249.61"/>
</g>
<!-- Hegfunden&#45;&#45;Kadlina -->
<g id="edge46" class="edge">
<title>Hegfunden&#45;&#45;Kadlina</title>
<path fill="none" stroke="black" d="M797.58,-304.22C788.67,-299.67 779,-294.73 770.25,-290.26"/>
</g>
<!-- Aeditide -->
<g id="Aeditide" class="node">
<title>Aeditide</title>
<ellipse fill="none" stroke="black" cx="629.87" cy="-272.37" rx="49.5" ry="18"/>
<text text-anchor="middle" x="629.87" y="-268.67" font-family="Times,serif" font-size="14.00">Aeditide</text>
</g>
<!-- Aeditide&#45;&#45;Weld -->
<g id="edge47" class="edge">
<title>Aeditide&#45;&#45;Weld</title>
<path fill="none" stroke="black" d="M632.11,-254.39C633.06,-246.8 634.16,-237.99 635.1,-230.4"/>
</g>
<!-- Aeditide&#45;&#45;Kadlina -->
<g id="edge48" class="edge">
<title>Aeditide&#45;&#45;Kadlina</title>
<path fill="none" stroke="black" d="M679.39,-273.91C684.9,-274.08 690.51,-274.25 695.98,-274.42"/>
</g>
<!-- Aeditide&#45;&#45;Hegfunden -->
<g id="edge49" class="edge">
<title>Aeditide&#45;&#45;Hegfunden</title>
<path fill="none" stroke="black" d="M671.44,-282.33C703.25,-289.94 747.15,-300.46 780.4,-308.42"/>
</g>
<!-- Egbinger -->
<g id="Egbinger" class="node">
<title>Egbinger</title>
<ellipse fill="none" stroke="black" cx="671.38" cy="-319.86" rx="54" ry="18"/>
<text text-anchor="middle" x="671.38" y="-316.16" font-family="Times,serif" font-size="14.00">Egbinger</text>
</g>
<!-- Aeditide&#45;&#45;Egbinger -->
<g id="edge50" class="edge">
<title>Aeditide&#45;&#45;Egbinger</title>
<path fill="none" stroke="black" d="M645.09,-289.79C648.7,-293.91 652.55,-298.32 656.16,-302.45"/>
</g>
<!-- Egbinger&#45;&#45;B&#45;VIP9 -->
<g id="edge51" class="edge">
<title>Egbinger&#45;&#45;B&#45;VIP9</title>
<path fill="none" stroke="black" d="M682.45,-337.63C689.8,-349.41 699.4,-364.82 706.8,-376.68"/>
</g>
<!-- Egbinger&#45;&#45;Muttokon -->
<g id="edge52" class="edge">
<title>Egbinger&#45;&#45;Muttokon</title>
<path fill="none" stroke="black" d="M643.65,-335.51C636.38,-339.62 628.54,-344.05 621.26,-348.16"/>
</g>
</g>
</svg>
