<?xml version="1.0" encoding="UTF-8" standalone="no"?>
<!DOCTYPE svg PUBLIC "-//W3C//DTD SVG 1.1//EN"
 "http://www.w3.org/Graphics/SVG/1.1/DTD/svg11.dtd">
<!-- Generated by graphviz version 2.43.0 (0)
 -->
<!-- Pages: 1 -->
<svg width="1329pt" height="1098pt"
 viewBox="0.00 0.00 1329.20 1098.10" xmlns="http://www.w3.org/2000/svg" xmlns:xlink="http://www.w3.org/1999/xlink">
<g id="graph0" class="graph" transform="scale(1 1) rotate(0) translate(4 1094.1)">
<polygon fill="white" stroke="transparent" points="-4,4 -4,-1094.1 1325.2,-1094.1 1325.2,4 -4,4"/>
<!-- TSG&#45;NO -->
<g id="TSG&#45;NO" class="node">
<title>TSG&#45;NO</title>
<polygon fill="none" stroke="black" points="1321.2,-958.55 1247.2,-958.55 1247.2,-922.55 1321.2,-922.55 1321.2,-958.55"/>
<text text-anchor="middle" x="1284.2" y="-936.85" font-family="Times,serif" font-size="14.00">TSG&#45;NO</text>
</g>
<!-- 6&#45;ELQP -->
<g id="6&#45;ELQP" class="node">
<title>6&#45;ELQP</title>
<polygon fill="none" stroke="black" points="71,-814.95 0,-814.95 0,-778.95 71,-778.95 71,-814.95"/>
<text text-anchor="middle" x="35.5" y="-793.25" font-family="Times,serif" font-size="14.00">6&#45;ELQP</text>
</g>
<!-- ZO&#45;P5K -->
<g id="ZO&#45;P5K" class="node">
<title>ZO&#45;P5K</title>
<polygon fill="none" stroke="black" points="126.58,-1090.1 54.58,-1090.1 54.58,-1054.1 126.58,-1054.1 126.58,-1090.1"/>
<text text-anchor="middle" x="90.58" y="-1068.4" font-family="Times,serif" font-size="14.00">ZO&#45;P5K</text>
</g>
<!-- 9MWZ&#45;B -->
<g id="9MWZ&#45;B" class="node">
<title>9MWZ&#45;B</title>
<ellipse fill="none" stroke="black" cx="1187.8" cy="-940.54" rx="51.5" ry="18"/>
<text text-anchor="middle" x="1187.8" y="-936.84" font-family="Times,serif" font-size="14.00">9MWZ&#45;B</text>
</g>
<!-- 9MWZ&#45;B&#45;&#45;TSG&#45;NO -->
<g id="edge1" class="edge">
<title>9MWZ&#45;B&#45;&#45;TSG&#45;NO</title>
<path fill="none" stroke="black" d="M1239.4,-940.55C1242,-940.55 1244.6,-940.55 1247.1,-940.55"/>
</g>
<!-- LS&#45;QLX -->
<g id="LS&#45;QLX" class="node">
<title>LS&#45;QLX</title>
<ellipse fill="none" stroke="black" cx="1082.9" cy="-967.05" rx="45.5" ry="18"/>
<text text-anchor="middle" x="1082.9" y="-963.35" font-family="Times,serif" font-size="14.00">LS&#45;QLX</text>
</g>
<!-- 9MWZ&#45;B&#45;&#45;LS&#45;QLX -->
<g id="edge2" class="edge">
<title>9MWZ&#45;B&#45;&#45;LS&#45;QLX</title>
<path fill="none" stroke="black" d="M1146,-951.1C1137.9,-953.15 1129.5,-955.29 1121.5,-957.31"/>
</g>
<!-- S&#45;XZHU -->
<g id="S&#45;XZHU" class="node">
<title>S&#45;XZHU</title>
<ellipse fill="none" stroke="black" cx="1154" cy="-1013.9" rx="48.19" ry="18"/>
<text text-anchor="middle" x="1154" y="-1010.2" font-family="Times,serif" font-size="14.00">S&#45;XZHU</text>
</g>
<!-- 9MWZ&#45;B&#45;&#45;S&#45;XZHU -->
<g id="edge3" class="edge">
<title>9MWZ&#45;B&#45;&#45;S&#45;XZHU</title>
<path fill="none" stroke="black" d="M1179.5,-958.67C1174.2,-970.03 1167.5,-984.62 1162.3,-995.95"/>
</g>
<!-- LS&#45;QLX&#45;&#45;S&#45;XZHU -->
<g id="edge4" class="edge">
<title>LS&#45;QLX&#45;&#45;S&#45;XZHU</title>
<path fill="none" stroke="black" d="M1106.6,-982.64C1114.2,-987.64 1122.6,-993.18 1130.2,-998.19"/>
</g>
<!-- CO&#45;7BI -->
<g id="CO&#45;7BI" class="node">
<title>CO&#45;7BI</title>
<ellipse fill="none" stroke="black" cx="1030.2" cy="-919.79" rx="44.39" ry="18"/>
<text text-anchor="middle" x="1030.2" y="-916.09" font-family="Times,serif" font-size="14.00">CO&#45;7BI</text>
</g>
<!-- CO&#45;7BI&#45;&#45;LS&#45;QLX -->
<g id="edge5" class="edge">
<title>CO&#45;7BI&#45;&#45;LS&#45;QLX</title>
<path fill="none" stroke="black" d="M1048.6,-936.32C1053.7,-940.9 1059.3,-945.87 1064.4,-950.45"/>
</g>
<!-- ZJG&#45;7D -->
<g id="ZJG&#45;7D" class="node">
<title>ZJG&#45;7D</title>
<ellipse fill="none" stroke="black" cx="933.81" cy="-880.78" rx="44.39" ry="18"/>
<text text-anchor="middle" x="933.81" y="-877.08" font-family="Times,serif" font-size="14.00">ZJG&#45;7D</text>
</g>
<!-- CO&#45;7BI&#45;&#45;ZJG&#45;7D -->
<g id="edge6" class="edge">
<title>CO&#45;7BI&#45;&#45;ZJG&#45;7D</title>
<path fill="none" stroke="black" d="M998.64,-907.01C987.99,-902.7 976.1,-897.89 965.44,-893.58"/>
</g>
<!-- C&#45;WPWH -->
<g id="C&#45;WPWH" class="node">
<title>C&#45;WPWH</title>
<ellipse fill="none" stroke="black" cx="1098" cy="-1059.8" rx="52.79" ry="18"/>
<text text-anchor="middle" x="1098" y="-1056.1" font-family="Times,serif" font-size="14.00">C&#45;WPWH</text>
</g>
<!-- C&#45;WPWH&#45;&#45;LS&#45;QLX -->
<g id="edge7" class="edge">
<title>C&#45;WPWH&#45;&#45;LS&#45;QLX</title>
<path fill="none" stroke="black" d="M1095,-1041.4C1092.4,-1025.2 1088.5,-1001.6 1085.9,-985.33"/>
</g>
<!-- C&#45;WPWH&#45;&#45;S&#45;XZHU -->
<g id="edge8" class="edge">
<title>C&#45;WPWH&#45;&#45;S&#45;XZHU</title>
<path fill="none" stroke="black" d="M1118.5,-1042.9C1123.5,-1038.8 1128.9,-1034.5 1133.9,-1030.4"/>
</g>
<!-- VULA&#45;I -->
<g id="VULA&#45;I" class="node">
<title>VULA&#45;I</title>
<ellipse fill="none" stroke="black" cx="838.01" cy="-857.82" rx="43.59" ry="18"/>
<text text-anchor="middle" x="838.01" y="-854.12" font-family="Times,serif" font-size="14.00">VULA&#45;I</text>
</g>
<!-- VULA&#45;I&#45;&#45;ZJG&#45;7D -->
<g id="edge9" class="edge">
<title>VULA&#45;I&#45;&#45;ZJG&#45;7D</title>
<path fill="none" stroke="black" d="M875.87,-866.9C882.36,-868.45 889.1,-870.07 895.59,-871.62"/>
</g>
<!-- R2TJ&#45;1 -->
<g id="R2TJ&#45;1" class="node">
<title>R2TJ&#45;1</title>
<ellipse fill="none" stroke="black" cx="806.4" cy="-946.17" rx="41.69" ry="18"/>
<text text-anchor="middle" x="806.4" y="-942.47" font-family="Times,serif" font-size="14.00">R2TJ&#45;1</text>
</g>
<!-- R2TJ&#45;1&#45;&#45;VULA&#45;I -->
<g id="edge10" class="edge">
<title>R2TJ&#45;1&#45;&#45;VULA&#45;I</title>
<path fill="none" stroke="black" d="M812.8,-928.29C818.28,-912.96 826.14,-890.99 831.62,-875.67"/>
</g>
<!-- G&#45;B3PR -->
<g id="G&#45;B3PR" class="node">
<title>G&#45;B3PR</title>
<ellipse fill="none" stroke="black" cx="886.68" cy="-813.78" rx="47" ry="18"/>
<text text-anchor="middle" x="886.68" y="-810.08" font-family="Times,serif" font-size="14.00">G&#45;B3PR</text>
</g>
<!-- G&#45;B3PR&#45;&#45;VULA&#45;I -->
<g id="edge11" class="edge">
<title>G&#45;B3PR&#45;&#45;VULA&#45;I</title>
<path fill="none" stroke="black" d="M868.28,-830.43C864.3,-834.03 860.09,-837.84 856.11,-841.44"/>
</g>
<!-- XPUM&#45;L -->
<g id="XPUM&#45;L" class="node">
<title>XPUM&#45;L</title>
<ellipse fill="none" stroke="black" cx="783.02" cy="-812.89" rx="48.99" ry="18"/>
<text text-anchor="middle" x="783.02" y="-809.19" font-family="Times,serif" font-size="14.00">XPUM&#45;L</text>
</g>
<!-- G&#45;B3PR&#45;&#45;XPUM&#45;L -->
<g id="edge12" class="edge">
<title>G&#45;B3PR&#45;&#45;XPUM&#45;L</title>
<path fill="none" stroke="black" d="M839.7,-813.38C837.13,-813.36 834.54,-813.33 831.97,-813.31"/>
</g>
<!-- 73&#45;JQO -->
<g id="73&#45;JQO" class="node">
<title>73&#45;JQO</title>
<ellipse fill="none" stroke="black" cx="743.51" cy="-1016.4" rx="43.59" ry="18"/>
<text text-anchor="middle" x="743.51" y="-1012.7" font-family="Times,serif" font-size="14.00">73&#45;JQO</text>
</g>
<!-- 73&#45;JQO&#45;&#45;R2TJ&#45;1 -->
<g id="edge13" class="edge">
<title>73&#45;JQO&#45;&#45;R2TJ&#45;1</title>
<path fill="none" stroke="black" d="M758.73,-999.43C768.62,-988.38 781.46,-974.04 791.31,-963.02"/>
</g>
<!-- KR8&#45;27 -->
<g id="KR8&#45;27" class="node">
<title>KR8&#45;27</title>
<ellipse fill="none" stroke="black" cx="792.83" cy="-758.39" rx="45" ry="18"/>
<text text-anchor="middle" x="792.83" y="-754.69" font-family="Times,serif" font-size="14.00">KR8&#45;27</text>
</g>
<!-- KR8&#45;27&#45;&#45;VULA&#45;I -->
<g id="edge14" class="edge">
<title>KR8&#45;27&#45;&#45;VULA&#45;I</title>
<path fill="none" stroke="black" d="M809.4,-775.61C818.07,-785.69 827.97,-799.13 833.37,-813 836.6,-821.31 837.87,-831.11 838.29,-839.42"/>
</g>
<!-- KR8&#45;27&#45;&#45;XPUM&#45;L -->
<g id="edge15" class="edge">
<title>KR8&#45;27&#45;&#45;XPUM&#45;L</title>
<path fill="none" stroke="black" d="M789.56,-776.54C788.51,-782.36 787.35,-788.81 786.31,-794.64"/>
</g>
<!-- LOI&#45;L1 -->
<g id="LOI&#45;L1" class="node">
<title>LOI&#45;L1</title>
<ellipse fill="none" stroke="black" cx="751.92" cy="-677.39" rx="42.49" ry="18"/>
<text text-anchor="middle" x="751.92" y="-673.69" font-family="Times,serif" font-size="14.00">LOI&#45;L1</text>
</g>
<!-- KR8&#45;27&#45;&#45;LOI&#45;L1 -->
<g id="edge16" class="edge">
<title>KR8&#45;27&#45;&#45;LOI&#45;L1</title>
<path fill="none" stroke="black" d="M783.75,-740.41C776.92,-726.9 767.62,-708.48 760.83,-695.04"/>
</g>
<!-- Y&#45;MSJN -->
<g id="Y&#45;MSJN" class="node">
<title>Y&#45;MSJN</title>
<ellipse fill="none" stroke="black" cx="810.51" cy="-606.35" rx="45.5" ry="18"/>
<text text-anchor="middle" x="810.51" y="-602.65" font-family="Times,serif" font-size="14.00">Y&#45;MSJN</text>
</g>
<!-- LOI&#45;L1&#45;&#45;Y&#45;MSJN -->
<g id="edge17" class="edge">
<title>LOI&#45;L1&#45;&#45;Y&#45;MSJN</title>
<path fill="none" stroke="black" d="M766.1,-660.2C775.18,-649.19 786.92,-634.95 796.05,-623.88"/>
</g>
<!-- LQ&#45;AHE -->
<g id="LQ&#45;AHE" class="node">
<title>LQ&#45;AHE</title>
<ellipse fill="none" stroke="black" cx="843.25" cy="-1033.7" rx="48.19" ry="18"/>
<text text-anchor="middle" x="843.25" y="-1030" font-family="Times,serif" font-size="14.00">LQ&#45;AHE</text>
</g>
<!-- LQ&#45;AHE&#45;&#45;R2TJ&#45;1 -->
<g id="edge18" class="edge">
<title>LQ&#45;AHE&#45;&#45;R2TJ&#45;1</title>
<path fill="none" stroke="black" d="M835.61,-1015.5C829.25,-1000.4 820.23,-979.01 813.9,-963.98"/>
</g>
<!-- MJ&#45;X5V -->
<g id="MJ&#45;X5V" class="node">
<title>MJ&#45;X5V</title>
<ellipse fill="none" stroke="black" cx="845.08" cy="-518.27" rx="45" ry="18"/>
<text text-anchor="middle" x="845.08" y="-514.57" font-family="Times,serif" font-size="14.00">MJ&#45;X5V</text>
</g>
<!-- MJ&#45;X5V&#45;&#45;Y&#45;MSJN -->
<g id="edge19" class="edge">
<title>MJ&#45;X5V&#45;&#45;Y&#45;MSJN</title>
<path fill="none" stroke="black" d="M838.08,-536.1C832.09,-551.38 823.49,-573.28 817.49,-588.55"/>
</g>
<!-- 3FKU&#45;H -->
<g id="3FKU&#45;H" class="node">
<title>3FKU&#45;H</title>
<ellipse fill="none" stroke="black" cx="904.85" cy="-562.31" rx="47.5" ry="18"/>
<text text-anchor="middle" x="904.85" y="-558.61" font-family="Times,serif" font-size="14.00">3FKU&#45;H</text>
</g>
<!-- 3FKU&#45;H&#45;&#45;Y&#45;MSJN -->
<g id="edge20" class="edge">
<title>3FKU&#45;H&#45;&#45;Y&#45;MSJN</title>
<path fill="none" stroke="black" d="M874.74,-576.37C863.63,-581.55 851.06,-587.42 840.01,-592.58"/>
</g>
<!-- M9&#45;FIB -->
<g id="M9&#45;FIB" class="node">
<title>M9&#45;FIB</title>
<ellipse fill="none" stroke="black" cx="943.71" cy="-476.29" rx="45.5" ry="18"/>
<text text-anchor="middle" x="943.71" y="-472.59" font-family="Times,serif" font-size="14.00">M9&#45;FIB</text>
</g>
<!-- 3FKU&#45;H&#45;&#45;M9&#45;FIB -->
<g id="edge21" class="edge">
<title>3FKU&#45;H&#45;&#45;M9&#45;FIB</title>
<path fill="none" stroke="black" d="M912.9,-544.49C919.57,-529.73 929,-508.85 935.67,-494.09"/>
</g>
<!-- M9&#45;FIB&#45;&#45;MJ&#45;X5V -->
<g id="edge22" class="edge">
<title>M9&#45;FIB&#45;&#45;MJ&#45;X5V</title>
<path fill="none" stroke="black" d="M912.5,-489.57C900.88,-494.52 887.69,-500.13 876.08,-505.08"/>
</g>
<!-- D2EZ&#45;X -->
<g id="D2EZ&#45;X" class="node">
<title>D2EZ&#45;X</title>
<ellipse fill="none" stroke="black" cx="1006.5" cy="-419.56" rx="46.29" ry="18"/>
<text text-anchor="middle" x="1006.5" y="-415.86" font-family="Times,serif" font-size="14.00">D2EZ&#45;X</text>
</g>
<!-- D2EZ&#45;X&#45;&#45;M9&#45;FIB -->
<g id="edge23" class="edge">
<title>D2EZ&#45;X&#45;&#45;M9&#45;FIB</title>
<path fill="none" stroke="black" d="M988.01,-436.27C979.91,-443.59 970.41,-452.17 962.3,-459.5"/>
</g>
<!-- DJK&#45;67 -->
<g id="DJK&#45;67" class="node">
<title>DJK&#45;67</title>
<ellipse fill="none" stroke="black" cx="1068.5" cy="-362.19" rx="42.49" ry="18"/>
<text text-anchor="middle" x="1068.5" y="-358.49" font-family="Times,serif" font-size="14.00">DJK&#45;67</text>
</g>
<!-- D2EZ&#45;X&#45;&#45;DJK&#45;67 -->
<g id="edge24" class="edge">
<title>D2EZ&#45;X&#45;&#45;DJK&#45;67</title>
<path fill="none" stroke="black" d="M1024.4,-402.97C1032.7,-395.29 1042.6,-386.2 1050.8,-378.55"/>
</g>
<!-- AXDX&#45;F -->
<g id="AXDX&#45;F" class="node">
<title>AXDX&#45;F</title>
<ellipse fill="none" stroke="black" cx="653.69" cy="-654.81" rx="46.29" ry="18"/>
<text text-anchor="middle" x="653.69" y="-651.11" font-family="Times,serif" font-size="14.00">AXDX&#45;F</text>
</g>
<!-- AXDX&#45;F&#45;&#45;LOI&#45;L1 -->
<g id="edge25" class="edge">
<title>AXDX&#45;F&#45;&#45;LOI&#45;L1</title>
<path fill="none" stroke="black" d="M693.65,-664C700.55,-665.58 707.71,-667.23 714.54,-668.8"/>
</g>
<!-- J&#45;4FNO -->
<g id="J&#45;4FNO" class="node">
<title>J&#45;4FNO</title>
<ellipse fill="none" stroke="black" cx="695.25" cy="-586.39" rx="44.39" ry="18"/>
<text text-anchor="middle" x="695.25" y="-582.69" font-family="Times,serif" font-size="14.00">J&#45;4FNO</text>
</g>
<!-- AXDX&#45;F&#45;&#45;J&#45;4FNO -->
<g id="edge26" class="edge">
<title>AXDX&#45;F&#45;&#45;J&#45;4FNO</title>
<path fill="none" stroke="black" d="M664.39,-637.19C670.55,-627.05 678.26,-614.35 684.44,-604.19"/>
</g>
<!-- PEM&#45;LC -->
<g id="PEM&#45;LC" class="node">
<title>PEM&#45;LC</title>
<ellipse fill="none" stroke="black" cx="594.22" cy="-561.42" rx="48.99" ry="18"/>
<text text-anchor="middle" x="594.22" y="-557.72" font-family="Times,serif" font-size="14.00">PEM&#45;LC</text>
</g>
<!-- AXDX&#45;F&#45;&#45;PEM&#45;LC -->
<g id="edge27" class="edge">
<title>AXDX&#45;F&#45;&#45;PEM&#45;LC</title>
<path fill="none" stroke="black" d="M642.51,-637.24C631.94,-620.65 616.17,-595.89 605.56,-579.23"/>
</g>
<!-- X&#45;EHHD -->
<g id="X&#45;EHHD" class="node">
<title>X&#45;EHHD</title>
<ellipse fill="none" stroke="black" cx="626.9" cy="-726.28" rx="50.09" ry="18"/>
<text text-anchor="middle" x="626.9" y="-722.58" font-family="Times,serif" font-size="14.00">X&#45;EHHD</text>
</g>
<!-- AXDX&#45;F&#45;&#45;X&#45;EHHD -->
<g id="edge28" class="edge">
<title>AXDX&#45;F&#45;&#45;X&#45;EHHD</title>
<path fill="none" stroke="black" d="M646.93,-672.84C642.9,-683.6 637.8,-697.21 633.75,-708"/>
</g>
<!-- QSF&#45;EJ -->
<g id="QSF&#45;EJ" class="node">
<title>QSF&#45;EJ</title>
<ellipse fill="none" stroke="black" cx="551.96" cy="-643.76" rx="43.59" ry="18"/>
<text text-anchor="middle" x="551.96" y="-640.06" font-family="Times,serif" font-size="14.00">QSF&#45;EJ</text>
</g>
<!-- AXDX&#45;F&#45;&#45;QSF&#45;EJ -->
<g id="edge29" class="edge">
<title>AXDX&#45;F&#45;&#45;QSF&#45;EJ</title>
<path fill="none" stroke="black" d="M609.07,-649.96C604.16,-649.43 599.17,-648.89 594.29,-648.36"/>
</g>
<!-- J&#45;4FNO&#45;&#45;PEM&#45;LC -->
<g id="edge30" class="edge">
<title>J&#45;4FNO&#45;&#45;PEM&#45;LC</title>
<path fill="none" stroke="black" d="M657.34,-577.02C650.06,-575.22 642.41,-573.33 635.04,-571.51"/>
</g>
<!-- 6T3I&#45;L -->
<g id="6T3I&#45;L" class="node">
<title>6T3I&#45;L</title>
<ellipse fill="none" stroke="black" cx="497.09" cy="-533.01" rx="40.5" ry="18"/>
<text text-anchor="middle" x="497.09" y="-529.31" font-family="Times,serif" font-size="14.00">6T3I&#45;L</text>
</g>
<!-- 6T3I&#45;L&#45;&#45;PEM&#45;LC -->
<g id="edge31" class="edge">
<title>6T3I&#45;L&#45;&#45;PEM&#45;LC</title>
<path fill="none" stroke="black" d="M531.06,-542.95C539.05,-545.29 547.62,-547.79 555.78,-550.18"/>
</g>
<!-- 6T3I&#45;L&#45;&#45;QSF&#45;EJ -->
<g id="edge32" class="edge">
<title>6T3I&#45;L&#45;&#45;QSF&#45;EJ</title>
<path fill="none" stroke="black" d="M505.91,-550.81C516.15,-571.48 532.94,-605.37 543.17,-626.01"/>
</g>
<!-- NZPK&#45;G -->
<g id="NZPK&#45;G" class="node">
<title>NZPK&#45;G</title>
<ellipse fill="none" stroke="black" cx="472.84" cy="-452.64" rx="48.19" ry="18"/>
<text text-anchor="middle" x="472.84" y="-448.94" font-family="Times,serif" font-size="14.00">NZPK&#45;G</text>
</g>
<!-- 6T3I&#45;L&#45;&#45;NZPK&#45;G -->
<g id="edge33" class="edge">
<title>6T3I&#45;L&#45;&#45;NZPK&#45;G</title>
<path fill="none" stroke="black" d="M491.59,-514.78C487.59,-501.53 482.21,-483.7 478.24,-470.53"/>
</g>
<!-- L&#45;AS00 -->
<g id="L&#45;AS00" class="node">
<title>L&#45;AS00</title>
<ellipse fill="none" stroke="black" cx="456.17" cy="-624.56" rx="44.39" ry="18"/>
<text text-anchor="middle" x="456.17" y="-620.86" font-family="Times,serif" font-size="14.00">L&#45;AS00</text>
</g>
<!-- L&#45;AS00&#45;&#45;QSF&#45;EJ -->
<g id="edge34" class="edge">
<title>L&#45;AS00&#45;&#45;QSF&#45;EJ</title>
<path fill="none" stroke="black" d="M495.96,-632.54C501.51,-633.65 507.21,-634.79 512.76,-635.91"/>
</g>
<!-- K&#45;1OY3 -->
<g id="K&#45;1OY3" class="node">
<title>K&#45;1OY3</title>
<ellipse fill="none" stroke="black" cx="435.47" cy="-376.42" rx="45" ry="18"/>
<text text-anchor="middle" x="435.47" y="-372.72" font-family="Times,serif" font-size="14.00">K&#45;1OY3</text>
</g>
<!-- K&#45;1OY3&#45;&#45;NZPK&#45;G -->
<g id="edge35" class="edge">
<title>K&#45;1OY3&#45;&#45;NZPK&#45;G</title>
<path fill="none" stroke="black" d="M444.14,-394.1C450.13,-406.32 458.08,-422.53 464.09,-434.8"/>
</g>
<!-- MMUF&#45;8 -->
<g id="MMUF&#45;8" class="node">
<title>MMUF&#45;8</title>
<ellipse fill="none" stroke="black" cx="444.39" cy="-294.39" rx="52" ry="18"/>
<text text-anchor="middle" x="444.39" y="-290.69" font-family="Times,serif" font-size="14.00">MMUF&#45;8</text>
</g>
<!-- K&#45;1OY3&#45;&#45;MMUF&#45;8 -->
<g id="edge36" class="edge">
<title>K&#45;1OY3&#45;&#45;MMUF&#45;8</title>
<path fill="none" stroke="black" d="M437.45,-358.21C438.93,-344.62 440.94,-326.12 442.42,-312.54"/>
</g>
<!-- NQH&#45;MR -->
<g id="NQH&#45;MR" class="node">
<title>NQH&#45;MR</title>
<ellipse fill="none" stroke="black" cx="475.74" cy="-234.96" rx="52.79" ry="18"/>
<text text-anchor="middle" x="475.74" y="-231.26" font-family="Times,serif" font-size="14.00">NQH&#45;MR</text>
</g>
<!-- MMUF&#45;8&#45;&#45;NQH&#45;MR -->
<g id="edge37" class="edge">
<title>MMUF&#45;8&#45;&#45;NQH&#45;MR</title>
<path fill="none" stroke="black" d="M453.8,-276.56C457.77,-269.04 462.38,-260.3 466.34,-252.78"/>
</g>
<!-- 99&#45;0GS -->
<g id="99&#45;0GS" class="node">
<title>99&#45;0GS</title>
<ellipse fill="none" stroke="black" cx="370.21" cy="-193.08" rx="45" ry="18"/>
<text text-anchor="middle" x="370.21" y="-189.38" font-family="Times,serif" font-size="14.00">99&#45;0GS</text>
</g>
<!-- 99&#45;0GS&#45;&#45;MMUF&#45;8 -->
<g id="edge38" class="edge">
<title>99&#45;0GS&#45;&#45;MMUF&#45;8</title>
<path fill="none" stroke="black" d="M383.13,-210.72C396.66,-229.21 417.8,-258.07 431.37,-276.61"/>
</g>
<!-- 99&#45;0GS&#45;&#45;NQH&#45;MR -->
<g id="edge39" class="edge">
<title>99&#45;0GS&#45;&#45;NQH&#45;MR</title>
<path fill="none" stroke="black" d="M402.16,-205.76C414.53,-210.67 428.73,-216.3 441.33,-221.3"/>
</g>
<!-- X&#45;3AUU -->
<g id="X&#45;3AUU" class="node">
<title>X&#45;3AUU</title>
<ellipse fill="none" stroke="black" cx="405.33" cy="-104.57" rx="48.19" ry="18"/>
<text text-anchor="middle" x="405.33" y="-100.87" font-family="Times,serif" font-size="14.00">X&#45;3AUU</text>
</g>
<!-- 99&#45;0GS&#45;&#45;X&#45;3AUU -->
<g id="edge40" class="edge">
<title>99&#45;0GS&#45;&#45;X&#45;3AUU</title>
<path fill="none" stroke="black" d="M377.31,-175.17C383.41,-159.81 392.14,-137.8 398.23,-122.45"/>
</g>
<!-- H90&#45;C9 -->
<g id="H90&#45;C9" class="node">
<title>H90&#45;C9</title>
<ellipse fill="none" stroke="black" cx="335.2" cy="-386.81" rx="46.29" ry="18"/>
<text text-anchor="middle" x="335.2" y="-383.11" font-family="Times,serif" font-size="14.00">H90&#45;C9</text>
</g>
<!-- H90&#45;C9&#45;&#45;K&#45;1OY3 -->
<g id="edge41" class="edge">
<title>H90&#45;C9&#45;&#45;K&#45;1OY3</title>
<path fill="none" stroke="black" d="M380.06,-382.16C384.02,-381.75 388.03,-381.34 391.98,-380.93"/>
</g>
<!-- 0DD&#45;MH -->
<g id="0DD&#45;MH" class="node">
<title>0DD&#45;MH</title>
<ellipse fill="none" stroke="black" cx="265.93" cy="-154.53" rx="51.5" ry="18"/>
<text text-anchor="middle" x="265.93" y="-150.83" font-family="Times,serif" font-size="14.00">0DD&#45;MH</text>
</g>
<!-- 0DD&#45;MH&#45;&#45;NQH&#45;MR -->
<g id="edge42" class="edge">
<title>0DD&#45;MH&#45;&#45;NQH&#45;MR</title>
<path fill="none" stroke="black" d="M284.13,-171.4C297.72,-183.08 317.29,-198.05 337.04,-206.8 364.78,-219.09 398.04,-226.08 425.03,-230.02"/>
</g>
<!-- 0DD&#45;MH&#45;&#45;99&#45;0GS -->
<g id="edge43" class="edge">
<title>0DD&#45;MH&#45;&#45;99&#45;0GS</title>
<path fill="none" stroke="black" d="M301.52,-167.69C312.97,-171.92 325.6,-176.59 336.88,-180.76"/>
</g>
<!-- RI&#45;JB1 -->
<g id="RI&#45;JB1" class="node">
<title>RI&#45;JB1</title>
<ellipse fill="none" stroke="black" cx="396.76" cy="-18" rx="40.5" ry="18"/>
<text text-anchor="middle" x="396.76" y="-14.3" font-family="Times,serif" font-size="14.00">RI&#45;JB1</text>
</g>
<!-- RI&#45;JB1&#45;&#45;X&#45;3AUU -->
<g id="edge44" class="edge">
<title>RI&#45;JB1&#45;&#45;X&#45;3AUU</title>
<path fill="none" stroke="black" d="M398.58,-36.36C400.04,-51.15 402.09,-71.83 403.55,-86.53"/>
</g>
<!-- 1I6F&#45;9 -->
<g id="1I6F&#45;9" class="node">
<title>1I6F&#45;9</title>
<ellipse fill="none" stroke="black" cx="457.81" cy="-709.21" rx="40.5" ry="18"/>
<text text-anchor="middle" x="457.81" y="-705.51" font-family="Times,serif" font-size="14.00">1I6F&#45;9</text>
</g>
<!-- 1I6F&#45;9&#45;&#45;QSF&#45;EJ -->
<g id="edge45" class="edge">
<title>1I6F&#45;9&#45;&#45;QSF&#45;EJ</title>
<path fill="none" stroke="black" d="M479.64,-694.03C494.64,-683.61 514.48,-669.82 529.59,-659.32"/>
</g>
<!-- Z&#45;7OK1 -->
<g id="Z&#45;7OK1" class="node">
<title>Z&#45;7OK1</title>
<ellipse fill="none" stroke="black" cx="381.7" cy="-759.19" rx="46.29" ry="18"/>
<text text-anchor="middle" x="381.7" y="-755.49" font-family="Times,serif" font-size="14.00">Z&#45;7OK1</text>
</g>
<!-- 1I6F&#45;9&#45;&#45;Z&#45;7OK1 -->
<g id="edge46" class="edge">
<title>1I6F&#45;9&#45;&#45;Z&#45;7OK1</title>
<path fill="none" stroke="black" d="M434.97,-724.21C425.6,-730.36 414.76,-737.48 405.31,-743.69"/>
</g>
<!-- UEP0&#45;A -->
<g id="UEP0&#45;A" class="node">
<title>UEP0&#45;A</title>
<ellipse fill="none" stroke="black" cx="313.94" cy="-808.74" rx="47" ry="18"/>
<text text-anchor="middle" x="313.94" y="-805.04" font-family="Times,serif" font-size="14.00">UEP0&#45;A</text>
</g>
<!-- UEP0&#45;A&#45;&#45;Z&#45;7OK1 -->
<g id="edge47" class="edge">
<title>UEP0&#45;A&#45;&#45;Z&#45;7OK1</title>
<path fill="none" stroke="black" d="M335.75,-792.79C343.49,-787.13 352.19,-780.77 359.93,-775.11"/>
</g>
<!-- 66&#45;PMM -->
<g id="66&#45;PMM" class="node">
<title>66&#45;PMM</title>
<ellipse fill="none" stroke="black" cx="232.9" cy="-852.87" rx="50.09" ry="18"/>
<text text-anchor="middle" x="232.9" y="-849.17" font-family="Times,serif" font-size="14.00">66&#45;PMM</text>
</g>
<!-- 66&#45;PMM&#45;&#45;UEP0&#45;A -->
<g id="edge48" class="edge">
<title>66&#45;PMM&#45;&#45;UEP0&#45;A</title>
<path fill="none" stroke="black" d="M260.78,-837.68C269.21,-833.09 278.44,-828.07 286.82,-823.51"/>
</g>
<!-- OKEO&#45;X -->
<g id="OKEO&#45;X" class="node">
<title>OKEO&#45;X</title>
<ellipse fill="none" stroke="black" cx="128.12" cy="-808.83" rx="48.99" ry="18"/>
<text text-anchor="middle" x="128.12" y="-805.13" font-family="Times,serif" font-size="14.00">OKEO&#45;X</text>
</g>
<!-- 66&#45;PMM&#45;&#45;OKEO&#45;X -->
<g id="edge49" class="edge">
<title>66&#45;PMM&#45;&#45;OKEO&#45;X</title>
<path fill="none" stroke="black" d="M200.32,-839.18C187.58,-833.82 173.01,-827.7 160.32,-822.36"/>
</g>
<!-- 7&#45;8EOE -->
<g id="7&#45;8EOE" class="node">
<title>7&#45;8EOE</title>
<ellipse fill="none" stroke="black" cx="199.28" cy="-938.01" rx="46.29" ry="18"/>
<text text-anchor="middle" x="199.28" y="-934.31" font-family="Times,serif" font-size="14.00">7&#45;8EOE</text>
</g>
<!-- 66&#45;PMM&#45;&#45;7&#45;8EOE -->
<g id="edge50" class="edge">
<title>66&#45;PMM&#45;&#45;7&#45;8EOE</title>
<path fill="none" stroke="black" d="M225.77,-870.93C220.06,-885.38 212.1,-905.54 206.4,-919.98"/>
</g>
<!-- OKEO&#45;X&#45;&#45;6&#45;ELQP -->
<g id="edge51" class="edge">
<title>OKEO&#45;X&#45;&#45;6&#45;ELQP</title>
<path fill="none" stroke="black" d="M81.81,-802.89C78.19,-802.43 74.57,-801.96 71.04,-801.51"/>
</g>
<!-- 7L9&#45;ZC -->
<g id="7L9&#45;ZC" class="node">
<title>7L9&#45;ZC</title>
<ellipse fill="none" stroke="black" cx="146.14" cy="-1008.5" rx="44.39" ry="18"/>
<text text-anchor="middle" x="146.14" y="-1004.8" font-family="Times,serif" font-size="14.00">7L9&#45;ZC</text>
</g>
<!-- 7&#45;8EOE&#45;&#45;7L9&#45;ZC -->
<g id="edge52" class="edge">
<title>7&#45;8EOE&#45;&#45;7L9&#45;ZC</title>
<path fill="none" stroke="black" d="M186.14,-955.43C177.91,-966.36 167.33,-980.38 159.12,-991.26"/>
</g>
<!-- 7L9&#45;ZC&#45;&#45;ZO&#45;P5K -->
<g id="edge53" class="edge">
<title>7L9&#45;ZC&#45;&#45;ZO&#45;P5K</title>
<path fill="none" stroke="black" d="M131.25,-1025.5C123.67,-1034.2 114.43,-1044.8 106.68,-1053.7"/>
</g>
</g>
</svg>
