<?xml version="1.0" encoding="UTF-8" standalone="no"?>
<!DOCTYPE svg PUBLIC "-//W3C//DTD SVG 1.1//EN"
 "http://www.w3.org/Graphics/SVG/1.1/DTD/svg11.dtd">
<!-- Generated by graphviz version 2.43.0 (0)
 -->
<!-- Pages: 1 -->
<svg width="1554pt" height="1332pt"
 viewBox="0.00 0.00 1554.10 1332.30" xmlns="http://www.w3.org/2000/svg" xmlns:xlink="http://www.w3.org/1999/xlink">
<g id="graph0" class="graph" transform="scale(1 1) rotate(0) translate(4 1328.3)">
<polygon fill="white" stroke="transparent" points="-4,4 -4,-1328.3 1550.1,-1328.3 1550.1,4 -4,4"/>
<!-- 3KNK&#45;A -->
<g id="3KNK&#45;A" class="node">
<title>3KNK&#45;A</title>
<polygon fill="none" stroke="black" points="1546.1,-1179.8 1474.1,-1179.8 1474.1,-1143.8 1546.1,-1143.8 1546.1,-1179.8"/>
<text text-anchor="middle" x="1510.1" y="-1158.1" font-family="Times,serif" font-size="14.00">3KNK&#45;A</text>
</g>
<!-- 0T&#45;AMZ -->
<g id="0T&#45;AMZ" class="node">
<title>0T&#45;AMZ</title>
<polygon fill="none" stroke="black" points="1331.1,-1324.3 1260.1,-1324.3 1260.1,-1288.3 1331.1,-1288.3 1331.1,-1324.3"/>
<text text-anchor="middle" x="1295.6" y="-1302.6" font-family="Times,serif" font-size="14.00">0T&#45;AMZ</text>
</g>
<!-- EF&#45;F36 -->
<g id="EF&#45;F36" class="node">
<title>EF&#45;F36</title>
<polygon fill="none" stroke="black" points="1471.3,-1288.3 1403.3,-1288.3 1403.3,-1252.3 1471.3,-1252.3 1471.3,-1288.3"/>
<text text-anchor="middle" x="1437.3" y="-1266.6" font-family="Times,serif" font-size="14.00">EF&#45;F36</text>
</g>
<!-- VSIG&#45;K -->
<g id="VSIG&#45;K" class="node">
<title>VSIG&#45;K</title>
<polygon fill="none" stroke="black" points="1331.8,-987.73 1263.8,-987.73 1263.8,-951.73 1331.8,-951.73 1331.8,-987.73"/>
<text text-anchor="middle" x="1297.8" y="-966.03" font-family="Times,serif" font-size="14.00">VSIG&#45;K</text>
</g>
<!-- 5&#45;MLDT -->
<g id="5&#45;MLDT" class="node">
<title>5&#45;MLDT</title>
<polygon fill="none" stroke="black" points="646.31,-1240.5 572.31,-1240.5 572.31,-1204.5 646.31,-1204.5 646.31,-1240.5"/>
<text text-anchor="middle" x="609.31" y="-1218.8" font-family="Times,serif" font-size="14.00">5&#45;MLDT</text>
</g>
<!-- C0T&#45;77 -->
<g id="C0T&#45;77" class="node">
<title>C0T&#45;77</title>
<ellipse fill="none" stroke="black" cx="1422.2" cy="-1161.7" rx="43" ry="18"/>
<text text-anchor="middle" x="1422.2" y="-1158" font-family="Times,serif" font-size="14.00">C0T&#45;77</text>
</g>
<!-- C0T&#45;77&#45;&#45;3KNK&#45;A -->
<g id="edge1" class="edge">
<title>C0T&#45;77&#45;&#45;3KNK&#45;A</title>
<path fill="none" stroke="black" d="M1465.1,-1161.7C1468.1,-1161.7 1471.1,-1161.7 1474,-1161.7"/>
</g>
<!-- RL&#45;KT0 -->
<g id="RL&#45;KT0" class="node">
<title>RL&#45;KT0</title>
<ellipse fill="none" stroke="black" cx="1424" cy="-1107.6" rx="45" ry="18"/>
<text text-anchor="middle" x="1424" y="-1103.9" font-family="Times,serif" font-size="14.00">RL&#45;KT0</text>
</g>
<!-- C0T&#45;77&#45;&#45;RL&#45;KT0 -->
<g id="edge2" class="edge">
<title>C0T&#45;77&#45;&#45;RL&#45;KT0</title>
<path fill="none" stroke="black" d="M1422.8,-1143.6C1423,-1137.9 1423.2,-1131.5 1423.4,-1125.7"/>
</g>
<!-- P&#45;NUWP -->
<g id="P&#45;NUWP" class="node">
<title>P&#45;NUWP</title>
<ellipse fill="none" stroke="black" cx="1405.4" cy="-1205.7" rx="50.89" ry="18"/>
<text text-anchor="middle" x="1405.4" y="-1202" font-family="Times,serif" font-size="14.00">P&#45;NUWP</text>
</g>
<!-- C0T&#45;77&#45;&#45;P&#45;NUWP -->
<g id="edge3" class="edge">
<title>C0T&#45;77&#45;&#45;P&#45;NUWP</title>
<path fill="none" stroke="black" d="M1415.4,-1179.6C1414.3,-1182.2 1413.3,-1185 1412.3,-1187.7"/>
</g>
<!-- TQ&#45;RR8 -->
<g id="TQ&#45;RR8" class="node">
<title>TQ&#45;RR8</title>
<ellipse fill="none" stroke="black" cx="1299.8" cy="-1234.3" rx="47" ry="18"/>
<text text-anchor="middle" x="1299.8" y="-1230.6" font-family="Times,serif" font-size="14.00">TQ&#45;RR8</text>
</g>
<!-- C0T&#45;77&#45;&#45;TQ&#45;RR8 -->
<g id="edge4" class="edge">
<title>C0T&#45;77&#45;&#45;TQ&#45;RR8</title>
<path fill="none" stroke="black" d="M1396.2,-1176C1387.4,-1180.9 1377.5,-1186.5 1368.6,-1191.8 1353.7,-1200.5 1337.3,-1210.7 1324.2,-1218.9"/>
</g>
<!-- UO9&#45;YG -->
<g id="UO9&#45;YG" class="node">
<title>UO9&#45;YG</title>
<ellipse fill="none" stroke="black" cx="1226.6" cy="-1080.5" rx="47" ry="18"/>
<text text-anchor="middle" x="1226.6" y="-1076.8" font-family="Times,serif" font-size="14.00">UO9&#45;YG</text>
</g>
<!-- RL&#45;KT0&#45;&#45;UO9&#45;YG -->
<g id="edge5" class="edge">
<title>RL&#45;KT0&#45;&#45;UO9&#45;YG</title>
<path fill="none" stroke="black" d="M1386.2,-1097.7C1377.4,-1095.5 1368.1,-1093.3 1359.4,-1091.5 1344.9,-1088.4 1341.3,-1087.3 1326.6,-1085.6 1309.3,-1083.6 1290.3,-1082.4 1273.5,-1081.7"/>
</g>
<!-- ZQP&#45;QV -->
<g id="ZQP&#45;QV" class="node">
<title>ZQP&#45;QV</title>
<ellipse fill="none" stroke="black" cx="1311.8" cy="-1161" rx="47" ry="18"/>
<text text-anchor="middle" x="1311.8" y="-1157.3" font-family="Times,serif" font-size="14.00">ZQP&#45;QV</text>
</g>
<!-- RL&#45;KT0&#45;&#45;ZQP&#45;QV -->
<g id="edge6" class="edge">
<title>RL&#45;KT0&#45;&#45;ZQP&#45;QV</title>
<path fill="none" stroke="black" d="M1395.1,-1121.3C1378.6,-1129.2 1358,-1139 1341.4,-1146.9"/>
</g>
<!-- ZJQH&#45;S -->
<g id="ZJQH&#45;S" class="node">
<title>ZJQH&#45;S</title>
<ellipse fill="none" stroke="black" cx="1326.3" cy="-1105.2" rx="45" ry="18"/>
<text text-anchor="middle" x="1326.3" y="-1101.5" font-family="Times,serif" font-size="14.00">ZJQH&#45;S</text>
</g>
<!-- RL&#45;KT0&#45;&#45;ZJQH&#45;S -->
<g id="edge7" class="edge">
<title>RL&#45;KT0&#45;&#45;ZJQH&#45;S</title>
<path fill="none" stroke="black" d="M1379.1,-1106.5C1376.5,-1106.4 1373.9,-1106.4 1371.3,-1106.3"/>
</g>
<!-- P&#45;NUWP&#45;&#45;EF&#45;F36 -->
<g id="edge8" class="edge">
<title>P&#45;NUWP&#45;&#45;EF&#45;F36</title>
<path fill="none" stroke="black" d="M1414.3,-1223.7C1418.6,-1232.5 1423.9,-1243.1 1428.2,-1252"/>
</g>
<!-- P&#45;NUWP&#45;&#45;ZQP&#45;QV -->
<g id="edge9" class="edge">
<title>P&#45;NUWP&#45;&#45;ZQP&#45;QV</title>
<path fill="none" stroke="black" d="M1375,-1191.2C1364.2,-1186 1352.1,-1180.3 1341.4,-1175.1"/>
</g>
<!-- TQ&#45;RR8&#45;&#45;0T&#45;AMZ -->
<g id="edge10" class="edge">
<title>TQ&#45;RR8&#45;&#45;0T&#45;AMZ</title>
<path fill="none" stroke="black" d="M1298.7,-1252.5C1298.1,-1263.3 1297.3,-1277 1296.7,-1287.9"/>
</g>
<!-- TQ&#45;RR8&#45;&#45;ZQP&#45;QV -->
<g id="edge11" class="edge">
<title>TQ&#45;RR8&#45;&#45;ZQP&#45;QV</title>
<path fill="none" stroke="black" d="M1302.8,-1216.2C1304.6,-1204.9 1307,-1190.5 1308.8,-1179.2"/>
</g>
<!-- UO9&#45;YG&#45;&#45;ZQP&#45;QV -->
<g id="edge12" class="edge">
<title>UO9&#45;YG&#45;&#45;ZQP&#45;QV</title>
<path fill="none" stroke="black" d="M1244.2,-1097.2C1258.8,-1110.9 1279.3,-1130.3 1293.9,-1144.1"/>
</g>
<!-- UO9&#45;YG&#45;&#45;ZJQH&#45;S -->
<g id="edge13" class="edge">
<title>UO9&#45;YG&#45;&#45;ZJQH&#45;S</title>
<path fill="none" stroke="black" d="M1266,-1090.3C1273.2,-1092.1 1280.6,-1093.9 1287.8,-1095.7"/>
</g>
<!-- ZJQH&#45;S&#45;&#45;ZQP&#45;QV -->
<g id="edge14" class="edge">
<title>ZJQH&#45;S&#45;&#45;ZQP&#45;QV</title>
<path fill="none" stroke="black" d="M1321.6,-1123.2C1320,-1129.6 1318.1,-1136.7 1316.4,-1143.1"/>
</g>
<!-- E9G&#45;MT -->
<g id="E9G&#45;MT" class="node">
<title>E9G&#45;MT</title>
<ellipse fill="none" stroke="black" cx="1217.2" cy="-1013.8" rx="48.99" ry="18"/>
<text text-anchor="middle" x="1217.2" y="-1010.1" font-family="Times,serif" font-size="14.00">E9G&#45;MT</text>
</g>
<!-- E9G&#45;MT&#45;&#45;VSIG&#45;K -->
<g id="edge15" class="edge">
<title>E9G&#45;MT&#45;&#45;VSIG&#45;K</title>
<path fill="none" stroke="black" d="M1244.9,-998.6C1251.3,-995.12 1258.1,-991.38 1264.7,-987.79"/>
</g>
<!-- E9G&#45;MT&#45;&#45;UO9&#45;YG -->
<g id="edge16" class="edge">
<title>E9G&#45;MT&#45;&#45;UO9&#45;YG</title>
<path fill="none" stroke="black" d="M1219.8,-1032C1221.1,-1041.4 1222.7,-1052.9 1224,-1062.3"/>
</g>
<!-- 1L&#45;BHT -->
<g id="1L&#45;BHT" class="node">
<title>1L&#45;BHT</title>
<ellipse fill="none" stroke="black" cx="1164.3" cy="-965.66" rx="46.29" ry="18"/>
<text text-anchor="middle" x="1164.3" y="-961.96" font-family="Times,serif" font-size="14.00">1L&#45;BHT</text>
</g>
<!-- 1L&#45;BHT&#45;&#45;E9G&#45;MT -->
<g id="edge17" class="edge">
<title>1L&#45;BHT&#45;&#45;E9G&#45;MT</title>
<path fill="none" stroke="black" d="M1182.5,-982.21C1187.8,-987 1193.5,-992.22 1198.8,-997.01"/>
</g>
<!-- D5IW&#45;F -->
<g id="D5IW&#45;F" class="node">
<title>D5IW&#45;F</title>
<ellipse fill="none" stroke="black" cx="1124.8" cy="-908.31" rx="45.5" ry="18"/>
<text text-anchor="middle" x="1124.8" y="-904.61" font-family="Times,serif" font-size="14.00">D5IW&#45;F</text>
</g>
<!-- 1L&#45;BHT&#45;&#45;D5IW&#45;F -->
<g id="edge18" class="edge">
<title>1L&#45;BHT&#45;&#45;D5IW&#45;F</title>
<path fill="none" stroke="black" d="M1152.2,-948.14C1147.3,-941.03 1141.7,-932.83 1136.8,-925.72"/>
</g>
<!-- F&#45;XWIN -->
<g id="F&#45;XWIN" class="node">
<title>F&#45;XWIN</title>
<ellipse fill="none" stroke="black" cx="1080.9" cy="-846.81" rx="46.29" ry="18"/>
<text text-anchor="middle" x="1080.9" y="-843.11" font-family="Times,serif" font-size="14.00">F&#45;XWIN</text>
</g>
<!-- D5IW&#45;F&#45;&#45;F&#45;XWIN -->
<g id="edge19" class="edge">
<title>D5IW&#45;F&#45;&#45;F&#45;XWIN</title>
<path fill="none" stroke="black" d="M1112.3,-890.85C1106.4,-882.61 1099.4,-872.8 1093.5,-864.53"/>
</g>
<!-- 4C&#45;B7X -->
<g id="4C&#45;B7X" class="node">
<title>4C&#45;B7X</title>
<ellipse fill="none" stroke="black" cx="1036.1" cy="-777.22" rx="45.5" ry="18"/>
<text text-anchor="middle" x="1036.1" y="-773.52" font-family="Times,serif" font-size="14.00">4C&#45;B7X</text>
</g>
<!-- 4C&#45;B7X&#45;&#45;F&#45;XWIN -->
<g id="edge20" class="edge">
<title>4C&#45;B7X&#45;&#45;F&#45;XWIN</title>
<path fill="none" stroke="black" d="M1047.4,-794.78C1054.2,-805.25 1062.7,-818.51 1069.4,-829.02"/>
</g>
<!-- LGUZ&#45;1 -->
<g id="LGUZ&#45;1" class="node">
<title>LGUZ&#45;1</title>
<ellipse fill="none" stroke="black" cx="1066.8" cy="-699.12" rx="47" ry="18"/>
<text text-anchor="middle" x="1066.8" y="-695.42" font-family="Times,serif" font-size="14.00">LGUZ&#45;1</text>
</g>
<!-- 4C&#45;B7X&#45;&#45;LGUZ&#45;1 -->
<g id="edge21" class="edge">
<title>4C&#45;B7X&#45;&#45;LGUZ&#45;1</title>
<path fill="none" stroke="black" d="M1043.3,-759.11C1048.2,-746.49 1054.8,-729.73 1059.7,-717.14"/>
</g>
<!-- BF&#45;SDP -->
<g id="BF&#45;SDP" class="node">
<title>BF&#45;SDP</title>
<ellipse fill="none" stroke="black" cx="936.44" cy="-782" rx="46.29" ry="18"/>
<text text-anchor="middle" x="936.44" y="-778.3" font-family="Times,serif" font-size="14.00">BF&#45;SDP</text>
</g>
<!-- 4C&#45;B7X&#45;&#45;BF&#45;SDP -->
<g id="edge22" class="edge">
<title>4C&#45;B7X&#45;&#45;BF&#45;SDP</title>
<path fill="none" stroke="black" d="M990.96,-779.39C988.07,-779.53 985.17,-779.67 982.28,-779.81"/>
</g>
<!-- L3&#45;XYO -->
<g id="L3&#45;XYO" class="node">
<title>L3&#45;XYO</title>
<ellipse fill="none" stroke="black" cx="911.3" cy="-848.61" rx="45" ry="18"/>
<text text-anchor="middle" x="911.3" y="-844.91" font-family="Times,serif" font-size="14.00">L3&#45;XYO</text>
</g>
<!-- BF&#45;SDP&#45;&#45;L3&#45;XYO -->
<g id="edge23" class="edge">
<title>BF&#45;SDP&#45;&#45;L3&#45;XYO</title>
<path fill="none" stroke="black" d="M929.71,-799.85C926.1,-809.41 921.67,-821.15 918.06,-830.71"/>
</g>
<!-- T&#45;Z6J2 -->
<g id="T&#45;Z6J2" class="node">
<title>T&#45;Z6J2</title>
<ellipse fill="none" stroke="black" cx="818.08" cy="-878.16" rx="40.5" ry="18"/>
<text text-anchor="middle" x="818.08" y="-874.46" font-family="Times,serif" font-size="14.00">T&#45;Z6J2</text>
</g>
<!-- L3&#45;XYO&#45;&#45;T&#45;Z6J2 -->
<g id="edge24" class="edge">
<title>L3&#45;XYO&#45;&#45;T&#45;Z6J2</title>
<path fill="none" stroke="black" d="M876.06,-859.78C867.91,-862.36 859.27,-865.1 851.22,-867.65"/>
</g>
<!-- F5FO&#45;U -->
<g id="F5FO&#45;U" class="node">
<title>F5FO&#45;U</title>
<ellipse fill="none" stroke="black" cx="1143.7" cy="-743.13" rx="48.19" ry="18"/>
<text text-anchor="middle" x="1143.7" y="-739.43" font-family="Times,serif" font-size="14.00">F5FO&#45;U</text>
</g>
<!-- F5FO&#45;U&#45;&#45;LGUZ&#45;1 -->
<g id="edge25" class="edge">
<title>F5FO&#45;U&#45;&#45;LGUZ&#45;1</title>
<path fill="none" stroke="black" d="M1117.2,-727.98C1109.4,-723.51 1100.9,-718.61 1093.1,-714.14"/>
</g>
<!-- 5WAE&#45;M -->
<g id="5WAE&#45;M" class="node">
<title>5WAE&#45;M</title>
<ellipse fill="none" stroke="black" cx="906.51" cy="-733.56" rx="50.89" ry="18"/>
<text text-anchor="middle" x="906.51" y="-729.86" font-family="Times,serif" font-size="14.00">5WAE&#45;M</text>
</g>
<!-- 5WAE&#45;M&#45;&#45;BF&#45;SDP -->
<g id="edge26" class="edge">
<title>5WAE&#45;M&#45;&#45;BF&#45;SDP</title>
<path fill="none" stroke="black" d="M917.49,-751.32C920.09,-755.53 922.87,-760.03 925.47,-764.24"/>
</g>
<!-- M&#45;NKZM -->
<g id="M&#45;NKZM" class="node">
<title>M&#45;NKZM</title>
<ellipse fill="none" stroke="black" cx="863.91" cy="-603.42" rx="53.5" ry="18"/>
<text text-anchor="middle" x="863.91" y="-599.72" font-family="Times,serif" font-size="14.00">M&#45;NKZM</text>
</g>
<!-- 5WAE&#45;M&#45;&#45;M&#45;NKZM -->
<g id="edge27" class="edge">
<title>5WAE&#45;M&#45;&#45;M&#45;NKZM</title>
<path fill="none" stroke="black" d="M898.9,-715.65C891.76,-698.4 881.14,-671.44 873.9,-647.39 871.37,-639 869.14,-629.53 867.43,-621.54"/>
</g>
<!-- H&#45;M1BY -->
<g id="H&#45;M1BY" class="node">
<title>H&#45;M1BY</title>
<ellipse fill="none" stroke="black" cx="817.69" cy="-689.52" rx="48.99" ry="18"/>
<text text-anchor="middle" x="817.69" y="-685.82" font-family="Times,serif" font-size="14.00">H&#45;M1BY</text>
</g>
<!-- 5WAE&#45;M&#45;&#45;H&#45;M1BY -->
<g id="edge28" class="edge">
<title>5WAE&#45;M&#45;&#45;H&#45;M1BY</title>
<path fill="none" stroke="black" d="M876.93,-718.89C867.24,-714.09 856.49,-708.76 846.83,-703.97"/>
</g>
<!-- W2F&#45;ZH -->
<g id="W2F&#45;ZH" class="node">
<title>W2F&#45;ZH</title>
<ellipse fill="none" stroke="black" cx="767.79" cy="-559.4" rx="48.99" ry="18"/>
<text text-anchor="middle" x="767.79" y="-555.7" font-family="Times,serif" font-size="14.00">W2F&#45;ZH</text>
</g>
<!-- M&#45;NKZM&#45;&#45;W2F&#45;ZH -->
<g id="edge29" class="edge">
<title>M&#45;NKZM&#45;&#45;W2F&#45;ZH</title>
<path fill="none" stroke="black" d="M832.17,-588.88C821.34,-583.92 809.26,-578.39 798.52,-573.47"/>
</g>
<!-- 0&#45;WVQS -->
<g id="0&#45;WVQS" class="node">
<title>0&#45;WVQS</title>
<ellipse fill="none" stroke="black" cx="923.59" cy="-647.45" rx="48.19" ry="18"/>
<text text-anchor="middle" x="923.59" y="-643.75" font-family="Times,serif" font-size="14.00">0&#45;WVQS</text>
</g>
<!-- 0&#45;WVQS&#45;&#45;5WAE&#45;M -->
<g id="edge30" class="edge">
<title>0&#45;WVQS&#45;&#45;5WAE&#45;M</title>
<path fill="none" stroke="black" d="M919.97,-665.71C917.07,-680.32 913.02,-700.72 910.13,-715.32"/>
</g>
<!-- 0&#45;9UHT -->
<g id="0&#45;9UHT" class="node">
<title>0&#45;9UHT</title>
<ellipse fill="none" stroke="black" cx="800.62" cy="-742.03" rx="47" ry="18"/>
<text text-anchor="middle" x="800.62" y="-738.33" font-family="Times,serif" font-size="14.00">0&#45;9UHT</text>
</g>
<!-- 0&#45;9UHT&#45;&#45;5WAE&#45;M -->
<g id="edge31" class="edge">
<title>0&#45;9UHT&#45;&#45;5WAE&#45;M</title>
<path fill="none" stroke="black" d="M846.45,-738.36C849.91,-738.09 853.42,-737.81 856.91,-737.53"/>
</g>
<!-- 0&#45;9UHT&#45;&#45;0&#45;WVQS -->
<g id="edge32" class="edge">
<title>0&#45;9UHT&#45;&#45;0&#45;WVQS</title>
<path fill="none" stroke="black" d="M822.73,-726.07C832.15,-719.18 843.24,-711 853.13,-703.44 870.26,-690.35 889.4,-675.1 903.4,-663.83"/>
</g>
<!-- J1H&#45;R4 -->
<g id="J1H&#45;R4" class="node">
<title>J1H&#45;R4</title>
<ellipse fill="none" stroke="black" cx="702.1" cy="-739.3" rx="43.59" ry="18"/>
<text text-anchor="middle" x="702.1" y="-735.6" font-family="Times,serif" font-size="14.00">J1H&#45;R4</text>
</g>
<!-- 0&#45;9UHT&#45;&#45;J1H&#45;R4 -->
<g id="edge33" class="edge">
<title>0&#45;9UHT&#45;&#45;J1H&#45;R4</title>
<path fill="none" stroke="black" d="M753.67,-740.73C750.99,-740.66 748.31,-740.58 745.64,-740.51"/>
</g>
<!-- J9SH&#45;A -->
<g id="J9SH&#45;A" class="node">
<title>J9SH&#45;A</title>
<ellipse fill="none" stroke="black" cx="1121.4" cy="-644.25" rx="43.59" ry="18"/>
<text text-anchor="middle" x="1121.4" y="-640.55" font-family="Times,serif" font-size="14.00">J9SH&#45;A</text>
</g>
<!-- J9SH&#45;A&#45;&#45;LGUZ&#45;1 -->
<g id="edge34" class="edge">
<title>J9SH&#45;A&#45;&#45;LGUZ&#45;1</title>
<path fill="none" stroke="black" d="M1104.7,-661.01C1098.1,-667.69 1090.4,-675.37 1083.7,-682.08"/>
</g>
<!-- JKJ&#45;VJ -->
<g id="JKJ&#45;VJ" class="node">
<title>JKJ&#45;VJ</title>
<ellipse fill="none" stroke="black" cx="1155.7" cy="-597.66" rx="36.5" ry="18"/>
<text text-anchor="middle" x="1155.7" y="-593.96" font-family="Times,serif" font-size="14.00">JKJ&#45;VJ</text>
</g>
<!-- J9SH&#45;A&#45;&#45;JKJ&#45;VJ -->
<g id="edge35" class="edge">
<title>J9SH&#45;A&#45;&#45;JKJ&#45;VJ</title>
<path fill="none" stroke="black" d="M1134.2,-626.9C1137.1,-622.97 1140.1,-618.8 1143,-614.87"/>
</g>
<!-- RTX0&#45;S -->
<g id="RTX0&#45;S" class="node">
<title>RTX0&#45;S</title>
<ellipse fill="none" stroke="black" cx="1165" cy="-529.09" rx="45" ry="18"/>
<text text-anchor="middle" x="1165" y="-525.39" font-family="Times,serif" font-size="14.00">RTX0&#45;S</text>
</g>
<!-- JKJ&#45;VJ&#45;&#45;RTX0&#45;S -->
<g id="edge36" class="edge">
<title>JKJ&#45;VJ&#45;&#45;RTX0&#45;S</title>
<path fill="none" stroke="black" d="M1158.2,-579.65C1159.5,-569.65 1161.2,-557.24 1162.5,-547.23"/>
</g>
<!-- MT&#45;2VJ -->
<g id="MT&#45;2VJ" class="node">
<title>MT&#45;2VJ</title>
<ellipse fill="none" stroke="black" cx="1243.7" cy="-573.1" rx="43.59" ry="18"/>
<text text-anchor="middle" x="1243.7" y="-569.4" font-family="Times,serif" font-size="14.00">MT&#45;2VJ</text>
</g>
<!-- JKJ&#45;VJ&#45;&#45;MT&#45;2VJ -->
<g id="edge37" class="edge">
<title>JKJ&#45;VJ&#45;&#45;MT&#45;2VJ</title>
<path fill="none" stroke="black" d="M1187.5,-588.79C1194,-586.98 1200.9,-585.06 1207.5,-583.2"/>
</g>
<!-- MT&#45;2VJ&#45;&#45;RTX0&#45;S -->
<g id="edge38" class="edge">
<title>MT&#45;2VJ&#45;&#45;RTX0&#45;S</title>
<path fill="none" stroke="black" d="M1217.5,-558.44C1209.1,-553.74 1199.8,-548.54 1191.4,-543.83"/>
</g>
<!-- 33FN&#45;P -->
<g id="33FN&#45;P" class="node">
<title>33FN&#45;P</title>
<ellipse fill="none" stroke="black" cx="1265.9" cy="-630.36" rx="46.29" ry="18"/>
<text text-anchor="middle" x="1265.9" y="-626.66" font-family="Times,serif" font-size="14.00">33FN&#45;P</text>
</g>
<!-- 33FN&#45;P&#45;&#45;JKJ&#45;VJ -->
<g id="edge39" class="edge">
<title>33FN&#45;P&#45;&#45;JKJ&#45;VJ</title>
<path fill="none" stroke="black" d="M1228.9,-619.38C1215.4,-615.37 1200.3,-610.88 1187.3,-607.03"/>
</g>
<!-- 33FN&#45;P&#45;&#45;MT&#45;2VJ -->
<g id="edge40" class="edge">
<title>33FN&#45;P&#45;&#45;MT&#45;2VJ</title>
<path fill="none" stroke="black" d="M1259,-612.55C1256.3,-605.73 1253.3,-597.93 1250.7,-591.09"/>
</g>
<!-- NM&#45;OEA -->
<g id="NM&#45;OEA" class="node">
<title>NM&#45;OEA</title>
<ellipse fill="none" stroke="black" cx="1374" cy="-637.11" rx="51.5" ry="18"/>
<text text-anchor="middle" x="1374" y="-633.41" font-family="Times,serif" font-size="14.00">NM&#45;OEA</text>
</g>
<!-- 33FN&#45;P&#45;&#45;NM&#45;OEA -->
<g id="edge41" class="edge">
<title>33FN&#45;P&#45;&#45;NM&#45;OEA</title>
<path fill="none" stroke="black" d="M1311.7,-633.22C1315.5,-633.46 1319.4,-633.7 1323.2,-633.94"/>
</g>
<!-- 3HQC&#45;6 -->
<g id="3HQC&#45;6" class="node">
<title>3HQC&#45;6</title>
<ellipse fill="none" stroke="black" cx="1265.4" cy="-489.84" rx="47.5" ry="18"/>
<text text-anchor="middle" x="1265.4" y="-486.14" font-family="Times,serif" font-size="14.00">3HQC&#45;6</text>
</g>
<!-- 3HQC&#45;6&#45;&#45;JKJ&#45;VJ -->
<g id="edge42" class="edge">
<title>3HQC&#45;6&#45;&#45;JKJ&#45;VJ</title>
<path fill="none" stroke="black" d="M1248.2,-506.69C1227.5,-527.06 1192.9,-561.13 1172.4,-581.29"/>
</g>
<!-- OX&#45;RGN -->
<g id="OX&#45;RGN" class="node">
<title>OX&#45;RGN</title>
<ellipse fill="none" stroke="black" cx="1370.3" cy="-498.26" rx="49.5" ry="18"/>
<text text-anchor="middle" x="1370.3" y="-494.56" font-family="Times,serif" font-size="14.00">OX&#45;RGN</text>
</g>
<!-- 3HQC&#45;6&#45;&#45;OX&#45;RGN -->
<g id="edge43" class="edge">
<title>3HQC&#45;6&#45;&#45;OX&#45;RGN</title>
<path fill="none" stroke="black" d="M1312,-493.58C1315.3,-493.84 1318.6,-494.11 1321.9,-494.37"/>
</g>
<!-- R&#45;OCBA -->
<g id="R&#45;OCBA" class="node">
<title>R&#45;OCBA</title>
<ellipse fill="none" stroke="black" cx="1274.9" cy="-424.13" rx="48.19" ry="18"/>
<text text-anchor="middle" x="1274.9" y="-420.43" font-family="Times,serif" font-size="14.00">R&#45;OCBA</text>
</g>
<!-- 3HQC&#45;6&#45;&#45;R&#45;OCBA -->
<g id="edge44" class="edge">
<title>3HQC&#45;6&#45;&#45;R&#45;OCBA</title>
<path fill="none" stroke="black" d="M1268,-471.54C1269.3,-462.42 1270.9,-451.44 1272.2,-442.34"/>
</g>
<!-- GA&#45;2V7 -->
<g id="GA&#45;2V7" class="node">
<title>GA&#45;2V7</title>
<ellipse fill="none" stroke="black" cx="1239.9" cy="-350.24" rx="45.5" ry="18"/>
<text text-anchor="middle" x="1239.9" y="-346.54" font-family="Times,serif" font-size="14.00">GA&#45;2V7</text>
</g>
<!-- GA&#45;2V7&#45;&#45;R&#45;OCBA -->
<g id="edge45" class="edge">
<title>GA&#45;2V7&#45;&#45;R&#45;OCBA</title>
<path fill="none" stroke="black" d="M1248.3,-368.13C1253.8,-379.66 1260.9,-394.6 1266.3,-406.15"/>
</g>
<!-- DB&#45;6W4 -->
<g id="DB&#45;6W4" class="node">
<title>DB&#45;6W4</title>
<ellipse fill="none" stroke="black" cx="1342.2" cy="-380.1" rx="48.99" ry="18"/>
<text text-anchor="middle" x="1342.2" y="-376.4" font-family="Times,serif" font-size="14.00">DB&#45;6W4</text>
</g>
<!-- DB&#45;6W4&#45;&#45;R&#45;OCBA -->
<g id="edge46" class="edge">
<title>DB&#45;6W4&#45;&#45;R&#45;OCBA</title>
<path fill="none" stroke="black" d="M1317.9,-396C1311.7,-400.04 1305.1,-404.38 1298.9,-408.41"/>
</g>
<!-- DB&#45;6W4&#45;&#45;GA&#45;2V7 -->
<g id="edge47" class="edge">
<title>DB&#45;6W4&#45;&#45;GA&#45;2V7</title>
<path fill="none" stroke="black" d="M1303.8,-368.9C1294.9,-366.32 1285.6,-363.58 1276.8,-361.01"/>
</g>
<!-- 7&#45;692B -->
<g id="7&#45;692B" class="node">
<title>7&#45;692B</title>
<ellipse fill="none" stroke="black" cx="1393.5" cy="-329.36" rx="44.39" ry="18"/>
<text text-anchor="middle" x="1393.5" y="-325.66" font-family="Times,serif" font-size="14.00">7&#45;692B</text>
</g>
<!-- 7&#45;692B&#45;&#45;DB&#45;6W4 -->
<g id="edge48" class="edge">
<title>7&#45;692B&#45;&#45;DB&#45;6W4</title>
<path fill="none" stroke="black" d="M1376.4,-346.25C1370.9,-351.67 1364.8,-357.68 1359.4,-363.1"/>
</g>
<!-- XF&#45;TQL -->
<g id="XF&#45;TQL" class="node">
<title>XF&#45;TQL</title>
<polygon fill="none" stroke="black" points="1477.9,-296.79 1408.9,-296.79 1408.9,-260.79 1477.9,-260.79 1477.9,-296.79"/>
<text text-anchor="middle" x="1443.4" y="-275.09" font-family="Times,serif" font-size="14.00">XF&#45;TQL</text>
</g>
<!-- 7&#45;692B&#45;&#45;XF&#45;TQL -->
<g id="edge49" class="edge">
<title>7&#45;692B&#45;&#45;XF&#45;TQL</title>
<path fill="none" stroke="black" d="M1410.1,-312.52C1415,-307.58 1420.3,-302.15 1425.3,-297.12"/>
</g>
<!-- AN&#45;G54 -->
<g id="AN&#45;G54" class="node">
<title>AN&#45;G54</title>
<ellipse fill="none" stroke="black" cx="841.57" cy="-922.2" rx="47" ry="18"/>
<text text-anchor="middle" x="841.57" y="-918.5" font-family="Times,serif" font-size="14.00">AN&#45;G54</text>
</g>
<!-- AN&#45;G54&#45;&#45;L3&#45;XYO -->
<g id="edge50" class="edge">
<title>AN&#45;G54&#45;&#45;L3&#45;XYO</title>
<path fill="none" stroke="black" d="M857.75,-905.13C869.01,-893.24 883.97,-877.45 895.22,-865.59"/>
</g>
<!-- AN&#45;G54&#45;&#45;T&#45;Z6J2 -->
<g id="edge51" class="edge">
<title>AN&#45;G54&#45;&#45;T&#45;Z6J2</title>
<path fill="none" stroke="black" d="M832.15,-904.54C830.62,-901.67 829.03,-898.69 827.5,-895.82"/>
</g>
<!-- ZXI&#45;K2 -->
<g id="ZXI&#45;K2" class="node">
<title>ZXI&#45;K2</title>
<ellipse fill="none" stroke="black" cx="749.7" cy="-966.23" rx="42.49" ry="18"/>
<text text-anchor="middle" x="749.7" y="-962.53" font-family="Times,serif" font-size="14.00">ZXI&#45;K2</text>
</g>
<!-- AN&#45;G54&#45;&#45;ZXI&#45;K2 -->
<g id="edge52" class="edge">
<title>AN&#45;G54&#45;&#45;ZXI&#45;K2</title>
<path fill="none" stroke="black" d="M812.25,-936.25C801.22,-941.54 788.72,-947.53 777.81,-952.76"/>
</g>
<!-- CT7&#45;5V -->
<g id="CT7&#45;5V" class="node">
<title>CT7&#45;5V</title>
<ellipse fill="none" stroke="black" cx="866.38" cy="-989.44" rx="44.39" ry="18"/>
<text text-anchor="middle" x="866.38" y="-985.74" font-family="Times,serif" font-size="14.00">CT7&#45;5V</text>
</g>
<!-- AN&#45;G54&#45;&#45;CT7&#45;5V -->
<g id="edge53" class="edge">
<title>AN&#45;G54&#45;&#45;CT7&#45;5V</title>
<path fill="none" stroke="black" d="M848.22,-940.22C851.78,-949.86 856.15,-961.72 859.71,-971.37"/>
</g>
<!-- 2JJ&#45;0E -->
<g id="2JJ&#45;0E" class="node">
<title>2JJ&#45;0E</title>
<ellipse fill="none" stroke="black" cx="873.19" cy="-1063.8" rx="39" ry="18"/>
<text text-anchor="middle" x="873.19" y="-1060.1" font-family="Times,serif" font-size="14.00">2JJ&#45;0E</text>
</g>
<!-- 2JJ&#45;0E&#45;&#45;CT7&#45;5V -->
<g id="edge54" class="edge">
<title>2JJ&#45;0E&#45;&#45;CT7&#45;5V</title>
<path fill="none" stroke="black" d="M871.54,-1045.8C870.48,-1034.2 869.1,-1019.2 868.03,-1007.5"/>
</g>
<!-- B0C&#45;LD -->
<g id="B0C&#45;LD" class="node">
<title>B0C&#45;LD</title>
<ellipse fill="none" stroke="black" cx="721.49" cy="-1014.6" rx="46.29" ry="18"/>
<text text-anchor="middle" x="721.49" y="-1010.9" font-family="Times,serif" font-size="14.00">B0C&#45;LD</text>
</g>
<!-- B0C&#45;LD&#45;&#45;ZXI&#45;K2 -->
<g id="edge55" class="edge">
<title>B0C&#45;LD&#45;&#45;ZXI&#45;K2</title>
<path fill="none" stroke="black" d="M731.84,-996.88C734.29,-992.67 736.91,-988.18 739.36,-983.98"/>
</g>
<!-- NP6&#45;38 -->
<g id="NP6&#45;38" class="node">
<title>NP6&#45;38</title>
<ellipse fill="none" stroke="black" cx="666.87" cy="-1063.7" rx="45.5" ry="18"/>
<text text-anchor="middle" x="666.87" y="-1060" font-family="Times,serif" font-size="14.00">NP6&#45;38</text>
</g>
<!-- B0C&#45;LD&#45;&#45;NP6&#45;38 -->
<g id="edge56" class="edge">
<title>B0C&#45;LD&#45;&#45;NP6&#45;38</title>
<path fill="none" stroke="black" d="M703,-1031.2C697.31,-1036.3 691.04,-1042 685.35,-1047.1"/>
</g>
<!-- W&#45;Z3HW -->
<g id="W&#45;Z3HW" class="node">
<title>W&#45;Z3HW</title>
<ellipse fill="none" stroke="black" cx="615.33" cy="-1003.6" rx="52" ry="18"/>
<text text-anchor="middle" x="615.33" y="-999.9" font-family="Times,serif" font-size="14.00">W&#45;Z3HW</text>
</g>
<!-- B0C&#45;LD&#45;&#45;W&#45;Z3HW -->
<g id="edge57" class="edge">
<title>B0C&#45;LD&#45;&#45;W&#45;Z3HW</title>
<path fill="none" stroke="black" d="M676.78,-1010C673.04,-1009.6 669.24,-1009.2 665.47,-1008.8"/>
</g>
<!-- NP6&#45;38&#45;&#45;W&#45;Z3HW -->
<g id="edge58" class="edge">
<title>NP6&#45;38&#45;&#45;W&#45;Z3HW</title>
<path fill="none" stroke="black" d="M651.96,-1046.3C645.19,-1038.4 637.18,-1029.1 630.38,-1021.2"/>
</g>
<!-- G&#45;YT55 -->
<g id="G&#45;YT55" class="node">
<title>G&#45;YT55</title>
<ellipse fill="none" stroke="black" cx="584.78" cy="-1119.3" rx="43.59" ry="18"/>
<text text-anchor="middle" x="584.78" y="-1115.6" font-family="Times,serif" font-size="14.00">G&#45;YT55</text>
</g>
<!-- G&#45;YT55&#45;&#45;NP6&#45;38 -->
<g id="edge59" class="edge">
<title>G&#45;YT55&#45;&#45;NP6&#45;38</title>
<path fill="none" stroke="black" d="M607.65,-1103.8C618.94,-1096.1 632.53,-1086.9 643.84,-1079.3"/>
</g>
<!-- IZ&#45;AOB -->
<g id="IZ&#45;AOB" class="node">
<title>IZ&#45;AOB</title>
<ellipse fill="none" stroke="black" cx="657.78" cy="-1163.3" rx="44.39" ry="18"/>
<text text-anchor="middle" x="657.78" y="-1159.6" font-family="Times,serif" font-size="14.00">IZ&#45;AOB</text>
</g>
<!-- G&#45;YT55&#45;&#45;IZ&#45;AOB -->
<g id="edge60" class="edge">
<title>G&#45;YT55&#45;&#45;IZ&#45;AOB</title>
<path fill="none" stroke="black" d="M609.5,-1134.2C616.94,-1138.7 625.12,-1143.6 632.6,-1148.1"/>
</g>
<!-- G5&#45;EN3 -->
<g id="G5&#45;EN3" class="node">
<title>G5&#45;EN3</title>
<ellipse fill="none" stroke="black" cx="565.88" cy="-1075.2" rx="47.5" ry="18"/>
<text text-anchor="middle" x="565.88" y="-1071.5" font-family="Times,serif" font-size="14.00">G5&#45;EN3</text>
</g>
<!-- G&#45;YT55&#45;&#45;G5&#45;EN3 -->
<g id="edge61" class="edge">
<title>G&#45;YT55&#45;&#45;G5&#45;EN3</title>
<path fill="none" stroke="black" d="M577.09,-1101.4C575.95,-1098.7 574.77,-1096 573.62,-1093.3"/>
</g>
<!-- IZ&#45;AOB&#45;&#45;5&#45;MLDT -->
<g id="edge62" class="edge">
<title>IZ&#45;AOB&#45;&#45;5&#45;MLDT</title>
<path fill="none" stroke="black" d="M643.76,-1180.4C637.61,-1187.9 630.39,-1196.8 624.15,-1204.4"/>
</g>
<!-- IZ&#45;AOB&#45;&#45;NP6&#45;38 -->
<g id="edge63" class="edge">
<title>IZ&#45;AOB&#45;&#45;NP6&#45;38</title>
<path fill="none" stroke="black" d="M659.45,-1145C661.09,-1127.1 663.58,-1099.8 665.22,-1081.8"/>
</g>
<!-- G5&#45;EN3&#45;&#45;NP6&#45;38 -->
<g id="edge64" class="edge">
<title>G5&#45;EN3&#45;&#45;NP6&#45;38</title>
<path fill="none" stroke="black" d="M611.36,-1070C615.23,-1069.6 619.14,-1069.1 623.01,-1068.7"/>
</g>
<!-- G5&#45;EN3&#45;&#45;IZ&#45;AOB -->
<g id="edge65" class="edge">
<title>G5&#45;EN3&#45;&#45;IZ&#45;AOB</title>
<path fill="none" stroke="black" d="M593.85,-1089.9C601.62,-1094.5 609.87,-1099.8 616.93,-1105.5 623.52,-1110.8 624.75,-1112.7 629.92,-1119.4 636.33,-1127.7 642.65,-1137.5 647.65,-1145.7"/>
</g>
<!-- BMU&#45;V1 -->
<g id="BMU&#45;V1" class="node">
<title>BMU&#45;V1</title>
<ellipse fill="none" stroke="black" cx="699.18" cy="-515.36" rx="48.99" ry="18"/>
<text text-anchor="middle" x="699.18" y="-511.66" font-family="Times,serif" font-size="14.00">BMU&#45;V1</text>
</g>
<!-- BMU&#45;V1&#45;&#45;W2F&#45;ZH -->
<g id="edge66" class="edge">
<title>BMU&#45;V1&#45;&#45;W2F&#45;ZH</title>
<path fill="none" stroke="black" d="M723.56,-531.01C729.88,-535.07 736.69,-539.43 743.02,-543.5"/>
</g>
<!-- ZXC8&#45;1 -->
<g id="ZXC8&#45;1" class="node">
<title>ZXC8&#45;1</title>
<ellipse fill="none" stroke="black" cx="639.35" cy="-471.35" rx="45" ry="18"/>
<text text-anchor="middle" x="639.35" y="-467.65" font-family="Times,serif" font-size="14.00">ZXC8&#45;1</text>
</g>
<!-- BMU&#45;V1&#45;&#45;ZXC8&#45;1 -->
<g id="edge67" class="edge">
<title>BMU&#45;V1&#45;&#45;ZXC8&#45;1</title>
<path fill="none" stroke="black" d="M677.24,-499.22C671.9,-495.3 666.2,-491.11 660.89,-487.19"/>
</g>
<!-- LBV&#45;Q1 -->
<g id="LBV&#45;Q1" class="node">
<title>LBV&#45;Q1</title>
<ellipse fill="none" stroke="black" cx="586.56" cy="-427.31" rx="45.5" ry="18"/>
<text text-anchor="middle" x="586.56" y="-423.61" font-family="Times,serif" font-size="14.00">LBV&#45;Q1</text>
</g>
<!-- LBV&#45;Q1&#45;&#45;ZXC8&#45;1 -->
<g id="edge68" class="edge">
<title>LBV&#45;Q1&#45;&#45;ZXC8&#45;1</title>
<path fill="none" stroke="black" d="M606.22,-443.71C610.68,-447.43 615.41,-451.38 619.86,-455.09"/>
</g>
<!-- Z&#45;40CG -->
<g id="Z&#45;40CG" class="node">
<title>Z&#45;40CG</title>
<ellipse fill="none" stroke="black" cx="539.92" cy="-381.46" rx="46.29" ry="18"/>
<text text-anchor="middle" x="539.92" y="-377.76" font-family="Times,serif" font-size="14.00">Z&#45;40CG</text>
</g>
<!-- LBV&#45;Q1&#45;&#45;Z&#45;40CG -->
<g id="edge69" class="edge">
<title>LBV&#45;Q1&#45;&#45;Z&#45;40CG</title>
<path fill="none" stroke="black" d="M569.46,-410.5C565.41,-406.51 561.08,-402.26 557.02,-398.27"/>
</g>
<!-- O&#45;RIDF -->
<g id="O&#45;RIDF" class="node">
<title>O&#45;RIDF</title>
<ellipse fill="none" stroke="black" cx="497.81" cy="-334.14" rx="45.5" ry="18"/>
<text text-anchor="middle" x="497.81" y="-330.44" font-family="Times,serif" font-size="14.00">O&#45;RIDF</text>
</g>
<!-- O&#45;RIDF&#45;&#45;Z&#45;40CG -->
<g id="edge70" class="edge">
<title>O&#45;RIDF&#45;&#45;Z&#45;40CG</title>
<path fill="none" stroke="black" d="M513.01,-351.22C516.78,-355.46 520.83,-360 524.6,-364.24"/>
</g>
<!-- A&#45;5M31 -->
<g id="A&#45;5M31" class="node">
<title>A&#45;5M31</title>
<ellipse fill="none" stroke="black" cx="455.89" cy="-286.59" rx="47" ry="18"/>
<text text-anchor="middle" x="455.89" y="-282.89" font-family="Times,serif" font-size="14.00">A&#45;5M31</text>
</g>
<!-- A&#45;5M31&#45;&#45;O&#45;RIDF -->
<g id="edge71" class="edge">
<title>A&#45;5M31&#45;&#45;O&#45;RIDF</title>
<path fill="none" stroke="black" d="M471.02,-303.76C474.78,-308.01 478.8,-312.57 482.56,-316.84"/>
</g>
<!-- BOE7&#45;P -->
<g id="BOE7&#45;P" class="node">
<title>BOE7&#45;P</title>
<ellipse fill="none" stroke="black" cx="412.19" cy="-239.57" rx="47" ry="18"/>
<text text-anchor="middle" x="412.19" y="-235.87" font-family="Times,serif" font-size="14.00">BOE7&#45;P</text>
</g>
<!-- A&#45;5M31&#45;&#45;BOE7&#45;P -->
<g id="edge72" class="edge">
<title>A&#45;5M31&#45;&#45;BOE7&#45;P</title>
<path fill="none" stroke="black" d="M440.11,-269.61C436.2,-265.41 432.01,-260.89 428.09,-256.68"/>
</g>
<!-- E&#45;GCX0 -->
<g id="E&#45;GCX0" class="node">
<title>E&#45;GCX0</title>
<ellipse fill="none" stroke="black" cx="375.08" cy="-190.71" rx="47" ry="18"/>
<text text-anchor="middle" x="375.08" y="-187.01" font-family="Times,serif" font-size="14.00">E&#45;GCX0</text>
</g>
<!-- BOE7&#45;P&#45;&#45;E&#45;GCX0 -->
<g id="edge73" class="edge">
<title>BOE7&#45;P&#45;&#45;E&#45;GCX0</title>
<path fill="none" stroke="black" d="M399,-222.21C395.5,-217.6 391.72,-212.62 388.23,-208.02"/>
</g>
<!-- VBFC&#45;8 -->
<g id="VBFC&#45;8" class="node">
<title>VBFC&#45;8</title>
<ellipse fill="none" stroke="black" cx="302.76" cy="-146.7" rx="46.29" ry="18"/>
<text text-anchor="middle" x="302.76" y="-143" font-family="Times,serif" font-size="14.00">VBFC&#45;8</text>
</g>
<!-- E&#45;GCX0&#45;&#45;VBFC&#45;8 -->
<g id="edge74" class="edge">
<title>E&#45;GCX0&#45;&#45;VBFC&#45;8</title>
<path fill="none" stroke="black" d="M349.79,-175.32C342.62,-170.96 334.82,-166.21 327.67,-161.86"/>
</g>
<!-- VJ0&#45;81 -->
<g id="VJ0&#45;81" class="node">
<title>VJ0&#45;81</title>
<ellipse fill="none" stroke="black" cx="379.42" cy="-102.65" rx="41" ry="18"/>
<text text-anchor="middle" x="379.42" y="-98.95" font-family="Times,serif" font-size="14.00">VJ0&#45;81</text>
</g>
<!-- E&#45;GCX0&#45;&#45;VJ0&#45;81 -->
<g id="edge75" class="edge">
<title>E&#45;GCX0&#45;&#45;VJ0&#45;81</title>
<path fill="none" stroke="black" d="M375.98,-172.47C376.72,-157.35 377.78,-135.98 378.52,-120.87"/>
</g>
<!-- VBFC&#45;8&#45;&#45;VJ0&#45;81 -->
<g id="edge76" class="edge">
<title>VBFC&#45;8&#45;&#45;VJ0&#45;81</title>
<path fill="none" stroke="black" d="M328.71,-131.79C337.05,-126.99 346.27,-121.7 354.53,-116.95"/>
</g>
<!-- YVA&#45;F0 -->
<g id="YVA&#45;F0" class="node">
<title>YVA&#45;F0</title>
<ellipse fill="none" stroke="black" cx="204.39" cy="-106.06" rx="44.39" ry="18"/>
<text text-anchor="middle" x="204.39" y="-102.36" font-family="Times,serif" font-size="14.00">YVA&#45;F0</text>
</g>
<!-- VBFC&#45;8&#45;&#45;YVA&#45;F0 -->
<g id="edge77" class="edge">
<title>VBFC&#45;8&#45;&#45;YVA&#45;F0</title>
<path fill="none" stroke="black" d="M270.82,-133.51C259.49,-128.83 246.76,-123.57 235.5,-118.91"/>
</g>
<!-- 0D&#45;CHA -->
<g id="0D&#45;CHA" class="node">
<title>0D&#45;CHA</title>
<ellipse fill="none" stroke="black" cx="137.2" cy="-62.03" rx="48.19" ry="18"/>
<text text-anchor="middle" x="137.2" y="-58.33" font-family="Times,serif" font-size="14.00">0D&#45;CHA</text>
</g>
<!-- 0D&#45;CHA&#45;&#45;YVA&#45;F0 -->
<g id="edge78" class="edge">
<title>0D&#45;CHA&#45;&#45;YVA&#45;F0</title>
<path fill="none" stroke="black" d="M161.08,-77.68C167.57,-81.93 174.59,-86.53 181.04,-90.76"/>
</g>
<!-- A2V6&#45;6 -->
<g id="A2V6&#45;6" class="node">
<title>A2V6&#45;6</title>
<ellipse fill="none" stroke="black" cx="44.2" cy="-18" rx="44.39" ry="18"/>
<text text-anchor="middle" x="44.2" y="-14.3" font-family="Times,serif" font-size="14.00">A2V6&#45;6</text>
</g>
<!-- 0D&#45;CHA&#45;&#45;A2V6&#45;6 -->
<g id="edge79" class="edge">
<title>0D&#45;CHA&#45;&#45;A2V6&#45;6</title>
<path fill="none" stroke="black" d="M107.26,-47.85C96.32,-42.68 83.98,-36.83 73.13,-31.7"/>
</g>
</g>
</svg>
