<?xml version="1.0" encoding="UTF-8" standalone="no"?>
<!DOCTYPE svg PUBLIC "-//W3C//DTD SVG 1.1//EN"
 "http://www.w3.org/Graphics/SVG/1.1/DTD/svg11.dtd">
<!-- Generated by graphviz version 2.43.0 (0)
 -->
<!-- Pages: 1 -->
<svg width="1291pt" height="877pt"
 viewBox="0.00 0.00 1290.90 876.67" xmlns="http://www.w3.org/2000/svg" xmlns:xlink="http://www.w3.org/1999/xlink">
<g id="graph0" class="graph" transform="scale(1 1) rotate(0) translate(4 872.67)">
<polygon fill="white" stroke="transparent" points="-4,4 -4,-872.67 1286.9,-872.67 1286.9,4 -4,4"/>
<!-- R&#45;ARKN -->
<g id="R&#45;ARKN" class="node">
<title>R&#45;ARKN</title>
<polygon fill="none" stroke="black" points="1108.4,-581.47 1034.4,-581.47 1034.4,-545.47 1108.4,-545.47 1108.4,-581.47"/>
<text text-anchor="middle" x="1071.4" y="-559.77" font-family="Times,serif" font-size="14.00">R&#45;ARKN</text>
</g>
<!-- SN9S&#45;N -->
<g id="SN9S&#45;N" class="node">
<title>SN9S&#45;N</title>
<polygon fill="none" stroke="black" points="1282.9,-170.99 1208.9,-170.99 1208.9,-134.99 1282.9,-134.99 1282.9,-170.99"/>
<text text-anchor="middle" x="1245.9" y="-149.29" font-family="Times,serif" font-size="14.00">SN9S&#45;N</text>
</g>
<!-- KSM&#45;1T -->
<g id="KSM&#45;1T" class="node">
<title>KSM&#45;1T</title>
<polygon fill="none" stroke="black" points="1108.7,-36 1034.7,-36 1034.7,0 1108.7,0 1108.7,-36"/>
<text text-anchor="middle" x="1071.7" y="-14.3" font-family="Times,serif" font-size="14.00">KSM&#45;1T</text>
</g>
<!-- JI&#45;K5H -->
<g id="JI&#45;K5H" class="node">
<title>JI&#45;K5H</title>
<ellipse fill="none" stroke="black" cx="1159.9" cy="-149.29" rx="41" ry="18"/>
<text text-anchor="middle" x="1159.9" y="-145.59" font-family="Times,serif" font-size="14.00">JI&#45;K5H</text>
</g>
<!-- JI&#45;K5H&#45;&#45;SN9S&#45;N -->
<g id="edge1" class="edge">
<title>JI&#45;K5H&#45;&#45;SN9S&#45;N</title>
<path fill="none" stroke="black" d="M1200.6,-151.04C1203.3,-151.16 1206,-151.27 1208.7,-151.39"/>
</g>
<!-- O&#45;MCZR -->
<g id="O&#45;MCZR" class="node">
<title>O&#45;MCZR</title>
<ellipse fill="none" stroke="black" cx="1052.3" cy="-62.03" rx="50.89" ry="18"/>
<text text-anchor="middle" x="1052.3" y="-58.33" font-family="Times,serif" font-size="14.00">O&#45;MCZR</text>
</g>
<!-- JI&#45;K5H&#45;&#45;O&#45;MCZR -->
<g id="edge2" class="edge">
<title>JI&#45;K5H&#45;&#45;O&#45;MCZR</title>
<path fill="none" stroke="black" d="M1140.1,-133.28C1121,-117.74 1092,-94.24 1072.6,-78.53"/>
</g>
<!-- O&#45;MCZR&#45;&#45;KSM&#45;1T -->
<g id="edge3" class="edge">
<title>O&#45;MCZR&#45;&#45;KSM&#45;1T</title>
<path fill="none" stroke="black" d="M1060.2,-44.12C1061.4,-41.46 1062.6,-38.71 1063.8,-36.04"/>
</g>
<!-- 33&#45;JRO -->
<g id="_33&#45;JRO" class="node">
<title>33&#45;JRO</title>
<ellipse fill="none" stroke="black" cx="1074" cy="-194.1" rx="43" ry="18"/>
<text text-anchor="middle" x="1074" y="-190.4" font-family="Times,serif" font-size="14.00">33&#45;JRO</text>
</g>
<!-- 33&#45;JRO&#45;&#45;JI&#45;K5H -->
<g id="edge4" class="edge">
<title>33&#45;JRO&#45;&#45;JI&#45;K5H</title>
<path fill="none" stroke="black" d="M1101.2,-179.92C1111.5,-174.53 1123.2,-168.41 1133.5,-163.07"/>
</g>
<!-- ARBX&#45;9 -->
<g id="ARBX&#45;9" class="node">
<title>ARBX&#45;9</title>
<ellipse fill="none" stroke="black" cx="1064" cy="-150.09" rx="46.29" ry="18"/>
<text text-anchor="middle" x="1064" y="-146.39" font-family="Times,serif" font-size="14.00">ARBX&#45;9</text>
</g>
<!-- 33&#45;JRO&#45;&#45;ARBX&#45;9 -->
<g id="edge5" class="edge">
<title>33&#45;JRO&#45;&#45;ARBX&#45;9</title>
<path fill="none" stroke="black" d="M1069.9,-175.94C1069.3,-173.39 1068.7,-170.76 1068.1,-168.2"/>
</g>
<!-- 5&#45;CSE3 -->
<g id="_5&#45;CSE3" class="node">
<title>5&#45;CSE3</title>
<ellipse fill="none" stroke="black" cx="1157.7" cy="-239.63" rx="45.5" ry="18"/>
<text text-anchor="middle" x="1157.7" y="-235.93" font-family="Times,serif" font-size="14.00">5&#45;CSE3</text>
</g>
<!-- 33&#45;JRO&#45;&#45;5&#45;CSE3 -->
<g id="edge6" class="edge">
<title>33&#45;JRO&#45;&#45;5&#45;CSE3</title>
<path fill="none" stroke="black" d="M1100.5,-208.5C1110.2,-213.77 1121.1,-219.72 1130.8,-225"/>
</g>
<!-- 9T&#45;APQ -->
<g id="_9T&#45;APQ" class="node">
<title>9T&#45;APQ</title>
<ellipse fill="none" stroke="black" cx="998.45" cy="-106.05" rx="44.39" ry="18"/>
<text text-anchor="middle" x="998.45" y="-102.35" font-family="Times,serif" font-size="14.00">9T&#45;APQ</text>
</g>
<!-- 33&#45;JRO&#45;&#45;9T&#45;APQ -->
<g id="edge7" class="edge">
<title>33&#45;JRO&#45;&#45;9T&#45;APQ</title>
<path fill="none" stroke="black" d="M1048,-179.73C1036.7,-172.25 1024.2,-162.12 1016.2,-150.02 1011,-142.05 1006.8,-132.28 1003.9,-123.97"/>
</g>
<!-- 4Y&#45;OBL -->
<g id="_4Y&#45;OBL" class="node">
<title>4Y&#45;OBL</title>
<ellipse fill="none" stroke="black" cx="1009.9" cy="-238.1" rx="44.39" ry="18"/>
<text text-anchor="middle" x="1009.9" y="-234.4" font-family="Times,serif" font-size="14.00">4Y&#45;OBL</text>
</g>
<!-- 33&#45;JRO&#45;&#45;4Y&#45;OBL -->
<g id="edge8" class="edge">
<title>33&#45;JRO&#45;&#45;4Y&#45;OBL</title>
<path fill="none" stroke="black" d="M1051.6,-209.49C1045.5,-213.65 1039,-218.16 1032.9,-222.35"/>
</g>
<!-- ARBX&#45;9&#45;&#45;JI&#45;K5H -->
<g id="edge9" class="edge">
<title>ARBX&#45;9&#45;&#45;JI&#45;K5H</title>
<path fill="none" stroke="black" d="M1110.2,-149.7C1113.1,-149.68 1116,-149.65 1118.8,-149.63"/>
</g>
<!-- 9T&#45;APQ&#45;&#45;O&#45;MCZR -->
<g id="edge10" class="edge">
<title>9T&#45;APQ&#45;&#45;O&#45;MCZR</title>
<path fill="none" stroke="black" d="M1018.2,-89.91C1022.6,-86.28 1027.4,-82.42 1031.8,-78.76"/>
</g>
<!-- 9T&#45;APQ&#45;&#45;ARBX&#45;9 -->
<g id="edge11" class="edge">
<title>9T&#45;APQ&#45;&#45;ARBX&#45;9</title>
<path fill="none" stroke="black" d="M1021.4,-121.46C1027.6,-125.62 1034.3,-130.14 1040.5,-134.32"/>
</g>
<!-- 5AQ&#45;5H -->
<g id="_5AQ&#45;5H" class="node">
<title>5AQ&#45;5H</title>
<ellipse fill="none" stroke="black" cx="910.13" cy="-221.66" rx="47.5" ry="18"/>
<text text-anchor="middle" x="910.13" y="-217.96" font-family="Times,serif" font-size="14.00">5AQ&#45;5H</text>
</g>
<!-- 4Y&#45;OBL&#45;&#45;5AQ&#45;5H -->
<g id="edge12" class="edge">
<title>4Y&#45;OBL&#45;&#45;5AQ&#45;5H</title>
<path fill="none" stroke="black" d="M968.73,-231.32C963.8,-230.51 958.74,-229.67 953.77,-228.86"/>
</g>
<!-- 0&#45;MX34 -->
<g id="_0&#45;MX34" class="node">
<title>0&#45;MX34</title>
<ellipse fill="none" stroke="black" cx="965.72" cy="-282.12" rx="47" ry="18"/>
<text text-anchor="middle" x="965.72" y="-278.42" font-family="Times,serif" font-size="14.00">0&#45;MX34</text>
</g>
<!-- 0&#45;MX34&#45;&#45;4Y&#45;OBL -->
<g id="edge13" class="edge">
<title>0&#45;MX34&#45;&#45;4Y&#45;OBL</title>
<path fill="none" stroke="black" d="M982.67,-265.23C986.07,-261.83 989.65,-258.27 993.05,-254.88"/>
</g>
<!-- 0&#45;MX34&#45;&#45;5AQ&#45;5H -->
<g id="edge14" class="edge">
<title>0&#45;MX34&#45;&#45;5AQ&#45;5H</title>
<path fill="none" stroke="black" d="M949.94,-264.95C942.36,-256.72 933.31,-246.88 925.76,-238.66"/>
</g>
<!-- T&#45;ZFID -->
<g id="T&#45;ZFID" class="node">
<title>T&#45;ZFID</title>
<ellipse fill="none" stroke="black" cx="964.49" cy="-326.15" rx="42.49" ry="18"/>
<text text-anchor="middle" x="964.49" y="-322.45" font-family="Times,serif" font-size="14.00">T&#45;ZFID</text>
</g>
<!-- 0&#45;MX34&#45;&#45;T&#45;ZFID -->
<g id="edge15" class="edge">
<title>0&#45;MX34&#45;&#45;T&#45;ZFID</title>
<path fill="none" stroke="black" d="M965.21,-300.28C965.14,-302.84 965.07,-305.47 964.99,-308.03"/>
</g>
<!-- 0ZN7&#45;G -->
<g id="_0ZN7&#45;G" class="node">
<title>0ZN7&#45;G</title>
<ellipse fill="none" stroke="black" cx="933.25" cy="-370.17" rx="47" ry="18"/>
<text text-anchor="middle" x="933.25" y="-366.47" font-family="Times,serif" font-size="14.00">0ZN7&#45;G</text>
</g>
<!-- 0ZN7&#45;G&#45;&#45;T&#45;ZFID -->
<g id="edge16" class="edge">
<title>0ZN7&#45;G&#45;&#45;T&#45;ZFID</title>
<path fill="none" stroke="black" d="M945.59,-352.77C947.78,-349.69 950.05,-346.49 952.23,-343.42"/>
</g>
<!-- H8&#45;ZTO -->
<g id="H8&#45;ZTO" class="node">
<title>H8&#45;ZTO</title>
<ellipse fill="none" stroke="black" cx="940.74" cy="-414.18" rx="47" ry="18"/>
<text text-anchor="middle" x="940.74" y="-410.48" font-family="Times,serif" font-size="14.00">H8&#45;ZTO</text>
</g>
<!-- 0ZN7&#45;G&#45;&#45;H8&#45;ZTO -->
<g id="edge17" class="edge">
<title>0ZN7&#45;G&#45;&#45;H8&#45;ZTO</title>
<path fill="none" stroke="black" d="M936.34,-388.32C936.77,-390.88 937.22,-393.51 937.65,-396.07"/>
</g>
<!-- YV&#45;FDG -->
<g id="YV&#45;FDG" class="node">
<title>YV&#45;FDG</title>
<ellipse fill="none" stroke="black" cx="832.26" cy="-371.3" rx="46.29" ry="18"/>
<text text-anchor="middle" x="832.26" y="-367.6" font-family="Times,serif" font-size="14.00">YV&#45;FDG</text>
</g>
<!-- H8&#45;ZTO&#45;&#45;YV&#45;FDG -->
<g id="edge18" class="edge">
<title>H8&#45;ZTO&#45;&#45;YV&#45;FDG</title>
<path fill="none" stroke="black" d="M907.89,-401.2C894.3,-395.83 878.57,-389.61 864.99,-384.24"/>
</g>
<!-- HHJD&#45;5 -->
<g id="HHJD&#45;5" class="node">
<title>HHJD&#45;5</title>
<ellipse fill="none" stroke="black" cx="897.5" cy="-458.19" rx="46.29" ry="18"/>
<text text-anchor="middle" x="897.5" y="-454.49" font-family="Times,serif" font-size="14.00">HHJD&#45;5</text>
</g>
<!-- H8&#45;ZTO&#45;&#45;HHJD&#45;5 -->
<g id="edge19" class="edge">
<title>H8&#45;ZTO&#45;&#45;HHJD&#45;5</title>
<path fill="none" stroke="black" d="M924.14,-431.07C920.9,-434.37 917.5,-437.83 914.26,-441.13"/>
</g>
<!-- ZWV&#45;GD -->
<g id="ZWV&#45;GD" class="node">
<title>ZWV&#45;GD</title>
<ellipse fill="none" stroke="black" cx="856.72" cy="-502.22" rx="50.09" ry="18"/>
<text text-anchor="middle" x="856.72" y="-498.52" font-family="Times,serif" font-size="14.00">ZWV&#45;GD</text>
</g>
<!-- HHJD&#45;5&#45;&#45;ZWV&#45;GD -->
<g id="edge20" class="edge">
<title>HHJD&#45;5&#45;&#45;ZWV&#45;GD</title>
<path fill="none" stroke="black" d="M881.62,-475.34C878.66,-478.53 875.58,-481.86 872.63,-485.05"/>
</g>
<!-- LUL&#45;WX -->
<g id="LUL&#45;WX" class="node">
<title>LUL&#45;WX</title>
<ellipse fill="none" stroke="black" cx="728.61" cy="-435.07" rx="48.19" ry="18"/>
<text text-anchor="middle" x="728.61" y="-431.37" font-family="Times,serif" font-size="14.00">LUL&#45;WX</text>
</g>
<!-- LUL&#45;WX&#45;&#45;YV&#45;FDG -->
<g id="edge21" class="edge">
<title>LUL&#45;WX&#45;&#45;YV&#45;FDG</title>
<path fill="none" stroke="black" d="M753.7,-419.64C769.99,-409.61 791.15,-396.59 807.4,-386.59"/>
</g>
<!-- 8Q&#45;UYU -->
<g id="_8Q&#45;UYU" class="node">
<title>8Q&#45;UYU</title>
<ellipse fill="none" stroke="black" cx="830.58" cy="-324.02" rx="48.99" ry="18"/>
<text text-anchor="middle" x="830.58" y="-320.32" font-family="Times,serif" font-size="14.00">8Q&#45;UYU</text>
</g>
<!-- 8Q&#45;UYU&#45;&#45;YV&#45;FDG -->
<g id="edge22" class="edge">
<title>8Q&#45;UYU&#45;&#45;YV&#45;FDG</title>
<path fill="none" stroke="black" d="M831.22,-342.16C831.35,-345.81 831.49,-349.64 831.62,-353.28"/>
</g>
<!-- 8Q&#45;UYU&#45;&#45;LUL&#45;WX -->
<g id="edge23" class="edge">
<title>8Q&#45;UYU&#45;&#45;LUL&#45;WX</title>
<path fill="none" stroke="black" d="M810.09,-340.46C801.01,-348.75 790.95,-359.5 784.51,-371.11 780.05,-379.15 784.28,-383.29 779.62,-391.23 775.05,-399.01 771.51,-399.08 764.73,-405.03 759.7,-409.45 754.19,-414.12 749.02,-418.42"/>
</g>
<!-- UAAU&#45;C -->
<g id="UAAU&#45;C" class="node">
<title>UAAU&#45;C</title>
<ellipse fill="none" stroke="black" cx="729.93" cy="-391.04" rx="48.19" ry="18"/>
<text text-anchor="middle" x="729.93" y="-387.34" font-family="Times,serif" font-size="14.00">UAAU&#45;C</text>
</g>
<!-- 8Q&#45;UYU&#45;&#45;UAAU&#45;C -->
<g id="edge24" class="edge">
<title>8Q&#45;UYU&#45;&#45;UAAU&#45;C</title>
<path fill="none" stroke="black" d="M806.73,-339.9C790.68,-350.59 769.62,-364.61 753.61,-375.27"/>
</g>
<!-- UAAU&#45;C&#45;&#45;YV&#45;FDG -->
<g id="edge25" class="edge">
<title>UAAU&#45;C&#45;&#45;YV&#45;FDG</title>
<path fill="none" stroke="black" d="M772.73,-382.78C778.65,-381.64 784.71,-380.47 790.61,-379.33"/>
</g>
<!-- 3PPT&#45;9 -->
<g id="_3PPT&#45;9" class="node">
<title>3PPT&#45;9</title>
<ellipse fill="none" stroke="black" cx="730.87" cy="-344.51" rx="43" ry="18"/>
<text text-anchor="middle" x="730.87" y="-340.81" font-family="Times,serif" font-size="14.00">3PPT&#45;9</text>
</g>
<!-- 3PPT&#45;9&#45;&#45;8Q&#45;UYU -->
<g id="edge26" class="edge">
<title>3PPT&#45;9&#45;&#45;8Q&#45;UYU</title>
<path fill="none" stroke="black" d="M769.42,-336.59C775.45,-335.35 781.71,-334.07 787.83,-332.81"/>
</g>
<!-- 3PPT&#45;9&#45;&#45;UAAU&#45;C -->
<g id="edge27" class="edge">
<title>3PPT&#45;9&#45;&#45;UAAU&#45;C</title>
<path fill="none" stroke="black" d="M730.5,-362.64C730.44,-366 730.37,-369.52 730.3,-372.89"/>
</g>
<!-- S&#45;KU8B -->
<g id="S&#45;KU8B" class="node">
<title>S&#45;KU8B</title>
<ellipse fill="none" stroke="black" cx="633.14" cy="-338.45" rx="47" ry="18"/>
<text text-anchor="middle" x="633.14" y="-334.75" font-family="Times,serif" font-size="14.00">S&#45;KU8B</text>
</g>
<!-- 3PPT&#45;9&#45;&#45;S&#45;KU8B -->
<g id="edge28" class="edge">
<title>3PPT&#45;9&#45;&#45;S&#45;KU8B</title>
<path fill="none" stroke="black" d="M688.29,-341.87C685.41,-341.69 682.5,-341.51 679.6,-341.33"/>
</g>
<!-- JK&#45;GLL -->
<g id="JK&#45;GLL" class="node">
<title>JK&#45;GLL</title>
<ellipse fill="none" stroke="black" cx="536.09" cy="-323.48" rx="42.49" ry="18"/>
<text text-anchor="middle" x="536.09" y="-319.78" font-family="Times,serif" font-size="14.00">JK&#45;GLL</text>
</g>
<!-- JK&#45;GLL&#45;&#45;S&#45;KU8B -->
<g id="edge29" class="edge">
<title>JK&#45;GLL&#45;&#45;S&#45;KU8B</title>
<path fill="none" stroke="black" d="M575.84,-329.61C580.34,-330.31 584.95,-331.02 589.5,-331.72"/>
</g>
<!-- LD&#45;2VL -->
<g id="LD&#45;2VL" class="node">
<title>LD&#45;2VL</title>
<ellipse fill="none" stroke="black" cx="440.94" cy="-308.39" rx="45" ry="18"/>
<text text-anchor="middle" x="440.94" y="-304.69" font-family="Times,serif" font-size="14.00">LD&#45;2VL</text>
</g>
<!-- JK&#45;GLL&#45;&#45;LD&#45;2VL -->
<g id="edge30" class="edge">
<title>JK&#45;GLL&#45;&#45;LD&#45;2VL</title>
<path fill="none" stroke="black" d="M496.29,-317.17C491.81,-316.46 487.23,-315.73 482.73,-315.02"/>
</g>
<!-- ZBY&#45;0I -->
<g id="ZBY&#45;0I" class="node">
<title>ZBY&#45;0I</title>
<ellipse fill="none" stroke="black" cx="347.74" cy="-293.88" rx="40.5" ry="18"/>
<text text-anchor="middle" x="347.74" y="-290.18" font-family="Times,serif" font-size="14.00">ZBY&#45;0I</text>
</g>
<!-- LD&#45;2VL&#45;&#45;ZBY&#45;0I -->
<g id="edge31" class="edge">
<title>LD&#45;2VL&#45;&#45;ZBY&#45;0I</title>
<path fill="none" stroke="black" d="M398.98,-301.86C394.63,-301.18 390.22,-300.49 385.92,-299.82"/>
</g>
<!-- 1DDR&#45;X -->
<g id="_1DDR&#45;X" class="node">
<title>1DDR&#45;X</title>
<ellipse fill="none" stroke="black" cx="999.44" cy="-458.19" rx="47.5" ry="18"/>
<text text-anchor="middle" x="999.44" y="-454.49" font-family="Times,serif" font-size="14.00">1DDR&#45;X</text>
</g>
<!-- 1DDR&#45;X&#45;&#45;HHJD&#45;5 -->
<g id="edge32" class="edge">
<title>1DDR&#45;X&#45;&#45;HHJD&#45;5</title>
<path fill="none" stroke="black" d="M951.75,-458.19C949.06,-458.19 946.35,-458.19 943.66,-458.19"/>
</g>
<!-- 1DDR&#45;X&#45;&#45;ZWV&#45;GD -->
<g id="edge33" class="edge">
<title>1DDR&#45;X&#45;&#45;ZWV&#45;GD</title>
<path fill="none" stroke="black" d="M962.31,-469.64C941.67,-476.01 916.01,-483.93 895.15,-490.36"/>
</g>
<!-- AA&#45;GWF -->
<g id="AA&#45;GWF" class="node">
<title>AA&#45;GWF</title>
<ellipse fill="none" stroke="black" cx="976.71" cy="-502.21" rx="49.5" ry="18"/>
<text text-anchor="middle" x="976.71" y="-498.51" font-family="Times,serif" font-size="14.00">AA&#45;GWF</text>
</g>
<!-- 1DDR&#45;X&#45;&#45;AA&#45;GWF -->
<g id="edge34" class="edge">
<title>1DDR&#45;X&#45;&#45;AA&#45;GWF</title>
<path fill="none" stroke="black" d="M990.19,-476.09C988.77,-478.85 987.29,-481.71 985.87,-484.46"/>
</g>
<!-- AA&#45;GWF&#45;&#45;HHJD&#45;5 -->
<g id="edge35" class="edge">
<title>AA&#45;GWF&#45;&#45;HHJD&#45;5</title>
<path fill="none" stroke="black" d="M949.45,-487.06C941.3,-482.54 932.38,-477.58 924.27,-473.07"/>
</g>
<!-- AA&#45;GWF&#45;&#45;ZWV&#45;GD -->
<g id="edge36" class="edge">
<title>AA&#45;GWF&#45;&#45;ZWV&#45;GD</title>
<path fill="none" stroke="black" d="M927.21,-502.22C920.5,-502.22 913.6,-502.22 906.88,-502.22"/>
</g>
<!-- LG&#45;WA9 -->
<g id="LG&#45;WA9" class="node">
<title>LG&#45;WA9</title>
<ellipse fill="none" stroke="black" cx="882.09" cy="-546.25" rx="47.5" ry="18"/>
<text text-anchor="middle" x="882.09" y="-542.55" font-family="Times,serif" font-size="14.00">LG&#45;WA9</text>
</g>
<!-- AA&#45;GWF&#45;&#45;LG&#45;WA9 -->
<g id="edge37" class="edge">
<title>AA&#45;GWF&#45;&#45;LG&#45;WA9</title>
<path fill="none" stroke="black" d="M946.25,-516.39C935.34,-521.47 923.05,-527.18 912.17,-532.25"/>
</g>
<!-- LG&#45;WA9&#45;&#45;ZWV&#45;GD -->
<g id="edge38" class="edge">
<title>LG&#45;WA9&#45;&#45;ZWV&#45;GD</title>
<path fill="none" stroke="black" d="M871.92,-528.59C870.27,-525.72 868.55,-522.75 866.9,-519.88"/>
</g>
<!-- O4T&#45;Z5 -->
<g id="O4T&#45;Z5" class="node">
<title>O4T&#45;Z5</title>
<ellipse fill="none" stroke="black" cx="982.13" cy="-567.38" rx="44.39" ry="18"/>
<text text-anchor="middle" x="982.13" y="-563.68" font-family="Times,serif" font-size="14.00">O4T&#45;Z5</text>
</g>
<!-- LG&#45;WA9&#45;&#45;O4T&#45;Z5 -->
<g id="edge39" class="edge">
<title>LG&#45;WA9&#45;&#45;O4T&#45;Z5</title>
<path fill="none" stroke="black" d="M923.65,-555.02C929.98,-556.36 936.5,-557.74 942.79,-559.07"/>
</g>
<!-- O4T&#45;Z5&#45;&#45;R&#45;ARKN -->
<g id="edge40" class="edge">
<title>O4T&#45;Z5&#45;&#45;R&#45;ARKN</title>
<path fill="none" stroke="black" d="M1026.3,-565.45C1029,-565.33 1031.7,-565.21 1034.4,-565.09"/>
</g>
<!-- O&#45;97ZG -->
<g id="O&#45;97ZG" class="node">
<title>O&#45;97ZG</title>
<ellipse fill="none" stroke="black" cx="953.84" cy="-611.39" rx="47" ry="18"/>
<text text-anchor="middle" x="953.84" y="-607.69" font-family="Times,serif" font-size="14.00">O&#45;97ZG</text>
</g>
<!-- O&#45;97ZG&#45;&#45;O4T&#45;Z5 -->
<g id="edge41" class="edge">
<title>O&#45;97ZG&#45;&#45;O4T&#45;Z5</title>
<path fill="none" stroke="black" d="M965.18,-593.74C967.03,-590.87 968.94,-587.9 970.78,-585.03"/>
</g>
<!-- 2I&#45;520 -->
<g id="_2I&#45;520" class="node">
<title>2I&#45;520</title>
<ellipse fill="none" stroke="black" cx="956.62" cy="-655.4" rx="40.5" ry="18"/>
<text text-anchor="middle" x="956.62" y="-651.7" font-family="Times,serif" font-size="14.00">2I&#45;520</text>
</g>
<!-- 2I&#45;520&#45;&#45;O&#45;97ZG -->
<g id="edge42" class="edge">
<title>2I&#45;520&#45;&#45;O&#45;97ZG</title>
<path fill="none" stroke="black" d="M955.47,-637.25C955.31,-634.69 955.15,-632.06 954.98,-629.5"/>
</g>
<!-- GQ2S&#45;8 -->
<g id="GQ2S&#45;8" class="node">
<title>GQ2S&#45;8</title>
<ellipse fill="none" stroke="black" cx="954.23" cy="-699.41" rx="46.29" ry="18"/>
<text text-anchor="middle" x="954.23" y="-695.71" font-family="Times,serif" font-size="14.00">GQ2S&#45;8</text>
</g>
<!-- 2I&#45;520&#45;&#45;GQ2S&#45;8 -->
<g id="edge43" class="edge">
<title>2I&#45;520&#45;&#45;GQ2S&#45;8</title>
<path fill="none" stroke="black" d="M955.64,-673.55C955.5,-676.11 955.36,-678.74 955.22,-681.3"/>
</g>
<!-- KU3&#45;BB -->
<g id="KU3&#45;BB" class="node">
<title>KU3&#45;BB</title>
<ellipse fill="none" stroke="black" cx="830.1" cy="-720.99" rx="47.5" ry="18"/>
<text text-anchor="middle" x="830.1" y="-717.29" font-family="Times,serif" font-size="14.00">KU3&#45;BB</text>
</g>
<!-- GQ2S&#45;8&#45;&#45;KU3&#45;BB -->
<g id="edge44" class="edge">
<title>GQ2S&#45;8&#45;&#45;KU3&#45;BB</title>
<path fill="none" stroke="black" d="M911.86,-706.78C899.5,-708.93 885.98,-711.28 873.55,-713.44"/>
</g>
<!-- 0SUF&#45;3 -->
<g id="_0SUF&#45;3" class="node">
<title>0SUF&#45;3</title>
<ellipse fill="none" stroke="black" cx="991.54" cy="-743.44" rx="45.5" ry="18"/>
<text text-anchor="middle" x="991.54" y="-739.74" font-family="Times,serif" font-size="14.00">0SUF&#45;3</text>
</g>
<!-- 0SUF&#45;3&#45;&#45;GQ2S&#45;8 -->
<g id="edge45" class="edge">
<title>0SUF&#45;3&#45;&#45;GQ2S&#45;8</title>
<path fill="none" stroke="black" d="M977.01,-726.29C974.31,-723.1 971.49,-719.77 968.79,-716.59"/>
</g>
<!-- G&#45;M4GK -->
<g id="G&#45;M4GK" class="node">
<title>G&#45;M4GK</title>
<ellipse fill="none" stroke="black" cx="1062.6" cy="-805.4" rx="50.09" ry="18"/>
<text text-anchor="middle" x="1062.6" y="-801.7" font-family="Times,serif" font-size="14.00">G&#45;M4GK</text>
</g>
<!-- 0SUF&#45;3&#45;&#45;G&#45;M4GK -->
<g id="edge46" class="edge">
<title>0SUF&#45;3&#45;&#45;G&#45;M4GK</title>
<path fill="none" stroke="black" d="M1010.6,-760.05C1020.8,-768.94 1033.3,-779.86 1043.5,-788.75"/>
</g>
<!-- O1Q&#45;P1 -->
<g id="O1Q&#45;P1" class="node">
<title>O1Q&#45;P1</title>
<ellipse fill="none" stroke="black" cx="1092" cy="-744.87" rx="47" ry="18"/>
<text text-anchor="middle" x="1092" y="-741.17" font-family="Times,serif" font-size="14.00">O1Q&#45;P1</text>
</g>
<!-- 0SUF&#45;3&#45;&#45;O1Q&#45;P1 -->
<g id="edge47" class="edge">
<title>0SUF&#45;3&#45;&#45;O1Q&#45;P1</title>
<path fill="none" stroke="black" d="M1037,-744.09C1039.7,-744.13 1042.5,-744.16 1045.2,-744.2"/>
</g>
<!-- TCAG&#45;3 -->
<g id="TCAG&#45;3" class="node">
<title>TCAG&#45;3</title>
<polygon fill="none" stroke="black" points="1121.2,-868.67 1050.2,-868.67 1050.2,-832.67 1121.2,-832.67 1121.2,-868.67"/>
<text text-anchor="middle" x="1085.7" y="-846.97" font-family="Times,serif" font-size="14.00">TCAG&#45;3</text>
</g>
<!-- G&#45;M4GK&#45;&#45;TCAG&#45;3 -->
<g id="edge48" class="edge">
<title>G&#45;M4GK&#45;&#45;TCAG&#45;3</title>
<path fill="none" stroke="black" d="M1071.7,-823.29C1073.3,-826.36 1074.9,-829.54 1076.5,-832.61"/>
</g>
<!-- G1D0&#45;G -->
<g id="G1D0&#45;G" class="node">
<title>G1D0&#45;G</title>
<ellipse fill="none" stroke="black" cx="884.34" cy="-765.01" rx="47.5" ry="18"/>
<text text-anchor="middle" x="884.34" y="-761.31" font-family="Times,serif" font-size="14.00">G1D0&#45;G</text>
</g>
<!-- G1D0&#45;G&#45;&#45;GQ2S&#45;8 -->
<g id="edge49" class="edge">
<title>G1D0&#45;G&#45;&#45;GQ2S&#45;8</title>
<path fill="none" stroke="black" d="M902.34,-748.12C912.7,-738.4 925.67,-726.22 936.05,-716.47"/>
</g>
<!-- MP5&#45;KR -->
<g id="MP5&#45;KR" class="node">
<title>MP5&#45;KR</title>
<ellipse fill="none" stroke="black" cx="250.66" cy="-285.87" rx="48.99" ry="18"/>
<text text-anchor="middle" x="250.66" y="-282.17" font-family="Times,serif" font-size="14.00">MP5&#45;KR</text>
</g>
<!-- MP5&#45;KR&#45;&#45;ZBY&#45;0I -->
<g id="edge50" class="edge">
<title>MP5&#45;KR&#45;&#45;ZBY&#45;0I</title>
<path fill="none" stroke="black" d="M298.35,-289.81C301.61,-290.08 304.87,-290.35 308.08,-290.61"/>
</g>
<!-- O&#45;N589 -->
<g id="O&#45;N589" class="node">
<title>O&#45;N589</title>
<ellipse fill="none" stroke="black" cx="147.09" cy="-272.91" rx="47" ry="18"/>
<text text-anchor="middle" x="147.09" y="-269.21" font-family="Times,serif" font-size="14.00">O&#45;N589</text>
</g>
<!-- MP5&#45;KR&#45;&#45;O&#45;N589 -->
<g id="edge51" class="edge">
<title>MP5&#45;KR&#45;&#45;O&#45;N589</title>
<path fill="none" stroke="black" d="M204.33,-280.08C200.13,-279.55 195.88,-279.02 191.69,-278.49"/>
</g>
<!-- ZDYA&#45;G -->
<g id="ZDYA&#45;G" class="node">
<title>ZDYA&#45;G</title>
<ellipse fill="none" stroke="black" cx="46.15" cy="-301.75" rx="46.29" ry="18"/>
<text text-anchor="middle" x="46.15" y="-298.05" font-family="Times,serif" font-size="14.00">ZDYA&#45;G</text>
</g>
<!-- O&#45;N589&#45;&#45;ZDYA&#45;G -->
<g id="edge52" class="edge">
<title>O&#45;N589&#45;&#45;ZDYA&#45;G</title>
<path fill="none" stroke="black" d="M109.5,-283.65C100.98,-286.09 91.94,-288.67 83.43,-291.1"/>
</g>
<!-- LX5K&#45;W -->
<g id="LX5K&#45;W" class="node">
<title>LX5K&#45;W</title>
<ellipse fill="none" stroke="black" cx="94.53" cy="-228.88" rx="47" ry="18"/>
<text text-anchor="middle" x="94.53" y="-225.18" font-family="Times,serif" font-size="14.00">LX5K&#45;W</text>
</g>
<!-- LX5K&#45;W&#45;&#45;O&#45;N589 -->
<g id="edge53" class="edge">
<title>LX5K&#45;W&#45;&#45;O&#45;N589</title>
<path fill="none" stroke="black" d="M114.1,-245.28C118.42,-248.9 123,-252.73 127.33,-256.36"/>
</g>
<!-- LX5K&#45;W&#45;&#45;ZDYA&#45;G -->
<g id="edge54" class="edge">
<title>LX5K&#45;W&#45;&#45;ZDYA&#45;G</title>
<path fill="none" stroke="black" d="M82.82,-246.52C75.21,-257.98 65.34,-272.85 57.75,-284.28"/>
</g>
</g>
</svg>
