<?xml version="1.0" encoding="UTF-8" standalone="no"?>
<!DOCTYPE svg PUBLIC "-//W3C//DTD SVG 1.1//EN"
 "http://www.w3.org/Graphics/SVG/1.1/DTD/svg11.dtd">
<!-- Generated by graphviz version 2.43.0 (0)
 -->
<!-- Pages: 1 -->
<svg width="1181pt" height="581pt"
 viewBox="0.00 0.00 1180.56 581.47" xmlns="http://www.w3.org/2000/svg" xmlns:xlink="http://www.w3.org/1999/xlink">
<g id="graph0" class="graph" transform="scale(1 1) rotate(0) translate(4 577.47)">
<polygon fill="white" stroke="transparent" points="-4,4 -4,-577.47 1176.56,-577.47 1176.56,4 -4,4"/>
<!-- CJF&#45;1P -->
<g id="CJF&#45;1P" class="node">
<title>CJF&#45;1P</title>
<polygon fill="none" stroke="black" points="1038.45,-389.35 973.45,-389.35 973.45,-353.35 1038.45,-353.35 1038.45,-389.35"/>
<text text-anchor="middle" x="1005.95" y="-367.65" font-family="Times,serif" font-size="14.00">CJF&#45;1P</text>
</g>
<!-- G&#45;M4GK -->
<g id="G&#45;M4GK" class="node">
<title>G&#45;M4GK</title>
<polygon fill="none" stroke="black" points="673.95,-365.98 596.95,-365.98 596.95,-329.98 673.95,-329.98 673.95,-365.98"/>
<text text-anchor="middle" x="635.45" y="-344.28" font-family="Times,serif" font-size="14.00">G&#45;M4GK</text>
</g>
<!-- LWX&#45;93 -->
<g id="LWX&#45;93" class="node">
<title>LWX&#45;93</title>
<polygon fill="none" stroke="black" points="866.55,-555.04 795.55,-555.04 795.55,-519.04 866.55,-519.04 866.55,-555.04"/>
<text text-anchor="middle" x="831.05" y="-533.34" font-family="Times,serif" font-size="14.00">LWX&#45;93</text>
</g>
<!-- 1&#45;2J4P -->
<g id="1&#45;2J4P" class="node">
<title>1&#45;2J4P</title>
<polygon fill="none" stroke="black" points="1172.56,-277.99 1109.56,-277.99 1109.56,-241.99 1172.56,-241.99 1172.56,-277.99"/>
<text text-anchor="middle" x="1141.06" y="-256.29" font-family="Times,serif" font-size="14.00">1&#45;2J4P</text>
</g>
<!-- L&#45;YMYU -->
<g id="L&#45;YMYU" class="node">
<title>L&#45;YMYU</title>
<ellipse fill="none" stroke="black" cx="1054.06" cy="-258.53" rx="47.5" ry="18"/>
<text text-anchor="middle" x="1054.06" y="-254.83" font-family="Times,serif" font-size="14.00">L&#45;YMYU</text>
</g>
<!-- L&#45;YMYU&#45;&#45;1&#45;2J4P -->
<g id="edge1" class="edge">
<title>L&#45;YMYU&#45;&#45;1&#45;2J4P</title>
<path fill="none" stroke="black" d="M1101.56,-259.33C1104.15,-259.37 1106.65,-259.41 1109.15,-259.45"/>
</g>
<!-- 35&#45;JWD -->
<g id="35&#45;JWD" class="node">
<title>35&#45;JWD</title>
<ellipse fill="none" stroke="black" cx="953.06" cy="-262.24" rx="45.5" ry="18"/>
<text text-anchor="middle" x="953.06" y="-258.54" font-family="Times,serif" font-size="14.00">35&#45;JWD</text>
</g>
<!-- 35&#45;JWD&#45;&#45;L&#45;YMYU -->
<g id="edge2" class="edge">
<title>35&#45;JWD&#45;&#45;L&#45;YMYU</title>
<path fill="none" stroke="black" d="M998.51,-260.57C1001.25,-260.47 1003.95,-260.37 1006.75,-260.27"/>
</g>
<!-- F&#45;M1FU -->
<g id="F&#45;M1FU" class="node">
<title>F&#45;M1FU</title>
<ellipse fill="none" stroke="black" cx="915.51" cy="-217.43" rx="48.99" ry="18"/>
<text text-anchor="middle" x="915.51" y="-213.73" font-family="Times,serif" font-size="14.00">F&#45;M1FU</text>
</g>
<!-- 35&#45;JWD&#45;&#45;F&#45;M1FU -->
<g id="edge3" class="edge">
<title>35&#45;JWD&#45;&#45;F&#45;M1FU</title>
<path fill="none" stroke="black" d="M938.65,-245.04C935.85,-241.68 932.89,-238.16 930.07,-234.8"/>
</g>
<!-- XZ&#45;SKZ -->
<g id="XZ&#45;SKZ" class="node">
<title>XZ&#45;SKZ</title>
<ellipse fill="none" stroke="black" cx="953.89" cy="-327.31" rx="46.29" ry="18"/>
<text text-anchor="middle" x="953.89" y="-323.61" font-family="Times,serif" font-size="14.00">XZ&#45;SKZ</text>
</g>
<!-- 35&#45;JWD&#45;&#45;XZ&#45;SKZ -->
<g id="edge4" class="edge">
<title>35&#45;JWD&#45;&#45;XZ&#45;SKZ</title>
<path fill="none" stroke="black" d="M953.29,-280.36C953.4,-289.39 953.54,-300.27 953.66,-309.28"/>
</g>
<!-- VR&#45;YIQ -->
<g id="VR&#45;YIQ" class="node">
<title>VR&#45;YIQ</title>
<ellipse fill="none" stroke="black" cx="766.31" cy="-198.41" rx="42.49" ry="18"/>
<text text-anchor="middle" x="766.31" y="-194.71" font-family="Times,serif" font-size="14.00">VR&#45;YIQ</text>
</g>
<!-- F&#45;M1FU&#45;&#45;VR&#45;YIQ -->
<g id="edge5" class="edge">
<title>F&#45;M1FU&#45;&#45;VR&#45;YIQ</title>
<path fill="none" stroke="black" d="M869.12,-211.51C849.27,-208.98 826.3,-206.06 807.12,-203.61"/>
</g>
<!-- XZ&#45;SKZ&#45;&#45;CJF&#45;1P -->
<g id="edge6" class="edge">
<title>XZ&#45;SKZ&#45;&#45;CJF&#45;1P</title>
<path fill="none" stroke="black" d="M973.28,-343.71C976.99,-346.84 980.88,-350.13 984.63,-353.31"/>
</g>
<!-- 0&#45;NTIS -->
<g id="0&#45;NTIS" class="node">
<title>0&#45;NTIS</title>
<ellipse fill="none" stroke="black" cx="856.63" cy="-288.3" rx="43" ry="18"/>
<text text-anchor="middle" x="856.63" y="-284.6" font-family="Times,serif" font-size="14.00">0&#45;NTIS</text>
</g>
<!-- 0&#45;NTIS&#45;&#45;35&#45;JWD -->
<g id="edge7" class="edge">
<title>0&#45;NTIS&#45;&#45;35&#45;JWD</title>
<path fill="none" stroke="black" d="M892.81,-278.52C900.18,-276.52 907.96,-274.42 915.39,-272.42"/>
</g>
<!-- 0&#45;NTIS&#45;&#45;XZ&#45;SKZ -->
<g id="edge8" class="edge">
<title>0&#45;NTIS&#45;&#45;XZ&#45;SKZ</title>
<path fill="none" stroke="black" d="M887.67,-300.75C898.46,-305.07 910.58,-309.94 921.48,-314.31"/>
</g>
<!-- I6M&#45;9U -->
<g id="I6M&#45;9U" class="node">
<title>I6M&#45;9U</title>
<ellipse fill="none" stroke="black" cx="811.25" cy="-242.45" rx="46.29" ry="18"/>
<text text-anchor="middle" x="811.25" y="-238.75" font-family="Times,serif" font-size="14.00">I6M&#45;9U</text>
</g>
<!-- 0&#45;NTIS&#45;&#45;I6M&#45;9U -->
<g id="edge9" class="edge">
<title>0&#45;NTIS&#45;&#45;I6M&#45;9U</title>
<path fill="none" stroke="black" d="M840,-271.48C836.04,-267.5 831.83,-263.24 827.89,-259.26"/>
</g>
<!-- I6M&#45;9U&#45;&#45;VR&#45;YIQ -->
<g id="edge10" class="edge">
<title>I6M&#45;9U&#45;&#45;VR&#45;YIQ</title>
<path fill="none" stroke="black" d="M794,-225.55C790.53,-222.15 786.89,-218.58 783.43,-215.19"/>
</g>
<!-- MG0&#45;RD -->
<g id="MG0&#45;RD" class="node">
<title>MG0&#45;RD</title>
<ellipse fill="none" stroke="black" cx="755.65" cy="-286.49" rx="50.09" ry="18"/>
<text text-anchor="middle" x="755.65" y="-282.79" font-family="Times,serif" font-size="14.00">MG0&#45;RD</text>
</g>
<!-- I6M&#45;9U&#45;&#45;MG0&#45;RD -->
<g id="edge11" class="edge">
<title>I6M&#45;9U&#45;&#45;MG0&#45;RD</title>
<path fill="none" stroke="black" d="M790.87,-258.59C786.15,-262.33 781.13,-266.3 776.41,-270.04"/>
</g>
<!-- TPAR&#45;G -->
<g id="TPAR&#45;G" class="node">
<title>TPAR&#45;G</title>
<ellipse fill="none" stroke="black" cx="677.52" cy="-242.46" rx="45.5" ry="18"/>
<text text-anchor="middle" x="677.52" y="-238.76" font-family="Times,serif" font-size="14.00">TPAR&#45;G</text>
</g>
<!-- MG0&#45;RD&#45;&#45;TPAR&#45;G -->
<g id="edge12" class="edge">
<title>MG0&#45;RD&#45;&#45;TPAR&#45;G</title>
<path fill="none" stroke="black" d="M728.32,-271.09C720.4,-266.62 711.77,-261.76 703.91,-257.33"/>
</g>
<!-- VYO&#45;68 -->
<g id="VYO&#45;68" class="node">
<title>VYO&#45;68</title>
<ellipse fill="none" stroke="black" cx="744.88" cy="-335.35" rx="45.5" ry="18"/>
<text text-anchor="middle" x="744.88" y="-331.65" font-family="Times,serif" font-size="14.00">VYO&#45;68</text>
</g>
<!-- MG0&#45;RD&#45;&#45;VYO&#45;68 -->
<g id="edge13" class="edge">
<title>MG0&#45;RD&#45;&#45;VYO&#45;68</title>
<path fill="none" stroke="black" d="M751.64,-304.68C750.74,-308.8 749.77,-313.18 748.87,-317.3"/>
</g>
<!-- TCAG&#45;3 -->
<g id="TCAG&#45;3" class="node">
<title>TCAG&#45;3</title>
<ellipse fill="none" stroke="black" cx="651.38" cy="-291.34" rx="46.29" ry="18"/>
<text text-anchor="middle" x="651.38" y="-287.64" font-family="Times,serif" font-size="14.00">TCAG&#45;3</text>
</g>
<!-- TCAG&#45;3&#45;&#45;G&#45;M4GK -->
<g id="edge14" class="edge">
<title>TCAG&#45;3&#45;&#45;G&#45;M4GK</title>
<path fill="none" stroke="black" d="M646.33,-309.26C644.51,-315.74 642.45,-323.07 640.62,-329.59"/>
</g>
<!-- TCAG&#45;3&#45;&#45;TPAR&#45;G -->
<g id="edge15" class="edge">
<title>TCAG&#45;3&#45;&#45;TPAR&#45;G</title>
<path fill="none" stroke="black" d="M660.81,-273.69C663.15,-269.32 665.66,-264.62 668,-260.24"/>
</g>
<!-- TCAG&#45;3&#45;&#45;VYO&#45;68 -->
<g id="edge16" class="edge">
<title>TCAG&#45;3&#45;&#45;VYO&#45;68</title>
<path fill="none" stroke="black" d="M680.96,-305.26C691.99,-310.45 704.49,-316.33 715.49,-321.51"/>
</g>
<!-- UR&#45;E46 -->
<g id="UR&#45;E46" class="node">
<title>UR&#45;E46</title>
<ellipse fill="none" stroke="black" cx="550.39" cy="-272.05" rx="47" ry="18"/>
<text text-anchor="middle" x="550.39" y="-268.35" font-family="Times,serif" font-size="14.00">UR&#45;E46</text>
</g>
<!-- TCAG&#45;3&#45;&#45;UR&#45;E46 -->
<g id="edge17" class="edge">
<title>TCAG&#45;3&#45;&#45;UR&#45;E46</title>
<path fill="none" stroke="black" d="M609.71,-283.38C604.06,-282.3 598.26,-281.2 592.61,-280.12"/>
</g>
<!-- CW9&#45;1Y -->
<g id="CW9&#45;1Y" class="node">
<title>CW9&#45;1Y</title>
<ellipse fill="none" stroke="black" cx="746.42" cy="-379.37" rx="47.5" ry="18"/>
<text text-anchor="middle" x="746.42" y="-375.67" font-family="Times,serif" font-size="14.00">CW9&#45;1Y</text>
</g>
<!-- CW9&#45;1Y&#45;&#45;VYO&#45;68 -->
<g id="edge18" class="edge">
<title>CW9&#45;1Y&#45;&#45;VYO&#45;68</title>
<path fill="none" stroke="black" d="M745.79,-361.21C745.7,-358.65 745.61,-356.02 745.51,-353.47"/>
</g>
<!-- ZU&#45;MS3 -->
<g id="ZU&#45;MS3" class="node">
<title>ZU&#45;MS3</title>
<ellipse fill="none" stroke="black" cx="750.26" cy="-423.38" rx="48.99" ry="18"/>
<text text-anchor="middle" x="750.26" y="-419.68" font-family="Times,serif" font-size="14.00">ZU&#45;MS3</text>
</g>
<!-- CW9&#45;1Y&#45;&#45;ZU&#45;MS3 -->
<g id="edge19" class="edge">
<title>CW9&#45;1Y&#45;&#45;ZU&#45;MS3</title>
<path fill="none" stroke="black" d="M748.01,-397.53C748.24,-400.08 748.46,-402.71 748.68,-405.27"/>
</g>
<!-- 1&#45;NJLK -->
<g id="1&#45;NJLK" class="node">
<title>1&#45;NJLK</title>
<ellipse fill="none" stroke="black" cx="761.52" cy="-154.4" rx="43.59" ry="18"/>
<text text-anchor="middle" x="761.52" y="-150.7" font-family="Times,serif" font-size="14.00">1&#45;NJLK</text>
</g>
<!-- 1&#45;NJLK&#45;&#45;VR&#45;YIQ -->
<g id="edge20" class="edge">
<title>1&#45;NJLK&#45;&#45;VR&#45;YIQ</title>
<path fill="none" stroke="black" d="M763.5,-172.56C763.77,-175.11 764.06,-177.74 764.35,-180.3"/>
</g>
<!-- Y&#45;CWQY -->
<g id="Y&#45;CWQY" class="node">
<title>Y&#45;CWQY</title>
<ellipse fill="none" stroke="black" cx="803.06" cy="-97.92" rx="48.19" ry="18"/>
<text text-anchor="middle" x="803.06" y="-94.22" font-family="Times,serif" font-size="14.00">Y&#45;CWQY</text>
</g>
<!-- 1&#45;NJLK&#45;&#45;Y&#45;CWQY -->
<g id="edge21" class="edge">
<title>1&#45;NJLK&#45;&#45;Y&#45;CWQY</title>
<path fill="none" stroke="black" d="M774.21,-137.15C779.27,-130.27 785.1,-122.36 790.17,-115.46"/>
</g>
<!-- 8KR9&#45;5 -->
<g id="8KR9&#45;5" class="node">
<title>8KR9&#45;5</title>
<ellipse fill="none" stroke="black" cx="697.23" cy="-110.32" rx="45" ry="18"/>
<text text-anchor="middle" x="697.23" y="-106.62" font-family="Times,serif" font-size="14.00">8KR9&#45;5</text>
</g>
<!-- 1&#45;NJLK&#45;&#45;8KR9&#45;5 -->
<g id="edge22" class="edge">
<title>1&#45;NJLK&#45;&#45;8KR9&#45;5</title>
<path fill="none" stroke="black" d="M739.03,-138.98C732.95,-134.81 726.36,-130.29 720.25,-126.1"/>
</g>
<!-- G&#45;C8QO -->
<g id="G&#45;C8QO" class="node">
<title>G&#45;C8QO</title>
<ellipse fill="none" stroke="black" cx="868.17" cy="-146.3" rx="48.19" ry="18"/>
<text text-anchor="middle" x="868.17" y="-142.6" font-family="Times,serif" font-size="14.00">G&#45;C8QO</text>
</g>
<!-- 1&#45;NJLK&#45;&#45;G&#45;C8QO -->
<g id="edge23" class="edge">
<title>1&#45;NJLK&#45;&#45;G&#45;C8QO</title>
<path fill="none" stroke="black" d="M804.6,-151.13C809.91,-150.73 815.38,-150.31 820.75,-149.9"/>
</g>
<!-- 8KR9&#45;5&#45;&#45;Y&#45;CWQY -->
<g id="edge24" class="edge">
<title>8KR9&#45;5&#45;&#45;Y&#45;CWQY</title>
<path fill="none" stroke="black" d="M740.27,-105.28C745.77,-104.64 751.41,-103.97 756.95,-103.33"/>
</g>
<!-- VQE&#45;CN -->
<g id="VQE&#45;CN" class="node">
<title>VQE&#45;CN</title>
<ellipse fill="none" stroke="black" cx="715.11" cy="-51.62" rx="48.99" ry="18"/>
<text text-anchor="middle" x="715.11" y="-47.92" font-family="Times,serif" font-size="14.00">VQE&#45;CN</text>
</g>
<!-- 8KR9&#45;5&#45;&#45;VQE&#45;CN -->
<g id="edge25" class="edge">
<title>8KR9&#45;5&#45;&#45;VQE&#45;CN</title>
<path fill="none" stroke="black" d="M702.68,-92.39C704.87,-85.24 707.37,-77.02 709.55,-69.85"/>
</g>
<!-- VQE&#45;CN&#45;&#45;Y&#45;CWQY -->
<g id="edge26" class="edge">
<title>VQE&#45;CN&#45;&#45;Y&#45;CWQY</title>
<path fill="none" stroke="black" d="M743.42,-66.53C753.56,-71.86 765,-77.88 775.11,-83.2"/>
</g>
<!-- L5D&#45;ZL -->
<g id="L5D&#45;ZL" class="node">
<title>L5D&#45;ZL</title>
<ellipse fill="none" stroke="black" cx="827.99" cy="-18" rx="45" ry="18"/>
<text text-anchor="middle" x="827.99" y="-14.3" font-family="Times,serif" font-size="14.00">L5D&#45;ZL</text>
</g>
<!-- L5D&#45;ZL&#45;&#45;Y&#45;CWQY -->
<g id="edge27" class="edge">
<title>L5D&#45;ZL&#45;&#45;Y&#45;CWQY</title>
<path fill="none" stroke="black" d="M822.32,-36.14C818.25,-49.22 812.77,-66.8 808.7,-79.86"/>
</g>
<!-- EIMJ&#45;M -->
<g id="EIMJ&#45;M" class="node">
<title>EIMJ&#45;M</title>
<ellipse fill="none" stroke="black" cx="909.13" cy="-62.8" rx="46.29" ry="18"/>
<text text-anchor="middle" x="909.13" y="-59.1" font-family="Times,serif" font-size="14.00">EIMJ&#45;M</text>
</g>
<!-- EIMJ&#45;M&#45;&#45;Y&#45;CWQY -->
<g id="edge28" class="edge">
<title>EIMJ&#45;M&#45;&#45;Y&#45;CWQY</title>
<path fill="none" stroke="black" d="M873.81,-74.5C862.73,-78.17 850.48,-82.22 839.32,-85.92"/>
</g>
<!-- 0A&#45;KZ0 -->
<g id="0A&#45;KZ0" class="node">
<title>0A&#45;KZ0</title>
<ellipse fill="none" stroke="black" cx="514.73" cy="-228.04" rx="45" ry="18"/>
<text text-anchor="middle" x="514.73" y="-224.34" font-family="Times,serif" font-size="14.00">0A&#45;KZ0</text>
</g>
<!-- 0A&#45;KZ0&#45;&#45;UR&#45;E46 -->
<g id="edge29" class="edge">
<title>0A&#45;KZ0&#45;&#45;UR&#45;E46</title>
<path fill="none" stroke="black" d="M528.62,-245.18C531.12,-248.27 533.74,-251.49 536.25,-254.59"/>
</g>
<!-- E&#45;DOF2 -->
<g id="E&#45;DOF2" class="node">
<title>E&#45;DOF2</title>
<ellipse fill="none" stroke="black" cx="448.12" cy="-276.49" rx="47.5" ry="18"/>
<text text-anchor="middle" x="448.12" y="-272.79" font-family="Times,serif" font-size="14.00">E&#45;DOF2</text>
</g>
<!-- 0A&#45;KZ0&#45;&#45;E&#45;DOF2 -->
<g id="edge30" class="edge">
<title>0A&#45;KZ0&#45;&#45;E&#45;DOF2</title>
<path fill="none" stroke="black" d="M492.91,-243.9C485.63,-249.2 477.5,-255.11 470.21,-260.42"/>
</g>
<!-- 48I1&#45;X -->
<g id="48I1&#45;X" class="node">
<title>48I1&#45;X</title>
<ellipse fill="none" stroke="black" cx="420.88" cy="-231.04" rx="41" ry="18"/>
<text text-anchor="middle" x="420.88" y="-227.34" font-family="Times,serif" font-size="14.00">48I1&#45;X</text>
</g>
<!-- 48I1&#45;X&#45;&#45;E&#45;DOF2 -->
<g id="edge31" class="edge">
<title>48I1&#45;X&#45;&#45;E&#45;DOF2</title>
<path fill="none" stroke="black" d="M431.34,-248.48C433.38,-251.88 435.51,-255.46 437.55,-258.87"/>
</g>
<!-- JZL&#45;VB -->
<g id="JZL&#45;VB" class="node">
<title>JZL&#45;VB</title>
<ellipse fill="none" stroke="black" cx="341.21" cy="-187.01" rx="42.49" ry="18"/>
<text text-anchor="middle" x="341.21" y="-183.31" font-family="Times,serif" font-size="14.00">JZL&#45;VB</text>
</g>
<!-- 48I1&#45;X&#45;&#45;JZL&#45;VB -->
<g id="edge32" class="edge">
<title>48I1&#45;X&#45;&#45;JZL&#45;VB</title>
<path fill="none" stroke="black" d="M395.24,-216.86C386.23,-211.89 376.11,-206.29 367.09,-201.31"/>
</g>
<!-- 0OTX&#45;J -->
<g id="0OTX&#45;J" class="node">
<title>0OTX&#45;J</title>
<ellipse fill="none" stroke="black" cx="350.4" cy="-300.52" rx="42.49" ry="18"/>
<text text-anchor="middle" x="350.4" y="-296.82" font-family="Times,serif" font-size="14.00">0OTX&#45;J</text>
</g>
<!-- 0OTX&#45;J&#45;&#45;E&#45;DOF2 -->
<g id="edge33" class="edge">
<title>0OTX&#45;J&#45;&#45;E&#45;DOF2</title>
<path fill="none" stroke="black" d="M387.07,-291.51C394,-289.8 401.27,-288.01 408.3,-286.28"/>
</g>
<!-- 0OTX&#45;J&#45;&#45;48I1&#45;X -->
<g id="edge34" class="edge">
<title>0OTX&#45;J&#45;&#45;48I1&#45;X</title>
<path fill="none" stroke="black" d="M367.47,-283.7C378.54,-272.78 392.93,-258.6 403.98,-247.7"/>
</g>
<!-- 3OP&#45;3E -->
<g id="3OP&#45;3E" class="node">
<title>3OP&#45;3E</title>
<ellipse fill="none" stroke="black" cx="254.57" cy="-257.68" rx="45.5" ry="18"/>
<text text-anchor="middle" x="254.57" y="-253.98" font-family="Times,serif" font-size="14.00">3OP&#45;3E</text>
</g>
<!-- 0OTX&#45;J&#45;&#45;3OP&#45;3E -->
<g id="edge35" class="edge">
<title>0OTX&#45;J&#45;&#45;3OP&#45;3E</title>
<path fill="none" stroke="black" d="M321.13,-287.44C309.68,-282.32 296.55,-276.45 285,-271.28"/>
</g>
<!-- 3OP&#45;3E&#45;&#45;JZL&#45;VB -->
<g id="edge36" class="edge">
<title>3OP&#45;3E&#45;&#45;JZL&#45;VB</title>
<path fill="none" stroke="black" d="M274.66,-241.29C288.76,-229.79 307.51,-214.49 321.52,-203.07"/>
</g>
<!-- RJ3H&#45;0 -->
<g id="RJ3H&#45;0" class="node">
<title>RJ3H&#45;0</title>
<ellipse fill="none" stroke="black" cx="157.51" cy="-251.3" rx="43.59" ry="18"/>
<text text-anchor="middle" x="157.51" y="-247.6" font-family="Times,serif" font-size="14.00">RJ3H&#45;0</text>
</g>
<!-- 3OP&#45;3E&#45;&#45;RJ3H&#45;0 -->
<g id="edge37" class="edge">
<title>3OP&#45;3E&#45;&#45;RJ3H&#45;0</title>
<path fill="none" stroke="black" d="M209.44,-254.72C206.47,-254.52 203.49,-254.33 200.53,-254.13"/>
</g>
<!-- 08S&#45;39 -->
<g id="08S&#45;39" class="node">
<title>08S&#45;39</title>
<ellipse fill="none" stroke="black" cx="539.43" cy="-184.04" rx="43.59" ry="18"/>
<text text-anchor="middle" x="539.43" y="-180.34" font-family="Times,serif" font-size="14.00">08S&#45;39</text>
</g>
<!-- 08S&#45;39&#45;&#45;0A&#45;KZ0 -->
<g id="edge38" class="edge">
<title>08S&#45;39&#45;&#45;0A&#45;KZ0</title>
<path fill="none" stroke="black" d="M529.52,-201.68C527.91,-204.55 526.25,-207.52 524.63,-210.39"/>
</g>
<!-- HIX4&#45;H -->
<g id="HIX4&#45;H" class="node">
<title>HIX4&#45;H</title>
<ellipse fill="none" stroke="black" cx="729.42" cy="-467.4" rx="45" ry="18"/>
<text text-anchor="middle" x="729.42" y="-463.7" font-family="Times,serif" font-size="14.00">HIX4&#45;H</text>
</g>
<!-- HIX4&#45;H&#45;&#45;ZU&#45;MS3 -->
<g id="edge39" class="edge">
<title>HIX4&#45;H&#45;&#45;ZU&#45;MS3</title>
<path fill="none" stroke="black" d="M737.9,-449.5C739.2,-446.74 740.55,-443.89 741.87,-441.13"/>
</g>
<!-- OY0&#45;2T -->
<g id="OY0&#45;2T" class="node">
<title>OY0&#45;2T</title>
<ellipse fill="none" stroke="black" cx="630.88" cy="-510.53" rx="44.39" ry="18"/>
<text text-anchor="middle" x="630.88" y="-506.83" font-family="Times,serif" font-size="14.00">OY0&#45;2T</text>
</g>
<!-- HIX4&#45;H&#45;&#45;OY0&#45;2T -->
<g id="edge40" class="edge">
<title>HIX4&#45;H&#45;&#45;OY0&#45;2T</title>
<path fill="none" stroke="black" d="M699.05,-480.69C687.06,-485.94 673.31,-491.96 661.32,-497.21"/>
</g>
<!-- TN25&#45;J -->
<g id="TN25&#45;J" class="node">
<title>TN25&#45;J</title>
<ellipse fill="none" stroke="black" cx="830.79" cy="-487.66" rx="42.49" ry="18"/>
<text text-anchor="middle" x="830.79" y="-483.96" font-family="Times,serif" font-size="14.00">TN25&#45;J</text>
</g>
<!-- HIX4&#45;H&#45;&#45;TN25&#45;J -->
<g id="edge41" class="edge">
<title>HIX4&#45;H&#45;&#45;TN25&#45;J</title>
<path fill="none" stroke="black" d="M769.77,-475.46C777.17,-476.94 784.88,-478.48 792.23,-479.95"/>
</g>
<!-- TN25&#45;J&#45;&#45;LWX&#45;93 -->
<g id="edge42" class="edge">
<title>TN25&#45;J&#45;&#45;LWX&#45;93</title>
<path fill="none" stroke="black" d="M830.88,-505.77C830.9,-510.06 830.93,-514.64 830.95,-518.94"/>
</g>
<!-- GR&#45;J8B -->
<g id="GR&#45;J8B" class="node">
<title>GR&#45;J8B</title>
<ellipse fill="none" stroke="black" cx="735.91" cy="-511.42" rx="44.39" ry="18"/>
<text text-anchor="middle" x="735.91" y="-507.72" font-family="Times,serif" font-size="14.00">GR&#45;J8B</text>
</g>
<!-- GR&#45;J8B&#45;&#45;HIX4&#45;H -->
<g id="edge43" class="edge">
<title>GR&#45;J8B&#45;&#45;HIX4&#45;H</title>
<path fill="none" stroke="black" d="M733.24,-493.26C732.87,-490.7 732.48,-488.07 732.1,-485.52"/>
</g>
<!-- E2&#45;RDQ -->
<g id="E2&#45;RDQ" class="node">
<title>E2&#45;RDQ</title>
<ellipse fill="none" stroke="black" cx="665.19" cy="-555.47" rx="48.19" ry="18"/>
<text text-anchor="middle" x="665.19" y="-551.77" font-family="Times,serif" font-size="14.00">E2&#45;RDQ</text>
</g>
<!-- E2&#45;RDQ&#45;&#45;OY0&#45;2T -->
<g id="edge44" class="edge">
<title>E2&#45;RDQ&#45;&#45;OY0&#45;2T</title>
<path fill="none" stroke="black" d="M651.82,-537.96C649.27,-534.61 646.6,-531.1 644.04,-527.76"/>
</g>
<!-- PA&#45;VE3 -->
<g id="PA&#45;VE3" class="node">
<title>PA&#45;VE3</title>
<ellipse fill="none" stroke="black" cx="61.61" cy="-225.67" rx="44.39" ry="18"/>
<text text-anchor="middle" x="61.61" y="-221.97" font-family="Times,serif" font-size="14.00">PA&#45;VE3</text>
</g>
<!-- PA&#45;VE3&#45;&#45;RJ3H&#45;0 -->
<g id="edge45" class="edge">
<title>PA&#45;VE3&#45;&#45;RJ3H&#45;0</title>
<path fill="none" stroke="black" d="M98.69,-235.58C105.95,-237.53 113.59,-239.56 120.84,-241.5"/>
</g>
<!-- RYQC&#45;I -->
<g id="RYQC&#45;I" class="node">
<title>RYQC&#45;I</title>
<ellipse fill="none" stroke="black" cx="217.47" cy="-200.42" rx="43.59" ry="18"/>
<text text-anchor="middle" x="217.47" y="-196.72" font-family="Times,serif" font-size="14.00">RYQC&#45;I</text>
</g>
<!-- PA&#45;VE3&#45;&#45;RYQC&#45;I -->
<g id="edge46" class="edge">
<title>PA&#45;VE3&#45;&#45;RYQC&#45;I</title>
<path fill="none" stroke="black" d="M102.97,-218.97C125.78,-215.27 154.02,-210.7 176.74,-207.02"/>
</g>
<!-- G&#45;Q5JU -->
<g id="G&#45;Q5JU" class="node">
<title>G&#45;Q5JU</title>
<ellipse fill="none" stroke="black" cx="72.84" cy="-295.36" rx="45.5" ry="18"/>
<text text-anchor="middle" x="72.84" y="-291.66" font-family="Times,serif" font-size="14.00">G&#45;Q5JU</text>
</g>
<!-- G&#45;Q5JU&#45;&#45;PA&#45;VE3 -->
<g id="edge47" class="edge">
<title>G&#45;Q5JU&#45;&#45;PA&#45;VE3</title>
<path fill="none" stroke="black" d="M69.89,-277.05C68.25,-266.89 66.22,-254.28 64.58,-244.1"/>
</g>
<!-- Z&#45;M5A1 -->
<g id="Z&#45;M5A1" class="node">
<title>Z&#45;M5A1</title>
<ellipse fill="none" stroke="black" cx="153.16" cy="-339.42" rx="47.5" ry="18"/>
<text text-anchor="middle" x="153.16" y="-335.72" font-family="Times,serif" font-size="14.00">Z&#45;M5A1</text>
</g>
<!-- G&#45;Q5JU&#45;&#45;Z&#45;M5A1 -->
<g id="edge48" class="edge">
<title>G&#45;Q5JU&#45;&#45;Z&#45;M5A1</title>
<path fill="none" stroke="black" d="M99.59,-310.03C108.08,-314.69 117.47,-319.84 125.98,-324.51"/>
</g>
<!-- 1E&#45;W5I -->
<g id="1E&#45;W5I" class="node">
<title>1E&#45;W5I</title>
<ellipse fill="none" stroke="black" cx="161.4" cy="-154.09" rx="44.39" ry="18"/>
<text text-anchor="middle" x="161.4" y="-150.39" font-family="Times,serif" font-size="14.00">1E&#45;W5I</text>
</g>
<!-- 1E&#45;W5I&#45;&#45;RYQC&#45;I -->
<g id="edge49" class="edge">
<title>1E&#45;W5I&#45;&#45;RYQC&#45;I</title>
<path fill="none" stroke="black" d="M181,-170.29C186.44,-174.78 192.34,-179.65 197.78,-184.14"/>
</g>
<!-- MVUO&#45;F -->
<g id="MVUO&#45;F" class="node">
<title>MVUO&#45;F</title>
<ellipse fill="none" stroke="black" cx="51.5" cy="-383.45" rx="51.5" ry="18"/>
<text text-anchor="middle" x="51.5" y="-379.75" font-family="Times,serif" font-size="14.00">MVUO&#45;F</text>
</g>
<!-- MVUO&#45;F&#45;&#45;Z&#45;M5A1 -->
<g id="edge50" class="edge">
<title>MVUO&#45;F&#45;&#45;Z&#45;M5A1</title>
<path fill="none" stroke="black" d="M83.94,-369.4C96.03,-364.16 109.72,-358.23 121.72,-353.04"/>
</g>
</g>
</svg>
