<?xml version="1.0" encoding="UTF-8" standalone="no"?>
<!DOCTYPE svg PUBLIC "-//W3C//DTD SVG 1.1//EN"
 "http://www.w3.org/Graphics/SVG/1.1/DTD/svg11.dtd">
<!-- Generated by graphviz version 2.43.0 (0)
 -->
<!-- Pages: 1 -->
<svg width="995pt" height="1176pt"
 viewBox="0.00 0.00 995.32 1176.00" xmlns="http://www.w3.org/2000/svg" xmlns:xlink="http://www.w3.org/1999/xlink">
<g id="graph0" class="graph" transform="scale(1 1) rotate(0) translate(4 1172)">
<polygon fill="white" stroke="transparent" points="-4,4 -4,-1172 991.32,-1172 991.32,4 -4,4"/>
<!-- B3QP&#45;K -->
<g id="B3QP&#45;K" class="node">
<title>B3QP&#45;K</title>
<polygon fill="none" stroke="black" points="701.8,-690.91 630.8,-690.91 630.8,-654.91 701.8,-654.91 701.8,-690.91"/>
<text text-anchor="middle" x="666.3" y="-669.21" font-family="Times,serif" font-size="14.00">B3QP&#45;K</text>
</g>
<!-- 42XJ&#45;N -->
<g id="_42XJ&#45;N" class="node">
<title>42XJ&#45;N</title>
<polygon fill="none" stroke="black" points="402.33,-1168 336.33,-1168 336.33,-1132 402.33,-1132 402.33,-1168"/>
<text text-anchor="middle" x="369.33" y="-1146.3" font-family="Times,serif" font-size="14.00">42XJ&#45;N</text>
</g>
<!-- H1&#45;ESN -->
<g id="H1&#45;ESN" class="node">
<title>H1&#45;ESN</title>
<ellipse fill="none" stroke="black" cx="858.21" cy="-629.86" rx="48.19" ry="18"/>
<text text-anchor="middle" x="858.21" y="-626.16" font-family="Times,serif" font-size="14.00">H1&#45;ESN</text>
</g>
<!-- OJ&#45;A8M -->
<g id="OJ&#45;A8M" class="node">
<title>OJ&#45;A8M</title>
<polygon fill="none" stroke="black" points="987.32,-647.34 916.32,-647.34 916.32,-611.34 987.32,-611.34 987.32,-647.34"/>
<text text-anchor="middle" x="951.82" y="-625.64" font-family="Times,serif" font-size="14.00">OJ&#45;A8M</text>
</g>
<!-- H1&#45;ESN&#45;&#45;OJ&#45;A8M -->
<g id="edge1" class="edge">
<title>H1&#45;ESN&#45;&#45;OJ&#45;A8M</title>
<path fill="none" stroke="black" d="M906.39,-629.59C909.7,-629.57 913.01,-629.56 916.24,-629.54"/>
</g>
<!-- 3DR&#45;CR -->
<g id="_3DR&#45;CR" class="node">
<title>3DR&#45;CR</title>
<ellipse fill="none" stroke="black" cx="754.6" cy="-626.45" rx="47.5" ry="18"/>
<text text-anchor="middle" x="754.6" y="-622.75" font-family="Times,serif" font-size="14.00">3DR&#45;CR</text>
</g>
<!-- 3DR&#45;CR&#45;&#45;H1&#45;ESN -->
<g id="edge2" class="edge">
<title>3DR&#45;CR&#45;&#45;H1&#45;ESN</title>
<path fill="none" stroke="black" d="M802.16,-628.01C804.82,-628.1 807.49,-628.19 810.16,-628.28"/>
</g>
<!-- RLTG&#45;3 -->
<g id="RLTG&#45;3" class="node">
<title>RLTG&#45;3</title>
<ellipse fill="none" stroke="black" cx="654.22" cy="-617.07" rx="45" ry="18"/>
<text text-anchor="middle" x="654.22" y="-613.37" font-family="Times,serif" font-size="14.00">RLTG&#45;3</text>
</g>
<!-- 3DR&#45;CR&#45;&#45;RLTG&#45;3 -->
<g id="edge3" class="edge">
<title>3DR&#45;CR&#45;&#45;RLTG&#45;3</title>
<path fill="none" stroke="black" d="M708.52,-622.14C705.02,-621.81 701.49,-621.48 698,-621.16"/>
</g>
<!-- S&#45;EVIQ -->
<g id="S&#45;EVIQ" class="node">
<title>S&#45;EVIQ</title>
<ellipse fill="none" stroke="black" cx="556.66" cy="-593.49" rx="44.39" ry="18"/>
<text text-anchor="middle" x="556.66" y="-589.79" font-family="Times,serif" font-size="14.00">S&#45;EVIQ</text>
</g>
<!-- RLTG&#45;3&#45;&#45;S&#45;EVIQ -->
<g id="edge4" class="edge">
<title>RLTG&#45;3&#45;&#45;S&#45;EVIQ</title>
<path fill="none" stroke="black" d="M615.66,-607.75C608.84,-606.1 601.75,-604.39 594.94,-602.74"/>
</g>
<!-- EOY&#45;BG -->
<g id="EOY&#45;BG" class="node">
<title>EOY&#45;BG</title>
<ellipse fill="none" stroke="black" cx="524.57" cy="-637.67" rx="47" ry="18"/>
<text text-anchor="middle" x="524.57" y="-633.97" font-family="Times,serif" font-size="14.00">EOY&#45;BG</text>
</g>
<!-- EOY&#45;BG&#45;&#45;B3QP&#45;K -->
<g id="edge5" class="edge">
<title>EOY&#45;BG&#45;&#45;B3QP&#45;K</title>
<path fill="none" stroke="black" d="M564.05,-647.48C584.86,-652.66 610.18,-658.95 630.43,-663.99"/>
</g>
<!-- EOY&#45;BG&#45;&#45;S&#45;EVIQ -->
<g id="edge6" class="edge">
<title>EOY&#45;BG&#45;&#45;S&#45;EVIQ</title>
<path fill="none" stroke="black" d="M537.25,-620.21C539.49,-617.12 541.83,-613.91 544.07,-610.82"/>
</g>
<!-- IG&#45;ZAM -->
<g id="IG&#45;ZAM" class="node">
<title>IG&#45;ZAM</title>
<ellipse fill="none" stroke="black" cx="576.64" cy="-681.7" rx="46.29" ry="18"/>
<text text-anchor="middle" x="576.64" y="-678" font-family="Times,serif" font-size="14.00">IG&#45;ZAM</text>
</g>
<!-- EOY&#45;BG&#45;&#45;IG&#45;ZAM -->
<g id="edge7" class="edge">
<title>EOY&#45;BG&#45;&#45;IG&#45;ZAM</title>
<path fill="none" stroke="black" d="M543.96,-654.06C548.24,-657.68 552.77,-661.52 557.06,-665.14"/>
</g>
<!-- NCG&#45;PW -->
<g id="NCG&#45;PW" class="node">
<title>NCG&#45;PW</title>
<ellipse fill="none" stroke="black" cx="471.05" cy="-696.43" rx="51.5" ry="18"/>
<text text-anchor="middle" x="471.05" y="-692.73" font-family="Times,serif" font-size="14.00">NCG&#45;PW</text>
</g>
<!-- IG&#45;ZAM&#45;&#45;NCG&#45;PW -->
<g id="edge8" class="edge">
<title>IG&#45;ZAM&#45;&#45;NCG&#45;PW</title>
<path fill="none" stroke="black" d="M533.08,-687.78C528.43,-688.43 523.67,-689.09 518.96,-689.75"/>
</g>
<!-- S&#45;KSWL -->
<g id="S&#45;KSWL" class="node">
<title>S&#45;KSWL</title>
<ellipse fill="none" stroke="black" cx="363.59" cy="-682.95" rx="48.19" ry="18"/>
<text text-anchor="middle" x="363.59" y="-679.25" font-family="Times,serif" font-size="14.00">S&#45;KSWL</text>
</g>
<!-- NCG&#45;PW&#45;&#45;S&#45;KSWL -->
<g id="edge9" class="edge">
<title>NCG&#45;PW&#45;&#45;S&#45;KSWL</title>
<path fill="none" stroke="black" d="M422.66,-690.36C418.21,-689.8 413.7,-689.23 409.27,-688.68"/>
</g>
<!-- PNS7&#45;J -->
<g id="PNS7&#45;J" class="node">
<title>PNS7&#45;J</title>
<ellipse fill="none" stroke="black" cx="543.06" cy="-549.37" rx="43.59" ry="18"/>
<text text-anchor="middle" x="543.06" y="-545.67" font-family="Times,serif" font-size="14.00">PNS7&#45;J</text>
</g>
<!-- PNS7&#45;J&#45;&#45;S&#45;EVIQ -->
<g id="edge10" class="edge">
<title>PNS7&#45;J&#45;&#45;S&#45;EVIQ</title>
<path fill="none" stroke="black" d="M548.59,-567.31C549.41,-569.99 550.26,-572.74 551.09,-575.42"/>
</g>
<!-- 0&#45;UVHJ -->
<g id="_0&#45;UVHJ" class="node">
<title>0&#45;UVHJ</title>
<ellipse fill="none" stroke="black" cx="539.3" cy="-740.45" rx="45" ry="18"/>
<text text-anchor="middle" x="539.3" y="-736.75" font-family="Times,serif" font-size="14.00">0&#45;UVHJ</text>
</g>
<!-- 0&#45;UVHJ&#45;&#45;IG&#45;ZAM -->
<g id="edge11" class="edge">
<title>0&#45;UVHJ&#45;&#45;IG&#45;ZAM</title>
<path fill="none" stroke="black" d="M550.51,-722.82C555.23,-715.39 560.72,-706.75 565.45,-699.31"/>
</g>
<!-- 0&#45;UVHJ&#45;&#45;NCG&#45;PW -->
<g id="edge12" class="edge">
<title>0&#45;UVHJ&#45;&#45;NCG&#45;PW</title>
<path fill="none" stroke="black" d="M515.43,-725.05C509.13,-720.99 502.31,-716.59 495.95,-712.49"/>
</g>
<!-- U1TX&#45;A -->
<g id="U1TX&#45;A" class="node">
<title>U1TX&#45;A</title>
<ellipse fill="none" stroke="black" cx="437.68" cy="-769.18" rx="46.29" ry="18"/>
<text text-anchor="middle" x="437.68" y="-765.48" font-family="Times,serif" font-size="14.00">U1TX&#45;A</text>
</g>
<!-- 0&#45;UVHJ&#45;&#45;U1TX&#45;A -->
<g id="edge13" class="edge">
<title>0&#45;UVHJ&#45;&#45;U1TX&#45;A</title>
<path fill="none" stroke="black" d="M502.62,-750.82C493.75,-753.33 484.26,-756.01 475.34,-758.53"/>
</g>
<!-- 1QH&#45;0K -->
<g id="_1QH&#45;0K" class="node">
<title>1QH&#45;0K</title>
<ellipse fill="none" stroke="black" cx="528.04" cy="-505.24" rx="47.5" ry="18"/>
<text text-anchor="middle" x="528.04" y="-501.54" font-family="Times,serif" font-size="14.00">1QH&#45;0K</text>
</g>
<!-- 1QH&#45;0K&#45;&#45;PNS7&#45;J -->
<g id="edge14" class="edge">
<title>1QH&#45;0K&#45;&#45;PNS7&#45;J</title>
<path fill="none" stroke="black" d="M534.15,-523.19C535.06,-525.86 536,-528.62 536.91,-531.29"/>
</g>
<!-- ZH3&#45;BS -->
<g id="ZH3&#45;BS" class="node">
<title>ZH3&#45;BS</title>
<ellipse fill="none" stroke="black" cx="565.22" cy="-461.12" rx="47" ry="18"/>
<text text-anchor="middle" x="565.22" y="-457.42" font-family="Times,serif" font-size="14.00">ZH3&#45;BS</text>
</g>
<!-- 1QH&#45;0K&#45;&#45;ZH3&#45;BS -->
<g id="edge15" class="edge">
<title>1QH&#45;0K&#45;&#45;ZH3&#45;BS</title>
<path fill="none" stroke="black" d="M542.52,-488.06C545.21,-484.86 548.03,-481.53 550.72,-478.33"/>
</g>
<!-- W8O&#45;19 -->
<g id="W8O&#45;19" class="node">
<title>W8O&#45;19</title>
<ellipse fill="none" stroke="black" cx="636.23" cy="-505.16" rx="48.19" ry="18"/>
<text text-anchor="middle" x="636.23" y="-501.46" font-family="Times,serif" font-size="14.00">W8O&#45;19</text>
</g>
<!-- 1QH&#45;0K&#45;&#45;W8O&#45;19 -->
<g id="edge16" class="edge">
<title>1QH&#45;0K&#45;&#45;W8O&#45;19</title>
<path fill="none" stroke="black" d="M575.49,-505.21C579.58,-505.2 583.72,-505.2 587.82,-505.2"/>
</g>
<!-- ZJ&#45;QOO -->
<g id="ZJ&#45;QOO" class="node">
<title>ZJ&#45;QOO</title>
<ellipse fill="none" stroke="black" cx="586.36" cy="-417.1" rx="45.5" ry="18"/>
<text text-anchor="middle" x="586.36" y="-413.4" font-family="Times,serif" font-size="14.00">ZJ&#45;QOO</text>
</g>
<!-- ZH3&#45;BS&#45;&#45;ZJ&#45;QOO -->
<g id="edge17" class="edge">
<title>ZH3&#45;BS&#45;&#45;ZJ&#45;QOO</title>
<path fill="none" stroke="black" d="M573.82,-443.22C575.14,-440.46 576.51,-437.61 577.84,-434.85"/>
</g>
<!-- ZXA&#45;V6 -->
<g id="ZXA&#45;V6" class="node">
<title>ZXA&#45;V6</title>
<ellipse fill="none" stroke="black" cx="684.2" cy="-378.02" rx="44.39" ry="18"/>
<text text-anchor="middle" x="684.2" y="-374.32" font-family="Times,serif" font-size="14.00">ZXA&#45;V6</text>
</g>
<!-- ZJ&#45;QOO&#45;&#45;ZXA&#45;V6 -->
<g id="edge18" class="edge">
<title>ZJ&#45;QOO&#45;&#45;ZXA&#45;V6</title>
<path fill="none" stroke="black" d="M618.4,-404.31C629.32,-399.94 641.52,-395.07 652.43,-390.71"/>
</g>
<!-- T&#45;Q2DD -->
<g id="T&#45;Q2DD" class="node">
<title>T&#45;Q2DD</title>
<polygon fill="none" stroke="black" points="807.92,-369.7 736.92,-369.7 736.92,-333.7 807.92,-333.7 807.92,-369.7"/>
<text text-anchor="middle" x="772.42" y="-348" font-family="Times,serif" font-size="14.00">T&#45;Q2DD</text>
</g>
<!-- ZXA&#45;V6&#45;&#45;T&#45;Q2DD -->
<g id="edge19" class="edge">
<title>ZXA&#45;V6&#45;&#45;T&#45;Q2DD</title>
<path fill="none" stroke="black" d="M720.08,-367.31C725.62,-365.66 731.33,-363.96 736.86,-362.31"/>
</g>
<!-- I1&#45;BE8 -->
<g id="I1&#45;BE8" class="node">
<title>I1&#45;BE8</title>
<ellipse fill="none" stroke="black" cx="544.74" cy="-364.8" rx="42.49" ry="18"/>
<text text-anchor="middle" x="544.74" y="-361.1" font-family="Times,serif" font-size="14.00">I1&#45;BE8</text>
</g>
<!-- I1&#45;BE8&#45;&#45;ZJ&#45;QOO -->
<g id="edge20" class="edge">
<title>I1&#45;BE8&#45;&#45;ZJ&#45;QOO</title>
<path fill="none" stroke="black" d="M558.37,-381.92C562.92,-387.64 567.99,-394.02 572.56,-399.76"/>
</g>
<!-- ZK&#45;YQ3 -->
<g id="ZK&#45;YQ3" class="node">
<title>ZK&#45;YQ3</title>
<ellipse fill="none" stroke="black" cx="493.22" cy="-315.9" rx="44.39" ry="18"/>
<text text-anchor="middle" x="493.22" y="-312.2" font-family="Times,serif" font-size="14.00">ZK&#45;YQ3</text>
</g>
<!-- I1&#45;BE8&#45;&#45;ZK&#45;YQ3 -->
<g id="edge21" class="edge">
<title>I1&#45;BE8&#45;&#45;ZK&#45;YQ3</title>
<path fill="none" stroke="black" d="M527.3,-348.24C522.04,-343.26 516.27,-337.78 510.99,-332.77"/>
</g>
<!-- 1BWK&#45;S -->
<g id="_1BWK&#45;S" class="node">
<title>1BWK&#45;S</title>
<ellipse fill="none" stroke="black" cx="386.65" cy="-813.2" rx="48.19" ry="18"/>
<text text-anchor="middle" x="386.65" y="-809.5" font-family="Times,serif" font-size="14.00">1BWK&#45;S</text>
</g>
<!-- 1BWK&#45;S&#45;&#45;U1TX&#45;A -->
<g id="edge22" class="edge">
<title>1BWK&#45;S&#45;&#45;U1TX&#45;A</title>
<path fill="none" stroke="black" d="M405.94,-796.56C410.01,-793.05 414.3,-789.35 418.36,-785.84"/>
</g>
<!-- RKE&#45;CP -->
<g id="RKE&#45;CP" class="node">
<title>RKE&#45;CP</title>
<ellipse fill="none" stroke="black" cx="335.74" cy="-857.25" rx="47.5" ry="18"/>
<text text-anchor="middle" x="335.74" y="-853.55" font-family="Times,serif" font-size="14.00">RKE&#45;CP</text>
</g>
<!-- 1BWK&#45;S&#45;&#45;RKE&#45;CP -->
<g id="edge23" class="edge">
<title>1BWK&#45;S&#45;&#45;RKE&#45;CP</title>
<path fill="none" stroke="black" d="M367.4,-829.86C363.35,-833.36 359.07,-837.07 355.01,-840.57"/>
</g>
<!-- NV&#45;3KA -->
<g id="NV&#45;3KA" class="node">
<title>NV&#45;3KA</title>
<ellipse fill="none" stroke="black" cx="465.14" cy="-857.24" rx="46.29" ry="18"/>
<text text-anchor="middle" x="465.14" y="-853.54" font-family="Times,serif" font-size="14.00">NV&#45;3KA</text>
</g>
<!-- 1BWK&#45;S&#45;&#45;NV&#45;3KA -->
<g id="edge24" class="edge">
<title>1BWK&#45;S&#45;&#45;NV&#45;3KA</title>
<path fill="none" stroke="black" d="M413.66,-828.36C421.73,-832.89 430.57,-837.85 438.61,-842.36"/>
</g>
<!-- S&#45;1LIO -->
<g id="S&#45;1LIO" class="node">
<title>S&#45;1LIO</title>
<ellipse fill="none" stroke="black" cx="232.2" cy="-870.54" rx="42.49" ry="18"/>
<text text-anchor="middle" x="232.2" y="-866.84" font-family="Times,serif" font-size="14.00">S&#45;1LIO</text>
</g>
<!-- RKE&#45;CP&#45;&#45;S&#45;1LIO -->
<g id="edge25" class="edge">
<title>RKE&#45;CP&#45;&#45;S&#45;1LIO</title>
<path fill="none" stroke="black" d="M290.63,-863.04C284.74,-863.8 278.74,-864.57 272.93,-865.31"/>
</g>
<!-- NV&#45;3KA&#45;&#45;RKE&#45;CP -->
<g id="edge26" class="edge">
<title>NV&#45;3KA&#45;&#45;RKE&#45;CP</title>
<path fill="none" stroke="black" d="M418.79,-857.25C407.33,-857.25 395.04,-857.25 383.51,-857.25"/>
</g>
<!-- KMV&#45;CQ -->
<g id="KMV&#45;CQ" class="node">
<title>KMV&#45;CQ</title>
<ellipse fill="none" stroke="black" cx="511.97" cy="-813.2" rx="50.09" ry="18"/>
<text text-anchor="middle" x="511.97" y="-809.5" font-family="Times,serif" font-size="14.00">KMV&#45;CQ</text>
</g>
<!-- KMV&#45;CQ&#45;&#45;U1TX&#45;A -->
<g id="edge27" class="edge">
<title>KMV&#45;CQ&#45;&#45;U1TX&#45;A</title>
<path fill="none" stroke="black" d="M485.99,-797.8C478.63,-793.44 470.62,-788.69 463.28,-784.34"/>
</g>
<!-- KMV&#45;CQ&#45;&#45;NV&#45;3KA -->
<g id="edge28" class="edge">
<title>KMV&#45;CQ&#45;&#45;NV&#45;3KA</title>
<path fill="none" stroke="black" d="M494,-830.1C490.39,-833.5 486.6,-837.07 482.99,-840.46"/>
</g>
<!-- 5&#45;O8B1 -->
<g id="_5&#45;O8B1" class="node">
<title>5&#45;O8B1</title>
<ellipse fill="none" stroke="black" cx="334.65" cy="-638.92" rx="45.5" ry="18"/>
<text text-anchor="middle" x="334.65" y="-635.22" font-family="Times,serif" font-size="14.00">5&#45;O8B1</text>
</g>
<!-- 5&#45;O8B1&#45;&#45;S&#45;KSWL -->
<g id="edge29" class="edge">
<title>5&#45;O8B1&#45;&#45;S&#45;KSWL</title>
<path fill="none" stroke="black" d="M346.26,-656.58C348.14,-659.45 350.1,-662.42 351.98,-665.29"/>
</g>
<!-- KW&#45;1MV -->
<g id="KW&#45;1MV" class="node">
<title>KW&#45;1MV</title>
<ellipse fill="none" stroke="black" cx="406.6" cy="-594.92" rx="50.09" ry="18"/>
<text text-anchor="middle" x="406.6" y="-591.22" font-family="Times,serif" font-size="14.00">KW&#45;1MV</text>
</g>
<!-- 5&#45;O8B1&#45;&#45;KW&#45;1MV -->
<g id="edge30" class="edge">
<title>5&#45;O8B1&#45;&#45;KW&#45;1MV</title>
<path fill="none" stroke="black" d="M359.41,-623.78C366.41,-619.5 374.03,-614.84 381.06,-610.54"/>
</g>
<!-- G06&#45;8Y -->
<g id="G06&#45;8Y" class="node">
<title>G06&#45;8Y</title>
<ellipse fill="none" stroke="black" cx="282.99" cy="-594.92" rx="44.39" ry="18"/>
<text text-anchor="middle" x="282.99" y="-591.22" font-family="Times,serif" font-size="14.00">G06&#45;8Y</text>
</g>
<!-- 5&#45;O8B1&#45;&#45;G06&#45;8Y -->
<g id="edge31" class="edge">
<title>5&#45;O8B1&#45;&#45;G06&#45;8Y</title>
<path fill="none" stroke="black" d="M315.42,-622.54C311.06,-618.83 306.43,-614.88 302.07,-611.17"/>
</g>
<!-- U&#45;O2DA -->
<g id="U&#45;O2DA" class="node">
<title>U&#45;O2DA</title>
<ellipse fill="none" stroke="black" cx="221.3" cy="-638.95" rx="48.19" ry="18"/>
<text text-anchor="middle" x="221.3" y="-635.25" font-family="Times,serif" font-size="14.00">U&#45;O2DA</text>
</g>
<!-- G06&#45;8Y&#45;&#45;U&#45;O2DA -->
<g id="edge32" class="edge">
<title>G06&#45;8Y&#45;&#45;U&#45;O2DA</title>
<path fill="none" stroke="black" d="M261.07,-610.57C255.53,-614.52 249.57,-618.78 243.99,-622.76"/>
</g>
<!-- WV&#45;0R2 -->
<g id="WV&#45;0R2" class="node">
<title>WV&#45;0R2</title>
<ellipse fill="none" stroke="black" cx="351.45" cy="-550.91" rx="47.5" ry="18"/>
<text text-anchor="middle" x="351.45" y="-547.21" font-family="Times,serif" font-size="14.00">WV&#45;0R2</text>
</g>
<!-- G06&#45;8Y&#45;&#45;WV&#45;0R2 -->
<g id="edge33" class="edge">
<title>G06&#45;8Y&#45;&#45;WV&#45;0R2</title>
<path fill="none" stroke="black" d="M306.94,-579.53C313.41,-575.37 320.43,-570.85 326.94,-566.67"/>
</g>
<!-- SZ6&#45;TA -->
<g id="SZ6&#45;TA" class="node">
<title>SZ6&#45;TA</title>
<ellipse fill="none" stroke="black" cx="137.37" cy="-552.49" rx="44.39" ry="18"/>
<text text-anchor="middle" x="137.37" y="-548.79" font-family="Times,serif" font-size="14.00">SZ6&#45;TA</text>
</g>
<!-- G06&#45;8Y&#45;&#45;SZ6&#45;TA -->
<g id="edge34" class="edge">
<title>G06&#45;8Y&#45;&#45;SZ6&#45;TA</title>
<path fill="none" stroke="black" d="M247,-584.43C224.59,-577.91 195.88,-569.54 173.46,-563.01"/>
</g>
<!-- IKTD&#45;P -->
<g id="IKTD&#45;P" class="node">
<title>IKTD&#45;P</title>
<ellipse fill="none" stroke="black" cx="114.1" cy="-597.12" rx="43.59" ry="18"/>
<text text-anchor="middle" x="114.1" y="-593.42" font-family="Times,serif" font-size="14.00">IKTD&#45;P</text>
</g>
<!-- G06&#45;8Y&#45;&#45;IKTD&#45;P -->
<g id="edge35" class="edge">
<title>G06&#45;8Y&#45;&#45;IKTD&#45;P</title>
<path fill="none" stroke="black" d="M238.62,-595.5C213.7,-595.83 182.71,-596.23 157.88,-596.55"/>
</g>
<!-- SZ6&#45;TA&#45;&#45;U&#45;O2DA -->
<g id="edge36" class="edge">
<title>SZ6&#45;TA&#45;&#45;U&#45;O2DA</title>
<path fill="none" stroke="black" d="M153.95,-569.57C168.67,-584.73 190.05,-606.76 204.75,-621.91"/>
</g>
<!-- R&#45;YWID -->
<g id="R&#45;YWID" class="node">
<title>R&#45;YWID</title>
<ellipse fill="none" stroke="black" cx="249.86" cy="-716.52" rx="45.5" ry="18"/>
<text text-anchor="middle" x="249.86" y="-712.82" font-family="Times,serif" font-size="14.00">R&#45;YWID</text>
</g>
<!-- R&#45;YWID&#45;&#45;S&#45;KSWL -->
<g id="edge37" class="edge">
<title>R&#45;YWID&#45;&#45;S&#45;KSWL</title>
<path fill="none" stroke="black" d="M286.47,-705.71C298.94,-702.03 312.9,-697.91 325.48,-694.2"/>
</g>
<!-- 30&#45;D5G -->
<g id="_30&#45;D5G" class="node">
<title>30&#45;D5G</title>
<ellipse fill="none" stroke="black" cx="144.64" cy="-748.43" rx="46.29" ry="18"/>
<text text-anchor="middle" x="144.64" y="-744.73" font-family="Times,serif" font-size="14.00">30&#45;D5G</text>
</g>
<!-- 30&#45;D5G&#45;&#45;R&#45;YWID -->
<g id="edge38" class="edge">
<title>30&#45;D5G&#45;&#45;R&#45;YWID</title>
<path fill="none" stroke="black" d="M181.15,-737.36C191.59,-734.19 202.98,-730.74 213.42,-727.57"/>
</g>
<!-- HB&#45;FSO -->
<g id="HB&#45;FSO" class="node">
<title>HB&#45;FSO</title>
<ellipse fill="none" stroke="black" cx="248.03" cy="-791.61" rx="48.19" ry="18"/>
<text text-anchor="middle" x="248.03" y="-787.91" font-family="Times,serif" font-size="14.00">HB&#45;FSO</text>
</g>
<!-- HB&#45;FSO&#45;&#45;R&#45;YWID -->
<g id="edge39" class="edge">
<title>HB&#45;FSO&#45;&#45;R&#45;YWID</title>
<path fill="none" stroke="black" d="M248.47,-773.44C248.76,-761.63 249.14,-746.31 249.42,-734.53"/>
</g>
<!-- J1&#45;KJP -->
<g id="J1&#45;KJP" class="node">
<title>J1&#45;KJP</title>
<ellipse fill="none" stroke="black" cx="343.09" cy="-739.75" rx="39.79" ry="18"/>
<text text-anchor="middle" x="343.09" y="-736.05" font-family="Times,serif" font-size="14.00">J1&#45;KJP</text>
</g>
<!-- HB&#45;FSO&#45;&#45;J1&#45;KJP -->
<g id="edge40" class="edge">
<title>HB&#45;FSO&#45;&#45;J1&#45;KJP</title>
<path fill="none" stroke="black" d="M275.27,-776.75C288.55,-769.51 304.43,-760.84 317.48,-753.72"/>
</g>
<!-- J1&#45;KJP&#45;&#45;S&#45;KSWL -->
<g id="edge41" class="edge">
<title>J1&#45;KJP&#45;&#45;S&#45;KSWL</title>
<path fill="none" stroke="black" d="M349.58,-721.77C351.97,-715.14 354.68,-707.63 357.07,-701"/>
</g>
<!-- J1&#45;KJP&#45;&#45;R&#45;YWID -->
<g id="edge42" class="edge">
<title>J1&#45;KJP&#45;&#45;R&#45;YWID</title>
<path fill="none" stroke="black" d="M308.11,-731.03C301.7,-729.44 294.98,-727.76 288.48,-726.14"/>
</g>
<!-- 6&#45;AOLS -->
<g id="_6&#45;AOLS" class="node">
<title>6&#45;AOLS</title>
<ellipse fill="none" stroke="black" cx="250.42" cy="-512.21" rx="45.5" ry="18"/>
<text text-anchor="middle" x="250.42" y="-508.51" font-family="Times,serif" font-size="14.00">6&#45;AOLS</text>
</g>
<!-- 6&#45;AOLS&#45;&#45;G06&#45;8Y -->
<g id="edge43" class="edge">
<title>6&#45;AOLS&#45;&#45;G06&#45;8Y</title>
<path fill="none" stroke="black" d="M257.49,-530.16C262.95,-544.03 270.48,-563.14 275.94,-577.01"/>
</g>
<!-- L&#45;P3XM -->
<g id="L&#45;P3XM" class="node">
<title>L&#45;P3XM</title>
<ellipse fill="none" stroke="black" cx="124.01" cy="-445.67" rx="47.5" ry="18"/>
<text text-anchor="middle" x="124.01" y="-441.97" font-family="Times,serif" font-size="14.00">L&#45;P3XM</text>
</g>
<!-- 6&#45;AOLS&#45;&#45;L&#45;P3XM -->
<g id="edge44" class="edge">
<title>6&#45;AOLS&#45;&#45;L&#45;P3XM</title>
<path fill="none" stroke="black" d="M222.99,-497.77C201.93,-486.69 172.97,-471.45 151.82,-460.31"/>
</g>
<!-- C&#45;XNUA -->
<g id="C&#45;XNUA" class="node">
<title>C&#45;XNUA</title>
<ellipse fill="none" stroke="black" cx="285.8" cy="-468.17" rx="48.19" ry="18"/>
<text text-anchor="middle" x="285.8" y="-464.47" font-family="Times,serif" font-size="14.00">C&#45;XNUA</text>
</g>
<!-- 6&#45;AOLS&#45;&#45;C&#45;XNUA -->
<g id="edge45" class="edge">
<title>6&#45;AOLS&#45;&#45;C&#45;XNUA</title>
<path fill="none" stroke="black" d="M264.4,-494.8C266.87,-491.73 269.45,-488.52 271.92,-485.45"/>
</g>
<!-- 33CE&#45;7 -->
<g id="_33CE&#45;7" class="node">
<title>33CE&#45;7</title>
<ellipse fill="none" stroke="black" cx="113.67" cy="-498.03" rx="45" ry="18"/>
<text text-anchor="middle" x="113.67" y="-494.33" font-family="Times,serif" font-size="14.00">33CE&#45;7</text>
</g>
<!-- 33CE&#45;7&#45;&#45;6&#45;AOLS -->
<g id="edge46" class="edge">
<title>33CE&#45;7&#45;&#45;6&#45;AOLS</title>
<path fill="none" stroke="black" d="M157.31,-502.56C172.95,-504.18 190.57,-506 206.25,-507.63"/>
</g>
<!-- DCJ&#45;ZT -->
<g id="DCJ&#45;ZT" class="node">
<title>DCJ&#45;ZT</title>
<ellipse fill="none" stroke="black" cx="614.87" cy="-827.07" rx="43.59" ry="18"/>
<text text-anchor="middle" x="614.87" y="-823.37" font-family="Times,serif" font-size="14.00">DCJ&#45;ZT</text>
</g>
<!-- DCJ&#45;ZT&#45;&#45;KMV&#45;CQ -->
<g id="edge47" class="edge">
<title>DCJ&#45;ZT&#45;&#45;KMV&#45;CQ</title>
<path fill="none" stroke="black" d="M573.32,-821.47C568.63,-820.84 563.83,-820.19 559.08,-819.55"/>
</g>
<!-- O36A&#45;P -->
<g id="O36A&#45;P" class="node">
<title>O36A&#45;P</title>
<ellipse fill="none" stroke="black" cx="678.46" cy="-871.29" rx="45.5" ry="18"/>
<text text-anchor="middle" x="678.46" y="-867.59" font-family="Times,serif" font-size="14.00">O36A&#45;P</text>
</g>
<!-- DCJ&#45;ZT&#45;&#45;O36A&#45;P -->
<g id="edge48" class="edge">
<title>DCJ&#45;ZT&#45;&#45;O36A&#45;P</title>
<path fill="none" stroke="black" d="M637.47,-842.78C643.47,-846.95 649.94,-851.46 655.93,-855.62"/>
</g>
<!-- Z&#45;LO6I -->
<g id="Z&#45;LO6I" class="node">
<title>Z&#45;LO6I</title>
<ellipse fill="none" stroke="black" cx="714.25" cy="-915.34" rx="42.49" ry="18"/>
<text text-anchor="middle" x="714.25" y="-911.64" font-family="Times,serif" font-size="14.00">Z&#45;LO6I</text>
</g>
<!-- O36A&#45;P&#45;&#45;Z&#45;LO6I -->
<g id="edge49" class="edge">
<title>O36A&#45;P&#45;&#45;Z&#45;LO6I</title>
<path fill="none" stroke="black" d="M692.4,-888.45C694.99,-891.64 697.7,-894.97 700.29,-898.16"/>
</g>
<!-- 0M&#45;103 -->
<g id="_0M&#45;103" class="node">
<title>0M&#45;103</title>
<ellipse fill="none" stroke="black" cx="810.73" cy="-926.98" rx="46.29" ry="18"/>
<text text-anchor="middle" x="810.73" y="-923.28" font-family="Times,serif" font-size="14.00">0M&#45;103</text>
</g>
<!-- 0M&#45;103&#45;&#45;Z&#45;LO6I -->
<g id="edge50" class="edge">
<title>0M&#45;103&#45;&#45;Z&#45;LO6I</title>
<path fill="none" stroke="black" d="M766.44,-921.64C762.68,-921.18 758.88,-920.72 755.15,-920.27"/>
</g>
<!-- HE5T&#45;A -->
<g id="HE5T&#45;A" class="node">
<title>HE5T&#45;A</title>
<ellipse fill="none" stroke="black" cx="888.94" cy="-974.6" rx="45.5" ry="18"/>
<text text-anchor="middle" x="888.94" y="-970.9" font-family="Times,serif" font-size="14.00">HE5T&#45;A</text>
</g>
<!-- 0M&#45;103&#45;&#45;HE5T&#45;A -->
<g id="edge51" class="edge">
<title>0M&#45;103&#45;&#45;HE5T&#45;A</title>
<path fill="none" stroke="black" d="M835.91,-942.31C844.93,-947.8 855.09,-953.99 864.08,-959.46"/>
</g>
<!-- 6OYQ&#45;Z -->
<g id="_6OYQ&#45;Z" class="node">
<title>6OYQ&#45;Z</title>
<ellipse fill="none" stroke="black" cx="745.44" cy="-971.67" rx="47" ry="18"/>
<text text-anchor="middle" x="745.44" y="-967.97" font-family="Times,serif" font-size="14.00">6OYQ&#45;Z</text>
</g>
<!-- 6OYQ&#45;Z&#45;&#45;Z&#45;LO6I -->
<g id="edge52" class="edge">
<title>6OYQ&#45;Z&#45;&#45;Z&#45;LO6I</title>
<path fill="none" stroke="black" d="M735.57,-953.85C731.93,-947.28 727.81,-939.83 724.16,-933.24"/>
</g>
<!-- A&#45;1IJ9 -->
<g id="A&#45;1IJ9" class="node">
<title>A&#45;1IJ9</title>
<ellipse fill="none" stroke="black" cx="388.97" cy="-901.26" rx="38.5" ry="18"/>
<text text-anchor="middle" x="388.97" y="-897.56" font-family="Times,serif" font-size="14.00">A&#45;1IJ9</text>
</g>
<!-- A&#45;1IJ9&#45;&#45;RKE&#45;CP -->
<g id="edge53" class="edge">
<title>A&#45;1IJ9&#45;&#45;RKE&#45;CP</title>
<path fill="none" stroke="black" d="M369.75,-885.37C365.22,-881.63 360.39,-877.63 355.82,-873.86"/>
</g>
<!-- Y&#45;YHZQ -->
<g id="Y&#45;YHZQ" class="node">
<title>Y&#45;YHZQ</title>
<ellipse fill="none" stroke="black" cx="368.85" cy="-945.28" rx="45" ry="18"/>
<text text-anchor="middle" x="368.85" y="-941.58" font-family="Times,serif" font-size="14.00">Y&#45;YHZQ</text>
</g>
<!-- A&#45;1IJ9&#45;&#45;Y&#45;YHZQ -->
<g id="edge54" class="edge">
<title>A&#45;1IJ9&#45;&#45;Y&#45;YHZQ</title>
<path fill="none" stroke="black" d="M380.9,-918.91C379.63,-921.69 378.32,-924.56 377.05,-927.34"/>
</g>
<!-- Z&#45;SR1I -->
<g id="Z&#45;SR1I" class="node">
<title>Z&#45;SR1I</title>
<ellipse fill="none" stroke="black" cx="465.32" cy="-980.66" rx="42.49" ry="18"/>
<text text-anchor="middle" x="465.32" y="-976.96" font-family="Times,serif" font-size="14.00">Z&#45;SR1I</text>
</g>
<!-- Y&#45;YHZQ&#45;&#45;Z&#45;SR1I -->
<g id="edge55" class="edge">
<title>Y&#45;YHZQ&#45;&#45;Z&#45;SR1I</title>
<path fill="none" stroke="black" d="M402.05,-957.46C412.08,-961.14 423.07,-965.17 433.04,-968.82"/>
</g>
<!-- GW7P&#45;8 -->
<g id="GW7P&#45;8" class="node">
<title>GW7P&#45;8</title>
<ellipse fill="none" stroke="black" cx="394.78" cy="-1024.7" rx="48.19" ry="18"/>
<text text-anchor="middle" x="394.78" y="-1021" font-family="Times,serif" font-size="14.00">GW7P&#45;8</text>
</g>
<!-- GW7P&#45;8&#45;&#45;Y&#45;YHZQ -->
<g id="edge56" class="edge">
<title>GW7P&#45;8&#45;&#45;Y&#45;YHZQ</title>
<path fill="none" stroke="black" d="M388.9,-1006.7C384.65,-993.71 378.95,-976.23 374.71,-963.24"/>
</g>
<!-- GW7P&#45;8&#45;&#45;Z&#45;SR1I -->
<g id="edge57" class="edge">
<title>GW7P&#45;8&#45;&#45;Z&#45;SR1I</title>
<path fill="none" stroke="black" d="M419.85,-1009.1C426.82,-1004.7 434.37,-1000 441.28,-995.69"/>
</g>
<!-- OE&#45;4HB -->
<g id="OE&#45;4HB" class="node">
<title>OE&#45;4HB</title>
<ellipse fill="none" stroke="black" cx="370.56" cy="-1106" rx="48.19" ry="18"/>
<text text-anchor="middle" x="370.56" y="-1102.3" font-family="Times,serif" font-size="14.00">OE&#45;4HB</text>
</g>
<!-- GW7P&#45;8&#45;&#45;OE&#45;4HB -->
<g id="edge58" class="edge">
<title>GW7P&#45;8&#45;&#45;OE&#45;4HB</title>
<path fill="none" stroke="black" d="M389.41,-1042.8C385.39,-1056.2 379.93,-1074.5 375.92,-1088"/>
</g>
<!-- OE&#45;4HB&#45;&#45;42XJ&#45;N -->
<g id="edge59" class="edge">
<title>OE&#45;4HB&#45;&#45;42XJ&#45;N</title>
<path fill="none" stroke="black" d="M370.05,-1124.1C369.98,-1126.7 369.91,-1129.3 369.84,-1131.9"/>
</g>
<!-- SF&#45;XJS -->
<g id="SF&#45;XJS" class="node">
<title>SF&#45;XJS</title>
<ellipse fill="none" stroke="black" cx="278.19" cy="-989.3" rx="42.49" ry="18"/>
<text text-anchor="middle" x="278.19" y="-985.6" font-family="Times,serif" font-size="14.00">SF&#45;XJS</text>
</g>
<!-- SF&#45;XJS&#45;&#45;Y&#45;YHZQ -->
<g id="edge60" class="edge">
<title>SF&#45;XJS&#45;&#45;Y&#45;YHZQ</title>
<path fill="none" stroke="black" d="M306.38,-975.62C317.09,-970.42 329.29,-964.49 340.05,-959.27"/>
</g>
<!-- HB&#45;5L3 -->
<g id="HB&#45;5L3" class="node">
<title>HB&#45;5L3</title>
<polygon fill="none" stroke="black" points="227.9,-1030.2 156.9,-1030.2 156.9,-994.2 227.9,-994.2 227.9,-1030.2"/>
<text text-anchor="middle" x="192.4" y="-1008.5" font-family="Times,serif" font-size="14.00">HB&#45;5L3</text>
</g>
<!-- SF&#45;XJS&#45;&#45;HB&#45;5L3 -->
<g id="edge61" class="edge">
<title>SF&#45;XJS&#45;&#45;HB&#45;5L3</title>
<path fill="none" stroke="black" d="M242.3,-998.87C237.62,-1000.1 232.82,-1001.4 228.14,-1002.6"/>
</g>
<!-- A1RR&#45;M -->
<g id="A1RR&#45;M" class="node">
<title>A1RR&#45;M</title>
<ellipse fill="none" stroke="black" cx="270.03" cy="-1061.9" rx="48.99" ry="18"/>
<text text-anchor="middle" x="270.03" y="-1058.2" font-family="Times,serif" font-size="14.00">A1RR&#45;M</text>
</g>
<!-- A1RR&#45;M&#45;&#45;GW7P&#45;8 -->
<g id="edge62" class="edge">
<title>A1RR&#45;M&#45;&#45;GW7P&#45;8</title>
<path fill="none" stroke="black" d="M308.13,-1050.6C323.61,-1046 341.45,-1040.6 356.9,-1036"/>
</g>
<!-- A1RR&#45;M&#45;&#45;OE&#45;4HB -->
<g id="edge63" class="edge">
<title>A1RR&#45;M&#45;&#45;OE&#45;4HB</title>
<path fill="none" stroke="black" d="M301.56,-1075.8C313.54,-1081 327.17,-1087 339.14,-1092.2"/>
</g>
<!-- A1RR&#45;M&#45;&#45;SF&#45;XJS -->
<g id="edge64" class="edge">
<title>A1RR&#45;M&#45;&#45;SF&#45;XJS</title>
<path fill="none" stroke="black" d="M272.09,-1043.6C273.33,-1032.5 274.92,-1018.4 276.16,-1007.4"/>
</g>
<!-- AR&#45;5SY -->
<g id="AR&#45;5SY" class="node">
<title>AR&#45;5SY</title>
<ellipse fill="none" stroke="black" cx="471.53" cy="-1068.8" rx="45" ry="18"/>
<text text-anchor="middle" x="471.53" y="-1065.1" font-family="Times,serif" font-size="14.00">AR&#45;5SY</text>
</g>
<!-- A1RR&#45;M&#45;&#45;AR&#45;5SY -->
<g id="edge65" class="edge">
<title>A1RR&#45;M&#45;&#45;AR&#45;5SY</title>
<path fill="none" stroke="black" d="M318.8,-1063.6C351.65,-1064.7 394.65,-1066.2 426.65,-1067.2"/>
</g>
<!-- AR&#45;5SY&#45;&#45;GW7P&#45;8 -->
<g id="edge66" class="edge">
<title>AR&#45;5SY&#45;&#45;GW7P&#45;8</title>
<path fill="none" stroke="black" d="M445.55,-1053.9C437.72,-1049.4 429.12,-1044.4 421.26,-1039.9"/>
</g>
<!-- AR&#45;5SY&#45;&#45;OE&#45;4HB -->
<g id="edge67" class="edge">
<title>AR&#45;5SY&#45;&#45;OE&#45;4HB</title>
<path fill="none" stroke="black" d="M438.47,-1080.9C427.77,-1084.9 415.89,-1089.3 405.09,-1093.3"/>
</g>
<!-- MZPH&#45;W -->
<g id="MZPH&#45;W" class="node">
<title>MZPH&#45;W</title>
<ellipse fill="none" stroke="black" cx="515.57" cy="-271.89" rx="52" ry="18"/>
<text text-anchor="middle" x="515.57" y="-268.19" font-family="Times,serif" font-size="14.00">MZPH&#45;W</text>
</g>
<!-- MZPH&#45;W&#45;&#45;ZK&#45;YQ3 -->
<g id="edge68" class="edge">
<title>MZPH&#45;W&#45;&#45;ZK&#45;YQ3</title>
<path fill="none" stroke="black" d="M506.48,-289.79C505.07,-292.55 503.63,-295.4 502.23,-298.16"/>
</g>
<!-- W0X&#45;MG -->
<g id="W0X&#45;MG" class="node">
<title>W0X&#45;MG</title>
<ellipse fill="none" stroke="black" cx="306.26" cy="-263.24" rx="52" ry="18"/>
<text text-anchor="middle" x="306.26" y="-259.54" font-family="Times,serif" font-size="14.00">W0X&#45;MG</text>
</g>
<!-- MZPH&#45;W&#45;&#45;W0X&#45;MG -->
<g id="edge69" class="edge">
<title>MZPH&#45;W&#45;&#45;W0X&#45;MG</title>
<path fill="none" stroke="black" d="M463.83,-269.75C431.63,-268.42 390.35,-266.72 358.13,-265.39"/>
</g>
<!-- U5&#45;XW7 -->
<g id="U5&#45;XW7" class="node">
<title>U5&#45;XW7</title>
<ellipse fill="none" stroke="black" cx="538.96" cy="-227.85" rx="48.99" ry="18"/>
<text text-anchor="middle" x="538.96" y="-224.15" font-family="Times,serif" font-size="14.00">U5&#45;XW7</text>
</g>
<!-- MZPH&#45;W&#45;&#45;U5&#45;XW7 -->
<g id="edge70" class="edge">
<title>MZPH&#45;W&#45;&#45;U5&#45;XW7</title>
<path fill="none" stroke="black" d="M525.08,-253.98C526.55,-251.21 528.06,-248.36 529.53,-245.6"/>
</g>
<!-- JI&#45;1UQ -->
<g id="JI&#45;1UQ" class="node">
<title>JI&#45;1UQ</title>
<ellipse fill="none" stroke="black" cx="412.02" cy="-233.48" rx="41.69" ry="18"/>
<text text-anchor="middle" x="412.02" y="-229.78" font-family="Times,serif" font-size="14.00">JI&#45;1UQ</text>
</g>
<!-- JI&#45;1UQ&#45;&#45;MZPH&#45;W -->
<g id="edge71" class="edge">
<title>JI&#45;1UQ&#45;&#45;MZPH&#45;W</title>
<path fill="none" stroke="black" d="M443.65,-245.21C455.07,-249.45 468.04,-254.26 479.79,-258.62"/>
</g>
<!-- JI&#45;1UQ&#45;&#45;W0X&#45;MG -->
<g id="edge72" class="edge">
<title>JI&#45;1UQ&#45;&#45;W0X&#45;MG</title>
<path fill="none" stroke="black" d="M377.1,-243.31C367.35,-246.05 356.68,-249.05 346.64,-251.88"/>
</g>
<!-- EN&#45;GTB -->
<g id="EN&#45;GTB" class="node">
<title>EN&#45;GTB</title>
<ellipse fill="none" stroke="black" cx="378.29" cy="-307.26" rx="48.19" ry="18"/>
<text text-anchor="middle" x="378.29" y="-303.56" font-family="Times,serif" font-size="14.00">EN&#45;GTB</text>
</g>
<!-- EN&#45;GTB&#45;&#45;ZK&#45;YQ3 -->
<g id="edge73" class="edge">
<title>EN&#45;GTB&#45;&#45;ZK&#45;YQ3</title>
<path fill="none" stroke="black" d="M425.7,-310.83C433.61,-311.42 441.79,-312.04 449.6,-312.62"/>
</g>
<!-- T&#45;K10W -->
<g id="T&#45;K10W" class="node">
<title>T&#45;K10W</title>
<ellipse fill="none" stroke="black" cx="275.91" cy="-336.12" rx="46.29" ry="18"/>
<text text-anchor="middle" x="275.91" y="-332.42" font-family="Times,serif" font-size="14.00">T&#45;K10W</text>
</g>
<!-- EN&#45;GTB&#45;&#45;T&#45;K10W -->
<g id="edge74" class="edge">
<title>EN&#45;GTB&#45;&#45;T&#45;K10W</title>
<path fill="none" stroke="black" d="M339.58,-318.17C330.98,-320.6 321.87,-323.16 313.32,-325.58"/>
</g>
<!-- V&#45;LDEJ -->
<g id="V&#45;LDEJ" class="node">
<title>V&#45;LDEJ</title>
<ellipse fill="none" stroke="black" cx="200.79" cy="-380.14" rx="43" ry="18"/>
<text text-anchor="middle" x="200.79" y="-376.44" font-family="Times,serif" font-size="14.00">V&#45;LDEJ</text>
</g>
<!-- T&#45;K10W&#45;&#45;V&#45;LDEJ -->
<g id="edge75" class="edge">
<title>T&#45;K10W&#45;&#45;V&#45;LDEJ</title>
<path fill="none" stroke="black" d="M250.06,-351.27C242.25,-355.84 233.69,-360.86 225.93,-365.41"/>
</g>
<!-- JSI&#45;LL -->
<g id="JSI&#45;LL" class="node">
<title>JSI&#45;LL</title>
<ellipse fill="none" stroke="black" cx="468.71" cy="-183.83" rx="38.5" ry="18"/>
<text text-anchor="middle" x="468.71" y="-180.13" font-family="Times,serif" font-size="14.00">JSI&#45;LL</text>
</g>
<!-- JSI&#45;LL&#45;&#45;U5&#45;XW7 -->
<g id="edge76" class="edge">
<title>JSI&#45;LL&#45;&#45;U5&#45;XW7</title>
<path fill="none" stroke="black" d="M491.71,-198.24C498.75,-202.66 506.54,-207.53 513.72,-212.03"/>
</g>
<!-- M&#45;UC0S -->
<g id="M&#45;UC0S" class="node">
<title>M&#45;UC0S</title>
<ellipse fill="none" stroke="black" cx="602.21" cy="-163.9" rx="50.09" ry="18"/>
<text text-anchor="middle" x="602.21" y="-160.2" font-family="Times,serif" font-size="14.00">M&#45;UC0S</text>
</g>
<!-- JSI&#45;LL&#45;&#45;M&#45;UC0S -->
<g id="edge77" class="edge">
<title>JSI&#45;LL&#45;&#45;M&#45;UC0S</title>
<path fill="none" stroke="black" d="M505.54,-178.33C521.13,-176.01 539.47,-173.27 555.95,-170.81"/>
</g>
<!-- SY0W&#45;2 -->
<g id="SY0W&#45;2" class="node">
<title>SY0W&#45;2</title>
<ellipse fill="none" stroke="black" cx="497.69" cy="-139.82" rx="46.29" ry="18"/>
<text text-anchor="middle" x="497.69" y="-136.12" font-family="Times,serif" font-size="14.00">SY0W&#45;2</text>
</g>
<!-- JSI&#45;LL&#45;&#45;SY0W&#45;2 -->
<g id="edge78" class="edge">
<title>JSI&#45;LL&#45;&#45;SY0W&#45;2</title>
<path fill="none" stroke="black" d="M480.16,-166.44C482.13,-163.46 484.17,-160.36 486.13,-157.37"/>
</g>
<!-- Q1U&#45;IU -->
<g id="Q1U&#45;IU" class="node">
<title>Q1U&#45;IU</title>
<ellipse fill="none" stroke="black" cx="368.6" cy="-135.95" rx="45.5" ry="18"/>
<text text-anchor="middle" x="368.6" y="-132.25" font-family="Times,serif" font-size="14.00">Q1U&#45;IU</text>
</g>
<!-- JSI&#45;LL&#45;&#45;Q1U&#45;IU -->
<g id="edge79" class="edge">
<title>JSI&#45;LL&#45;&#45;Q1U&#45;IU</title>
<path fill="none" stroke="black" d="M441.62,-170.88C428.07,-164.4 411.65,-156.54 397.82,-149.93"/>
</g>
<!-- M&#45;UC0S&#45;&#45;SY0W&#45;2 -->
<g id="edge80" class="edge">
<title>M&#45;UC0S&#45;&#45;SY0W&#45;2</title>
<path fill="none" stroke="black" d="M560,-154.17C552.63,-152.48 544.99,-150.71 537.69,-149.03"/>
</g>
<!-- V7&#45;MID -->
<g id="V7&#45;MID" class="node">
<title>V7&#45;MID</title>
<ellipse fill="none" stroke="black" cx="598.17" cy="-106.04" rx="46.29" ry="18"/>
<text text-anchor="middle" x="598.17" y="-102.34" font-family="Times,serif" font-size="14.00">V7&#45;MID</text>
</g>
<!-- M&#45;UC0S&#45;&#45;V7&#45;MID -->
<g id="edge81" class="edge">
<title>M&#45;UC0S&#45;&#45;V7&#45;MID</title>
<path fill="none" stroke="black" d="M600.93,-145.59C600.46,-138.84 599.92,-131.19 599.45,-124.42"/>
</g>
<!-- CH9L&#45;K -->
<g id="CH9L&#45;K" class="node">
<title>CH9L&#45;K</title>
<polygon fill="none" stroke="black" points="369.52,-106.82 297.52,-106.82 297.52,-70.82 369.52,-70.82 369.52,-106.82"/>
<text text-anchor="middle" x="333.52" y="-85.12" font-family="Times,serif" font-size="14.00">CH9L&#45;K</text>
</g>
<!-- Q1U&#45;IU&#45;&#45;CH9L&#45;K -->
<g id="edge82" class="edge">
<title>Q1U&#45;IU&#45;&#45;CH9L&#45;K</title>
<path fill="none" stroke="black" d="M355.73,-118.67C352.92,-114.89 349.93,-110.87 347.09,-107.05"/>
</g>
<!-- 2&#45;3Q2G -->
<g id="_2&#45;3Q2G" class="node">
<title>2&#45;3Q2G</title>
<ellipse fill="none" stroke="black" cx="622.63" cy="-62" rx="46.29" ry="18"/>
<text text-anchor="middle" x="622.63" y="-58.3" font-family="Times,serif" font-size="14.00">2&#45;3Q2G</text>
</g>
<!-- 2&#45;3Q2G&#45;&#45;V7&#45;MID -->
<g id="edge83" class="edge">
<title>2&#45;3Q2G&#45;&#45;V7&#45;MID</title>
<path fill="none" stroke="black" d="M612.82,-79.66C611.23,-82.53 609.58,-85.5 607.98,-88.38"/>
</g>
<!-- ZIU&#45;EP -->
<g id="ZIU&#45;EP" class="node">
<title>ZIU&#45;EP</title>
<polygon fill="none" stroke="black" points="683.58,-36 615.58,-36 615.58,0 683.58,0 683.58,-36"/>
<text text-anchor="middle" x="649.58" y="-14.3" font-family="Times,serif" font-size="14.00">ZIU&#45;EP</text>
</g>
<!-- 2&#45;3Q2G&#45;&#45;ZIU&#45;EP -->
<g id="edge84" class="edge">
<title>2&#45;3Q2G&#45;&#45;ZIU&#45;EP</title>
<path fill="none" stroke="black" d="M633.44,-44.36C635.08,-41.68 636.78,-38.91 638.42,-36.22"/>
</g>
<!-- 7D&#45;PAT -->
<g id="_7D&#45;PAT" class="node">
<title>7D&#45;PAT</title>
<ellipse fill="none" stroke="black" cx="223.75" cy="-424.16" rx="44.39" ry="18"/>
<text text-anchor="middle" x="223.75" y="-420.46" font-family="Times,serif" font-size="14.00">7D&#45;PAT</text>
</g>
<!-- 7D&#45;PAT&#45;&#45;C&#45;XNUA -->
<g id="edge85" class="edge">
<title>7D&#45;PAT&#45;&#45;C&#45;XNUA</title>
<path fill="none" stroke="black" d="M245.8,-439.8C251.37,-443.75 257.37,-448.01 262.98,-451.99"/>
</g>
<!-- 7D&#45;PAT&#45;&#45;V&#45;LDEJ -->
<g id="edge86" class="edge">
<title>7D&#45;PAT&#45;&#45;V&#45;LDEJ</title>
<path fill="none" stroke="black" d="M214.54,-406.51C213.05,-403.64 211.5,-400.66 210,-397.79"/>
</g>
<!-- P&#45;UCRP -->
<g id="P&#45;UCRP" class="node">
<title>P&#45;UCRP</title>
<ellipse fill="none" stroke="black" cx="137.53" cy="-336.1" rx="47.5" ry="18"/>
<text text-anchor="middle" x="137.53" y="-332.4" font-family="Times,serif" font-size="14.00">P&#45;UCRP</text>
</g>
<!-- P&#45;UCRP&#45;&#45;V&#45;LDEJ -->
<g id="edge87" class="edge">
<title>P&#45;UCRP&#45;&#45;V&#45;LDEJ</title>
<path fill="none" stroke="black" d="M160.37,-352C166.31,-356.14 172.71,-360.59 178.62,-364.71"/>
</g>
<!-- 3&#45;QYVE -->
<g id="_3&#45;QYVE" class="node">
<title>3&#45;QYVE</title>
<ellipse fill="none" stroke="black" cx="46.15" cy="-292.08" rx="46.29" ry="18"/>
<text text-anchor="middle" x="46.15" y="-288.38" font-family="Times,serif" font-size="14.00">3&#45;QYVE</text>
</g>
<!-- 3&#45;QYVE&#45;&#45;P&#45;UCRP -->
<g id="edge88" class="edge">
<title>3&#45;QYVE&#45;&#45;P&#45;UCRP</title>
<path fill="none" stroke="black" d="M75.31,-306.13C85.76,-311.16 97.54,-316.84 108.01,-321.88"/>
</g>
</g>
</svg>
