<?xml version="1.0" encoding="UTF-8" standalone="no"?>
<!DOCTYPE svg PUBLIC "-//W3C//DTD SVG 1.1//EN"
 "http://www.w3.org/Graphics/SVG/1.1/DTD/svg11.dtd">
<!-- Generated by graphviz version 2.43.0 (0)
 -->
<!-- Pages: 1 -->
<svg width="1611pt" height="1346pt"
 viewBox="0.00 0.00 1611.50 1346.10" xmlns="http://www.w3.org/2000/svg" xmlns:xlink="http://www.w3.org/1999/xlink">
<g id="graph0" class="graph" transform="scale(1 1) rotate(0) translate(4 1342.1)">
<polygon fill="white" stroke="transparent" points="-4,4 -4,-1342.1 1607.5,-1342.1 1607.5,4 -4,4"/>
<!-- 8&#45;SPNN -->
<g id="8&#45;SPNN" class="node">
<title>8&#45;SPNN</title>
<polygon fill="none" stroke="black" points="528.99,-157.87 454.99,-157.87 454.99,-121.87 528.99,-121.87 528.99,-157.87"/>
<text text-anchor="middle" x="491.99" y="-136.17" font-family="Times,serif" font-size="14.00">8&#45;SPNN</text>
</g>
<!-- 8OYE&#45;Z -->
<g id="8OYE&#45;Z" class="node">
<title>8OYE&#45;Z</title>
<polygon fill="none" stroke="black" points="362.38,-43.68 291.38,-43.68 291.38,-7.68 362.38,-7.68 362.38,-43.68"/>
<text text-anchor="middle" x="326.88" y="-21.98" font-family="Times,serif" font-size="14.00">8OYE&#45;Z</text>
</g>
<!-- X1&#45;IZ0 -->
<g id="X1&#45;IZ0" class="node">
<title>X1&#45;IZ0</title>
<polygon fill="none" stroke="black" points="766.67,-155.98 702.67,-155.98 702.67,-119.98 766.67,-119.98 766.67,-155.98"/>
<text text-anchor="middle" x="734.67" y="-134.28" font-family="Times,serif" font-size="14.00">X1&#45;IZ0</text>
</g>
<!-- APES&#45;G -->
<g id="APES&#45;G" class="node">
<title>APES&#45;G</title>
<polygon fill="none" stroke="black" points="608.44,-1032.8 536.44,-1032.8 536.44,-996.8 608.44,-996.8 608.44,-1032.8"/>
<text text-anchor="middle" x="572.44" y="-1011.1" font-family="Times,serif" font-size="14.00">APES&#45;G</text>
</g>
<!-- L&#45;WG68 -->
<g id="L&#45;WG68" class="node">
<title>L&#45;WG68</title>
<ellipse fill="none" stroke="black" cx="515.95" cy="-390.14" rx="47.5" ry="18"/>
<text text-anchor="middle" x="515.95" y="-386.44" font-family="Times,serif" font-size="14.00">L&#45;WG68</text>
</g>
<!-- VK6&#45;EZ -->
<g id="VK6&#45;EZ" class="node">
<title>VK6&#45;EZ</title>
<ellipse fill="none" stroke="black" cx="617.61" cy="-384.32" rx="46.29" ry="18"/>
<text text-anchor="middle" x="617.61" y="-380.62" font-family="Times,serif" font-size="14.00">VK6&#45;EZ</text>
</g>
<!-- L&#45;WG68&#45;&#45;VK6&#45;EZ -->
<g id="edge1" class="edge">
<title>L&#45;WG68&#45;&#45;VK6&#45;EZ</title>
<path fill="none" stroke="black" d="M562.91,-387.45C565.83,-387.28 568.76,-387.12 571.66,-386.95"/>
</g>
<!-- E4&#45;E8W -->
<g id="E4&#45;E8W" class="node">
<title>E4&#45;E8W</title>
<ellipse fill="none" stroke="black" cx="245.57" cy="-294.24" rx="48.19" ry="18"/>
<text text-anchor="middle" x="245.57" y="-290.54" font-family="Times,serif" font-size="14.00">E4&#45;E8W</text>
</g>
<!-- HIK&#45;MC -->
<g id="HIK&#45;MC" class="node">
<title>HIK&#45;MC</title>
<ellipse fill="none" stroke="black" cx="349.19" cy="-319.14" rx="47.5" ry="18"/>
<text text-anchor="middle" x="349.19" y="-315.44" font-family="Times,serif" font-size="14.00">HIK&#45;MC</text>
</g>
<!-- E4&#45;E8W&#45;&#45;HIK&#45;MC -->
<g id="edge2" class="edge">
<title>E4&#45;E8W&#45;&#45;HIK&#45;MC</title>
<path fill="none" stroke="black" d="M286.23,-304.01C293.71,-305.81 301.52,-307.68 308.99,-309.48"/>
</g>
<!-- HIK&#45;MC&#45;&#45;L&#45;WG68 -->
<g id="edge3" class="edge">
<title>HIK&#45;MC&#45;&#45;L&#45;WG68</title>
<path fill="none" stroke="black" d="M372.17,-334.92C384.88,-343.15 401.2,-352.91 416.7,-359.82 435.62,-368.26 457.57,-375.23 476.01,-380.36"/>
</g>
<!-- Y4OK&#45;W -->
<g id="Y4OK&#45;W" class="node">
<title>Y4OK&#45;W</title>
<ellipse fill="none" stroke="black" cx="376.07" cy="-390.14" rx="48.19" ry="18"/>
<text text-anchor="middle" x="376.07" y="-386.44" font-family="Times,serif" font-size="14.00">Y4OK&#45;W</text>
</g>
<!-- HIK&#45;MC&#45;&#45;Y4OK&#45;W -->
<g id="edge4" class="edge">
<title>HIK&#45;MC&#45;&#45;Y4OK&#45;W</title>
<path fill="none" stroke="black" d="M355.97,-337.06C360.02,-347.74 365.14,-361.26 369.2,-371.98"/>
</g>
<!-- B9EA&#45;G -->
<g id="B9EA&#45;G" class="node">
<title>B9EA&#45;G</title>
<ellipse fill="none" stroke="black" cx="323.82" cy="-226.16" rx="47" ry="18"/>
<text text-anchor="middle" x="323.82" y="-222.46" font-family="Times,serif" font-size="14.00">B9EA&#45;G</text>
</g>
<!-- B9EA&#45;G&#45;&#45;E4&#45;E8W -->
<g id="edge5" class="edge">
<title>B9EA&#45;G&#45;&#45;E4&#45;E8W</title>
<path fill="none" stroke="black" d="M304.88,-242.64C292.67,-253.27 276.84,-267.03 264.61,-277.67"/>
</g>
<!-- GF&#45;GR7 -->
<g id="GF&#45;GR7" class="node">
<title>GF&#45;GR7</title>
<ellipse fill="none" stroke="black" cx="336.03" cy="-182.12" rx="47" ry="18"/>
<text text-anchor="middle" x="336.03" y="-178.42" font-family="Times,serif" font-size="14.00">GF&#45;GR7</text>
</g>
<!-- B9EA&#45;G&#45;&#45;GF&#45;GR7 -->
<g id="edge6" class="edge">
<title>B9EA&#45;G&#45;&#45;GF&#45;GR7</title>
<path fill="none" stroke="black" d="M328.79,-208.25C329.53,-205.58 330.29,-202.83 331.03,-200.16"/>
</g>
<!-- Z19&#45;B8 -->
<g id="Z19&#45;B8" class="node">
<title>Z19&#45;B8</title>
<ellipse fill="none" stroke="black" cx="224.04" cy="-229.81" rx="44.39" ry="18"/>
<text text-anchor="middle" x="224.04" y="-226.11" font-family="Times,serif" font-size="14.00">Z19&#45;B8</text>
</g>
<!-- GF&#45;GR7&#45;&#45;Z19&#45;B8 -->
<g id="edge7" class="edge">
<title>GF&#45;GR7&#45;&#45;Z19&#45;B8</title>
<path fill="none" stroke="black" d="M304.53,-195.53C289.01,-202.14 270.35,-210.09 254.91,-216.66"/>
</g>
<!-- HPMN&#45;V -->
<g id="HPMN&#45;V" class="node">
<title>HPMN&#45;V</title>
<ellipse fill="none" stroke="black" cx="230.49" cy="-179.65" rx="50.89" ry="18"/>
<text text-anchor="middle" x="230.49" y="-175.95" font-family="Times,serif" font-size="14.00">HPMN&#45;V</text>
</g>
<!-- GF&#45;GR7&#45;&#45;HPMN&#45;V -->
<g id="edge8" class="edge">
<title>GF&#45;GR7&#45;&#45;HPMN&#45;V</title>
<path fill="none" stroke="black" d="M289.12,-181.02C286.48,-180.96 283.82,-180.9 281.16,-180.84"/>
</g>
<!-- HPMN&#45;V&#45;&#45;Z19&#45;B8 -->
<g id="edge9" class="edge">
<title>HPMN&#45;V&#45;&#45;Z19&#45;B8</title>
<path fill="none" stroke="black" d="M228.16,-197.76C227.58,-202.25 226.96,-207.06 226.39,-211.56"/>
</g>
<!-- XR&#45;ZL7 -->
<g id="XR&#45;ZL7" class="node">
<title>XR&#45;ZL7</title>
<ellipse fill="none" stroke="black" cx="126.85" cy="-208.11" rx="45" ry="18"/>
<text text-anchor="middle" x="126.85" y="-204.41" font-family="Times,serif" font-size="14.00">XR&#45;ZL7</text>
</g>
<!-- HPMN&#45;V&#45;&#45;XR&#45;ZL7 -->
<g id="edge10" class="edge">
<title>HPMN&#45;V&#45;&#45;XR&#45;ZL7</title>
<path fill="none" stroke="black" d="M190.13,-190.73C181.49,-193.11 172.4,-195.6 163.89,-197.94"/>
</g>
<!-- XR&#45;ZL7&#45;&#45;Z19&#45;B8 -->
<g id="edge79" class="edge">
<title>XR&#45;ZL7&#45;&#45;Z19&#45;B8</title>
<path fill="none" stroke="black" d="M166.1,-216.87C172.42,-218.28 178.96,-219.74 185.27,-221.15"/>
</g>
<!-- XUPK&#45;Z -->
<g id="XUPK&#45;Z" class="node">
<title>XUPK&#45;Z</title>
<polygon fill="none" stroke="black" points="72,-219.03 0,-219.03 0,-183.03 72,-183.03 72,-219.03"/>
<text text-anchor="middle" x="36" y="-197.33" font-family="Times,serif" font-size="14.00">XUPK&#45;Z</text>
</g>
<!-- XR&#45;ZL7&#45;&#45;XUPK&#45;Z -->
<g id="edge80" class="edge">
<title>XR&#45;ZL7&#45;&#45;XUPK&#45;Z</title>
<path fill="none" stroke="black" d="M82.76,-204.67C79.23,-204.4 75.69,-204.12 72.23,-203.85"/>
</g>
<!-- E&#45;BFLT -->
<g id="E&#45;BFLT" class="node">
<title>E&#45;BFLT</title>
<ellipse fill="none" stroke="black" cx="252.79" cy="-363.15" rx="45" ry="18"/>
<text text-anchor="middle" x="252.79" y="-359.45" font-family="Times,serif" font-size="14.00">E&#45;BFLT</text>
</g>
<!-- E&#45;BFLT&#45;&#45;E4&#45;E8W -->
<g id="edge11" class="edge">
<title>E&#45;BFLT&#45;&#45;E4&#45;E8W</title>
<path fill="none" stroke="black" d="M250.89,-345.04C249.84,-334.99 248.53,-322.53 247.48,-312.46"/>
</g>
<!-- GZM&#45;KB -->
<g id="GZM&#45;KB" class="node">
<title>GZM&#45;KB</title>
<ellipse fill="none" stroke="black" cx="466.63" cy="-442.02" rx="50.09" ry="18"/>
<text text-anchor="middle" x="466.63" y="-438.32" font-family="Times,serif" font-size="14.00">GZM&#45;KB</text>
</g>
<!-- GZM&#45;KB&#45;&#45;L&#45;WG68 -->
<g id="edge12" class="edge">
<title>GZM&#45;KB&#45;&#45;L&#45;WG68</title>
<path fill="none" stroke="black" d="M483.05,-424.75C488.43,-419.09 494.4,-412.81 499.77,-407.16"/>
</g>
<!-- 5LAJ&#45;8 -->
<g id="5LAJ&#45;8" class="node">
<title>5LAJ&#45;8</title>
<ellipse fill="none" stroke="black" cx="419.64" cy="-251.47" rx="41" ry="18"/>
<text text-anchor="middle" x="419.64" y="-247.77" font-family="Times,serif" font-size="14.00">5LAJ&#45;8</text>
</g>
<!-- 5LAJ&#45;8&#45;&#45;HIK&#45;MC -->
<g id="edge13" class="edge">
<title>5LAJ&#45;8&#45;&#45;HIK&#45;MC</title>
<path fill="none" stroke="black" d="M402.58,-267.85C391.83,-278.18 377.97,-291.49 367.07,-301.97"/>
</g>
<!-- 5LAJ&#45;8&#45;&#45;B9EA&#45;G -->
<g id="edge14" class="edge">
<title>5LAJ&#45;8&#45;&#45;B9EA&#45;G</title>
<path fill="none" stroke="black" d="M384.5,-242.19C377.35,-240.3 369.78,-238.3 362.51,-236.38"/>
</g>
<!-- JNG7&#45;K -->
<g id="JNG7&#45;K" class="node">
<title>JNG7&#45;K</title>
<ellipse fill="none" stroke="black" cx="513.43" cy="-209.32" rx="45" ry="18"/>
<text text-anchor="middle" x="513.43" y="-205.62" font-family="Times,serif" font-size="14.00">JNG7&#45;K</text>
</g>
<!-- 5LAJ&#45;8&#45;&#45;JNG7&#45;K -->
<g id="edge15" class="edge">
<title>5LAJ&#45;8&#45;&#45;JNG7&#45;K</title>
<path fill="none" stroke="black" d="M448.29,-238.6C459.39,-233.61 472.1,-227.89 483.33,-222.85"/>
</g>
<!-- JNG7&#45;K&#45;&#45;8&#45;SPNN -->
<g id="edge16" class="edge">
<title>JNG7&#45;K&#45;&#45;8&#45;SPNN</title>
<path fill="none" stroke="black" d="M507.91,-191.43C504.74,-181.15 500.76,-168.25 497.57,-157.94"/>
</g>
<!-- VX1&#45;HV -->
<g id="VX1&#45;HV" class="node">
<title>VX1&#45;HV</title>
<ellipse fill="none" stroke="black" cx="612.45" cy="-251.68" rx="46.29" ry="18"/>
<text text-anchor="middle" x="612.45" y="-247.98" font-family="Times,serif" font-size="14.00">VX1&#45;HV</text>
</g>
<!-- JNG7&#45;K&#45;&#45;VX1&#45;HV -->
<g id="edge17" class="edge">
<title>JNG7&#45;K&#45;&#45;VX1&#45;HV</title>
<path fill="none" stroke="black" d="M544.22,-222.49C556.03,-227.54 569.5,-233.31 581.34,-238.37"/>
</g>
<!-- C6C&#45;K9 -->
<g id="C6C&#45;K9" class="node">
<title>C6C&#45;K9</title>
<ellipse fill="none" stroke="black" cx="586.12" cy="-632.11" rx="46.29" ry="18"/>
<text text-anchor="middle" x="586.12" y="-628.41" font-family="Times,serif" font-size="14.00">C6C&#45;K9</text>
</g>
<!-- JAWX&#45;R -->
<g id="JAWX&#45;R" class="node">
<title>JAWX&#45;R</title>
<polygon fill="none" stroke="black" points="531.76,-674.9 460.76,-674.9 460.76,-638.9 531.76,-638.9 531.76,-674.9"/>
<text text-anchor="middle" x="496.26" y="-653.2" font-family="Times,serif" font-size="14.00">JAWX&#45;R</text>
</g>
<!-- C6C&#45;K9&#45;&#45;JAWX&#45;R -->
<g id="edge18" class="edge">
<title>C6C&#45;K9&#45;&#45;JAWX&#45;R</title>
<path fill="none" stroke="black" d="M548.27,-642.55C542.81,-644.06 537.19,-645.61 531.77,-647.1"/>
</g>
<!-- AL&#45;JSG -->
<g id="AL&#45;JSG" class="node">
<title>AL&#45;JSG</title>
<ellipse fill="none" stroke="black" cx="681.32" cy="-588.09" rx="43" ry="18"/>
<text text-anchor="middle" x="681.32" y="-584.39" font-family="Times,serif" font-size="14.00">AL&#45;JSG</text>
</g>
<!-- AL&#45;JSG&#45;&#45;C6C&#45;K9 -->
<g id="edge19" class="edge">
<title>AL&#45;JSG&#45;&#45;C6C&#45;K9</title>
<path fill="none" stroke="black" d="M652.24,-601.53C640.76,-606.84 627.57,-612.94 616.01,-618.29"/>
</g>
<!-- ETO&#45;OT -->
<g id="ETO&#45;OT" class="node">
<title>ETO&#45;OT</title>
<ellipse fill="none" stroke="black" cx="689.21" cy="-669.68" rx="47.5" ry="18"/>
<text text-anchor="middle" x="689.21" y="-665.98" font-family="Times,serif" font-size="14.00">ETO&#45;OT</text>
</g>
<!-- AL&#45;JSG&#45;&#45;ETO&#45;OT -->
<g id="edge20" class="edge">
<title>AL&#45;JSG&#45;&#45;ETO&#45;OT</title>
<path fill="none" stroke="black" d="M683.07,-606.19C684.38,-619.72 686.16,-638.11 687.47,-651.62"/>
</g>
<!-- KPI&#45;OW -->
<g id="KPI&#45;OW" class="node">
<title>KPI&#45;OW</title>
<ellipse fill="none" stroke="black" cx="666.21" cy="-500.05" rx="47" ry="18"/>
<text text-anchor="middle" x="666.21" y="-496.35" font-family="Times,serif" font-size="14.00">KPI&#45;OW</text>
</g>
<!-- AL&#45;JSG&#45;&#45;KPI&#45;OW -->
<g id="edge21" class="edge">
<title>AL&#45;JSG&#45;&#45;KPI&#45;OW</title>
<path fill="none" stroke="black" d="M673.92,-569.92C671.08,-562.06 668.18,-552.67 666.71,-543.91 665.31,-535.5 665.04,-526.05 665.18,-518.09"/>
</g>
<!-- T6T&#45;BQ -->
<g id="T6T&#45;BQ" class="node">
<title>T6T&#45;BQ</title>
<ellipse fill="none" stroke="black" cx="652.68" cy="-750.8" rx="44.39" ry="18"/>
<text text-anchor="middle" x="652.68" y="-747.1" font-family="Times,serif" font-size="14.00">T6T&#45;BQ</text>
</g>
<!-- ETO&#45;OT&#45;&#45;T6T&#45;BQ -->
<g id="edge22" class="edge">
<title>ETO&#45;OT&#45;&#45;T6T&#45;BQ</title>
<path fill="none" stroke="black" d="M681.11,-687.68C675.05,-701.13 666.82,-719.42 660.77,-732.85"/>
</g>
<!-- MOSA&#45;I -->
<g id="MOSA&#45;I" class="node">
<title>MOSA&#45;I</title>
<ellipse fill="none" stroke="black" cx="777.04" cy="-713.72" rx="46.29" ry="18"/>
<text text-anchor="middle" x="777.04" y="-710.02" font-family="Times,serif" font-size="14.00">MOSA&#45;I</text>
</g>
<!-- ETO&#45;OT&#45;&#45;MOSA&#45;I -->
<g id="edge23" class="edge">
<title>ETO&#45;OT&#45;&#45;MOSA&#45;I</title>
<path fill="none" stroke="black" d="M717.97,-684.1C727.78,-689.02 738.73,-694.51 748.52,-699.42"/>
</g>
<!-- OTJ&#45;4W -->
<g id="OTJ&#45;4W" class="node">
<title>OTJ&#45;4W</title>
<ellipse fill="none" stroke="black" cx="713.81" cy="-544.06" rx="45.5" ry="18"/>
<text text-anchor="middle" x="713.81" y="-540.36" font-family="Times,serif" font-size="14.00">OTJ&#45;4W</text>
</g>
<!-- KPI&#45;OW&#45;&#45;OTJ&#45;4W -->
<g id="edge24" class="edge">
<title>KPI&#45;OW&#45;&#45;OTJ&#45;4W</title>
<path fill="none" stroke="black" d="M684.2,-516.69C688,-520.2 692,-523.9 695.79,-527.4"/>
</g>
<!-- Q&#45;UVY6 -->
<g id="Q&#45;UVY6" class="node">
<title>Q&#45;UVY6</title>
<ellipse fill="none" stroke="black" cx="621.71" cy="-451.38" rx="47.5" ry="18"/>
<text text-anchor="middle" x="621.71" y="-447.68" font-family="Times,serif" font-size="14.00">Q&#45;UVY6</text>
</g>
<!-- KPI&#45;OW&#45;&#45;Q&#45;UVY6 -->
<g id="edge25" class="edge">
<title>KPI&#45;OW&#45;&#45;Q&#45;UVY6</title>
<path fill="none" stroke="black" d="M650.64,-483.03C646.33,-478.32 641.65,-473.2 637.34,-468.48"/>
</g>
<!-- Q&#45;UVY6&#45;&#45;VK6&#45;EZ -->
<g id="edge26" class="edge">
<title>Q&#45;UVY6&#45;&#45;VK6&#45;EZ</title>
<path fill="none" stroke="black" d="M620.59,-433.06C620.01,-423.59 619.31,-412.08 618.73,-402.62"/>
</g>
<!-- A&#45;J6SN -->
<g id="A&#45;J6SN" class="node">
<title>A&#45;J6SN</title>
<ellipse fill="none" stroke="black" cx="529.61" cy="-742.43" rx="43.59" ry="18"/>
<text text-anchor="middle" x="529.61" y="-738.73" font-family="Times,serif" font-size="14.00">A&#45;J6SN</text>
</g>
<!-- AG&#45;SYG -->
<g id="AG&#45;SYG" class="node">
<title>AG&#45;SYG</title>
<ellipse fill="none" stroke="black" cx="586.88" cy="-698.39" rx="47" ry="18"/>
<text text-anchor="middle" x="586.88" y="-694.69" font-family="Times,serif" font-size="14.00">AG&#45;SYG</text>
</g>
<!-- A&#45;J6SN&#45;&#45;AG&#45;SYG -->
<g id="edge27" class="edge">
<title>A&#45;J6SN&#45;&#45;AG&#45;SYG</title>
<path fill="none" stroke="black" d="M550.29,-726.53C555.28,-722.69 560.63,-718.57 565.66,-714.71"/>
</g>
<!-- AG&#45;SYG&#45;&#45;C6C&#45;K9 -->
<g id="edge28" class="edge">
<title>AG&#45;SYG&#45;&#45;C6C&#45;K9</title>
<path fill="none" stroke="black" d="M586.67,-680.28C586.56,-670.93 586.43,-659.55 586.33,-650.2"/>
</g>
<!-- AG&#45;SYG&#45;&#45;ETO&#45;OT -->
<g id="edge29" class="edge">
<title>AG&#45;SYG&#45;&#45;ETO&#45;OT</title>
<path fill="none" stroke="black" d="M624.69,-687.78C633.23,-685.39 642.31,-682.84 650.87,-680.44"/>
</g>
<!-- 1I5&#45;0V -->
<g id="1I5&#45;0V" class="node">
<title>1I5&#45;0V</title>
<ellipse fill="none" stroke="black" cx="758.64" cy="-456.01" rx="41" ry="18"/>
<text text-anchor="middle" x="758.64" y="-452.31" font-family="Times,serif" font-size="14.00">1I5&#45;0V</text>
</g>
<!-- 1I5&#45;0V&#45;&#45;KPI&#45;OW -->
<g id="edge30" class="edge">
<title>1I5&#45;0V&#45;&#45;KPI&#45;OW</title>
<path fill="none" stroke="black" d="M730.65,-469.35C719.6,-474.61 706.89,-480.67 695.7,-486"/>
</g>
<!-- P65&#45;TA -->
<g id="P65&#45;TA" class="node">
<title>P65&#45;TA</title>
<ellipse fill="none" stroke="black" cx="762.25" cy="-411.98" rx="43.59" ry="18"/>
<text text-anchor="middle" x="762.25" y="-408.28" font-family="Times,serif" font-size="14.00">P65&#45;TA</text>
</g>
<!-- 1I5&#45;0V&#45;&#45;P65&#45;TA -->
<g id="edge31" class="edge">
<title>1I5&#45;0V&#45;&#45;P65&#45;TA</title>
<path fill="none" stroke="black" d="M760.13,-437.85C760.34,-435.29 760.55,-432.66 760.76,-430.1"/>
</g>
<!-- Y4B&#45;BQ -->
<g id="Y4B&#45;BQ" class="node">
<title>Y4B&#45;BQ</title>
<ellipse fill="none" stroke="black" cx="883.19" cy="-397.62" rx="46.29" ry="18"/>
<text text-anchor="middle" x="883.19" y="-393.92" font-family="Times,serif" font-size="14.00">Y4B&#45;BQ</text>
</g>
<!-- P65&#45;TA&#45;&#45;Y4B&#45;BQ -->
<g id="edge32" class="edge">
<title>P65&#45;TA&#45;&#45;Y4B&#45;BQ</title>
<path fill="none" stroke="black" d="M804.21,-407C815.4,-405.67 827.52,-404.23 838.83,-402.89"/>
</g>
<!-- K&#45;XJJT -->
<g id="K&#45;XJJT" class="node">
<title>K&#45;XJJT</title>
<ellipse fill="none" stroke="black" cx="594.24" cy="-165.31" rx="39" ry="18"/>
<text text-anchor="middle" x="594.24" y="-161.61" font-family="Times,serif" font-size="14.00">K&#45;XJJT</text>
</g>
<!-- K&#45;XJJT&#45;&#45;VX1&#45;HV -->
<g id="edge33" class="edge">
<title>K&#45;XJJT&#45;&#45;VX1&#45;HV</title>
<path fill="none" stroke="black" d="M598.1,-183.63C601.21,-198.38 605.56,-219.02 608.65,-233.69"/>
</g>
<!-- P&#45;NI4K -->
<g id="P&#45;NI4K" class="node">
<title>P&#45;NI4K</title>
<ellipse fill="none" stroke="black" cx="573.19" cy="-83.86" rx="43.59" ry="18"/>
<text text-anchor="middle" x="573.19" y="-80.16" font-family="Times,serif" font-size="14.00">P&#45;NI4K</text>
</g>
<!-- K&#45;XJJT&#45;&#45;P&#45;NI4K -->
<g id="edge34" class="edge">
<title>K&#45;XJJT&#45;&#45;P&#45;NI4K</title>
<path fill="none" stroke="black" d="M589.57,-147.23C586.08,-133.73 581.33,-115.37 577.85,-101.88"/>
</g>
<!-- FO1U&#45;K -->
<g id="FO1U&#45;K" class="node">
<title>FO1U&#45;K</title>
<ellipse fill="none" stroke="black" cx="521.32" cy="-302.08" rx="47.5" ry="18"/>
<text text-anchor="middle" x="521.32" y="-298.38" font-family="Times,serif" font-size="14.00">FO1U&#45;K</text>
</g>
<!-- FO1U&#45;K&#45;&#45;VX1&#45;HV -->
<g id="edge35" class="edge">
<title>FO1U&#45;K&#45;&#45;VX1&#45;HV</title>
<path fill="none" stroke="black" d="M548.17,-287.23C560.03,-280.67 573.95,-272.97 585.79,-266.42"/>
</g>
<!-- 6U&#45;1RX -->
<g id="6U&#45;1RX" class="node">
<title>6U&#45;1RX</title>
<ellipse fill="none" stroke="black" cx="450.79" cy="-346.1" rx="46.29" ry="18"/>
<text text-anchor="middle" x="450.79" y="-342.4" font-family="Times,serif" font-size="14.00">6U&#45;1RX</text>
</g>
<!-- 6U&#45;1RX&#45;&#45;Y4OK&#45;W -->
<g id="edge36" class="edge">
<title>6U&#45;1RX&#45;&#45;Y4OK&#45;W</title>
<path fill="none" stroke="black" d="M425.08,-361.25C417.65,-365.63 409.53,-370.41 402.09,-374.8"/>
</g>
<!-- 6U&#45;1RX&#45;&#45;FO1U&#45;K -->
<g id="edge37" class="edge">
<title>6U&#45;1RX&#45;&#45;FO1U&#45;K</title>
<path fill="none" stroke="black" d="M475.46,-330.7C482.29,-326.44 489.71,-321.81 496.55,-317.54"/>
</g>
<!-- N&#45;PS2Y -->
<g id="N&#45;PS2Y" class="node">
<title>N&#45;PS2Y</title>
<ellipse fill="none" stroke="black" cx="619.78" cy="-802.59" rx="46.29" ry="18"/>
<text text-anchor="middle" x="619.78" y="-798.89" font-family="Times,serif" font-size="14.00">N&#45;PS2Y</text>
</g>
<!-- N&#45;PS2Y&#45;&#45;T6T&#45;BQ -->
<g id="edge38" class="edge">
<title>N&#45;PS2Y&#45;&#45;T6T&#45;BQ</title>
<path fill="none" stroke="black" d="M630.92,-785.06C634.35,-779.66 638.12,-773.71 641.55,-768.31"/>
</g>
<!-- K&#45;BBYU -->
<g id="K&#45;BBYU" class="node">
<title>K&#45;BBYU</title>
<ellipse fill="none" stroke="black" cx="612.11" cy="-846.75" rx="47" ry="18"/>
<text text-anchor="middle" x="612.11" y="-843.05" font-family="Times,serif" font-size="14.00">K&#45;BBYU</text>
</g>
<!-- K&#45;BBYU&#45;&#45;N&#45;PS2Y -->
<g id="edge39" class="edge">
<title>K&#45;BBYU&#45;&#45;N&#45;PS2Y</title>
<path fill="none" stroke="black" d="M615.23,-828.79C615.69,-826.11 616.17,-823.36 616.64,-820.68"/>
</g>
<!-- XT&#45;1E0 -->
<g id="XT&#45;1E0" class="node">
<title>XT&#45;1E0</title>
<ellipse fill="none" stroke="black" cx="677.03" cy="-931.85" rx="43.59" ry="18"/>
<text text-anchor="middle" x="677.03" y="-928.15" font-family="Times,serif" font-size="14.00">XT&#45;1E0</text>
</g>
<!-- K&#45;BBYU&#45;&#45;XT&#45;1E0 -->
<g id="edge40" class="edge">
<title>K&#45;BBYU&#45;&#45;XT&#45;1E0</title>
<path fill="none" stroke="black" d="M625.56,-864.38C636.78,-879.09 652.67,-899.92 663.82,-914.53"/>
</g>
<!-- 0J&#45;MQW -->
<g id="0J&#45;MQW" class="node">
<title>0J&#45;MQW</title>
<ellipse fill="none" stroke="black" cx="517.08" cy="-890.76" rx="48.99" ry="18"/>
<text text-anchor="middle" x="517.08" y="-887.06" font-family="Times,serif" font-size="14.00">0J&#45;MQW</text>
</g>
<!-- 0J&#45;MQW&#45;&#45;APES&#45;G -->
<g id="edge41" class="edge">
<title>0J&#45;MQW&#45;&#45;APES&#45;G</title>
<path fill="none" stroke="black" d="M521.57,-909C523.77,-917.01 526.67,-926.45 530.03,-934.7 538.99,-956.7 552.14,-980.61 561.41,-996.52"/>
</g>
<!-- 0J&#45;MQW&#45;&#45;K&#45;BBYU -->
<g id="edge42" class="edge">
<title>0J&#45;MQW&#45;&#45;K&#45;BBYU</title>
<path fill="none" stroke="black" d="M547.67,-876.59C558.63,-871.52 570.97,-865.8 581.9,-860.74"/>
</g>
<!-- 3ET&#45;G8 -->
<g id="3ET&#45;G8" class="node">
<title>3ET&#45;G8</title>
<ellipse fill="none" stroke="black" cx="575.83" cy="-934.78" rx="44.39" ry="18"/>
<text text-anchor="middle" x="575.83" y="-931.08" font-family="Times,serif" font-size="14.00">3ET&#45;G8</text>
</g>
<!-- 3ET&#45;G8&#45;&#45;K&#45;BBYU -->
<g id="edge43" class="edge">
<title>3ET&#45;G8&#45;&#45;K&#45;BBYU</title>
<path fill="none" stroke="black" d="M583.17,-916.97C589.47,-901.69 598.49,-879.8 604.78,-864.54"/>
</g>
<!-- 91&#45;KD8 -->
<g id="91&#45;KD8" class="node">
<title>91&#45;KD8</title>
<polygon fill="none" stroke="black" points="528.31,-996.81 458.31,-996.81 458.31,-960.81 528.31,-960.81 528.31,-996.81"/>
<text text-anchor="middle" x="493.31" y="-975.11" font-family="Times,serif" font-size="14.00">91&#45;KD8</text>
</g>
<!-- 3ET&#45;G8&#45;&#45;91&#45;KD8 -->
<g id="edge44" class="edge">
<title>3ET&#45;G8&#45;&#45;91&#45;KD8</title>
<path fill="none" stroke="black" d="M548.81,-949.2C541.95,-952.86 534.48,-956.84 527.32,-960.66"/>
</g>
<!-- B6&#45;XE8 -->
<g id="B6&#45;XE8" class="node">
<title>B6&#45;XE8</title>
<ellipse fill="none" stroke="black" cx="876.71" cy="-751.42" rx="45.5" ry="18"/>
<text text-anchor="middle" x="876.71" y="-747.72" font-family="Times,serif" font-size="14.00">B6&#45;XE8</text>
</g>
<!-- B6&#45;XE8&#45;&#45;MOSA&#45;I -->
<g id="edge45" class="edge">
<title>B6&#45;XE8&#45;&#45;MOSA&#45;I</title>
<path fill="none" stroke="black" d="M843.8,-738.97C833.03,-734.9 821.06,-730.37 810.26,-726.28"/>
</g>
<!-- JLH&#45;FN -->
<g id="JLH&#45;FN" class="node">
<title>JLH&#45;FN</title>
<ellipse fill="none" stroke="black" cx="911.41" cy="-811.13" rx="45" ry="18"/>
<text text-anchor="middle" x="911.41" y="-807.43" font-family="Times,serif" font-size="14.00">JLH&#45;FN</text>
</g>
<!-- B6&#45;XE8&#45;&#45;JLH&#45;FN -->
<g id="edge46" class="edge">
<title>B6&#45;XE8&#45;&#45;JLH&#45;FN</title>
<path fill="none" stroke="black" d="M886.94,-769.01C891.41,-776.72 896.66,-785.74 901.14,-793.46"/>
</g>
<!-- DFTK&#45;D -->
<g id="DFTK&#45;D" class="node">
<title>DFTK&#45;D</title>
<ellipse fill="none" stroke="black" cx="963.15" cy="-865.96" rx="47" ry="18"/>
<text text-anchor="middle" x="963.15" y="-862.26" font-family="Times,serif" font-size="14.00">DFTK&#45;D</text>
</g>
<!-- DFTK&#45;D&#45;&#45;JLH&#45;FN -->
<g id="edge47" class="edge">
<title>DFTK&#45;D&#45;&#45;JLH&#45;FN</title>
<path fill="none" stroke="black" d="M947.07,-848.91C940.78,-842.25 933.58,-834.62 927.31,-827.98"/>
</g>
<!-- L7&#45;BLT -->
<g id="L7&#45;BLT" class="node">
<title>L7&#45;BLT</title>
<ellipse fill="none" stroke="black" cx="1000.9" cy="-920.8" rx="43.59" ry="18"/>
<text text-anchor="middle" x="1000.9" y="-917.1" font-family="Times,serif" font-size="14.00">L7&#45;BLT</text>
</g>
<!-- DFTK&#45;D&#45;&#45;L7&#45;BLT -->
<g id="edge48" class="edge">
<title>DFTK&#45;D&#45;&#45;L7&#45;BLT</title>
<path fill="none" stroke="black" d="M975.31,-883.61C979.62,-889.87 984.47,-896.92 988.78,-903.18"/>
</g>
<!-- 4HF&#45;4R -->
<g id="4HF&#45;4R" class="node">
<title>4HF&#45;4R</title>
<ellipse fill="none" stroke="black" cx="976.44" cy="-717.12" rx="46.29" ry="18"/>
<text text-anchor="middle" x="976.44" y="-713.42" font-family="Times,serif" font-size="14.00">4HF&#45;4R</text>
</g>
<!-- 4HF&#45;4R&#45;&#45;B6&#45;XE8 -->
<g id="edge49" class="edge">
<title>4HF&#45;4R&#45;&#45;B6&#45;XE8</title>
<path fill="none" stroke="black" d="M941.56,-729.12C931.68,-732.52 920.92,-736.22 911.07,-739.6"/>
</g>
<!-- Y8K&#45;5B -->
<g id="Y8K&#45;5B" class="node">
<title>Y8K&#45;5B</title>
<ellipse fill="none" stroke="black" cx="1056.3" cy="-673.08" rx="44.39" ry="18"/>
<text text-anchor="middle" x="1056.3" y="-669.38" font-family="Times,serif" font-size="14.00">Y8K&#45;5B</text>
</g>
<!-- 4HF&#45;4R&#45;&#45;Y8K&#45;5B -->
<g id="edge50" class="edge">
<title>4HF&#45;4R&#45;&#45;Y8K&#45;5B</title>
<path fill="none" stroke="black" d="M1003.5,-702.21C1012,-697.52 1021.4,-692.34 1029.9,-687.67"/>
</g>
<!-- 8P&#45;LKL -->
<g id="8P&#45;LKL" class="node">
<title>8P&#45;LKL</title>
<ellipse fill="none" stroke="black" cx="715.78" cy="-293.42" rx="44.39" ry="18"/>
<text text-anchor="middle" x="715.78" y="-289.72" font-family="Times,serif" font-size="14.00">8P&#45;LKL</text>
</g>
<!-- QFU&#45;4S -->
<g id="QFU&#45;4S" class="node">
<title>QFU&#45;4S</title>
<ellipse fill="none" stroke="black" cx="713.39" cy="-246.45" rx="47" ry="18"/>
<text text-anchor="middle" x="713.39" y="-242.75" font-family="Times,serif" font-size="14.00">QFU&#45;4S</text>
</g>
<!-- 8P&#45;LKL&#45;&#45;QFU&#45;4S -->
<g id="edge51" class="edge">
<title>8P&#45;LKL&#45;&#45;QFU&#45;4S</title>
<path fill="none" stroke="black" d="M714.86,-275.39C714.69,-271.87 714.5,-268.18 714.32,-264.66"/>
</g>
<!-- QQGH&#45;G -->
<g id="QQGH&#45;G" class="node">
<title>QQGH&#45;G</title>
<ellipse fill="none" stroke="black" cx="659.48" cy="-339.73" rx="50.89" ry="18"/>
<text text-anchor="middle" x="659.48" y="-336.03" font-family="Times,serif" font-size="14.00">QQGH&#45;G</text>
</g>
<!-- 8P&#45;LKL&#45;&#45;QQGH&#45;G -->
<g id="edge52" class="edge">
<title>8P&#45;LKL&#45;&#45;QQGH&#45;G</title>
<path fill="none" stroke="black" d="M696.09,-309.61C690.76,-313.99 684.99,-318.74 679.64,-323.15"/>
</g>
<!-- JVA&#45;FE -->
<g id="JVA&#45;FE" class="node">
<title>JVA&#45;FE</title>
<ellipse fill="none" stroke="black" cx="619.1" cy="-295.69" rx="42.49" ry="18"/>
<text text-anchor="middle" x="619.1" y="-291.99" font-family="Times,serif" font-size="14.00">JVA&#45;FE</text>
</g>
<!-- 8P&#45;LKL&#45;&#45;JVA&#45;FE -->
<g id="edge53" class="edge">
<title>8P&#45;LKL&#45;&#45;JVA&#45;FE</title>
<path fill="none" stroke="black" d="M671.4,-294.46C668.12,-294.54 664.82,-294.62 661.56,-294.69"/>
</g>
<!-- QFU&#45;4S&#45;&#45;QQGH&#45;G -->
<g id="edge54" class="edge">
<title>QFU&#45;4S&#45;&#45;QQGH&#45;G</title>
<path fill="none" stroke="black" d="M694.03,-262.96C685.46,-271.25 675.98,-281.94 669.99,-293.32 665.44,-301.95 662.86,-312.48 661.39,-321.33"/>
</g>
<!-- QQGH&#45;G&#45;&#45;VK6&#45;EZ -->
<g id="edge55" class="edge">
<title>QQGH&#45;G&#45;&#45;VK6&#45;EZ</title>
<path fill="none" stroke="black" d="M643.41,-356.84C640.19,-360.28 636.79,-363.89 633.57,-367.32"/>
</g>
<!-- QQGH&#45;G&#45;&#45;VX1&#45;HV -->
<g id="edge56" class="edge">
<title>QQGH&#45;G&#45;&#45;VX1&#45;HV</title>
<path fill="none" stroke="black" d="M664.16,-321.38C665.39,-313.36 665.7,-303.95 662.94,-295.85 658.8,-283.72 648.9,-273.86 638.95,-266.56"/>
</g>
<!-- JVA&#45;FE&#45;&#45;VK6&#45;EZ -->
<g id="edge57" class="edge">
<title>JVA&#45;FE&#45;&#45;VK6&#45;EZ</title>
<path fill="none" stroke="black" d="M612.04,-313.8C609.56,-321.63 607.34,-330.98 607.19,-339.68 607.03,-348.59 609.01,-358.25 611.28,-366.29"/>
</g>
<!-- JVA&#45;FE&#45;&#45;QFU&#45;4S -->
<g id="edge58" class="edge">
<title>JVA&#45;FE&#45;&#45;QFU&#45;4S</title>
<path fill="none" stroke="black" d="M645.86,-281.71C658.28,-275.23 673.03,-267.53 685.57,-260.98"/>
</g>
<!-- RXA&#45;W1 -->
<g id="RXA&#45;W1" class="node">
<title>RXA&#45;W1</title>
<ellipse fill="none" stroke="black" cx="694.9" cy="-197.22" rx="48.19" ry="18"/>
<text text-anchor="middle" x="694.9" y="-193.52" font-family="Times,serif" font-size="14.00">RXA&#45;W1</text>
</g>
<!-- JVA&#45;FE&#45;&#45;RXA&#45;W1 -->
<g id="edge59" class="edge">
<title>JVA&#45;FE&#45;&#45;RXA&#45;W1</title>
<path fill="none" stroke="black" d="M636.27,-278.85C643.96,-270.96 652.9,-261.23 660.19,-251.83 669.28,-240.11 678.22,-225.96 684.75,-215"/>
</g>
<!-- RXA&#45;W1&#45;&#45;X1&#45;IZ0 -->
<g id="edge60" class="edge">
<title>RXA&#45;W1&#45;&#45;X1&#45;IZ0</title>
<path fill="none" stroke="black" d="M706.83,-179.45C711.77,-172.09 717.5,-163.55 722.47,-156.15"/>
</g>
<!-- D&#45;OJEZ -->
<g id="D&#45;OJEZ" class="node">
<title>D&#45;OJEZ</title>
<polygon fill="none" stroke="black" points="694.56,-139.27 625.56,-139.27 625.56,-103.27 694.56,-103.27 694.56,-139.27"/>
<text text-anchor="middle" x="660.06" y="-117.57" font-family="Times,serif" font-size="14.00">D&#45;OJEZ</text>
</g>
<!-- RXA&#45;W1&#45;&#45;D&#45;OJEZ -->
<g id="edge61" class="edge">
<title>RXA&#45;W1&#45;&#45;D&#45;OJEZ</title>
<path fill="none" stroke="black" d="M686.64,-179.22C681.13,-167.2 673.9,-151.45 668.38,-139.4"/>
</g>
<!-- G&#45;VFVB -->
<g id="G&#45;VFVB" class="node">
<title>G&#45;VFVB</title>
<ellipse fill="none" stroke="black" cx="764.59" cy="-351.39" rx="46.29" ry="18"/>
<text text-anchor="middle" x="764.59" y="-347.69" font-family="Times,serif" font-size="14.00">G&#45;VFVB</text>
</g>
<!-- G&#45;VFVB&#45;&#45;P65&#45;TA -->
<g id="edge62" class="edge">
<title>G&#45;VFVB&#45;&#45;P65&#45;TA</title>
<path fill="none" stroke="black" d="M763.89,-369.57C763.59,-377.24 763.24,-386.15 762.95,-393.81"/>
</g>
<!-- G&#45;VFVB&#45;&#45;QQGH&#45;G -->
<g id="edge63" class="edge">
<title>G&#45;VFVB&#45;&#45;QQGH&#45;G</title>
<path fill="none" stroke="black" d="M720.01,-346.44C716.1,-346.01 712.12,-345.57 708.17,-345.13"/>
</g>
<!-- K&#45;YL9T -->
<g id="K&#45;YL9T" class="node">
<title>K&#45;YL9T</title>
<ellipse fill="none" stroke="black" cx="843.96" cy="-305.22" rx="42.49" ry="18"/>
<text text-anchor="middle" x="843.96" y="-301.52" font-family="Times,serif" font-size="14.00">K&#45;YL9T</text>
</g>
<!-- G&#45;VFVB&#45;&#45;K&#45;YL9T -->
<g id="edge64" class="edge">
<title>G&#45;VFVB&#45;&#45;K&#45;YL9T</title>
<path fill="none" stroke="black" d="M790.58,-336.27C799.71,-330.96 809.95,-325 818.99,-319.74"/>
</g>
<!-- K&#45;YL9T&#45;&#45;Y4B&#45;BQ -->
<g id="edge65" class="edge">
<title>K&#45;YL9T&#45;&#45;Y4B&#45;BQ</title>
<path fill="none" stroke="black" d="M851.52,-323.03C858.47,-339.39 868.71,-363.51 875.65,-379.86"/>
</g>
<!-- JUE&#45;DX -->
<g id="JUE&#45;DX" class="node">
<title>JUE&#45;DX</title>
<polygon fill="none" stroke="black" points="838.24,-279.21 768.24,-279.21 768.24,-243.21 838.24,-243.21 838.24,-279.21"/>
<text text-anchor="middle" x="803.24" y="-257.51" font-family="Times,serif" font-size="14.00">JUE&#45;DX</text>
</g>
<!-- K&#45;YL9T&#45;&#45;JUE&#45;DX -->
<g id="edge66" class="edge">
<title>K&#45;YL9T&#45;&#45;JUE&#45;DX</title>
<path fill="none" stroke="black" d="M828.33,-288.33C825.64,-285.42 822.84,-282.39 820.11,-279.44"/>
</g>
<!-- EU&#45;WFW -->
<g id="EU&#45;WFW" class="node">
<title>EU&#45;WFW</title>
<ellipse fill="none" stroke="black" cx="940.76" cy="-349.23" rx="52" ry="18"/>
<text text-anchor="middle" x="940.76" y="-345.53" font-family="Times,serif" font-size="14.00">EU&#45;WFW</text>
</g>
<!-- EU&#45;WFW&#45;&#45;Y4B&#45;BQ -->
<g id="edge67" class="edge">
<title>EU&#45;WFW&#45;&#45;Y4B&#45;BQ</title>
<path fill="none" stroke="black" d="M920.95,-365.88C915.09,-370.8 908.69,-376.19 902.84,-381.1"/>
</g>
<!-- EU&#45;WFW&#45;&#45;K&#45;YL9T -->
<g id="edge68" class="edge">
<title>EU&#45;WFW&#45;&#45;K&#45;YL9T</title>
<path fill="none" stroke="black" d="M909.06,-334.82C897.49,-329.55 884.45,-323.63 873.11,-318.47"/>
</g>
<!-- GTB&#45;O4 -->
<g id="GTB&#45;O4" class="node">
<title>GTB&#45;O4</title>
<ellipse fill="none" stroke="black" cx="974.39" cy="-267.75" rx="47" ry="18"/>
<text text-anchor="middle" x="974.39" y="-264.05" font-family="Times,serif" font-size="14.00">GTB&#45;O4</text>
</g>
<!-- EU&#45;WFW&#45;&#45;GTB&#45;O4 -->
<g id="edge69" class="edge">
<title>EU&#45;WFW&#45;&#45;GTB&#45;O4</title>
<path fill="none" stroke="black" d="M948.22,-331.15C953.8,-317.64 961.38,-299.27 966.95,-285.78"/>
</g>
<!-- E&#45;WMT7 -->
<g id="E&#45;WMT7" class="node">
<title>E&#45;WMT7</title>
<polygon fill="none" stroke="black" points="1077.9,-340.01 1000.9,-340.01 1000.9,-304.01 1077.9,-304.01 1077.9,-340.01"/>
<text text-anchor="middle" x="1039.4" y="-318.31" font-family="Times,serif" font-size="14.00">E&#45;WMT7</text>
</g>
<!-- EU&#45;WFW&#45;&#45;E&#45;WMT7 -->
<g id="edge70" class="edge">
<title>EU&#45;WFW&#45;&#45;E&#45;WMT7</title>
<path fill="none" stroke="black" d="M981.45,-338C987.82,-336.25 994.38,-334.43 1000.7,-332.69"/>
</g>
<!-- PA&#45;ALN -->
<g id="PA&#45;ALN" class="node">
<title>PA&#45;ALN</title>
<polygon fill="none" stroke="black" points="1029.51,-411.24 959.51,-411.24 959.51,-375.24 1029.51,-375.24 1029.51,-411.24"/>
<text text-anchor="middle" x="994.51" y="-389.54" font-family="Times,serif" font-size="14.00">PA&#45;ALN</text>
</g>
<!-- EU&#45;WFW&#45;&#45;PA&#45;ALN -->
<g id="edge71" class="edge">
<title>EU&#45;WFW&#45;&#45;PA&#45;ALN</title>
<path fill="none" stroke="black" d="M961.08,-365.87C964.77,-368.89 968.63,-372.05 972.36,-375.11"/>
</g>
<!-- 6W&#45;6O9 -->
<g id="6W&#45;6O9" class="node">
<title>6W&#45;6O9</title>
<ellipse fill="none" stroke="black" cx="886.86" cy="-217.17" rx="47.5" ry="18"/>
<text text-anchor="middle" x="886.86" y="-213.47" font-family="Times,serif" font-size="14.00">6W&#45;6O9</text>
</g>
<!-- 6W&#45;6O9&#45;&#45;K&#45;YL9T -->
<g id="edge72" class="edge">
<title>6W&#45;6O9&#45;&#45;K&#45;YL9T</title>
<path fill="none" stroke="black" d="M878.18,-234.99C870.74,-250.26 860.07,-272.16 852.63,-287.42"/>
</g>
<!-- H4X&#45;0I -->
<g id="H4X&#45;0I" class="node">
<title>H4X&#45;0I</title>
<ellipse fill="none" stroke="black" cx="907.16" cy="-173.14" rx="43" ry="18"/>
<text text-anchor="middle" x="907.16" y="-169.44" font-family="Times,serif" font-size="14.00">H4X&#45;0I</text>
</g>
<!-- 6W&#45;6O9&#45;&#45;H4X&#45;0I -->
<g id="edge73" class="edge">
<title>6W&#45;6O9&#45;&#45;H4X&#45;0I</title>
<path fill="none" stroke="black" d="M895.12,-199.26C896.39,-196.5 897.71,-193.65 898.98,-190.89"/>
</g>
<!-- R&#45;RE2B -->
<g id="R&#45;RE2B" class="node">
<title>R&#45;RE2B</title>
<ellipse fill="none" stroke="black" cx="1004.9" cy="-151.58" rx="47" ry="18"/>
<text text-anchor="middle" x="1004.9" y="-147.88" font-family="Times,serif" font-size="14.00">R&#45;RE2B</text>
</g>
<!-- H4X&#45;0I&#45;&#45;R&#45;RE2B -->
<g id="edge74" class="edge">
<title>H4X&#45;0I&#45;&#45;R&#45;RE2B</title>
<path fill="none" stroke="black" d="M945.24,-164.74C951.46,-163.37 957.92,-161.94 964.2,-160.56"/>
</g>
<!-- C&#45;BHDN -->
<g id="C&#45;BHDN" class="node">
<title>C&#45;BHDN</title>
<ellipse fill="none" stroke="black" cx="955.57" cy="-107.55" rx="50.09" ry="18"/>
<text text-anchor="middle" x="955.57" y="-103.85" font-family="Times,serif" font-size="14.00">C&#45;BHDN</text>
</g>
<!-- C&#45;BHDN&#45;&#45;H4X&#45;0I -->
<g id="edge75" class="edge">
<title>C&#45;BHDN&#45;&#45;H4X&#45;0I</title>
<path fill="none" stroke="black" d="M942.6,-125.12C935.65,-134.53 927.12,-146.09 920.17,-155.51"/>
</g>
<!-- C&#45;BHDN&#45;&#45;R&#45;RE2B -->
<g id="edge76" class="edge">
<title>C&#45;BHDN&#45;&#45;R&#45;RE2B</title>
<path fill="none" stroke="black" d="M974.51,-124.45C978.32,-127.84 982.31,-131.41 986.11,-134.8"/>
</g>
<!-- 4DH&#45;ST -->
<g id="4DH&#45;ST" class="node">
<title>4DH&#45;ST</title>
<ellipse fill="none" stroke="black" cx="998.84" cy="-62.03" rx="47" ry="18"/>
<text text-anchor="middle" x="998.84" y="-58.33" font-family="Times,serif" font-size="14.00">4DH&#45;ST</text>
</g>
<!-- 4DH&#45;ST&#45;&#45;C&#45;BHDN -->
<g id="edge77" class="edge">
<title>4DH&#45;ST&#45;&#45;C&#45;BHDN</title>
<path fill="none" stroke="black" d="M982.73,-78.98C979.17,-82.72 975.4,-86.69 971.84,-90.43"/>
</g>
<!-- OSW&#45;0P -->
<g id="OSW&#45;0P" class="node">
<title>OSW&#45;0P</title>
<ellipse fill="none" stroke="black" cx="1052" cy="-18" rx="48.19" ry="18"/>
<text text-anchor="middle" x="1052" y="-14.3" font-family="Times,serif" font-size="14.00">OSW&#45;0P</text>
</g>
<!-- 4DH&#45;ST&#45;&#45;OSW&#45;0P -->
<g id="edge78" class="edge">
<title>4DH&#45;ST&#45;&#45;OSW&#45;0P</title>
<path fill="none" stroke="black" d="M1018.7,-45.63C1023,-42.02 1027.7,-38.18 1032,-34.55"/>
</g>
<!-- DVN6&#45;0 -->
<g id="DVN6&#45;0" class="node">
<title>DVN6&#45;0</title>
<ellipse fill="none" stroke="black" cx="301.79" cy="-113.73" rx="47" ry="18"/>
<text text-anchor="middle" x="301.79" y="-110.03" font-family="Times,serif" font-size="14.00">DVN6&#45;0</text>
</g>
<!-- DVN6&#45;0&#45;&#45;8OYE&#45;Z -->
<g id="edge81" class="edge">
<title>DVN6&#45;0&#45;&#45;8OYE&#45;Z</title>
<path fill="none" stroke="black" d="M306.99,-95.48C311.3,-80.37 317.39,-59 321.69,-43.9"/>
</g>
<!-- DVN6&#45;0&#45;&#45;GF&#45;GR7 -->
<g id="edge82" class="edge">
<title>DVN6&#45;0&#45;&#45;GF&#45;GR7</title>
<path fill="none" stroke="black" d="M310.79,-131.7C315.78,-141.67 321.97,-154.04 326.97,-164.04"/>
</g>
<!-- U1&#45;VHY -->
<g id="U1&#45;VHY" class="node">
<title>U1&#45;VHY</title>
<ellipse fill="none" stroke="black" cx="242.07" cy="-69.7" rx="47" ry="18"/>
<text text-anchor="middle" x="242.07" y="-66" font-family="Times,serif" font-size="14.00">U1&#45;VHY</text>
</g>
<!-- DVN6&#45;0&#45;&#45;U1&#45;VHY -->
<g id="edge83" class="edge">
<title>DVN6&#45;0&#45;&#45;U1&#45;VHY</title>
<path fill="none" stroke="black" d="M279.89,-97.58C274.7,-93.76 269.16,-89.67 263.96,-85.84"/>
</g>
<!-- OTJ9&#45;E -->
<g id="OTJ9&#45;E" class="node">
<title>OTJ9&#45;E</title>
<ellipse fill="none" stroke="black" cx="1373.7" cy="-1143.4" rx="43" ry="18"/>
<text text-anchor="middle" x="1373.7" y="-1139.7" font-family="Times,serif" font-size="14.00">OTJ9&#45;E</text>
</g>
<!-- S&#45;CUEA -->
<g id="S&#45;CUEA" class="node">
<title>S&#45;CUEA</title>
<ellipse fill="none" stroke="black" cx="1555.4" cy="-1143.4" rx="48.19" ry="18"/>
<text text-anchor="middle" x="1555.4" y="-1139.7" font-family="Times,serif" font-size="14.00">S&#45;CUEA</text>
</g>
<!-- OTJ9&#45;E&#45;&#45;S&#45;CUEA -->
<g id="edge84" class="edge">
<title>OTJ9&#45;E&#45;&#45;S&#45;CUEA</title>
<path fill="none" stroke="black" d="M1416.7,-1143.4C1443.9,-1143.4 1479.1,-1143.4 1507.2,-1143.4"/>
</g>
<!-- F&#45;5WYK -->
<g id="F&#45;5WYK" class="node">
<title>F&#45;5WYK</title>
<polygon fill="none" stroke="black" points="1422.2,-1338.1 1349.2,-1338.1 1349.2,-1302.1 1422.2,-1302.1 1422.2,-1338.1"/>
<text text-anchor="middle" x="1385.7" y="-1316.4" font-family="Times,serif" font-size="14.00">F&#45;5WYK</text>
</g>
<!-- OTJ9&#45;E&#45;&#45;F&#45;5WYK -->
<g id="edge85" class="edge">
<title>OTJ9&#45;E&#45;&#45;F&#45;5WYK</title>
<path fill="none" stroke="black" d="M1374.9,-1161.7C1377.2,-1195.6 1382.2,-1268.1 1384.5,-1302"/>
</g>
<!-- LH&#45;LY1 -->
<g id="LH&#45;LY1" class="node">
<title>LH&#45;LY1</title>
<ellipse fill="none" stroke="black" cx="1385.7" cy="-1000.3" rx="44.39" ry="18"/>
<text text-anchor="middle" x="1385.7" y="-996.6" font-family="Times,serif" font-size="14.00">LH&#45;LY1</text>
</g>
<!-- LH&#45;LY1&#45;&#45;OTJ9&#45;E -->
<g id="edge86" class="edge">
<title>LH&#45;LY1&#45;&#45;OTJ9&#45;E</title>
<path fill="none" stroke="black" d="M1384.2,-1018.4C1381.9,-1045.8 1377.6,-1097.4 1375.2,-1125"/>
</g>
<!-- 7&#45;QOYS -->
<g id="7&#45;QOYS" class="node">
<title>7&#45;QOYS</title>
<ellipse fill="none" stroke="black" cx="1221.2" cy="-1090.6" rx="46.29" ry="18"/>
<text text-anchor="middle" x="1221.2" y="-1086.9" font-family="Times,serif" font-size="14.00">7&#45;QOYS</text>
</g>
<!-- 7&#45;QOYS&#45;&#45;OTJ9&#45;E -->
<g id="edge87" class="edge">
<title>7&#45;QOYS&#45;&#45;OTJ9&#45;E</title>
<path fill="none" stroke="black" d="M1255.8,-1102.6C1281.2,-1111.4 1315.5,-1123.3 1340.5,-1131.9"/>
</g>
<!-- 7&#45;QOYS&#45;&#45;LH&#45;LY1 -->
<g id="edge88" class="edge">
<title>7&#45;QOYS&#45;&#45;LH&#45;LY1</title>
<path fill="none" stroke="black" d="M1248,-1075.9C1278.7,-1059 1328.6,-1031.6 1359.2,-1014.8"/>
</g>
<!-- KS8G&#45;M -->
<g id="KS8G&#45;M" class="node">
<title>KS8G&#45;M</title>
<ellipse fill="none" stroke="black" cx="1284.1" cy="-968" rx="49.5" ry="18"/>
<text text-anchor="middle" x="1284.1" y="-964.3" font-family="Times,serif" font-size="14.00">KS8G&#45;M</text>
</g>
<!-- 7&#45;QOYS&#45;&#45;KS8G&#45;M -->
<g id="edge89" class="edge">
<title>7&#45;QOYS&#45;&#45;KS8G&#45;M</title>
<path fill="none" stroke="black" d="M1230.4,-1072.8C1242.3,-1049.5 1263,-1009.1 1274.9,-985.85"/>
</g>
<!-- ZWM&#45;BB -->
<g id="ZWM&#45;BB" class="node">
<title>ZWM&#45;BB</title>
<ellipse fill="none" stroke="black" cx="1050.3" cy="-1092.1" rx="52" ry="18"/>
<text text-anchor="middle" x="1050.3" y="-1088.4" font-family="Times,serif" font-size="14.00">ZWM&#45;BB</text>
</g>
<!-- 7&#45;QOYS&#45;&#45;ZWM&#45;BB -->
<g id="edge90" class="edge">
<title>7&#45;QOYS&#45;&#45;ZWM&#45;BB</title>
<path fill="none" stroke="black" d="M1174.9,-1091C1152.5,-1091.2 1125.4,-1091.4 1102.3,-1091.6"/>
</g>
<!-- KS8G&#45;M&#45;&#45;OTJ9&#45;E -->
<g id="edge91" class="edge">
<title>KS8G&#45;M&#45;&#45;OTJ9&#45;E</title>
<path fill="none" stroke="black" d="M1293.2,-985.79C1310.4,-1019.4 1347.4,-1091.9 1364.6,-1125.6"/>
</g>
<!-- KS8G&#45;M&#45;&#45;LH&#45;LY1 -->
<g id="edge92" class="edge">
<title>KS8G&#45;M&#45;&#45;LH&#45;LY1</title>
<path fill="none" stroke="black" d="M1321.3,-979.83C1331,-982.89 1341.3,-986.17 1350.8,-989.19"/>
</g>
<!-- L1YK&#45;V -->
<g id="L1YK&#45;V" class="node">
<title>L1YK&#45;V</title>
<polygon fill="none" stroke="black" points="922,-1086.3 855,-1086.3 855,-1050.3 922,-1050.3 922,-1086.3"/>
<text text-anchor="middle" x="888.5" y="-1064.6" font-family="Times,serif" font-size="14.00">L1YK&#45;V</text>
</g>
<!-- ZWM&#45;BB&#45;&#45;L1YK&#45;V -->
<g id="edge93" class="edge">
<title>ZWM&#45;BB&#45;&#45;L1YK&#45;V</title>
<path fill="none" stroke="black" d="M1002.2,-1085C976.36,-1081.2 945.21,-1076.6 922.05,-1073.2"/>
</g>
<!-- L&#45;EUY2 -->
<g id="L&#45;EUY2" class="node">
<title>L&#45;EUY2</title>
<ellipse fill="none" stroke="black" cx="952.8" cy="-445.76" rx="46.29" ry="18"/>
<text text-anchor="middle" x="952.8" y="-442.06" font-family="Times,serif" font-size="14.00">L&#45;EUY2</text>
</g>
<!-- L&#45;EUY2&#45;&#45;Y4B&#45;BQ -->
<g id="edge94" class="edge">
<title>L&#45;EUY2&#45;&#45;Y4B&#45;BQ</title>
<path fill="none" stroke="black" d="M930,-430C922.39,-424.73 913.9,-418.86 906.27,-413.58"/>
</g>
<!-- L&#45;EUY2&#45;&#45;PA&#45;ALN -->
<g id="edge95" class="edge">
<title>L&#45;EUY2&#45;&#45;PA&#45;ALN</title>
<path fill="none" stroke="black" d="M966.45,-428.56C970.83,-423.06 975.68,-416.95 980.1,-411.38"/>
</g>
<!-- X&#45;KHRZ -->
<g id="X&#45;KHRZ" class="node">
<title>X&#45;KHRZ</title>
<ellipse fill="none" stroke="black" cx="998.82" cy="-489.77" rx="48.19" ry="18"/>
<text text-anchor="middle" x="998.82" y="-486.07" font-family="Times,serif" font-size="14.00">X&#45;KHRZ</text>
</g>
<!-- L&#45;EUY2&#45;&#45;X&#45;KHRZ -->
<g id="edge96" class="edge">
<title>L&#45;EUY2&#45;&#45;X&#45;KHRZ</title>
<path fill="none" stroke="black" d="M970.46,-462.65C974.01,-466.04 977.74,-469.61 981.28,-473"/>
</g>
<!-- JL&#45;ZUQ -->
<g id="JL&#45;ZUQ" class="node">
<title>JL&#45;ZUQ</title>
<ellipse fill="none" stroke="black" cx="1077.1" cy="-437.27" rx="44.39" ry="18"/>
<text text-anchor="middle" x="1077.1" y="-433.57" font-family="Times,serif" font-size="14.00">JL&#45;ZUQ</text>
</g>
<!-- JL&#45;ZUQ&#45;&#45;L&#45;EUY2 -->
<g id="edge97" class="edge">
<title>JL&#45;ZUQ&#45;&#45;L&#45;EUY2</title>
<path fill="none" stroke="black" d="M1033.2,-440.26C1021.9,-441.04 1009.7,-441.87 998.31,-442.65"/>
</g>
<!-- WIW&#45;X8 -->
<g id="WIW&#45;X8" class="node">
<title>WIW&#45;X8</title>
<ellipse fill="none" stroke="black" cx="1008.4" cy="-533.79" rx="47.5" ry="18"/>
<text text-anchor="middle" x="1008.4" y="-530.09" font-family="Times,serif" font-size="14.00">WIW&#45;X8</text>
</g>
<!-- WIW&#45;X8&#45;&#45;X&#45;KHRZ -->
<g id="edge98" class="edge">
<title>WIW&#45;X8&#45;&#45;X&#45;KHRZ</title>
<path fill="none" stroke="black" d="M1004.4,-515.63C1003.9,-513.07 1003.3,-510.44 1002.8,-507.89"/>
</g>
<!-- QRH&#45;BF -->
<g id="QRH&#45;BF" class="node">
<title>QRH&#45;BF</title>
<ellipse fill="none" stroke="black" cx="1075" cy="-577.8" rx="48.99" ry="18"/>
<text text-anchor="middle" x="1075" y="-574.1" font-family="Times,serif" font-size="14.00">QRH&#45;BF</text>
</g>
<!-- QRH&#45;BF&#45;&#45;WIW&#45;X8 -->
<g id="edge99" class="edge">
<title>QRH&#45;BF&#45;&#45;WIW&#45;X8</title>
<path fill="none" stroke="black" d="M1050.9,-561.91C1044.8,-557.87 1038.3,-553.54 1032.2,-549.51"/>
</g>
<!-- M&#45;NP5O -->
<g id="M&#45;NP5O" class="node">
<title>M&#45;NP5O</title>
<ellipse fill="none" stroke="black" cx="1013.9" cy="-621.81" rx="50.09" ry="18"/>
<text text-anchor="middle" x="1013.9" y="-618.11" font-family="Times,serif" font-size="14.00">M&#45;NP5O</text>
</g>
<!-- M&#45;NP5O&#45;&#45;Y8K&#45;5B -->
<g id="edge100" class="edge">
<title>M&#45;NP5O&#45;&#45;Y8K&#45;5B</title>
<path fill="none" stroke="black" d="M1028.3,-639.17C1032.7,-644.51 1037.6,-650.39 1042,-655.74"/>
</g>
<!-- M&#45;NP5O&#45;&#45;WIW&#45;X8 -->
<g id="edge101" class="edge">
<title>M&#45;NP5O&#45;&#45;WIW&#45;X8</title>
<path fill="none" stroke="black" d="M1012.8,-603.57C1011.8,-588.46 1010.5,-567.1 1009.5,-552"/>
</g>
<!-- M&#45;NP5O&#45;&#45;QRH&#45;BF -->
<g id="edge102" class="edge">
<title>M&#45;NP5O&#45;&#45;QRH&#45;BF</title>
<path fill="none" stroke="black" d="M1036.3,-605.67C1041.6,-601.85 1047.3,-597.76 1052.6,-593.94"/>
</g>
</g>
</svg>
