<?xml version="1.0" encoding="UTF-8" standalone="no"?>
<!DOCTYPE svg PUBLIC "-//W3C//DTD SVG 1.1//EN"
 "http://www.w3.org/Graphics/SVG/1.1/DTD/svg11.dtd">
<!-- Generated by graphviz version 2.43.0 (0)
 -->
<!-- Pages: 1 -->
<svg width="1181pt" height="995pt"
 viewBox="0.00 0.00 1180.65 995.33" xmlns="http://www.w3.org/2000/svg" xmlns:xlink="http://www.w3.org/1999/xlink">
<g id="graph0" class="graph" transform="scale(1 1) rotate(0) translate(4 991.33)">
<polygon fill="white" stroke="transparent" points="-4,4 -4,-991.33 1176.65,-991.33 1176.65,4 -4,4"/>
<!-- Agaullores -->
<g id="Agaullores" class="node">
<title>Agaullores</title>
<polygon fill="none" stroke="black" points="303.61,-450.62 211.61,-450.62 211.61,-414.62 303.61,-414.62 303.61,-450.62"/>
<text text-anchor="middle" x="257.61" y="-428.92" font-family="Times,serif" font-size="14.00">Agaullores</text>
</g>
<!-- Rafeme -->
<g id="Rafeme" class="node">
<title>Rafeme</title>
<polygon fill="none" stroke="black" points="225.07,-856.16 154.07,-856.16 154.07,-820.16 225.07,-820.16 225.07,-856.16"/>
<text text-anchor="middle" x="189.57" y="-834.46" font-family="Times,serif" font-size="14.00">Rafeme</text>
</g>
<!-- Van -->
<g id="Van" class="node">
<title>Van</title>
<ellipse fill="none" stroke="black" cx="147.56" cy="-338.97" rx="28" ry="18"/>
<text text-anchor="middle" x="147.56" y="-335.27" font-family="Times,serif" font-size="14.00">Van</text>
</g>
<!-- Zayi -->
<g id="Zayi" class="node">
<title>Zayi</title>
<ellipse fill="none" stroke="black" cx="214.18" cy="-338.96" rx="30.59" ry="18"/>
<text text-anchor="middle" x="214.18" y="-335.26" font-family="Times,serif" font-size="14.00">Zayi</text>
</g>
<!-- Van&#45;&#45;Zayi -->
<g id="edge1" class="edge">
<title>Van&#45;&#45;Zayi</title>
<path fill="none" stroke="black" d="M175.81,-338.97C178.37,-338.97 180.96,-338.97 183.53,-338.96"/>
</g>
<!-- Otakod -->
<g id="Otakod" class="node">
<title>Otakod</title>
<polygon fill="none" stroke="black" points="114.33,-257.57 46.33,-257.57 46.33,-221.57 114.33,-221.57 114.33,-257.57"/>
<text text-anchor="middle" x="80.33" y="-235.87" font-family="Times,serif" font-size="14.00">Otakod</text>
</g>
<!-- Van&#45;&#45;Otakod -->
<g id="edge2" class="edge">
<title>Van&#45;&#45;Otakod</title>
<path fill="none" stroke="black" d="M127.63,-326.31C116.85,-318.49 104.18,-307.54 96.32,-294.87 92.44,-288.63 87.74,-271.33 84.45,-257.72"/>
</g>
<!-- Shakasi -->
<g id="Shakasi" class="node">
<title>Shakasi</title>
<ellipse fill="none" stroke="black" cx="64.72" cy="-356.77" rx="47" ry="18"/>
<text text-anchor="middle" x="64.72" y="-353.07" font-family="Times,serif" font-size="14.00">Shakasi</text>
</g>
<!-- Shakasi&#45;&#45;Van -->
<g id="edge3" class="edge">
<title>Shakasi&#45;&#45;Van</title>
<path fill="none" stroke="black" d="M105.65,-347.98C110.87,-346.86 116.1,-345.73 121,-344.68"/>
</g>
<!-- Shirshocin -->
<g id="Shirshocin" class="node">
<title>Shirshocin</title>
<ellipse fill="none" stroke="black" cx="251.4" cy="-382.98" rx="60" ry="18"/>
<text text-anchor="middle" x="251.4" y="-379.28" font-family="Times,serif" font-size="14.00">Shirshocin</text>
</g>
<!-- Shirshocin&#45;&#45;Agaullores -->
<g id="edge4" class="edge">
<title>Shirshocin&#45;&#45;Agaullores</title>
<path fill="none" stroke="black" d="M253.67,-401.18C254.21,-405.5 254.79,-410.1 255.33,-414.42"/>
</g>
<!-- Shirshocin&#45;&#45;Zayi -->
<g id="edge5" class="edge">
<title>Shirshocin&#45;&#45;Zayi</title>
<path fill="none" stroke="black" d="M236.47,-365.33C233.64,-361.98 230.69,-358.49 227.9,-355.19"/>
</g>
<!-- Yehaba -->
<g id="Yehaba" class="node">
<title>Yehaba</title>
<ellipse fill="none" stroke="black" cx="363.46" cy="-390.52" rx="44.39" ry="18"/>
<text text-anchor="middle" x="363.46" y="-386.82" font-family="Times,serif" font-size="14.00">Yehaba</text>
</g>
<!-- Shirshocin&#45;&#45;Yehaba -->
<g id="edge6" class="edge">
<title>Shirshocin&#45;&#45;Yehaba</title>
<path fill="none" stroke="black" d="M310.05,-386.93C313.34,-387.15 316.61,-387.37 319.82,-387.58"/>
</g>
<!-- Maalna -->
<g id="Maalna" class="node">
<title>Maalna</title>
<ellipse fill="none" stroke="black" cx="45" cy="-284.18" rx="45" ry="18"/>
<text text-anchor="middle" x="45" y="-280.48" font-family="Times,serif" font-size="14.00">Maalna</text>
</g>
<!-- Maalna&#45;&#45;Shakasi -->
<g id="edge7" class="edge">
<title>Maalna&#45;&#45;Shakasi</title>
<path fill="none" stroke="black" d="M49.87,-302.12C52.91,-313.29 56.8,-327.61 59.83,-338.78"/>
</g>
<!-- Maseera -->
<g id="Maseera" class="node">
<title>Maseera</title>
<ellipse fill="none" stroke="black" cx="148.61" cy="-294.94" rx="50.89" ry="18"/>
<text text-anchor="middle" x="148.61" y="-291.24" font-family="Times,serif" font-size="14.00">Maseera</text>
</g>
<!-- Maalna&#45;&#45;Maseera -->
<g id="edge8" class="edge">
<title>Maalna&#45;&#45;Maseera</title>
<path fill="none" stroke="black" d="M88.64,-288.71C92.29,-289.09 96,-289.48 99.68,-289.86"/>
</g>
<!-- Maseera&#45;&#45;Zayi -->
<g id="edge9" class="edge">
<title>Maseera&#45;&#45;Zayi</title>
<path fill="none" stroke="black" d="M172.65,-311.08C179.67,-315.79 187.26,-320.89 194.02,-325.42"/>
</g>
<!-- Maseera&#45;&#45;Shakasi -->
<g id="edge10" class="edge">
<title>Maseera&#45;&#45;Shakasi</title>
<path fill="none" stroke="black" d="M126.56,-311.19C114.23,-320.28 98.92,-331.57 86.61,-340.64"/>
</g>
<!-- Kenahehab -->
<g id="Kenahehab" class="node">
<title>Kenahehab</title>
<ellipse fill="none" stroke="black" cx="340.78" cy="-334.49" rx="61.99" ry="18"/>
<text text-anchor="middle" x="340.78" y="-330.79" font-family="Times,serif" font-size="14.00">Kenahehab</text>
</g>
<!-- Kenahehab&#45;&#45;Yehaba -->
<g id="edge11" class="edge">
<title>Kenahehab&#45;&#45;Yehaba</title>
<path fill="none" stroke="black" d="M348.08,-352.52C350.67,-358.92 353.58,-366.12 356.17,-372.52"/>
</g>
<!-- Gens -->
<g id="Gens" class="node">
<title>Gens</title>
<ellipse fill="none" stroke="black" cx="450.21" cy="-369.17" rx="34.5" ry="18"/>
<text text-anchor="middle" x="450.21" y="-365.47" font-family="Times,serif" font-size="14.00">Gens</text>
</g>
<!-- Gens&#45;&#45;Yehaba -->
<g id="edge12" class="edge">
<title>Gens&#45;&#45;Yehaba</title>
<path fill="none" stroke="black" d="M418.89,-376.88C413.26,-378.26 407.34,-379.72 401.54,-381.15"/>
</g>
<!-- Gens&#45;&#45;Kenahehab -->
<g id="edge13" class="edge">
<title>Gens&#45;&#45;Kenahehab</title>
<path fill="none" stroke="black" d="M420.6,-359.78C408.95,-356.09 395.36,-351.78 382.74,-347.78"/>
</g>
<!-- Kamih -->
<g id="Kamih" class="node">
<title>Kamih</title>
<ellipse fill="none" stroke="black" cx="531.24" cy="-300.6" rx="40.5" ry="18"/>
<text text-anchor="middle" x="531.24" y="-296.9" font-family="Times,serif" font-size="14.00">Kamih</text>
</g>
<!-- Gens&#45;&#45;Kamih -->
<g id="edge14" class="edge">
<title>Gens&#45;&#45;Kamih</title>
<path fill="none" stroke="black" d="M468.6,-353.61C481.67,-342.55 499.18,-327.73 512.36,-316.58"/>
</g>
<!-- Hier -->
<g id="Hier" class="node">
<title>Hier</title>
<ellipse fill="none" stroke="black" cx="570.15" cy="-344.64" rx="31.4" ry="18"/>
<text text-anchor="middle" x="570.15" y="-340.94" font-family="Times,serif" font-size="14.00">Hier</text>
</g>
<!-- Hier&#45;&#45;Kamih -->
<g id="edge15" class="edge">
<title>Hier&#45;&#45;Kamih</title>
<path fill="none" stroke="black" d="M555.88,-328.49C552.76,-324.96 549.44,-321.21 546.29,-317.64"/>
</g>
<!-- Sadana -->
<g id="Sadana" class="node">
<title>Sadana</title>
<ellipse fill="none" stroke="black" cx="638.6" cy="-300.6" rx="45" ry="18"/>
<text text-anchor="middle" x="638.6" y="-296.9" font-family="Times,serif" font-size="14.00">Sadana</text>
</g>
<!-- Hier&#45;&#45;Sadana -->
<g id="edge16" class="edge">
<title>Hier&#45;&#45;Sadana</title>
<path fill="none" stroke="black" d="M591.06,-331.19C598.45,-326.43 606.82,-321.04 614.46,-316.13"/>
</g>
<!-- Nema -->
<g id="Nema" class="node">
<title>Nema</title>
<ellipse fill="none" stroke="black" cx="531.12" cy="-388.65" rx="38.5" ry="18"/>
<text text-anchor="middle" x="531.12" y="-384.95" font-family="Times,serif" font-size="14.00">Nema</text>
</g>
<!-- Hier&#45;&#45;Nema -->
<g id="edge17" class="edge">
<title>Hier&#45;&#45;Nema</title>
<path fill="none" stroke="black" d="M555.84,-360.78C552.62,-364.41 549.2,-368.27 545.95,-371.92"/>
</g>
<!-- Shenda -->
<g id="Shenda" class="node">
<title>Shenda</title>
<ellipse fill="none" stroke="black" cx="532.92" cy="-453.76" rx="45.5" ry="18"/>
<text text-anchor="middle" x="532.92" y="-450.06" font-family="Times,serif" font-size="14.00">Shenda</text>
</g>
<!-- Nema&#45;&#45;Shenda -->
<g id="edge18" class="edge">
<title>Nema&#45;&#45;Shenda</title>
<path fill="none" stroke="black" d="M531.62,-406.78C531.87,-415.81 532.17,-426.7 532.42,-435.72"/>
</g>
<!-- Sota -->
<g id="Sota" class="node">
<title>Sota</title>
<ellipse fill="none" stroke="black" cx="447.51" cy="-424.07" rx="32" ry="18"/>
<text text-anchor="middle" x="447.51" y="-420.37" font-family="Times,serif" font-size="14.00">Sota</text>
</g>
<!-- Nema&#45;&#45;Sota -->
<g id="edge19" class="edge">
<title>Nema&#45;&#45;Sota</title>
<path fill="none" stroke="black" d="M502.35,-400.84C492.9,-404.84 482.47,-409.26 473.26,-413.16"/>
</g>
<!-- Jasson -->
<g id="Jasson" class="node">
<title>Jasson</title>
<ellipse fill="none" stroke="black" cx="424.83" cy="-290.46" rx="40.5" ry="18"/>
<text text-anchor="middle" x="424.83" y="-286.76" font-family="Times,serif" font-size="14.00">Jasson</text>
</g>
<!-- Jasson&#45;&#45;Kenahehab -->
<g id="edge20" class="edge">
<title>Jasson&#45;&#45;Kenahehab</title>
<path fill="none" stroke="black" d="M398.24,-304.39C389.58,-308.92 379.91,-313.99 371,-318.65"/>
</g>
<!-- Jasson&#45;&#45;Kamih -->
<g id="edge21" class="edge">
<title>Jasson&#45;&#45;Kamih</title>
<path fill="none" stroke="black" d="M464.45,-294.24C473.32,-295.08 482.72,-295.98 491.58,-296.82"/>
</g>
<!-- Isid -->
<g id="Isid" class="node">
<title>Isid</title>
<ellipse fill="none" stroke="black" cx="743.91" cy="-292.05" rx="28" ry="18"/>
<text text-anchor="middle" x="743.91" y="-288.35" font-family="Times,serif" font-size="14.00">Isid</text>
</g>
<!-- Isid&#45;&#45;Sadana -->
<g id="edge22" class="edge">
<title>Isid&#45;&#45;Sadana</title>
<path fill="none" stroke="black" d="M715.96,-294.32C705.73,-295.15 693.88,-296.11 682.58,-297.03"/>
</g>
<!-- Marmeha -->
<g id="Marmeha" class="node">
<title>Marmeha</title>
<ellipse fill="none" stroke="black" cx="845.86" cy="-261.15" rx="55.49" ry="18"/>
<text text-anchor="middle" x="845.86" y="-257.45" font-family="Times,serif" font-size="14.00">Marmeha</text>
</g>
<!-- Isid&#45;&#45;Marmeha -->
<g id="edge23" class="edge">
<title>Isid&#45;&#45;Marmeha</title>
<path fill="none" stroke="black" d="M769.37,-284.33C780.23,-281.04 793.16,-277.12 805.27,-273.45"/>
</g>
<!-- Onanam -->
<g id="Onanam" class="node">
<title>Onanam</title>
<ellipse fill="none" stroke="black" cx="733.1" cy="-225.66" rx="49.5" ry="18"/>
<text text-anchor="middle" x="733.1" y="-221.96" font-family="Times,serif" font-size="14.00">Onanam</text>
</g>
<!-- Onanam&#45;&#45;Sadana -->
<g id="edge24" class="edge">
<title>Onanam&#45;&#45;Sadana</title>
<path fill="none" stroke="black" d="M712.13,-242.29C696.25,-254.88 674.57,-272.08 658.86,-284.53"/>
</g>
<!-- Udianoor -->
<g id="Udianoor" class="node">
<title>Udianoor</title>
<ellipse fill="none" stroke="black" cx="844.67" cy="-183.88" rx="54" ry="18"/>
<text text-anchor="middle" x="844.67" y="-180.18" font-family="Times,serif" font-size="14.00">Udianoor</text>
</g>
<!-- Onanam&#45;&#45;Udianoor -->
<g id="edge25" class="edge">
<title>Onanam&#45;&#45;Udianoor</title>
<path fill="none" stroke="black" d="M767.79,-212.67C780.71,-207.83 795.41,-202.33 808.46,-197.44"/>
</g>
<!-- Vehan -->
<g id="Vehan" class="node">
<title>Vehan</title>
<ellipse fill="none" stroke="black" cx="925.82" cy="-138.49" rx="39" ry="18"/>
<text text-anchor="middle" x="925.82" y="-134.79" font-family="Times,serif" font-size="14.00">Vehan</text>
</g>
<!-- Udianoor&#45;&#45;Vehan -->
<g id="edge26" class="edge">
<title>Udianoor&#45;&#45;Vehan</title>
<path fill="none" stroke="black" d="M872.6,-168.26C881.77,-163.13 891.89,-157.46 900.83,-152.47"/>
</g>
<!-- Zinkon -->
<g id="Zinkon" class="node">
<title>Zinkon</title>
<polygon fill="none" stroke="black" points="1026.68,-110.5 961.68,-110.5 961.68,-74.5 1026.68,-74.5 1026.68,-110.5"/>
<text text-anchor="middle" x="994.18" y="-88.8" font-family="Times,serif" font-size="14.00">Zinkon</text>
</g>
<!-- Vehan&#45;&#45;Zinkon -->
<g id="edge27" class="edge">
<title>Vehan&#45;&#45;Zinkon</title>
<path fill="none" stroke="black" d="M948.2,-123.43C954.28,-119.35 960.92,-114.88 967.22,-110.64"/>
</g>
<!-- Haimeh -->
<g id="Haimeh" class="node">
<title>Haimeh</title>
<ellipse fill="none" stroke="black" cx="375.53" cy="-246.39" rx="47" ry="18"/>
<text text-anchor="middle" x="375.53" y="-242.69" font-family="Times,serif" font-size="14.00">Haimeh</text>
</g>
<!-- Haimeh&#45;&#45;Jasson -->
<g id="edge28" class="edge">
<title>Haimeh&#45;&#45;Jasson</title>
<path fill="none" stroke="black" d="M394.17,-263.05C398.31,-266.76 402.7,-270.68 406.82,-274.36"/>
</g>
<!-- Avada -->
<g id="Avada" class="node">
<title>Avada</title>
<ellipse fill="none" stroke="black" cx="297.46" cy="-173.15" rx="39" ry="18"/>
<text text-anchor="middle" x="297.46" y="-169.45" font-family="Times,serif" font-size="14.00">Avada</text>
</g>
<!-- Avada&#45;&#45;Haimeh -->
<g id="edge29" class="edge">
<title>Avada&#45;&#45;Haimeh</title>
<path fill="none" stroke="black" d="M314.79,-189.4C327.54,-201.37 344.84,-217.6 357.71,-229.67"/>
</g>
<!-- Mishi -->
<g id="Mishi" class="node">
<title>Mishi</title>
<ellipse fill="none" stroke="black" cx="214" cy="-137.9" rx="36.5" ry="18"/>
<text text-anchor="middle" x="214" y="-134.2" font-family="Times,serif" font-size="14.00">Mishi</text>
</g>
<!-- Avada&#45;&#45;Mishi -->
<g id="edge30" class="edge">
<title>Avada&#45;&#45;Mishi</title>
<path fill="none" stroke="black" d="M268.27,-160.82C259.71,-157.21 250.38,-153.27 241.91,-149.69"/>
</g>
<!-- Pahineh -->
<g id="Pahineh" class="node">
<title>Pahineh</title>
<ellipse fill="none" stroke="black" cx="306.61" cy="-95.93" rx="48.19" ry="18"/>
<text text-anchor="middle" x="306.61" y="-92.23" font-family="Times,serif" font-size="14.00">Pahineh</text>
</g>
<!-- Avada&#45;&#45;Pahineh -->
<g id="edge31" class="edge">
<title>Avada&#45;&#45;Pahineh</title>
<path fill="none" stroke="black" d="M299.63,-154.85C301.09,-142.54 303,-126.38 304.46,-114.09"/>
</g>
<!-- Mishi&#45;&#45;Pahineh -->
<g id="edge32" class="edge">
<title>Mishi&#45;&#45;Pahineh</title>
<path fill="none" stroke="black" d="M241.28,-125.54C252.17,-120.6 264.75,-114.9 275.95,-109.82"/>
</g>
<!-- Chibi -->
<g id="Chibi" class="node">
<title>Chibi</title>
<ellipse fill="none" stroke="black" cx="282.05" cy="-280.98" rx="35.19" ry="18"/>
<text text-anchor="middle" x="282.05" y="-277.28" font-family="Times,serif" font-size="14.00">Chibi</text>
</g>
<!-- Chibi&#45;&#45;Haimeh -->
<g id="edge33" class="edge">
<title>Chibi&#45;&#45;Haimeh</title>
<path fill="none" stroke="black" d="M310.6,-270.41C320.37,-266.8 331.4,-262.72 341.56,-258.96"/>
</g>
<!-- Bazadod -->
<g id="Bazadod" class="node">
<title>Bazadod</title>
<ellipse fill="none" stroke="black" cx="270.5" cy="-217.24" rx="50.09" ry="18"/>
<text text-anchor="middle" x="270.5" y="-213.54" font-family="Times,serif" font-size="14.00">Bazadod</text>
</g>
<!-- Bazadod&#45;&#45;Haimeh -->
<g id="edge34" class="edge">
<title>Bazadod&#45;&#45;Haimeh</title>
<path fill="none" stroke="black" d="M310.21,-228.26C319.15,-230.74 328.63,-233.37 337.5,-235.83"/>
</g>
<!-- Fihrneh -->
<g id="Fihrneh" class="node">
<title>Fihrneh</title>
<ellipse fill="none" stroke="black" cx="580.44" cy="-256.59" rx="47.5" ry="18"/>
<text text-anchor="middle" x="580.44" y="-252.89" font-family="Times,serif" font-size="14.00">Fihrneh</text>
</g>
<!-- Fihrneh&#45;&#45;Kamih -->
<g id="edge35" class="edge">
<title>Fihrneh&#45;&#45;Kamih</title>
<path fill="none" stroke="black" d="M561.84,-273.23C557.81,-276.83 553.56,-280.64 549.54,-284.23"/>
</g>
<!-- Parouz -->
<g id="Parouz" class="node">
<title>Parouz</title>
<ellipse fill="none" stroke="black" cx="479.7" cy="-246.46" rx="42.49" ry="18"/>
<text text-anchor="middle" x="479.7" y="-242.76" font-family="Times,serif" font-size="14.00">Parouz</text>
</g>
<!-- Fihrneh&#45;&#45;Parouz -->
<g id="edge36" class="edge">
<title>Fihrneh&#45;&#45;Parouz</title>
<path fill="none" stroke="black" d="M534.5,-251.97C530.03,-251.52 525.52,-251.07 521.11,-250.62"/>
</g>
<!-- Hakatiz -->
<g id="Hakatiz" class="node">
<title>Hakatiz</title>
<ellipse fill="none" stroke="black" cx="469.92" cy="-183.65" rx="46.29" ry="18"/>
<text text-anchor="middle" x="469.92" y="-179.95" font-family="Times,serif" font-size="14.00">Hakatiz</text>
</g>
<!-- Fihrneh&#45;&#45;Hakatiz -->
<g id="edge37" class="edge">
<title>Fihrneh&#45;&#45;Hakatiz</title>
<path fill="none" stroke="black" d="M556.73,-240.94C538.09,-228.64 512.23,-211.57 493.59,-199.27"/>
</g>
<!-- Gesh -->
<g id="Gesh" class="node">
<title>Gesh</title>
<ellipse fill="none" stroke="black" cx="558.64" cy="-202.43" rx="34.5" ry="18"/>
<text text-anchor="middle" x="558.64" y="-198.73" font-family="Times,serif" font-size="14.00">Gesh</text>
</g>
<!-- Fihrneh&#45;&#45;Gesh -->
<g id="edge38" class="edge">
<title>Fihrneh&#45;&#45;Gesh</title>
<path fill="none" stroke="black" d="M573.18,-238.55C570.81,-232.65 568.17,-226.09 565.79,-220.2"/>
</g>
<!-- Khnar -->
<g id="Khnar" class="node">
<title>Khnar</title>
<ellipse fill="none" stroke="black" cx="466.93" cy="-125.82" rx="39" ry="18"/>
<text text-anchor="middle" x="466.93" y="-122.12" font-family="Times,serif" font-size="14.00">Khnar</text>
</g>
<!-- Hakatiz&#45;&#45;Khnar -->
<g id="edge39" class="edge">
<title>Hakatiz&#45;&#45;Khnar</title>
<path fill="none" stroke="black" d="M468.97,-165.35C468.62,-158.6 468.23,-150.96 467.88,-144.2"/>
</g>
<!-- Hoseen -->
<g id="Hoseen" class="node">
<title>Hoseen</title>
<ellipse fill="none" stroke="black" cx="588.55" cy="-137.6" rx="45.5" ry="18"/>
<text text-anchor="middle" x="588.55" y="-133.9" font-family="Times,serif" font-size="14.00">Hoseen</text>
</g>
<!-- Gesh&#45;&#45;Hoseen -->
<g id="edge40" class="edge">
<title>Gesh&#45;&#45;Hoseen</title>
<path fill="none" stroke="black" d="M566.81,-184.71C570.96,-175.72 576,-164.8 580.18,-155.74"/>
</g>
<!-- Edilkam -->
<g id="Edilkam" class="node">
<title>Edilkam</title>
<ellipse fill="none" stroke="black" cx="649.91" cy="-181.63" rx="48.99" ry="18"/>
<text text-anchor="middle" x="649.91" y="-177.93" font-family="Times,serif" font-size="14.00">Edilkam</text>
</g>
<!-- Edilkam&#45;&#45;Fihrneh -->
<g id="edge41" class="edge">
<title>Edilkam&#45;&#45;Fihrneh</title>
<path fill="none" stroke="black" d="M633.8,-199.02C622.5,-211.21 607.46,-227.44 596.23,-239.56"/>
</g>
<!-- Yiratal -->
<g id="Yiratal" class="node">
<title>Yiratal</title>
<ellipse fill="none" stroke="black" cx="683.74" cy="-137.5" rx="41.69" ry="18"/>
<text text-anchor="middle" x="683.74" y="-133.8" font-family="Times,serif" font-size="14.00">Yiratal</text>
</g>
<!-- Edilkam&#45;&#45;Yiratal -->
<g id="edge42" class="edge">
<title>Edilkam&#45;&#45;Yiratal</title>
<path fill="none" stroke="black" d="M663.28,-164.19C665.65,-161.1 668.11,-157.89 670.47,-154.81"/>
</g>
<!-- Ertoo -->
<g id="Ertoo" class="node">
<title>Ertoo</title>
<ellipse fill="none" stroke="black" cx="504.88" cy="-71.95" rx="36.5" ry="18"/>
<text text-anchor="middle" x="504.88" y="-68.25" font-family="Times,serif" font-size="14.00">Ertoo</text>
</g>
<!-- Ertoo&#45;&#45;Khnar -->
<g id="edge43" class="edge">
<title>Ertoo&#45;&#45;Khnar</title>
<path fill="none" stroke="black" d="M492.87,-88.99C488.44,-95.28 483.42,-102.41 478.99,-108.7"/>
</g>
<!-- Balas -->
<g id="Balas" class="node">
<title>Balas</title>
<ellipse fill="none" stroke="black" cx="586.27" cy="-90.86" rx="36.5" ry="18"/>
<text text-anchor="middle" x="586.27" y="-87.16" font-family="Times,serif" font-size="14.00">Balas</text>
</g>
<!-- Balas&#45;&#45;Hoseen -->
<g id="edge44" class="edge">
<title>Balas&#45;&#45;Hoseen</title>
<path fill="none" stroke="black" d="M587.16,-109.06C587.32,-112.45 587.5,-115.98 587.66,-119.37"/>
</g>
<!-- Balas&#45;&#45;Yiratal -->
<g id="edge45" class="edge">
<title>Balas&#45;&#45;Yiratal</title>
<path fill="none" stroke="black" d="M612.65,-103.48C625.95,-109.85 642.1,-117.57 655.64,-124.05"/>
</g>
<!-- Balas&#45;&#45;Ertoo -->
<g id="edge46" class="edge">
<title>Balas&#45;&#45;Ertoo</title>
<path fill="none" stroke="black" d="M553.17,-83.17C548.15,-82 542.97,-80.8 537.96,-79.63"/>
</g>
<!-- Pemsah -->
<g id="Pemsah" class="node">
<title>Pemsah</title>
<ellipse fill="none" stroke="black" cx="772.05" cy="-93.48" rx="47" ry="18"/>
<text text-anchor="middle" x="772.05" y="-89.78" font-family="Times,serif" font-size="14.00">Pemsah</text>
</g>
<!-- Pemsah&#45;&#45;Yiratal -->
<g id="edge47" class="edge">
<title>Pemsah&#45;&#45;Yiratal</title>
<path fill="none" stroke="black" d="M743.14,-107.89C732.88,-113.01 721.36,-118.75 711.22,-123.8"/>
</g>
<!-- Yekh -->
<g id="Yekh" class="node">
<title>Yekh</title>
<ellipse fill="none" stroke="black" cx="757.91" cy="-18" rx="32.5" ry="18"/>
<text text-anchor="middle" x="757.91" y="-14.3" font-family="Times,serif" font-size="14.00">Yekh</text>
</g>
<!-- Pemsah&#45;&#45;Yekh -->
<g id="edge48" class="edge">
<title>Pemsah&#45;&#45;Yekh</title>
<path fill="none" stroke="black" d="M768.63,-75.21C766.41,-63.34 763.52,-47.94 761.3,-36.1"/>
</g>
<!-- Feshur -->
<g id="Feshur" class="node">
<title>Feshur</title>
<ellipse fill="none" stroke="black" cx="674.26" cy="-59.36" rx="43" ry="18"/>
<text text-anchor="middle" x="674.26" y="-55.66" font-family="Times,serif" font-size="14.00">Feshur</text>
</g>
<!-- Feshur&#45;&#45;Yiratal -->
<g id="edge49" class="edge">
<title>Feshur&#45;&#45;Yiratal</title>
<path fill="none" stroke="black" d="M676.46,-77.48C677.99,-90.11 680.02,-106.87 681.55,-119.47"/>
</g>
<!-- Feshur&#45;&#45;Pemsah -->
<g id="edge50" class="edge">
<title>Feshur&#45;&#45;Pemsah</title>
<path fill="none" stroke="black" d="M707.37,-70.91C717.01,-74.28 727.57,-77.96 737.31,-81.36"/>
</g>
<!-- Rashagh -->
<g id="Rashagh" class="node">
<title>Rashagh</title>
<ellipse fill="none" stroke="black" cx="409.83" cy="-485.63" rx="50.89" ry="18"/>
<text text-anchor="middle" x="409.83" y="-481.93" font-family="Times,serif" font-size="14.00">Rashagh</text>
</g>
<!-- Rashagh&#45;&#45;Shenda -->
<g id="edge51" class="edge">
<title>Rashagh&#45;&#45;Shenda</title>
<path fill="none" stroke="black" d="M450.82,-475.02C464.95,-471.36 480.71,-467.28 494.61,-463.68"/>
</g>
<!-- Rashagh&#45;&#45;Sota -->
<g id="edge52" class="edge">
<title>Rashagh&#45;&#45;Sota</title>
<path fill="none" stroke="black" d="M420.73,-467.83C425.86,-459.45 431.95,-449.5 437.03,-441.2"/>
</g>
<!-- Sazilid -->
<g id="Sazilid" class="node">
<title>Sazilid</title>
<ellipse fill="none" stroke="black" cx="451.2" cy="-529.65" rx="42.49" ry="18"/>
<text text-anchor="middle" x="451.2" y="-525.95" font-family="Times,serif" font-size="14.00">Sazilid</text>
</g>
<!-- Rashagh&#45;&#45;Sazilid -->
<g id="edge53" class="edge">
<title>Rashagh&#45;&#45;Sazilid</title>
<path fill="none" stroke="black" d="M425.95,-502.78C429.03,-506.06 432.26,-509.5 435.34,-512.77"/>
</g>
<!-- Sazilid&#45;&#45;Shenda -->
<g id="edge54" class="edge">
<title>Sazilid&#45;&#45;Shenda</title>
<path fill="none" stroke="black" d="M468.94,-513.18C482.55,-500.54 501.27,-483.16 514.94,-470.46"/>
</g>
<!-- Afrah -->
<g id="Afrah" class="node">
<title>Afrah</title>
<ellipse fill="none" stroke="black" cx="623.42" cy="-406.88" rx="36.5" ry="18"/>
<text text-anchor="middle" x="623.42" y="-403.18" font-family="Times,serif" font-size="14.00">Afrah</text>
</g>
<!-- Afrah&#45;&#45;Nema -->
<g id="edge55" class="edge">
<title>Afrah&#45;&#45;Nema</title>
<path fill="none" stroke="black" d="M589.57,-400.2C582.06,-398.71 574.08,-397.13 566.51,-395.64"/>
</g>
<!-- Soliara -->
<g id="Soliara" class="node">
<title>Soliara</title>
<ellipse fill="none" stroke="black" cx="744.84" cy="-418.34" rx="43.59" ry="18"/>
<text text-anchor="middle" x="744.84" y="-414.64" font-family="Times,serif" font-size="14.00">Soliara</text>
</g>
<!-- Afrah&#45;&#45;Soliara -->
<g id="edge56" class="edge">
<title>Afrah&#45;&#45;Soliara</title>
<path fill="none" stroke="black" d="M659.19,-410.26C672.62,-411.53 688.03,-412.98 702.03,-414.3"/>
</g>
<!-- Tukanas -->
<g id="Tukanas" class="node">
<title>Tukanas</title>
<ellipse fill="none" stroke="black" cx="869.39" cy="-375.9" rx="49.5" ry="18"/>
<text text-anchor="middle" x="869.39" y="-372.2" font-family="Times,serif" font-size="14.00">Tukanas</text>
</g>
<!-- Soliara&#45;&#45;Tukanas -->
<g id="edge57" class="edge">
<title>Soliara&#45;&#45;Tukanas</title>
<path fill="none" stroke="black" d="M778.55,-406.86C795.41,-401.11 815.83,-394.15 833.04,-388.29"/>
</g>
<!-- Nielez -->
<g id="Nielez" class="node">
<title>Nielez</title>
<ellipse fill="none" stroke="black" cx="820.22" cy="-331.89" rx="40.5" ry="18"/>
<text text-anchor="middle" x="820.22" y="-328.19" font-family="Times,serif" font-size="14.00">Nielez</text>
</g>
<!-- Nielez&#45;&#45;Soliara -->
<g id="edge58" class="edge">
<title>Nielez&#45;&#45;Soliara</title>
<path fill="none" stroke="black" d="M805.33,-348.97C792.11,-364.13 772.91,-386.15 759.71,-401.3"/>
</g>
<!-- Nielez&#45;&#45;Tukanas -->
<g id="edge59" class="edge">
<title>Nielez&#45;&#45;Tukanas</title>
<path fill="none" stroke="black" d="M838.25,-348.03C842.31,-351.66 846.62,-355.52 850.7,-359.17"/>
</g>
<!-- Fageras -->
<g id="Fageras" class="node">
<title>Fageras</title>
<ellipse fill="none" stroke="black" cx="760.29" cy="-508" rx="48.19" ry="18"/>
<text text-anchor="middle" x="760.29" y="-504.3" font-family="Times,serif" font-size="14.00">Fageras</text>
</g>
<!-- Fageras&#45;&#45;Soliara -->
<g id="edge60" class="edge">
<title>Fageras&#45;&#45;Soliara</title>
<path fill="none" stroke="black" d="M757.16,-489.86C754.48,-474.3 750.64,-452 747.96,-436.46"/>
</g>
<!-- Ajna -->
<g id="Ajna" class="node">
<title>Ajna</title>
<ellipse fill="none" stroke="black" cx="888.92" cy="-419.96" rx="31.4" ry="18"/>
<text text-anchor="middle" x="888.92" y="-416.26" font-family="Times,serif" font-size="14.00">Ajna</text>
</g>
<!-- Ajna&#45;&#45;Soliara -->
<g id="edge61" class="edge">
<title>Ajna&#45;&#45;Soliara</title>
<path fill="none" stroke="black" d="M857.66,-419.61C837.46,-419.38 810.89,-419.08 788.61,-418.83"/>
</g>
<!-- Sheri -->
<g id="Sheri" class="node">
<title>Sheri</title>
<ellipse fill="none" stroke="black" cx="962.67" cy="-370.52" rx="36" ry="18"/>
<text text-anchor="middle" x="962.67" y="-366.82" font-family="Times,serif" font-size="14.00">Sheri</text>
</g>
<!-- Ajna&#45;&#45;Sheri -->
<g id="edge62" class="edge">
<title>Ajna&#45;&#45;Sheri</title>
<path fill="none" stroke="black" d="M909.46,-406.19C919.27,-399.62 931,-391.75 940.95,-385.08"/>
</g>
<!-- Sheri&#45;&#45;Tukanas -->
<g id="edge63" class="edge">
<title>Sheri&#45;&#45;Tukanas</title>
<path fill="none" stroke="black" d="M927.14,-372.57C924.26,-372.74 921.31,-372.91 918.36,-373.08"/>
</g>
<!-- Ahraghen -->
<g id="Ahraghen" class="node">
<title>Ahraghen</title>
<ellipse fill="none" stroke="black" cx="828.06" cy="-463.97" rx="56" ry="18"/>
<text text-anchor="middle" x="828.06" y="-460.27" font-family="Times,serif" font-size="14.00">Ahraghen</text>
</g>
<!-- Ahraghen&#45;&#45;Soliara -->
<g id="edge64" class="edge">
<title>Ahraghen&#45;&#45;Soliara</title>
<path fill="none" stroke="black" d="M799.42,-448.26C790.3,-443.26 780.26,-437.76 771.3,-432.84"/>
</g>
<!-- Ahraghen&#45;&#45;Tukanas -->
<g id="edge65" class="edge">
<title>Ahraghen&#45;&#45;Tukanas</title>
<path fill="none" stroke="black" d="M836.43,-446.14C843.6,-430.87 853.87,-408.97 861.04,-393.7"/>
</g>
<!-- Ahraghen&#45;&#45;Ajna -->
<g id="edge66" class="edge">
<title>Ahraghen&#45;&#45;Ajna</title>
<path fill="none" stroke="black" d="M851.07,-447.33C857.13,-442.95 863.6,-438.26 869.46,-434.03"/>
</g>
<!-- Nalnifan -->
<g id="Nalnifan" class="node">
<title>Nalnifan</title>
<ellipse fill="none" stroke="black" cx="553.66" cy="-497.78" rx="50.09" ry="18"/>
<text text-anchor="middle" x="553.66" y="-494.08" font-family="Times,serif" font-size="14.00">Nalnifan</text>
</g>
<!-- Nalnifan&#45;&#45;Sazilid -->
<g id="edge67" class="edge">
<title>Nalnifan&#45;&#45;Sazilid</title>
<path fill="none" stroke="black" d="M515.8,-509.56C505.88,-512.64 495.24,-515.95 485.52,-518.98"/>
</g>
<!-- Shafrak -->
<g id="Shafrak" class="node">
<title>Shafrak</title>
<ellipse fill="none" stroke="black" cx="468.81" cy="-573.66" rx="47" ry="18"/>
<text text-anchor="middle" x="468.81" y="-569.96" font-family="Times,serif" font-size="14.00">Shafrak</text>
</g>
<!-- Nalnifan&#45;&#45;Shafrak -->
<g id="edge68" class="edge">
<title>Nalnifan&#45;&#45;Shafrak</title>
<path fill="none" stroke="black" d="M534.83,-514.62C520.77,-527.2 501.64,-544.31 487.59,-556.87"/>
</g>
<!-- Zazamye -->
<g id="Zazamye" class="node">
<title>Zazamye</title>
<ellipse fill="none" stroke="black" cx="566.96" cy="-617.67" rx="52" ry="18"/>
<text text-anchor="middle" x="566.96" y="-613.97" font-family="Times,serif" font-size="14.00">Zazamye</text>
</g>
<!-- Shafrak&#45;&#45;Zazamye -->
<g id="edge69" class="edge">
<title>Shafrak&#45;&#45;Zazamye</title>
<path fill="none" stroke="black" d="M499.33,-587.35C510.69,-592.44 523.62,-598.24 535.1,-603.39"/>
</g>
<!-- Jerhesh -->
<g id="Jerhesh" class="node">
<title>Jerhesh</title>
<ellipse fill="none" stroke="black" cx="657.94" cy="-519.83" rx="46.29" ry="18"/>
<text text-anchor="middle" x="657.94" y="-516.13" font-family="Times,serif" font-size="14.00">Jerhesh</text>
</g>
<!-- Jerhesh&#45;&#45;Nalnifan -->
<g id="edge70" class="edge">
<title>Jerhesh&#45;&#45;Nalnifan</title>
<path fill="none" stroke="black" d="M617.32,-511.24C610.69,-509.84 603.79,-508.38 597.1,-506.97"/>
</g>
<!-- Getrenjesa -->
<g id="Getrenjesa" class="node">
<title>Getrenjesa</title>
<ellipse fill="none" stroke="black" cx="636.34" cy="-565.12" rx="61.99" ry="18"/>
<text text-anchor="middle" x="636.34" y="-561.42" font-family="Times,serif" font-size="14.00">Getrenjesa</text>
</g>
<!-- Getrenjesa&#45;&#45;Nalnifan -->
<g id="edge71" class="edge">
<title>Getrenjesa&#45;&#45;Nalnifan</title>
<path fill="none" stroke="black" d="M615.48,-548.13C602.75,-537.76 586.56,-524.58 573.95,-514.3"/>
</g>
<!-- Getrenjesa&#45;&#45;Zazamye -->
<g id="edge72" class="edge">
<title>Getrenjesa&#45;&#45;Zazamye</title>
<path fill="none" stroke="black" d="M614.01,-582.04C605.92,-588.16 596.81,-595.06 588.78,-601.15"/>
</g>
<!-- Getrenjesa&#45;&#45;Jerhesh -->
<g id="edge73" class="edge">
<title>Getrenjesa&#45;&#45;Jerhesh</title>
<path fill="none" stroke="black" d="M644.88,-547.22C646.39,-544.06 647.96,-540.76 649.46,-537.6"/>
</g>
<!-- Defsunun -->
<g id="Defsunun" class="node">
<title>Defsunun</title>
<ellipse fill="none" stroke="black" cx="407.57" cy="-617.9" rx="55.49" ry="18"/>
<text text-anchor="middle" x="407.57" y="-614.2" font-family="Times,serif" font-size="14.00">Defsunun</text>
</g>
<!-- Defsunun&#45;&#45;Shafrak -->
<g id="edge74" class="edge">
<title>Defsunun&#45;&#45;Shafrak</title>
<path fill="none" stroke="black" d="M430.37,-601.43C435.68,-597.6 441.32,-593.52 446.6,-589.71"/>
</g>
<!-- Efu -->
<g id="Efu" class="node">
<title>Efu</title>
<ellipse fill="none" stroke="black" cx="365.06" cy="-662.07" rx="27" ry="18"/>
<text text-anchor="middle" x="365.06" y="-658.37" font-family="Times,serif" font-size="14.00">Efu</text>
</g>
<!-- Defsunun&#45;&#45;Efu -->
<g id="edge75" class="edge">
<title>Defsunun&#45;&#45;Efu</title>
<path fill="none" stroke="black" d="M391.01,-635.1C387.28,-638.98 383.35,-643.06 379.7,-646.85"/>
</g>
<!-- Tisot -->
<g id="Tisot" class="node">
<title>Tisot</title>
<ellipse fill="none" stroke="black" cx="325.96" cy="-706.2" rx="34" ry="18"/>
<text text-anchor="middle" x="325.96" y="-702.5" font-family="Times,serif" font-size="14.00">Tisot</text>
</g>
<!-- Efu&#45;&#45;Tisot -->
<g id="edge76" class="edge">
<title>Efu&#45;&#45;Tisot</title>
<path fill="none" stroke="black" d="M350.94,-678C347.53,-681.85 343.88,-685.97 340.45,-689.84"/>
</g>
<!-- Yahyerer -->
<g id="Yahyerer" class="node">
<title>Yahyerer</title>
<ellipse fill="none" stroke="black" cx="589.79" cy="-661.69" rx="52" ry="18"/>
<text text-anchor="middle" x="589.79" y="-657.99" font-family="Times,serif" font-size="14.00">Yahyerer</text>
</g>
<!-- Yahyerer&#45;&#45;Zazamye -->
<g id="edge77" class="edge">
<title>Yahyerer&#45;&#45;Zazamye</title>
<path fill="none" stroke="black" d="M580.5,-643.79C579.07,-641.03 577.59,-638.18 576.16,-635.42"/>
</g>
<!-- Esubara -->
<g id="Esubara" class="node">
<title>Esubara</title>
<ellipse fill="none" stroke="black" cx="608.4" cy="-705.71" rx="49.5" ry="18"/>
<text text-anchor="middle" x="608.4" y="-702.01" font-family="Times,serif" font-size="14.00">Esubara</text>
</g>
<!-- Esubara&#45;&#45;Yahyerer -->
<g id="edge78" class="edge">
<title>Esubara&#45;&#45;Yahyerer</title>
<path fill="none" stroke="black" d="M600.83,-687.8C599.7,-685.14 598.54,-682.39 597.41,-679.72"/>
</g>
<!-- Ghekon -->
<g id="Ghekon" class="node">
<title>Ghekon</title>
<ellipse fill="none" stroke="black" cx="623.25" cy="-749.71" rx="46.29" ry="18"/>
<text text-anchor="middle" x="623.25" y="-746.01" font-family="Times,serif" font-size="14.00">Ghekon</text>
</g>
<!-- Esubara&#45;&#45;Ghekon -->
<g id="edge79" class="edge">
<title>Esubara&#45;&#45;Ghekon</title>
<path fill="none" stroke="black" d="M614.44,-723.6C615.34,-726.27 616.27,-729.01 617.17,-731.68"/>
</g>
<!-- Vaini -->
<g id="Vaini" class="node">
<title>Vaini</title>
<ellipse fill="none" stroke="black" cx="616.05" cy="-806.63" rx="34" ry="18"/>
<text text-anchor="middle" x="616.05" y="-802.93" font-family="Times,serif" font-size="14.00">Vaini</text>
</g>
<!-- Ghekon&#45;&#45;Vaini -->
<g id="edge80" class="edge">
<title>Ghekon&#45;&#45;Vaini</title>
<path fill="none" stroke="black" d="M620.97,-767.72C620.13,-774.36 619.18,-781.89 618.34,-788.54"/>
</g>
<!-- Zaveral -->
<g id="Zaveral" class="node">
<title>Zaveral</title>
<ellipse fill="none" stroke="black" cx="726.35" cy="-729.03" rx="46.29" ry="18"/>
<text text-anchor="middle" x="726.35" y="-725.33" font-family="Times,serif" font-size="14.00">Zaveral</text>
</g>
<!-- Ghekon&#45;&#45;Zaveral -->
<g id="edge81" class="edge">
<title>Ghekon&#45;&#45;Zaveral</title>
<path fill="none" stroke="black" d="M664.29,-741.48C671.14,-740.1 678.25,-738.68 685.11,-737.3"/>
</g>
<!-- Soza -->
<g id="Soza" class="node">
<title>Soza</title>
<ellipse fill="none" stroke="black" cx="541.6" cy="-793.74" rx="32.5" ry="18"/>
<text text-anchor="middle" x="541.6" y="-790.04" font-family="Times,serif" font-size="14.00">Soza</text>
</g>
<!-- Ghekon&#45;&#45;Soza -->
<g id="edge82" class="edge">
<title>Ghekon&#45;&#45;Soza</title>
<path fill="none" stroke="black" d="M596.06,-764.37C586.04,-769.77 574.78,-775.85 565.11,-781.06"/>
</g>
<!-- Pserz -->
<g id="Pserz" class="node">
<title>Pserz</title>
<ellipse fill="none" stroke="black" cx="710.12" cy="-793.74" rx="36.5" ry="18"/>
<text text-anchor="middle" x="710.12" y="-790.04" font-family="Times,serif" font-size="14.00">Pserz</text>
</g>
<!-- Ghekon&#45;&#45;Pserz -->
<g id="edge83" class="edge">
<title>Ghekon&#45;&#45;Pserz</title>
<path fill="none" stroke="black" d="M651.69,-764.12C662.28,-769.49 674.23,-775.54 684.54,-780.77"/>
</g>
<!-- Pserz&#45;&#45;Vaini -->
<g id="edge84" class="edge">
<title>Pserz&#45;&#45;Vaini</title>
<path fill="none" stroke="black" d="M674.82,-798.58C666.38,-799.73 657.39,-800.96 649.05,-802.11"/>
</g>
<!-- Anohel -->
<g id="Anohel" class="node">
<title>Anohel</title>
<ellipse fill="none" stroke="black" cx="598.95" cy="-850.68" rx="42.49" ry="18"/>
<text text-anchor="middle" x="598.95" y="-846.98" font-family="Times,serif" font-size="14.00">Anohel</text>
</g>
<!-- Anohel&#45;&#45;Vaini -->
<g id="edge85" class="edge">
<title>Anohel&#45;&#45;Vaini</title>
<path fill="none" stroke="black" d="M605.91,-832.76C606.98,-830 608.09,-827.15 609.16,-824.39"/>
</g>
<!-- Illi -->
<g id="Illi" class="node">
<title>Illi</title>
<ellipse fill="none" stroke="black" cx="521.02" cy="-837.76" rx="27" ry="18"/>
<text text-anchor="middle" x="521.02" y="-834.06" font-family="Times,serif" font-size="14.00">Illi</text>
</g>
<!-- Anohel&#45;&#45;Illi -->
<g id="edge86" class="edge">
<title>Anohel&#45;&#45;Illi</title>
<path fill="none" stroke="black" d="M559.53,-844.14C555.45,-843.47 551.38,-842.79 547.49,-842.15"/>
</g>
<!-- Illi&#45;&#45;Soza -->
<g id="edge87" class="edge">
<title>Illi&#45;&#45;Soza</title>
<path fill="none" stroke="black" d="M529.15,-820.36C530.54,-817.38 531.99,-814.29 533.39,-811.3"/>
</g>
<!-- Keba -->
<g id="Keba" class="node">
<title>Keba</title>
<ellipse fill="none" stroke="black" cx="790.76" cy="-773.12" rx="34" ry="18"/>
<text text-anchor="middle" x="790.76" y="-769.42" font-family="Times,serif" font-size="14.00">Keba</text>
</g>
<!-- Keba&#45;&#45;Zaveral -->
<g id="edge88" class="edge">
<title>Keba&#45;&#45;Zaveral</title>
<path fill="none" stroke="black" d="M769.67,-758.69C763.21,-754.27 756.07,-749.38 749.49,-744.87"/>
</g>
<!-- Keba&#45;&#45;Pserz -->
<g id="edge89" class="edge">
<title>Keba&#45;&#45;Pserz</title>
<path fill="none" stroke="black" d="M760.28,-780.92C754.48,-782.4 748.39,-783.95 742.53,-785.45"/>
</g>
<!-- Bapraya -->
<g id="Bapraya" class="node">
<title>Bapraya</title>
<ellipse fill="none" stroke="black" cx="803.93" cy="-823.56" rx="49.5" ry="18"/>
<text text-anchor="middle" x="803.93" y="-819.86" font-family="Times,serif" font-size="14.00">Bapraya</text>
</g>
<!-- Bapraya&#45;&#45;Pserz -->
<g id="edge90" class="edge">
<title>Bapraya&#45;&#45;Pserz</title>
<path fill="none" stroke="black" d="M766.59,-811.69C758.1,-808.99 749.19,-806.16 741.01,-803.56"/>
</g>
<!-- Bapraya&#45;&#45;Keba -->
<g id="edge91" class="edge">
<title>Bapraya&#45;&#45;Keba</title>
<path fill="none" stroke="black" d="M799.25,-805.64C798.01,-800.88 796.67,-795.74 795.43,-790.99"/>
</g>
<!-- Fobiner -->
<g id="Fobiner" class="node">
<title>Fobiner</title>
<ellipse fill="none" stroke="black" cx="873.87" cy="-867.58" rx="46.29" ry="18"/>
<text text-anchor="middle" x="873.87" y="-863.88" font-family="Times,serif" font-size="14.00">Fobiner</text>
</g>
<!-- Bapraya&#45;&#45;Fobiner -->
<g id="edge92" class="edge">
<title>Bapraya&#45;&#45;Fobiner</title>
<path fill="none" stroke="black" d="M828.78,-839.21C835.38,-843.36 842.5,-847.84 849.09,-851.99"/>
</g>
<!-- Huna -->
<g id="Huna" class="node">
<title>Huna</title>
<ellipse fill="none" stroke="black" cx="964.26" cy="-856.24" rx="36" ry="18"/>
<text text-anchor="middle" x="964.26" y="-852.54" font-family="Times,serif" font-size="14.00">Huna</text>
</g>
<!-- Fobiner&#45;&#45;Huna -->
<g id="edge93" class="edge">
<title>Fobiner&#45;&#45;Huna</title>
<path fill="none" stroke="black" d="M918,-862.04C921.86,-861.56 925.72,-861.07 929.48,-860.6"/>
</g>
<!-- Karan -->
<g id="Karan" class="node">
<title>Karan</title>
<ellipse fill="none" stroke="black" cx="958.87" cy="-911.62" rx="38.5" ry="18"/>
<text text-anchor="middle" x="958.87" y="-907.92" font-family="Times,serif" font-size="14.00">Karan</text>
</g>
<!-- Fobiner&#45;&#45;Karan -->
<g id="edge94" class="edge">
<title>Fobiner&#45;&#45;Karan</title>
<path fill="none" stroke="black" d="M901.7,-882C911.77,-887.22 923.1,-893.08 932.99,-898.21"/>
</g>
<!-- Nouta -->
<g id="Nouta" class="node">
<title>Nouta</title>
<ellipse fill="none" stroke="black" cx="841.26" cy="-924.56" rx="39" ry="18"/>
<text text-anchor="middle" x="841.26" y="-920.86" font-family="Times,serif" font-size="14.00">Nouta</text>
</g>
<!-- Fobiner&#45;&#45;Nouta -->
<g id="edge95" class="edge">
<title>Fobiner&#45;&#45;Nouta</title>
<path fill="none" stroke="black" d="M863.73,-885.3C859.76,-892.23 855.23,-900.15 851.28,-907.05"/>
</g>
<!-- Huna&#45;&#45;Karan -->
<g id="edge96" class="edge">
<title>Huna&#45;&#45;Karan</title>
<path fill="none" stroke="black" d="M962.49,-874.37C961.89,-880.55 961.22,-887.46 960.62,-893.63"/>
</g>
<!-- Sakht -->
<g id="Sakht" class="node">
<title>Sakht</title>
<ellipse fill="none" stroke="black" cx="246.45" cy="-690.7" rx="37.89" ry="18"/>
<text text-anchor="middle" x="246.45" y="-687" font-family="Times,serif" font-size="14.00">Sakht</text>
</g>
<!-- Sakht&#45;&#45;Tisot -->
<g id="edge97" class="edge">
<title>Sakht&#45;&#45;Tisot</title>
<path fill="none" stroke="black" d="M281.56,-697.54C285.72,-698.35 289.95,-699.17 294.06,-699.98"/>
</g>
<!-- 1&#45;SMEB -->
<g id="_1&#45;SMEB" class="node">
<title>1&#45;SMEB</title>
<polygon fill="none" stroke="black" points="200.68,-723.11 125.68,-723.11 125.68,-687.11 200.68,-687.11 200.68,-723.11"/>
<text text-anchor="middle" x="163.18" y="-701.41" font-family="Times,serif" font-size="14.00">1&#45;SMEB</text>
</g>
<!-- Sakht&#45;&#45;1&#45;SMEB -->
<g id="edge98" class="edge">
<title>Sakht&#45;&#45;1&#45;SMEB</title>
<path fill="none" stroke="black" d="M210.65,-696.89C207.39,-697.46 204.08,-698.03 200.8,-698.6"/>
</g>
<!-- Naga -->
<g id="Naga" class="node">
<title>Naga</title>
<ellipse fill="none" stroke="black" cx="324.34" cy="-750.25" rx="35.19" ry="18"/>
<text text-anchor="middle" x="324.34" y="-746.55" font-family="Times,serif" font-size="14.00">Naga</text>
</g>
<!-- Naga&#45;&#45;Tisot -->
<g id="edge99" class="edge">
<title>Naga&#45;&#45;Tisot</title>
<path fill="none" stroke="black" d="M325.01,-732.08C325.1,-729.52 325.2,-726.88 325.29,-724.33"/>
</g>
<!-- Naga&#45;&#45;Sakht -->
<g id="edge100" class="edge">
<title>Naga&#45;&#45;Sakht</title>
<path fill="none" stroke="black" d="M304.68,-735.22C293.06,-726.33 278.36,-715.09 266.64,-706.13"/>
</g>
<!-- Omigiav -->
<g id="Omigiav" class="node">
<title>Omigiav</title>
<ellipse fill="none" stroke="black" cx="416.85" cy="-764.64" rx="49.5" ry="18"/>
<text text-anchor="middle" x="416.85" y="-760.94" font-family="Times,serif" font-size="14.00">Omigiav</text>
</g>
<!-- Naga&#45;&#45;Omigiav -->
<g id="edge101" class="edge">
<title>Naga&#45;&#45;Omigiav</title>
<path fill="none" stroke="black" d="M358,-755.49C362.34,-756.16 366.84,-756.86 371.33,-757.56"/>
</g>
<!-- Omigiav&#45;&#45;Tisot -->
<g id="edge102" class="edge">
<title>Omigiav&#45;&#45;Tisot</title>
<path fill="none" stroke="black" d="M392.5,-748.98C378.51,-739.99 361.1,-728.79 347.59,-720.11"/>
</g>
<!-- Anath -->
<g id="Anath" class="node">
<title>Anath</title>
<ellipse fill="none" stroke="black" cx="242.6" cy="-794.15" rx="38.5" ry="18"/>
<text text-anchor="middle" x="242.6" y="-790.45" font-family="Times,serif" font-size="14.00">Anath</text>
</g>
<!-- Anath&#45;&#45;Rafeme -->
<g id="edge103" class="edge">
<title>Anath&#45;&#45;Rafeme</title>
<path fill="none" stroke="black" d="M223.45,-810.04C219.54,-813.29 215.39,-816.73 211.39,-820.05"/>
</g>
<!-- Anath&#45;&#45;Sakht -->
<g id="edge104" class="edge">
<title>Anath&#45;&#45;Sakht</title>
<path fill="none" stroke="black" d="M243.27,-776.13C243.97,-757.26 245.07,-727.78 245.78,-708.86"/>
</g>
<!-- Anath&#45;&#45;Naga -->
<g id="edge105" class="edge">
<title>Anath&#45;&#45;Naga</title>
<path fill="none" stroke="black" d="M268.01,-780.5C278.23,-775.01 289.96,-768.71 300.06,-763.29"/>
</g>
<!-- Esaeel -->
<g id="Esaeel" class="node">
<title>Esaeel</title>
<ellipse fill="none" stroke="black" cx="948.17" cy="-811.03" rx="41.69" ry="18"/>
<text text-anchor="middle" x="948.17" y="-807.33" font-family="Times,serif" font-size="14.00">Esaeel</text>
</g>
<!-- Esaeel&#45;&#45;Fobiner -->
<g id="edge106" class="edge">
<title>Esaeel&#45;&#45;Fobiner</title>
<path fill="none" stroke="black" d="M927.47,-826.78C917.34,-834.49 905.16,-843.77 894.97,-851.52"/>
</g>
<!-- Ned -->
<g id="Ned" class="node">
<title>Ned</title>
<ellipse fill="none" stroke="black" cx="845.07" cy="-969.33" rx="30" ry="18"/>
<text text-anchor="middle" x="845.07" y="-965.63" font-family="Times,serif" font-size="14.00">Ned</text>
</g>
<!-- Ned&#45;&#45;Nouta -->
<g id="edge107" class="edge">
<title>Ned&#45;&#45;Nouta</title>
<path fill="none" stroke="black" d="M843.52,-951.12C843.28,-948.31 843.03,-945.41 842.79,-942.61"/>
</g>
<!-- Hophib -->
<g id="Hophib" class="node">
<title>Hophib</title>
<ellipse fill="none" stroke="black" cx="1049.45" cy="-927.16" rx="44.39" ry="18"/>
<text text-anchor="middle" x="1049.45" y="-923.46" font-family="Times,serif" font-size="14.00">Hophib</text>
</g>
<!-- Hophib&#45;&#45;Karan -->
<g id="edge108" class="edge">
<title>Hophib&#45;&#45;Karan</title>
<path fill="none" stroke="black" d="M1008.65,-920.16C1004.15,-919.39 999.59,-918.61 995.15,-917.84"/>
</g>
<!-- D4KU&#45;5 -->
<g id="D4KU&#45;5" class="node">
<title>D4KU&#45;5</title>
<polygon fill="none" stroke="black" points="1172.65,-978.41 1101.65,-978.41 1101.65,-942.41 1172.65,-942.41 1172.65,-978.41"/>
<text text-anchor="middle" x="1137.15" y="-956.71" font-family="Times,serif" font-size="14.00">D4KU&#45;5</text>
</g>
<!-- Hophib&#45;&#45;D4KU&#45;5 -->
<g id="edge109" class="edge">
<title>Hophib&#45;&#45;D4KU&#45;5</title>
<path fill="none" stroke="black" d="M1082.15,-939.54C1088.45,-941.94 1095.15,-944.47 1101.55,-946.9"/>
</g>
</g>
</svg>
