<?xml version="1.0" encoding="UTF-8" standalone="no"?>
<!DOCTYPE svg PUBLIC "-//W3C//DTD SVG 1.1//EN"
 "http://www.w3.org/Graphics/SVG/1.1/DTD/svg11.dtd">
<!-- Generated by graphviz version 2.43.0 (0)
 -->
<!-- Pages: 1 -->
<svg width="1024pt" height="768pt"
 viewBox="0.00 0.00 1024.35 768.34" xmlns="http://www.w3.org/2000/svg" xmlns:xlink="http://www.w3.org/1999/xlink">
<g id="graph0" class="graph" transform="scale(1 1) rotate(0) translate(4 764.34)">
<polygon fill="white" stroke="transparent" points="-4,4 -4,-764.34 1020.35,-764.34 1020.35,4 -4,4"/>
<!-- Piak -->
<g id="Piak" class="node">
<title>Piak</title>
<polygon fill="none" stroke="black" points="693.64,-609 639.64,-609 639.64,-573 693.64,-573 693.64,-609"/>
<text text-anchor="middle" x="666.64" y="-587.3" font-family="Times,serif" font-size="14.00">Piak</text>
</g>
<!-- Ohbochi -->
<g id="Ohbochi" class="node">
<title>Ohbochi</title>
<polygon fill="none" stroke="black" points="650.01,-653.03 575.01,-653.03 575.01,-617.03 650.01,-617.03 650.01,-653.03"/>
<text text-anchor="middle" x="612.51" y="-631.33" font-family="Times,serif" font-size="14.00">Ohbochi</text>
</g>
<!-- Karjataimon -->
<g id="Karjataimon" class="node">
<title>Karjataimon</title>
<polygon fill="none" stroke="black" points="104,-727.16 0,-727.16 0,-691.16 104,-691.16 104,-727.16"/>
<text text-anchor="middle" x="52" y="-705.46" font-family="Times,serif" font-size="14.00">Karjataimon</text>
</g>
<!-- Manjonakko -->
<g id="Manjonakko" class="node">
<title>Manjonakko</title>
<polygon fill="none" stroke="black" points="882.81,-218.78 779.81,-218.78 779.81,-182.78 882.81,-182.78 882.81,-218.78"/>
<text text-anchor="middle" x="831.31" y="-197.08" font-family="Times,serif" font-size="14.00">Manjonakko</text>
</g>
<!-- Tama -->
<g id="Tama" class="node">
<title>Tama</title>
<polygon fill="none" stroke="black" points="644.03,-92.67 589.03,-92.67 589.03,-56.67 644.03,-56.67 644.03,-92.67"/>
<text text-anchor="middle" x="616.53" y="-70.97" font-family="Times,serif" font-size="14.00">Tama</text>
</g>
<!-- Aldranette -->
<g id="Aldranette" class="node">
<title>Aldranette</title>
<polygon fill="none" stroke="black" points="136.1,-295.43 44.1,-295.43 44.1,-259.43 136.1,-259.43 136.1,-295.43"/>
<text text-anchor="middle" x="90.1" y="-273.73" font-family="Times,serif" font-size="14.00">Aldranette</text>
</g>
<!-- Oicx -->
<g id="Oicx" class="node">
<title>Oicx</title>
<polygon fill="none" stroke="black" points="230.53,-493.01 176.53,-493.01 176.53,-457.01 230.53,-457.01 230.53,-493.01"/>
<text text-anchor="middle" x="203.53" y="-471.31" font-family="Times,serif" font-size="14.00">Oicx</text>
</g>
<!-- Athounon -->
<g id="Athounon" class="node">
<title>Athounon</title>
<polygon fill="none" stroke="black" points="859.89,-471.85 774.89,-471.85 774.89,-435.85 859.89,-435.85 859.89,-471.85"/>
<text text-anchor="middle" x="817.39" y="-450.15" font-family="Times,serif" font-size="14.00">Athounon</text>
</g>
<!-- W&#45;4NUU -->
<g id="W&#45;4NUU" class="node">
<title>W&#45;4NUU</title>
<polygon fill="none" stroke="black" points="430.22,-760.34 350.22,-760.34 350.22,-724.34 430.22,-724.34 430.22,-760.34"/>
<text text-anchor="middle" x="390.22" y="-738.64" font-family="Times,serif" font-size="14.00">W&#45;4NUU</text>
</g>
<!-- Abune -->
<g id="Abune" class="node">
<title>Abune</title>
<polygon fill="none" stroke="black" points="392.74,-99.07 330.74,-99.07 330.74,-63.07 392.74,-63.07 392.74,-99.07"/>
<text text-anchor="middle" x="361.74" y="-77.37" font-family="Times,serif" font-size="14.00">Abune</text>
</g>
<!-- Hykanima -->
<g id="Hykanima" class="node">
<title>Hykanima</title>
<ellipse fill="none" stroke="black" cx="197.51" cy="-609.53" rx="58" ry="18"/>
<text text-anchor="middle" x="197.51" y="-605.83" font-family="Times,serif" font-size="14.00">Hykanima</text>
</g>
<!-- Villasen -->
<g id="Villasen" class="node">
<title>Villasen</title>
<ellipse fill="none" stroke="black" cx="356.69" cy="-610.25" rx="47.5" ry="18"/>
<text text-anchor="middle" x="356.69" y="-606.55" font-family="Times,serif" font-size="14.00">Villasen</text>
</g>
<!-- Hykanima&#45;&#45;Villasen -->
<g id="edge1" class="edge">
<title>Hykanima&#45;&#45;Villasen</title>
<path fill="none" stroke="black" d="M255.43,-609.79C273.03,-609.87 292.16,-609.96 309,-610.03"/>
</g>
<!-- Sarenemi -->
<g id="Sarenemi" class="node">
<title>Sarenemi</title>
<ellipse fill="none" stroke="black" cx="131.91" cy="-653.58" rx="55.49" ry="18"/>
<text text-anchor="middle" x="131.91" y="-649.88" font-family="Times,serif" font-size="14.00">Sarenemi</text>
</g>
<!-- Hykanima&#45;&#45;Sarenemi -->
<g id="edge2" class="edge">
<title>Hykanima&#45;&#45;Sarenemi</title>
<path fill="none" stroke="black" d="M173.08,-625.93C167.55,-629.65 161.67,-633.6 156.14,-637.31"/>
</g>
<!-- Sarenemi&#45;&#45;Karjataimon -->
<g id="edge3" class="edge">
<title>Sarenemi&#45;&#45;Karjataimon</title>
<path fill="none" stroke="black" d="M108.37,-669.95C98.79,-676.61 87.69,-684.33 77.89,-691.15"/>
</g>
<!-- Okagaiken -->
<g id="Okagaiken" class="node">
<title>Okagaiken</title>
<ellipse fill="none" stroke="black" cx="378.37" cy="-698.31" rx="60" ry="18"/>
<text text-anchor="middle" x="378.37" y="-694.61" font-family="Times,serif" font-size="14.00">Okagaiken</text>
</g>
<!-- Okagaiken&#45;&#45;W&#45;4NUU -->
<g id="edge4" class="edge">
<title>Okagaiken&#45;&#45;W&#45;4NUU</title>
<path fill="none" stroke="black" d="M383.25,-716.47C383.94,-719.03 384.65,-721.66 385.34,-724.22"/>
</g>
<!-- Okagaiken&#45;&#45;Villasen -->
<g id="edge5" class="edge">
<title>Okagaiken&#45;&#45;Villasen</title>
<path fill="none" stroke="black" d="M373.88,-680.06C370.15,-664.95 364.89,-643.58 361.17,-628.47"/>
</g>
<!-- Kehjari -->
<g id="Kehjari" class="node">
<title>Kehjari</title>
<ellipse fill="none" stroke="black" cx="340.06" cy="-565.57" rx="44.39" ry="18"/>
<text text-anchor="middle" x="340.06" y="-561.87" font-family="Times,serif" font-size="14.00">Kehjari</text>
</g>
<!-- Kehjari&#45;&#45;Villasen -->
<g id="edge6" class="edge">
<title>Kehjari&#45;&#45;Villasen</title>
<path fill="none" stroke="black" d="M346.73,-583.49C347.81,-586.4 348.93,-589.42 350.02,-592.33"/>
</g>
<!-- Martoh -->
<g id="Martoh" class="node">
<title>Martoh</title>
<ellipse fill="none" stroke="black" cx="379.84" cy="-521.53" rx="45" ry="18"/>
<text text-anchor="middle" x="379.84" y="-517.83" font-family="Times,serif" font-size="14.00">Martoh</text>
</g>
<!-- Kehjari&#45;&#45;Martoh -->
<g id="edge7" class="edge">
<title>Kehjari&#45;&#45;Martoh</title>
<path fill="none" stroke="black" d="M355.32,-548.67C358.3,-545.37 361.43,-541.91 364.41,-538.61"/>
</g>
<!-- Ashitsu -->
<g id="Ashitsu" class="node">
<title>Ashitsu</title>
<ellipse fill="none" stroke="black" cx="235.59" cy="-565.46" rx="45.5" ry="18"/>
<text text-anchor="middle" x="235.59" y="-561.76" font-family="Times,serif" font-size="14.00">Ashitsu</text>
</g>
<!-- Ashitsu&#45;&#45;Hykanima -->
<g id="edge8" class="edge">
<title>Ashitsu&#45;&#45;Hykanima</title>
<path fill="none" stroke="black" d="M220.76,-582.63C218.09,-585.72 215.3,-588.95 212.61,-592.05"/>
</g>
<!-- Ashitsu&#45;&#45;Kehjari -->
<g id="edge9" class="edge">
<title>Ashitsu&#45;&#45;Kehjari</title>
<path fill="none" stroke="black" d="M281.11,-565.51C285.95,-565.51 290.86,-565.52 295.69,-565.52"/>
</g>
<!-- Ienakkamon -->
<g id="Ienakkamon" class="node">
<title>Ienakkamon</title>
<ellipse fill="none" stroke="black" cx="270.62" cy="-654.28" rx="67" ry="18"/>
<text text-anchor="middle" x="270.62" y="-650.58" font-family="Times,serif" font-size="14.00">Ienakkamon</text>
</g>
<!-- Ashitsu&#45;&#45;Ienakkamon -->
<g id="edge10" class="edge">
<title>Ashitsu&#45;&#45;Ienakkamon</title>
<path fill="none" stroke="black" d="M244.96,-583.2C248.95,-591.14 253.47,-600.69 256.95,-609.56 260.34,-618.17 263.42,-627.99 265.79,-636.22"/>
</g>
<!-- Ienakkamon&#45;&#45;Okagaiken -->
<g id="edge11" class="edge">
<title>Ienakkamon&#45;&#45;Okagaiken</title>
<path fill="none" stroke="black" d="M307.7,-669.44C319.03,-674.06 331.45,-679.14 342.68,-683.73"/>
</g>
<!-- Korasen -->
<g id="Korasen" class="node">
<title>Korasen</title>
<ellipse fill="none" stroke="black" cx="495.1" cy="-663.7" rx="48.19" ry="18"/>
<text text-anchor="middle" x="495.1" y="-660" font-family="Times,serif" font-size="14.00">Korasen</text>
</g>
<!-- Korasen&#45;&#45;Villasen -->
<g id="edge12" class="edge">
<title>Korasen&#45;&#45;Villasen</title>
<path fill="none" stroke="black" d="M461.6,-650.76C439.99,-642.42 412,-631.61 390.36,-623.25"/>
</g>
<!-- Kinakka -->
<g id="Kinakka" class="node">
<title>Kinakka</title>
<ellipse fill="none" stroke="black" cx="480.85" cy="-521.91" rx="48.19" ry="18"/>
<text text-anchor="middle" x="480.85" y="-518.21" font-family="Times,serif" font-size="14.00">Kinakka</text>
</g>
<!-- Kinakka&#45;&#45;Martoh -->
<g id="edge13" class="edge">
<title>Kinakka&#45;&#45;Martoh</title>
<path fill="none" stroke="black" d="M432.71,-521.73C430.07,-521.72 427.42,-521.71 424.79,-521.7"/>
</g>
<!-- Raihbaka -->
<g id="Raihbaka" class="node">
<title>Raihbaka</title>
<ellipse fill="none" stroke="black" cx="536.7" cy="-570.65" rx="54" ry="18"/>
<text text-anchor="middle" x="536.7" y="-566.95" font-family="Times,serif" font-size="14.00">Raihbaka</text>
</g>
<!-- Kinakka&#45;&#45;Raihbaka -->
<g id="edge14" class="edge">
<title>Kinakka&#45;&#45;Raihbaka</title>
<path fill="none" stroke="black" d="M500.07,-538.68C505.63,-543.53 511.69,-548.82 517.26,-553.68"/>
</g>
<!-- Onnamon -->
<g id="Onnamon" class="node">
<title>Onnamon</title>
<ellipse fill="none" stroke="black" cx="592.26" cy="-521.18" rx="55.49" ry="18"/>
<text text-anchor="middle" x="592.26" y="-517.48" font-family="Times,serif" font-size="14.00">Onnamon</text>
</g>
<!-- Kinakka&#45;&#45;Onnamon -->
<g id="edge15" class="edge">
<title>Kinakka&#45;&#45;Onnamon</title>
<path fill="none" stroke="black" d="M529.07,-521.59C531.66,-521.58 534.27,-521.56 536.87,-521.54"/>
</g>
<!-- Raihbaka&#45;&#45;Ohbochi -->
<g id="edge16" class="edge">
<title>Raihbaka&#45;&#45;Ohbochi</title>
<path fill="none" stroke="black" d="M556.62,-587.56C567.24,-596.58 580.3,-607.68 591.13,-616.88"/>
</g>
<!-- Onnamon&#45;&#45;Piak -->
<g id="edge17" class="edge">
<title>Onnamon&#45;&#45;Piak</title>
<path fill="none" stroke="black" d="M610.64,-538.44C621.83,-548.94 636.1,-562.33 647.43,-572.97"/>
</g>
<!-- Uuhulanen -->
<g id="Uuhulanen" class="node">
<title>Uuhulanen</title>
<ellipse fill="none" stroke="black" cx="622.59" cy="-463.43" rx="61.99" ry="18"/>
<text text-anchor="middle" x="622.59" y="-459.73" font-family="Times,serif" font-size="14.00">Uuhulanen</text>
</g>
<!-- Onnamon&#45;&#45;Uuhulanen -->
<g id="edge18" class="edge">
<title>Onnamon&#45;&#45;Uuhulanen</title>
<path fill="none" stroke="black" d="M601.69,-503.23C605.3,-496.34 609.43,-488.48 613.06,-481.58"/>
</g>
<!-- Tsuruma -->
<g id="Tsuruma" class="node">
<title>Tsuruma</title>
<ellipse fill="none" stroke="black" cx="498.25" cy="-474.63" rx="51.5" ry="18"/>
<text text-anchor="middle" x="498.25" y="-470.93" font-family="Times,serif" font-size="14.00">Tsuruma</text>
</g>
<!-- Onnamon&#45;&#45;Tsuruma -->
<g id="edge19" class="edge">
<title>Onnamon&#45;&#45;Tsuruma</title>
<path fill="none" stroke="black" d="M561.74,-506.07C550.91,-500.7 538.74,-494.68 527.98,-489.35"/>
</g>
<!-- Rohamaa -->
<g id="Rohamaa" class="node">
<title>Rohamaa</title>
<ellipse fill="none" stroke="black" cx="709.47" cy="-546.96" rx="54" ry="18"/>
<text text-anchor="middle" x="709.47" y="-543.26" font-family="Times,serif" font-size="14.00">Rohamaa</text>
</g>
<!-- Onnamon&#45;&#45;Rohamaa -->
<g id="edge20" class="edge">
<title>Onnamon&#45;&#45;Rohamaa</title>
<path fill="none" stroke="black" d="M638.25,-531.3C646.84,-533.19 655.81,-535.16 664.38,-537.05"/>
</g>
<!-- Uchomida -->
<g id="Uchomida" class="node">
<title>Uchomida</title>
<ellipse fill="none" stroke="black" cx="751.88" cy="-502.86" rx="58" ry="18"/>
<text text-anchor="middle" x="751.88" y="-499.16" font-family="Times,serif" font-size="14.00">Uchomida</text>
</g>
<!-- Rohamaa&#45;&#45;Uchomida -->
<g id="edge21" class="edge">
<title>Rohamaa&#45;&#45;Uchomida</title>
<path fill="none" stroke="black" d="M725.99,-529.79C728.96,-526.69 732.07,-523.46 735.06,-520.36"/>
</g>
<!-- Innia -->
<g id="Innia" class="node">
<title>Innia</title>
<ellipse fill="none" stroke="black" cx="403.43" cy="-477.5" rx="34.5" ry="18"/>
<text text-anchor="middle" x="403.43" y="-473.8" font-family="Times,serif" font-size="14.00">Innia</text>
</g>
<!-- Innia&#45;&#45;Martoh -->
<g id="edge22" class="edge">
<title>Innia&#45;&#45;Martoh</title>
<path fill="none" stroke="black" d="M394.1,-494.9C392.56,-497.79 390.95,-500.78 389.4,-503.68"/>
</g>
<!-- Innia&#45;&#45;Kinakka -->
<g id="edge23" class="edge">
<title>Innia&#45;&#45;Kinakka</title>
<path fill="none" stroke="black" d="M426.66,-490.82C435.39,-495.83 445.38,-501.56 454.38,-506.73"/>
</g>
<!-- Pavanakka -->
<g id="Pavanakka" class="node">
<title>Pavanakka</title>
<ellipse fill="none" stroke="black" cx="346.54" cy="-433.5" rx="60" ry="18"/>
<text text-anchor="middle" x="346.54" y="-429.8" font-family="Times,serif" font-size="14.00">Pavanakka</text>
</g>
<!-- Innia&#45;&#45;Pavanakka -->
<g id="edge24" class="edge">
<title>Innia&#45;&#45;Pavanakka</title>
<path fill="none" stroke="black" d="M383.85,-462.36C378.84,-458.48 373.42,-454.29 368.3,-450.33"/>
</g>
<!-- Iralaja -->
<g id="Iralaja" class="node">
<title>Iralaja</title>
<ellipse fill="none" stroke="black" cx="432.87" cy="-566.23" rx="40.5" ry="18"/>
<text text-anchor="middle" x="432.87" y="-562.53" font-family="Times,serif" font-size="14.00">Iralaja</text>
</g>
<!-- Iralaja&#45;&#45;Martoh -->
<g id="edge25" class="edge">
<title>Iralaja&#45;&#45;Martoh</title>
<path fill="none" stroke="black" d="M413.73,-550.09C408.98,-546.09 403.89,-541.8 399.13,-537.79"/>
</g>
<!-- Iralaja&#45;&#45;Raihbaka -->
<g id="edge26" class="edge">
<title>Iralaja&#45;&#45;Raihbaka</title>
<path fill="none" stroke="black" d="M473.02,-567.94C476.33,-568.08 479.7,-568.22 483.09,-568.37"/>
</g>
<!-- Eha -->
<g id="Eha" class="node">
<title>Eha</title>
<ellipse fill="none" stroke="black" cx="288.76" cy="-480.05" rx="28.7" ry="18"/>
<text text-anchor="middle" x="288.76" y="-476.35" font-family="Times,serif" font-size="14.00">Eha</text>
</g>
<!-- Eha&#45;&#45;Oicx -->
<g id="edge27" class="edge">
<title>Eha&#45;&#45;Oicx</title>
<path fill="none" stroke="black" d="M259.9,-478.34C250.44,-477.78 239.96,-477.16 230.63,-476.61"/>
</g>
<!-- Eha&#45;&#45;Martoh -->
<g id="edge28" class="edge">
<title>Eha&#45;&#45;Martoh</title>
<path fill="none" stroke="black" d="M312.21,-490.73C323.7,-495.97 337.67,-502.33 349.92,-507.9"/>
</g>
<!-- Eha&#45;&#45;Innia -->
<g id="edge29" class="edge">
<title>Eha&#45;&#45;Innia</title>
<path fill="none" stroke="black" d="M317.4,-479.41C332.92,-479.07 352.23,-478.64 368.61,-478.27"/>
</g>
<!-- Samanuni -->
<g id="Samanuni" class="node">
<title>Samanuni</title>
<ellipse fill="none" stroke="black" cx="656.75" cy="-419.42" rx="57.39" ry="18"/>
<text text-anchor="middle" x="656.75" y="-415.72" font-family="Times,serif" font-size="14.00">Samanuni</text>
</g>
<!-- Samanuni&#45;&#45;Athounon -->
<g id="edge30" class="edge">
<title>Samanuni&#45;&#45;Athounon</title>
<path fill="none" stroke="black" d="M704.08,-429.56C726.48,-434.36 753.01,-440.05 774.78,-444.72"/>
</g>
<!-- Samanuni&#45;&#45;Uuhulanen -->
<g id="edge31" class="edge">
<title>Samanuni&#45;&#45;Uuhulanen</title>
<path fill="none" stroke="black" d="M643.05,-437.07C640.82,-439.94 638.52,-442.91 636.29,-445.78"/>
</g>
<!-- Samanuni&#45;&#45;Uchomida -->
<g id="edge32" class="edge">
<title>Samanuni&#45;&#45;Uchomida</title>
<path fill="none" stroke="black" d="M676.46,-436.71C692.9,-451.12 716.19,-471.55 732.52,-485.88"/>
</g>
<!-- Astoh -->
<g id="Astoh" class="node">
<title>Astoh</title>
<ellipse fill="none" stroke="black" cx="554.19" cy="-418.89" rx="37.09" ry="18"/>
<text text-anchor="middle" x="554.19" y="-415.19" font-family="Times,serif" font-size="14.00">Astoh</text>
</g>
<!-- Astoh&#45;&#45;Uuhulanen -->
<g id="edge33" class="edge">
<title>Astoh&#45;&#45;Uuhulanen</title>
<path fill="none" stroke="black" d="M576.58,-433.48C583.13,-437.74 590.33,-442.43 597.06,-446.81"/>
</g>
<!-- Astoh&#45;&#45;Tsuruma -->
<g id="edge34" class="edge">
<title>Astoh&#45;&#45;Tsuruma</title>
<path fill="none" stroke="black" d="M537.71,-435.31C530.75,-442.25 522.64,-450.33 515.59,-457.36"/>
</g>
<!-- Okkamon -->
<g id="Okkamon" class="node">
<title>Okkamon</title>
<ellipse fill="none" stroke="black" cx="631.65" cy="-251.9" rx="54" ry="18"/>
<text text-anchor="middle" x="631.65" y="-248.2" font-family="Times,serif" font-size="14.00">Okkamon</text>
</g>
<!-- Reitsato -->
<g id="Reitsato" class="node">
<title>Reitsato</title>
<ellipse fill="none" stroke="black" cx="627.16" cy="-207.84" rx="49.5" ry="18"/>
<text text-anchor="middle" x="627.16" y="-204.14" font-family="Times,serif" font-size="14.00">Reitsato</text>
</g>
<!-- Okkamon&#45;&#45;Reitsato -->
<g id="edge35" class="edge">
<title>Okkamon&#45;&#45;Reitsato</title>
<path fill="none" stroke="black" d="M629.8,-233.73C629.54,-231.17 629.27,-228.53 629.01,-225.97"/>
</g>
<!-- Vaaralen -->
<g id="Vaaralen" class="node">
<title>Vaaralen</title>
<ellipse fill="none" stroke="black" cx="849.03" cy="-290.78" rx="51.5" ry="18"/>
<text text-anchor="middle" x="849.03" y="-287.08" font-family="Times,serif" font-size="14.00">Vaaralen</text>
</g>
<!-- Asakai -->
<g id="Asakai" class="node">
<title>Asakai</title>
<ellipse fill="none" stroke="black" cx="727.88" cy="-312.04" rx="41" ry="18"/>
<text text-anchor="middle" x="727.88" y="-308.34" font-family="Times,serif" font-size="14.00">Asakai</text>
</g>
<!-- Asakai&#45;&#45;Okkamon -->
<g id="edge36" class="edge">
<title>Asakai&#45;&#45;Okkamon</title>
<path fill="none" stroke="black" d="M704.09,-297.18C689.85,-288.27 671.73,-276.95 657.18,-267.86"/>
</g>
<!-- Asakai&#45;&#45;Vaaralen -->
<g id="edge37" class="edge">
<title>Asakai&#45;&#45;Vaaralen</title>
<path fill="none" stroke="black" d="M766.21,-305.31C777.86,-303.27 790.78,-301 802.88,-298.88"/>
</g>
<!-- Prism -->
<g id="Prism" class="node">
<title>Prism</title>
<ellipse fill="none" stroke="black" cx="733.27" cy="-369" rx="38.5" ry="18"/>
<text text-anchor="middle" x="733.27" y="-365.3" font-family="Times,serif" font-size="14.00">Prism</text>
</g>
<!-- Asakai&#45;&#45;Prism -->
<g id="edge38" class="edge">
<title>Asakai&#45;&#45;Prism</title>
<path fill="none" stroke="black" d="M729.59,-330.07C730.22,-336.71 730.93,-344.25 731.56,-350.9"/>
</g>
<!-- Mushikegi -->
<g id="Mushikegi" class="node">
<title>Mushikegi</title>
<ellipse fill="none" stroke="black" cx="753.24" cy="-246.73" rx="59.29" ry="18"/>
<text text-anchor="middle" x="753.24" y="-243.03" font-family="Times,serif" font-size="14.00">Mushikegi</text>
</g>
<!-- Asakai&#45;&#45;Mushikegi -->
<g id="edge39" class="edge">
<title>Asakai&#45;&#45;Mushikegi</title>
<path fill="none" stroke="black" d="M734.81,-294.2C738.33,-285.13 742.6,-274.14 746.14,-265.01"/>
</g>
<!-- Elunala -->
<g id="Elunala" class="node">
<title>Elunala</title>
<ellipse fill="none" stroke="black" cx="843.41" cy="-334.82" rx="46.29" ry="18"/>
<text text-anchor="middle" x="843.41" y="-331.12" font-family="Times,serif" font-size="14.00">Elunala</text>
</g>
<!-- Asakai&#45;&#45;Elunala -->
<g id="edge40" class="edge">
<title>Asakai&#45;&#45;Elunala</title>
<path fill="none" stroke="black" d="M765.39,-319.44C777.12,-321.75 790.12,-324.32 802.09,-326.68"/>
</g>
<!-- Ikoskio -->
<g id="Ikoskio" class="node">
<title>Ikoskio</title>
<ellipse fill="none" stroke="black" cx="637.06" cy="-374.84" rx="43.59" ry="18"/>
<text text-anchor="middle" x="637.06" y="-371.14" font-family="Times,serif" font-size="14.00">Ikoskio</text>
</g>
<!-- Asakai&#45;&#45;Ikoskio -->
<g id="edge41" class="edge">
<title>Asakai&#45;&#45;Ikoskio</title>
<path fill="none" stroke="black" d="M705.9,-327.24C691.83,-336.97 673.63,-349.56 659.47,-359.34"/>
</g>
<!-- Mushikegi&#45;&#45;Manjonakko -->
<g id="edge42" class="edge">
<title>Mushikegi&#45;&#45;Manjonakko</title>
<path fill="none" stroke="black" d="M780.54,-230.66C787.05,-226.83 794.04,-222.72 800.68,-218.81"/>
</g>
<!-- Mushikegi&#45;&#45;Okkamon -->
<g id="edge43" class="edge">
<title>Mushikegi&#45;&#45;Okkamon</title>
<path fill="none" stroke="black" d="M694.58,-249.22C691.54,-249.35 688.5,-249.48 685.48,-249.61"/>
</g>
<!-- Mushikegi&#45;&#45;Vaaralen -->
<g id="edge44" class="edge">
<title>Mushikegi&#45;&#45;Vaaralen</title>
<path fill="none" stroke="black" d="M785.93,-261.77C796.23,-266.5 807.57,-271.72 817.77,-276.4"/>
</g>
<!-- Elunala&#45;&#45;Prism -->
<g id="edge45" class="edge">
<title>Elunala&#45;&#45;Prism</title>
<path fill="none" stroke="black" d="M807.04,-346.11C793.63,-350.27 778.54,-354.95 765.52,-358.99"/>
</g>
<!-- Ikoskio&#45;&#45;Samanuni -->
<g id="edge46" class="edge">
<title>Ikoskio&#45;&#45;Samanuni</title>
<path fill="none" stroke="black" d="M644.96,-392.71C646.24,-395.62 647.57,-398.63 648.85,-401.54"/>
</g>
<!-- Ikoskio&#45;&#45;Prism -->
<g id="edge47" class="edge">
<title>Ikoskio&#45;&#45;Prism</title>
<path fill="none" stroke="black" d="M680.38,-372.21C685.27,-371.92 690.22,-371.62 695.04,-371.32"/>
</g>
<!-- Teskanen -->
<g id="Teskanen" class="node">
<title>Teskanen</title>
<ellipse fill="none" stroke="black" cx="962.35" cy="-289.2" rx="54" ry="18"/>
<text text-anchor="middle" x="962.35" y="-285.5" font-family="Times,serif" font-size="14.00">Teskanen</text>
</g>
<!-- Teskanen&#45;&#45;Vaaralen -->
<g id="edge48" class="edge">
<title>Teskanen&#45;&#45;Vaaralen</title>
<path fill="none" stroke="black" d="M908.35,-289.95C905.72,-289.99 903.09,-290.02 900.48,-290.06"/>
</g>
<!-- Hikkoken -->
<g id="Hikkoken" class="node">
<title>Hikkoken</title>
<ellipse fill="none" stroke="black" cx="402.12" cy="-252.85" rx="54" ry="18"/>
<text text-anchor="middle" x="402.12" y="-249.15" font-family="Times,serif" font-size="14.00">Hikkoken</text>
</g>
<!-- Immuri -->
<g id="Immuri" class="node">
<title>Immuri</title>
<ellipse fill="none" stroke="black" cx="286.51" cy="-221.69" rx="45" ry="18"/>
<text text-anchor="middle" x="286.51" y="-217.99" font-family="Times,serif" font-size="14.00">Immuri</text>
</g>
<!-- Hikkoken&#45;&#45;Immuri -->
<g id="edge49" class="edge">
<title>Hikkoken&#45;&#45;Immuri</title>
<path fill="none" stroke="black" d="M360.06,-241.51C348.18,-238.31 335.34,-234.85 323.76,-231.73"/>
</g>
<!-- Nennamaila -->
<g id="Nennamaila" class="node">
<title>Nennamaila</title>
<ellipse fill="none" stroke="black" cx="252.26" cy="-309.72" rx="66.5" ry="18"/>
<text text-anchor="middle" x="252.26" y="-306.02" font-family="Times,serif" font-size="14.00">Nennamaila</text>
</g>
<!-- Hikkoken&#45;&#45;Nennamaila -->
<g id="edge50" class="edge">
<title>Hikkoken&#45;&#45;Nennamaila</title>
<path fill="none" stroke="black" d="M366.23,-266.47C343.54,-275.08 314.23,-286.2 291.02,-295.01"/>
</g>
<!-- Pynekastoh -->
<g id="Pynekastoh" class="node">
<title>Pynekastoh</title>
<ellipse fill="none" stroke="black" cx="396.33" cy="-177.65" rx="64.5" ry="18"/>
<text text-anchor="middle" x="396.33" y="-173.95" font-family="Times,serif" font-size="14.00">Pynekastoh</text>
</g>
<!-- Hikkoken&#45;&#45;Pynekastoh -->
<g id="edge51" class="edge">
<title>Hikkoken&#45;&#45;Pynekastoh</title>
<path fill="none" stroke="black" d="M400.72,-234.65C399.81,-222.82 398.63,-207.48 397.72,-195.69"/>
</g>
<!-- Immuri&#45;&#45;Nennamaila -->
<g id="edge52" class="edge">
<title>Immuri&#45;&#45;Nennamaila</title>
<path fill="none" stroke="black" d="M279.58,-239.5C273.68,-254.67 265.23,-276.38 259.3,-291.63"/>
</g>
<!-- Nennamaila&#45;&#45;Aldranette -->
<g id="edge53" class="edge">
<title>Nennamaila&#45;&#45;Aldranette</title>
<path fill="none" stroke="black" d="M198.72,-299.05C178.51,-295.03 155.72,-290.49 136.25,-286.61"/>
</g>
<!-- Rakapas -->
<g id="Rakapas" class="node">
<title>Rakapas</title>
<ellipse fill="none" stroke="black" cx="518.83" cy="-219.2" rx="50.09" ry="18"/>
<text text-anchor="middle" x="518.83" y="-215.5" font-family="Times,serif" font-size="14.00">Rakapas</text>
</g>
<!-- Pynekastoh&#45;&#45;Rakapas -->
<g id="edge54" class="edge">
<title>Pynekastoh&#45;&#45;Rakapas</title>
<path fill="none" stroke="black" d="M437.46,-191.6C451.92,-196.51 468.06,-201.98 482.13,-206.75"/>
</g>
<!-- Rakapas&#45;&#45;Reitsato -->
<g id="edge55" class="edge">
<title>Rakapas&#45;&#45;Reitsato</title>
<path fill="none" stroke="black" d="M566.98,-214.16C571.16,-213.72 575.39,-213.27 579.57,-212.84"/>
</g>
<!-- Enaluri -->
<g id="Enaluri" class="node">
<title>Enaluri</title>
<ellipse fill="none" stroke="black" cx="132.99" cy="-322.52" rx="45" ry="18"/>
<text text-anchor="middle" x="132.99" y="-318.82" font-family="Times,serif" font-size="14.00">Enaluri</text>
</g>
<!-- Enaluri&#45;&#45;Nennamaila -->
<g id="edge56" class="edge">
<title>Enaluri&#45;&#45;Nennamaila</title>
<path fill="none" stroke="black" d="M176.39,-317.86C180.92,-317.37 185.58,-316.87 190.26,-316.37"/>
</g>
<!-- Hallanen -->
<g id="Hallanen" class="node">
<title>Hallanen</title>
<ellipse fill="none" stroke="black" cx="205.81" cy="-265.71" rx="52" ry="18"/>
<text text-anchor="middle" x="205.81" y="-262.01" font-family="Times,serif" font-size="14.00">Hallanen</text>
</g>
<!-- Enaluri&#45;&#45;Hallanen -->
<g id="edge57" class="edge">
<title>Enaluri&#45;&#45;Hallanen</title>
<path fill="none" stroke="black" d="M153.66,-306.39C163.33,-298.85 174.84,-289.87 184.58,-282.27"/>
</g>
<!-- Hallanen&#45;&#45;Hikkoken -->
<g id="edge58" class="edge">
<title>Hallanen&#45;&#45;Hikkoken</title>
<path fill="none" stroke="black" d="M257.13,-262.35C285.42,-260.49 320.49,-258.2 349.05,-256.33"/>
</g>
<!-- Aivonen -->
<g id="Aivonen" class="node">
<title>Aivonen</title>
<ellipse fill="none" stroke="black" cx="230.56" cy="-397.76" rx="48.19" ry="18"/>
<text text-anchor="middle" x="230.56" y="-394.06" font-family="Times,serif" font-size="14.00">Aivonen</text>
</g>
<!-- Aivonen&#45;&#45;Pavanakka -->
<g id="edge59" class="edge">
<title>Aivonen&#45;&#45;Pavanakka</title>
<path fill="none" stroke="black" d="M267.9,-409.27C279.55,-412.86 292.49,-416.84 304.45,-420.53"/>
</g>
<!-- Akidagi -->
<g id="Akidagi" class="node">
<title>Akidagi</title>
<ellipse fill="none" stroke="black" cx="234.02" cy="-353.73" rx="45.5" ry="18"/>
<text text-anchor="middle" x="234.02" y="-350.03" font-family="Times,serif" font-size="14.00">Akidagi</text>
</g>
<!-- Aivonen&#45;&#45;Akidagi -->
<g id="edge60" class="edge">
<title>Aivonen&#45;&#45;Akidagi</title>
<path fill="none" stroke="black" d="M231.99,-379.6C232.19,-377.04 232.39,-374.41 232.59,-371.85"/>
</g>
<!-- Akidagi&#45;&#45;Nennamaila -->
<g id="edge61" class="edge">
<title>Akidagi&#45;&#45;Nennamaila</title>
<path fill="none" stroke="black" d="M241.44,-335.83C242.54,-333.16 243.68,-330.41 244.79,-327.75"/>
</g>
<!-- Akidagi&#45;&#45;Enaluri -->
<g id="edge62" class="edge">
<title>Akidagi&#45;&#45;Enaluri</title>
<path fill="none" stroke="black" d="M198.11,-342.64C188.58,-339.7 178.3,-336.52 168.77,-333.58"/>
</g>
<!-- Hirri -->
<g id="Hirri" class="node">
<title>Hirri</title>
<ellipse fill="none" stroke="black" cx="501.86" cy="-136.94" rx="33.29" ry="18"/>
<text text-anchor="middle" x="501.86" y="-133.24" font-family="Times,serif" font-size="14.00">Hirri</text>
</g>
<!-- Hirri&#45;&#45;Pynekastoh -->
<g id="edge63" class="edge">
<title>Hirri&#45;&#45;Pynekastoh</title>
<path fill="none" stroke="black" d="M474.69,-147.42C462.35,-152.18 447.55,-157.89 434.16,-163.06"/>
</g>
<!-- Kedama -->
<g id="Kedama" class="node">
<title>Kedama</title>
<ellipse fill="none" stroke="black" cx="591.16" cy="-163.75" rx="48.19" ry="18"/>
<text text-anchor="middle" x="591.16" y="-160.05" font-family="Times,serif" font-size="14.00">Kedama</text>
</g>
<!-- Hirri&#45;&#45;Kedama -->
<g id="edge64" class="edge">
<title>Hirri&#45;&#45;Kedama</title>
<path fill="none" stroke="black" d="M531.1,-145.72C538.22,-147.86 545.94,-150.17 553.39,-152.41"/>
</g>
<!-- Nisuwa -->
<g id="Nisuwa" class="node">
<title>Nisuwa</title>
<ellipse fill="none" stroke="black" cx="514.04" cy="-92.93" rx="45.5" ry="18"/>
<text text-anchor="middle" x="514.04" y="-89.23" font-family="Times,serif" font-size="14.00">Nisuwa</text>
</g>
<!-- Hirri&#45;&#45;Nisuwa -->
<g id="edge65" class="edge">
<title>Hirri&#45;&#45;Nisuwa</title>
<path fill="none" stroke="black" d="M506.82,-119.04C507.56,-116.37 508.32,-113.62 509.06,-110.96"/>
</g>
<!-- Kedama&#45;&#45;Tama -->
<g id="edge66" class="edge">
<title>Kedama&#45;&#45;Tama</title>
<path fill="none" stroke="black" d="M596.29,-145.72C600.66,-130.37 606.92,-108.41 611.31,-92.98"/>
</g>
<!-- Kedama&#45;&#45;Reitsato -->
<g id="edge67" class="edge">
<title>Kedama&#45;&#45;Reitsato</title>
<path fill="none" stroke="black" d="M605.39,-181.18C607.9,-184.26 610.52,-187.47 613.03,-190.54"/>
</g>
<!-- Kedama&#45;&#45;Nisuwa -->
<g id="edge68" class="edge">
<title>Kedama&#45;&#45;Nisuwa</title>
<path fill="none" stroke="black" d="M572.88,-146.97C560.59,-135.68 544.45,-120.86 532.19,-109.59"/>
</g>
<!-- Teimo -->
<g id="Teimo" class="node">
<title>Teimo</title>
<ellipse fill="none" stroke="black" cx="680.6" cy="-119.73" rx="38.5" ry="18"/>
<text text-anchor="middle" x="680.6" y="-116.03" font-family="Times,serif" font-size="14.00">Teimo</text>
</g>
<!-- Kedama&#45;&#45;Teimo -->
<g id="edge69" class="edge">
<title>Kedama&#45;&#45;Teimo</title>
<path fill="none" stroke="black" d="M620.44,-149.34C631.24,-144.02 643.41,-138.03 653.97,-132.84"/>
</g>
<!-- Oinasiken -->
<g id="Oinasiken" class="node">
<title>Oinasiken</title>
<ellipse fill="none" stroke="black" cx="392.93" cy="-125.26" rx="56.59" ry="18"/>
<text text-anchor="middle" x="392.93" y="-121.56" font-family="Times,serif" font-size="14.00">Oinasiken</text>
</g>
<!-- Nisuwa&#45;&#45;Oinasiken -->
<g id="edge70" class="edge">
<title>Nisuwa&#45;&#45;Oinasiken</title>
<path fill="none" stroke="black" d="M476.06,-103.07C463.43,-106.44 449.28,-110.22 436.28,-113.69"/>
</g>
<!-- Notoras -->
<g id="Notoras" class="node">
<title>Notoras</title>
<ellipse fill="none" stroke="black" cx="530.32" cy="-18" rx="48.19" ry="18"/>
<text text-anchor="middle" x="530.32" y="-14.3" font-family="Times,serif" font-size="14.00">Notoras</text>
</g>
<!-- Nisuwa&#45;&#45;Notoras -->
<g id="edge71" class="edge">
<title>Nisuwa&#45;&#45;Notoras</title>
<path fill="none" stroke="black" d="M517.99,-74.79C520.54,-63.01 523.87,-47.72 526.42,-35.97"/>
</g>
<!-- Oinasiken&#45;&#45;Abune -->
<g id="edge72" class="edge">
<title>Oinasiken&#45;&#45;Abune</title>
<path fill="none" stroke="black" d="M380.42,-107.54C378.46,-104.76 376.42,-101.87 374.45,-99.08"/>
</g>
<!-- Oinasiken&#45;&#45;Pynekastoh -->
<g id="edge73" class="edge">
<title>Oinasiken&#45;&#45;Pynekastoh</title>
<path fill="none" stroke="black" d="M394.1,-143.29C394.44,-148.5 394.81,-154.19 395.15,-159.41"/>
</g>
<!-- Iwisoda -->
<g id="Iwisoda" class="node">
<title>Iwisoda</title>
<ellipse fill="none" stroke="black" cx="511.45" cy="-266.84" rx="46.29" ry="18"/>
<text text-anchor="middle" x="511.45" y="-263.14" font-family="Times,serif" font-size="14.00">Iwisoda</text>
</g>
<!-- Iwisoda&#45;&#45;Rakapas -->
<g id="edge74" class="edge">
<title>Iwisoda&#45;&#45;Rakapas</title>
<path fill="none" stroke="black" d="M514.24,-248.83C514.83,-245.04 515.45,-241.03 516.04,-237.24"/>
</g>
</g>
</svg>
