<?xml version="1.0" encoding="UTF-8" standalone="no"?>
<!DOCTYPE svg PUBLIC "-//W3C//DTD SVG 1.1//EN"
 "http://www.w3.org/Graphics/SVG/1.1/DTD/svg11.dtd">
<!-- Generated by graphviz version 2.43.0 (0)
 -->
<!-- Pages: 1 -->
<svg width="961pt" height="740pt"
 viewBox="0.00 0.00 961.46 739.79" xmlns="http://www.w3.org/2000/svg" xmlns:xlink="http://www.w3.org/1999/xlink">
<g id="graph0" class="graph" transform="scale(1 1) rotate(0) translate(4 735.79)">
<polygon fill="white" stroke="transparent" points="-4,4 -4,-735.79 957.46,-735.79 957.46,4 -4,4"/>
<!-- 7D&#45;0SQ -->
<g id="_7D&#45;0SQ" class="node">
<title>7D&#45;0SQ</title>
<polygon fill="none" stroke="black" points="773.84,-86.24 702.84,-86.24 702.84,-50.24 773.84,-50.24 773.84,-86.24"/>
<text text-anchor="middle" x="738.34" y="-64.54" font-family="Times,serif" font-size="14.00">7D&#45;0SQ</text>
</g>
<!-- A&#45;SJ8X -->
<g id="A&#45;SJ8X" class="node">
<title>A&#45;SJ8X</title>
<polygon fill="none" stroke="black" points="953.46,-322.32 888.46,-322.32 888.46,-286.32 953.46,-286.32 953.46,-322.32"/>
<text text-anchor="middle" x="920.96" y="-300.62" font-family="Times,serif" font-size="14.00">A&#45;SJ8X</text>
</g>
<!-- E9KD&#45;N -->
<g id="E9KD&#45;N" class="node">
<title>E9KD&#45;N</title>
<polygon fill="none" stroke="black" points="74,-316.73 0,-316.73 0,-280.73 74,-280.73 74,-316.73"/>
<text text-anchor="middle" x="37" y="-295.03" font-family="Times,serif" font-size="14.00">E9KD&#45;N</text>
</g>
<!-- Alsavoinon -->
<g id="Alsavoinon" class="node">
<title>Alsavoinon</title>
<polygon fill="none" stroke="black" points="510.44,-731.79 416.44,-731.79 416.44,-695.79 510.44,-695.79 510.44,-731.79"/>
<text text-anchor="middle" x="463.44" y="-710.09" font-family="Times,serif" font-size="14.00">Alsavoinon</text>
</g>
<!-- 1&#45;3HWZ -->
<g id="_1&#45;3HWZ" class="node">
<title>1&#45;3HWZ</title>
<ellipse fill="none" stroke="black" cx="830.05" cy="-304.51" rx="48.99" ry="18"/>
<text text-anchor="middle" x="830.05" y="-300.81" font-family="Times,serif" font-size="14.00">1&#45;3HWZ</text>
</g>
<!-- 1&#45;3HWZ&#45;&#45;A&#45;SJ8X -->
<g id="edge1" class="edge">
<title>1&#45;3HWZ&#45;&#45;A&#45;SJ8X</title>
<path fill="none" stroke="black" d="M878.97,-304.41C882.16,-304.4 885.33,-304.4 888.42,-304.39"/>
</g>
<!-- XT&#45;R36 -->
<g id="XT&#45;R36" class="node">
<title>XT&#45;R36</title>
<ellipse fill="none" stroke="black" cx="726.85" cy="-327.48" rx="43.59" ry="18"/>
<text text-anchor="middle" x="726.85" y="-323.78" font-family="Times,serif" font-size="14.00">XT&#45;R36</text>
</g>
<!-- 1&#45;3HWZ&#45;&#45;XT&#45;R36 -->
<g id="edge2" class="edge">
<title>1&#45;3HWZ&#45;&#45;XT&#45;R36</title>
<path fill="none" stroke="black" d="M788.07,-313.85C780.59,-315.52 772.84,-317.24 765.46,-318.89"/>
</g>
<!-- 5&#45;MLDT -->
<g id="_5&#45;MLDT" class="node">
<title>5&#45;MLDT</title>
<ellipse fill="none" stroke="black" cx="746.34" cy="-397.74" rx="48.19" ry="18"/>
<text text-anchor="middle" x="746.34" y="-394.04" font-family="Times,serif" font-size="14.00">5&#45;MLDT</text>
</g>
<!-- 5&#45;MLDT&#45;&#45;XT&#45;R36 -->
<g id="edge3" class="edge">
<title>5&#45;MLDT&#45;&#45;XT&#45;R36</title>
<path fill="none" stroke="black" d="M741.32,-379.65C738.43,-369.24 734.82,-356.2 731.92,-345.76"/>
</g>
<!-- B&#45;DBYQ -->
<g id="B&#45;DBYQ" class="node">
<title>B&#45;DBYQ</title>
<ellipse fill="none" stroke="black" cx="635.12" cy="-390.14" rx="47.5" ry="18"/>
<text text-anchor="middle" x="635.12" y="-386.44" font-family="Times,serif" font-size="14.00">B&#45;DBYQ</text>
</g>
<!-- 5&#45;MLDT&#45;&#45;B&#45;DBYQ -->
<g id="edge4" class="edge">
<title>5&#45;MLDT&#45;&#45;B&#45;DBYQ</title>
<path fill="none" stroke="black" d="M698.85,-394.5C693.3,-394.12 687.64,-393.73 682.1,-393.35"/>
</g>
<!-- IZ&#45;AOB -->
<g id="IZ&#45;AOB" class="node">
<title>IZ&#45;AOB</title>
<polygon fill="none" stroke="black" points="834.99,-460.28 766.99,-460.28 766.99,-424.28 834.99,-424.28 834.99,-460.28"/>
<text text-anchor="middle" x="800.99" y="-438.58" font-family="Times,serif" font-size="14.00">IZ&#45;AOB</text>
</g>
<!-- 5&#45;MLDT&#45;&#45;IZ&#45;AOB -->
<g id="edge5" class="edge">
<title>5&#45;MLDT&#45;&#45;IZ&#45;AOB</title>
<path fill="none" stroke="black" d="M766.69,-414.32C770.58,-417.49 774.66,-420.82 778.6,-424.03"/>
</g>
<!-- QXW&#45;PV -->
<g id="QXW&#45;PV" class="node">
<title>QXW&#45;PV</title>
<ellipse fill="none" stroke="black" cx="620.69" cy="-302.08" rx="48.99" ry="18"/>
<text text-anchor="middle" x="620.69" y="-298.38" font-family="Times,serif" font-size="14.00">QXW&#45;PV</text>
</g>
<!-- B&#45;DBYQ&#45;&#45;QXW&#45;PV -->
<g id="edge6" class="edge">
<title>B&#45;DBYQ&#45;&#45;QXW&#45;PV</title>
<path fill="none" stroke="black" d="M632.13,-371.89C629.66,-356.78 626.15,-335.41 623.68,-320.3"/>
</g>
<!-- DY&#45;F70 -->
<g id="DY&#45;F70" class="node">
<title>DY&#45;F70</title>
<ellipse fill="none" stroke="black" cx="617.52" cy="-436.38" rx="44.39" ry="18"/>
<text text-anchor="middle" x="617.52" y="-432.68" font-family="Times,serif" font-size="14.00">DY&#45;F70</text>
</g>
<!-- B&#45;DBYQ&#45;&#45;DY&#45;F70 -->
<g id="edge7" class="edge">
<title>B&#45;DBYQ&#45;&#45;DY&#45;F70</title>
<path fill="none" stroke="black" d="M628.27,-408.15C626.99,-411.5 625.66,-415 624.39,-418.34"/>
</g>
<!-- J5A&#45;IX -->
<g id="J5A&#45;IX" class="node">
<title>J5A&#45;IX</title>
<polygon fill="none" stroke="black" points="606.66,-364.08 546.66,-364.08 546.66,-328.08 606.66,-328.08 606.66,-364.08"/>
<text text-anchor="middle" x="576.66" y="-342.38" font-family="Times,serif" font-size="14.00">J5A&#45;IX</text>
</g>
<!-- B&#45;DBYQ&#45;&#45;J5A&#45;IX -->
<g id="edge8" class="edge">
<title>B&#45;DBYQ&#45;&#45;J5A&#45;IX</title>
<path fill="none" stroke="black" d="M613.69,-373.98C609.51,-370.84 605.11,-367.52 600.86,-364.32"/>
</g>
<!-- QXW&#45;PV&#45;&#45;XT&#45;R36 -->
<g id="edge9" class="edge">
<title>QXW&#45;PV&#45;&#45;XT&#45;R36</title>
<path fill="none" stroke="black" d="M661.73,-311.9C670.72,-314.05 680.19,-316.31 689.04,-318.43"/>
</g>
<!-- FD53&#45;H -->
<g id="FD53&#45;H" class="node">
<title>FD53&#45;H</title>
<ellipse fill="none" stroke="black" cx="610.48" cy="-481.82" rx="47" ry="18"/>
<text text-anchor="middle" x="610.48" y="-478.12" font-family="Times,serif" font-size="14.00">FD53&#45;H</text>
</g>
<!-- DY&#45;F70&#45;&#45;FD53&#45;H -->
<g id="edge10" class="edge">
<title>DY&#45;F70&#45;&#45;FD53&#45;H</title>
<path fill="none" stroke="black" d="M614.7,-454.6C614.24,-457.56 613.77,-460.63 613.31,-463.6"/>
</g>
<!-- O&#45;ZXUV -->
<g id="O&#45;ZXUV" class="node">
<title>O&#45;ZXUV</title>
<ellipse fill="none" stroke="black" cx="510.29" cy="-538.06" rx="48.19" ry="18"/>
<text text-anchor="middle" x="510.29" y="-534.36" font-family="Times,serif" font-size="14.00">O&#45;ZXUV</text>
</g>
<!-- FD53&#45;H&#45;&#45;O&#45;ZXUV -->
<g id="edge11" class="edge">
<title>FD53&#45;H&#45;&#45;O&#45;ZXUV</title>
<path fill="none" stroke="black" d="M583.9,-496.74C569.4,-504.88 551.51,-514.92 537,-523.07"/>
</g>
<!-- 77&#45;KDQ -->
<g id="_77&#45;KDQ" class="node">
<title>77&#45;KDQ</title>
<ellipse fill="none" stroke="black" cx="566.16" cy="-582.29" rx="47" ry="18"/>
<text text-anchor="middle" x="566.16" y="-578.59" font-family="Times,serif" font-size="14.00">77&#45;KDQ</text>
</g>
<!-- 77&#45;KDQ&#45;&#45;O&#45;ZXUV -->
<g id="edge12" class="edge">
<title>77&#45;KDQ&#45;&#45;O&#45;ZXUV</title>
<path fill="none" stroke="black" d="M545.67,-566.07C540.94,-562.32 535.9,-558.33 531.15,-554.57"/>
</g>
<!-- F7C&#45;H0 -->
<g id="F7C&#45;H0" class="node">
<title>F7C&#45;H0</title>
<ellipse fill="none" stroke="black" cx="464.29" cy="-626.2" rx="46.29" ry="18"/>
<text text-anchor="middle" x="464.29" y="-622.5" font-family="Times,serif" font-size="14.00">F7C&#45;H0</text>
</g>
<!-- 77&#45;KDQ&#45;&#45;F7C&#45;H0 -->
<g id="edge13" class="edge">
<title>77&#45;KDQ&#45;&#45;F7C&#45;H0</title>
<path fill="none" stroke="black" d="M534.76,-595.82C522.25,-601.22 507.89,-607.41 495.4,-612.79"/>
</g>
<!-- TN&#45;T7T -->
<g id="TN&#45;T7T" class="node">
<title>TN&#45;T7T</title>
<ellipse fill="none" stroke="black" cx="563.35" cy="-668.88" rx="45" ry="18"/>
<text text-anchor="middle" x="563.35" y="-665.18" font-family="Times,serif" font-size="14.00">TN&#45;T7T</text>
</g>
<!-- 77&#45;KDQ&#45;&#45;TN&#45;T7T -->
<g id="edge14" class="edge">
<title>77&#45;KDQ&#45;&#45;TN&#45;T7T</title>
<path fill="none" stroke="black" d="M565.56,-600.65C565.08,-615.45 564.41,-636.13 563.93,-650.84"/>
</g>
<!-- F7C&#45;H0&#45;&#45;Alsavoinon -->
<g id="edge15" class="edge">
<title>F7C&#45;H0&#45;&#45;Alsavoinon</title>
<path fill="none" stroke="black" d="M464.11,-644.35C463.97,-659.38 463.76,-680.64 463.62,-695.67"/>
</g>
<!-- F7C&#45;H0&#45;&#45;O&#45;ZXUV -->
<g id="edge16" class="edge">
<title>F7C&#45;H0&#45;&#45;O&#45;ZXUV</title>
<path fill="none" stroke="black" d="M473.6,-608.37C481.58,-593.07 493.02,-571.16 501,-555.87"/>
</g>
<!-- 1&#45;NW2G -->
<g id="_1&#45;NW2G" class="node">
<title>1&#45;NW2G</title>
<ellipse fill="none" stroke="black" cx="503.96" cy="-494.04" rx="50.09" ry="18"/>
<text text-anchor="middle" x="503.96" y="-490.34" font-family="Times,serif" font-size="14.00">1&#45;NW2G</text>
</g>
<!-- 1&#45;NW2G&#45;&#45;O&#45;ZXUV -->
<g id="edge17" class="edge">
<title>1&#45;NW2G&#45;&#45;O&#45;ZXUV</title>
<path fill="none" stroke="black" d="M506.57,-512.2C506.94,-514.76 507.32,-517.39 507.69,-519.94"/>
</g>
<!-- O&#45;IVNH -->
<g id="O&#45;IVNH" class="node">
<title>O&#45;IVNH</title>
<ellipse fill="none" stroke="black" cx="518.01" cy="-437.66" rx="47" ry="18"/>
<text text-anchor="middle" x="518.01" y="-433.96" font-family="Times,serif" font-size="14.00">O&#45;IVNH</text>
</g>
<!-- 1&#45;NW2G&#45;&#45;O&#45;IVNH -->
<g id="edge18" class="edge">
<title>1&#45;NW2G&#45;&#45;O&#45;IVNH</title>
<path fill="none" stroke="black" d="M508.49,-475.89C510.09,-469.45 511.9,-462.21 513.5,-455.77"/>
</g>
<!-- O&#45;0HW8 -->
<g id="O&#45;0HW8" class="node">
<title>O&#45;0HW8</title>
<ellipse fill="none" stroke="black" cx="394.73" cy="-540.4" rx="50.09" ry="18"/>
<text text-anchor="middle" x="394.73" y="-536.7" font-family="Times,serif" font-size="14.00">O&#45;0HW8</text>
</g>
<!-- O&#45;0HW8&#45;&#45;O&#45;ZXUV -->
<g id="edge19" class="edge">
<title>O&#45;0HW8&#45;&#45;O&#45;ZXUV</title>
<path fill="none" stroke="black" d="M444.75,-539.39C450.48,-539.27 456.32,-539.15 462.03,-539.04"/>
</g>
<!-- YI&#45;8ZM -->
<g id="YI&#45;8ZM" class="node">
<title>YI&#45;8ZM</title>
<ellipse fill="none" stroke="black" cx="292.37" cy="-509.24" rx="44.39" ry="18"/>
<text text-anchor="middle" x="292.37" y="-505.54" font-family="Times,serif" font-size="14.00">YI&#45;8ZM</text>
</g>
<!-- O&#45;0HW8&#45;&#45;YI&#45;8ZM -->
<g id="edge20" class="edge">
<title>O&#45;0HW8&#45;&#45;YI&#45;8ZM</title>
<path fill="none" stroke="black" d="M356.32,-528.71C347.02,-525.88 337.12,-522.86 327.95,-520.07"/>
</g>
<!-- OU&#45;X3P -->
<g id="OU&#45;X3P" class="node">
<title>OU&#45;X3P</title>
<ellipse fill="none" stroke="black" cx="241.08" cy="-555.16" rx="47" ry="18"/>
<text text-anchor="middle" x="241.08" y="-551.46" font-family="Times,serif" font-size="14.00">OU&#45;X3P</text>
</g>
<!-- OU&#45;X3P&#45;&#45;YI&#45;8ZM -->
<g id="edge21" class="edge">
<title>OU&#45;X3P&#45;&#45;YI&#45;8ZM</title>
<path fill="none" stroke="black" d="M259.6,-538.58C264.3,-534.37 269.36,-529.84 274.05,-525.64"/>
</g>
<!-- Q&#45;UA3C -->
<g id="Q&#45;UA3C" class="node">
<title>Q&#45;UA3C</title>
<ellipse fill="none" stroke="black" cx="177.21" cy="-511.12" rx="48.19" ry="18"/>
<text text-anchor="middle" x="177.21" y="-507.42" font-family="Times,serif" font-size="14.00">Q&#45;UA3C</text>
</g>
<!-- OU&#45;X3P&#45;&#45;Q&#45;UA3C -->
<g id="edge22" class="edge">
<title>OU&#45;X3P&#45;&#45;Q&#45;UA3C</title>
<path fill="none" stroke="black" d="M218.02,-539.26C212.31,-535.32 206.18,-531.09 200.45,-527.15"/>
</g>
<!-- 6&#45;4V20 -->
<g id="_6&#45;4V20" class="node">
<title>6&#45;4V20</title>
<ellipse fill="none" stroke="black" cx="339.46" cy="-584.95" rx="43.59" ry="18"/>
<text text-anchor="middle" x="339.46" y="-581.25" font-family="Times,serif" font-size="14.00">6&#45;4V20</text>
</g>
<!-- 6&#45;4V20&#45;&#45;O&#45;0HW8 -->
<g id="edge23" class="edge">
<title>6&#45;4V20&#45;&#45;O&#45;0HW8</title>
<path fill="none" stroke="black" d="M359.41,-568.87C364.24,-564.98 369.4,-560.82 374.25,-556.91"/>
</g>
<!-- 6&#45;4V20&#45;&#45;YI&#45;8ZM -->
<g id="edge24" class="edge">
<title>6&#45;4V20&#45;&#45;YI&#45;8ZM</title>
<path fill="none" stroke="black" d="M328.54,-567.39C320.93,-555.16 310.83,-538.91 303.23,-526.7"/>
</g>
<!-- W&#45;4NUU -->
<g id="W&#45;4NUU" class="node">
<title>W&#45;4NUU</title>
<ellipse fill="none" stroke="black" cx="299.81" cy="-652.5" rx="52" ry="18"/>
<text text-anchor="middle" x="299.81" y="-648.8" font-family="Times,serif" font-size="14.00">W&#45;4NUU</text>
</g>
<!-- 6&#45;4V20&#45;&#45;W&#45;4NUU -->
<g id="edge25" class="edge">
<title>6&#45;4V20&#45;&#45;W&#45;4NUU</title>
<path fill="none" stroke="black" d="M329.04,-602.7C323.26,-612.55 316.09,-624.77 310.29,-634.64"/>
</g>
<!-- Okagaiken -->
<g id="Okagaiken" class="node">
<title>Okagaiken</title>
<polygon fill="none" stroke="black" points="313.2,-730.55 221.2,-730.55 221.2,-694.55 313.2,-694.55 313.2,-730.55"/>
<text text-anchor="middle" x="267.2" y="-708.85" font-family="Times,serif" font-size="14.00">Okagaiken</text>
</g>
<!-- W&#45;4NUU&#45;&#45;Okagaiken -->
<g id="edge26" class="edge">
<title>W&#45;4NUU&#45;&#45;Okagaiken</title>
<path fill="none" stroke="black" d="M290.2,-670.19C286.07,-677.8 281.24,-686.7 277.08,-694.36"/>
</g>
<!-- 8R&#45;RTB -->
<g id="_8R&#45;RTB" class="node">
<title>8R&#45;RTB</title>
<ellipse fill="none" stroke="black" cx="250.75" cy="-465.22" rx="46.29" ry="18"/>
<text text-anchor="middle" x="250.75" y="-461.52" font-family="Times,serif" font-size="14.00">8R&#45;RTB</text>
</g>
<!-- 8R&#45;RTB&#45;&#45;YI&#45;8ZM -->
<g id="edge27" class="edge">
<title>8R&#45;RTB&#45;&#45;YI&#45;8ZM</title>
<path fill="none" stroke="black" d="M266.73,-482.12C269.84,-485.41 273.11,-488.87 276.24,-492.17"/>
</g>
<!-- 8R&#45;RTB&#45;&#45;Q&#45;UA3C -->
<g id="edge28" class="edge">
<title>8R&#45;RTB&#45;&#45;Q&#45;UA3C</title>
<path fill="none" stroke="black" d="M226.27,-480.51C218.49,-485.36 209.9,-490.72 202.1,-495.59"/>
</g>
<!-- PPG&#45;XC -->
<g id="PPG&#45;XC" class="node">
<title>PPG&#45;XC</title>
<ellipse fill="none" stroke="black" cx="244.27" cy="-416.89" rx="47" ry="18"/>
<text text-anchor="middle" x="244.27" y="-413.19" font-family="Times,serif" font-size="14.00">PPG&#45;XC</text>
</g>
<!-- 8R&#45;RTB&#45;&#45;PPG&#45;XC -->
<g id="edge29" class="edge">
<title>8R&#45;RTB&#45;&#45;PPG&#45;XC</title>
<path fill="none" stroke="black" d="M248.34,-447.23C247.81,-443.26 247.24,-439.05 246.71,-435.07"/>
</g>
<!-- QA1&#45;BT -->
<g id="QA1&#45;BT" class="node">
<title>QA1&#45;BT</title>
<ellipse fill="none" stroke="black" cx="136.88" cy="-449.26" rx="46.29" ry="18"/>
<text text-anchor="middle" x="136.88" y="-445.56" font-family="Times,serif" font-size="14.00">QA1&#45;BT</text>
</g>
<!-- PPG&#45;XC&#45;&#45;QA1&#45;BT -->
<g id="edge30" class="edge">
<title>PPG&#45;XC&#45;&#45;QA1&#45;BT</title>
<path fill="none" stroke="black" d="M207.31,-428.03C196.39,-431.32 184.44,-434.92 173.54,-438.21"/>
</g>
<!-- 6Z9&#45;0M -->
<g id="_6Z9&#45;0M" class="node">
<title>6Z9&#45;0M</title>
<ellipse fill="none" stroke="black" cx="439.45" cy="-75.54" rx="47" ry="18"/>
<text text-anchor="middle" x="439.45" y="-71.84" font-family="Times,serif" font-size="14.00">6Z9&#45;0M</text>
</g>
<!-- FQ9W&#45;C -->
<g id="FQ9W&#45;C" class="node">
<title>FQ9W&#45;C</title>
<ellipse fill="none" stroke="black" cx="543.08" cy="-92.35" rx="48.99" ry="18"/>
<text text-anchor="middle" x="543.08" y="-88.65" font-family="Times,serif" font-size="14.00">FQ9W&#45;C</text>
</g>
<!-- 6Z9&#45;0M&#45;&#45;FQ9W&#45;C -->
<g id="edge31" class="edge">
<title>6Z9&#45;0M&#45;&#45;FQ9W&#45;C</title>
<path fill="none" stroke="black" d="M482.8,-82.57C487.9,-83.4 493.12,-84.25 498.24,-85.08"/>
</g>
<!-- U65&#45;CN -->
<g id="U65&#45;CN" class="node">
<title>U65&#45;CN</title>
<ellipse fill="none" stroke="black" cx="336.5" cy="-105.19" rx="48.19" ry="18"/>
<text text-anchor="middle" x="336.5" y="-101.49" font-family="Times,serif" font-size="14.00">U65&#45;CN</text>
</g>
<!-- 6Z9&#45;0M&#45;&#45;U65&#45;CN -->
<g id="edge32" class="edge">
<title>6Z9&#45;0M&#45;&#45;U65&#45;CN</title>
<path fill="none" stroke="black" d="M401.7,-86.41C392.97,-88.92 383.68,-91.6 374.93,-94.12"/>
</g>
<!-- X&#45;M9ON -->
<g id="X&#45;M9ON" class="node">
<title>X&#45;M9ON</title>
<ellipse fill="none" stroke="black" cx="269.3" cy="-181.8" rx="50.09" ry="18"/>
<text text-anchor="middle" x="269.3" y="-178.1" font-family="Times,serif" font-size="14.00">X&#45;M9ON</text>
</g>
<!-- U65&#45;CN&#45;&#45;X&#45;M9ON -->
<g id="edge33" class="edge">
<title>U65&#45;CN&#45;&#45;X&#45;M9ON</title>
<path fill="none" stroke="black" d="M321.25,-122.57C310.25,-135.11 295.47,-151.96 284.49,-164.48"/>
</g>
<!-- 9&#45;4RP2 -->
<g id="_9&#45;4RP2" class="node">
<title>9&#45;4RP2</title>
<ellipse fill="none" stroke="black" cx="644.05" cy="-114.29" rx="44.39" ry="18"/>
<text text-anchor="middle" x="644.05" y="-110.59" font-family="Times,serif" font-size="14.00">9&#45;4RP2</text>
</g>
<!-- 9&#45;4RP2&#45;&#45;FQ9W&#45;C -->
<g id="edge34" class="edge">
<title>9&#45;4RP2&#45;&#45;FQ9W&#45;C</title>
<path fill="none" stroke="black" d="M605.01,-105.81C598.58,-104.41 591.88,-102.95 585.36,-101.54"/>
</g>
<!-- O&#45;BDXB -->
<g id="O&#45;BDXB" class="node">
<title>O&#45;BDXB</title>
<ellipse fill="none" stroke="black" cx="664.04" cy="-174.01" rx="48.99" ry="18"/>
<text text-anchor="middle" x="664.04" y="-170.31" font-family="Times,serif" font-size="14.00">O&#45;BDXB</text>
</g>
<!-- 9&#45;4RP2&#45;&#45;O&#45;BDXB -->
<g id="edge35" class="edge">
<title>9&#45;4RP2&#45;&#45;O&#45;BDXB</title>
<path fill="none" stroke="black" d="M650.05,-132.21C652.58,-139.77 655.52,-148.55 658.04,-156.11"/>
</g>
<!-- G8AD&#45;C -->
<g id="G8AD&#45;C" class="node">
<title>G8AD&#45;C</title>
<ellipse fill="none" stroke="black" cx="647.31" cy="-62.02" rx="47.5" ry="18"/>
<text text-anchor="middle" x="647.31" y="-58.32" font-family="Times,serif" font-size="14.00">G8AD&#45;C</text>
</g>
<!-- 9&#45;4RP2&#45;&#45;G8AD&#45;C -->
<g id="edge36" class="edge">
<title>9&#45;4RP2&#45;&#45;G8AD&#45;C</title>
<path fill="none" stroke="black" d="M645.19,-96.01C645.51,-90.83 645.87,-85.19 646.19,-80.03"/>
</g>
<!-- XZH&#45;4X -->
<g id="XZH&#45;4X" class="node">
<title>XZH&#45;4X</title>
<ellipse fill="none" stroke="black" cx="550.83" cy="-18" rx="46.29" ry="18"/>
<text text-anchor="middle" x="550.83" y="-14.3" font-family="Times,serif" font-size="14.00">XZH&#45;4X</text>
</g>
<!-- 9&#45;4RP2&#45;&#45;XZH&#45;4X -->
<g id="edge37" class="edge">
<title>9&#45;4RP2&#45;&#45;XZH&#45;4X</title>
<path fill="none" stroke="black" d="M627.81,-97.52C610.81,-79.95 584.25,-52.52 567.19,-34.9"/>
</g>
<!-- Z&#45;Y7R7 -->
<g id="Z&#45;Y7R7" class="node">
<title>Z&#45;Y7R7</title>
<ellipse fill="none" stroke="black" cx="739.9" cy="-129.97" rx="43.59" ry="18"/>
<text text-anchor="middle" x="739.9" y="-126.27" font-family="Times,serif" font-size="14.00">Z&#45;Y7R7</text>
</g>
<!-- O&#45;BDXB&#45;&#45;Z&#45;Y7R7 -->
<g id="edge38" class="edge">
<title>O&#45;BDXB&#45;&#45;Z&#45;Y7R7</title>
<path fill="none" stroke="black" d="M690.57,-158.61C698.35,-154.09 706.83,-149.17 714.53,-144.69"/>
</g>
<!-- G8AD&#45;C&#45;&#45;Z&#45;Y7R7 -->
<g id="edge39" class="edge">
<title>G8AD&#45;C&#45;&#45;Z&#45;Y7R7</title>
<path fill="none" stroke="black" d="M669.25,-78.12C684.12,-89.03 703.67,-103.38 718.43,-114.21"/>
</g>
<!-- Z&#45;Y7R7&#45;&#45;7D&#45;0SQ -->
<g id="edge40" class="edge">
<title>Z&#45;Y7R7&#45;&#45;7D&#45;0SQ</title>
<path fill="none" stroke="black" d="M739.44,-111.78C739.24,-103.81 739,-94.48 738.8,-86.51"/>
</g>
<!-- MJYW&#45;3 -->
<g id="MJYW&#45;3" class="node">
<title>MJYW&#45;3</title>
<ellipse fill="none" stroke="black" cx="641.18" cy="-234.74" rx="47" ry="18"/>
<text text-anchor="middle" x="641.18" y="-231.04" font-family="Times,serif" font-size="14.00">MJYW&#45;3</text>
</g>
<!-- MJYW&#45;3&#45;&#45;QXW&#45;PV -->
<g id="edge41" class="edge">
<title>MJYW&#45;3&#45;&#45;QXW&#45;PV</title>
<path fill="none" stroke="black" d="M635.69,-252.79C632.75,-262.45 629.14,-274.32 626.2,-283.98"/>
</g>
<!-- MJYW&#45;3&#45;&#45;O&#45;BDXB -->
<g id="edge42" class="edge">
<title>MJYW&#45;3&#45;&#45;O&#45;BDXB</title>
<path fill="none" stroke="black" d="M647.91,-216.85C650.86,-209.01 654.32,-199.83 657.27,-191.99"/>
</g>
<!-- 5S&#45;KNL -->
<g id="_5S&#45;KNL" class="node">
<title>5S&#45;KNL</title>
<ellipse fill="none" stroke="black" cx="142.77" cy="-389.67" rx="46.29" ry="18"/>
<text text-anchor="middle" x="142.77" y="-385.97" font-family="Times,serif" font-size="14.00">5S&#45;KNL</text>
</g>
<!-- 5S&#45;KNL&#45;&#45;QA1&#45;BT -->
<g id="edge43" class="edge">
<title>5S&#45;KNL&#45;&#45;QA1&#45;BT</title>
<path fill="none" stroke="black" d="M140.97,-407.87C140.24,-415.26 139.4,-423.79 138.67,-431.17"/>
</g>
<!-- 00TY&#45;J -->
<g id="_00TY&#45;J" class="node">
<title>00TY&#45;J</title>
<ellipse fill="none" stroke="black" cx="236.48" cy="-345.66" rx="39.79" ry="18"/>
<text text-anchor="middle" x="236.48" y="-341.96" font-family="Times,serif" font-size="14.00">00TY&#45;J</text>
</g>
<!-- 00TY&#45;J&#45;&#45;PPG&#45;XC -->
<g id="edge44" class="edge">
<title>00TY&#45;J&#45;&#45;PPG&#45;XC</title>
<path fill="none" stroke="black" d="M238.49,-364.01C239.66,-374.72 241.13,-388.19 242.3,-398.86"/>
</g>
<!-- 00TY&#45;J&#45;&#45;5S&#45;KNL -->
<g id="edge45" class="edge">
<title>00TY&#45;J&#45;&#45;5S&#45;KNL</title>
<path fill="none" stroke="black" d="M208.87,-358.63C197.42,-364 184.13,-370.25 172.47,-375.72"/>
</g>
<!-- XG&#45;D1L -->
<g id="XG&#45;D1L" class="node">
<title>XG&#45;D1L</title>
<ellipse fill="none" stroke="black" cx="223.33" cy="-269.83" rx="46.29" ry="18"/>
<text text-anchor="middle" x="223.33" y="-266.13" font-family="Times,serif" font-size="14.00">XG&#45;D1L</text>
</g>
<!-- 00TY&#45;J&#45;&#45;XG&#45;D1L -->
<g id="edge46" class="edge">
<title>00TY&#45;J&#45;&#45;XG&#45;D1L</title>
<path fill="none" stroke="black" d="M233.36,-327.69C231.28,-315.69 228.55,-299.96 226.47,-287.93"/>
</g>
<!-- 6RCQ&#45;V -->
<g id="_6RCQ&#45;V" class="node">
<title>6RCQ&#45;V</title>
<ellipse fill="none" stroke="black" cx="128.89" cy="-313.83" rx="47" ry="18"/>
<text text-anchor="middle" x="128.89" y="-310.13" font-family="Times,serif" font-size="14.00">6RCQ&#45;V</text>
</g>
<!-- 00TY&#45;J&#45;&#45;6RCQ&#45;V -->
<g id="edge47" class="edge">
<title>00TY&#45;J&#45;&#45;6RCQ&#45;V</title>
<path fill="none" stroke="black" d="M203.03,-335.76C191.3,-332.3 178.07,-328.38 166.07,-324.83"/>
</g>
<!-- 6RCQ&#45;V&#45;&#45;E9KD&#45;N -->
<g id="edge48" class="edge">
<title>6RCQ&#45;V&#45;&#45;E9KD&#45;N</title>
<path fill="none" stroke="black" d="M85.63,-306.72C81.82,-306.09 77.97,-305.46 74.21,-304.84"/>
</g>
<!-- 6RCQ&#45;V&#45;&#45;XG&#45;D1L -->
<g id="edge49" class="edge">
<title>6RCQ&#45;V&#45;&#45;XG&#45;D1L</title>
<path fill="none" stroke="black" d="M158.77,-299.91C169.9,-294.72 182.53,-288.84 193.64,-283.66"/>
</g>
<!-- 28O&#45;JY -->
<g id="_28O&#45;JY" class="node">
<title>28O&#45;JY</title>
<ellipse fill="none" stroke="black" cx="128.3" cy="-154.81" rx="42.49" ry="18"/>
<text text-anchor="middle" x="128.3" y="-151.11" font-family="Times,serif" font-size="14.00">28O&#45;JY</text>
</g>
<!-- CX7&#45;70 -->
<g id="CX7&#45;70" class="node">
<title>CX7&#45;70</title>
<ellipse fill="none" stroke="black" cx="181.3" cy="-93.69" rx="44.39" ry="18"/>
<text text-anchor="middle" x="181.3" y="-89.99" font-family="Times,serif" font-size="14.00">CX7&#45;70</text>
</g>
<!-- 28O&#45;JY&#45;&#45;CX7&#45;70 -->
<g id="edge50" class="edge">
<title>28O&#45;JY&#45;&#45;CX7&#45;70</title>
<path fill="none" stroke="black" d="M143.07,-137.79C150.29,-129.45 158.98,-119.43 166.25,-111.05"/>
</g>
<!-- P5&#45;KCC -->
<g id="P5&#45;KCC" class="node">
<title>P5&#45;KCC</title>
<ellipse fill="none" stroke="black" cx="174.44" cy="-225.8" rx="46.29" ry="18"/>
<text text-anchor="middle" x="174.44" y="-222.1" font-family="Times,serif" font-size="14.00">P5&#45;KCC</text>
</g>
<!-- 28O&#45;JY&#45;&#45;P5&#45;KCC -->
<g id="edge51" class="edge">
<title>28O&#45;JY&#45;&#45;P5&#45;KCC</title>
<path fill="none" stroke="black" d="M139.71,-172.36C146.75,-183.2 155.77,-197.07 162.85,-207.96"/>
</g>
<!-- P5&#45;KCC&#45;&#45;X&#45;M9ON -->
<g id="edge52" class="edge">
<title>P5&#45;KCC&#45;&#45;X&#45;M9ON</title>
<path fill="none" stroke="black" d="M204.19,-212C215.06,-206.96 227.37,-201.25 238.34,-196.16"/>
</g>
<!-- P5&#45;KCC&#45;&#45;XG&#45;D1L -->
<g id="edge53" class="edge">
<title>P5&#45;KCC&#45;&#45;XG&#45;D1L</title>
<path fill="none" stroke="black" d="M192.92,-242.45C196.82,-245.95 200.92,-249.65 204.82,-253.16"/>
</g>
<!-- 6ON&#45;RW -->
<g id="_6ON&#45;RW" class="node">
<title>6ON&#45;RW</title>
<ellipse fill="none" stroke="black" cx="229.69" cy="-137.78" rx="50.89" ry="18"/>
<text text-anchor="middle" x="229.69" y="-134.08" font-family="Times,serif" font-size="14.00">6ON&#45;RW</text>
</g>
<!-- 6ON&#45;RW&#45;&#45;U65&#45;CN -->
<g id="edge54" class="edge">
<title>6ON&#45;RW&#45;&#45;U65&#45;CN</title>
<path fill="none" stroke="black" d="M268.25,-126.01C278.29,-122.95 289.09,-119.65 299.07,-116.61"/>
</g>
<!-- 6ON&#45;RW&#45;&#45;X&#45;M9ON -->
<g id="edge55" class="edge">
<title>6ON&#45;RW&#45;&#45;X&#45;M9ON</title>
<path fill="none" stroke="black" d="M245.34,-155.18C248.11,-158.26 250.99,-161.46 253.76,-164.53"/>
</g>
<!-- 6ON&#45;RW&#45;&#45;CX7&#45;70 -->
<g id="edge56" class="edge">
<title>6ON&#45;RW&#45;&#45;CX7&#45;70</title>
<path fill="none" stroke="black" d="M211.12,-120.86C207.28,-117.37 203.25,-113.69 199.42,-110.21"/>
</g>
<!-- 6ON&#45;RW&#45;&#45;P5&#45;KCC -->
<g id="edge57" class="edge">
<title>6ON&#45;RW&#45;&#45;P5&#45;KCC</title>
<path fill="none" stroke="black" d="M218.51,-155.59C208.86,-170.97 195,-193.04 185.42,-208.32"/>
</g>
</g>
</svg>
