<?xml version="1.0" encoding="UTF-8" standalone="no"?>
<!DOCTYPE svg PUBLIC "-//W3C//DTD SVG 1.1//EN"
 "http://www.w3.org/Graphics/SVG/1.1/DTD/svg11.dtd">
<!-- Generated by graphviz version 2.43.0 (0)
 -->
<!-- Pages: 1 -->
<svg width="1660pt" height="861pt"
 viewBox="0.00 0.00 1659.75 860.81" xmlns="http://www.w3.org/2000/svg" xmlns:xlink="http://www.w3.org/1999/xlink">
<g id="graph0" class="graph" transform="scale(1 1) rotate(0) translate(4 856.81)">
<polygon fill="white" stroke="transparent" points="-4,4 -4,-856.81 1655.75,-856.81 1655.75,4 -4,4"/>
<!-- 9&#45;R6GU -->
<g id="_9&#45;R6GU" class="node">
<title>9&#45;R6GU</title>
<polygon fill="none" stroke="black" points="1616.8,-371.19 1543.8,-371.19 1543.8,-335.19 1616.8,-335.19 1616.8,-371.19"/>
<text text-anchor="middle" x="1580.3" y="-349.49" font-family="Times,serif" font-size="14.00">9&#45;R6GU</text>
</g>
<!-- WLF&#45;D3 -->
<g id="WLF&#45;D3" class="node">
<title>WLF&#45;D3</title>
<polygon fill="none" stroke="black" points="945.9,-852.81 871.9,-852.81 871.9,-816.81 945.9,-816.81 945.9,-852.81"/>
<text text-anchor="middle" x="908.9" y="-831.11" font-family="Times,serif" font-size="14.00">WLF&#45;D3</text>
</g>
<!-- 4U90&#45;Z -->
<g id="_4U90&#45;Z" class="node">
<title>4U90&#45;Z</title>
<ellipse fill="none" stroke="black" cx="1490.3" cy="-346.06" rx="45.5" ry="18"/>
<text text-anchor="middle" x="1490.3" y="-342.36" font-family="Times,serif" font-size="14.00">4U90&#45;Z</text>
</g>
<!-- 4U90&#45;Z&#45;&#45;9&#45;R6GU -->
<g id="edge1" class="edge">
<title>4U90&#45;Z&#45;&#45;9&#45;R6GU</title>
<path fill="none" stroke="black" d="M1535.1,-349.6C1538,-349.83 1540.9,-350.06 1543.8,-350.29"/>
</g>
<!-- T&#45;945F -->
<g id="T&#45;945F" class="node">
<title>T&#45;945F</title>
<ellipse fill="none" stroke="black" cx="1609.5" cy="-406.46" rx="42.49" ry="18"/>
<text text-anchor="middle" x="1609.5" y="-402.76" font-family="Times,serif" font-size="14.00">T&#45;945F</text>
</g>
<!-- 4U90&#45;Z&#45;&#45;T&#45;945F -->
<g id="edge2" class="edge">
<title>4U90&#45;Z&#45;&#45;T&#45;945F</title>
<path fill="none" stroke="black" d="M1516,-361C1523.8,-365.43 1532.5,-370.22 1540.6,-374.39 1553.4,-380.95 1567.8,-387.74 1580.1,-393.37"/>
</g>
<!-- FO8M&#45;2 -->
<g id="FO8M&#45;2" class="node">
<title>FO8M&#45;2</title>
<ellipse fill="none" stroke="black" cx="1510.8" cy="-397.4" rx="48.19" ry="18"/>
<text text-anchor="middle" x="1510.8" y="-393.7" font-family="Times,serif" font-size="14.00">FO8M&#45;2</text>
</g>
<!-- 4U90&#45;Z&#45;&#45;FO8M&#45;2 -->
<g id="edge3" class="edge">
<title>4U90&#45;Z&#45;&#45;FO8M&#45;2</title>
<path fill="none" stroke="black" d="M1497.5,-364.02C1499.4,-368.99 1501.6,-374.39 1503.6,-379.37"/>
</g>
<!-- AD&#45;CBT -->
<g id="AD&#45;CBT" class="node">
<title>AD&#45;CBT</title>
<ellipse fill="none" stroke="black" cx="1500.6" cy="-302.04" rx="47" ry="18"/>
<text text-anchor="middle" x="1500.6" y="-298.34" font-family="Times,serif" font-size="14.00">AD&#45;CBT</text>
</g>
<!-- 4U90&#45;Z&#45;&#45;AD&#45;CBT -->
<g id="edge4" class="edge">
<title>4U90&#45;Z&#45;&#45;AD&#45;CBT</title>
<path fill="none" stroke="black" d="M1494.5,-327.9C1495.1,-325.34 1495.7,-322.71 1496.3,-320.16"/>
</g>
<!-- FO8M&#45;2&#45;&#45;T&#45;945F -->
<g id="edge5" class="edge">
<title>FO8M&#45;2&#45;&#45;T&#45;945F</title>
<path fill="none" stroke="black" d="M1557.5,-401.69C1561,-402.01 1564.5,-402.33 1567.9,-402.65"/>
</g>
<!-- QPO&#45;WI -->
<g id="QPO&#45;WI" class="node">
<title>QPO&#45;WI</title>
<ellipse fill="none" stroke="black" cx="1389.3" cy="-382.12" rx="47.5" ry="18"/>
<text text-anchor="middle" x="1389.3" y="-378.42" font-family="Times,serif" font-size="14.00">QPO&#45;WI</text>
</g>
<!-- FO8M&#45;2&#45;&#45;QPO&#45;WI -->
<g id="edge6" class="edge">
<title>FO8M&#45;2&#45;&#45;QPO&#45;WI</title>
<path fill="none" stroke="black" d="M1464.8,-391.63C1454.9,-390.37 1444.4,-389.05 1434.5,-387.81"/>
</g>
<!-- R8S&#45;1K -->
<g id="R8S&#45;1K" class="node">
<title>R8S&#45;1K</title>
<ellipse fill="none" stroke="black" cx="1553.5" cy="-456.56" rx="45.5" ry="18"/>
<text text-anchor="middle" x="1553.5" y="-452.86" font-family="Times,serif" font-size="14.00">R8S&#45;1K</text>
</g>
<!-- FO8M&#45;2&#45;&#45;R8S&#45;1K -->
<g id="edge7" class="edge">
<title>FO8M&#45;2&#45;&#45;R8S&#45;1K</title>
<path fill="none" stroke="black" d="M1523.3,-414.83C1528.9,-422.46 1535.3,-431.41 1540.8,-439.05"/>
</g>
<!-- R8S&#45;1K&#45;&#45;T&#45;945F -->
<g id="edge8" class="edge">
<title>R8S&#45;1K&#45;&#45;T&#45;945F</title>
<path fill="none" stroke="black" d="M1572.1,-439.88C1578.2,-434.41 1585,-428.35 1591.1,-422.9"/>
</g>
<!-- 94&#45;H3F -->
<g id="_94&#45;H3F" class="node">
<title>94&#45;H3F</title>
<ellipse fill="none" stroke="black" cx="1288.3" cy="-401.4" rx="45.5" ry="18"/>
<text text-anchor="middle" x="1288.3" y="-397.7" font-family="Times,serif" font-size="14.00">94&#45;H3F</text>
</g>
<!-- 94&#45;H3F&#45;&#45;QPO&#45;WI -->
<g id="edge9" class="edge">
<title>94&#45;H3F&#45;&#45;QPO&#45;WI</title>
<path fill="none" stroke="black" d="M1329.4,-393.56C1335,-392.47 1340.9,-391.36 1346.6,-390.27"/>
</g>
<!-- CU9&#45;T0 -->
<g id="CU9&#45;T0" class="node">
<title>CU9&#45;T0</title>
<ellipse fill="none" stroke="black" cx="1188.6" cy="-430.87" rx="46.29" ry="18"/>
<text text-anchor="middle" x="1188.6" y="-427.17" font-family="Times,serif" font-size="14.00">CU9&#45;T0</text>
</g>
<!-- 94&#45;H3F&#45;&#45;CU9&#45;T0 -->
<g id="edge10" class="edge">
<title>94&#45;H3F&#45;&#45;CU9&#45;T0</title>
<path fill="none" stroke="black" d="M1251.7,-412.21C1243.2,-414.74 1234.1,-417.43 1225.5,-419.97"/>
</g>
<!-- XCF&#45;8N -->
<g id="XCF&#45;8N" class="node">
<title>XCF&#45;8N</title>
<ellipse fill="none" stroke="black" cx="1228.6" cy="-329.92" rx="46.29" ry="18"/>
<text text-anchor="middle" x="1228.6" y="-326.22" font-family="Times,serif" font-size="14.00">XCF&#45;8N</text>
</g>
<!-- 94&#45;H3F&#45;&#45;XCF&#45;8N -->
<g id="edge11" class="edge">
<title>94&#45;H3F&#45;&#45;XCF&#45;8N</title>
<path fill="none" stroke="black" d="M1273.9,-384.1C1264.5,-372.86 1252.3,-358.27 1242.9,-347.07"/>
</g>
<!-- CU9&#45;T0&#45;&#45;XCF&#45;8N -->
<g id="edge12" class="edge">
<title>CU9&#45;T0&#45;&#45;XCF&#45;8N</title>
<path fill="none" stroke="black" d="M1195.8,-412.83C1203.1,-394.45 1214.3,-366.13 1221.5,-347.82"/>
</g>
<!-- FMB&#45;JP -->
<g id="FMB&#45;JP" class="node">
<title>FMB&#45;JP</title>
<ellipse fill="none" stroke="black" cx="1128.3" cy="-352.33" rx="46.29" ry="18"/>
<text text-anchor="middle" x="1128.3" y="-348.63" font-family="Times,serif" font-size="14.00">FMB&#45;JP</text>
</g>
<!-- CU9&#45;T0&#45;&#45;FMB&#45;JP -->
<g id="edge13" class="edge">
<title>CU9&#45;T0&#45;&#45;FMB&#45;JP</title>
<path fill="none" stroke="black" d="M1175.2,-413.44C1165.2,-400.43 1151.6,-382.72 1141.7,-369.72"/>
</g>
<!-- FMB&#45;JP&#45;&#45;XCF&#45;8N -->
<g id="edge14" class="edge">
<title>FMB&#45;JP&#45;&#45;XCF&#45;8N</title>
<path fill="none" stroke="black" d="M1168.5,-343.35C1175.1,-341.89 1181.9,-340.37 1188.4,-338.91"/>
</g>
<!-- TXME&#45;A -->
<g id="TXME&#45;A" class="node">
<title>TXME&#45;A</title>
<ellipse fill="none" stroke="black" cx="1086.4" cy="-423.14" rx="48.19" ry="18"/>
<text text-anchor="middle" x="1086.4" y="-419.44" font-family="Times,serif" font-size="14.00">TXME&#45;A</text>
</g>
<!-- FMB&#45;JP&#45;&#45;TXME&#45;A -->
<g id="edge15" class="edge">
<title>FMB&#45;JP&#45;&#45;TXME&#45;A</title>
<path fill="none" stroke="black" d="M1117.7,-370.2C1111.3,-381.02 1103.2,-394.75 1096.8,-405.52"/>
</g>
<!-- YA0&#45;XJ -->
<g id="YA0&#45;XJ" class="node">
<title>YA0&#45;XJ</title>
<ellipse fill="none" stroke="black" cx="1072.1" cy="-467.53" rx="41" ry="18"/>
<text text-anchor="middle" x="1072.1" y="-463.83" font-family="Times,serif" font-size="14.00">YA0&#45;XJ</text>
</g>
<!-- TXME&#45;A&#45;&#45;YA0&#45;XJ -->
<g id="edge16" class="edge">
<title>TXME&#45;A&#45;&#45;YA0&#45;XJ</title>
<path fill="none" stroke="black" d="M1080.6,-441.19C1079.7,-443.98 1078.7,-446.85 1077.8,-449.63"/>
</g>
<!-- 0P&#45;F3K -->
<g id="_0P&#45;F3K" class="node">
<title>0P&#45;F3K</title>
<ellipse fill="none" stroke="black" cx="1181.1" cy="-283.64" rx="44.39" ry="18"/>
<text text-anchor="middle" x="1181.1" y="-279.94" font-family="Times,serif" font-size="14.00">0P&#45;F3K</text>
</g>
<!-- 0P&#45;F3K&#45;&#45;FMB&#45;JP -->
<g id="edge17" class="edge">
<title>0P&#45;F3K&#45;&#45;FMB&#45;JP</title>
<path fill="none" stroke="black" d="M1167.8,-300.97C1159.8,-311.31 1149.8,-324.39 1141.8,-334.77"/>
</g>
<!-- K5F&#45;Z2 -->
<g id="K5F&#45;Z2" class="node">
<title>K5F&#45;Z2</title>
<ellipse fill="none" stroke="black" cx="1197.9" cy="-235.36" rx="44.39" ry="18"/>
<text text-anchor="middle" x="1197.9" y="-231.66" font-family="Times,serif" font-size="14.00">K5F&#45;Z2</text>
</g>
<!-- 0P&#45;F3K&#45;&#45;K5F&#45;Z2 -->
<g id="edge18" class="edge">
<title>0P&#45;F3K&#45;&#45;K5F&#45;Z2</title>
<path fill="none" stroke="black" d="M1187.4,-265.66C1188.8,-261.59 1190.3,-257.26 1191.7,-253.19"/>
</g>
<!-- 2&#45;KF56 -->
<g id="_2&#45;KF56" class="node">
<title>2&#45;KF56</title>
<ellipse fill="none" stroke="black" cx="1079.7" cy="-519.04" rx="44.39" ry="18"/>
<text text-anchor="middle" x="1079.7" y="-515.34" font-family="Times,serif" font-size="14.00">2&#45;KF56</text>
</g>
<!-- 2&#45;KF56&#45;&#45;YA0&#45;XJ -->
<g id="edge19" class="edge">
<title>2&#45;KF56&#45;&#45;YA0&#45;XJ</title>
<path fill="none" stroke="black" d="M1077.1,-501.03C1076.3,-496.04 1075.5,-490.62 1074.8,-485.62"/>
</g>
<!-- VFK&#45;IV -->
<g id="VFK&#45;IV" class="node">
<title>VFK&#45;IV</title>
<ellipse fill="none" stroke="black" cx="985.18" cy="-526.59" rx="42.49" ry="18"/>
<text text-anchor="middle" x="985.18" y="-522.89" font-family="Times,serif" font-size="14.00">VFK&#45;IV</text>
</g>
<!-- 2&#45;KF56&#45;&#45;VFK&#45;IV -->
<g id="edge20" class="edge">
<title>2&#45;KF56&#45;&#45;VFK&#45;IV</title>
<path fill="none" stroke="black" d="M1036.3,-522.51C1033.1,-522.76 1029.9,-523.02 1026.7,-523.27"/>
</g>
<!-- 2R&#45;CRW -->
<g id="_2R&#45;CRW" class="node">
<title>2R&#45;CRW</title>
<ellipse fill="none" stroke="black" cx="971.56" cy="-452.88" rx="49.5" ry="18"/>
<text text-anchor="middle" x="971.56" y="-449.18" font-family="Times,serif" font-size="14.00">2R&#45;CRW</text>
</g>
<!-- 2&#45;KF56&#45;&#45;2R&#45;CRW -->
<g id="edge21" class="edge">
<title>2&#45;KF56&#45;&#45;2R&#45;CRW</title>
<path fill="none" stroke="black" d="M1055.2,-504.03C1037.9,-493.43 1014.7,-479.26 997.14,-468.52"/>
</g>
<!-- 2R&#45;CRW&#45;&#45;YA0&#45;XJ -->
<g id="edge22" class="edge">
<title>2R&#45;CRW&#45;&#45;YA0&#45;XJ</title>
<path fill="none" stroke="black" d="M1017.7,-459.6C1022.9,-460.36 1028.1,-461.12 1033.1,-461.85"/>
</g>
<!-- 2R&#45;CRW&#45;&#45;VFK&#45;IV -->
<g id="edge23" class="edge">
<title>2R&#45;CRW&#45;&#45;VFK&#45;IV</title>
<path fill="none" stroke="black" d="M974.93,-471.1C977.04,-482.53 979.75,-497.19 981.85,-508.58"/>
</g>
<!-- CCP&#45;US -->
<g id="CCP&#45;US" class="node">
<title>CCP&#45;US</title>
<ellipse fill="none" stroke="black" cx="1026.6" cy="-377.71" rx="47.5" ry="18"/>
<text text-anchor="middle" x="1026.6" y="-374.01" font-family="Times,serif" font-size="14.00">CCP&#45;US</text>
</g>
<!-- 2R&#45;CRW&#45;&#45;CCP&#45;US -->
<g id="edge24" class="edge">
<title>2R&#45;CRW&#45;&#45;CCP&#45;US</title>
<path fill="none" stroke="black" d="M984.33,-435.45C993.17,-423.39 1004.9,-407.41 1013.7,-395.31"/>
</g>
<!-- DO6H&#45;Q -->
<g id="DO6H&#45;Q" class="node">
<title>DO6H&#45;Q</title>
<polygon fill="none" stroke="black" points="1126.8,-301.28 1050.8,-301.28 1050.8,-265.28 1126.8,-265.28 1126.8,-301.28"/>
<text text-anchor="middle" x="1088.8" y="-279.58" font-family="Times,serif" font-size="14.00">DO6H&#45;Q</text>
</g>
<!-- CCP&#45;US&#45;&#45;DO6H&#45;Q -->
<g id="edge25" class="edge">
<title>CCP&#45;US&#45;&#45;DO6H&#45;Q</title>
<path fill="none" stroke="black" d="M1038.3,-359.95C1049.4,-343.17 1065.9,-318.14 1077,-301.28"/>
</g>
<!-- II&#45;5O9 -->
<g id="II&#45;5O9" class="node">
<title>II&#45;5O9</title>
<ellipse fill="none" stroke="black" cx="981.14" cy="-570.6" rx="39.79" ry="18"/>
<text text-anchor="middle" x="981.14" y="-566.9" font-family="Times,serif" font-size="14.00">II&#45;5O9</text>
</g>
<!-- II&#45;5O9&#45;&#45;VFK&#45;IV -->
<g id="edge26" class="edge">
<title>II&#45;5O9&#45;&#45;VFK&#45;IV</title>
<path fill="none" stroke="black" d="M982.8,-552.44C983.04,-549.88 983.28,-547.26 983.52,-544.7"/>
</g>
<!-- I30&#45;3A -->
<g id="I30&#45;3A" class="node">
<title>I30&#45;3A</title>
<ellipse fill="none" stroke="black" cx="893.57" cy="-498.31" rx="41" ry="18"/>
<text text-anchor="middle" x="893.57" y="-494.61" font-family="Times,serif" font-size="14.00">I30&#45;3A</text>
</g>
<!-- I30&#45;3A&#45;&#45;VFK&#45;IV -->
<g id="edge27" class="edge">
<title>I30&#45;3A&#45;&#45;VFK&#45;IV</title>
<path fill="none" stroke="black" d="M927.16,-508.68C934.82,-511.04 942.97,-513.56 950.67,-515.93"/>
</g>
<!-- 2O9G&#45;D -->
<g id="_2O9G&#45;D" class="node">
<title>2O9G&#45;D</title>
<ellipse fill="none" stroke="black" cx="866.69" cy="-454.3" rx="47.5" ry="18"/>
<text text-anchor="middle" x="866.69" y="-450.6" font-family="Times,serif" font-size="14.00">2O9G&#45;D</text>
</g>
<!-- 2O9G&#45;D&#45;&#45;I30&#45;3A -->
<g id="edge28" class="edge">
<title>2O9G&#45;D&#45;&#45;I30&#45;3A</title>
<path fill="none" stroke="black" d="M877.47,-471.94C879.22,-474.81 881.04,-477.79 882.79,-480.66"/>
</g>
<!-- NC&#45;N3F -->
<g id="NC&#45;N3F" class="node">
<title>NC&#45;N3F</title>
<ellipse fill="none" stroke="black" cx="923.07" cy="-406.73" rx="48.19" ry="18"/>
<text text-anchor="middle" x="923.07" y="-403.03" font-family="Times,serif" font-size="14.00">NC&#45;N3F</text>
</g>
<!-- 2O9G&#45;D&#45;&#45;NC&#45;N3F -->
<g id="edge29" class="edge">
<title>2O9G&#45;D&#45;&#45;NC&#45;N3F</title>
<path fill="none" stroke="black" d="M886.41,-437.66C891.87,-433.05 897.8,-428.05 903.27,-423.44"/>
</g>
<!-- JU&#45;OWQ -->
<g id="JU&#45;OWQ" class="node">
<title>JU&#45;OWQ</title>
<ellipse fill="none" stroke="black" cx="763.09" cy="-433.37" rx="48.19" ry="18"/>
<text text-anchor="middle" x="763.09" y="-429.67" font-family="Times,serif" font-size="14.00">JU&#45;OWQ</text>
</g>
<!-- 2O9G&#45;D&#45;&#45;JU&#45;OWQ -->
<g id="edge30" class="edge">
<title>2O9G&#45;D&#45;&#45;JU&#45;OWQ</title>
<path fill="none" stroke="black" d="M824.55,-445.78C818.28,-444.52 811.81,-443.21 805.53,-441.94"/>
</g>
<!-- S&#45;DN5M -->
<g id="S&#45;DN5M" class="node">
<title>S&#45;DN5M</title>
<ellipse fill="none" stroke="black" cx="769.28" cy="-525.09" rx="50.09" ry="18"/>
<text text-anchor="middle" x="769.28" y="-521.39" font-family="Times,serif" font-size="14.00">S&#45;DN5M</text>
</g>
<!-- JU&#45;OWQ&#45;&#45;S&#45;DN5M -->
<g id="edge31" class="edge">
<title>JU&#45;OWQ&#45;&#45;S&#45;DN5M</title>
<path fill="none" stroke="black" d="M764.31,-451.49C765.4,-467.57 766.97,-490.94 768.06,-507.01"/>
</g>
<!-- MXX5&#45;9 -->
<g id="MXX5&#45;9" class="node">
<title>MXX5&#45;9</title>
<ellipse fill="none" stroke="black" cx="818.84" cy="-389.33" rx="47.5" ry="18"/>
<text text-anchor="middle" x="818.84" y="-385.63" font-family="Times,serif" font-size="14.00">MXX5&#45;9</text>
</g>
<!-- JU&#45;OWQ&#45;&#45;MXX5&#45;9 -->
<g id="edge32" class="edge">
<title>JU&#45;OWQ&#45;&#45;MXX5&#45;9</title>
<path fill="none" stroke="black" d="M783.85,-416.97C788.56,-413.25 793.55,-409.31 798.25,-405.6"/>
</g>
<!-- ZZZR&#45;5 -->
<g id="ZZZR&#45;5" class="node">
<title>ZZZR&#45;5</title>
<ellipse fill="none" stroke="black" cx="993.31" cy="-275.25" rx="45.5" ry="18"/>
<text text-anchor="middle" x="993.31" y="-271.55" font-family="Times,serif" font-size="14.00">ZZZR&#45;5</text>
</g>
<!-- MXX5&#45;9&#45;&#45;ZZZR&#45;5 -->
<g id="edge33" class="edge">
<title>MXX5&#45;9&#45;&#45;ZZZR&#45;5</title>
<path fill="none" stroke="black" d="M842.74,-373.71C876.15,-351.86 936.45,-312.43 969.7,-290.68"/>
</g>
<!-- C7Y&#45;7Z -->
<g id="C7Y&#45;7Z" class="node">
<title>C7Y&#45;7Z</title>
<ellipse fill="none" stroke="black" cx="964" cy="-614.61" rx="43.59" ry="18"/>
<text text-anchor="middle" x="964" y="-610.91" font-family="Times,serif" font-size="14.00">C7Y&#45;7Z</text>
</g>
<!-- C7Y&#45;7Z&#45;&#45;II&#45;5O9 -->
<g id="edge34" class="edge">
<title>C7Y&#45;7Z&#45;&#45;II&#45;5O9</title>
<path fill="none" stroke="black" d="M970.97,-596.71C972.05,-593.95 973.16,-591.1 974.23,-588.34"/>
</g>
<!-- X&#45;Z4DA -->
<g id="X&#45;Z4DA" class="node">
<title>X&#45;Z4DA</title>
<ellipse fill="none" stroke="black" cx="944.39" cy="-658.61" rx="46.29" ry="18"/>
<text text-anchor="middle" x="944.39" y="-654.91" font-family="Times,serif" font-size="14.00">X&#45;Z4DA</text>
</g>
<!-- C7Y&#45;7Z&#45;&#45;X&#45;Z4DA -->
<g id="edge35" class="edge">
<title>C7Y&#45;7Z&#45;&#45;X&#45;Z4DA</title>
<path fill="none" stroke="black" d="M956.03,-632.51C954.8,-635.27 953.53,-638.12 952.3,-640.88"/>
</g>
<!-- 3OAT&#45;Q -->
<g id="_3OAT&#45;Q" class="node">
<title>3OAT&#45;Q</title>
<ellipse fill="none" stroke="black" cx="918.83" cy="-702.65" rx="45" ry="18"/>
<text text-anchor="middle" x="918.83" y="-698.95" font-family="Times,serif" font-size="14.00">3OAT&#45;Q</text>
</g>
<!-- 3OAT&#45;Q&#45;&#45;X&#45;Z4DA -->
<g id="edge36" class="edge">
<title>3OAT&#45;Q&#45;&#45;X&#45;Z4DA</title>
<path fill="none" stroke="black" d="M929.08,-684.99C930.74,-682.12 932.47,-679.15 934.14,-676.27"/>
</g>
<!-- N&#45;TFXK -->
<g id="N&#45;TFXK" class="node">
<title>N&#45;TFXK</title>
<ellipse fill="none" stroke="black" cx="906.04" cy="-746.69" rx="47" ry="18"/>
<text text-anchor="middle" x="906.04" y="-742.99" font-family="Times,serif" font-size="14.00">N&#45;TFXK</text>
</g>
<!-- 3OAT&#45;Q&#45;&#45;N&#45;TFXK -->
<g id="edge37" class="edge">
<title>3OAT&#45;Q&#45;&#45;N&#45;TFXK</title>
<path fill="none" stroke="black" d="M913.62,-720.56C912.85,-723.23 912.05,-725.98 911.28,-728.65"/>
</g>
<!-- 33RB&#45;O -->
<g id="_33RB&#45;O" class="node">
<title>33RB&#45;O</title>
<ellipse fill="none" stroke="black" cx="1044.9" cy="-694.59" rx="46.29" ry="18"/>
<text text-anchor="middle" x="1044.9" y="-690.89" font-family="Times,serif" font-size="14.00">33RB&#45;O</text>
</g>
<!-- 33RB&#45;O&#45;&#45;X&#45;Z4DA -->
<g id="edge38" class="edge">
<title>33RB&#45;O&#45;&#45;X&#45;Z4DA</title>
<path fill="none" stroke="black" d="M1010.9,-682.41C1000.5,-678.7 989.12,-674.62 978.73,-670.91"/>
</g>
<!-- 33RB&#45;O&#45;&#45;3OAT&#45;Q -->
<g id="edge39" class="edge">
<title>33RB&#45;O&#45;&#45;3OAT&#45;Q</title>
<path fill="none" stroke="black" d="M999.03,-697.52C987.35,-698.27 974.81,-699.07 963.19,-699.81"/>
</g>
<!-- DKUK&#45;G -->
<g id="DKUK&#45;G" class="node">
<title>DKUK&#45;G</title>
<ellipse fill="none" stroke="black" cx="905.14" cy="-790.71" rx="48.99" ry="18"/>
<text text-anchor="middle" x="905.14" y="-787.01" font-family="Times,serif" font-size="14.00">DKUK&#45;G</text>
</g>
<!-- DKUK&#45;G&#45;&#45;WLF&#45;D3 -->
<g id="edge40" class="edge">
<title>DKUK&#45;G&#45;&#45;WLF&#45;D3</title>
<path fill="none" stroke="black" d="M906.69,-808.9C906.91,-811.46 907.14,-814.1 907.36,-816.66"/>
</g>
<!-- DKUK&#45;G&#45;&#45;N&#45;TFXK -->
<g id="edge41" class="edge">
<title>DKUK&#45;G&#45;&#45;N&#45;TFXK</title>
<path fill="none" stroke="black" d="M905.51,-772.55C905.56,-769.99 905.62,-767.36 905.67,-764.8"/>
</g>
<!-- 3QE&#45;9Q -->
<g id="_3QE&#45;9Q" class="node">
<title>3QE&#45;9Q</title>
<ellipse fill="none" stroke="black" cx="890.63" cy="-257.29" rx="47" ry="18"/>
<text text-anchor="middle" x="890.63" y="-253.59" font-family="Times,serif" font-size="14.00">3QE&#45;9Q</text>
</g>
<!-- 3QE&#45;9Q&#45;&#45;MXX5&#45;9 -->
<g id="edge42" class="edge">
<title>3QE&#45;9Q&#45;&#45;MXX5&#45;9</title>
<path fill="none" stroke="black" d="M880.95,-275.1C867.25,-300.3 842.34,-346.11 828.6,-371.38"/>
</g>
<!-- E&#45;FIC0 -->
<g id="E&#45;FIC0" class="node">
<title>E&#45;FIC0</title>
<ellipse fill="none" stroke="black" cx="918.2" cy="-213.26" rx="43" ry="18"/>
<text text-anchor="middle" x="918.2" y="-209.56" font-family="Times,serif" font-size="14.00">E&#45;FIC0</text>
</g>
<!-- 3QE&#45;9Q&#45;&#45;E&#45;FIC0 -->
<g id="edge43" class="edge">
<title>3QE&#45;9Q&#45;&#45;E&#45;FIC0</title>
<path fill="none" stroke="black" d="M901.69,-239.64C903.48,-236.76 905.35,-233.79 907.14,-230.92"/>
</g>
<!-- ZOYW&#45;O -->
<g id="ZOYW&#45;O" class="node">
<title>ZOYW&#45;O</title>
<ellipse fill="none" stroke="black" cx="804.83" cy="-301.32" rx="49.5" ry="18"/>
<text text-anchor="middle" x="804.83" y="-297.62" font-family="Times,serif" font-size="14.00">ZOYW&#45;O</text>
</g>
<!-- 3QE&#45;9Q&#45;&#45;ZOYW&#45;O -->
<g id="edge44" class="edge">
<title>3QE&#45;9Q&#45;&#45;ZOYW&#45;O</title>
<path fill="none" stroke="black" d="M862.53,-271.71C853.25,-276.47 842.91,-281.78 833.57,-286.57"/>
</g>
<!-- YZ&#45;UKA -->
<g id="YZ&#45;UKA" class="node">
<title>YZ&#45;UKA</title>
<ellipse fill="none" stroke="black" cx="859.37" cy="-168.23" rx="46.29" ry="18"/>
<text text-anchor="middle" x="859.37" y="-164.53" font-family="Times,serif" font-size="14.00">YZ&#45;UKA</text>
</g>
<!-- E&#45;FIC0&#45;&#45;YZ&#45;UKA -->
<g id="edge45" class="edge">
<title>E&#45;FIC0&#45;&#45;YZ&#45;UKA</title>
<path fill="none" stroke="black" d="M897.3,-197.26C891.88,-193.11 886.04,-188.64 880.61,-184.49"/>
</g>
<!-- 85&#45;B52 -->
<g id="_85&#45;B52" class="node">
<title>85&#45;B52</title>
<ellipse fill="none" stroke="black" cx="970.5" cy="-169.24" rx="44.39" ry="18"/>
<text text-anchor="middle" x="970.5" y="-165.54" font-family="Times,serif" font-size="14.00">85&#45;B52</text>
</g>
<!-- 85&#45;B52&#45;&#45;E&#45;FIC0 -->
<g id="edge46" class="edge">
<title>85&#45;B52&#45;&#45;E&#45;FIC0</title>
<path fill="none" stroke="black" d="M951.02,-185.63C946.61,-189.35 941.92,-193.29 937.52,-197"/>
</g>
<!-- 85&#45;B52&#45;&#45;YZ&#45;UKA -->
<g id="edge47" class="edge">
<title>85&#45;B52&#45;&#45;YZ&#45;UKA</title>
<path fill="none" stroke="black" d="M926.26,-168.84C919.48,-168.77 912.47,-168.71 905.64,-168.65"/>
</g>
<!-- RO0&#45;AF -->
<g id="RO0&#45;AF" class="node">
<title>RO0&#45;AF</title>
<ellipse fill="none" stroke="black" cx="717.22" cy="-345.33" rx="46.29" ry="18"/>
<text text-anchor="middle" x="717.22" y="-341.63" font-family="Times,serif" font-size="14.00">RO0&#45;AF</text>
</g>
<!-- RO0&#45;AF&#45;&#45;ZOYW&#45;O -->
<g id="edge48" class="edge">
<title>RO0&#45;AF&#45;&#45;ZOYW&#45;O</title>
<path fill="none" stroke="black" d="M745.9,-330.92C755.48,-326.11 766.17,-320.74 775.78,-315.92"/>
</g>
<!-- 5W3&#45;DG -->
<g id="_5W3&#45;DG" class="node">
<title>5W3&#45;DG</title>
<ellipse fill="none" stroke="black" cx="657.55" cy="-435.11" rx="49.5" ry="18"/>
<text text-anchor="middle" x="657.55" y="-431.41" font-family="Times,serif" font-size="14.00">5W3&#45;DG</text>
</g>
<!-- 5W3&#45;DG&#45;&#45;RO0&#45;AF -->
<g id="edge49" class="edge">
<title>5W3&#45;DG&#45;&#45;RO0&#45;AF</title>
<path fill="none" stroke="black" d="M669.33,-417.37C679.8,-401.63 695,-378.76 705.45,-363.03"/>
</g>
<!-- LT&#45;DRO -->
<g id="LT&#45;DRO" class="node">
<title>LT&#45;DRO</title>
<ellipse fill="none" stroke="black" cx="598.54" cy="-391.09" rx="45.5" ry="18"/>
<text text-anchor="middle" x="598.54" y="-387.39" font-family="Times,serif" font-size="14.00">LT&#45;DRO</text>
</g>
<!-- 5W3&#45;DG&#45;&#45;LT&#45;DRO -->
<g id="edge50" class="edge">
<title>5W3&#45;DG&#45;&#45;LT&#45;DRO</title>
<path fill="none" stroke="black" d="M635.58,-418.72C630.46,-414.9 625.03,-410.85 619.94,-407.05"/>
</g>
<!-- 7T6P&#45;C -->
<g id="_7T6P&#45;C" class="node">
<title>7T6P&#45;C</title>
<ellipse fill="none" stroke="black" cx="649.97" cy="-503.66" rx="44.39" ry="18"/>
<text text-anchor="middle" x="649.97" y="-499.96" font-family="Times,serif" font-size="14.00">7T6P&#45;C</text>
</g>
<!-- 5W3&#45;DG&#45;&#45;7T6P&#45;C -->
<g id="edge51" class="edge">
<title>5W3&#45;DG&#45;&#45;7T6P&#45;C</title>
<path fill="none" stroke="black" d="M655.56,-453.12C654.45,-463.11 653.08,-475.51 651.97,-485.53"/>
</g>
<!-- 8S28&#45;3 -->
<g id="_8S28&#45;3" class="node">
<title>8S28&#45;3</title>
<ellipse fill="none" stroke="black" cx="556.5" cy="-459.62" rx="43.59" ry="18"/>
<text text-anchor="middle" x="556.5" y="-455.92" font-family="Times,serif" font-size="14.00">8S28&#45;3</text>
</g>
<!-- 8S28&#45;3&#45;&#45;LT&#45;DRO -->
<g id="edge52" class="edge">
<title>8S28&#45;3&#45;&#45;LT&#45;DRO</title>
<path fill="none" stroke="black" d="M567.33,-441.97C573.55,-431.82 581.36,-419.1 587.61,-408.92"/>
</g>
<!-- E3UY&#45;6 -->
<g id="E3UY&#45;6" class="node">
<title>E3UY&#45;6</title>
<ellipse fill="none" stroke="black" cx="479.2" cy="-415.38" rx="45" ry="18"/>
<text text-anchor="middle" x="479.2" y="-411.68" font-family="Times,serif" font-size="14.00">E3UY&#45;6</text>
</g>
<!-- 8S28&#45;3&#45;&#45;E3UY&#45;6 -->
<g id="edge53" class="edge">
<title>8S28&#45;3&#45;&#45;E3UY&#45;6</title>
<path fill="none" stroke="black" d="M530.76,-444.89C522.5,-440.16 513.36,-434.93 505.09,-430.2"/>
</g>
<!-- K4YZ&#45;Y -->
<g id="K4YZ&#45;Y" class="node">
<title>K4YZ&#45;Y</title>
<polygon fill="none" stroke="black" points="597.41,-539.31 530.41,-539.31 530.41,-503.31 597.41,-503.31 597.41,-539.31"/>
<text text-anchor="middle" x="563.91" y="-517.61" font-family="Times,serif" font-size="14.00">K4YZ&#45;Y</text>
</g>
<!-- 8S28&#45;3&#45;&#45;K4YZ&#45;Y -->
<g id="edge54" class="edge">
<title>8S28&#45;3&#45;&#45;K4YZ&#45;Y</title>
<path fill="none" stroke="black" d="M558.68,-477.8C559.64,-485.76 560.76,-495.08 561.71,-503.05"/>
</g>
<!-- LEK&#45;N5 -->
<g id="LEK&#45;N5" class="node">
<title>LEK&#45;N5</title>
<ellipse fill="none" stroke="black" cx="458.74" cy="-465.14" rx="46.29" ry="18"/>
<text text-anchor="middle" x="458.74" y="-461.44" font-family="Times,serif" font-size="14.00">LEK&#45;N5</text>
</g>
<!-- E3UY&#45;6&#45;&#45;LEK&#45;N5 -->
<g id="edge55" class="edge">
<title>E3UY&#45;6&#45;&#45;LEK&#45;N5</title>
<path fill="none" stroke="black" d="M471.81,-433.35C469.98,-437.8 468.02,-442.58 466.19,-447.04"/>
</g>
<!-- OWXT&#45;5 -->
<g id="OWXT&#45;5" class="node">
<title>OWXT&#45;5</title>
<ellipse fill="none" stroke="black" cx="378.84" cy="-421.03" rx="47.5" ry="18"/>
<text text-anchor="middle" x="378.84" y="-417.33" font-family="Times,serif" font-size="14.00">OWXT&#45;5</text>
</g>
<!-- LEK&#45;N5&#45;&#45;OWXT&#45;5 -->
<g id="edge56" class="edge">
<title>LEK&#45;N5&#45;&#45;OWXT&#45;5</title>
<path fill="none" stroke="black" d="M431.69,-450.21C423.36,-445.61 414.2,-440.55 405.87,-435.95"/>
</g>
<!-- AGG&#45;NR -->
<g id="AGG&#45;NR" class="node">
<title>AGG&#45;NR</title>
<ellipse fill="none" stroke="black" cx="462.46" cy="-512.99" rx="49.5" ry="18"/>
<text text-anchor="middle" x="462.46" y="-509.29" font-family="Times,serif" font-size="14.00">AGG&#45;NR</text>
</g>
<!-- AGG&#45;NR&#45;&#45;LEK&#45;N5 -->
<g id="edge57" class="edge">
<title>AGG&#45;NR&#45;&#45;LEK&#45;N5</title>
<path fill="none" stroke="black" d="M461.06,-494.9C460.76,-491.09 460.45,-487.07 460.15,-483.26"/>
</g>
<!-- O&#45;2RNZ -->
<g id="O&#45;2RNZ" class="node">
<title>O&#45;2RNZ</title>
<ellipse fill="none" stroke="black" cx="498.82" cy="-565.33" rx="48.19" ry="18"/>
<text text-anchor="middle" x="498.82" y="-561.63" font-family="Times,serif" font-size="14.00">O&#45;2RNZ</text>
</g>
<!-- AGG&#45;NR&#45;&#45;O&#45;2RNZ -->
<g id="edge58" class="edge">
<title>AGG&#45;NR&#45;&#45;O&#45;2RNZ</title>
<path fill="none" stroke="black" d="M474.77,-530.71C478.56,-536.17 482.73,-542.17 486.52,-547.63"/>
</g>
<!-- 0V0R&#45;R -->
<g id="_0V0R&#45;R" class="node">
<title>0V0R&#45;R</title>
<ellipse fill="none" stroke="black" cx="474.2" cy="-370.24" rx="45.5" ry="18"/>
<text text-anchor="middle" x="474.2" y="-366.54" font-family="Times,serif" font-size="14.00">0V0R&#45;R</text>
</g>
<!-- 0V0R&#45;R&#45;&#45;LEK&#45;N5 -->
<g id="edge59" class="edge">
<title>0V0R&#45;R&#45;&#45;LEK&#45;N5</title>
<path fill="none" stroke="black" d="M451.09,-385.77C442.44,-393.41 434.31,-403.51 432.75,-415.31 431.22,-426.92 436.84,-438.6 443.23,-447.72"/>
</g>
<!-- 0V0R&#45;R&#45;&#45;OWXT&#45;5 -->
<g id="edge60" class="edge">
<title>0V0R&#45;R&#45;&#45;OWXT&#45;5</title>
<path fill="none" stroke="black" d="M446.87,-384.79C434.22,-391.53 419.2,-399.53 406.5,-406.3"/>
</g>
<!-- 3JN9&#45;Q -->
<g id="_3JN9&#45;Q" class="node">
<title>3JN9&#45;Q</title>
<ellipse fill="none" stroke="black" cx="496.93" cy="-609.37" rx="44.39" ry="18"/>
<text text-anchor="middle" x="496.93" y="-605.67" font-family="Times,serif" font-size="14.00">3JN9&#45;Q</text>
</g>
<!-- 3JN9&#45;Q&#45;&#45;O&#45;2RNZ -->
<g id="edge61" class="edge">
<title>3JN9&#45;Q&#45;&#45;O&#45;2RNZ</title>
<path fill="none" stroke="black" d="M497.71,-591.2C497.82,-588.64 497.93,-586.01 498.04,-583.46"/>
</g>
<!-- 3T7&#45;M8 -->
<g id="_3T7&#45;M8" class="node">
<title>3T7&#45;M8</title>
<ellipse fill="none" stroke="black" cx="366.5" cy="-377" rx="46.29" ry="18"/>
<text text-anchor="middle" x="366.5" y="-373.3" font-family="Times,serif" font-size="14.00">3T7&#45;M8</text>
</g>
<!-- 3T7&#45;M8&#45;&#45;OWXT&#45;5 -->
<g id="edge62" class="edge">
<title>3T7&#45;M8&#45;&#45;OWXT&#45;5</title>
<path fill="none" stroke="black" d="M371.52,-394.91C372.27,-397.57 373.04,-400.32 373.79,-402.99"/>
</g>
<!-- WUZ&#45;WM -->
<g id="WUZ&#45;WM" class="node">
<title>WUZ&#45;WM</title>
<ellipse fill="none" stroke="black" cx="268.09" cy="-426.19" rx="55.49" ry="18"/>
<text text-anchor="middle" x="268.09" y="-422.49" font-family="Times,serif" font-size="14.00">WUZ&#45;WM</text>
</g>
<!-- 3T7&#45;M8&#45;&#45;WUZ&#45;WM -->
<g id="edge63" class="edge">
<title>3T7&#45;M8&#45;&#45;WUZ&#45;WM</title>
<path fill="none" stroke="black" d="M338.03,-391.23C325.66,-397.41 311.14,-404.67 298.55,-410.96"/>
</g>
<!-- MZ1E&#45;P -->
<g id="MZ1E&#45;P" class="node">
<title>MZ1E&#45;P</title>
<ellipse fill="none" stroke="black" cx="476.93" cy="-326.18" rx="48.19" ry="18"/>
<text text-anchor="middle" x="476.93" y="-322.48" font-family="Times,serif" font-size="14.00">MZ1E&#45;P</text>
</g>
<!-- 3T7&#45;M8&#45;&#45;MZ1E&#45;P -->
<g id="edge64" class="edge">
<title>3T7&#45;M8&#45;&#45;MZ1E&#45;P</title>
<path fill="none" stroke="black" d="M396.38,-363.25C411.84,-356.13 430.68,-347.46 446.25,-340.3"/>
</g>
<!-- N2IS&#45;B -->
<g id="N2IS&#45;B" class="node">
<title>N2IS&#45;B</title>
<ellipse fill="none" stroke="black" cx="271" cy="-332.97" rx="44.39" ry="18"/>
<text text-anchor="middle" x="271" y="-329.27" font-family="Times,serif" font-size="14.00">N2IS&#45;B</text>
</g>
<!-- 3T7&#45;M8&#45;&#45;N2IS&#45;B -->
<g id="edge65" class="edge">
<title>3T7&#45;M8&#45;&#45;N2IS&#45;B</title>
<path fill="none" stroke="black" d="M336.54,-363.19C325.06,-357.89 311.97,-351.86 300.52,-346.58"/>
</g>
<!-- VPLL&#45;N -->
<g id="VPLL&#45;N" class="node">
<title>VPLL&#45;N</title>
<ellipse fill="none" stroke="black" cx="172.63" cy="-329.75" rx="46.29" ry="18"/>
<text text-anchor="middle" x="172.63" y="-326.05" font-family="Times,serif" font-size="14.00">VPLL&#45;N</text>
</g>
<!-- N2IS&#45;B&#45;&#45;VPLL&#45;N -->
<g id="edge66" class="edge">
<title>N2IS&#45;B&#45;&#45;VPLL&#45;N</title>
<path fill="none" stroke="black" d="M226.71,-331.52C224.06,-331.43 221.38,-331.35 218.73,-331.26"/>
</g>
<!-- XCBK&#45;X -->
<g id="XCBK&#45;X" class="node">
<title>XCBK&#45;X</title>
<ellipse fill="none" stroke="black" cx="72.27" cy="-307.89" rx="46.29" ry="18"/>
<text text-anchor="middle" x="72.27" y="-304.19" font-family="Times,serif" font-size="14.00">XCBK&#45;X</text>
</g>
<!-- VPLL&#45;N&#45;&#45;XCBK&#45;X -->
<g id="edge67" class="edge">
<title>VPLL&#45;N&#45;&#45;XCBK&#45;X</title>
<path fill="none" stroke="black" d="M132.1,-320.92C125.68,-319.53 119.04,-318.08 112.63,-316.68"/>
</g>
<!-- 43B&#45;O1 -->
<g id="_43B&#45;O1" class="node">
<title>43B&#45;O1</title>
<ellipse fill="none" stroke="black" cx="359.07" cy="-476.74" rx="45.5" ry="18"/>
<text text-anchor="middle" x="359.07" y="-473.04" font-family="Times,serif" font-size="14.00">43B&#45;O1</text>
</g>
<!-- 43B&#45;O1&#45;&#45;WUZ&#45;WM -->
<g id="edge68" class="edge">
<title>43B&#45;O1&#45;&#45;WUZ&#45;WM</title>
<path fill="none" stroke="black" d="M332.27,-461.84C320.95,-455.55 307.75,-448.23 296.29,-441.85"/>
</g>
<!-- 5S&#45;KXA -->
<g id="_5S&#45;KXA" class="node">
<title>5S&#45;KXA</title>
<ellipse fill="none" stroke="black" cx="296.03" cy="-520.77" rx="45.5" ry="18"/>
<text text-anchor="middle" x="296.03" y="-517.07" font-family="Times,serif" font-size="14.00">5S&#45;KXA</text>
</g>
<!-- 43B&#45;O1&#45;&#45;5S&#45;KXA -->
<g id="edge69" class="edge">
<title>43B&#45;O1&#45;&#45;5S&#45;KXA</title>
<path fill="none" stroke="black" d="M336.31,-492.64C330.53,-496.68 324.32,-501.01 318.55,-505.05"/>
</g>
<!-- J1AU&#45;9 -->
<g id="J1AU&#45;9" class="node">
<title>J1AU&#45;9</title>
<ellipse fill="none" stroke="black" cx="551.01" cy="-282.15" rx="42.49" ry="18"/>
<text text-anchor="middle" x="551.01" y="-278.45" font-family="Times,serif" font-size="14.00">J1AU&#45;9</text>
</g>
<!-- J1AU&#45;9&#45;&#45;MZ1E&#45;P -->
<g id="edge70" class="edge">
<title>J1AU&#45;9&#45;&#45;MZ1E&#45;P</title>
<path fill="none" stroke="black" d="M526.34,-296.81C518.77,-301.32 510.41,-306.28 502.76,-310.83"/>
</g>
<!-- X3&#45;PBC -->
<g id="X3&#45;PBC" class="node">
<title>X3&#45;PBC</title>
<ellipse fill="none" stroke="black" cx="594.22" cy="-238.11" rx="46.29" ry="18"/>
<text text-anchor="middle" x="594.22" y="-234.41" font-family="Times,serif" font-size="14.00">X3&#45;PBC</text>
</g>
<!-- J1AU&#45;9&#45;&#45;X3&#45;PBC -->
<g id="edge71" class="edge">
<title>J1AU&#45;9&#45;&#45;X3&#45;PBC</title>
<path fill="none" stroke="black" d="M567.35,-265.5C570.69,-262.09 574.22,-258.5 577.57,-255.08"/>
</g>
<!-- 4N&#45;BUI -->
<g id="_4N&#45;BUI" class="node">
<title>4N&#45;BUI</title>
<ellipse fill="none" stroke="black" cx="172.39" cy="-374.87" rx="45.5" ry="18"/>
<text text-anchor="middle" x="172.39" y="-371.17" font-family="Times,serif" font-size="14.00">4N&#45;BUI</text>
</g>
<!-- 4N&#45;BUI&#45;&#45;WUZ&#45;WM -->
<g id="edge72" class="edge">
<title>4N&#45;BUI&#45;&#45;WUZ&#45;WM</title>
<path fill="none" stroke="black" d="M199.56,-389.44C211.94,-396.08 226.6,-403.94 239.18,-410.69"/>
</g>
<!-- 4N&#45;BUI&#45;&#45;VPLL&#45;N -->
<g id="edge73" class="edge">
<title>4N&#45;BUI&#45;&#45;VPLL&#45;N</title>
<path fill="none" stroke="black" d="M172.48,-356.78C172.5,-353.84 172.52,-350.79 172.53,-347.85"/>
</g>
<!-- 4N&#45;BUI&#45;&#45;XCBK&#45;X -->
<g id="edge74" class="edge">
<title>4N&#45;BUI&#45;&#45;XCBK&#45;X</title>
<path fill="none" stroke="black" d="M149.17,-359.34C133.11,-348.59 111.82,-334.35 95.71,-323.58"/>
</g>
<!-- GY5&#45;26 -->
<g id="GY5&#45;26" class="node">
<title>GY5&#45;26</title>
<ellipse fill="none" stroke="black" cx="72.01" cy="-400.7" rx="44.39" ry="18"/>
<text text-anchor="middle" x="72.01" y="-397" font-family="Times,serif" font-size="14.00">GY5&#45;26</text>
</g>
<!-- 4N&#45;BUI&#45;&#45;GY5&#45;26 -->
<g id="edge75" class="edge">
<title>4N&#45;BUI&#45;&#45;GY5&#45;26</title>
<path fill="none" stroke="black" d="M134.15,-384.71C126.06,-386.79 117.54,-388.99 109.48,-391.06"/>
</g>
<!-- 9CK&#45;KZ -->
<g id="_9CK&#45;KZ" class="node">
<title>9CK&#45;KZ</title>
<ellipse fill="none" stroke="black" cx="46.15" cy="-355.28" rx="46.29" ry="18"/>
<text text-anchor="middle" x="46.15" y="-351.58" font-family="Times,serif" font-size="14.00">9CK&#45;KZ</text>
</g>
<!-- 4N&#45;BUI&#45;&#45;9CK&#45;KZ -->
<g id="edge76" class="edge">
<title>4N&#45;BUI&#45;&#45;9CK&#45;KZ</title>
<path fill="none" stroke="black" d="M130,-368.29C116.82,-366.25 102.28,-363.99 89.07,-361.94"/>
</g>
<!-- GY5&#45;26&#45;&#45;VPLL&#45;N -->
<g id="edge77" class="edge">
<title>GY5&#45;26&#45;&#45;VPLL&#45;N</title>
<path fill="none" stroke="black" d="M94.34,-384.95C110.9,-373.28 133.39,-357.42 150.01,-345.7"/>
</g>
<!-- GY5&#45;26&#45;&#45;XCBK&#45;X -->
<g id="edge78" class="edge">
<title>GY5&#45;26&#45;&#45;XCBK&#45;X</title>
<path fill="none" stroke="black" d="M84.89,-383.08C89.58,-375.04 93.78,-365.13 93.89,-355.34 94.01,-344.84 89.58,-334.11 84.7,-325.52"/>
</g>
<!-- 9CK&#45;KZ&#45;&#45;VPLL&#45;N -->
<g id="edge79" class="edge">
<title>9CK&#45;KZ&#45;&#45;VPLL&#45;N</title>
<path fill="none" stroke="black" d="M87.21,-346.99C101.35,-344.14 117.18,-340.94 131.34,-338.08"/>
</g>
<!-- 9CK&#45;KZ&#45;&#45;XCBK&#45;X -->
<g id="edge80" class="edge">
<title>9CK&#45;KZ&#45;&#45;XCBK&#45;X</title>
<path fill="none" stroke="black" d="M55.87,-337.63C58.02,-333.74 60.3,-329.61 62.45,-325.71"/>
</g>
<!-- 9CK&#45;KZ&#45;&#45;GY5&#45;26 -->
<g id="edge81" class="edge">
<title>9CK&#45;KZ&#45;&#45;GY5&#45;26</title>
<path fill="none" stroke="black" d="M56.22,-372.97C58.09,-376.26 60.05,-379.69 61.92,-382.98"/>
</g>
<!-- U&#45;TJ7Y -->
<g id="U&#45;TJ7Y" class="node">
<title>U&#45;TJ7Y</title>
<ellipse fill="none" stroke="black" cx="618.26" cy="-194.1" rx="42.49" ry="18"/>
<text text-anchor="middle" x="618.26" y="-190.4" font-family="Times,serif" font-size="14.00">U&#45;TJ7Y</text>
</g>
<!-- U&#45;TJ7Y&#45;&#45;X3&#45;PBC -->
<g id="edge82" class="edge">
<title>U&#45;TJ7Y&#45;&#45;X3&#45;PBC</title>
<path fill="none" stroke="black" d="M608.62,-211.75C607.05,-214.62 605.43,-217.59 603.86,-220.46"/>
</g>
<!-- A4L&#45;A2 -->
<g id="A4L&#45;A2" class="node">
<title>A4L&#45;A2</title>
<ellipse fill="none" stroke="black" cx="568.96" cy="-150.07" rx="44.39" ry="18"/>
<text text-anchor="middle" x="568.96" y="-146.37" font-family="Times,serif" font-size="14.00">A4L&#45;A2</text>
</g>
<!-- A4L&#45;A2&#45;&#45;U&#45;TJ7Y -->
<g id="edge83" class="edge">
<title>A4L&#45;A2&#45;&#45;U&#45;TJ7Y</title>
<path fill="none" stroke="black" d="M587.32,-166.46C591.48,-170.18 595.9,-174.13 600.05,-177.84"/>
</g>
<!-- CZDJ&#45;1 -->
<g id="CZDJ&#45;1" class="node">
<title>CZDJ&#45;1</title>
<ellipse fill="none" stroke="black" cx="563.77" cy="-106.05" rx="43.59" ry="18"/>
<text text-anchor="middle" x="563.77" y="-102.35" font-family="Times,serif" font-size="14.00">CZDJ&#45;1</text>
</g>
<!-- A4L&#45;A2&#45;&#45;CZDJ&#45;1 -->
<g id="edge84" class="edge">
<title>A4L&#45;A2&#45;&#45;CZDJ&#45;1</title>
<path fill="none" stroke="black" d="M566.82,-131.91C566.52,-129.35 566.21,-126.73 565.91,-124.17"/>
</g>
<!-- UEJX&#45;G -->
<g id="UEJX&#45;G" class="node">
<title>UEJX&#45;G</title>
<ellipse fill="none" stroke="black" cx="449.18" cy="-155.67" rx="45.5" ry="18"/>
<text text-anchor="middle" x="449.18" y="-151.97" font-family="Times,serif" font-size="14.00">UEJX&#45;G</text>
</g>
<!-- A4L&#45;A2&#45;&#45;UEJX&#45;G -->
<g id="edge85" class="edge">
<title>A4L&#45;A2&#45;&#45;UEJX&#45;G</title>
<path fill="none" stroke="black" d="M525.04,-152.12C515.16,-152.58 504.65,-153.07 494.71,-153.54"/>
</g>
<!-- RG9&#45;7U -->
<g id="RG9&#45;7U" class="node">
<title>RG9&#45;7U</title>
<ellipse fill="none" stroke="black" cx="600.55" cy="-61.56" rx="47.5" ry="18"/>
<text text-anchor="middle" x="600.55" y="-57.86" font-family="Times,serif" font-size="14.00">RG9&#45;7U</text>
</g>
<!-- CZDJ&#45;1&#45;&#45;RG9&#45;7U -->
<g id="edge86" class="edge">
<title>CZDJ&#45;1&#45;&#45;RG9&#45;7U</title>
<path fill="none" stroke="black" d="M577.89,-88.98C580.64,-85.64 583.53,-82.15 586.29,-78.81"/>
</g>
<!-- UJY&#45;HE -->
<g id="UJY&#45;HE" class="node">
<title>UJY&#45;HE</title>
<ellipse fill="none" stroke="black" cx="500.79" cy="-62.02" rx="44.39" ry="18"/>
<text text-anchor="middle" x="500.79" y="-58.32" font-family="Times,serif" font-size="14.00">UJY&#45;HE</text>
</g>
<!-- CZDJ&#45;1&#45;&#45;UJY&#45;HE -->
<g id="edge87" class="edge">
<title>CZDJ&#45;1&#45;&#45;UJY&#45;HE</title>
<path fill="none" stroke="black" d="M541.39,-90.41C535.45,-86.25 529.04,-81.77 523.1,-77.62"/>
</g>
<!-- RG9&#45;7U&#45;&#45;UJY&#45;HE -->
<g id="edge88" class="edge">
<title>RG9&#45;7U&#45;&#45;UJY&#45;HE</title>
<path fill="none" stroke="black" d="M553.01,-61.78C550.4,-61.79 547.78,-61.8 545.18,-61.82"/>
</g>
<!-- Y&#45;1918 -->
<g id="Y&#45;1918" class="node">
<title>Y&#45;1918</title>
<polygon fill="none" stroke="black" points="505.16,-36 440.16,-36 440.16,0 505.16,0 505.16,-36"/>
<text text-anchor="middle" x="472.66" y="-14.3" font-family="Times,serif" font-size="14.00">Y&#45;1918</text>
</g>
<!-- UJY&#45;HE&#45;&#45;Y&#45;1918 -->
<g id="edge89" class="edge">
<title>UJY&#45;HE&#45;&#45;Y&#45;1918</title>
<path fill="none" stroke="black" d="M489.51,-44.37C487.8,-41.69 486.03,-38.92 484.31,-36.23"/>
</g>
</g>
</svg>
