<?xml version="1.0" encoding="UTF-8" standalone="no"?>
<!DOCTYPE svg PUBLIC "-//W3C//DTD SVG 1.1//EN"
 "http://www.w3.org/Graphics/SVG/1.1/DTD/svg11.dtd">
<!-- Generated by graphviz version 2.43.0 (0)
 -->
<!-- Pages: 1 -->
<svg width="1572pt" height="1034pt"
 viewBox="0.00 0.00 1572.20 1033.90" xmlns="http://www.w3.org/2000/svg" xmlns:xlink="http://www.w3.org/1999/xlink">
<g id="graph0" class="graph" transform="scale(1 1) rotate(0) translate(4 1029.9)">
<polygon fill="white" stroke="transparent" points="-4,4 -4,-1029.9 1568.2,-1029.9 1568.2,4 -4,4"/>
<!-- U&#45;WLT9 -->
<g id="U&#45;WLT9" class="node">
<title>U&#45;WLT9</title>
<polygon fill="none" stroke="black" points="1073.7,-383.43 1001.7,-383.43 1001.7,-347.43 1073.7,-347.43 1073.7,-383.43"/>
<text text-anchor="middle" x="1037.7" y="-361.73" font-family="Times,serif" font-size="14.00">U&#45;WLT9</text>
</g>
<!-- VYJ&#45;DA -->
<g id="VYJ&#45;DA" class="node">
<title>VYJ&#45;DA</title>
<ellipse fill="none" stroke="black" cx="947.04" cy="-356.39" rx="43" ry="18"/>
<text text-anchor="middle" x="947.04" y="-352.69" font-family="Times,serif" font-size="14.00">VYJ&#45;DA</text>
</g>
<!-- VYJ&#45;DA&#45;&#45;U&#45;WLT9 -->
<g id="edge1" class="edge">
<title>VYJ&#45;DA&#45;&#45;U&#45;WLT9</title>
<path fill="none" stroke="black" d="M988.9,-360.57C993.07,-360.98 997.29,-361.41 1001.4,-361.82"/>
</g>
<!-- HHQ&#45;M1 -->
<g id="HHQ&#45;M1" class="node">
<title>HHQ&#45;M1</title>
<ellipse fill="none" stroke="black" cx="920.7" cy="-312.36" rx="52" ry="18"/>
<text text-anchor="middle" x="920.7" y="-308.66" font-family="Times,serif" font-size="14.00">HHQ&#45;M1</text>
</g>
<!-- HHQ&#45;M1&#45;&#45;VYJ&#45;DA -->
<g id="edge2" class="edge">
<title>HHQ&#45;M1&#45;&#45;VYJ&#45;DA</title>
<path fill="none" stroke="black" d="M931.26,-330.02C932.98,-332.89 934.76,-335.86 936.47,-338.73"/>
</g>
<!-- A&#45;CJGE -->
<g id="A&#45;CJGE" class="node">
<title>A&#45;CJGE</title>
<ellipse fill="none" stroke="black" cx="1015.9" cy="-268.33" rx="44.39" ry="18"/>
<text text-anchor="middle" x="1015.9" y="-264.63" font-family="Times,serif" font-size="14.00">A&#45;CJGE</text>
</g>
<!-- A&#45;CJGE&#45;&#45;HHQ&#45;M1 -->
<g id="edge3" class="edge">
<title>A&#45;CJGE&#45;&#45;HHQ&#45;M1</title>
<path fill="none" stroke="black" d="M986.59,-281.9C975.66,-286.95 963.21,-292.71 952.1,-297.84"/>
</g>
<!-- G2&#45;INZ -->
<g id="G2&#45;INZ" class="node">
<title>G2&#45;INZ</title>
<ellipse fill="none" stroke="black" cx="1112.4" cy="-276.08" rx="44.39" ry="18"/>
<text text-anchor="middle" x="1112.4" y="-272.38" font-family="Times,serif" font-size="14.00">G2&#45;INZ</text>
</g>
<!-- A&#45;CJGE&#45;&#45;G2&#45;INZ -->
<g id="edge4" class="edge">
<title>A&#45;CJGE&#45;&#45;G2&#45;INZ</title>
<path fill="none" stroke="black" d="M1059.4,-271.82C1062.6,-272.07 1065.8,-272.33 1069,-272.59"/>
</g>
<!-- WAC&#45;HW -->
<g id="WAC&#45;HW" class="node">
<title>WAC&#45;HW</title>
<ellipse fill="none" stroke="black" cx="976.12" cy="-224.3" rx="52.79" ry="18"/>
<text text-anchor="middle" x="976.12" y="-220.6" font-family="Times,serif" font-size="14.00">WAC&#45;HW</text>
</g>
<!-- A&#45;CJGE&#45;&#45;WAC&#45;HW -->
<g id="edge5" class="edge">
<title>A&#45;CJGE&#45;&#45;WAC&#45;HW</title>
<path fill="none" stroke="black" d="M1000.7,-251.43C997.77,-248.23 994.73,-244.88 991.83,-241.66"/>
</g>
<!-- HT4K&#45;M -->
<g id="HT4K&#45;M" class="node">
<title>HT4K&#45;M</title>
<ellipse fill="none" stroke="black" cx="847.29" cy="-356.6" rx="48.99" ry="18"/>
<text text-anchor="middle" x="847.29" y="-352.9" font-family="Times,serif" font-size="14.00">HT4K&#45;M</text>
</g>
<!-- HT4K&#45;M&#45;&#45;VYJ&#45;DA -->
<g id="edge6" class="edge">
<title>HT4K&#45;M&#45;&#45;VYJ&#45;DA</title>
<path fill="none" stroke="black" d="M896.29,-356.5C898.85,-356.49 901.41,-356.49 903.95,-356.48"/>
</g>
<!-- RBW&#45;8G -->
<g id="RBW&#45;8G" class="node">
<title>RBW&#45;8G</title>
<ellipse fill="none" stroke="black" cx="978.5" cy="-180.3" rx="49.5" ry="18"/>
<text text-anchor="middle" x="978.5" y="-176.6" font-family="Times,serif" font-size="14.00">RBW&#45;8G</text>
</g>
<!-- RBW&#45;8G&#45;&#45;WAC&#45;HW -->
<g id="edge7" class="edge">
<title>RBW&#45;8G&#45;&#45;WAC&#45;HW</title>
<path fill="none" stroke="black" d="M977.52,-198.45C977.38,-201.01 977.24,-203.64 977.1,-206.19"/>
</g>
<!-- 4&#45;OUKF -->
<g id="_4&#45;OUKF" class="node">
<title>4&#45;OUKF</title>
<ellipse fill="none" stroke="black" cx="867.03" cy="-400.64" rx="48.19" ry="18"/>
<text text-anchor="middle" x="867.03" y="-396.94" font-family="Times,serif" font-size="14.00">4&#45;OUKF</text>
</g>
<!-- 4&#45;OUKF&#45;&#45;HT4K&#45;M -->
<g id="edge8" class="edge">
<title>4&#45;OUKF&#45;&#45;HT4K&#45;M</title>
<path fill="none" stroke="black" d="M859,-382.73C857.81,-380.06 856.57,-377.31 855.38,-374.64"/>
</g>
<!-- HAJ&#45;DQ -->
<g id="HAJ&#45;DQ" class="node">
<title>HAJ&#45;DQ</title>
<ellipse fill="none" stroke="black" cx="997.91" cy="-409.59" rx="46.29" ry="18"/>
<text text-anchor="middle" x="997.91" y="-405.89" font-family="Times,serif" font-size="14.00">HAJ&#45;DQ</text>
</g>
<!-- 4&#45;OUKF&#45;&#45;HAJ&#45;DQ -->
<g id="edge9" class="edge">
<title>4&#45;OUKF&#45;&#45;HAJ&#45;DQ</title>
<path fill="none" stroke="black" d="M914.65,-403.89C926.93,-404.73 940.12,-405.64 952.29,-406.47"/>
</g>
<!-- JAUD&#45;V -->
<g id="JAUD&#45;V" class="node">
<title>JAUD&#45;V</title>
<ellipse fill="none" stroke="black" cx="808.38" cy="-444.65" rx="44.39" ry="18"/>
<text text-anchor="middle" x="808.38" y="-440.95" font-family="Times,serif" font-size="14.00">JAUD&#45;V</text>
</g>
<!-- 4&#45;OUKF&#45;&#45;JAUD&#45;V -->
<g id="edge10" class="edge">
<title>4&#45;OUKF&#45;&#45;JAUD&#45;V</title>
<path fill="none" stroke="black" d="M845.53,-416.78C840.3,-420.7 834.71,-424.9 829.49,-428.81"/>
</g>
<!-- DTX8&#45;M -->
<g id="DTX8&#45;M" class="node">
<title>DTX8&#45;M</title>
<ellipse fill="none" stroke="black" cx="807.07" cy="-488.68" rx="48.19" ry="18"/>
<text text-anchor="middle" x="807.07" y="-484.98" font-family="Times,serif" font-size="14.00">DTX8&#45;M</text>
</g>
<!-- DTX8&#45;M&#45;&#45;JAUD&#45;V -->
<g id="edge11" class="edge">
<title>DTX8&#45;M&#45;&#45;JAUD&#45;V</title>
<path fill="none" stroke="black" d="M807.61,-470.52C807.69,-467.96 807.76,-465.33 807.84,-462.77"/>
</g>
<!-- C9N&#45;CC -->
<g id="C9N&#45;CC" class="node">
<title>C9N&#45;CC</title>
<ellipse fill="none" stroke="black" cx="775.88" cy="-532.72" rx="48.19" ry="18"/>
<text text-anchor="middle" x="775.88" y="-529.02" font-family="Times,serif" font-size="14.00">C9N&#45;CC</text>
</g>
<!-- C9N&#45;CC&#45;&#45;DTX8&#45;M -->
<g id="edge12" class="edge">
<title>C9N&#45;CC&#45;&#45;DTX8&#45;M</title>
<path fill="none" stroke="black" d="M788.21,-515.32C790.32,-512.33 792.51,-509.23 794.63,-506.25"/>
</g>
<!-- X&#45;7BIX -->
<g id="X&#45;7BIX" class="node">
<title>X&#45;7BIX</title>
<ellipse fill="none" stroke="black" cx="860.84" cy="-588.7" rx="42.49" ry="18"/>
<text text-anchor="middle" x="860.84" y="-585" font-family="Times,serif" font-size="14.00">X&#45;7BIX</text>
</g>
<!-- C9N&#45;CC&#45;&#45;X&#45;7BIX -->
<g id="edge13" class="edge">
<title>C9N&#45;CC&#45;&#45;X&#45;7BIX</title>
<path fill="none" stroke="black" d="M800,-548.61C811.87,-556.44 826.12,-565.82 837.83,-573.54"/>
</g>
<!-- TR07&#45;S -->
<g id="TR07&#45;S" class="node">
<title>TR07&#45;S</title>
<polygon fill="none" stroke="black" points="916.84,-562.67 848.84,-562.67 848.84,-526.67 916.84,-526.67 916.84,-562.67"/>
<text text-anchor="middle" x="882.84" y="-540.97" font-family="Times,serif" font-size="14.00">TR07&#45;S</text>
</g>
<!-- X&#45;7BIX&#45;&#45;TR07&#45;S -->
<g id="edge14" class="edge">
<title>X&#45;7BIX&#45;&#45;TR07&#45;S</title>
<path fill="none" stroke="black" d="M869.66,-571.05C871,-568.37 872.38,-565.6 873.73,-562.91"/>
</g>
<!-- 5&#45;9UXZ -->
<g id="_5&#45;9UXZ" class="node">
<title>5&#45;9UXZ</title>
<ellipse fill="none" stroke="black" cx="783.23" cy="-632.72" rx="46.29" ry="18"/>
<text text-anchor="middle" x="783.23" y="-629.02" font-family="Times,serif" font-size="14.00">5&#45;9UXZ</text>
</g>
<!-- 5&#45;9UXZ&#45;&#45;X&#45;7BIX -->
<g id="edge15" class="edge">
<title>5&#45;9UXZ&#45;&#45;X&#45;7BIX</title>
<path fill="none" stroke="black" d="M809.51,-617.82C817.86,-613.08 827.09,-607.85 835.38,-603.14"/>
</g>
<!-- Q0OH&#45;V -->
<g id="Q0OH&#45;V" class="node">
<title>Q0OH&#45;V</title>
<ellipse fill="none" stroke="black" cx="906.78" cy="-632.71" rx="48.19" ry="18"/>
<text text-anchor="middle" x="906.78" y="-629.01" font-family="Times,serif" font-size="14.00">Q0OH&#45;V</text>
</g>
<!-- 5&#45;9UXZ&#45;&#45;Q0OH&#45;V -->
<g id="edge16" class="edge">
<title>5&#45;9UXZ&#45;&#45;Q0OH&#45;V</title>
<path fill="none" stroke="black" d="M829.59,-632.72C839.04,-632.72 849,-632.72 858.51,-632.72"/>
</g>
<!-- Q0OH&#45;V&#45;&#45;X&#45;7BIX -->
<g id="edge17" class="edge">
<title>Q0OH&#45;V&#45;&#45;X&#45;7BIX</title>
<path fill="none" stroke="black" d="M889.15,-615.82C885.5,-612.33 881.67,-608.66 878.04,-605.18"/>
</g>
<!-- XKZ8&#45;H -->
<g id="XKZ8&#45;H" class="node">
<title>XKZ8&#45;H</title>
<ellipse fill="none" stroke="black" cx="1010.1" cy="-602.97" rx="47" ry="18"/>
<text text-anchor="middle" x="1010.1" y="-599.27" font-family="Times,serif" font-size="14.00">XKZ8&#45;H</text>
</g>
<!-- Q0OH&#45;V&#45;&#45;XKZ8&#45;H -->
<g id="edge18" class="edge">
<title>Q0OH&#45;V&#45;&#45;XKZ8&#45;H</title>
<path fill="none" stroke="black" d="M944.97,-621.72C953.94,-619.14 963.49,-616.39 972.44,-613.82"/>
</g>
<!-- Z&#45;Y9C3 -->
<g id="Z&#45;Y9C3" class="node">
<title>Z&#45;Y9C3</title>
<ellipse fill="none" stroke="black" cx="1055.4" cy="-558.96" rx="43.59" ry="18"/>
<text text-anchor="middle" x="1055.4" y="-555.26" font-family="Times,serif" font-size="14.00">Z&#45;Y9C3</text>
</g>
<!-- XKZ8&#45;H&#45;&#45;Z&#45;Y9C3 -->
<g id="edge19" class="edge">
<title>XKZ8&#45;H&#45;&#45;Z&#45;Y9C3</title>
<path fill="none" stroke="black" d="M1027.5,-586.08C1031,-582.69 1034.7,-579.12 1038.2,-575.73"/>
</g>
<!-- C&#45;VZAK -->
<g id="C&#45;VZAK" class="node">
<title>C&#45;VZAK</title>
<ellipse fill="none" stroke="black" cx="964.23" cy="-136.28" rx="46.29" ry="18"/>
<text text-anchor="middle" x="964.23" y="-132.58" font-family="Times,serif" font-size="14.00">C&#45;VZAK</text>
</g>
<!-- C&#45;VZAK&#45;&#45;RBW&#45;8G -->
<g id="edge20" class="edge">
<title>C&#45;VZAK&#45;&#45;RBW&#45;8G</title>
<path fill="none" stroke="black" d="M970.03,-154.18C970.9,-156.85 971.79,-159.6 972.65,-162.27"/>
</g>
<!-- 0&#45;O6XF -->
<g id="_0&#45;O6XF" class="node">
<title>0&#45;O6XF</title>
<ellipse fill="none" stroke="black" cx="959.32" cy="-92.24" rx="45.5" ry="18"/>
<text text-anchor="middle" x="959.32" y="-88.54" font-family="Times,serif" font-size="14.00">0&#45;O6XF</text>
</g>
<!-- 0&#45;O6XF&#45;&#45;C&#45;VZAK -->
<g id="edge21" class="edge">
<title>0&#45;O6XF&#45;&#45;C&#45;VZAK</title>
<path fill="none" stroke="black" d="M961.34,-110.41C961.63,-112.97 961.92,-115.6 962.21,-118.16"/>
</g>
<!-- D&#45;FVI7 -->
<g id="D&#45;FVI7" class="node">
<title>D&#45;FVI7</title>
<ellipse fill="none" stroke="black" cx="1056.1" cy="-79.34" rx="43" ry="18"/>
<text text-anchor="middle" x="1056.1" y="-75.64" font-family="Times,serif" font-size="14.00">D&#45;FVI7</text>
</g>
<!-- 0&#45;O6XF&#45;&#45;D&#45;FVI7 -->
<g id="edge22" class="edge">
<title>0&#45;O6XF&#45;&#45;D&#45;FVI7</title>
<path fill="none" stroke="black" d="M1002.6,-86.47C1006.8,-85.92 1010.9,-85.36 1015,-84.82"/>
</g>
<!-- VL7&#45;60 -->
<g id="VL7&#45;60" class="node">
<title>VL7&#45;60</title>
<ellipse fill="none" stroke="black" cx="1005.7" cy="-35.28" rx="43.59" ry="18"/>
<text text-anchor="middle" x="1005.7" y="-31.58" font-family="Times,serif" font-size="14.00">VL7&#45;60</text>
</g>
<!-- 0&#45;O6XF&#45;&#45;VL7&#45;60 -->
<g id="edge23" class="edge">
<title>0&#45;O6XF&#45;&#45;VL7&#45;60</title>
<path fill="none" stroke="black" d="M973.48,-74.84C979.23,-67.78 985.86,-59.63 991.6,-52.58"/>
</g>
<!-- NH&#45;R5B -->
<g id="NH&#45;R5B" class="node">
<title>NH&#45;R5B</title>
<ellipse fill="none" stroke="black" cx="850.75" cy="-62.07" rx="48.99" ry="18"/>
<text text-anchor="middle" x="850.75" y="-58.37" font-family="Times,serif" font-size="14.00">NH&#45;R5B</text>
</g>
<!-- 0&#45;O6XF&#45;&#45;NH&#45;R5B -->
<g id="edge24" class="edge">
<title>0&#45;O6XF&#45;&#45;NH&#45;R5B</title>
<path fill="none" stroke="black" d="M921.96,-81.86C911.65,-79 900.44,-75.88 890.03,-72.99"/>
</g>
<!-- FN&#45;GFQ -->
<g id="FN&#45;GFQ" class="node">
<title>FN&#45;GFQ</title>
<ellipse fill="none" stroke="black" cx="825.23" cy="-18" rx="48.99" ry="18"/>
<text text-anchor="middle" x="825.23" y="-14.3" font-family="Times,serif" font-size="14.00">FN&#45;GFQ</text>
</g>
<!-- FN&#45;GFQ&#45;&#45;NH&#45;R5B -->
<g id="edge25" class="edge">
<title>FN&#45;GFQ&#45;&#45;NH&#45;R5B</title>
<path fill="none" stroke="black" d="M835.46,-35.67C837.13,-38.55 838.85,-41.52 840.51,-44.4"/>
</g>
<!-- WX&#45;6UX -->
<g id="WX&#45;6UX" class="node">
<title>WX&#45;6UX</title>
<ellipse fill="none" stroke="black" cx="1114.9" cy="-603.72" rx="49.5" ry="18"/>
<text text-anchor="middle" x="1114.9" y="-600.02" font-family="Times,serif" font-size="14.00">WX&#45;6UX</text>
</g>
<!-- WX&#45;6UX&#45;&#45;XKZ8&#45;H -->
<g id="edge26" class="edge">
<title>WX&#45;6UX&#45;&#45;XKZ8&#45;H</title>
<path fill="none" stroke="black" d="M1065.2,-603.36C1062.5,-603.34 1059.7,-603.33 1057,-603.31"/>
</g>
<!-- BZ&#45;0GW -->
<g id="BZ&#45;0GW" class="node">
<title>BZ&#45;0GW</title>
<ellipse fill="none" stroke="black" cx="1222.4" cy="-612.23" rx="49.5" ry="18"/>
<text text-anchor="middle" x="1222.4" y="-608.53" font-family="Times,serif" font-size="14.00">BZ&#45;0GW</text>
</g>
<!-- BZ&#45;0GW&#45;&#45;WX&#45;6UX -->
<g id="edge27" class="edge">
<title>BZ&#45;0GW&#45;&#45;WX&#45;6UX</title>
<path fill="none" stroke="black" d="M1174,-608.4C1170.4,-608.11 1166.8,-607.83 1163.3,-607.55"/>
</g>
<!-- 16P&#45;PX -->
<g id="_16P&#45;PX" class="node">
<title>16P&#45;PX</title>
<ellipse fill="none" stroke="black" cx="1151.2" cy="-559.67" rx="44.39" ry="18"/>
<text text-anchor="middle" x="1151.2" y="-555.97" font-family="Times,serif" font-size="14.00">16P&#45;PX</text>
</g>
<!-- 16P&#45;PX&#45;&#45;WX&#45;6UX -->
<g id="edge28" class="edge">
<title>16P&#45;PX&#45;&#45;WX&#45;6UX</title>
<path fill="none" stroke="black" d="M1137.1,-576.83C1134.5,-579.92 1131.8,-583.15 1129.3,-586.25"/>
</g>
<!-- CR&#45;0E5 -->
<g id="CR&#45;0E5" class="node">
<title>CR&#45;0E5</title>
<ellipse fill="none" stroke="black" cx="1098.7" cy="-514.94" rx="46.29" ry="18"/>
<text text-anchor="middle" x="1098.7" y="-511.24" font-family="Times,serif" font-size="14.00">CR&#45;0E5</text>
</g>
<!-- 16P&#45;PX&#45;&#45;CR&#45;0E5 -->
<g id="edge29" class="edge">
<title>16P&#45;PX&#45;&#45;CR&#45;0E5</title>
<path fill="none" stroke="black" d="M1132,-543.27C1127.4,-539.38 1122.5,-535.23 1118,-531.34"/>
</g>
<!-- CR&#45;0E5&#45;&#45;Z&#45;Y9C3 -->
<g id="edge30" class="edge">
<title>CR&#45;0E5&#45;&#45;Z&#45;Y9C3</title>
<path fill="none" stroke="black" d="M1082.1,-531.83C1078.8,-535.23 1075.3,-538.79 1071.9,-542.18"/>
</g>
<!-- A1&#45;AUH -->
<g id="A1&#45;AUH" class="node">
<title>A1&#45;AUH</title>
<ellipse fill="none" stroke="black" cx="865.22" cy="-676.75" rx="48.19" ry="18"/>
<text text-anchor="middle" x="865.22" y="-673.05" font-family="Times,serif" font-size="14.00">A1&#45;AUH</text>
</g>
<!-- A1&#45;AUH&#45;&#45;Q0OH&#45;V -->
<g id="edge31" class="edge">
<title>A1&#45;AUH&#45;&#45;Q0OH&#45;V</title>
<path fill="none" stroke="black" d="M881.4,-659.6C884.41,-656.41 887.56,-653.08 890.56,-649.89"/>
</g>
<!-- F&#45;UVBV -->
<g id="F&#45;UVBV" class="node">
<title>F&#45;UVBV</title>
<ellipse fill="none" stroke="black" cx="968.2" cy="-719.24" rx="47" ry="18"/>
<text text-anchor="middle" x="968.2" y="-715.54" font-family="Times,serif" font-size="14.00">F&#45;UVBV</text>
</g>
<!-- A1&#45;AUH&#45;&#45;F&#45;UVBV -->
<g id="edge32" class="edge">
<title>A1&#45;AUH&#45;&#45;F&#45;UVBV</title>
<path fill="none" stroke="black" d="M897.8,-690.19C910.06,-695.25 923.97,-700.99 936.18,-706.03"/>
</g>
<!-- VUAC&#45;Y -->
<g id="VUAC&#45;Y" class="node">
<title>VUAC&#45;Y</title>
<ellipse fill="none" stroke="black" cx="746.81" cy="-676.73" rx="45.5" ry="18"/>
<text text-anchor="middle" x="746.81" y="-673.03" font-family="Times,serif" font-size="14.00">VUAC&#45;Y</text>
</g>
<!-- A1&#45;AUH&#45;&#45;VUAC&#45;Y -->
<g id="edge33" class="edge">
<title>A1&#45;AUH&#45;&#45;VUAC&#45;Y</title>
<path fill="none" stroke="black" d="M817.06,-676.74C808.99,-676.74 800.64,-676.74 792.63,-676.74"/>
</g>
<!-- G&#45;YZUX -->
<g id="G&#45;YZUX" class="node">
<title>G&#45;YZUX</title>
<ellipse fill="none" stroke="black" cx="866.54" cy="-761.4" rx="46.29" ry="18"/>
<text text-anchor="middle" x="866.54" y="-757.7" font-family="Times,serif" font-size="14.00">G&#45;YZUX</text>
</g>
<!-- A1&#45;AUH&#45;&#45;G&#45;YZUX -->
<g id="edge34" class="edge">
<title>A1&#45;AUH&#45;&#45;G&#45;YZUX</title>
<path fill="none" stroke="black" d="M865.5,-695.12C865.73,-709.41 866.03,-729.14 866.25,-743.36"/>
</g>
<!-- R&#45;FM0G -->
<g id="R&#45;FM0G" class="node">
<title>R&#45;FM0G</title>
<ellipse fill="none" stroke="black" cx="970.12" cy="-800.21" rx="49.5" ry="18"/>
<text text-anchor="middle" x="970.12" y="-796.51" font-family="Times,serif" font-size="14.00">R&#45;FM0G</text>
</g>
<!-- F&#45;UVBV&#45;&#45;R&#45;FM0G -->
<g id="edge35" class="edge">
<title>F&#45;UVBV&#45;&#45;R&#45;FM0G</title>
<path fill="none" stroke="black" d="M968.63,-737.61C968.95,-750.96 969.37,-768.93 969.69,-782.19"/>
</g>
<!-- TEIZ&#45;C -->
<g id="TEIZ&#45;C" class="node">
<title>TEIZ&#45;C</title>
<ellipse fill="none" stroke="black" cx="1070.5" cy="-803.25" rx="43" ry="18"/>
<text text-anchor="middle" x="1070.5" y="-799.55" font-family="Times,serif" font-size="14.00">TEIZ&#45;C</text>
</g>
<!-- F&#45;UVBV&#45;&#45;TEIZ&#45;C -->
<g id="edge36" class="edge">
<title>F&#45;UVBV&#45;&#45;TEIZ&#45;C</title>
<path fill="none" stroke="black" d="M988.4,-735.84C1006.4,-750.66 1032.7,-772.25 1050.6,-786.97"/>
</g>
<!-- V&#45;XANH -->
<g id="V&#45;XANH" class="node">
<title>V&#45;XANH</title>
<ellipse fill="none" stroke="black" cx="1092.3" cy="-742.73" rx="48.19" ry="18"/>
<text text-anchor="middle" x="1092.3" y="-739.03" font-family="Times,serif" font-size="14.00">V&#45;XANH</text>
</g>
<!-- F&#45;UVBV&#45;&#45;V&#45;XANH -->
<g id="edge37" class="edge">
<title>F&#45;UVBV&#45;&#45;V&#45;XANH</title>
<path fill="none" stroke="black" d="M1010.2,-727.19C1022.7,-729.56 1036.5,-732.16 1049.1,-734.55"/>
</g>
<!-- P&#45;3XVV -->
<g id="P&#45;3XVV" class="node">
<title>P&#45;3XVV</title>
<ellipse fill="none" stroke="black" cx="768.05" cy="-720.77" rx="44.39" ry="18"/>
<text text-anchor="middle" x="768.05" y="-717.07" font-family="Times,serif" font-size="14.00">P&#45;3XVV</text>
</g>
<!-- G&#45;YZUX&#45;&#45;P&#45;3XVV -->
<g id="edge38" class="edge">
<title>G&#45;YZUX&#45;&#45;P&#45;3XVV</title>
<path fill="none" stroke="black" d="M834.56,-748.21C823.22,-743.53 810.47,-738.27 799.2,-733.62"/>
</g>
<!-- R&#45;FM0G&#45;&#45;TEIZ&#45;C -->
<g id="edge39" class="edge">
<title>R&#45;FM0G&#45;&#45;TEIZ&#45;C</title>
<path fill="none" stroke="black" d="M1019.4,-801.7C1022.1,-801.78 1024.8,-801.86 1027.4,-801.94"/>
</g>
<!-- 450I&#45;W -->
<g id="_450I&#45;W" class="node">
<title>450I&#45;W</title>
<ellipse fill="none" stroke="black" cx="649.75" cy="-661.12" rx="43.59" ry="18"/>
<text text-anchor="middle" x="649.75" y="-657.42" font-family="Times,serif" font-size="14.00">450I&#45;W</text>
</g>
<!-- 450I&#45;W&#45;&#45;VUAC&#45;Y -->
<g id="edge40" class="edge">
<title>450I&#45;W&#45;&#45;VUAC&#45;Y</title>
<path fill="none" stroke="black" d="M690.35,-667.65C695.03,-668.4 699.8,-669.17 704.5,-669.93"/>
</g>
<!-- JD&#45;TYH -->
<g id="JD&#45;TYH" class="node">
<title>JD&#45;TYH</title>
<ellipse fill="none" stroke="black" cx="553.92" cy="-683.03" rx="44.39" ry="18"/>
<text text-anchor="middle" x="553.92" y="-679.33" font-family="Times,serif" font-size="14.00">JD&#45;TYH</text>
</g>
<!-- 450I&#45;W&#45;&#45;JD&#45;TYH -->
<g id="edge41" class="edge">
<title>450I&#45;W&#45;&#45;JD&#45;TYH</title>
<path fill="none" stroke="black" d="M611.6,-669.85C605.34,-671.28 598.84,-672.76 592.57,-674.2"/>
</g>
<!-- SN9S&#45;N -->
<g id="SN9S&#45;N" class="node">
<title>SN9S&#45;N</title>
<ellipse fill="none" stroke="black" cx="694.76" cy="-771.09" rx="48.19" ry="18"/>
<text text-anchor="middle" x="694.76" y="-767.39" font-family="Times,serif" font-size="14.00">SN9S&#45;N</text>
</g>
<!-- JD&#45;TYH&#45;&#45;SN9S&#45;N -->
<g id="edge42" class="edge">
<title>JD&#45;TYH&#45;&#45;SN9S&#45;N</title>
<path fill="none" stroke="black" d="M570.06,-699.92C582.73,-712.45 601.3,-729.29 619.98,-740.78 631.91,-748.13 645.93,-754.36 658.59,-759.23"/>
</g>
<!-- Z&#45;MO29 -->
<g id="Z&#45;MO29" class="node">
<title>Z&#45;MO29</title>
<ellipse fill="none" stroke="black" cx="664.78" cy="-815.28" rx="48.19" ry="18"/>
<text text-anchor="middle" x="664.78" y="-811.58" font-family="Times,serif" font-size="14.00">Z&#45;MO29</text>
</g>
<!-- SN9S&#45;N&#45;&#45;Z&#45;MO29 -->
<g id="edge43" class="edge">
<title>SN9S&#45;N&#45;&#45;Z&#45;MO29</title>
<path fill="none" stroke="black" d="M682.91,-788.56C680.88,-791.55 678.77,-794.66 676.74,-797.65"/>
</g>
<!-- JI&#45;K5H -->
<g id="JI&#45;K5H" class="node">
<title>JI&#45;K5H</title>
<polygon fill="none" stroke="black" points="602.94,-802.31 539.94,-802.31 539.94,-766.31 602.94,-766.31 602.94,-802.31"/>
<text text-anchor="middle" x="571.44" y="-780.61" font-family="Times,serif" font-size="14.00">JI&#45;K5H</text>
</g>
<!-- SN9S&#45;N&#45;&#45;JI&#45;K5H -->
<g id="edge44" class="edge">
<title>SN9S&#45;N&#45;&#45;JI&#45;K5H</title>
<path fill="none" stroke="black" d="M648.49,-776.05C633.31,-777.68 616.81,-779.45 602.99,-780.93"/>
</g>
<!-- OIOM&#45;Y -->
<g id="OIOM&#45;Y" class="node">
<title>OIOM&#45;Y</title>
<ellipse fill="none" stroke="black" cx="1167.6" cy="-788.74" rx="46.29" ry="18"/>
<text text-anchor="middle" x="1167.6" y="-785.04" font-family="Times,serif" font-size="14.00">OIOM&#45;Y</text>
</g>
<!-- OIOM&#45;Y&#45;&#45;TEIZ&#45;C -->
<g id="edge45" class="edge">
<title>OIOM&#45;Y&#45;&#45;TEIZ&#45;C</title>
<path fill="none" stroke="black" d="M1124.4,-795.19C1120,-795.85 1115.4,-796.53 1111,-797.19"/>
</g>
<!-- OIOM&#45;Y&#45;&#45;V&#45;XANH -->
<g id="edge46" class="edge">
<title>OIOM&#45;Y&#45;&#45;V&#45;XANH</title>
<path fill="none" stroke="black" d="M1142.5,-773.42C1134.5,-768.51 1125.6,-763.06 1117.5,-758.14"/>
</g>
<!-- CZ6U&#45;1 -->
<g id="CZ6U&#45;1" class="node">
<title>CZ6U&#45;1</title>
<ellipse fill="none" stroke="black" cx="797.07" cy="-808.36" rx="46.29" ry="18"/>
<text text-anchor="middle" x="797.07" y="-804.66" font-family="Times,serif" font-size="14.00">CZ6U&#45;1</text>
</g>
<!-- CZ6U&#45;1&#45;&#45;G&#45;YZUX -->
<g id="edge47" class="edge">
<title>CZ6U&#45;1&#45;&#45;G&#45;YZUX</title>
<path fill="none" stroke="black" d="M820.2,-792.72C827.62,-787.7 835.84,-782.15 843.27,-777.13"/>
</g>
<!-- D&#45;PNP9 -->
<g id="D&#45;PNP9" class="node">
<title>D&#45;PNP9</title>
<ellipse fill="none" stroke="black" cx="898.84" cy="-851.73" rx="47.5" ry="18"/>
<text text-anchor="middle" x="898.84" y="-848.03" font-family="Times,serif" font-size="14.00">D&#45;PNP9</text>
</g>
<!-- D&#45;PNP9&#45;&#45;G&#45;YZUX -->
<g id="edge48" class="edge">
<title>D&#45;PNP9&#45;&#45;G&#45;YZUX</title>
<path fill="none" stroke="black" d="M892.46,-833.88C886.83,-818.15 878.67,-795.33 873.02,-779.51"/>
</g>
<!-- E1UU&#45;3 -->
<g id="E1UU&#45;3" class="node">
<title>E1UU&#45;3</title>
<ellipse fill="none" stroke="black" cx="894.4" cy="-941.88" rx="47.5" ry="18"/>
<text text-anchor="middle" x="894.4" y="-938.18" font-family="Times,serif" font-size="14.00">E1UU&#45;3</text>
</g>
<!-- D&#45;PNP9&#45;&#45;E1UU&#45;3 -->
<g id="edge49" class="edge">
<title>D&#45;PNP9&#45;&#45;E1UU&#45;3</title>
<path fill="none" stroke="black" d="M897.94,-869.97C897.17,-885.61 896.07,-908.03 895.3,-923.66"/>
</g>
<!-- BY&#45;MSY -->
<g id="BY&#45;MSY" class="node">
<title>BY&#45;MSY</title>
<ellipse fill="none" stroke="black" cx="942.38" cy="-987.28" rx="46.29" ry="18"/>
<text text-anchor="middle" x="942.38" y="-983.58" font-family="Times,serif" font-size="14.00">BY&#45;MSY</text>
</g>
<!-- BY&#45;MSY&#45;&#45;E1UU&#45;3 -->
<g id="edge50" class="edge">
<title>BY&#45;MSY&#45;&#45;E1UU&#45;3</title>
<path fill="none" stroke="black" d="M924.79,-970.64C920.72,-966.79 916.39,-962.69 912.31,-958.83"/>
</g>
<!-- 6EK&#45;BV -->
<g id="_6EK&#45;BV" class="node">
<title>6EK&#45;BV</title>
<ellipse fill="none" stroke="black" cx="975.79" cy="-897.84" rx="46.29" ry="18"/>
<text text-anchor="middle" x="975.79" y="-894.14" font-family="Times,serif" font-size="14.00">6EK&#45;BV</text>
</g>
<!-- 6EK&#45;BV&#45;&#45;D&#45;PNP9 -->
<g id="edge51" class="edge">
<title>6EK&#45;BV&#45;&#45;D&#45;PNP9</title>
<path fill="none" stroke="black" d="M950.6,-882.74C942.18,-877.7 932.8,-872.08 924.36,-867.02"/>
</g>
<!-- IR&#45;FDV -->
<g id="IR&#45;FDV" class="node">
<title>IR&#45;FDV</title>
<ellipse fill="none" stroke="black" cx="1266" cy="-817.59" rx="44.39" ry="18"/>
<text text-anchor="middle" x="1266" y="-813.89" font-family="Times,serif" font-size="14.00">IR&#45;FDV</text>
</g>
<!-- IR&#45;FDV&#45;&#45;OIOM&#45;Y -->
<g id="edge52" class="edge">
<title>IR&#45;FDV&#45;&#45;OIOM&#45;Y</title>
<path fill="none" stroke="black" d="M1229.9,-807.01C1221.7,-804.6 1212.9,-802.03 1204.6,-799.61"/>
</g>
<!-- NIZJ&#45;0 -->
<g id="NIZJ&#45;0" class="node">
<title>NIZJ&#45;0</title>
<ellipse fill="none" stroke="black" cx="1308" cy="-764.01" rx="40.5" ry="18"/>
<text text-anchor="middle" x="1308" y="-760.31" font-family="Times,serif" font-size="14.00">NIZJ&#45;0</text>
</g>
<!-- IR&#45;FDV&#45;&#45;NIZJ&#45;0 -->
<g id="edge53" class="edge">
<title>IR&#45;FDV&#45;&#45;NIZJ&#45;0</title>
<path fill="none" stroke="black" d="M1279.5,-800.34C1284.3,-794.22 1289.7,-787.34 1294.5,-781.23"/>
</g>
<!-- V1ZC&#45;S -->
<g id="V1ZC&#45;S" class="node">
<title>V1ZC&#45;S</title>
<ellipse fill="none" stroke="black" cx="1368.1" cy="-719.7" rx="45.5" ry="18"/>
<text text-anchor="middle" x="1368.1" y="-716" font-family="Times,serif" font-size="14.00">V1ZC&#45;S</text>
</g>
<!-- NIZJ&#45;0&#45;&#45;V1ZC&#45;S -->
<g id="edge54" class="edge">
<title>NIZJ&#45;0&#45;&#45;V1ZC&#45;S</title>
<path fill="none" stroke="black" d="M1329,-748.51C1334.7,-744.32 1340.9,-739.78 1346.6,-735.56"/>
</g>
<!-- J&#45;RVGD -->
<g id="J&#45;RVGD" class="node">
<title>J&#45;RVGD</title>
<ellipse fill="none" stroke="black" cx="1362.4" cy="-808.19" rx="44.39" ry="18"/>
<text text-anchor="middle" x="1362.4" y="-804.49" font-family="Times,serif" font-size="14.00">J&#45;RVGD</text>
</g>
<!-- J&#45;RVGD&#45;&#45;NIZJ&#45;0 -->
<g id="edge55" class="edge">
<title>J&#45;RVGD&#45;&#45;NIZJ&#45;0</title>
<path fill="none" stroke="black" d="M1342.4,-791.99C1337.6,-788.05 1332.4,-783.84 1327.6,-779.91"/>
</g>
<!-- H&#45;T40Z -->
<g id="H&#45;T40Z" class="node">
<title>H&#45;T40Z</title>
<ellipse fill="none" stroke="black" cx="1460.2" cy="-803.21" rx="45.5" ry="18"/>
<text text-anchor="middle" x="1460.2" y="-799.51" font-family="Times,serif" font-size="14.00">H&#45;T40Z</text>
</g>
<!-- H&#45;T40Z&#45;&#45;J&#45;RVGD -->
<g id="edge56" class="edge">
<title>H&#45;T40Z&#45;&#45;J&#45;RVGD</title>
<path fill="none" stroke="black" d="M1415,-805.51C1412.1,-805.65 1409.2,-805.8 1406.3,-805.95"/>
</g>
<!-- 6&#45;TYRX -->
<g id="_6&#45;TYRX" class="node">
<title>6&#45;TYRX</title>
<ellipse fill="none" stroke="black" cx="1264.8" cy="-861.61" rx="44.39" ry="18"/>
<text text-anchor="middle" x="1264.8" y="-857.91" font-family="Times,serif" font-size="14.00">6&#45;TYRX</text>
</g>
<!-- 6&#45;TYRX&#45;&#45;IR&#45;FDV -->
<g id="edge57" class="edge">
<title>6&#45;TYRX&#45;&#45;IR&#45;FDV</title>
<path fill="none" stroke="black" d="M1265.3,-843.45C1265.3,-840.89 1265.4,-838.26 1265.5,-835.7"/>
</g>
<!-- Q1&#45;R7K -->
<g id="Q1&#45;R7K" class="node">
<title>Q1&#45;R7K</title>
<ellipse fill="none" stroke="black" cx="1283.2" cy="-905.65" rx="46.29" ry="18"/>
<text text-anchor="middle" x="1283.2" y="-901.95" font-family="Times,serif" font-size="14.00">Q1&#45;R7K</text>
</g>
<!-- 6&#45;TYRX&#45;&#45;Q1&#45;R7K -->
<g id="edge58" class="edge">
<title>6&#45;TYRX&#45;&#45;Q1&#45;R7K</title>
<path fill="none" stroke="black" d="M1272.3,-879.52C1273.4,-882.19 1274.6,-884.94 1275.7,-887.61"/>
</g>
<!-- 111&#45;F1 -->
<g id="_111&#45;F1" class="node">
<title>111&#45;F1</title>
<ellipse fill="none" stroke="black" cx="1405.1" cy="-852.49" rx="43.59" ry="18"/>
<text text-anchor="middle" x="1405.1" y="-848.79" font-family="Times,serif" font-size="14.00">111&#45;F1</text>
</g>
<!-- 111&#45;F1&#45;&#45;J&#45;RVGD -->
<g id="edge59" class="edge">
<title>111&#45;F1&#45;&#45;J&#45;RVGD</title>
<path fill="none" stroke="black" d="M1388.9,-835.74C1385.5,-832.21 1381.9,-828.49 1378.5,-824.96"/>
</g>
<!-- 111&#45;F1&#45;&#45;H&#45;T40Z -->
<g id="edge60" class="edge">
<title>111&#45;F1&#45;&#45;H&#45;T40Z</title>
<path fill="none" stroke="black" d="M1423.4,-836.08C1429.3,-830.82 1435.8,-824.99 1441.7,-819.72"/>
</g>
<!-- 02V&#45;BK -->
<g id="_02V&#45;BK" class="node">
<title>02V&#45;BK</title>
<ellipse fill="none" stroke="black" cx="554.74" cy="-614.36" rx="45" ry="18"/>
<text text-anchor="middle" x="554.74" y="-610.66" font-family="Times,serif" font-size="14.00">02V&#45;BK</text>
</g>
<!-- 02V&#45;BK&#45;&#45;JD&#45;TYH -->
<g id="edge61" class="edge">
<title>02V&#45;BK&#45;&#45;JD&#45;TYH</title>
<path fill="none" stroke="black" d="M554.53,-632.4C554.41,-642.41 554.26,-654.84 554.14,-664.87"/>
</g>
<!-- R&#45;ARKN -->
<g id="R&#45;ARKN" class="node">
<title>R&#45;ARKN</title>
<ellipse fill="none" stroke="black" cx="453.58" cy="-655.79" rx="48.19" ry="18"/>
<text text-anchor="middle" x="453.58" y="-652.09" font-family="Times,serif" font-size="14.00">R&#45;ARKN</text>
</g>
<!-- 02V&#45;BK&#45;&#45;R&#45;ARKN -->
<g id="edge62" class="edge">
<title>02V&#45;BK&#45;&#45;R&#45;ARKN</title>
<path fill="none" stroke="black" d="M523.29,-627.24C511.45,-632.09 497.99,-637.6 486.06,-642.49"/>
</g>
<!-- DL&#45;CDY -->
<g id="DL&#45;CDY" class="node">
<title>DL&#45;CDY</title>
<ellipse fill="none" stroke="black" cx="691.29" cy="-579.77" rx="47" ry="18"/>
<text text-anchor="middle" x="691.29" y="-576.07" font-family="Times,serif" font-size="14.00">DL&#45;CDY</text>
</g>
<!-- 02V&#45;BK&#45;&#45;DL&#45;CDY -->
<g id="edge63" class="edge">
<title>02V&#45;BK&#45;&#45;DL&#45;CDY</title>
<path fill="none" stroke="black" d="M592.78,-604.72C611.24,-600.04 633.41,-594.43 652.03,-589.71"/>
</g>
<!-- O4T&#45;Z5 -->
<g id="O4T&#45;Z5" class="node">
<title>O4T&#45;Z5</title>
<polygon fill="none" stroke="black" points="455.63,-723.99 387.63,-723.99 387.63,-687.99 455.63,-687.99 455.63,-723.99"/>
<text text-anchor="middle" x="421.63" y="-702.29" font-family="Times,serif" font-size="14.00">O4T&#45;Z5</text>
</g>
<!-- R&#45;ARKN&#45;&#45;O4T&#45;Z5 -->
<g id="edge64" class="edge">
<title>R&#45;ARKN&#45;&#45;O4T&#45;Z5</title>
<path fill="none" stroke="black" d="M442.4,-673.35C439.45,-677.99 436.26,-683 433.28,-687.68"/>
</g>
<!-- X&#45;HISR -->
<g id="X&#45;HISR" class="node">
<title>X&#45;HISR</title>
<ellipse fill="none" stroke="black" cx="646.84" cy="-520.42" rx="44.39" ry="18"/>
<text text-anchor="middle" x="646.84" y="-516.72" font-family="Times,serif" font-size="14.00">X&#45;HISR</text>
</g>
<!-- DL&#45;CDY&#45;&#45;X&#45;HISR -->
<g id="edge65" class="edge">
<title>DL&#45;CDY&#45;&#45;X&#45;HISR</title>
<path fill="none" stroke="black" d="M678.19,-562.28C672.46,-554.63 665.74,-545.66 659.99,-537.99"/>
</g>
<!-- A5MT&#45;B -->
<g id="A5MT&#45;B" class="node">
<title>A5MT&#45;B</title>
<ellipse fill="none" stroke="black" cx="654.5" cy="-727.05" rx="47" ry="18"/>
<text text-anchor="middle" x="654.5" y="-723.35" font-family="Times,serif" font-size="14.00">A5MT&#45;B</text>
</g>
<!-- A5MT&#45;B&#45;&#45;JD&#45;TYH -->
<g id="edge66" class="edge">
<title>A5MT&#45;B&#45;&#45;JD&#45;TYH</title>
<path fill="none" stroke="black" d="M623.5,-713.48C611.04,-708.03 596.71,-701.76 584.3,-696.33"/>
</g>
<!-- MS2&#45;V8 -->
<g id="MS2&#45;V8" class="node">
<title>MS2&#45;V8</title>
<ellipse fill="none" stroke="black" cx="350.65" cy="-656.79" rx="47" ry="18"/>
<text text-anchor="middle" x="350.65" y="-653.09" font-family="Times,serif" font-size="14.00">MS2&#45;V8</text>
</g>
<!-- MS2&#45;V8&#45;&#45;R&#45;ARKN -->
<g id="edge67" class="edge">
<title>MS2&#45;V8&#45;&#45;R&#45;ARKN</title>
<path fill="none" stroke="black" d="M397.6,-656.33C400.14,-656.31 402.7,-656.28 405.25,-656.26"/>
</g>
<!-- P9F&#45;ZG -->
<g id="P9F&#45;ZG" class="node">
<title>P9F&#45;ZG</title>
<ellipse fill="none" stroke="black" cx="227.93" cy="-669.64" rx="45.5" ry="18"/>
<text text-anchor="middle" x="227.93" y="-665.94" font-family="Times,serif" font-size="14.00">P9F&#45;ZG</text>
</g>
<!-- MS2&#45;V8&#45;&#45;P9F&#45;ZG -->
<g id="edge68" class="edge">
<title>MS2&#45;V8&#45;&#45;P9F&#45;ZG</title>
<path fill="none" stroke="black" d="M305.3,-661.54C294.51,-662.67 283.02,-663.87 272.27,-665"/>
</g>
<!-- QFGB&#45;E -->
<g id="QFGB&#45;E" class="node">
<title>QFGB&#45;E</title>
<ellipse fill="none" stroke="black" cx="331.4" cy="-700.82" rx="48.19" ry="18"/>
<text text-anchor="middle" x="331.4" y="-697.12" font-family="Times,serif" font-size="14.00">QFGB&#45;E</text>
</g>
<!-- P9F&#45;ZG&#45;&#45;QFGB&#45;E -->
<g id="edge69" class="edge">
<title>P9F&#45;ZG&#45;&#45;QFGB&#45;E</title>
<path fill="none" stroke="black" d="M264.41,-680.63C273.95,-683.51 284.26,-686.61 293.85,-689.5"/>
</g>
<!-- PK&#45;PHZ -->
<g id="PK&#45;PHZ" class="node">
<title>PK&#45;PHZ</title>
<ellipse fill="none" stroke="black" cx="285.69" cy="-612.76" rx="47" ry="18"/>
<text text-anchor="middle" x="285.69" y="-609.06" font-family="Times,serif" font-size="14.00">PK&#45;PHZ</text>
</g>
<!-- P9F&#45;ZG&#45;&#45;PK&#45;PHZ -->
<g id="edge70" class="edge">
<title>P9F&#45;ZG&#45;&#45;PK&#45;PHZ</title>
<path fill="none" stroke="black" d="M244.95,-652.88C252.4,-645.54 261.13,-636.95 268.6,-629.6"/>
</g>
<!-- WT&#45;2J9 -->
<g id="WT&#45;2J9" class="node">
<title>WT&#45;2J9</title>
<ellipse fill="none" stroke="black" cx="232.39" cy="-741.53" rx="43" ry="18"/>
<text text-anchor="middle" x="232.39" y="-737.83" font-family="Times,serif" font-size="14.00">WT&#45;2J9</text>
</g>
<!-- QFGB&#45;E&#45;&#45;WT&#45;2J9 -->
<g id="edge71" class="edge">
<title>QFGB&#45;E&#45;&#45;WT&#45;2J9</title>
<path fill="none" stroke="black" d="M298.98,-714.15C287.48,-718.88 274.57,-724.19 263.2,-728.86"/>
</g>
<!-- G&#45;JC9R -->
<g id="G&#45;JC9R" class="node">
<title>G&#45;JC9R</title>
<ellipse fill="none" stroke="black" cx="765.47" cy="-859.22" rx="44.39" ry="18"/>
<text text-anchor="middle" x="765.47" y="-855.52" font-family="Times,serif" font-size="14.00">G&#45;JC9R</text>
</g>
<!-- G&#45;JC9R&#45;&#45;Z&#45;MO29 -->
<g id="edge72" class="edge">
<title>G&#45;JC9R&#45;&#45;Z&#45;MO29</title>
<path fill="none" stroke="black" d="M735.26,-846.04C722.98,-840.68 708.78,-834.48 696.36,-829.07"/>
</g>
<!-- DIBH&#45;Q -->
<g id="DIBH&#45;Q" class="node">
<title>DIBH&#45;Q</title>
<ellipse fill="none" stroke="black" cx="778.62" cy="-909.79" rx="46.29" ry="18"/>
<text text-anchor="middle" x="778.62" y="-906.09" font-family="Times,serif" font-size="14.00">DIBH&#45;Q</text>
</g>
<!-- DIBH&#45;Q&#45;&#45;G&#45;JC9R -->
<g id="edge73" class="edge">
<title>DIBH&#45;Q&#45;&#45;G&#45;JC9R</title>
<path fill="none" stroke="black" d="M773.94,-891.82C772.7,-887.05 771.36,-881.9 770.13,-877.14"/>
</g>
<!-- YAP&#45;TN -->
<g id="YAP&#45;TN" class="node">
<title>YAP&#45;TN</title>
<ellipse fill="none" stroke="black" cx="793.57" cy="-957.67" rx="45" ry="18"/>
<text text-anchor="middle" x="793.57" y="-953.97" font-family="Times,serif" font-size="14.00">YAP&#45;TN</text>
</g>
<!-- DIBH&#45;Q&#45;&#45;YAP&#45;TN -->
<g id="edge74" class="edge">
<title>DIBH&#45;Q&#45;&#45;YAP&#45;TN</title>
<path fill="none" stroke="black" d="M784.27,-927.89C785.46,-931.71 786.72,-935.73 787.91,-939.55"/>
</g>
<!-- H&#45;YHYM -->
<g id="H&#45;YHYM" class="node">
<title>H&#45;YHYM</title>
<ellipse fill="none" stroke="black" cx="650.63" cy="-963.69" rx="49.5" ry="18"/>
<text text-anchor="middle" x="650.63" y="-959.99" font-family="Times,serif" font-size="14.00">H&#45;YHYM</text>
</g>
<!-- DIBH&#45;Q&#45;&#45;H&#45;YHYM -->
<g id="edge75" class="edge">
<title>DIBH&#45;Q&#45;&#45;H&#45;YHYM</title>
<path fill="none" stroke="black" d="M746.98,-923.11C727.59,-931.28 702.81,-941.71 683.24,-949.95"/>
</g>
<!-- HHE5&#45;L -->
<g id="HHE5&#45;L" class="node">
<title>HHE5&#45;L</title>
<ellipse fill="none" stroke="black" cx="708.65" cy="-1007.9" rx="48.19" ry="18"/>
<text text-anchor="middle" x="708.65" y="-1004.2" font-family="Times,serif" font-size="14.00">HHE5&#45;L</text>
</g>
<!-- H&#45;YHYM&#45;&#45;HHE5&#45;L -->
<g id="edge76" class="edge">
<title>H&#45;YHYM&#45;&#45;HHE5&#45;L</title>
<path fill="none" stroke="black" d="M672.24,-980.14C677.13,-983.87 682.33,-987.83 687.22,-991.55"/>
</g>
<!-- HHE5&#45;L&#45;&#45;YAP&#45;TN -->
<g id="edge77" class="edge">
<title>HHE5&#45;L&#45;&#45;YAP&#45;TN</title>
<path fill="none" stroke="black" d="M734.59,-992.54C745.32,-986.2 757.72,-978.87 768.37,-972.57"/>
</g>
<!-- DNEP&#45;Y -->
<g id="DNEP&#45;Y" class="node">
<title>DNEP&#45;Y</title>
<ellipse fill="none" stroke="black" cx="586.06" cy="-859.38" rx="46.29" ry="18"/>
<text text-anchor="middle" x="586.06" y="-855.68" font-family="Times,serif" font-size="14.00">DNEP&#45;Y</text>
</g>
<!-- DNEP&#45;Y&#45;&#45;Z&#45;MO29 -->
<g id="edge78" class="edge">
<title>DNEP&#45;Y&#45;&#45;Z&#45;MO29</title>
<path fill="none" stroke="black" d="M612.71,-844.45C620.83,-839.9 629.76,-834.9 637.89,-830.35"/>
</g>
<!-- PE&#45;H02 -->
<g id="PE&#45;H02" class="node">
<title>PE&#45;H02</title>
<ellipse fill="none" stroke="black" cx="658.08" cy="-903.77" rx="46.29" ry="18"/>
<text text-anchor="middle" x="658.08" y="-900.07" font-family="Times,serif" font-size="14.00">PE&#45;H02</text>
</g>
<!-- DNEP&#45;Y&#45;&#45;PE&#45;H02 -->
<g id="edge79" class="edge">
<title>DNEP&#45;Y&#45;&#45;PE&#45;H02</title>
<path fill="none" stroke="black" d="M610.85,-874.66C618.01,-879.07 625.83,-883.89 633.01,-888.31"/>
</g>
<!-- PE&#45;H02&#45;&#45;YAP&#45;TN -->
<g id="edge80" class="edge">
<title>PE&#45;H02&#45;&#45;YAP&#45;TN</title>
<path fill="none" stroke="black" d="M690.53,-916.68C711.99,-925.22 739.99,-936.35 761.39,-944.87"/>
</g>
<!-- G&#45;4H4C -->
<g id="G&#45;4H4C" class="node">
<title>G&#45;4H4C</title>
<ellipse fill="none" stroke="black" cx="596.71" cy="-1007.8" rx="47.5" ry="18"/>
<text text-anchor="middle" x="596.71" y="-1004.1" font-family="Times,serif" font-size="14.00">G&#45;4H4C</text>
</g>
<!-- G&#45;4H4C&#45;&#45;H&#45;YHYM -->
<g id="edge81" class="edge">
<title>G&#45;4H4C&#45;&#45;H&#45;YHYM</title>
<path fill="none" stroke="black" d="M616.79,-991.37C621.22,-987.74 625.92,-983.9 630.36,-980.27"/>
</g>
<!-- 7P&#45;J38 -->
<g id="_7P&#45;J38" class="node">
<title>7P&#45;J38</title>
<ellipse fill="none" stroke="black" cx="284.56" cy="-785.57" rx="40.5" ry="18"/>
<text text-anchor="middle" x="284.56" y="-781.87" font-family="Times,serif" font-size="14.00">7P&#45;J38</text>
</g>
<!-- 7P&#45;J38&#45;&#45;QFGB&#45;E -->
<g id="edge82" class="edge">
<title>7P&#45;J38&#45;&#45;QFGB&#45;E</title>
<path fill="none" stroke="black" d="M294.26,-768.01C302.25,-753.56 313.52,-733.17 321.55,-718.65"/>
</g>
<!-- 7P&#45;J38&#45;&#45;WT&#45;2J9 -->
<g id="edge83" class="edge">
<title>7P&#45;J38&#45;&#45;WT&#45;2J9</title>
<path fill="none" stroke="black" d="M265.43,-769.42C260.89,-765.6 256.05,-761.51 251.52,-757.68"/>
</g>
<!-- L&#45;M6JK -->
<g id="L&#45;M6JK" class="node">
<title>L&#45;M6JK</title>
<ellipse fill="none" stroke="black" cx="235.72" cy="-566.51" rx="45" ry="18"/>
<text text-anchor="middle" x="235.72" y="-562.81" font-family="Times,serif" font-size="14.00">L&#45;M6JK</text>
</g>
<!-- L&#45;M6JK&#45;&#45;PK&#45;PHZ -->
<g id="edge84" class="edge">
<title>L&#45;M6JK&#45;&#45;PK&#45;PHZ</title>
<path fill="none" stroke="black" d="M253.76,-583.21C258.24,-587.35 263.03,-591.79 267.51,-595.93"/>
</g>
<!-- C&#45;PEWN -->
<g id="C&#45;PEWN" class="node">
<title>C&#45;PEWN</title>
<ellipse fill="none" stroke="black" cx="130.74" cy="-773.04" rx="50.89" ry="18"/>
<text text-anchor="middle" x="130.74" y="-769.34" font-family="Times,serif" font-size="14.00">C&#45;PEWN</text>
</g>
<!-- C&#45;PEWN&#45;&#45;WT&#45;2J9 -->
<g id="edge85" class="edge">
<title>C&#45;PEWN&#45;&#45;WT&#45;2J9</title>
<path fill="none" stroke="black" d="M169.17,-761.13C178.5,-758.23 188.43,-755.16 197.58,-752.32"/>
</g>
<!-- D4&#45;2XN -->
<g id="D4&#45;2XN" class="node">
<title>D4&#45;2XN</title>
<polygon fill="none" stroke="black" points="72,-799.97 0,-799.97 0,-763.97 72,-763.97 72,-799.97"/>
<text text-anchor="middle" x="36" y="-778.27" font-family="Times,serif" font-size="14.00">D4&#45;2XN</text>
</g>
<!-- C&#45;PEWN&#45;&#45;D4&#45;2XN -->
<g id="edge86" class="edge">
<title>C&#45;PEWN&#45;&#45;D4&#45;2XN</title>
<path fill="none" stroke="black" d="M81.71,-777.66C78.46,-777.97 75.22,-778.27 72.05,-778.57"/>
</g>
<!-- 29YH&#45;V -->
<g id="_29YH&#45;V" class="node">
<title>29YH&#45;V</title>
<ellipse fill="none" stroke="black" cx="591.58" cy="-570.32" rx="45" ry="18"/>
<text text-anchor="middle" x="591.58" y="-566.62" font-family="Times,serif" font-size="14.00">29YH&#45;V</text>
</g>
<!-- 29YH&#45;V&#45;&#45;DL&#45;CDY -->
<g id="edge87" class="edge">
<title>29YH&#45;V&#45;&#45;DL&#45;CDY</title>
<path fill="none" stroke="black" d="M635.32,-574.46C638.77,-574.79 642.26,-575.12 645.73,-575.45"/>
</g>
<!-- LG&#45;RO2 -->
<g id="LG&#45;RO2" class="node">
<title>LG&#45;RO2</title>
<ellipse fill="none" stroke="black" cx="491.08" cy="-512.17" rx="47" ry="18"/>
<text text-anchor="middle" x="491.08" y="-508.47" font-family="Times,serif" font-size="14.00">LG&#45;RO2</text>
</g>
<!-- 29YH&#45;V&#45;&#45;LG&#45;RO2 -->
<g id="edge88" class="edge">
<title>29YH&#45;V&#45;&#45;LG&#45;RO2</title>
<path fill="none" stroke="black" d="M565.96,-555.49C550.96,-546.81 532.06,-535.88 517.01,-527.17"/>
</g>
<!-- QS&#45;530 -->
<g id="QS&#45;530" class="node">
<title>QS&#45;530</title>
<ellipse fill="none" stroke="black" cx="571.83" cy="-465.27" rx="45" ry="18"/>
<text text-anchor="middle" x="571.83" y="-461.57" font-family="Times,serif" font-size="14.00">QS&#45;530</text>
</g>
<!-- QS&#45;530&#45;&#45;X&#45;HISR -->
<g id="edge89" class="edge">
<title>QS&#45;530&#45;&#45;X&#45;HISR</title>
<path fill="none" stroke="black" d="M593.52,-481.22C603.47,-488.54 615.24,-497.19 625.19,-504.51"/>
</g>
<!-- VR&#45;YRV -->
<g id="VR&#45;YRV" class="node">
<title>VR&#45;YRV</title>
<ellipse fill="none" stroke="black" cx="643.6" cy="-411.12" rx="44.39" ry="18"/>
<text text-anchor="middle" x="643.6" y="-407.42" font-family="Times,serif" font-size="14.00">VR&#45;YRV</text>
</g>
<!-- QS&#45;530&#45;&#45;VR&#45;YRV -->
<g id="edge90" class="edge">
<title>QS&#45;530&#45;&#45;VR&#45;YRV</title>
<path fill="none" stroke="black" d="M592.97,-449.32C602.24,-442.33 613.08,-434.15 622.36,-427.15"/>
</g>
<!-- VR&#45;YRV&#45;&#45;X&#45;HISR -->
<g id="edge91" class="edge">
<title>VR&#45;YRV&#45;&#45;X&#45;HISR</title>
<path fill="none" stroke="black" d="M644.14,-429.17C644.74,-449.42 645.7,-482.09 646.3,-502.35"/>
</g>
<!-- IPX&#45;H5 -->
<g id="IPX&#45;H5" class="node">
<title>IPX&#45;H5</title>
<ellipse fill="none" stroke="black" cx="571.75" cy="-363.41" rx="43.59" ry="18"/>
<text text-anchor="middle" x="571.75" y="-359.71" font-family="Times,serif" font-size="14.00">IPX&#45;H5</text>
</g>
<!-- IPX&#45;H5&#45;&#45;VR&#45;YRV -->
<g id="edge92" class="edge">
<title>IPX&#45;H5&#45;&#45;VR&#45;YRV</title>
<path fill="none" stroke="black" d="M594.88,-378.77C602.92,-384.11 611.95,-390.1 620.02,-395.47"/>
</g>
<!-- KSM&#45;1T -->
<g id="KSM&#45;1T" class="node">
<title>KSM&#45;1T</title>
<ellipse fill="none" stroke="black" cx="1404.3" cy="-102.02" rx="48.19" ry="18"/>
<text text-anchor="middle" x="1404.3" y="-98.32" font-family="Times,serif" font-size="14.00">KSM&#45;1T</text>
</g>
<!-- YRV&#45;MZ -->
<g id="YRV&#45;MZ" class="node">
<title>YRV&#45;MZ</title>
<ellipse fill="none" stroke="black" cx="1516.7" cy="-102.02" rx="47.5" ry="18"/>
<text text-anchor="middle" x="1516.7" y="-98.32" font-family="Times,serif" font-size="14.00">YRV&#45;MZ</text>
</g>
<!-- KSM&#45;1T&#45;&#45;YRV&#45;MZ -->
<g id="edge93" class="edge">
<title>KSM&#45;1T&#45;&#45;YRV&#45;MZ</title>
<path fill="none" stroke="black" d="M1452.6,-102.02C1458.1,-102.02 1463.7,-102.02 1469.1,-102.02"/>
</g>
<!-- O&#45;MCZR -->
<g id="O&#45;MCZR" class="node">
<title>O&#45;MCZR</title>
<polygon fill="none" stroke="black" points="1378,-36 1300,-36 1300,0 1378,0 1378,-36"/>
<text text-anchor="middle" x="1339" y="-14.3" font-family="Times,serif" font-size="14.00">O&#45;MCZR</text>
</g>
<!-- KSM&#45;1T&#45;&#45;O&#45;MCZR -->
<g id="edge94" class="edge">
<title>KSM&#45;1T&#45;&#45;O&#45;MCZR</title>
<path fill="none" stroke="black" d="M1390.7,-84.61C1379.8,-70.48 1364.3,-50.61 1353.2,-36.26"/>
</g>
<!-- 6SB&#45;BN -->
<g id="_6SB&#45;BN" class="node">
<title>6SB&#45;BN</title>
<ellipse fill="none" stroke="black" cx="1404.8" cy="-212.63" rx="47.5" ry="18"/>
<text text-anchor="middle" x="1404.8" y="-208.93" font-family="Times,serif" font-size="14.00">6SB&#45;BN</text>
</g>
<!-- 6SB&#45;BN&#45;&#45;KSM&#45;1T -->
<g id="edge95" class="edge">
<title>6SB&#45;BN&#45;&#45;KSM&#45;1T</title>
<path fill="none" stroke="black" d="M1404.7,-194.37C1404.6,-173.87 1404.5,-140.82 1404.4,-120.31"/>
</g>
<!-- B1D&#45;KU -->
<g id="B1D&#45;KU" class="node">
<title>B1D&#45;KU</title>
<ellipse fill="none" stroke="black" cx="1354.1" cy="-305.86" rx="48.19" ry="18"/>
<text text-anchor="middle" x="1354.1" y="-302.16" font-family="Times,serif" font-size="14.00">B1D&#45;KU</text>
</g>
<!-- 6SB&#45;BN&#45;&#45;B1D&#45;KU -->
<g id="edge96" class="edge">
<title>6SB&#45;BN&#45;&#45;B1D&#45;KU</title>
<path fill="none" stroke="black" d="M1395,-230.61C1386,-247.12 1372.8,-271.45 1363.8,-287.94"/>
</g>
<!-- QFIU&#45;K -->
<g id="QFIU&#45;K" class="node">
<title>QFIU&#45;K</title>
<ellipse fill="none" stroke="black" cx="1517.6" cy="-213.22" rx="45" ry="18"/>
<text text-anchor="middle" x="1517.6" y="-209.52" font-family="Times,serif" font-size="14.00">QFIU&#45;K</text>
</g>
<!-- 6SB&#45;BN&#45;&#45;QFIU&#45;K -->
<g id="edge97" class="edge">
<title>6SB&#45;BN&#45;&#45;QFIU&#45;K</title>
<path fill="none" stroke="black" d="M1452.3,-212.88C1459,-212.92 1466,-212.95 1472.6,-212.99"/>
</g>
<!-- QFIU&#45;K&#45;&#45;YRV&#45;MZ -->
<g id="edge98" class="edge">
<title>QFIU&#45;K&#45;&#45;YRV&#45;MZ</title>
<path fill="none" stroke="black" d="M1517.4,-194.86C1517.3,-174.13 1517,-140.63 1516.9,-120.04"/>
</g>
<!-- 2R&#45;KLH -->
<g id="_2R&#45;KLH" class="node">
<title>2R&#45;KLH</title>
<ellipse fill="none" stroke="black" cx="1457" cy="-296.31" rx="47" ry="18"/>
<text text-anchor="middle" x="1457" y="-292.61" font-family="Times,serif" font-size="14.00">2R&#45;KLH</text>
</g>
<!-- 2R&#45;KLH&#45;&#45;6SB&#45;BN -->
<g id="edge99" class="edge">
<title>2R&#45;KLH&#45;&#45;6SB&#45;BN</title>
<path fill="none" stroke="black" d="M1445.9,-278.56C1437,-264.36 1424.7,-244.54 1415.8,-230.35"/>
</g>
<!-- 2R&#45;KLH&#45;&#45;B1D&#45;KU -->
<g id="edge100" class="edge">
<title>2R&#45;KLH&#45;&#45;B1D&#45;KU</title>
<path fill="none" stroke="black" d="M1411.2,-300.55C1407.8,-300.87 1404.3,-301.19 1400.9,-301.51"/>
</g>
<!-- 2R&#45;KLH&#45;&#45;QFIU&#45;K -->
<g id="edge101" class="edge">
<title>2R&#45;KLH&#45;&#45;QFIU&#45;K</title>
<path fill="none" stroke="black" d="M1469.8,-278.69C1480.2,-264.49 1494.7,-244.64 1504.9,-230.53"/>
</g>
</g>
</svg>
