<?xml version="1.0" encoding="UTF-8" standalone="no"?>
<!DOCTYPE svg PUBLIC "-//W3C//DTD SVG 1.1//EN"
 "http://www.w3.org/Graphics/SVG/1.1/DTD/svg11.dtd">
<!-- Generated by graphviz version 2.43.0 (0)
 -->
<!-- Pages: 1 -->
<svg width="976pt" height="596pt"
 viewBox="0.00 0.00 976.24 595.96" xmlns="http://www.w3.org/2000/svg" xmlns:xlink="http://www.w3.org/1999/xlink">
<g id="graph0" class="graph" transform="scale(1 1) rotate(0) translate(4 591.96)">
<polygon fill="white" stroke="transparent" points="-4,4 -4,-591.96 972.24,-591.96 972.24,4 -4,4"/>
<!-- ROIR&#45;Y -->
<g id="ROIR&#45;Y" class="node">
<title>ROIR&#45;Y</title>
<polygon fill="none" stroke="black" points="968.24,-408.86 902.24,-408.86 902.24,-372.86 968.24,-372.86 968.24,-408.86"/>
<text text-anchor="middle" x="935.24" y="-387.16" font-family="Times,serif" font-size="14.00">ROIR&#45;Y</text>
</g>
<!-- U&#45;INPD -->
<g id="U&#45;INPD" class="node">
<title>U&#45;INPD</title>
<polygon fill="none" stroke="black" points="580.8,-587.96 509.8,-587.96 509.8,-551.96 580.8,-551.96 580.8,-587.96"/>
<text text-anchor="middle" x="545.3" y="-566.26" font-family="Times,serif" font-size="14.00">U&#45;INPD</text>
</g>
<!-- E&#45;Z2ZX -->
<g id="E&#45;Z2ZX" class="node">
<title>E&#45;Z2ZX</title>
<polygon fill="none" stroke="black" points="312.44,-438.58 242.44,-438.58 242.44,-402.58 312.44,-402.58 312.44,-438.58"/>
<text text-anchor="middle" x="277.44" y="-416.88" font-family="Times,serif" font-size="14.00">E&#45;Z2ZX</text>
</g>
<!-- CCP&#45;US -->
<g id="CCP&#45;US" class="node">
<title>CCP&#45;US</title>
<polygon fill="none" stroke="black" points="667.87,-573.28 594.87,-573.28 594.87,-537.28 667.87,-537.28 667.87,-573.28"/>
<text text-anchor="middle" x="631.37" y="-551.58" font-family="Times,serif" font-size="14.00">CCP&#45;US</text>
</g>
<!-- 8S28&#45;3 -->
<g id="_8S28&#45;3" class="node">
<title>8S28&#45;3</title>
<polygon fill="none" stroke="black" points="418.2,-233.61 351.2,-233.61 351.2,-197.61 418.2,-197.61 418.2,-233.61"/>
<text text-anchor="middle" x="384.7" y="-211.91" font-family="Times,serif" font-size="14.00">8S28&#45;3</text>
</g>
<!-- C8&#45;CHY -->
<g id="C8&#45;CHY" class="node">
<title>C8&#45;CHY</title>
<ellipse fill="none" stroke="black" cx="845.93" cy="-392.17" rx="47" ry="18"/>
<text text-anchor="middle" x="845.93" y="-388.47" font-family="Times,serif" font-size="14.00">C8&#45;CHY</text>
</g>
<!-- C8&#45;CHY&#45;&#45;ROIR&#45;Y -->
<g id="edge1" class="edge">
<title>C8&#45;CHY&#45;&#45;ROIR&#45;Y</title>
<path fill="none" stroke="black" d="M892.94,-391.48C895.96,-391.44 898.98,-391.4 901.92,-391.35"/>
</g>
<!-- E&#45;9ORY -->
<g id="E&#45;9ORY" class="node">
<title>E&#45;9ORY</title>
<ellipse fill="none" stroke="black" cx="744.96" cy="-413.58" rx="46.29" ry="18"/>
<text text-anchor="middle" x="744.96" y="-409.88" font-family="Times,serif" font-size="14.00">E&#45;9ORY</text>
</g>
<!-- C8&#45;CHY&#45;&#45;E&#45;9ORY -->
<g id="edge2" class="edge">
<title>C8&#45;CHY&#45;&#45;E&#45;9ORY</title>
<path fill="none" stroke="black" d="M804.86,-400.88C798.53,-402.23 791.99,-403.61 785.66,-404.95"/>
</g>
<!-- HHK&#45;VL -->
<g id="HHK&#45;VL" class="node">
<title>HHK&#45;VL</title>
<ellipse fill="none" stroke="black" cx="666.31" cy="-460.65" rx="47.5" ry="18"/>
<text text-anchor="middle" x="666.31" y="-456.95" font-family="Times,serif" font-size="14.00">HHK&#45;VL</text>
</g>
<!-- E&#45;9ORY&#45;&#45;HHK&#45;VL -->
<g id="edge3" class="edge">
<title>E&#45;9ORY&#45;&#45;HHK&#45;VL</title>
<path fill="none" stroke="black" d="M719.64,-428.73C710.75,-434.05 700.76,-440.03 691.85,-445.36"/>
</g>
<!-- CR&#45;IFM -->
<g id="CR&#45;IFM" class="node">
<title>CR&#45;IFM</title>
<ellipse fill="none" stroke="black" cx="644.6" cy="-407.58" rx="46.29" ry="18"/>
<text text-anchor="middle" x="644.6" y="-403.88" font-family="Times,serif" font-size="14.00">CR&#45;IFM</text>
</g>
<!-- CR&#45;IFM&#45;&#45;E&#45;9ORY -->
<g id="edge4" class="edge">
<title>CR&#45;IFM&#45;&#45;E&#45;9ORY</title>
<path fill="none" stroke="black" d="M690.37,-410.32C693.27,-410.49 696.18,-410.66 699.08,-410.84"/>
</g>
<!-- CR&#45;IFM&#45;&#45;HHK&#45;VL -->
<g id="edge5" class="edge">
<title>CR&#45;IFM&#45;&#45;HHK&#45;VL</title>
<path fill="none" stroke="black" d="M651.95,-425.54C654.22,-431.08 656.71,-437.17 658.97,-442.7"/>
</g>
<!-- P&#45;33KR -->
<g id="P&#45;33KR" class="node">
<title>P&#45;33KR</title>
<ellipse fill="none" stroke="black" cx="565.78" cy="-456.48" rx="45" ry="18"/>
<text text-anchor="middle" x="565.78" y="-452.78" font-family="Times,serif" font-size="14.00">P&#45;33KR</text>
</g>
<!-- CR&#45;IFM&#45;&#45;P&#45;33KR -->
<g id="edge6" class="edge">
<title>CR&#45;IFM&#45;&#45;P&#45;33KR</title>
<path fill="none" stroke="black" d="M619.66,-423.05C610.28,-428.87 599.63,-435.48 590.29,-441.28"/>
</g>
<!-- DO6H&#45;Q -->
<g id="DO6H&#45;Q" class="node">
<title>DO6H&#45;Q</title>
<ellipse fill="none" stroke="black" cx="575.11" cy="-504.69" rx="49.5" ry="18"/>
<text text-anchor="middle" x="575.11" y="-500.99" font-family="Times,serif" font-size="14.00">DO6H&#45;Q</text>
</g>
<!-- DO6H&#45;Q&#45;&#45;U&#45;INPD -->
<g id="edge7" class="edge">
<title>DO6H&#45;Q&#45;&#45;U&#45;INPD</title>
<path fill="none" stroke="black" d="M566.96,-522.52C562.83,-531.58 557.81,-542.57 553.64,-551.69"/>
</g>
<!-- DO6H&#45;Q&#45;&#45;CCP&#45;US -->
<g id="edge8" class="edge">
<title>DO6H&#45;Q&#45;&#45;CCP&#45;US</title>
<path fill="none" stroke="black" d="M593.84,-521.53C599.34,-526.48 605.38,-531.91 610.98,-536.94"/>
</g>
<!-- DO6H&#45;Q&#45;&#45;HHK&#45;VL -->
<g id="edge9" class="edge">
<title>DO6H&#45;Q&#45;&#45;HHK&#45;VL</title>
<path fill="none" stroke="black" d="M604.97,-490.27C615.15,-485.35 626.53,-479.86 636.69,-474.95"/>
</g>
<!-- DO6H&#45;Q&#45;&#45;P&#45;33KR -->
<g id="edge10" class="edge">
<title>DO6H&#45;Q&#45;&#45;P&#45;33KR</title>
<path fill="none" stroke="black" d="M571.58,-486.46C570.84,-482.62 570.05,-478.57 569.31,-474.73"/>
</g>
<!-- DW&#45;T2I -->
<g id="DW&#45;T2I" class="node">
<title>DW&#45;T2I</title>
<ellipse fill="none" stroke="black" cx="468.03" cy="-414.09" rx="45" ry="18"/>
<text text-anchor="middle" x="468.03" y="-410.39" font-family="Times,serif" font-size="14.00">DW&#45;T2I</text>
</g>
<!-- DW&#45;T2I&#45;&#45;P&#45;33KR -->
<g id="edge11" class="edge">
<title>DW&#45;T2I&#45;&#45;P&#45;33KR</title>
<path fill="none" stroke="black" d="M498.69,-427.39C510.34,-432.44 523.59,-438.19 535.23,-443.23"/>
</g>
<!-- O&#45;CNPR -->
<g id="O&#45;CNPR" class="node">
<title>O&#45;CNPR</title>
<ellipse fill="none" stroke="black" cx="391.07" cy="-370.06" rx="49.5" ry="18"/>
<text text-anchor="middle" x="391.07" y="-366.36" font-family="Times,serif" font-size="14.00">O&#45;CNPR</text>
</g>
<!-- DW&#45;T2I&#45;&#45;O&#45;CNPR -->
<g id="edge12" class="edge">
<title>DW&#45;T2I&#45;&#45;O&#45;CNPR</title>
<path fill="none" stroke="black" d="M441.98,-399.19C434.13,-394.7 425.51,-389.76 417.63,-385.25"/>
</g>
<!-- VRH&#45;H7 -->
<g id="VRH&#45;H7" class="node">
<title>VRH&#45;H7</title>
<ellipse fill="none" stroke="black" cx="268.86" cy="-355.59" rx="48.19" ry="18"/>
<text text-anchor="middle" x="268.86" y="-351.89" font-family="Times,serif" font-size="14.00">VRH&#45;H7</text>
</g>
<!-- O&#45;CNPR&#45;&#45;VRH&#45;H7 -->
<g id="edge13" class="edge">
<title>O&#45;CNPR&#45;&#45;VRH&#45;H7</title>
<path fill="none" stroke="black" d="M343.82,-364.47C334.28,-363.34 324.27,-362.15 314.78,-361.03"/>
</g>
<!-- O1Y&#45;ED -->
<g id="O1Y&#45;ED" class="node">
<title>O1Y&#45;ED</title>
<ellipse fill="none" stroke="black" cx="371.15" cy="-323.1" rx="46.29" ry="18"/>
<text text-anchor="middle" x="371.15" y="-319.4" font-family="Times,serif" font-size="14.00">O1Y&#45;ED</text>
</g>
<!-- O&#45;CNPR&#45;&#45;O1Y&#45;ED -->
<g id="edge14" class="edge">
<title>O&#45;CNPR&#45;&#45;O1Y&#45;ED</title>
<path fill="none" stroke="black" d="M383.43,-352.04C381.89,-348.42 380.28,-344.62 378.74,-341"/>
</g>
<!-- VRH&#45;H7&#45;&#45;E&#45;Z2ZX -->
<g id="edge15" class="edge">
<title>VRH&#45;H7&#45;&#45;E&#45;Z2ZX</title>
<path fill="none" stroke="black" d="M271.25,-373.69C272.44,-382.71 273.87,-393.57 275.06,-402.57"/>
</g>
<!-- X36Y&#45;G -->
<g id="X36Y&#45;G" class="node">
<title>X36Y&#45;G</title>
<ellipse fill="none" stroke="black" cx="199.17" cy="-253.23" rx="44.39" ry="18"/>
<text text-anchor="middle" x="199.17" y="-249.53" font-family="Times,serif" font-size="14.00">X36Y&#45;G</text>
</g>
<!-- VRH&#45;H7&#45;&#45;X36Y&#45;G -->
<g id="edge16" class="edge">
<title>VRH&#45;H7&#45;&#45;X36Y&#45;G</title>
<path fill="none" stroke="black" d="M256.72,-337.76C243.93,-318.97 223.91,-289.57 211.17,-270.86"/>
</g>
<!-- YKSC&#45;A -->
<g id="YKSC&#45;A" class="node">
<title>YKSC&#45;A</title>
<ellipse fill="none" stroke="black" cx="249.98" cy="-195.23" rx="46.29" ry="18"/>
<text text-anchor="middle" x="249.98" y="-191.53" font-family="Times,serif" font-size="14.00">YKSC&#45;A</text>
</g>
<!-- X36Y&#45;G&#45;&#45;YKSC&#45;A -->
<g id="edge17" class="edge">
<title>X36Y&#45;G&#45;&#45;YKSC&#45;A</title>
<path fill="none" stroke="black" d="M214.14,-236.14C220.7,-228.66 228.38,-219.89 234.94,-212.4"/>
</g>
<!-- L&#45;SCBU -->
<g id="L&#45;SCBU" class="node">
<title>L&#45;SCBU</title>
<ellipse fill="none" stroke="black" cx="472.84" cy="-295.05" rx="47.5" ry="18"/>
<text text-anchor="middle" x="472.84" y="-291.35" font-family="Times,serif" font-size="14.00">L&#45;SCBU</text>
</g>
<!-- L&#45;SCBU&#45;&#45;O&#45;CNPR -->
<g id="edge18" class="edge">
<title>L&#45;SCBU&#45;&#45;O&#45;CNPR</title>
<path fill="none" stroke="black" d="M454.7,-311.7C441.24,-324.04 422.97,-340.81 409.45,-353.2"/>
</g>
<!-- L&#45;SCBU&#45;&#45;O1Y&#45;ED -->
<g id="edge19" class="edge">
<title>L&#45;SCBU&#45;&#45;O1Y&#45;ED</title>
<path fill="none" stroke="black" d="M434.4,-305.66C426.07,-307.95 417.28,-310.38 408.98,-312.67"/>
</g>
<!-- K4YZ&#45;Y -->
<g id="K4YZ&#45;Y" class="node">
<title>K4YZ&#45;Y</title>
<ellipse fill="none" stroke="black" cx="298.64" cy="-272.37" rx="43.59" ry="18"/>
<text text-anchor="middle" x="298.64" y="-268.67" font-family="Times,serif" font-size="14.00">K4YZ&#45;Y</text>
</g>
<!-- K4YZ&#45;Y&#45;&#45;8S28&#45;3 -->
<g id="edge20" class="edge">
<title>K4YZ&#45;Y&#45;&#45;8S28&#45;3</title>
<path fill="none" stroke="black" d="M322.16,-256.86C333,-249.71 345.95,-241.17 357.25,-233.72"/>
</g>
<!-- K4YZ&#45;Y&#45;&#45;O1Y&#45;ED -->
<g id="edge21" class="edge">
<title>K4YZ&#45;Y&#45;&#45;O1Y&#45;ED</title>
<path fill="none" stroke="black" d="M321.18,-288.15C329.83,-294.2 339.7,-301.1 348.37,-307.17"/>
</g>
<!-- L&#45;C3O7 -->
<g id="L&#45;C3O7" class="node">
<title>L&#45;C3O7</title>
<ellipse fill="none" stroke="black" cx="171.8" cy="-311.26" rx="45.5" ry="18"/>
<text text-anchor="middle" x="171.8" y="-307.56" font-family="Times,serif" font-size="14.00">L&#45;C3O7</text>
</g>
<!-- K4YZ&#45;Y&#45;&#45;L&#45;C3O7 -->
<g id="edge22" class="edge">
<title>K4YZ&#45;Y&#45;&#45;L&#45;C3O7</title>
<path fill="none" stroke="black" d="M263.65,-283.1C246.34,-288.41 225.48,-294.81 208.01,-300.16"/>
</g>
<!-- L&#45;C3O7&#45;&#45;O1Y&#45;ED -->
<g id="edge23" class="edge">
<title>L&#45;C3O7&#45;&#45;O1Y&#45;ED</title>
<path fill="none" stroke="black" d="M217.04,-313.95C249.43,-315.87 292.89,-318.46 325.4,-320.39"/>
</g>
<!-- L&#45;C3O7&#45;&#45;X36Y&#45;G -->
<g id="edge24" class="edge">
<title>L&#45;C3O7&#45;&#45;X36Y&#45;G</title>
<path fill="none" stroke="black" d="M180.16,-293.54C183.5,-286.47 187.33,-278.34 190.68,-271.25"/>
</g>
<!-- FIO1&#45;8 -->
<g id="FIO1&#45;8" class="node">
<title>FIO1&#45;8</title>
<ellipse fill="none" stroke="black" cx="217.18" cy="-151.18" rx="42.49" ry="18"/>
<text text-anchor="middle" x="217.18" y="-147.48" font-family="Times,serif" font-size="14.00">FIO1&#45;8</text>
</g>
<!-- FIO1&#45;8&#45;&#45;YKSC&#45;A -->
<g id="edge25" class="edge">
<title>FIO1&#45;8&#45;&#45;YKSC&#45;A</title>
<path fill="none" stroke="black" d="M229.95,-168.34C232.26,-171.43 234.66,-174.66 236.97,-177.76"/>
</g>
<!-- C&#45;OK0R -->
<g id="C&#45;OK0R" class="node">
<title>C&#45;OK0R</title>
<ellipse fill="none" stroke="black" cx="327.38" cy="-126.57" rx="47.5" ry="18"/>
<text text-anchor="middle" x="327.38" y="-122.87" font-family="Times,serif" font-size="14.00">C&#45;OK0R</text>
</g>
<!-- C&#45;OK0R&#45;&#45;YKSC&#45;A -->
<g id="edge26" class="edge">
<title>C&#45;OK0R&#45;&#45;YKSC&#45;A</title>
<path fill="none" stroke="black" d="M308.64,-143.19C296.56,-153.91 280.91,-167.79 268.81,-178.53"/>
</g>
<!-- 0&#45;ARFO -->
<g id="_0&#45;ARFO" class="node">
<title>0&#45;ARFO</title>
<ellipse fill="none" stroke="black" cx="368.92" cy="-59.25" rx="46.29" ry="18"/>
<text text-anchor="middle" x="368.92" y="-55.55" font-family="Times,serif" font-size="14.00">0&#45;ARFO</text>
</g>
<!-- 0&#45;ARFO&#45;&#45;C&#45;OK0R -->
<g id="edge27" class="edge">
<title>0&#45;ARFO&#45;&#45;C&#45;OK0R</title>
<path fill="none" stroke="black" d="M358.01,-76.94C351.95,-86.76 344.43,-98.93 338.36,-108.77"/>
</g>
<!-- E9KD&#45;N -->
<g id="E9KD&#45;N" class="node">
<title>E9KD&#45;N</title>
<ellipse fill="none" stroke="black" cx="131.78" cy="-106.79" rx="48.19" ry="18"/>
<text text-anchor="middle" x="131.78" y="-103.09" font-family="Times,serif" font-size="14.00">E9KD&#45;N</text>
</g>
<!-- E9KD&#45;N&#45;&#45;FIO1&#45;8 -->
<g id="edge28" class="edge">
<title>E9KD&#45;N&#45;&#45;FIO1&#45;8</title>
<path fill="none" stroke="black" d="M160.22,-121.57C169.92,-126.61 180.73,-132.24 190.31,-137.21"/>
</g>
<!-- WQY&#45;IQ -->
<g id="WQY&#45;IQ" class="node">
<title>WQY&#45;IQ</title>
<ellipse fill="none" stroke="black" cx="127.23" cy="-18" rx="46.29" ry="18"/>
<text text-anchor="middle" x="127.23" y="-14.3" font-family="Times,serif" font-size="14.00">WQY&#45;IQ</text>
</g>
<!-- E9KD&#45;N&#45;&#45;WQY&#45;IQ -->
<g id="edge29" class="edge">
<title>E9KD&#45;N&#45;&#45;WQY&#45;IQ</title>
<path fill="none" stroke="black" d="M130.84,-88.39C130.05,-73.05 128.94,-51.32 128.15,-36.07"/>
</g>
<!-- 6RCQ&#45;V -->
<g id="_6RCQ&#45;V" class="node">
<title>6RCQ&#45;V</title>
<polygon fill="none" stroke="black" points="73.42,-110.85 1.42,-110.85 1.42,-74.85 73.42,-74.85 73.42,-110.85"/>
<text text-anchor="middle" x="37.42" y="-89.15" font-family="Times,serif" font-size="14.00">6RCQ&#45;V</text>
</g>
<!-- E9KD&#45;N&#45;&#45;6RCQ&#45;V -->
<g id="edge30" class="edge">
<title>E9KD&#45;N&#45;&#45;6RCQ&#45;V</title>
<path fill="none" stroke="black" d="M86.81,-100.15C82.35,-99.49 77.86,-98.82 73.51,-98.18"/>
</g>
<!-- 8W&#45;OSE -->
<g id="_8W&#45;OSE" class="node">
<title>8W&#45;OSE</title>
<ellipse fill="none" stroke="black" cx="209.82" cy="-62" rx="48.99" ry="18"/>
<text text-anchor="middle" x="209.82" y="-58.3" font-family="Times,serif" font-size="14.00">8W&#45;OSE</text>
</g>
<!-- 8W&#45;OSE&#45;&#45;FIO1&#45;8 -->
<g id="edge31" class="edge">
<title>8W&#45;OSE&#45;&#45;FIO1&#45;8</title>
<path fill="none" stroke="black" d="M211.31,-80.05C212.58,-95.52 214.41,-117.7 215.69,-133.16"/>
</g>
<!-- 8W&#45;OSE&#45;&#45;WQY&#45;IQ -->
<g id="edge32" class="edge">
<title>8W&#45;OSE&#45;&#45;WQY&#45;IQ</title>
<path fill="none" stroke="black" d="M181.86,-47.11C173.06,-42.42 163.36,-37.25 154.6,-32.58"/>
</g>
<!-- C4C&#45;Z4 -->
<g id="C4C&#45;Z4" class="node">
<title>C4C&#45;Z4</title>
<ellipse fill="none" stroke="black" cx="166.46" cy="-369.27" rx="45.5" ry="18"/>
<text text-anchor="middle" x="166.46" y="-365.57" font-family="Times,serif" font-size="14.00">C4C&#45;Z4</text>
</g>
<!-- C4C&#45;Z4&#45;&#45;L&#45;C3O7 -->
<g id="edge33" class="edge">
<title>C4C&#45;Z4&#45;&#45;L&#45;C3O7</title>
<path fill="none" stroke="black" d="M168.12,-351.23C168.76,-344.32 169.48,-336.42 170.12,-329.49"/>
</g>
<!-- GME&#45;PQ -->
<g id="GME&#45;PQ" class="node">
<title>GME&#45;PQ</title>
<ellipse fill="none" stroke="black" cx="158.91" cy="-423.6" rx="50.89" ry="18"/>
<text text-anchor="middle" x="158.91" y="-419.9" font-family="Times,serif" font-size="14.00">GME&#45;PQ</text>
</g>
<!-- C4C&#45;Z4&#45;&#45;GME&#45;PQ -->
<g id="edge34" class="edge">
<title>C4C&#45;Z4&#45;&#45;GME&#45;PQ</title>
<path fill="none" stroke="black" d="M163.94,-387.36C163.14,-393.16 162.24,-399.59 161.44,-405.4"/>
</g>
<!-- MPPA&#45;A -->
<g id="MPPA&#45;A" class="node">
<title>MPPA&#45;A</title>
<ellipse fill="none" stroke="black" cx="83.34" cy="-467.63" rx="47.5" ry="18"/>
<text text-anchor="middle" x="83.34" y="-463.93" font-family="Times,serif" font-size="14.00">MPPA&#45;A</text>
</g>
<!-- GME&#45;PQ&#45;&#45;MPPA&#45;A -->
<g id="edge35" class="edge">
<title>GME&#45;PQ&#45;&#45;MPPA&#45;A</title>
<path fill="none" stroke="black" d="M132.48,-439C124.99,-443.36 116.84,-448.11 109.37,-452.46"/>
</g>
<!-- X5&#45;UME -->
<g id="X5&#45;UME" class="node">
<title>X5&#45;UME</title>
<ellipse fill="none" stroke="black" cx="50.05" cy="-379.92" rx="50.09" ry="18"/>
<text text-anchor="middle" x="50.05" y="-376.22" font-family="Times,serif" font-size="14.00">X5&#45;UME</text>
</g>
<!-- GME&#45;PQ&#45;&#45;X5&#45;UME -->
<g id="edge36" class="edge">
<title>GME&#45;PQ&#45;&#45;X5&#45;UME</title>
<path fill="none" stroke="black" d="M125.06,-410.02C111.83,-404.71 96.69,-398.64 83.5,-393.34"/>
</g>
<!-- I&#45;UUI5 -->
<g id="I&#45;UUI5" class="node">
<title>I&#45;UUI5</title>
<ellipse fill="none" stroke="black" cx="64.3" cy="-527.8" rx="42.49" ry="18"/>
<text text-anchor="middle" x="64.3" y="-524.1" font-family="Times,serif" font-size="14.00">I&#45;UUI5</text>
</g>
<!-- I&#45;UUI5&#45;&#45;MPPA&#45;A -->
<g id="edge37" class="edge">
<title>I&#45;UUI5&#45;&#45;MPPA&#45;A</title>
<path fill="none" stroke="black" d="M70.02,-509.75C72.43,-502.13 75.22,-493.29 77.63,-485.67"/>
</g>
<!-- 8QMO&#45;E -->
<g id="_8QMO&#45;E" class="node">
<title>8QMO&#45;E</title>
<ellipse fill="none" stroke="black" cx="189.63" cy="-505.32" rx="50.89" ry="18"/>
<text text-anchor="middle" x="189.63" y="-501.62" font-family="Times,serif" font-size="14.00">8QMO&#45;E</text>
</g>
<!-- 8QMO&#45;E&#45;&#45;GME&#45;PQ -->
<g id="edge38" class="edge">
<title>8QMO&#45;E&#45;&#45;GME&#45;PQ</title>
<path fill="none" stroke="black" d="M182.81,-487.18C177.72,-473.64 170.79,-455.21 165.71,-441.68"/>
</g>
<!-- 8QMO&#45;E&#45;&#45;MPPA&#45;A -->
<g id="edge39" class="edge">
<title>8QMO&#45;E&#45;&#45;MPPA&#45;A</title>
<path fill="none" stroke="black" d="M153.65,-492.56C142.2,-488.5 129.57,-484.02 118.21,-479.99"/>
</g>
</g>
</svg>
