<?xml version="1.0" encoding="UTF-8" standalone="no"?>
<!DOCTYPE svg PUBLIC "-//W3C//DTD SVG 1.1//EN"
 "http://www.w3.org/Graphics/SVG/1.1/DTD/svg11.dtd">
<!-- Generated by graphviz version 2.43.0 (0)
 -->
<!-- Pages: 1 -->
<svg width="1362pt" height="1082pt"
 viewBox="0.00 0.00 1362.10 1081.50" xmlns="http://www.w3.org/2000/svg" xmlns:xlink="http://www.w3.org/1999/xlink">
<g id="graph0" class="graph" transform="scale(1 1) rotate(0) translate(4 1077.5)">
<polygon fill="white" stroke="transparent" points="-4,4 -4,-1077.5 1358.1,-1077.5 1358.1,4 -4,4"/>
<!-- HED&#45;GP -->
<g id="HED&#45;GP" class="node">
<title>HED&#45;GP</title>
<polygon fill="none" stroke="black" points="797.57,-391.2 721.57,-391.2 721.57,-355.2 797.57,-355.2 797.57,-391.2"/>
<text text-anchor="middle" x="759.57" y="-369.5" font-family="Times,serif" font-size="14.00">HED&#45;GP</text>
</g>
<!-- Mimime -->
<g id="Mimime" class="node">
<title>Mimime</title>
<polygon fill="none" stroke="black" points="1087.3,-327.44 1012.3,-327.44 1012.3,-291.44 1087.3,-291.44 1087.3,-327.44"/>
<text text-anchor="middle" x="1049.8" y="-305.74" font-family="Times,serif" font-size="14.00">Mimime</text>
</g>
<!-- Gousoviba -->
<g id="Gousoviba" class="node">
<title>Gousoviba</title>
<ellipse fill="none" stroke="black" cx="907.1" cy="-277.79" rx="59.29" ry="18"/>
<text text-anchor="middle" x="907.1" y="-274.09" font-family="Times,serif" font-size="14.00">Gousoviba</text>
</g>
<!-- Gousoviba&#45;&#45;Mimime -->
<g id="edge1" class="edge">
<title>Gousoviba&#45;&#45;Mimime</title>
<path fill="none" stroke="black" d="M955.03,-288.42C973.66,-292.55 994.68,-297.21 1012.2,-301.09"/>
</g>
<!-- Neyi -->
<g id="Neyi" class="node">
<title>Neyi</title>
<ellipse fill="none" stroke="black" cx="957.02" cy="-233.76" rx="32.5" ry="18"/>
<text text-anchor="middle" x="957.02" y="-230.06" font-family="Times,serif" font-size="14.00">Neyi</text>
</g>
<!-- Gousoviba&#45;&#45;Neyi -->
<g id="edge2" class="edge">
<title>Gousoviba&#45;&#45;Neyi</title>
<path fill="none" stroke="black" d="M926.54,-260.64C930.81,-256.88 935.31,-252.91 939.5,-249.21"/>
</g>
<!-- Kihtaled -->
<g id="Kihtaled" class="node">
<title>Kihtaled</title>
<ellipse fill="none" stroke="black" cx="787.83" cy="-283.25" rx="50.09" ry="18"/>
<text text-anchor="middle" x="787.83" y="-279.55" font-family="Times,serif" font-size="14.00">Kihtaled</text>
</g>
<!-- Gousoviba&#45;&#45;Kihtaled -->
<g id="edge3" class="edge">
<title>Gousoviba&#45;&#45;Kihtaled</title>
<path fill="none" stroke="black" d="M848.52,-280.47C844.86,-280.64 841.21,-280.81 837.6,-280.97"/>
</g>
<!-- Ipref -->
<g id="Ipref" class="node">
<title>Ipref</title>
<ellipse fill="none" stroke="black" cx="821.56" cy="-327.53" rx="33.29" ry="18"/>
<text text-anchor="middle" x="821.56" y="-323.83" font-family="Times,serif" font-size="14.00">Ipref</text>
</g>
<!-- Ipref&#45;&#45;Kihtaled -->
<g id="edge4" class="edge">
<title>Ipref&#45;&#45;Kihtaled</title>
<path fill="none" stroke="black" d="M808.81,-310.79C806.35,-307.56 803.76,-304.16 801.28,-300.9"/>
</g>
<!-- Agil -->
<g id="Agil" class="node">
<title>Agil</title>
<ellipse fill="none" stroke="black" cx="975.61" cy="-321.83" rx="28.7" ry="18"/>
<text text-anchor="middle" x="975.61" y="-318.13" font-family="Times,serif" font-size="14.00">Agil</text>
</g>
<!-- Agil&#45;&#45;Ipref -->
<g id="edge5" class="edge">
<title>Agil&#45;&#45;Ipref</title>
<path fill="none" stroke="black" d="M947,-322.89C920.89,-323.86 882.31,-325.28 854.84,-326.3"/>
</g>
<!-- Bukah -->
<g id="Bukah" class="node">
<title>Bukah</title>
<ellipse fill="none" stroke="black" cx="908.89" cy="-365.87" rx="40.5" ry="18"/>
<text text-anchor="middle" x="908.89" y="-362.17" font-family="Times,serif" font-size="14.00">Bukah</text>
</g>
<!-- Agil&#45;&#45;Bukah -->
<g id="edge6" class="edge">
<title>Agil&#45;&#45;Bukah</title>
<path fill="none" stroke="black" d="M955.59,-335.05C948.07,-340.01 939.46,-345.69 931.7,-350.81"/>
</g>
<!-- Hishai -->
<g id="Hishai" class="node">
<title>Hishai</title>
<ellipse fill="none" stroke="black" cx="997.67" cy="-402.43" rx="40.5" ry="18"/>
<text text-anchor="middle" x="997.67" y="-398.73" font-family="Times,serif" font-size="14.00">Hishai</text>
</g>
<!-- Agil&#45;&#45;Hishai -->
<g id="edge7" class="edge">
<title>Agil&#45;&#45;Hishai</title>
<path fill="none" stroke="black" d="M980.51,-339.72C984.14,-352.98 989.07,-371 992.71,-384.32"/>
</g>
<!-- Lansez -->
<g id="Lansez" class="node">
<title>Lansez</title>
<ellipse fill="none" stroke="black" cx="870.58" cy="-409.99" rx="43" ry="18"/>
<text text-anchor="middle" x="870.58" y="-406.29" font-family="Times,serif" font-size="14.00">Lansez</text>
</g>
<!-- Bukah&#45;&#45;Lansez -->
<g id="edge8" class="edge">
<title>Bukah&#45;&#45;Lansez</title>
<path fill="none" stroke="black" d="M894.19,-382.8C891.32,-386.11 888.31,-389.57 885.43,-392.88"/>
</g>
<!-- Khanid Prime -->
<g id="Khanid Prime" class="node">
<title>Khanid Prime</title>
<ellipse fill="none" stroke="black" cx="643.44" cy="-282.12" rx="74.19" ry="18"/>
<text text-anchor="middle" x="643.44" y="-278.42" font-family="Times,serif" font-size="14.00">Khanid Prime</text>
</g>
<!-- Khanid Prime&#45;&#45;Kihtaled -->
<g id="edge9" class="edge">
<title>Khanid Prime&#45;&#45;Kihtaled</title>
<path fill="none" stroke="black" d="M717.75,-282.7C724.53,-282.76 731.27,-282.81 737.76,-282.86"/>
</g>
<!-- Jachanu -->
<g id="Jachanu" class="node">
<title>Jachanu</title>
<ellipse fill="none" stroke="black" cx="713.8" cy="-238.11" rx="47.5" ry="18"/>
<text text-anchor="middle" x="713.8" y="-234.41" font-family="Times,serif" font-size="14.00">Jachanu</text>
</g>
<!-- Jachanu&#45;&#45;Kihtaled -->
<g id="edge10" class="edge">
<title>Jachanu&#45;&#45;Kihtaled</title>
<path fill="none" stroke="black" d="M739.28,-253.64C746.64,-258.13 754.68,-263.03 762.06,-267.53"/>
</g>
<!-- Sazre -->
<g id="Sazre" class="node">
<title>Sazre</title>
<ellipse fill="none" stroke="black" cx="705.39" cy="-194.09" rx="37.09" ry="18"/>
<text text-anchor="middle" x="705.39" y="-190.39" font-family="Times,serif" font-size="14.00">Sazre</text>
</g>
<!-- Jachanu&#45;&#45;Sazre -->
<g id="edge11" class="edge">
<title>Jachanu&#45;&#45;Sazre</title>
<path fill="none" stroke="black" d="M710.33,-219.95C709.84,-217.39 709.34,-214.76 708.85,-212.21"/>
</g>
<!-- Ervekam -->
<g id="Ervekam" class="node">
<title>Ervekam</title>
<ellipse fill="none" stroke="black" cx="1210.7" cy="-473.8" rx="52" ry="18"/>
<text text-anchor="middle" x="1210.7" y="-470.1" font-family="Times,serif" font-size="14.00">Ervekam</text>
</g>
<!-- Mashtarmem -->
<g id="Mashtarmem" class="node">
<title>Mashtarmem</title>
<ellipse fill="none" stroke="black" cx="1203.6" cy="-522.14" rx="73" ry="18"/>
<text text-anchor="middle" x="1203.6" y="-518.44" font-family="Times,serif" font-size="14.00">Mashtarmem</text>
</g>
<!-- Ervekam&#45;&#45;Mashtarmem -->
<g id="edge12" class="edge">
<title>Ervekam&#45;&#45;Mashtarmem</title>
<path fill="none" stroke="black" d="M1208.1,-491.8C1207.5,-495.77 1206.9,-499.98 1206.3,-503.96"/>
</g>
<!-- Sehsasez -->
<g id="Sehsasez" class="node">
<title>Sehsasez</title>
<ellipse fill="none" stroke="black" cx="1066.5" cy="-545.57" rx="54" ry="18"/>
<text text-anchor="middle" x="1066.5" y="-541.87" font-family="Times,serif" font-size="14.00">Sehsasez</text>
</g>
<!-- Ervekam&#45;&#45;Sehsasez -->
<g id="edge13" class="edge">
<title>Ervekam&#45;&#45;Sehsasez</title>
<path fill="none" stroke="black" d="M1180.9,-488.67C1156.3,-500.9 1121.5,-518.17 1096.8,-530.47"/>
</g>
<!-- Yezara -->
<g id="Yezara" class="node">
<title>Yezara</title>
<ellipse fill="none" stroke="black" cx="1109.1" cy="-459.9" rx="41.69" ry="18"/>
<text text-anchor="middle" x="1109.1" y="-456.2" font-family="Times,serif" font-size="14.00">Yezara</text>
</g>
<!-- Ervekam&#45;&#45;Yezara -->
<g id="edge14" class="edge">
<title>Ervekam&#45;&#45;Yezara</title>
<path fill="none" stroke="black" d="M1162.3,-467.18C1157.8,-466.56 1153.3,-465.94 1148.8,-465.34"/>
</g>
<!-- Masanuh -->
<g id="Masanuh" class="node">
<title>Masanuh</title>
<polygon fill="none" stroke="black" points="1354.1,-450.68 1272.1,-450.68 1272.1,-414.68 1354.1,-414.68 1354.1,-450.68"/>
<text text-anchor="middle" x="1313.1" y="-428.98" font-family="Times,serif" font-size="14.00">Masanuh</text>
</g>
<!-- Ervekam&#45;&#45;Masanuh -->
<g id="edge15" class="edge">
<title>Ervekam&#45;&#45;Masanuh</title>
<path fill="none" stroke="black" d="M1244.8,-460.11C1253.5,-456.6 1263,-452.8 1272,-449.17"/>
</g>
<!-- Mashtarmem&#45;&#45;Sehsasez -->
<g id="edge16" class="edge">
<title>Mashtarmem&#45;&#45;Sehsasez</title>
<path fill="none" stroke="black" d="M1143.5,-532.42C1133.8,-534.06 1123.9,-535.75 1114.6,-537.34"/>
</g>
<!-- Mashtarmem&#45;&#45;Yezara -->
<g id="edge17" class="edge">
<title>Mashtarmem&#45;&#45;Yezara</title>
<path fill="none" stroke="black" d="M1177.8,-505.13C1163.4,-495.7 1145.8,-484.08 1132,-474.98"/>
</g>
<!-- Saloti -->
<g id="Saloti" class="node">
<title>Saloti</title>
<ellipse fill="none" stroke="black" cx="1263.6" cy="-568.38" rx="37.89" ry="18"/>
<text text-anchor="middle" x="1263.6" y="-564.68" font-family="Times,serif" font-size="14.00">Saloti</text>
</g>
<!-- Mashtarmem&#45;&#45;Saloti -->
<g id="edge18" class="edge">
<title>Mashtarmem&#45;&#45;Saloti</title>
<path fill="none" stroke="black" d="M1225.9,-539.36C1231.7,-543.77 1237.8,-548.5 1243.4,-552.82"/>
</g>
<!-- Osis -->
<g id="Osis" class="node">
<title>Osis</title>
<ellipse fill="none" stroke="black" cx="1028.8" cy="-501.1" rx="30.59" ry="18"/>
<text text-anchor="middle" x="1028.8" y="-497.4" font-family="Times,serif" font-size="14.00">Osis</text>
</g>
<!-- Osis&#45;&#45;Sehsasez -->
<g id="edge19" class="edge">
<title>Osis&#45;&#45;Sehsasez</title>
<path fill="none" stroke="black" d="M1042.6,-517.41C1045.6,-520.88 1048.7,-524.56 1051.7,-528.07"/>
</g>
<!-- Osis&#45;&#45;Yezara -->
<g id="edge20" class="edge">
<title>Osis&#45;&#45;Yezara</title>
<path fill="none" stroke="black" d="M1052,-489.19C1061.5,-484.34 1072.5,-478.71 1082.2,-473.68"/>
</g>
<!-- Geztic -->
<g id="Geztic" class="node">
<title>Geztic</title>
<ellipse fill="none" stroke="black" cx="971.65" cy="-453.91" rx="40.5" ry="18"/>
<text text-anchor="middle" x="971.65" y="-450.21" font-family="Times,serif" font-size="14.00">Geztic</text>
</g>
<!-- Geztic&#45;&#45;Hishai -->
<g id="edge21" class="edge">
<title>Geztic&#45;&#45;Hishai</title>
<path fill="none" stroke="black" d="M980.6,-436.19C983.25,-430.96 986.14,-425.23 988.79,-420.01"/>
</g>
<!-- Geztic&#45;&#45;Osis -->
<g id="edge22" class="edge">
<title>Geztic&#45;&#45;Osis</title>
<path fill="none" stroke="black" d="M991.01,-469.89C997.49,-475.23 1004.7,-481.17 1011,-486.41"/>
</g>
<!-- Kahah -->
<g id="Kahah" class="node">
<title>Kahah</title>
<ellipse fill="none" stroke="black" cx="1138.6" cy="-599.65" rx="40.5" ry="18"/>
<text text-anchor="middle" x="1138.6" y="-595.95" font-family="Times,serif" font-size="14.00">Kahah</text>
</g>
<!-- Kahah&#45;&#45;Sehsasez -->
<g id="edge23" class="edge">
<title>Kahah&#45;&#45;Sehsasez</title>
<path fill="none" stroke="black" d="M1117.8,-584.01C1108.6,-577.15 1097.8,-569.08 1088.5,-562.12"/>
</g>
<!-- Kahah&#45;&#45;Saloti -->
<g id="edge24" class="edge">
<title>Kahah&#45;&#45;Saloti</title>
<path fill="none" stroke="black" d="M1174.1,-590.77C1191.7,-586.37 1212.9,-581.07 1230.2,-576.74"/>
</g>
<!-- Molea -->
<g id="Molea" class="node">
<title>Molea</title>
<ellipse fill="none" stroke="black" cx="213.6" cy="-240.93" rx="39" ry="18"/>
<text text-anchor="middle" x="213.6" y="-237.23" font-family="Times,serif" font-size="14.00">Molea</text>
</g>
<!-- Nakregde -->
<g id="Nakregde" class="node">
<title>Nakregde</title>
<polygon fill="none" stroke="black" points="153.89,-217.6 67.89,-217.6 67.89,-181.6 153.89,-181.6 153.89,-217.6"/>
<text text-anchor="middle" x="110.89" y="-195.9" font-family="Times,serif" font-size="14.00">Nakregde</text>
</g>
<!-- Molea&#45;&#45;Nakregde -->
<g id="edge25" class="edge">
<title>Molea&#45;&#45;Nakregde</title>
<path fill="none" stroke="black" d="M184.17,-229.09C174.8,-225.32 164.24,-221.07 154.11,-216.99"/>
</g>
<!-- Gidali -->
<g id="Gidali" class="node">
<title>Gidali</title>
<ellipse fill="none" stroke="black" cx="257.46" cy="-284.94" rx="38.5" ry="18"/>
<text text-anchor="middle" x="257.46" y="-281.24" font-family="Times,serif" font-size="14.00">Gidali</text>
</g>
<!-- Gidali&#45;&#45;Molea -->
<g id="edge26" class="edge">
<title>Gidali&#45;&#45;Molea</title>
<path fill="none" stroke="black" d="M241.13,-268.56C237.53,-264.94 233.71,-261.11 230.1,-257.48"/>
</g>
<!-- Palas -->
<g id="Palas" class="node">
<title>Palas</title>
<ellipse fill="none" stroke="black" cx="126.08" cy="-322.97" rx="35.19" ry="18"/>
<text text-anchor="middle" x="126.08" y="-319.27" font-family="Times,serif" font-size="14.00">Palas</text>
</g>
<!-- Gidali&#45;&#45;Palas -->
<g id="edge27" class="edge">
<title>Gidali&#45;&#45;Palas</title>
<path fill="none" stroke="black" d="M224.65,-294.44C203.82,-300.47 177.06,-308.22 156.67,-314.12"/>
</g>
<!-- Safshela -->
<g id="Safshela" class="node">
<title>Safshela</title>
<ellipse fill="none" stroke="black" cx="50.05" cy="-367.07" rx="50.09" ry="18"/>
<text text-anchor="middle" x="50.05" y="-363.37" font-family="Times,serif" font-size="14.00">Safshela</text>
</g>
<!-- Palas&#45;&#45;Safshela -->
<g id="edge28" class="edge">
<title>Palas&#45;&#45;Safshela</title>
<path fill="none" stroke="black" d="M102.44,-336.68C94.24,-341.44 85,-346.8 76.59,-351.68"/>
</g>
<!-- Reteka -->
<g id="Reteka" class="node">
<title>Reteka</title>
<ellipse fill="none" stroke="black" cx="212.09" cy="-342.56" rx="43" ry="18"/>
<text text-anchor="middle" x="212.09" y="-338.86" font-family="Times,serif" font-size="14.00">Reteka</text>
</g>
<!-- Palas&#45;&#45;Reteka -->
<g id="edge29" class="edge">
<title>Palas&#45;&#45;Reteka</title>
<path fill="none" stroke="black" d="M158.59,-330.38C163.73,-331.55 169.08,-332.76 174.33,-333.96"/>
</g>
<!-- Moniyyuku -->
<g id="Moniyyuku" class="node">
<title>Moniyyuku</title>
<ellipse fill="none" stroke="black" cx="171.69" cy="-393.3" rx="61.99" ry="18"/>
<text text-anchor="middle" x="171.69" y="-389.6" font-family="Times,serif" font-size="14.00">Moniyyuku</text>
</g>
<!-- Moniyyuku&#45;&#45;Reteka -->
<g id="edge30" class="edge">
<title>Moniyyuku&#45;&#45;Reteka</title>
<path fill="none" stroke="black" d="M185.82,-375.55C189.92,-370.41 194.38,-364.8 198.44,-359.7"/>
</g>
<!-- Kulu -->
<g id="Kulu" class="node">
<title>Kulu</title>
<polygon fill="none" stroke="black" points="134.85,-457.52 80.85,-457.52 80.85,-421.52 134.85,-421.52 134.85,-457.52"/>
<text text-anchor="middle" x="107.85" y="-435.82" font-family="Times,serif" font-size="14.00">Kulu</text>
</g>
<!-- Moniyyuku&#45;&#45;Kulu -->
<g id="edge31" class="edge">
<title>Moniyyuku&#45;&#45;Kulu</title>
<path fill="none" stroke="black" d="M148.28,-410.25C143.3,-413.85 138.02,-417.68 132.97,-421.33"/>
</g>
<!-- Keberz -->
<g id="Keberz" class="node">
<title>Keberz</title>
<ellipse fill="none" stroke="black" cx="779.25" cy="-454.51" rx="43" ry="18"/>
<text text-anchor="middle" x="779.25" y="-450.81" font-family="Times,serif" font-size="14.00">Keberz</text>
</g>
<!-- Keberz&#45;&#45;HED&#45;GP -->
<g id="edge32" class="edge">
<title>Keberz&#45;&#45;HED&#45;GP</title>
<path fill="none" stroke="black" d="M774.88,-436.46C771.64,-423.08 767.24,-404.91 763.99,-391.48"/>
</g>
<!-- Keberz&#45;&#45;Lansez -->
<g id="edge33" class="edge">
<title>Keberz&#45;&#45;Lansez</title>
<path fill="none" stroke="black" d="M807.64,-440.67C818.75,-435.25 831.44,-429.06 842.51,-423.67"/>
</g>
<!-- Nourbal -->
<g id="Nourbal" class="node">
<title>Nourbal</title>
<ellipse fill="none" stroke="black" cx="881.73" cy="-497.96" rx="48.19" ry="18"/>
<text text-anchor="middle" x="881.73" y="-494.26" font-family="Times,serif" font-size="14.00">Nourbal</text>
</g>
<!-- Keberz&#45;&#45;Nourbal -->
<g id="edge34" class="edge">
<title>Keberz&#45;&#45;Nourbal</title>
<path fill="none" stroke="black" d="M809.44,-467.31C822.07,-472.67 836.78,-478.9 849.61,-484.34"/>
</g>
<!-- Arzanni -->
<g id="Arzanni" class="node">
<title>Arzanni</title>
<ellipse fill="none" stroke="black" cx="677.29" cy="-454.69" rx="46.29" ry="18"/>
<text text-anchor="middle" x="677.29" y="-450.99" font-family="Times,serif" font-size="14.00">Arzanni</text>
</g>
<!-- Arzanni&#45;&#45;Keberz -->
<g id="edge35" class="edge">
<title>Arzanni&#45;&#45;Keberz</title>
<path fill="none" stroke="black" d="M723.49,-454.61C727.71,-454.6 731.97,-454.59 736.15,-454.59"/>
</g>
<!-- Ashmarir -->
<g id="Ashmarir" class="node">
<title>Ashmarir</title>
<ellipse fill="none" stroke="black" cx="771.68" cy="-498.73" rx="54" ry="18"/>
<text text-anchor="middle" x="771.68" y="-495.03" font-family="Times,serif" font-size="14.00">Ashmarir</text>
</g>
<!-- Arzanni&#45;&#45;Ashmarir -->
<g id="edge36" class="edge">
<title>Arzanni&#45;&#45;Ashmarir</title>
<path fill="none" stroke="black" d="M706.89,-468.51C717.49,-473.45 729.47,-479.04 740.22,-484.05"/>
</g>
<!-- Kaira -->
<g id="Kaira" class="node">
<title>Kaira</title>
<ellipse fill="none" stroke="black" cx="649.9" cy="-529.79" rx="36" ry="18"/>
<text text-anchor="middle" x="649.9" y="-526.09" font-family="Times,serif" font-size="14.00">Kaira</text>
</g>
<!-- Ashmarir&#45;&#45;Kaira -->
<g id="edge37" class="edge">
<title>Ashmarir&#45;&#45;Kaira</title>
<path fill="none" stroke="black" d="M728.74,-509.68C713.41,-513.59 696.4,-517.93 682.12,-521.57"/>
</g>
<!-- Claini -->
<g id="Claini" class="node">
<title>Claini</title>
<ellipse fill="none" stroke="black" cx="806.11" cy="-542.76" rx="37.89" ry="18"/>
<text text-anchor="middle" x="806.11" y="-539.06" font-family="Times,serif" font-size="14.00">Claini</text>
</g>
<!-- Ashmarir&#45;&#45;Claini -->
<g id="edge38" class="edge">
<title>Ashmarir&#45;&#45;Claini</title>
<path fill="none" stroke="black" d="M785.48,-516.39C787.88,-519.45 790.36,-522.63 792.75,-525.67"/>
</g>
<!-- A2&#45;V27 -->
<g id="A2&#45;V27" class="node">
<title>A2&#45;V27</title>
<polygon fill="none" stroke="black" points="590.56,-548.22 523.56,-548.22 523.56,-512.22 590.56,-512.22 590.56,-548.22"/>
<text text-anchor="middle" x="557.06" y="-526.52" font-family="Times,serif" font-size="14.00">A2&#45;V27</text>
</g>
<!-- Kaira&#45;&#45;A2&#45;V27 -->
<g id="edge39" class="edge">
<title>Kaira&#45;&#45;A2&#45;V27</title>
<path fill="none" stroke="black" d="M614.01,-529.95C606.35,-529.99 598.29,-530.03 590.73,-530.06"/>
</g>
<!-- Gehi -->
<g id="Gehi" class="node">
<title>Gehi</title>
<ellipse fill="none" stroke="black" cx="738.3" cy="-586.77" rx="32.5" ry="18"/>
<text text-anchor="middle" x="738.3" y="-583.07" font-family="Times,serif" font-size="14.00">Gehi</text>
</g>
<!-- Claini&#45;&#45;Gehi -->
<g id="edge40" class="edge">
<title>Claini&#45;&#45;Gehi</title>
<path fill="none" stroke="black" d="M783.53,-557.41C775.82,-562.41 767.24,-567.99 759.63,-572.92"/>
</g>
<!-- Seshala -->
<g id="Seshala" class="node">
<title>Seshala</title>
<ellipse fill="none" stroke="black" cx="604.16" cy="-575.87" rx="47" ry="18"/>
<text text-anchor="middle" x="604.16" y="-572.17" font-family="Times,serif" font-size="14.00">Seshala</text>
</g>
<!-- Gehi&#45;&#45;Seshala -->
<g id="edge41" class="edge">
<title>Gehi&#45;&#45;Seshala</title>
<path fill="none" stroke="black" d="M705.83,-584.13C689.08,-582.77 668.36,-581.08 650.01,-579.59"/>
</g>
<!-- Vezila -->
<g id="Vezila" class="node">
<title>Vezila</title>
<ellipse fill="none" stroke="black" cx="751.21" cy="-630.79" rx="38.5" ry="18"/>
<text text-anchor="middle" x="751.21" y="-627.09" font-family="Times,serif" font-size="14.00">Vezila</text>
</g>
<!-- Gehi&#45;&#45;Vezila -->
<g id="edge42" class="edge">
<title>Gehi&#45;&#45;Vezila</title>
<path fill="none" stroke="black" d="M743.55,-604.67C744.33,-607.34 745.14,-610.09 745.92,-612.76"/>
</g>
<!-- Badivefi -->
<g id="Badivefi" class="node">
<title>Badivefi</title>
<ellipse fill="none" stroke="black" cx="696.03" cy="-150.07" rx="48.19" ry="18"/>
<text text-anchor="middle" x="696.03" y="-146.37" font-family="Times,serif" font-size="14.00">Badivefi</text>
</g>
<!-- Badivefi&#45;&#45;Sazre -->
<g id="edge43" class="edge">
<title>Badivefi&#45;&#45;Sazre</title>
<path fill="none" stroke="black" d="M699.89,-168.23C700.44,-170.78 700.99,-173.41 701.54,-175.97"/>
</g>
<!-- Talidal -->
<g id="Talidal" class="node">
<title>Talidal</title>
<ellipse fill="none" stroke="black" cx="802" cy="-150.98" rx="41.69" ry="18"/>
<text text-anchor="middle" x="802" y="-147.28" font-family="Times,serif" font-size="14.00">Talidal</text>
</g>
<!-- Badivefi&#45;&#45;Talidal -->
<g id="edge44" class="edge">
<title>Badivefi&#45;&#45;Talidal</title>
<path fill="none" stroke="black" d="M744.36,-150.48C749.71,-150.53 755.13,-150.58 760.38,-150.62"/>
</g>
<!-- Tzashrah -->
<g id="Tzashrah" class="node">
<title>Tzashrah</title>
<ellipse fill="none" stroke="black" cx="697.59" cy="-106.05" rx="53.5" ry="18"/>
<text text-anchor="middle" x="697.59" y="-102.35" font-family="Times,serif" font-size="14.00">Tzashrah</text>
</g>
<!-- Badivefi&#45;&#45;Tzashrah -->
<g id="edge45" class="edge">
<title>Badivefi&#45;&#45;Tzashrah</title>
<path fill="none" stroke="black" d="M696.67,-131.91C696.76,-129.35 696.86,-126.72 696.95,-124.17"/>
</g>
<!-- Ashi -->
<g id="Ashi" class="node">
<title>Ashi</title>
<ellipse fill="none" stroke="black" cx="608.86" cy="-153.32" rx="30.59" ry="18"/>
<text text-anchor="middle" x="608.86" y="-149.62" font-family="Times,serif" font-size="14.00">Ashi</text>
</g>
<!-- Ashi&#45;&#45;Badivefi -->
<g id="edge46" class="edge">
<title>Ashi&#45;&#45;Badivefi</title>
<path fill="none" stroke="black" d="M639.35,-152.18C642.2,-152.07 645.13,-151.97 648.08,-151.86"/>
</g>
<!-- Efa -->
<g id="Efa" class="node">
<title>Efa</title>
<ellipse fill="none" stroke="black" cx="726.91" cy="-62.04" rx="27" ry="18"/>
<text text-anchor="middle" x="726.91" y="-58.34" font-family="Times,serif" font-size="14.00">Efa</text>
</g>
<!-- Efa&#45;&#45;Tzashrah -->
<g id="edge47" class="edge">
<title>Efa&#45;&#45;Tzashrah</title>
<path fill="none" stroke="black" d="M715.83,-78.68C713.75,-81.79 711.57,-85.06 709.47,-88.21"/>
</g>
<!-- Moro -->
<g id="Moro" class="node">
<title>Moro</title>
<ellipse fill="none" stroke="black" cx="802.16" cy="-62.53" rx="35.19" ry="18"/>
<text text-anchor="middle" x="802.16" y="-58.83" font-family="Times,serif" font-size="14.00">Moro</text>
</g>
<!-- Efa&#45;&#45;Moro -->
<g id="edge48" class="edge">
<title>Efa&#45;&#45;Moro</title>
<path fill="none" stroke="black" d="M754.08,-62.22C758.29,-62.24 762.69,-62.27 767.04,-62.3"/>
</g>
<!-- Sabusi -->
<g id="Sabusi" class="node">
<title>Sabusi</title>
<ellipse fill="none" stroke="black" cx="643.78" cy="-62.04" rx="42.49" ry="18"/>
<text text-anchor="middle" x="643.78" y="-58.34" font-family="Times,serif" font-size="14.00">Sabusi</text>
</g>
<!-- Efa&#45;&#45;Sabusi -->
<g id="edge49" class="edge">
<title>Efa&#45;&#45;Sabusi</title>
<path fill="none" stroke="black" d="M699.69,-62.04C695.33,-62.04 690.74,-62.04 686.13,-62.04"/>
</g>
<!-- 3&#45;FKCZ -->
<g id="_3&#45;FKCZ" class="node">
<title>3&#45;FKCZ</title>
<polygon fill="none" stroke="black" points="746.36,-36 676.36,-36 676.36,0 746.36,0 746.36,-36"/>
<text text-anchor="middle" x="711.36" y="-14.3" font-family="Times,serif" font-size="14.00">3&#45;FKCZ</text>
</g>
<!-- Efa&#45;&#45;3&#45;FKCZ -->
<g id="edge50" class="edge">
<title>Efa&#45;&#45;3&#45;FKCZ</title>
<path fill="none" stroke="black" d="M720.68,-44.38C719.73,-41.7 718.75,-38.93 717.8,-36.24"/>
</g>
<!-- Sabusi&#45;&#45;Tzashrah -->
<g id="edge51" class="edge">
<title>Sabusi&#45;&#45;Tzashrah</title>
<path fill="none" stroke="black" d="M663.51,-78.18C667.95,-81.81 672.67,-85.67 677.14,-89.32"/>
</g>
<!-- Ainsan -->
<g id="Ainsan" class="node">
<title>Ainsan</title>
<ellipse fill="none" stroke="black" cx="826.47" cy="-106.81" rx="42.49" ry="18"/>
<text text-anchor="middle" x="826.47" y="-103.11" font-family="Times,serif" font-size="14.00">Ainsan</text>
</g>
<!-- Ainsan&#45;&#45;Talidal -->
<g id="edge52" class="edge">
<title>Ainsan&#45;&#45;Talidal</title>
<path fill="none" stroke="black" d="M816.66,-124.52C815.06,-127.4 813.41,-130.38 811.81,-133.26"/>
</g>
<!-- Ainsan&#45;&#45;Moro -->
<g id="edge53" class="edge">
<title>Ainsan&#45;&#45;Moro</title>
<path fill="none" stroke="black" d="M816.72,-89.05C815.08,-86.07 813.39,-82.98 811.75,-80"/>
</g>
<!-- Ham -->
<g id="Ham" class="node">
<title>Ham</title>
<ellipse fill="none" stroke="black" cx="720.11" cy="-674.79" rx="32.5" ry="18"/>
<text text-anchor="middle" x="720.11" y="-671.09" font-family="Times,serif" font-size="14.00">Ham</text>
</g>
<!-- Ham&#45;&#45;Vezila -->
<g id="edge54" class="edge">
<title>Ham&#45;&#45;Vezila</title>
<path fill="none" stroke="black" d="M732.04,-657.91C734.31,-654.71 736.67,-651.35 738.95,-648.14"/>
</g>
<!-- Upt -->
<g id="Upt" class="node">
<title>Upt</title>
<ellipse fill="none" stroke="black" cx="605.9" cy="-621" rx="28.7" ry="18"/>
<text text-anchor="middle" x="605.9" y="-617.3" font-family="Times,serif" font-size="14.00">Upt</text>
</g>
<!-- Ham&#45;&#45;Upt -->
<g id="edge55" class="edge">
<title>Ham&#45;&#45;Upt</title>
<path fill="none" stroke="black" d="M695.33,-663.12C675.65,-653.85 648.32,-640.98 629.07,-631.92"/>
</g>
<!-- Hemouner -->
<g id="Hemouner" class="node">
<title>Hemouner</title>
<ellipse fill="none" stroke="black" cx="481.78" cy="-599.46" rx="60" ry="18"/>
<text text-anchor="middle" x="481.78" y="-595.76" font-family="Times,serif" font-size="14.00">Hemouner</text>
</g>
<!-- Hemouner&#45;&#45;Seshala -->
<g id="edge56" class="edge">
<title>Hemouner&#45;&#45;Seshala</title>
<path fill="none" stroke="black" d="M532.26,-589.73C542.14,-587.83 552.4,-585.85 561.97,-584"/>
</g>
<!-- Afnakat -->
<g id="Afnakat" class="node">
<title>Afnakat</title>
<ellipse fill="none" stroke="black" cx="576.97" cy="-414.17" rx="46.29" ry="18"/>
<text text-anchor="middle" x="576.97" y="-410.47" font-family="Times,serif" font-size="14.00">Afnakat</text>
</g>
<!-- Afnakat&#45;&#45;Arzanni -->
<g id="edge57" class="edge">
<title>Afnakat&#45;&#45;Arzanni</title>
<path fill="none" stroke="black" d="M609.27,-427.22C620.72,-431.84 633.61,-437.05 645.06,-441.67"/>
</g>
<!-- Col -->
<g id="Col" class="node">
<title>Col</title>
<ellipse fill="none" stroke="black" cx="495.17" cy="-423" rx="27" ry="18"/>
<text text-anchor="middle" x="495.17" y="-419.3" font-family="Times,serif" font-size="14.00">Col</text>
</g>
<!-- Afnakat&#45;&#45;Col -->
<g id="edge58" class="edge">
<title>Afnakat&#45;&#45;Col</title>
<path fill="none" stroke="black" d="M532.24,-419C528.81,-419.37 525.41,-419.74 522.15,-420.09"/>
</g>
<!-- Firbha -->
<g id="Firbha" class="node">
<title>Firbha</title>
<ellipse fill="none" stroke="black" cx="554.74" cy="-484.56" rx="41.69" ry="18"/>
<text text-anchor="middle" x="554.74" y="-480.86" font-family="Times,serif" font-size="14.00">Firbha</text>
</g>
<!-- Afnakat&#45;&#45;Firbha -->
<g id="edge59" class="edge">
<title>Afnakat&#45;&#45;Firbha</title>
<path fill="none" stroke="black" d="M571.25,-432.3C567.95,-442.73 563.83,-455.79 560.52,-466.25"/>
</g>
<!-- Parses -->
<g id="Parses" class="node">
<title>Parses</title>
<ellipse fill="none" stroke="black" cx="540.36" cy="-370.15" rx="41.69" ry="18"/>
<text text-anchor="middle" x="540.36" y="-366.45" font-family="Times,serif" font-size="14.00">Parses</text>
</g>
<!-- Afnakat&#45;&#45;Parses -->
<g id="edge60" class="edge">
<title>Afnakat&#45;&#45;Parses</title>
<path fill="none" stroke="black" d="M562.71,-397.03C560.06,-393.84 557.29,-390.51 554.64,-387.32"/>
</g>
<!-- Tegheon -->
<g id="Tegheon" class="node">
<title>Tegheon</title>
<ellipse fill="none" stroke="black" cx="407.71" cy="-453.54" rx="50.09" ry="18"/>
<text text-anchor="middle" x="407.71" y="-449.84" font-family="Times,serif" font-size="14.00">Tegheon</text>
</g>
<!-- Col&#45;&#45;Tegheon -->
<g id="edge61" class="edge">
<title>Col&#45;&#45;Tegheon</title>
<path fill="none" stroke="black" d="M470.81,-431.51C462.42,-434.44 452.83,-437.78 443.71,-440.97"/>
</g>
<!-- Chamemi -->
<g id="Chamemi" class="node">
<title>Chamemi</title>
<ellipse fill="none" stroke="black" cx="403.69" cy="-381.07" rx="54.69" ry="18"/>
<text text-anchor="middle" x="403.69" y="-377.37" font-family="Times,serif" font-size="14.00">Chamemi</text>
</g>
<!-- Chamemi&#45;&#45;Col -->
<g id="edge62" class="edge">
<title>Chamemi&#45;&#45;Col</title>
<path fill="none" stroke="black" d="M435.68,-395.74C447.95,-401.36 461.66,-407.65 472.83,-412.77"/>
</g>
<!-- Chamemi&#45;&#45;Parses -->
<g id="edge63" class="edge">
<title>Chamemi&#45;&#45;Parses</title>
<path fill="none" stroke="black" d="M456.92,-376.82C471.01,-375.69 486,-374.49 499.33,-373.43"/>
</g>
<!-- Bashyam -->
<g id="Bashyam" class="node">
<title>Bashyam</title>
<ellipse fill="none" stroke="black" cx="437.43" cy="-329.66" rx="53.5" ry="18"/>
<text text-anchor="middle" x="437.43" y="-325.96" font-family="Times,serif" font-size="14.00">Bashyam</text>
</g>
<!-- Bashyam&#45;&#45;Parses -->
<g id="edge64" class="edge">
<title>Bashyam&#45;&#45;Parses</title>
<path fill="none" stroke="black" d="M472.28,-343.37C484.29,-348.09 497.66,-353.35 509.34,-357.95"/>
</g>
<!-- Bashyam&#45;&#45;Chamemi -->
<g id="edge65" class="edge">
<title>Bashyam&#45;&#45;Chamemi</title>
<path fill="none" stroke="black" d="M425.82,-347.35C422.46,-352.47 418.8,-358.05 415.44,-363.17"/>
</g>
<!-- Balanaz -->
<g id="Balanaz" class="node">
<title>Balanaz</title>
<ellipse fill="none" stroke="black" cx="551.52" cy="-326.14" rx="47.5" ry="18"/>
<text text-anchor="middle" x="551.52" y="-322.44" font-family="Times,serif" font-size="14.00">Balanaz</text>
</g>
<!-- Balanaz&#45;&#45;Parses -->
<g id="edge66" class="edge">
<title>Balanaz&#45;&#45;Parses</title>
<path fill="none" stroke="black" d="M546.91,-344.29C546.27,-346.85 545.6,-349.48 544.95,-352.04"/>
</g>
<!-- Edani -->
<g id="Edani" class="node">
<title>Edani</title>
<ellipse fill="none" stroke="black" cx="280.2" cy="-387.33" rx="37.89" ry="18"/>
<text text-anchor="middle" x="280.2" y="-383.63" font-family="Times,serif" font-size="14.00">Edani</text>
</g>
<!-- Edani&#45;&#45;Moniyyuku -->
<g id="edge67" class="edge">
<title>Edani&#45;&#45;Moniyyuku</title>
<path fill="none" stroke="black" d="M242.55,-389.4C239.25,-389.58 235.85,-389.77 232.42,-389.96"/>
</g>
<!-- Rahabeda -->
<g id="Rahabeda" class="node">
<title>Rahabeda</title>
<ellipse fill="none" stroke="black" cx="319.58" cy="-328.98" rx="56.59" ry="18"/>
<text text-anchor="middle" x="319.58" y="-325.28" font-family="Times,serif" font-size="14.00">Rahabeda</text>
</g>
<!-- Edani&#45;&#45;Rahabeda -->
<g id="edge68" class="edge">
<title>Edani&#45;&#45;Rahabeda</title>
<path fill="none" stroke="black" d="M291.8,-370.14C296.79,-362.74 302.62,-354.1 307.65,-346.66"/>
</g>
<!-- Rilera -->
<g id="Rilera" class="node">
<title>Rilera</title>
<ellipse fill="none" stroke="black" cx="310.63" cy="-431.43" rx="38.5" ry="18"/>
<text text-anchor="middle" x="310.63" y="-427.73" font-family="Times,serif" font-size="14.00">Rilera</text>
</g>
<!-- Edani&#45;&#45;Rilera -->
<g id="edge69" class="edge">
<title>Edani&#45;&#45;Rilera</title>
<path fill="none" stroke="black" d="M292.05,-404.5C294.26,-407.7 296.56,-411.03 298.76,-414.23"/>
</g>
<!-- Rilera&#45;&#45;Tegheon -->
<g id="edge70" class="edge">
<title>Rilera&#45;&#45;Tegheon</title>
<path fill="none" stroke="black" d="M345.41,-439.35C351.83,-440.81 358.6,-442.35 365.21,-443.86"/>
</g>
<!-- Danera -->
<g id="Danera" class="node">
<title>Danera</title>
<ellipse fill="none" stroke="black" cx="190.6" cy="-437.33" rx="44.39" ry="18"/>
<text text-anchor="middle" x="190.6" y="-433.63" font-family="Times,serif" font-size="14.00">Danera</text>
</g>
<!-- Danera&#45;&#45;Edani -->
<g id="edge71" class="edge">
<title>Danera&#45;&#45;Edani</title>
<path fill="none" stroke="black" d="M217,-422.6C229.18,-415.8 243.56,-407.78 255.52,-401.1"/>
</g>
<!-- Danera&#45;&#45;Rahabeda -->
<g id="edge72" class="edge">
<title>Danera&#45;&#45;Rahabeda</title>
<path fill="none" stroke="black" d="M208.2,-420.55C216.49,-412.5 226.42,-402.64 235.03,-393.49 243.17,-384.84 243.67,-381.19 252.6,-373.37 264.67,-362.81 279.41,-352.78 291.99,-344.93"/>
</g>
<!-- Bomana -->
<g id="Bomana" class="node">
<title>Bomana</title>
<ellipse fill="none" stroke="black" cx="234.24" cy="-486.01" rx="48.19" ry="18"/>
<text text-anchor="middle" x="234.24" y="-482.31" font-family="Times,serif" font-size="14.00">Bomana</text>
</g>
<!-- Bomana&#45;&#45;Danera -->
<g id="edge73" class="edge">
<title>Bomana&#45;&#45;Danera</title>
<path fill="none" stroke="black" d="M218.74,-468.71C214.52,-464.01 209.96,-458.93 205.77,-454.25"/>
</g>
<!-- Aurejet -->
<g id="Aurejet" class="node">
<title>Aurejet</title>
<ellipse fill="none" stroke="black" cx="352.22" cy="-498.54" rx="45" ry="18"/>
<text text-anchor="middle" x="352.22" y="-494.84" font-family="Times,serif" font-size="14.00">Aurejet</text>
</g>
<!-- Aurejet&#45;&#45;Rilera -->
<g id="edge74" class="edge">
<title>Aurejet&#45;&#45;Rilera</title>
<path fill="none" stroke="black" d="M341.3,-480.91C335.13,-470.97 327.47,-458.6 321.34,-448.71"/>
</g>
<!-- Aurejet&#45;&#45;Bomana -->
<g id="edge75" class="edge">
<title>Aurejet&#45;&#45;Bomana</title>
<path fill="none" stroke="black" d="M308.63,-493.91C299.57,-492.95 289.99,-491.93 280.83,-490.96"/>
</g>
<!-- Amafi -->
<g id="Amafi" class="node">
<title>Amafi</title>
<ellipse fill="none" stroke="black" cx="597.75" cy="-665.48" rx="37.09" ry="18"/>
<text text-anchor="middle" x="597.75" y="-661.78" font-family="Times,serif" font-size="14.00">Amafi</text>
</g>
<!-- Amafi&#45;&#45;Ham -->
<g id="edge76" class="edge">
<title>Amafi&#45;&#45;Ham</title>
<path fill="none" stroke="black" d="M634.46,-668.27C651.36,-669.56 671.23,-671.07 687.58,-672.32"/>
</g>
<!-- Hakana -->
<g id="Hakana" class="node">
<title>Hakana</title>
<ellipse fill="none" stroke="black" cx="465.15" cy="-643.56" rx="46.29" ry="18"/>
<text text-anchor="middle" x="465.15" y="-639.86" font-family="Times,serif" font-size="14.00">Hakana</text>
</g>
<!-- Amafi&#45;&#45;Hakana -->
<g id="edge77" class="edge">
<title>Amafi&#45;&#45;Hakana</title>
<path fill="none" stroke="black" d="M562.56,-659.66C545.84,-656.9 525.69,-653.57 508.07,-650.66"/>
</g>
<!-- Ashkoo -->
<g id="Ashkoo" class="node">
<title>Ashkoo</title>
<ellipse fill="none" stroke="black" cx="632.72" cy="-713.09" rx="44.39" ry="18"/>
<text text-anchor="middle" x="632.72" y="-709.39" font-family="Times,serif" font-size="14.00">Ashkoo</text>
</g>
<!-- Amafi&#45;&#45;Ashkoo -->
<g id="edge78" class="edge">
<title>Amafi&#45;&#45;Ashkoo</title>
<path fill="none" stroke="black" d="M610.37,-682.67C613.5,-686.93 616.86,-691.5 619.99,-695.77"/>
</g>
<!-- Nahrneder -->
<g id="Nahrneder" class="node">
<title>Nahrneder</title>
<ellipse fill="none" stroke="black" cx="489.6" cy="-689.32" rx="61.19" ry="18"/>
<text text-anchor="middle" x="489.6" y="-685.62" font-family="Times,serif" font-size="14.00">Nahrneder</text>
</g>
<!-- Amafi&#45;&#45;Nahrneder -->
<g id="edge79" class="edge">
<title>Amafi&#45;&#45;Nahrneder</title>
<path fill="none" stroke="black" d="M563.83,-672.96C555.9,-674.7 547.29,-676.6 538.85,-678.46"/>
</g>
<!-- Baratar -->
<g id="Baratar" class="node">
<title>Baratar</title>
<ellipse fill="none" stroke="black" cx="589.4" cy="-757.49" rx="46.29" ry="18"/>
<text text-anchor="middle" x="589.4" y="-753.79" font-family="Times,serif" font-size="14.00">Baratar</text>
</g>
<!-- Ashkoo&#45;&#45;Baratar -->
<g id="edge80" class="edge">
<title>Ashkoo&#45;&#45;Baratar</title>
<path fill="none" stroke="black" d="M616.34,-729.88C612.99,-733.32 609.45,-736.94 606.09,-740.39"/>
</g>
<!-- Abath -->
<g id="Abath" class="node">
<title>Abath</title>
<polygon fill="none" stroke="black" points="419.35,-727.94 360.35,-727.94 360.35,-691.94 419.35,-691.94 419.35,-727.94"/>
<text text-anchor="middle" x="389.85" y="-706.24" font-family="Times,serif" font-size="14.00">Abath</text>
</g>
<!-- Nahrneder&#45;&#45;Abath -->
<g id="edge81" class="edge">
<title>Nahrneder&#45;&#45;Abath</title>
<path fill="none" stroke="black" d="M439.43,-699.69C432.64,-701.09 425.85,-702.5 419.58,-703.79"/>
</g>
<!-- Nandeza -->
<g id="Nandeza" class="node">
<title>Nandeza</title>
<ellipse fill="none" stroke="black" cx="694.97" cy="-757.12" rx="51.5" ry="18"/>
<text text-anchor="middle" x="694.97" y="-753.42" font-family="Times,serif" font-size="14.00">Nandeza</text>
</g>
<!-- Baratar&#45;&#45;Nandeza -->
<g id="edge82" class="edge">
<title>Baratar&#45;&#45;Nandeza</title>
<path fill="none" stroke="black" d="M635.7,-757.33C638.25,-757.32 640.82,-757.31 643.38,-757.3"/>
</g>
<!-- Goudiyah -->
<g id="Goudiyah" class="node">
<title>Goudiyah</title>
<ellipse fill="none" stroke="black" cx="480.62" cy="-774.88" rx="54.69" ry="18"/>
<text text-anchor="middle" x="480.62" y="-771.18" font-family="Times,serif" font-size="14.00">Goudiyah</text>
</g>
<!-- Baratar&#45;&#45;Goudiyah -->
<g id="edge83" class="edge">
<title>Baratar&#45;&#45;Goudiyah</title>
<path fill="none" stroke="black" d="M546.41,-764.37C540.94,-765.24 535.32,-766.14 529.77,-767.03"/>
</g>
<!-- Sassecho -->
<g id="Sassecho" class="node">
<title>Sassecho</title>
<ellipse fill="none" stroke="black" cx="364.03" cy="-779.61" rx="54" ry="18"/>
<text text-anchor="middle" x="364.03" y="-775.91" font-family="Times,serif" font-size="14.00">Sassecho</text>
</g>
<!-- Goudiyah&#45;&#45;Sassecho -->
<g id="edge84" class="edge">
<title>Goudiyah&#45;&#45;Sassecho</title>
<path fill="none" stroke="black" d="M426.42,-777.08C423.57,-777.2 420.7,-777.31 417.85,-777.43"/>
</g>
<!-- Timudan -->
<g id="Timudan" class="node">
<title>Timudan</title>
<ellipse fill="none" stroke="black" cx="414.11" cy="-824.09" rx="51.5" ry="18"/>
<text text-anchor="middle" x="414.11" y="-820.39" font-family="Times,serif" font-size="14.00">Timudan</text>
</g>
<!-- Goudiyah&#45;&#45;Timudan -->
<g id="edge85" class="edge">
<title>Goudiyah&#45;&#45;Timudan</title>
<path fill="none" stroke="black" d="M458.11,-791.54C451.02,-796.78 443.21,-802.56 436.15,-807.78"/>
</g>
<!-- Sassecho&#45;&#45;Timudan -->
<g id="edge86" class="edge">
<title>Sassecho&#45;&#45;Timudan</title>
<path fill="none" stroke="black" d="M383.25,-796.68C387.11,-800.11 391.17,-803.71 395.03,-807.14"/>
</g>
<!-- Arzieh -->
<g id="Arzieh" class="node">
<title>Arzieh</title>
<ellipse fill="none" stroke="black" cx="368.87" cy="-658.37" rx="40.5" ry="18"/>
<text text-anchor="middle" x="368.87" y="-654.67" font-family="Times,serif" font-size="14.00">Arzieh</text>
</g>
<!-- Arzieh&#45;&#45;Hakana -->
<g id="edge87" class="edge">
<title>Arzieh&#45;&#45;Hakana</title>
<path fill="none" stroke="black" d="M407.2,-652.47C412.13,-651.72 417.2,-650.94 422.2,-650.17"/>
</g>
<!-- Dimoohan -->
<g id="Dimoohan" class="node">
<title>Dimoohan</title>
<ellipse fill="none" stroke="black" cx="647" cy="-801.61" rx="58" ry="18"/>
<text text-anchor="middle" x="647" y="-797.91" font-family="Times,serif" font-size="14.00">Dimoohan</text>
</g>
<!-- Dimoohan&#45;&#45;Nandeza -->
<g id="edge88" class="edge">
<title>Dimoohan&#45;&#45;Nandeza</title>
<path fill="none" stroke="black" d="M665.41,-784.54C669.11,-781.1 673,-777.5 676.69,-774.07"/>
</g>
<!-- Chitiamem -->
<g id="Chitiamem" class="node">
<title>Chitiamem</title>
<ellipse fill="none" stroke="black" cx="806.02" cy="-801.14" rx="61.99" ry="18"/>
<text text-anchor="middle" x="806.02" y="-797.44" font-family="Times,serif" font-size="14.00">Chitiamem</text>
</g>
<!-- Chitiamem&#45;&#45;Nandeza -->
<g id="edge89" class="edge">
<title>Chitiamem&#45;&#45;Nandeza</title>
<path fill="none" stroke="black" d="M769.35,-786.6C756.46,-781.49 742.04,-775.77 729.34,-770.74"/>
</g>
<!-- Kuhri -->
<g id="Kuhri" class="node">
<title>Kuhri</title>
<ellipse fill="none" stroke="black" cx="736.82" cy="-852.71" rx="36.5" ry="18"/>
<text text-anchor="middle" x="736.82" y="-849.01" font-family="Times,serif" font-size="14.00">Kuhri</text>
</g>
<!-- Chitiamem&#45;&#45;Kuhri -->
<g id="edge90" class="edge">
<title>Chitiamem&#45;&#45;Kuhri</title>
<path fill="none" stroke="black" d="M783.36,-818.02C774.85,-824.37 765.24,-831.54 756.97,-837.7"/>
</g>
<!-- Zahefeus -->
<g id="Zahefeus" class="node">
<title>Zahefeus</title>
<ellipse fill="none" stroke="black" cx="929.09" cy="-841.34" rx="53.5" ry="18"/>
<text text-anchor="middle" x="929.09" y="-837.64" font-family="Times,serif" font-size="14.00">Zahefeus</text>
</g>
<!-- Chitiamem&#45;&#45;Zahefeus -->
<g id="edge91" class="edge">
<title>Chitiamem&#45;&#45;Zahefeus</title>
<path fill="none" stroke="black" d="M847.34,-814.63C861.31,-819.2 876.84,-824.27 890.58,-828.76"/>
</g>
<!-- Zephan -->
<g id="Zephan" class="node">
<title>Zephan</title>
<ellipse fill="none" stroke="black" cx="961.46" cy="-885.36" rx="45.5" ry="18"/>
<text text-anchor="middle" x="961.46" y="-881.66" font-family="Times,serif" font-size="14.00">Zephan</text>
</g>
<!-- Zahefeus&#45;&#45;Zephan -->
<g id="edge92" class="edge">
<title>Zahefeus&#45;&#45;Zephan</title>
<path fill="none" stroke="black" d="M942.07,-858.99C944.25,-861.96 946.51,-865.03 948.69,-867.99"/>
</g>
<!-- Neda -->
<g id="Neda" class="node">
<title>Neda</title>
<ellipse fill="none" stroke="black" cx="871.73" cy="-927.46" rx="35.19" ry="18"/>
<text text-anchor="middle" x="871.73" y="-923.76" font-family="Times,serif" font-size="14.00">Neda</text>
</g>
<!-- Neda&#45;&#45;Zephan -->
<g id="edge93" class="edge">
<title>Neda&#45;&#45;Zephan</title>
<path fill="none" stroke="black" d="M897.68,-915.28C908.45,-910.23 920.99,-904.34 932.09,-899.14"/>
</g>
<!-- Ibani -->
<g id="Ibani" class="node">
<title>Ibani</title>
<ellipse fill="none" stroke="black" cx="278.52" cy="-823.64" rx="34.5" ry="18"/>
<text text-anchor="middle" x="278.52" y="-819.94" font-family="Times,serif" font-size="14.00">Ibani</text>
</g>
<!-- Ibani&#45;&#45;Timudan -->
<g id="edge94" class="edge">
<title>Ibani&#45;&#45;Timudan</title>
<path fill="none" stroke="black" d="M313.08,-823.75C328.15,-823.8 346.12,-823.86 362.7,-823.92"/>
</g>
<!-- Irmalin -->
<g id="Irmalin" class="node">
<title>Irmalin</title>
<ellipse fill="none" stroke="black" cx="312.36" cy="-868.36" rx="44.39" ry="18"/>
<text text-anchor="middle" x="312.36" y="-864.66" font-family="Times,serif" font-size="14.00">Irmalin</text>
</g>
<!-- Ibani&#45;&#45;Irmalin -->
<g id="edge95" class="edge">
<title>Ibani&#45;&#45;Irmalin</title>
<path fill="none" stroke="black" d="M291.31,-840.55C293.93,-844.01 296.69,-847.66 299.32,-851.13"/>
</g>
<!-- Irmalin&#45;&#45;Sassecho -->
<g id="edge96" class="edge">
<title>Irmalin&#45;&#45;Sassecho</title>
<path fill="none" stroke="black" d="M322.57,-850.83C331.57,-835.37 344.62,-812.95 353.67,-797.41"/>
</g>
<!-- Cabeki -->
<g id="Cabeki" class="node">
<title>Cabeki</title>
<ellipse fill="none" stroke="black" cx="409.98" cy="-894.74" rx="42.49" ry="18"/>
<text text-anchor="middle" x="409.98" y="-891.04" font-family="Times,serif" font-size="14.00">Cabeki</text>
</g>
<!-- Cabeki&#45;&#45;Timudan -->
<g id="edge97" class="edge">
<title>Cabeki&#45;&#45;Timudan</title>
<path fill="none" stroke="black" d="M411.05,-876.54C411.66,-866.08 412.42,-852.96 413.04,-842.47"/>
</g>
<!-- Nakis -->
<g id="Nakis" class="node">
<title>Nakis</title>
<ellipse fill="none" stroke="black" cx="1052" cy="-923.42" rx="37.09" ry="18"/>
<text text-anchor="middle" x="1052" y="-919.72" font-family="Times,serif" font-size="14.00">Nakis</text>
</g>
<!-- Nakis&#45;&#45;Zephan -->
<g id="edge98" class="edge">
<title>Nakis&#45;&#45;Zephan</title>
<path fill="none" stroke="black" d="M1023.9,-911.59C1014,-907.44 1002.9,-902.76 992.76,-898.51"/>
</g>
<!-- Zirsem -->
<g id="Zirsem" class="node">
<title>Zirsem</title>
<ellipse fill="none" stroke="black" cx="961.03" cy="-968.16" rx="43.59" ry="18"/>
<text text-anchor="middle" x="961.03" y="-964.46" font-family="Times,serif" font-size="14.00">Zirsem</text>
</g>
<!-- Nakis&#45;&#45;Zirsem -->
<g id="edge99" class="edge">
<title>Nakis&#45;&#45;Zirsem</title>
<path fill="none" stroke="black" d="M1025.7,-936.36C1014.3,-941.99 1000.8,-948.59 989.2,-954.31"/>
</g>
<!-- Pout -->
<g id="Pout" class="node">
<title>Pout</title>
<ellipse fill="none" stroke="black" cx="1116.1" cy="-967.45" rx="32" ry="18"/>
<text text-anchor="middle" x="1116.1" y="-963.75" font-family="Times,serif" font-size="14.00">Pout</text>
</g>
<!-- Nakis&#45;&#45;Pout -->
<g id="edge100" class="edge">
<title>Nakis&#45;&#45;Pout</title>
<path fill="none" stroke="black" d="M1073.7,-938.33C1080.8,-943.22 1088.7,-948.63 1095.7,-953.45"/>
</g>
<!-- Rafeme -->
<g id="Rafeme" class="node">
<title>Rafeme</title>
<ellipse fill="none" stroke="black" cx="1059.8" cy="-1011.5" rx="46.29" ry="18"/>
<text text-anchor="middle" x="1059.8" y="-1007.8" font-family="Times,serif" font-size="14.00">Rafeme</text>
</g>
<!-- Pout&#45;&#45;Rafeme -->
<g id="edge101" class="edge">
<title>Pout&#45;&#45;Rafeme</title>
<path fill="none" stroke="black" d="M1097.3,-982.11C1091.9,-986.31 1086.1,-990.92 1080.6,-995.21"/>
</g>
<!-- Anath -->
<g id="Anath" class="node">
<title>Anath</title>
<polygon fill="none" stroke="black" points="1105,-1073.5 1046,-1073.5 1046,-1037.5 1105,-1037.5 1105,-1073.5"/>
<text text-anchor="middle" x="1075.5" y="-1051.8" font-family="Times,serif" font-size="14.00">Anath</text>
</g>
<!-- Rafeme&#45;&#45;Anath -->
<g id="edge102" class="edge">
<title>Rafeme&#45;&#45;Anath</title>
<path fill="none" stroke="black" d="M1066.2,-1029.4C1067.1,-1032 1068.1,-1034.8 1069,-1037.5"/>
</g>
<!-- Hezere -->
<g id="Hezere" class="node">
<title>Hezere</title>
<ellipse fill="none" stroke="black" cx="1149.7" cy="-881.02" rx="44.39" ry="18"/>
<text text-anchor="middle" x="1149.7" y="-877.32" font-family="Times,serif" font-size="14.00">Hezere</text>
</g>
<!-- Hezere&#45;&#45;Nakis -->
<g id="edge103" class="edge">
<title>Hezere&#45;&#45;Nakis</title>
<path fill="none" stroke="black" d="M1119.3,-894.21C1106.7,-899.7 1092.1,-906.04 1079.7,-911.4"/>
</g>
<!-- Fanathor -->
<g id="Fanathor" class="node">
<title>Fanathor</title>
<ellipse fill="none" stroke="black" cx="1208.6" cy="-933.01" rx="52.79" ry="18"/>
<text text-anchor="middle" x="1208.6" y="-929.31" font-family="Times,serif" font-size="14.00">Fanathor</text>
</g>
<!-- Fanathor&#45;&#45;Pout -->
<g id="edge104" class="edge">
<title>Fanathor&#45;&#45;Pout</title>
<path fill="none" stroke="black" d="M1172.8,-946.33C1162.9,-950.04 1152.2,-954 1142.8,-957.48"/>
</g>
<!-- Fanathor&#45;&#45;Hezere -->
<g id="edge105" class="edge">
<title>Fanathor&#45;&#45;Hezere</title>
<path fill="none" stroke="black" d="M1189.3,-915.99C1182.6,-910.06 1175.1,-903.43 1168.4,-897.55"/>
</g>
</g>
</svg>
