<?xml version="1.0" encoding="UTF-8" standalone="no"?>
<!DOCTYPE svg PUBLIC "-//W3C//DTD SVG 1.1//EN"
 "http://www.w3.org/Graphics/SVG/1.1/DTD/svg11.dtd">
<!-- Generated by graphviz version 2.43.0 (0)
 -->
<!-- Pages: 1 -->
<svg width="1746pt" height="796pt"
 viewBox="0.00 0.00 1746.10 795.84" xmlns="http://www.w3.org/2000/svg" xmlns:xlink="http://www.w3.org/1999/xlink">
<g id="graph0" class="graph" transform="scale(1 1) rotate(0) translate(4 791.84)">
<polygon fill="white" stroke="transparent" points="-4,4 -4,-791.84 1742.1,-791.84 1742.1,4 -4,4"/>
<!-- RQH&#45;MY -->
<g id="RQH&#45;MY" class="node">
<title>RQH&#45;MY</title>
<polygon fill="none" stroke="black" points="1738.1,-500.25 1660.1,-500.25 1660.1,-464.25 1738.1,-464.25 1738.1,-500.25"/>
<text text-anchor="middle" x="1699.1" y="-478.55" font-family="Times,serif" font-size="14.00">RQH&#45;MY</text>
</g>
<!-- MHC&#45;R3 -->
<g id="MHC&#45;R3" class="node">
<title>MHC&#45;R3</title>
<polygon fill="none" stroke="black" points="708.73,-434.58 631.73,-434.58 631.73,-398.58 708.73,-398.58 708.73,-434.58"/>
<text text-anchor="middle" x="670.23" y="-412.88" font-family="Times,serif" font-size="14.00">MHC&#45;R3</text>
</g>
<!-- PF&#45;346 -->
<g id="PF&#45;346" class="node">
<title>PF&#45;346</title>
<polygon fill="none" stroke="black" points="994.39,-684.11 927.39,-684.11 927.39,-648.11 994.39,-648.11 994.39,-684.11"/>
<text text-anchor="middle" x="960.89" y="-662.41" font-family="Times,serif" font-size="14.00">PF&#45;346</text>
</g>
<!-- TXW&#45;EI -->
<g id="TXW&#45;EI" class="node">
<title>TXW&#45;EI</title>
<polygon fill="none" stroke="black" points="366.91,-305.46 297.91,-305.46 297.91,-269.46 366.91,-269.46 366.91,-305.46"/>
<text text-anchor="middle" x="332.41" y="-283.76" font-family="Times,serif" font-size="14.00">TXW&#45;EI</text>
</g>
<!-- Eggheron -->
<g id="Eggheron" class="node">
<title>Eggheron</title>
<polygon fill="none" stroke="black" points="86,-434.43 0,-434.43 0,-398.43 86,-398.43 86,-434.43"/>
<text text-anchor="middle" x="43" y="-412.73" font-family="Times,serif" font-size="14.00">Eggheron</text>
</g>
<!-- Agoze -->
<g id="Agoze" class="node">
<title>Agoze</title>
<ellipse fill="none" stroke="black" cx="937.1" cy="-313.07" rx="38.5" ry="18"/>
<text text-anchor="middle" x="937.1" y="-309.37" font-family="Times,serif" font-size="14.00">Agoze</text>
</g>
<!-- Intaki -->
<g id="Intaki" class="node">
<title>Intaki</title>
<ellipse fill="none" stroke="black" cx="1041" cy="-308.13" rx="37.89" ry="18"/>
<text text-anchor="middle" x="1041" y="-304.43" font-family="Times,serif" font-size="14.00">Intaki</text>
</g>
<!-- Agoze&#45;&#45;Intaki -->
<g id="edge1" class="edge">
<title>Agoze&#45;&#45;Intaki</title>
<path fill="none" stroke="black" d="M975.49,-311.24C984.63,-310.81 994.36,-310.35 1003.5,-309.91"/>
</g>
<!-- Vey -->
<g id="Vey" class="node">
<title>Vey</title>
<ellipse fill="none" stroke="black" cx="971.37" cy="-358.6" rx="27.5" ry="18"/>
<text text-anchor="middle" x="971.37" y="-354.9" font-family="Times,serif" font-size="14.00">Vey</text>
</g>
<!-- Agoze&#45;&#45;Vey -->
<g id="edge2" class="edge">
<title>Agoze&#45;&#45;Vey</title>
<path fill="none" stroke="black" d="M950.06,-330.28C953.01,-334.21 956.15,-338.37 959.07,-342.27"/>
</g>
<!-- Annancale -->
<g id="Annancale" class="node">
<title>Annancale</title>
<ellipse fill="none" stroke="black" cx="1079" cy="-245.31" rx="58.5" ry="18"/>
<text text-anchor="middle" x="1079" y="-241.61" font-family="Times,serif" font-size="14.00">Annancale</text>
</g>
<!-- Agoze&#45;&#45;Annancale -->
<g id="edge3" class="edge">
<title>Agoze&#45;&#45;Annancale</title>
<path fill="none" stroke="black" d="M968.76,-302.52C982.9,-297.45 999.62,-290.95 1014.2,-283.93 1027.8,-277.39 1042.2,-268.93 1054,-261.6"/>
</g>
<!-- Ostingele -->
<g id="Ostingele" class="node">
<title>Ostingele</title>
<ellipse fill="none" stroke="black" cx="834.79" cy="-328.51" rx="55.49" ry="18"/>
<text text-anchor="middle" x="834.79" y="-324.81" font-family="Times,serif" font-size="14.00">Ostingele</text>
</g>
<!-- Agoze&#45;&#45;Ostingele -->
<g id="edge4" class="edge">
<title>Agoze&#45;&#45;Ostingele</title>
<path fill="none" stroke="black" d="M900.46,-318.6C895.41,-319.36 890.16,-320.15 884.92,-320.94"/>
</g>
<!-- Loes -->
<g id="Loes" class="node">
<title>Loes</title>
<polygon fill="none" stroke="black" points="1010.99,-280.73 956.99,-280.73 956.99,-244.73 1010.99,-244.73 1010.99,-280.73"/>
<text text-anchor="middle" x="983.99" y="-259.03" font-family="Times,serif" font-size="14.00">Loes</text>
</g>
<!-- Agoze&#45;&#45;Loes -->
<g id="edge5" class="edge">
<title>Agoze&#45;&#45;Loes</title>
<path fill="none" stroke="black" d="M952.71,-296.3C957.3,-291.39 962.33,-285.98 966.99,-280.98"/>
</g>
<!-- Intaki&#45;&#45;Vey -->
<g id="edge6" class="edge">
<title>Intaki&#45;&#45;Vey</title>
<path fill="none" stroke="black" d="M1020.1,-323.27C1010.5,-330.24 999.18,-338.44 989.88,-345.18"/>
</g>
<!-- Amygnon -->
<g id="Amygnon" class="node">
<title>Amygnon</title>
<polygon fill="none" stroke="black" points="1246.9,-244.29 1163.9,-244.29 1163.9,-208.29 1246.9,-208.29 1246.9,-244.29"/>
<text text-anchor="middle" x="1205.4" y="-222.59" font-family="Times,serif" font-size="14.00">Amygnon</text>
</g>
<!-- Intaki&#45;&#45;Amygnon -->
<g id="edge7" class="edge">
<title>Intaki&#45;&#45;Amygnon</title>
<path fill="none" stroke="black" d="M1067.4,-294.98C1094.9,-281.29 1138.2,-259.75 1169,-244.44"/>
</g>
<!-- Brarel -->
<g id="Brarel" class="node">
<title>Brarel</title>
<ellipse fill="none" stroke="black" cx="1186.2" cy="-270.42" rx="40.5" ry="18"/>
<text text-anchor="middle" x="1186.2" y="-266.72" font-family="Times,serif" font-size="14.00">Brarel</text>
</g>
<!-- Annancale&#45;&#45;Brarel -->
<g id="edge8" class="edge">
<title>Annancale&#45;&#45;Brarel</title>
<path fill="none" stroke="black" d="M1125.7,-256.25C1134,-258.18 1142.4,-260.16 1150.3,-262.01"/>
</g>
<!-- Stacmon -->
<g id="Stacmon" class="node">
<title>Stacmon</title>
<ellipse fill="none" stroke="black" cx="897.36" cy="-240.49" rx="51.5" ry="18"/>
<text text-anchor="middle" x="897.36" y="-236.79" font-family="Times,serif" font-size="14.00">Stacmon</text>
</g>
<!-- Ostingele&#45;&#45;Stacmon -->
<g id="edge9" class="edge">
<title>Ostingele&#45;&#45;Stacmon</title>
<path fill="none" stroke="black" d="M858.08,-311.77C867.06,-304.3 876.75,-294.85 883.39,-284.51 888.42,-276.68 891.76,-266.91 893.91,-258.57"/>
</g>
<!-- Pelille -->
<g id="Pelille" class="node">
<title>Pelille</title>
<ellipse fill="none" stroke="black" cx="802.9" cy="-416.58" rx="39" ry="18"/>
<text text-anchor="middle" x="802.9" y="-412.88" font-family="Times,serif" font-size="14.00">Pelille</text>
</g>
<!-- Ostingele&#45;&#45;Pelille -->
<g id="edge10" class="edge">
<title>Ostingele&#45;&#45;Pelille</title>
<path fill="none" stroke="black" d="M828.18,-346.76C822.67,-361.98 814.86,-383.54 809.39,-398.66"/>
</g>
<!-- Brarel&#45;&#45;Intaki -->
<g id="edge11" class="edge">
<title>Brarel&#45;&#45;Intaki</title>
<path fill="none" stroke="black" d="M1151.1,-279.55C1127.7,-285.61 1097.3,-293.51 1074.3,-299.47"/>
</g>
<!-- Aidart -->
<g id="Aidart" class="node">
<title>Aidart</title>
<polygon fill="none" stroke="black" points="1052.2,-210.21 991.2,-210.21 991.2,-174.21 1052.2,-174.21 1052.2,-210.21"/>
<text text-anchor="middle" x="1021.7" y="-188.51" font-family="Times,serif" font-size="14.00">Aidart</text>
</g>
<!-- Stacmon&#45;&#45;Aidart -->
<g id="edge12" class="edge">
<title>Stacmon&#45;&#45;Aidart</title>
<path fill="none" stroke="black" d="M931.98,-227.04C950.51,-219.84 973.14,-211.05 991.03,-204.1"/>
</g>
<!-- Harroule -->
<g id="Harroule" class="node">
<title>Harroule</title>
<ellipse fill="none" stroke="black" cx="764.16" cy="-372.54" rx="52" ry="18"/>
<text text-anchor="middle" x="764.16" y="-368.84" font-family="Times,serif" font-size="14.00">Harroule</text>
</g>
<!-- Harroule&#45;&#45;MHC&#45;R3 -->
<g id="edge13" class="edge">
<title>Harroule&#45;&#45;MHC&#45;R3</title>
<path fill="none" stroke="black" d="M733.14,-387.08C725.34,-390.74 716.87,-394.71 708.75,-398.52"/>
</g>
<!-- Harroule&#45;&#45;Ostingele -->
<g id="edge14" class="edge">
<title>Harroule&#45;&#45;Ostingele</title>
<path fill="none" stroke="black" d="M789.66,-356.64C795.98,-352.7 802.76,-348.48 809.09,-344.53"/>
</g>
<!-- Covryn -->
<g id="Covryn" class="node">
<title>Covryn</title>
<ellipse fill="none" stroke="black" cx="753.63" cy="-240.45" rx="44.39" ry="18"/>
<text text-anchor="middle" x="753.63" y="-236.75" font-family="Times,serif" font-size="14.00">Covryn</text>
</g>
<!-- Covryn&#45;&#45;Stacmon -->
<g id="edge15" class="edge">
<title>Covryn&#45;&#45;Stacmon</title>
<path fill="none" stroke="black" d="M797.93,-240.46C813.1,-240.47 830.21,-240.47 845.91,-240.48"/>
</g>
<!-- Iges -->
<g id="Iges" class="node">
<title>Iges</title>
<ellipse fill="none" stroke="black" cx="819.71" cy="-191.75" rx="30.59" ry="18"/>
<text text-anchor="middle" x="819.71" y="-188.05" font-family="Times,serif" font-size="14.00">Iges</text>
</g>
<!-- Covryn&#45;&#45;Iges -->
<g id="edge16" class="edge">
<title>Covryn&#45;&#45;Iges</title>
<path fill="none" stroke="black" d="M775.27,-224.5C783.4,-218.51 792.58,-211.74 800.48,-205.92"/>
</g>
<!-- Cumemare -->
<g id="Cumemare" class="node">
<title>Cumemare</title>
<ellipse fill="none" stroke="black" cx="639.6" cy="-257.84" rx="61.99" ry="18"/>
<text text-anchor="middle" x="639.6" y="-254.14" font-family="Times,serif" font-size="14.00">Cumemare</text>
</g>
<!-- Covryn&#45;&#45;Cumemare -->
<g id="edge17" class="edge">
<title>Covryn&#45;&#45;Cumemare</title>
<path fill="none" stroke="black" d="M712.14,-246.78C706.41,-247.65 700.45,-248.56 694.52,-249.47"/>
</g>
<!-- Slays -->
<g id="Slays" class="node">
<title>Slays</title>
<ellipse fill="none" stroke="black" cx="898.61" cy="-152.48" rx="36" ry="18"/>
<text text-anchor="middle" x="898.61" y="-148.78" font-family="Times,serif" font-size="14.00">Slays</text>
</g>
<!-- Iges&#45;&#45;Slays -->
<g id="edge18" class="edge">
<title>Iges&#45;&#45;Slays</title>
<path fill="none" stroke="black" d="M843.38,-179.96C852.73,-175.31 863.5,-169.95 873.03,-165.21"/>
</g>
<!-- Uphallant -->
<g id="Uphallant" class="node">
<title>Uphallant</title>
<ellipse fill="none" stroke="black" cx="917" cy="-196.48" rx="56.59" ry="18"/>
<text text-anchor="middle" x="917" y="-192.78" font-family="Times,serif" font-size="14.00">Uphallant</text>
</g>
<!-- Iges&#45;&#45;Uphallant -->
<g id="edge19" class="edge">
<title>Iges&#45;&#45;Uphallant</title>
<path fill="none" stroke="black" d="M850.23,-193.23C853.68,-193.4 857.28,-193.57 860.93,-193.75"/>
</g>
<!-- Slays&#45;&#45;Stacmon -->
<g id="edge20" class="edge">
<title>Slays&#45;&#45;Stacmon</title>
<path fill="none" stroke="black" d="M876.05,-166.77C867.15,-174.26 858.98,-184.37 858.86,-196.29 858.75,-207.28 865.58,-216.86 873.52,-224.27"/>
</g>
<!-- Dastryns -->
<g id="Dastryns" class="node">
<title>Dastryns</title>
<ellipse fill="none" stroke="black" cx="829.15" cy="-284.5" rx="52.79" ry="18"/>
<text text-anchor="middle" x="829.15" y="-280.8" font-family="Times,serif" font-size="14.00">Dastryns</text>
</g>
<!-- Dastryns&#45;&#45;Ostingele -->
<g id="edge21" class="edge">
<title>Dastryns&#45;&#45;Ostingele</title>
<path fill="none" stroke="black" d="M831.47,-302.65C831.8,-305.21 832.14,-307.84 832.47,-310.4"/>
</g>
<!-- Dastryns&#45;&#45;Stacmon -->
<g id="edge22" class="edge">
<title>Dastryns&#45;&#45;Stacmon</title>
<path fill="none" stroke="black" d="M854.16,-268.36C860.24,-264.44 866.74,-260.24 872.8,-256.33"/>
</g>
<!-- Dastryns&#45;&#45;Iges -->
<g id="edge23" class="edge">
<title>Dastryns&#45;&#45;Iges</title>
<path fill="none" stroke="black" d="M827.28,-266.17C825.62,-249.81 823.19,-225.97 821.54,-209.72"/>
</g>
<!-- Dastryns&#45;&#45;Uphallant -->
<g id="edge24" class="edge">
<title>Dastryns&#45;&#45;Uphallant</title>
<path fill="none" stroke="black" d="M833.17,-266.38C835.57,-258.02 839.19,-248.24 844.41,-240.44 853.17,-227.33 867.29,-217.5 880.76,-210.5"/>
</g>
<!-- Alperaute -->
<g id="Alperaute" class="node">
<title>Alperaute</title>
<ellipse fill="none" stroke="black" cx="712.3" cy="-328.06" rx="56" ry="18"/>
<text text-anchor="middle" x="712.3" y="-324.36" font-family="Times,serif" font-size="14.00">Alperaute</text>
</g>
<!-- Alperaute&#45;&#45;Ostingele -->
<g id="edge25" class="edge">
<title>Alperaute&#45;&#45;Ostingele</title>
<path fill="none" stroke="black" d="M768.53,-328.27C772.17,-328.28 775.85,-328.29 779.49,-328.31"/>
</g>
<!-- Aunsou -->
<g id="Aunsou" class="node">
<title>Aunsou</title>
<ellipse fill="none" stroke="black" cx="603.48" cy="-352.05" rx="45" ry="18"/>
<text text-anchor="middle" x="603.48" y="-348.35" font-family="Times,serif" font-size="14.00">Aunsou</text>
</g>
<!-- Alperaute&#45;&#45;Aunsou -->
<g id="edge26" class="edge">
<title>Alperaute&#45;&#45;Aunsou</title>
<path fill="none" stroke="black" d="M666.15,-338.24C658.39,-339.95 650.4,-341.71 642.83,-343.38"/>
</g>
<!-- Aunsou&#45;&#45;Cumemare -->
<g id="edge27" class="edge">
<title>Aunsou&#45;&#45;Cumemare</title>
<path fill="none" stroke="black" d="M610.45,-333.89C616.84,-317.21 626.27,-292.62 632.66,-275.95"/>
</g>
<!-- Reynire -->
<g id="Reynire" class="node">
<title>Reynire</title>
<ellipse fill="none" stroke="black" cx="542.16" cy="-307.98" rx="47" ry="18"/>
<text text-anchor="middle" x="542.16" y="-304.28" font-family="Times,serif" font-size="14.00">Reynire</text>
</g>
<!-- Aunsou&#45;&#45;Reynire -->
<g id="edge28" class="edge">
<title>Aunsou&#45;&#45;Reynire</title>
<path fill="none" stroke="black" d="M581.34,-336.14C575.85,-332.2 569.97,-327.97 564.47,-324.02"/>
</g>
<!-- Gare -->
<g id="Gare" class="node">
<title>Gare</title>
<ellipse fill="none" stroke="black" cx="531.24" cy="-396.28" rx="33.29" ry="18"/>
<text text-anchor="middle" x="531.24" y="-392.58" font-family="Times,serif" font-size="14.00">Gare</text>
</g>
<!-- Aunsou&#45;&#45;Gare -->
<g id="edge29" class="edge">
<title>Aunsou&#45;&#45;Gare</title>
<path fill="none" stroke="black" d="M578.62,-367.28C570.46,-372.27 561.44,-377.79 553.48,-382.66"/>
</g>
<!-- Pain -->
<g id="Pain" class="node">
<title>Pain</title>
<ellipse fill="none" stroke="black" cx="516.98" cy="-240.57" rx="30.59" ry="18"/>
<text text-anchor="middle" x="516.98" y="-236.87" font-family="Times,serif" font-size="14.00">Pain</text>
</g>
<!-- Pain&#45;&#45;Reynire -->
<g id="edge30" class="edge">
<title>Pain&#45;&#45;Reynire</title>
<path fill="none" stroke="black" d="M523.6,-258.28C527.27,-268.11 531.82,-280.31 535.5,-290.15"/>
</g>
<!-- Dour -->
<g id="Dour" class="node">
<title>Dour</title>
<ellipse fill="none" stroke="black" cx="816.69" cy="-460.61" rx="34" ry="18"/>
<text text-anchor="middle" x="816.69" y="-456.91" font-family="Times,serif" font-size="14.00">Dour</text>
</g>
<!-- Dour&#45;&#45;Pelille -->
<g id="edge31" class="edge">
<title>Dour&#45;&#45;Pelille</title>
<path fill="none" stroke="black" d="M811.08,-442.7C810.24,-440.04 809.38,-437.29 808.55,-434.62"/>
</g>
<!-- Vivanier -->
<g id="Vivanier" class="node">
<title>Vivanier</title>
<ellipse fill="none" stroke="black" cx="802.29" cy="-504.64" rx="49.5" ry="18"/>
<text text-anchor="middle" x="802.29" y="-500.94" font-family="Times,serif" font-size="14.00">Vivanier</text>
</g>
<!-- Dour&#45;&#45;Vivanier -->
<g id="edge32" class="edge">
<title>Dour&#45;&#45;Vivanier</title>
<path fill="none" stroke="black" d="M810.83,-478.52C809.96,-481.19 809.06,-483.94 808.19,-486.6"/>
</g>
<!-- Grispire -->
<g id="Grispire" class="node">
<title>Grispire</title>
<ellipse fill="none" stroke="black" cx="715.23" cy="-460.6" rx="48.99" ry="18"/>
<text text-anchor="middle" x="715.23" y="-456.9" font-family="Times,serif" font-size="14.00">Grispire</text>
</g>
<!-- Grispire&#45;&#45;Pelille -->
<g id="edge33" class="edge">
<title>Grispire&#45;&#45;Pelille</title>
<path fill="none" stroke="black" d="M744.42,-445.94C754.78,-440.74 766.38,-434.92 776.49,-429.84"/>
</g>
<!-- Brellystier -->
<g id="Brellystier" class="node">
<title>Brellystier</title>
<ellipse fill="none" stroke="black" cx="685.06" cy="-509.35" rx="60" ry="18"/>
<text text-anchor="middle" x="685.06" y="-505.65" font-family="Times,serif" font-size="14.00">Brellystier</text>
</g>
<!-- Brellystier&#45;&#45;Vivanier -->
<g id="edge34" class="edge">
<title>Brellystier&#45;&#45;Vivanier</title>
<path fill="none" stroke="black" d="M744.36,-506.97C747.32,-506.85 750.27,-506.73 753.19,-506.61"/>
</g>
<!-- Brellystier&#45;&#45;Grispire -->
<g id="edge35" class="edge">
<title>Brellystier&#45;&#45;Grispire</title>
<path fill="none" stroke="black" d="M696.12,-491.47C698.81,-487.13 701.69,-482.48 704.37,-478.15"/>
</g>
<!-- Algasienan -->
<g id="Algasienan" class="node">
<title>Algasienan</title>
<ellipse fill="none" stroke="black" cx="831.13" cy="-548.65" rx="61.99" ry="18"/>
<text text-anchor="middle" x="831.13" y="-544.95" font-family="Times,serif" font-size="14.00">Algasienan</text>
</g>
<!-- Algasienan&#45;&#45;Vivanier -->
<g id="edge36" class="edge">
<title>Algasienan&#45;&#45;Vivanier</title>
<path fill="none" stroke="black" d="M819.4,-530.75C817.59,-527.99 815.73,-525.14 813.92,-522.38"/>
</g>
<!-- Osmallanais -->
<g id="Osmallanais" class="node">
<title>Osmallanais</title>
<ellipse fill="none" stroke="black" cx="755.64" cy="-592.68" rx="67.69" ry="18"/>
<text text-anchor="middle" x="755.64" y="-588.98" font-family="Times,serif" font-size="14.00">Osmallanais</text>
</g>
<!-- Algasienan&#45;&#45;Osmallanais -->
<g id="edge37" class="edge">
<title>Algasienan&#45;&#45;Osmallanais</title>
<path fill="none" stroke="black" d="M803.45,-564.8C797.05,-568.53 790.24,-572.5 783.82,-576.24"/>
</g>
<!-- Archavoinet -->
<g id="Archavoinet" class="node">
<title>Archavoinet</title>
<ellipse fill="none" stroke="black" cx="926.1" cy="-501.3" rx="66.5" ry="18"/>
<text text-anchor="middle" x="926.1" y="-497.6" font-family="Times,serif" font-size="14.00">Archavoinet</text>
</g>
<!-- Algasienan&#45;&#45;Archavoinet -->
<g id="edge38" class="edge">
<title>Algasienan&#45;&#45;Archavoinet</title>
<path fill="none" stroke="black" d="M862.49,-533.02C872.65,-527.95 883.92,-522.33 894.13,-517.25"/>
</g>
<!-- Eugales -->
<g id="Eugales" class="node">
<title>Eugales</title>
<ellipse fill="none" stroke="black" cx="1014.8" cy="-454.29" rx="48.19" ry="18"/>
<text text-anchor="middle" x="1014.8" y="-450.59" font-family="Times,serif" font-size="14.00">Eugales</text>
</g>
<!-- Archavoinet&#45;&#45;Eugales -->
<g id="edge39" class="edge">
<title>Archavoinet&#45;&#45;Eugales</title>
<path fill="none" stroke="black" d="M956.63,-485.12C966.45,-479.92 977.27,-474.18 986.9,-469.08"/>
</g>
<!-- Aubenall -->
<g id="Aubenall" class="node">
<title>Aubenall</title>
<ellipse fill="none" stroke="black" cx="1051.8" cy="-498.71" rx="51.5" ry="18"/>
<text text-anchor="middle" x="1051.8" y="-495.01" font-family="Times,serif" font-size="14.00">Aubenall</text>
</g>
<!-- Archavoinet&#45;&#45;Aubenall -->
<g id="edge40" class="edge">
<title>Archavoinet&#45;&#45;Aubenall</title>
<path fill="none" stroke="black" d="M992.25,-499.94C994.97,-499.88 997.68,-499.83 1000.4,-499.77"/>
</g>
<!-- Frarie -->
<g id="Frarie" class="node">
<title>Frarie</title>
<ellipse fill="none" stroke="black" cx="967.29" cy="-403.91" rx="39.79" ry="18"/>
<text text-anchor="middle" x="967.29" y="-400.21" font-family="Times,serif" font-size="14.00">Frarie</text>
</g>
<!-- Eugales&#45;&#45;Frarie -->
<g id="edge41" class="edge">
<title>Eugales&#45;&#45;Frarie</title>
<path fill="none" stroke="black" d="M998.71,-437.23C993.65,-431.87 988.07,-425.95 983.03,-420.61"/>
</g>
<!-- Moclinamaud -->
<g id="Moclinamaud" class="node">
<title>Moclinamaud</title>
<ellipse fill="none" stroke="black" cx="1089.1" cy="-409.75" rx="73.5" ry="18"/>
<text text-anchor="middle" x="1089.1" y="-406.05" font-family="Times,serif" font-size="14.00">Moclinamaud</text>
</g>
<!-- Eugales&#45;&#45;Moclinamaud -->
<g id="edge42" class="edge">
<title>Eugales&#45;&#45;Moclinamaud</title>
<path fill="none" stroke="black" d="M1040.4,-438.96C1047.1,-434.94 1054.3,-430.57 1061.2,-426.48"/>
</g>
<!-- Aubenall&#45;&#45;Eugales -->
<g id="edge43" class="edge">
<title>Aubenall&#45;&#45;Eugales</title>
<path fill="none" stroke="black" d="M1037.4,-481.41C1034.7,-478.19 1031.9,-474.83 1029.2,-471.62"/>
</g>
<!-- Renarelle -->
<g id="Renarelle" class="node">
<title>Renarelle</title>
<ellipse fill="none" stroke="black" cx="1149.1" cy="-453.8" rx="55.49" ry="18"/>
<text text-anchor="middle" x="1149.1" y="-450.1" font-family="Times,serif" font-size="14.00">Renarelle</text>
</g>
<!-- Aubenall&#45;&#45;Renarelle -->
<g id="edge44" class="edge">
<title>Aubenall&#45;&#45;Renarelle</title>
<path fill="none" stroke="black" d="M1082.8,-484.38C1093.7,-479.34 1106,-473.68 1117,-468.61"/>
</g>
<!-- Oulley -->
<g id="Oulley" class="node">
<title>Oulley</title>
<ellipse fill="none" stroke="black" cx="1010.7" cy="-545.32" rx="40.5" ry="18"/>
<text text-anchor="middle" x="1010.7" y="-541.62" font-family="Times,serif" font-size="14.00">Oulley</text>
</g>
<!-- Aubenall&#45;&#45;Oulley -->
<g id="edge45" class="edge">
<title>Aubenall&#45;&#45;Oulley</title>
<path fill="none" stroke="black" d="M1036.5,-516.06C1032.9,-520.1 1029.1,-524.39 1025.6,-528.41"/>
</g>
<!-- Frarie&#45;&#45;Vey -->
<g id="edge61" class="edge">
<title>Frarie&#45;&#45;Vey</title>
<path fill="none" stroke="black" d="M968.92,-385.74C969.19,-382.79 969.46,-379.73 969.73,-376.77"/>
</g>
<!-- Frarie&#45;&#45;Moclinamaud -->
<g id="edge62" class="edge">
<title>Frarie&#45;&#45;Moclinamaud</title>
<path fill="none" stroke="black" d="M1006.8,-405.81C1010,-405.96 1013.3,-406.12 1016.6,-406.28"/>
</g>
<!-- Moclinamaud&#45;&#45;Renarelle -->
<g id="edge63" class="edge">
<title>Moclinamaud&#45;&#45;Renarelle</title>
<path fill="none" stroke="black" d="M1112.4,-426.91C1117.1,-430.29 1121.9,-433.83 1126.5,-437.2"/>
</g>
<!-- Vlillirier -->
<g id="Vlillirier" class="node">
<title>Vlillirier</title>
<ellipse fill="none" stroke="black" cx="1219.3" cy="-377.04" rx="48.99" ry="18"/>
<text text-anchor="middle" x="1219.3" y="-373.34" font-family="Times,serif" font-size="14.00">Vlillirier</text>
</g>
<!-- Renarelle&#45;&#45;Vlillirier -->
<g id="edge64" class="edge">
<title>Renarelle&#45;&#45;Vlillirier</title>
<path fill="none" stroke="black" d="M1165,-436.38C1176.6,-423.73 1192.2,-406.69 1203.7,-394.12"/>
</g>
<!-- Ivorider -->
<g id="Ivorider" class="node">
<title>Ivorider</title>
<ellipse fill="none" stroke="black" cx="748.57" cy="-646.82" rx="48.19" ry="18"/>
<text text-anchor="middle" x="748.57" y="-643.12" font-family="Times,serif" font-size="14.00">Ivorider</text>
</g>
<!-- Ivorider&#45;&#45;Osmallanais -->
<g id="edge46" class="edge">
<title>Ivorider&#45;&#45;Osmallanais</title>
<path fill="none" stroke="black" d="M750.92,-628.79C751.68,-623.01 752.51,-616.6 753.27,-610.81"/>
</g>
<!-- Mollin -->
<g id="Mollin" class="node">
<title>Mollin</title>
<ellipse fill="none" stroke="black" cx="689.33" cy="-693.06" rx="40.5" ry="18"/>
<text text-anchor="middle" x="689.33" y="-689.36" font-family="Times,serif" font-size="14.00">Mollin</text>
</g>
<!-- Ivorider&#45;&#45;Mollin -->
<g id="edge47" class="edge">
<title>Ivorider&#45;&#45;Mollin</title>
<path fill="none" stroke="black" d="M727.51,-663.25C721.66,-667.82 715.32,-672.77 709.52,-677.3"/>
</g>
<!-- Iffrue -->
<g id="Iffrue" class="node">
<title>Iffrue</title>
<ellipse fill="none" stroke="black" cx="650.95" cy="-636.69" rx="36.5" ry="18"/>
<text text-anchor="middle" x="650.95" y="-632.99" font-family="Times,serif" font-size="14.00">Iffrue</text>
</g>
<!-- Iffrue&#45;&#45;Osmallanais -->
<g id="edge48" class="edge">
<title>Iffrue&#45;&#45;Osmallanais</title>
<path fill="none" stroke="black" d="M678.73,-625.01C691.21,-619.76 706.09,-613.51 719.43,-607.9"/>
</g>
<!-- Iffrue&#45;&#45;Ivorider -->
<g id="edge49" class="edge">
<title>Iffrue&#45;&#45;Ivorider</title>
<path fill="none" stroke="black" d="M686.74,-640.4C691.75,-640.92 696.95,-641.46 702.12,-642"/>
</g>
<!-- Iffrue&#45;&#45;Mollin -->
<g id="edge50" class="edge">
<title>Iffrue&#45;&#45;Mollin</title>
<path fill="none" stroke="black" d="M662.67,-653.91C667.34,-660.77 672.72,-668.66 677.41,-675.56"/>
</g>
<!-- Vilinnon -->
<g id="Vilinnon" class="node">
<title>Vilinnon</title>
<ellipse fill="none" stroke="black" cx="578.67" cy="-686.9" rx="48.99" ry="18"/>
<text text-anchor="middle" x="578.67" y="-683.2" font-family="Times,serif" font-size="14.00">Vilinnon</text>
</g>
<!-- Iffrue&#45;&#45;Vilinnon -->
<g id="edge51" class="edge">
<title>Iffrue&#45;&#45;Vilinnon</title>
<path fill="none" stroke="black" d="M629.65,-651.48C620.83,-657.61 610.57,-664.74 601.58,-670.98"/>
</g>
<!-- Ommaerrer -->
<g id="Ommaerrer" class="node">
<title>Ommaerrer</title>
<ellipse fill="none" stroke="black" cx="541.47" cy="-642.89" rx="65" ry="18"/>
<text text-anchor="middle" x="541.47" y="-639.19" font-family="Times,serif" font-size="14.00">Ommaerrer</text>
</g>
<!-- Iffrue&#45;&#45;Ommaerrer -->
<g id="edge52" class="edge">
<title>Iffrue&#45;&#45;Ommaerrer</title>
<path fill="none" stroke="black" d="M614.49,-638.76C611.51,-638.93 608.44,-639.1 605.33,-639.28"/>
</g>
<!-- Aulbres -->
<g id="Aulbres" class="node">
<title>Aulbres</title>
<ellipse fill="none" stroke="black" cx="443.93" cy="-380.26" rx="46.29" ry="18"/>
<text text-anchor="middle" x="443.93" y="-376.56" font-family="Times,serif" font-size="14.00">Aulbres</text>
</g>
<!-- Aulbres&#45;&#45;Gare -->
<g id="edge53" class="edge">
<title>Aulbres&#45;&#45;Gare</title>
<path fill="none" stroke="black" d="M485.8,-387.94C490.43,-388.79 495.1,-389.65 499.58,-390.47"/>
</g>
<!-- Barleguet -->
<g id="Barleguet" class="node">
<title>Barleguet</title>
<ellipse fill="none" stroke="black" cx="333.15" cy="-337.84" rx="56.59" ry="18"/>
<text text-anchor="middle" x="333.15" y="-334.14" font-family="Times,serif" font-size="14.00">Barleguet</text>
</g>
<!-- Aulbres&#45;&#45;Barleguet -->
<g id="edge54" class="edge">
<title>Aulbres&#45;&#45;Barleguet</title>
<path fill="none" stroke="black" d="M410.99,-367.65C397.98,-362.66 382.98,-356.92 369.64,-351.81"/>
</g>
<!-- Vestouve -->
<g id="Vestouve" class="node">
<title>Vestouve</title>
<ellipse fill="none" stroke="black" cx="427.72" cy="-293.83" rx="52.79" ry="18"/>
<text text-anchor="middle" x="427.72" y="-290.13" font-family="Times,serif" font-size="14.00">Vestouve</text>
</g>
<!-- Barleguet&#45;&#45;Vestouve -->
<g id="edge55" class="edge">
<title>Barleguet&#45;&#45;Vestouve</title>
<path fill="none" stroke="black" d="M365.17,-322.94C375.24,-318.25 386.35,-313.08 396.38,-308.42"/>
</g>
<!-- Vestouve&#45;&#45;TXW&#45;EI -->
<g id="edge56" class="edge">
<title>Vestouve&#45;&#45;TXW&#45;EI</title>
<path fill="none" stroke="black" d="M375.88,-290.37C372.91,-290.17 369.97,-289.97 367.09,-289.78"/>
</g>
<!-- Ausmaert -->
<g id="Ausmaert" class="node">
<title>Ausmaert</title>
<ellipse fill="none" stroke="black" cx="264.73" cy="-381.89" rx="56" ry="18"/>
<text text-anchor="middle" x="264.73" y="-378.19" font-family="Times,serif" font-size="14.00">Ausmaert</text>
</g>
<!-- Ausmaert&#45;&#45;Barleguet -->
<g id="edge57" class="edge">
<title>Ausmaert&#45;&#45;Barleguet</title>
<path fill="none" stroke="black" d="M289.82,-365.74C295.77,-361.91 302.12,-357.82 308.07,-353.99"/>
</g>
<!-- Kenninck -->
<g id="Kenninck" class="node">
<title>Kenninck</title>
<ellipse fill="none" stroke="black" cx="147.35" cy="-404.61" rx="53.5" ry="18"/>
<text text-anchor="middle" x="147.35" y="-400.91" font-family="Times,serif" font-size="14.00">Kenninck</text>
</g>
<!-- Ausmaert&#45;&#45;Kenninck -->
<g id="edge58" class="edge">
<title>Ausmaert&#45;&#45;Kenninck</title>
<path fill="none" stroke="black" d="M216.65,-391.2C209.05,-392.67 201.21,-394.19 193.65,-395.65"/>
</g>
<!-- Kenninck&#45;&#45;Eggheron -->
<g id="edge59" class="edge">
<title>Kenninck&#45;&#45;Eggheron</title>
<path fill="none" stroke="black" d="M96.7,-410.35C93.17,-410.75 89.63,-411.15 86.15,-411.54"/>
</g>
<!-- Espigoure -->
<g id="Espigoure" class="node">
<title>Espigoure</title>
<ellipse fill="none" stroke="black" cx="373.01" cy="-243.19" rx="58" ry="18"/>
<text text-anchor="middle" x="373.01" y="-239.49" font-family="Times,serif" font-size="14.00">Espigoure</text>
</g>
<!-- Espigoure&#45;&#45;Vestouve -->
<g id="edge60" class="edge">
<title>Espigoure&#45;&#45;Vestouve</title>
<path fill="none" stroke="black" d="M391.53,-260.33C397.23,-265.61 403.51,-271.42 409.22,-276.7"/>
</g>
<!-- Orvolle -->
<g id="Orvolle" class="node">
<title>Orvolle</title>
<ellipse fill="none" stroke="black" cx="991.63" cy="-589.32" rx="44.39" ry="18"/>
<text text-anchor="middle" x="991.63" y="-585.62" font-family="Times,serif" font-size="14.00">Orvolle</text>
</g>
<!-- Orvolle&#45;&#45;PF&#45;346 -->
<g id="edge65" class="edge">
<title>Orvolle&#45;&#45;PF&#45;346</title>
<path fill="none" stroke="black" d="M984.5,-607.13C979.61,-619.36 973.13,-635.54 968.19,-647.86"/>
</g>
<!-- Orvolle&#45;&#45;Oulley -->
<g id="edge66" class="edge">
<title>Orvolle&#45;&#45;Oulley</title>
<path fill="none" stroke="black" d="M999.38,-571.42C1000.6,-568.66 1001.8,-565.81 1003,-563.06"/>
</g>
<!-- Osmeden -->
<g id="Osmeden" class="node">
<title>Osmeden</title>
<ellipse fill="none" stroke="black" cx="1057.2" cy="-633.36" rx="54" ry="18"/>
<text text-anchor="middle" x="1057.2" y="-629.66" font-family="Times,serif" font-size="14.00">Osmeden</text>
</g>
<!-- Orvolle&#45;&#45;Osmeden -->
<g id="edge67" class="edge">
<title>Orvolle&#45;&#45;Osmeden</title>
<path fill="none" stroke="black" d="M1014.6,-604.72C1020.5,-608.69 1026.8,-612.98 1032.8,-616.99"/>
</g>
<!-- Mesybier -->
<g id="Mesybier" class="node">
<title>Mesybier</title>
<polygon fill="none" stroke="black" points="916.73,-651.99 833.73,-651.99 833.73,-615.99 916.73,-615.99 916.73,-651.99"/>
<text text-anchor="middle" x="875.23" y="-630.29" font-family="Times,serif" font-size="14.00">Mesybier</text>
</g>
<!-- Orvolle&#45;&#45;Mesybier -->
<g id="edge68" class="edge">
<title>Orvolle&#45;&#45;Mesybier</title>
<path fill="none" stroke="black" d="M959.21,-601.76C946.16,-606.77 930.94,-612.61 917.07,-617.94"/>
</g>
<!-- Adacyne -->
<g id="Adacyne" class="node">
<title>Adacyne</title>
<ellipse fill="none" stroke="black" cx="1060.3" cy="-702.86" rx="50.09" ry="18"/>
<text text-anchor="middle" x="1060.3" y="-699.16" font-family="Times,serif" font-size="14.00">Adacyne</text>
</g>
<!-- Adacyne&#45;&#45;Osmeden -->
<g id="edge69" class="edge">
<title>Adacyne&#45;&#45;Osmeden</title>
<path fill="none" stroke="black" d="M1059.5,-684.6C1059,-674.46 1058.5,-661.89 1058,-651.74"/>
</g>
<!-- Chardalane -->
<g id="Chardalane" class="node">
<title>Chardalane</title>
<ellipse fill="none" stroke="black" cx="1045.9" cy="-747.1" rx="63.89" ry="18"/>
<text text-anchor="middle" x="1045.9" y="-743.4" font-family="Times,serif" font-size="14.00">Chardalane</text>
</g>
<!-- Adacyne&#45;&#45;Chardalane -->
<g id="edge70" class="edge">
<title>Adacyne&#45;&#45;Chardalane</title>
<path fill="none" stroke="black" d="M1054.4,-720.85C1053.6,-723.53 1052.7,-726.29 1051.8,-728.98"/>
</g>
<!-- Maut -->
<g id="Maut" class="node">
<title>Maut</title>
<ellipse fill="none" stroke="black" cx="1154.3" cy="-661.47" rx="35.19" ry="18"/>
<text text-anchor="middle" x="1154.3" y="-657.77" font-family="Times,serif" font-size="14.00">Maut</text>
</g>
<!-- Adacyne&#45;&#45;Maut -->
<g id="edge71" class="edge">
<title>Adacyne&#45;&#45;Maut</title>
<path fill="none" stroke="black" d="M1092.1,-688.84C1103.6,-683.78 1116.5,-678.11 1127.5,-673.26"/>
</g>
<!-- Maut&#45;&#45;Osmeden -->
<g id="edge72" class="edge">
<title>Maut&#45;&#45;Osmeden</title>
<path fill="none" stroke="black" d="M1123.6,-652.57C1115.4,-650.23 1106.6,-647.65 1098,-645.18"/>
</g>
<!-- Aldranette -->
<g id="Aldranette" class="node">
<title>Aldranette</title>
<ellipse fill="none" stroke="black" cx="1335.9" cy="-372.81" rx="60" ry="18"/>
<text text-anchor="middle" x="1335.9" y="-369.11" font-family="Times,serif" font-size="14.00">Aldranette</text>
</g>
<!-- Aldranette&#45;&#45;Vlillirier -->
<g id="edge73" class="edge">
<title>Aldranette&#45;&#45;Vlillirier</title>
<path fill="none" stroke="black" d="M1276.3,-374.97C1273.5,-375.07 1270.7,-375.18 1267.9,-375.28"/>
</g>
<!-- Evaulon -->
<g id="Evaulon" class="node">
<title>Evaulon</title>
<ellipse fill="none" stroke="black" cx="1414.7" cy="-417.16" rx="48.19" ry="18"/>
<text text-anchor="middle" x="1414.7" y="-413.46" font-family="Times,serif" font-size="14.00">Evaulon</text>
</g>
<!-- Aldranette&#45;&#45;Evaulon -->
<g id="edge74" class="edge">
<title>Aldranette&#45;&#45;Evaulon</title>
<path fill="none" stroke="black" d="M1364.4,-388.82C1372,-393.14 1380.3,-397.8 1387.9,-402.06"/>
</g>
<!-- Nennamaila -->
<g id="Nennamaila" class="node">
<title>Nennamaila</title>
<polygon fill="none" stroke="black" points="1481.9,-345.01 1379.9,-345.01 1379.9,-309.01 1481.9,-309.01 1481.9,-345.01"/>
<text text-anchor="middle" x="1430.9" y="-323.31" font-family="Times,serif" font-size="14.00">Nennamaila</text>
</g>
<!-- Aldranette&#45;&#45;Nennamaila -->
<g id="edge75" class="edge">
<title>Aldranette&#45;&#45;Nennamaila</title>
<path fill="none" stroke="black" d="M1367.8,-357.43C1376,-353.48 1384.9,-349.2 1393.3,-345.12"/>
</g>
<!-- Oicx -->
<g id="Oicx" class="node">
<title>Oicx</title>
<ellipse fill="none" stroke="black" cx="1243.6" cy="-426.95" rx="31.4" ry="18"/>
<text text-anchor="middle" x="1243.6" y="-423.25" font-family="Times,serif" font-size="14.00">Oicx</text>
</g>
<!-- Oicx&#45;&#45;Vlillirier -->
<g id="edge76" class="edge">
<title>Oicx&#45;&#45;Vlillirier</title>
<path fill="none" stroke="black" d="M1235.1,-409.49C1232.8,-404.77 1230.3,-399.65 1228,-394.91"/>
</g>
<!-- Eha -->
<g id="Eha" class="node">
<title>Eha</title>
<polygon fill="none" stroke="black" points="1292.3,-490.2 1238.3,-490.2 1238.3,-454.2 1292.3,-454.2 1292.3,-490.2"/>
<text text-anchor="middle" x="1265.3" y="-468.5" font-family="Times,serif" font-size="14.00">Eha</text>
</g>
<!-- Oicx&#45;&#45;Eha -->
<g id="edge77" class="edge">
<title>Oicx&#45;&#45;Eha</title>
<path fill="none" stroke="black" d="M1251.9,-444.32C1253.4,-447.51 1255,-450.84 1256.6,-454.06"/>
</g>
<!-- Anchauttes -->
<g id="Anchauttes" class="node">
<title>Anchauttes</title>
<ellipse fill="none" stroke="black" cx="1463.8" cy="-461.25" rx="63.09" ry="18"/>
<text text-anchor="middle" x="1463.8" y="-457.55" font-family="Times,serif" font-size="14.00">Anchauttes</text>
</g>
<!-- Anchauttes&#45;&#45;Evaulon -->
<g id="edge78" class="edge">
<title>Anchauttes&#45;&#45;Evaulon</title>
<path fill="none" stroke="black" d="M1444.6,-444.08C1440.9,-440.69 1436.9,-437.15 1433.2,-433.78"/>
</g>
<!-- Esesier -->
<g id="Esesier" class="node">
<title>Esesier</title>
<ellipse fill="none" stroke="black" cx="1537" cy="-416.74" rx="45.5" ry="18"/>
<text text-anchor="middle" x="1537" y="-413.04" font-family="Times,serif" font-size="14.00">Esesier</text>
</g>
<!-- Anchauttes&#45;&#45;Esesier -->
<g id="edge79" class="edge">
<title>Anchauttes&#45;&#45;Esesier</title>
<path fill="none" stroke="black" d="M1490.6,-444.93C1497.7,-440.66 1505.2,-436.08 1512.1,-431.88"/>
</g>
<!-- Odamia -->
<g id="Odamia" class="node">
<title>Odamia</title>
<ellipse fill="none" stroke="black" cx="1346.5" cy="-464.44" rx="46.29" ry="18"/>
<text text-anchor="middle" x="1346.5" y="-460.74" font-family="Times,serif" font-size="14.00">Odamia</text>
</g>
<!-- Anchauttes&#45;&#45;Odamia -->
<g id="edge80" class="edge">
<title>Anchauttes&#45;&#45;Odamia</title>
<path fill="none" stroke="black" d="M1401,-462.96C1398.2,-463.03 1395.4,-463.11 1392.6,-463.19"/>
</g>
<!-- Alsavoinon -->
<g id="Alsavoinon" class="node">
<title>Alsavoinon</title>
<ellipse fill="none" stroke="black" cx="1298.6" cy="-309.69" rx="61.19" ry="18"/>
<text text-anchor="middle" x="1298.6" y="-305.99" font-family="Times,serif" font-size="14.00">Alsavoinon</text>
</g>
<!-- Alsavoinon&#45;&#45;Vlillirier -->
<g id="edge81" class="edge">
<title>Alsavoinon&#45;&#45;Vlillirier</title>
<path fill="none" stroke="black" d="M1278.2,-327.03C1266.1,-337.32 1250.8,-350.29 1238.9,-360.45"/>
</g>
<!-- F7C&#45;H0 -->
<g id="F7C&#45;H0" class="node">
<title>F7C&#45;H0</title>
<polygon fill="none" stroke="black" points="1392.6,-281.32 1321.6,-281.32 1321.6,-245.32 1392.6,-245.32 1392.6,-281.32"/>
<text text-anchor="middle" x="1357.1" y="-259.62" font-family="Times,serif" font-size="14.00">F7C&#45;H0</text>
</g>
<!-- Alsavoinon&#45;&#45;F7C&#45;H0 -->
<g id="edge82" class="edge">
<title>Alsavoinon&#45;&#45;F7C&#45;H0</title>
<path fill="none" stroke="black" d="M1320.1,-292.68C1324.7,-289.07 1329.5,-285.23 1334.1,-281.57"/>
</g>
<!-- Avaux -->
<g id="Avaux" class="node">
<title>Avaux</title>
<ellipse fill="none" stroke="black" cx="1048.9" cy="-148.09" rx="39" ry="18"/>
<text text-anchor="middle" x="1048.9" y="-144.39" font-family="Times,serif" font-size="14.00">Avaux</text>
</g>
<!-- Avaux&#45;&#45;Aidart -->
<g id="edge83" class="edge">
<title>Avaux&#45;&#45;Aidart</title>
<path fill="none" stroke="black" d="M1038.1,-165.53C1036.4,-168.32 1034.6,-171.22 1032.9,-174.03"/>
</g>
<!-- Gallusiene -->
<g id="Gallusiene" class="node">
<title>Gallusiene</title>
<ellipse fill="none" stroke="black" cx="1155.9" cy="-106.63" rx="60" ry="18"/>
<text text-anchor="middle" x="1155.9" y="-102.93" font-family="Times,serif" font-size="14.00">Gallusiene</text>
</g>
<!-- Avaux&#45;&#45;Gallusiene -->
<g id="edge84" class="edge">
<title>Avaux&#45;&#45;Gallusiene</title>
<path fill="none" stroke="black" d="M1079,-136.43C1091.5,-131.59 1106.1,-125.93 1119.2,-120.85"/>
</g>
<!-- Ruerrotta -->
<g id="Ruerrotta" class="node">
<title>Ruerrotta</title>
<ellipse fill="none" stroke="black" cx="931.06" cy="-64.43" rx="56" ry="18"/>
<text text-anchor="middle" x="931.06" y="-60.73" font-family="Times,serif" font-size="14.00">Ruerrotta</text>
</g>
<!-- Gallusiene&#45;&#45;Ruerrotta -->
<g id="edge85" class="edge">
<title>Gallusiene&#45;&#45;Ruerrotta</title>
<path fill="none" stroke="black" d="M1104.9,-97.05C1067.3,-90 1016.5,-80.47 979.56,-73.54"/>
</g>
<!-- Hedoubel -->
<g id="Hedoubel" class="node">
<title>Hedoubel</title>
<ellipse fill="none" stroke="black" cx="960.32" cy="-18.32" rx="55.49" ry="18"/>
<text text-anchor="middle" x="960.32" y="-14.62" font-family="Times,serif" font-size="14.00">Hedoubel</text>
</g>
<!-- Hedoubel&#45;&#45;Ruerrotta -->
<g id="edge86" class="edge">
<title>Hedoubel&#45;&#45;Ruerrotta</title>
<path fill="none" stroke="black" d="M949.09,-36.02C946.9,-39.47 944.6,-43.1 942.41,-46.56"/>
</g>
<!-- Amoen -->
<g id="Amoen" class="node">
<title>Amoen</title>
<ellipse fill="none" stroke="black" cx="914.86" cy="-108.46" rx="42.49" ry="18"/>
<text text-anchor="middle" x="914.86" y="-104.76" font-family="Times,serif" font-size="14.00">Amoen</text>
</g>
<!-- Amoen&#45;&#45;Slays -->
<g id="edge87" class="edge">
<title>Amoen&#45;&#45;Slays</title>
<path fill="none" stroke="black" d="M908.25,-126.36C907.23,-129.12 906.18,-131.97 905.16,-134.73"/>
</g>
<!-- Amoen&#45;&#45;Ruerrotta -->
<g id="edge88" class="edge">
<title>Amoen&#45;&#45;Ruerrotta</title>
<path fill="none" stroke="black" d="M921.45,-90.55C922.43,-87.89 923.45,-85.14 924.43,-82.47"/>
</g>
<!-- Amasiree -->
<g id="Amasiree" class="node">
<title>Amasiree</title>
<ellipse fill="none" stroke="black" cx="1049" cy="-62.38" rx="54" ry="18"/>
<text text-anchor="middle" x="1049" y="-58.68" font-family="Times,serif" font-size="14.00">Amasiree</text>
</g>
<!-- Amasiree&#45;&#45;Amoen -->
<g id="edge89" class="edge">
<title>Amasiree&#45;&#45;Amoen</title>
<path fill="none" stroke="black" d="M1011.3,-75.34C991.47,-82.16 967.36,-90.44 948.21,-97.01"/>
</g>
<!-- Aubonnie -->
<g id="Aubonnie" class="node">
<title>Aubonnie</title>
<ellipse fill="none" stroke="black" cx="1081.2" cy="-18" rx="54" ry="18"/>
<text text-anchor="middle" x="1081.2" y="-14.3" font-family="Times,serif" font-size="14.00">Aubonnie</text>
</g>
<!-- Amasiree&#45;&#45;Aubonnie -->
<g id="edge90" class="edge">
<title>Amasiree&#45;&#45;Aubonnie</title>
<path fill="none" stroke="black" d="M1061.8,-44.84C1064,-41.84 1066.2,-38.72 1068.4,-35.71"/>
</g>
<!-- Aubonnie&#45;&#45;Hedoubel -->
<g id="edge91" class="edge">
<title>Aubonnie&#45;&#45;Hedoubel</title>
<path fill="none" stroke="black" d="M1027.1,-18.14C1023.4,-18.15 1019.6,-18.16 1015.8,-18.18"/>
</g>
<!-- Alparena -->
<g id="Alparena" class="node">
<title>Alparena</title>
<ellipse fill="none" stroke="black" cx="1249.4" cy="-637.36" rx="52" ry="18"/>
<text text-anchor="middle" x="1249.4" y="-633.66" font-family="Times,serif" font-size="14.00">Alparena</text>
</g>
<!-- Alparena&#45;&#45;Maut -->
<g id="edge92" class="edge">
<title>Alparena&#45;&#45;Maut</title>
<path fill="none" stroke="black" d="M1207.4,-648C1200.2,-649.84 1192.7,-651.73 1185.8,-653.49"/>
</g>
<!-- Reschard -->
<g id="Reschard" class="node">
<title>Reschard</title>
<ellipse fill="none" stroke="black" cx="1367" cy="-605.8" rx="54" ry="18"/>
<text text-anchor="middle" x="1367" y="-602.1" font-family="Times,serif" font-size="14.00">Reschard</text>
</g>
<!-- Alparena&#45;&#45;Reschard -->
<g id="edge93" class="edge">
<title>Alparena&#45;&#45;Reschard</title>
<path fill="none" stroke="black" d="M1290.6,-626.32C1301.7,-623.33 1313.8,-620.1 1324.9,-617.1"/>
</g>
<!-- Arderonne -->
<g id="Arderonne" class="node">
<title>Arderonne</title>
<ellipse fill="none" stroke="black" cx="1393.1" cy="-556.74" rx="60" ry="18"/>
<text text-anchor="middle" x="1393.1" y="-553.04" font-family="Times,serif" font-size="14.00">Arderonne</text>
</g>
<!-- Arderonne&#45;&#45;Odamia -->
<g id="edge94" class="edge">
<title>Arderonne&#45;&#45;Odamia</title>
<path fill="none" stroke="black" d="M1383.9,-538.5C1375.7,-522.22 1363.7,-498.5 1355.5,-482.33"/>
</g>
<!-- Arderonne&#45;&#45;Reschard -->
<g id="edge95" class="edge">
<title>Arderonne&#45;&#45;Reschard</title>
<path fill="none" stroke="black" d="M1383.5,-574.73C1381.3,-578.99 1378.9,-583.54 1376.6,-587.81"/>
</g>
<!-- Mercomesier -->
<g id="Mercomesier" class="node">
<title>Mercomesier</title>
<ellipse fill="none" stroke="black" cx="1376.9" cy="-681.45" rx="71.5" ry="18"/>
<text text-anchor="middle" x="1376.9" y="-677.75" font-family="Times,serif" font-size="14.00">Mercomesier</text>
</g>
<!-- Mercomesier&#45;&#45;Reschard -->
<g id="edge96" class="edge">
<title>Mercomesier&#45;&#45;Reschard</title>
<path fill="none" stroke="black" d="M1374.5,-663.14C1373,-651.24 1370.9,-635.8 1369.4,-623.94"/>
</g>
<!-- Alamel -->
<g id="Alamel" class="node">
<title>Alamel</title>
<ellipse fill="none" stroke="black" cx="1458.1" cy="-511.21" rx="42.49" ry="18"/>
<text text-anchor="middle" x="1458.1" y="-507.51" font-family="Times,serif" font-size="14.00">Alamel</text>
</g>
<!-- Alamel&#45;&#45;Odamia -->
<g id="edge97" class="edge">
<title>Alamel&#45;&#45;Odamia</title>
<path fill="none" stroke="black" d="M1427.9,-498.55C1412.6,-492.12 1393.9,-484.29 1378.3,-477.76"/>
</g>
<!-- Alamel&#45;&#45;Arderonne -->
<g id="edge98" class="edge">
<title>Alamel&#45;&#45;Arderonne</title>
<path fill="none" stroke="black" d="M1436.1,-526.62C1429.9,-530.96 1423.2,-535.69 1416.9,-540.09"/>
</g>
<!-- Mantenault -->
<g id="Mantenault" class="node">
<title>Mantenault</title>
<ellipse fill="none" stroke="black" cx="1587.6" cy="-505.46" rx="64.5" ry="18"/>
<text text-anchor="middle" x="1587.6" y="-501.76" font-family="Times,serif" font-size="14.00">Mantenault</text>
</g>
<!-- Alamel&#45;&#45;Mantenault -->
<g id="edge99" class="edge">
<title>Alamel&#45;&#45;Mantenault</title>
<path fill="none" stroke="black" d="M1500.2,-509.34C1507.7,-509.01 1515.7,-508.65 1523.7,-508.3"/>
</g>
<!-- Mantenault&#45;&#45;RQH&#45;MY -->
<g id="edge100" class="edge">
<title>Mantenault&#45;&#45;RQH&#45;MY</title>
<path fill="none" stroke="black" d="M1639.4,-494.67C1646.4,-493.22 1653.4,-491.76 1660,-490.37"/>
</g>
<!-- Athounon -->
<g id="Athounon" class="node">
<title>Athounon</title>
<ellipse fill="none" stroke="black" cx="1337.5" cy="-725.7" rx="55.49" ry="18"/>
<text text-anchor="middle" x="1337.5" y="-722" font-family="Times,serif" font-size="14.00">Athounon</text>
</g>
<!-- Athounon&#45;&#45;Mercomesier -->
<g id="edge101" class="edge">
<title>Athounon&#45;&#45;Mercomesier</title>
<path fill="none" stroke="black" d="M1353.1,-708.21C1355.7,-705.22 1358.5,-702.1 1361.2,-699.1"/>
</g>
<!-- Samanuni -->
<g id="Samanuni" class="node">
<title>Samanuni</title>
<polygon fill="none" stroke="black" points="1417,-787.84 1329,-787.84 1329,-751.84 1417,-751.84 1417,-787.84"/>
<text text-anchor="middle" x="1373" y="-766.14" font-family="Times,serif" font-size="14.00">Samanuni</text>
</g>
<!-- Athounon&#45;&#45;Samanuni -->
<g id="edge102" class="edge">
<title>Athounon&#45;&#45;Samanuni</title>
<path fill="none" stroke="black" d="M1351.5,-743.15C1353.8,-745.94 1356.1,-748.84 1358.4,-751.65"/>
</g>
</g>
</svg>
