<?xml version="1.0" encoding="UTF-8" standalone="no"?>
<!DOCTYPE svg PUBLIC "-//W3C//DTD SVG 1.1//EN"
 "http://www.w3.org/Graphics/SVG/1.1/DTD/svg11.dtd">
<!-- Generated by graphviz version 2.43.0 (0)
 -->
<!-- Pages: 1 -->
<svg width="666pt" height="568pt"
 viewBox="0.00 0.00 666.23 567.54" xmlns="http://www.w3.org/2000/svg" xmlns:xlink="http://www.w3.org/1999/xlink">
<g id="graph0" class="graph" transform="scale(1 1) rotate(0) translate(4 563.54)">
<polygon fill="white" stroke="transparent" points="-4,4 -4,-563.54 662.23,-563.54 662.23,4 -4,4"/>
<!-- Kuharah -->
<g id="Kuharah" class="node">
<title>Kuharah</title>
<ellipse fill="none" stroke="black" cx="302.89" cy="-541.54" rx="50.09" ry="18"/>
<text text-anchor="middle" x="302.89" y="-537.84" font-family="Times,serif" font-size="14.00">Kuharah</text>
</g>
<!-- Tunudan -->
<g id="Tunudan" class="node">
<title>Tunudan</title>
<ellipse fill="none" stroke="black" cx="412.3" cy="-539.08" rx="51.5" ry="18"/>
<text text-anchor="middle" x="412.3" y="-535.38" font-family="Times,serif" font-size="14.00">Tunudan</text>
</g>
<!-- Kuharah&#45;&#45;Tunudan -->
<g id="edge1" class="edge">
<title>Kuharah&#45;&#45;Tunudan</title>
<path fill="none" stroke="black" d="M353.11,-540.41C355.7,-540.35 358.3,-540.29 360.88,-540.24"/>
</g>
<!-- Otela -->
<g id="Otela" class="node">
<title>Otela</title>
<ellipse fill="none" stroke="black" cx="442.65" cy="-58.45" rx="36" ry="18"/>
<text text-anchor="middle" x="442.65" y="-54.75" font-family="Times,serif" font-size="14.00">Otela</text>
</g>
<!-- Otanuomi -->
<g id="Otanuomi" class="node">
<title>Otanuomi</title>
<ellipse fill="none" stroke="black" cx="602.23" cy="-247.27" rx="56" ry="18"/>
<text text-anchor="middle" x="602.23" y="-243.57" font-family="Times,serif" font-size="14.00">Otanuomi</text>
</g>
<!-- Urhinichi -->
<g id="Urhinichi" class="node">
<title>Urhinichi</title>
<ellipse fill="none" stroke="black" cx="603.22" cy="-305.77" rx="54" ry="18"/>
<text text-anchor="middle" x="603.22" y="-302.07" font-family="Times,serif" font-size="14.00">Urhinichi</text>
</g>
<!-- Otanuomi&#45;&#45;Urhinichi -->
<g id="edge2" class="edge">
<title>Otanuomi&#45;&#45;Urhinichi</title>
<path fill="none" stroke="black" d="M602.54,-265.46C602.66,-272.44 602.79,-280.4 602.91,-287.39"/>
</g>
<!-- Wirashoda -->
<g id="Wirashoda" class="node">
<title>Wirashoda</title>
<ellipse fill="none" stroke="black" cx="82.37" cy="-430.74" rx="60" ry="18"/>
<text text-anchor="middle" x="82.37" y="-427.04" font-family="Times,serif" font-size="14.00">Wirashoda</text>
</g>
<!-- Kino -->
<g id="Kino" class="node">
<title>Kino</title>
<ellipse fill="none" stroke="black" cx="518.53" cy="-18" rx="32" ry="18"/>
<text text-anchor="middle" x="518.53" y="-14.3" font-family="Times,serif" font-size="14.00">Kino</text>
</g>
<!-- Kino&#45;&#45;Otela -->
<g id="edge3" class="edge">
<title>Kino&#45;&#45;Otela</title>
<path fill="none" stroke="black" d="M495.36,-30.36C486.46,-35.09 476.29,-40.52 467.27,-45.33"/>
</g>
<!-- Nalvula -->
<g id="Nalvula" class="node">
<title>Nalvula</title>
<ellipse fill="none" stroke="black" cx="532.53" cy="-102.45" rx="46.29" ry="18"/>
<text text-anchor="middle" x="532.53" y="-98.75" font-family="Times,serif" font-size="14.00">Nalvula</text>
</g>
<!-- Kino&#45;&#45;Nalvula -->
<g id="edge4" class="edge">
<title>Kino&#45;&#45;Nalvula</title>
<path fill="none" stroke="black" d="M521.57,-36.33C523.94,-50.59 527.2,-70.28 529.55,-84.45"/>
</g>
<!-- Nalvula&#45;&#45;Otela -->
<g id="edge5" class="edge">
<title>Nalvula&#45;&#45;Otela</title>
<path fill="none" stroke="black" d="M503.6,-88.29C492.31,-82.76 479.47,-76.47 468.5,-71.1"/>
</g>
<!-- Arvasaras -->
<g id="Arvasaras" class="node">
<title>Arvasaras</title>
<ellipse fill="none" stroke="black" cx="85.88" cy="-117.39" rx="57.39" ry="18"/>
<text text-anchor="middle" x="85.88" y="-113.69" font-family="Times,serif" font-size="14.00">Arvasaras</text>
</g>
<!-- Kaunokka -->
<g id="Kaunokka" class="node">
<title>Kaunokka</title>
<ellipse fill="none" stroke="black" cx="80.91" cy="-161.42" rx="56" ry="18"/>
<text text-anchor="middle" x="80.91" y="-157.72" font-family="Times,serif" font-size="14.00">Kaunokka</text>
</g>
<!-- Arvasaras&#45;&#45;Kaunokka -->
<g id="edge6" class="edge">
<title>Arvasaras&#45;&#45;Kaunokka</title>
<path fill="none" stroke="black" d="M83.83,-135.55C83.54,-138.11 83.24,-140.74 82.96,-143.29"/>
</g>
<!-- Sakenta -->
<g id="Sakenta" class="node">
<title>Sakenta</title>
<ellipse fill="none" stroke="black" cx="134.32" cy="-73.38" rx="48.19" ry="18"/>
<text text-anchor="middle" x="134.32" y="-69.68" font-family="Times,serif" font-size="14.00">Sakenta</text>
</g>
<!-- Arvasaras&#45;&#45;Sakenta -->
<g id="edge7" class="edge">
<title>Arvasaras&#45;&#45;Sakenta</title>
<path fill="none" stroke="black" d="M104.75,-100.25C108.36,-96.96 112.14,-93.53 115.74,-90.26"/>
</g>
<!-- Nani -->
<g id="Nani" class="node">
<title>Nani</title>
<ellipse fill="none" stroke="black" cx="589.29" cy="-364.64" rx="32.5" ry="18"/>
<text text-anchor="middle" x="589.29" y="-360.94" font-family="Times,serif" font-size="14.00">Nani</text>
</g>
<!-- Nani&#45;&#45;Urhinichi -->
<g id="edge8" class="edge">
<title>Nani&#45;&#45;Urhinichi</title>
<path fill="none" stroke="black" d="M593.54,-346.66C595.24,-339.49 597.19,-331.25 598.89,-324.05"/>
</g>
<!-- Skarkon -->
<g id="Skarkon" class="node">
<title>Skarkon</title>
<ellipse fill="none" stroke="black" cx="573.57" cy="-420.37" rx="48.99" ry="18"/>
<text text-anchor="middle" x="573.57" y="-416.67" font-family="Times,serif" font-size="14.00">Skarkon</text>
</g>
<!-- Nani&#45;&#45;Skarkon -->
<g id="edge9" class="edge">
<title>Nani&#45;&#45;Skarkon</title>
<path fill="none" stroke="black" d="M584.23,-382.58C582.44,-388.95 580.42,-396.11 578.62,-402.47"/>
</g>
<!-- Krirald -->
<g id="Krirald" class="node">
<title>Krirald</title>
<ellipse fill="none" stroke="black" cx="594.4" cy="-191.76" rx="43.59" ry="18"/>
<text text-anchor="middle" x="594.4" y="-188.06" font-family="Times,serif" font-size="14.00">Krirald</text>
</g>
<!-- Krirald&#45;&#45;Otanuomi -->
<g id="edge10" class="edge">
<title>Krirald&#45;&#45;Otanuomi</title>
<path fill="none" stroke="black" d="M596.96,-209.94C597.84,-216.14 598.81,-223.06 599.69,-229.25"/>
</g>
<!-- Harva -->
<g id="Harva" class="node">
<title>Harva</title>
<ellipse fill="none" stroke="black" cx="510.68" cy="-516.83" rx="39" ry="18"/>
<text text-anchor="middle" x="510.68" y="-513.13" font-family="Times,serif" font-size="14.00">Harva</text>
</g>
<!-- Harva&#45;&#45;Tunudan -->
<g id="edge11" class="edge">
<title>Harva&#45;&#45;Tunudan</title>
<path fill="none" stroke="black" d="M475.44,-524.8C469.04,-526.25 462.31,-527.77 455.71,-529.26"/>
</g>
<!-- Raravoss -->
<g id="Raravoss" class="node">
<title>Raravoss</title>
<ellipse fill="none" stroke="black" cx="571" cy="-472.2" rx="53.5" ry="18"/>
<text text-anchor="middle" x="571" y="-468.5" font-family="Times,serif" font-size="14.00">Raravoss</text>
</g>
<!-- Harva&#45;&#45;Raravoss -->
<g id="edge12" class="edge">
<title>Harva&#45;&#45;Raravoss</title>
<path fill="none" stroke="black" d="M531.44,-501.47C537.03,-497.34 543.09,-492.85 548.76,-488.65"/>
</g>
<!-- Niarja -->
<g id="Niarja" class="node">
<title>Niarja</title>
<ellipse fill="none" stroke="black" cx="470.03" cy="-472.1" rx="39.79" ry="18"/>
<text text-anchor="middle" x="470.03" y="-468.4" font-family="Times,serif" font-size="14.00">Niarja</text>
</g>
<!-- Harva&#45;&#45;Niarja -->
<g id="edge13" class="edge">
<title>Harva&#45;&#45;Niarja</title>
<path fill="none" stroke="black" d="M495.54,-500.18C492.2,-496.5 488.66,-492.6 485.31,-488.92"/>
</g>
<!-- Raravoss&#45;&#45;Skarkon -->
<g id="edge14" class="edge">
<title>Raravoss&#45;&#45;Skarkon</title>
<path fill="none" stroke="black" d="M571.9,-454.08C572.15,-449.05 572.42,-443.6 572.67,-438.58"/>
</g>
<!-- Niarja&#45;&#45;Raravoss -->
<g id="edge15" class="edge">
<title>Niarja&#45;&#45;Raravoss</title>
<path fill="none" stroke="black" d="M509.94,-472.14C512.47,-472.15 515.04,-472.15 517.63,-472.15"/>
</g>
<!-- Ala -->
<g id="Ala" class="node">
<title>Ala</title>
<ellipse fill="none" stroke="black" cx="85.29" cy="-386.73" rx="27" ry="18"/>
<text text-anchor="middle" x="85.29" y="-383.03" font-family="Times,serif" font-size="14.00">Ala</text>
</g>
<!-- Ala&#45;&#45;Wirashoda -->
<g id="edge16" class="edge">
<title>Ala&#45;&#45;Wirashoda</title>
<path fill="none" stroke="black" d="M84.08,-404.89C83.91,-407.45 83.74,-410.07 83.57,-412.63"/>
</g>
<!-- Vale -->
<g id="Vale" class="node">
<title>Vale</title>
<ellipse fill="none" stroke="black" cx="113.83" cy="-342.73" rx="30.59" ry="18"/>
<text text-anchor="middle" x="113.83" y="-339.03" font-family="Times,serif" font-size="14.00">Vale</text>
</g>
<!-- Ala&#45;&#45;Vale -->
<g id="edge17" class="edge">
<title>Ala&#45;&#45;Vale</title>
<path fill="none" stroke="black" d="M96.08,-370.1C98.29,-366.69 100.61,-363.1 102.83,-359.68"/>
</g>
<!-- Archee -->
<g id="Archee" class="node">
<title>Archee</title>
<ellipse fill="none" stroke="black" cx="43" cy="-298.72" rx="43" ry="18"/>
<text text-anchor="middle" x="43" y="-295.02" font-family="Times,serif" font-size="14.00">Archee</text>
</g>
<!-- Archee&#45;&#45;Vale -->
<g id="edge18" class="edge">
<title>Archee&#45;&#45;Vale</title>
<path fill="none" stroke="black" d="M67.38,-313.87C75.54,-318.94 84.57,-324.55 92.49,-329.47"/>
</g>
<!-- Konola -->
<g id="Konola" class="node">
<title>Konola</title>
<ellipse fill="none" stroke="black" cx="580.25" cy="-146.71" rx="42.49" ry="18"/>
<text text-anchor="middle" x="580.25" y="-143.01" font-family="Times,serif" font-size="14.00">Konola</text>
</g>
<!-- Konola&#45;&#45;Nalvula -->
<g id="edge19" class="edge">
<title>Konola&#45;&#45;Nalvula</title>
<path fill="none" stroke="black" d="M562.48,-130.23C558.56,-126.59 554.4,-122.74 550.47,-119.09"/>
</g>
<!-- Konola&#45;&#45;Krirald -->
<g id="edge20" class="edge">
<title>Konola&#45;&#45;Krirald</title>
<path fill="none" stroke="black" d="M585.92,-164.77C586.85,-167.71 587.8,-170.75 588.72,-173.69"/>
</g>
<!-- Angymonne -->
<g id="Angymonne" class="node">
<title>Angymonne</title>
<ellipse fill="none" stroke="black" cx="105.02" cy="-254.68" rx="65.79" ry="18"/>
<text text-anchor="middle" x="105.02" y="-250.98" font-family="Times,serif" font-size="14.00">Angymonne</text>
</g>
<!-- Angymonne&#45;&#45;Vale -->
<g id="edge21" class="edge">
<title>Angymonne&#45;&#45;Vale</title>
<path fill="none" stroke="black" d="M106.84,-272.93C108.35,-288.04 110.49,-309.4 112,-324.51"/>
</g>
<!-- Angymonne&#45;&#45;Archee -->
<g id="edge22" class="edge">
<title>Angymonne&#45;&#45;Archee</title>
<path fill="none" stroke="black" d="M81.22,-271.58C75.89,-275.37 70.26,-279.36 65.01,-283.09"/>
</g>
<!-- Ichoriya -->
<g id="Ichoriya" class="node">
<title>Ichoriya</title>
<ellipse fill="none" stroke="black" cx="85.54" cy="-206.12" rx="48.19" ry="18"/>
<text text-anchor="middle" x="85.54" y="-202.42" font-family="Times,serif" font-size="14.00">Ichoriya</text>
</g>
<!-- Angymonne&#45;&#45;Ichoriya -->
<g id="edge23" class="edge">
<title>Angymonne&#45;&#45;Ichoriya</title>
<path fill="none" stroke="black" d="M97.77,-236.6C96.12,-232.5 94.38,-228.15 92.74,-224.06"/>
</g>
<!-- Ichoriya&#45;&#45;Kaunokka -->
<g id="edge24" class="edge">
<title>Ichoriya&#45;&#45;Kaunokka</title>
<path fill="none" stroke="black" d="M83.66,-187.94C83.37,-185.13 83.07,-182.24 82.78,-179.44"/>
</g>
<!-- Ignebaener -->
<g id="Ignebaener" class="node">
<title>Ignebaener</title>
<ellipse fill="none" stroke="black" cx="335.14" cy="-37.99" rx="63.89" ry="18"/>
<text text-anchor="middle" x="335.14" y="-34.29" font-family="Times,serif" font-size="14.00">Ignebaener</text>
</g>
<!-- Ignebaener&#45;&#45;Otela -->
<g id="edge25" class="edge">
<title>Ignebaener&#45;&#45;Otela</title>
<path fill="none" stroke="black" d="M388.27,-48.1C395.35,-49.45 402.46,-50.8 409.08,-52.06"/>
</g>
<!-- Komo -->
<g id="Komo" class="node">
<title>Komo</title>
<ellipse fill="none" stroke="black" cx="226.89" cy="-43.71" rx="36.5" ry="18"/>
<text text-anchor="middle" x="226.89" y="-40.01" font-family="Times,serif" font-size="14.00">Komo</text>
</g>
<!-- Ignebaener&#45;&#45;Komo -->
<g id="edge26" class="edge">
<title>Ignebaener&#45;&#45;Komo</title>
<path fill="none" stroke="black" d="M272.48,-41.3C269.3,-41.47 266.17,-41.63 263.11,-41.8"/>
</g>
<!-- Komo&#45;&#45;Sakenta -->
<g id="edge27" class="edge">
<title>Komo&#45;&#45;Sakenta</title>
<path fill="none" stroke="black" d="M196.33,-53.51C188.22,-56.11 179.38,-58.94 170.98,-61.63"/>
</g>
<!-- Senda -->
<g id="Senda" class="node">
<title>Senda</title>
<ellipse fill="none" stroke="black" cx="129.28" cy="-474.76" rx="39.79" ry="18"/>
<text text-anchor="middle" x="129.28" y="-471.06" font-family="Times,serif" font-size="14.00">Senda</text>
</g>
<!-- Senda&#45;&#45;Wirashoda -->
<g id="edge28" class="edge">
<title>Senda&#45;&#45;Wirashoda</title>
<path fill="none" stroke="black" d="M111.81,-458.37C108.27,-455.04 104.53,-451.54 100.95,-448.18"/>
</g>
<!-- Ahtila -->
<g id="Ahtila" class="node">
<title>Ahtila</title>
<ellipse fill="none" stroke="black" cx="206.43" cy="-518.77" rx="38.5" ry="18"/>
<text text-anchor="middle" x="206.43" y="-515.07" font-family="Times,serif" font-size="14.00">Ahtila</text>
</g>
<!-- Ahtila&#45;&#45;Kuharah -->
<g id="edge29" class="edge">
<title>Ahtila&#45;&#45;Kuharah</title>
<path fill="none" stroke="black" d="M240.71,-526.86C247.21,-528.4 254.07,-530.02 260.78,-531.6"/>
</g>
<!-- Ahtila&#45;&#45;Senda -->
<g id="edge30" class="edge">
<title>Ahtila&#45;&#45;Senda</title>
<path fill="none" stroke="black" d="M182.02,-504.85C173.1,-499.76 163.01,-494 154.06,-488.9"/>
</g>
</g>
</svg>
