<?xml version="1.0" encoding="UTF-8" standalone="no"?>
<!DOCTYPE svg PUBLIC "-//W3C//DTD SVG 1.1//EN"
 "http://www.w3.org/Graphics/SVG/1.1/DTD/svg11.dtd">
<!-- Generated by graphviz version 2.43.0 (0)
 -->
<!-- Pages: 1 -->
<svg width="1231pt" height="694pt"
 viewBox="0.00 0.00 1230.60 694.00" xmlns="http://www.w3.org/2000/svg" xmlns:xlink="http://www.w3.org/1999/xlink">
<g id="graph0" class="graph" transform="scale(1 1) rotate(0) translate(4 690)">
<polygon fill="white" stroke="transparent" points="-4,4 -4,-690 1226.6,-690 1226.6,4 -4,4"/>
<!-- Y9G&#45;KS -->
<g id="Y9G&#45;KS" class="node">
<title>Y9G&#45;KS</title>
<polygon fill="none" stroke="black" points="779.5,-375.65 708.5,-375.65 708.5,-339.65 779.5,-339.65 779.5,-375.65"/>
<text text-anchor="middle" x="744" y="-353.95" font-family="Times,serif" font-size="14.00">Y9G&#45;KS</text>
</g>
<!-- D85&#45;VD -->
<g id="D85&#45;VD" class="node">
<title>D85&#45;VD</title>
<polygon fill="none" stroke="black" points="383.88,-680.4 312.88,-680.4 312.88,-644.4 383.88,-644.4 383.88,-680.4"/>
<text text-anchor="middle" x="348.38" y="-658.7" font-family="Times,serif" font-size="14.00">D85&#45;VD</text>
</g>
<!-- Conomette -->
<g id="Conomette" class="node">
<title>Conomette</title>
<ellipse fill="none" stroke="black" cx="638.74" cy="-356.27" rx="61.99" ry="18"/>
<text text-anchor="middle" x="638.74" y="-352.57" font-family="Times,serif" font-size="14.00">Conomette</text>
</g>
<!-- Conomette&#45;&#45;Y9G&#45;KS -->
<g id="edge1" class="edge">
<title>Conomette&#45;&#45;Y9G&#45;KS</title>
<path fill="none" stroke="black" d="M700.58,-357.08C703.17,-357.11 705.74,-357.15 708.25,-357.18"/>
</g>
<!-- Yveve -->
<g id="Yveve" class="node">
<title>Yveve</title>
<ellipse fill="none" stroke="black" cx="551.77" cy="-280.47" rx="38.5" ry="18"/>
<text text-anchor="middle" x="551.77" y="-276.77" font-family="Times,serif" font-size="14.00">Yveve</text>
</g>
<!-- Conomette&#45;&#45;Yveve -->
<g id="edge2" class="edge">
<title>Conomette&#45;&#45;Yveve</title>
<path fill="none" stroke="black" d="M619,-339.07C604.37,-326.32 584.56,-309.05 570.24,-296.57"/>
</g>
<!-- Aimoguier -->
<g id="Aimoguier" class="node">
<title>Aimoguier</title>
<ellipse fill="none" stroke="black" cx="653.64" cy="-426.76" rx="58.5" ry="18"/>
<text text-anchor="middle" x="653.64" y="-423.06" font-family="Times,serif" font-size="14.00">Aimoguier</text>
</g>
<!-- Aimoguier&#45;&#45;Conomette -->
<g id="edge3" class="edge">
<title>Aimoguier&#45;&#45;Conomette</title>
<path fill="none" stroke="black" d="M649.8,-408.6C647.59,-398.16 644.83,-385.08 642.61,-374.61"/>
</g>
<!-- Cadelanne -->
<g id="Cadelanne" class="node">
<title>Cadelanne</title>
<ellipse fill="none" stroke="black" cx="675.67" cy="-494.35" rx="60" ry="18"/>
<text text-anchor="middle" x="675.67" y="-490.65" font-family="Times,serif" font-size="14.00">Cadelanne</text>
</g>
<!-- Aimoguier&#45;&#45;Cadelanne -->
<g id="edge4" class="edge">
<title>Aimoguier&#45;&#45;Cadelanne</title>
<path fill="none" stroke="black" d="M659.54,-444.87C662.71,-454.57 666.59,-466.48 669.75,-476.19"/>
</g>
<!-- Meunvon -->
<g id="Meunvon" class="node">
<title>Meunvon</title>
<ellipse fill="none" stroke="black" cx="514.95" cy="-328.54" rx="54" ry="18"/>
<text text-anchor="middle" x="514.95" y="-324.84" font-family="Times,serif" font-size="14.00">Meunvon</text>
</g>
<!-- Meunvon&#45;&#45;Yveve -->
<g id="edge5" class="edge">
<title>Meunvon&#45;&#45;Yveve</title>
<path fill="none" stroke="black" d="M528.45,-310.91C531.82,-306.52 535.42,-301.82 538.76,-297.45"/>
</g>
<!-- Elore -->
<g id="Elore" class="node">
<title>Elore</title>
<ellipse fill="none" stroke="black" cx="466.46" cy="-284.52" rx="36" ry="18"/>
<text text-anchor="middle" x="466.46" y="-280.82" font-family="Times,serif" font-size="14.00">Elore</text>
</g>
<!-- Elore&#45;&#45;Yveve -->
<g id="edge6" class="edge">
<title>Elore&#45;&#45;Yveve</title>
<path fill="none" stroke="black" d="M502.15,-282.83C505.89,-282.65 509.71,-282.47 513.48,-282.29"/>
</g>
<!-- Elore&#45;&#45;Meunvon -->
<g id="edge7" class="edge">
<title>Elore&#45;&#45;Meunvon</title>
<path fill="none" stroke="black" d="M483.97,-300.41C487.98,-304.06 492.26,-307.94 496.32,-311.63"/>
</g>
<!-- Anckee -->
<g id="Anckee" class="node">
<title>Anckee</title>
<ellipse fill="none" stroke="black" cx="376.85" cy="-303.53" rx="44.39" ry="18"/>
<text text-anchor="middle" x="376.85" y="-299.83" font-family="Times,serif" font-size="14.00">Anckee</text>
</g>
<!-- Anckee&#45;&#45;Elore -->
<g id="edge8" class="edge">
<title>Anckee&#45;&#45;Elore</title>
<path fill="none" stroke="black" d="M416.16,-295.19C421.89,-293.98 427.75,-292.73 433.35,-291.55"/>
</g>
<!-- Vevelonel -->
<g id="Vevelonel" class="node">
<title>Vevelonel</title>
<ellipse fill="none" stroke="black" cx="367.42" cy="-254.1" rx="55.49" ry="18"/>
<text text-anchor="middle" x="367.42" y="-250.4" font-family="Times,serif" font-size="14.00">Vevelonel</text>
</g>
<!-- Anckee&#45;&#45;Vevelonel -->
<g id="edge9" class="edge">
<title>Anckee&#45;&#45;Vevelonel</title>
<path fill="none" stroke="black" d="M373.39,-285.41C372.57,-281.11 371.7,-276.52 370.88,-272.23"/>
</g>
<!-- Heluene -->
<g id="Heluene" class="node">
<title>Heluene</title>
<ellipse fill="none" stroke="black" cx="394.91" cy="-358.91" rx="49.5" ry="18"/>
<text text-anchor="middle" x="394.91" y="-355.21" font-family="Times,serif" font-size="14.00">Heluene</text>
</g>
<!-- Anckee&#45;&#45;Heluene -->
<g id="edge10" class="edge">
<title>Anckee&#45;&#45;Heluene</title>
<path fill="none" stroke="black" d="M382.76,-321.67C384.78,-327.85 387.03,-334.76 389.04,-340.93"/>
</g>
<!-- Oruse -->
<g id="Oruse" class="node">
<title>Oruse</title>
<ellipse fill="none" stroke="black" cx="333.75" cy="-402.92" rx="38.5" ry="18"/>
<text text-anchor="middle" x="333.75" y="-399.22" font-family="Times,serif" font-size="14.00">Oruse</text>
</g>
<!-- Heluene&#45;&#45;Oruse -->
<g id="edge11" class="edge">
<title>Heluene&#45;&#45;Oruse</title>
<path fill="none" stroke="black" d="M372.48,-375.05C366.75,-379.17 360.61,-383.59 354.95,-387.67"/>
</g>
<!-- Pertnineere -->
<g id="Pertnineere" class="node">
<title>Pertnineere</title>
<ellipse fill="none" stroke="black" cx="853.21" cy="-359.22" rx="65.79" ry="18"/>
<text text-anchor="middle" x="853.21" y="-355.52" font-family="Times,serif" font-size="14.00">Pertnineere</text>
</g>
<!-- Pertnineere&#45;&#45;Y9G&#45;KS -->
<g id="edge12" class="edge">
<title>Pertnineere&#45;&#45;Y9G&#45;KS</title>
<path fill="none" stroke="black" d="M787.48,-358.27C784.86,-358.24 782.27,-358.2 779.75,-358.16"/>
</g>
<!-- Boystin -->
<g id="Boystin" class="node">
<title>Boystin</title>
<ellipse fill="none" stroke="black" cx="933.01" cy="-312.77" rx="46.29" ry="18"/>
<text text-anchor="middle" x="933.01" y="-309.07" font-family="Times,serif" font-size="14.00">Boystin</text>
</g>
<!-- Boystin&#45;&#45;Pertnineere -->
<g id="edge13" class="edge">
<title>Boystin&#45;&#45;Pertnineere</title>
<path fill="none" stroke="black" d="M906.88,-327.98C898.7,-332.74 889.64,-338.01 881.32,-342.85"/>
</g>
<!-- Lour -->
<g id="Lour" class="node">
<title>Lour</title>
<ellipse fill="none" stroke="black" cx="857.6" cy="-237.77" rx="32.5" ry="18"/>
<text text-anchor="middle" x="857.6" y="-234.07" font-family="Times,serif" font-size="14.00">Lour</text>
</g>
<!-- Boystin&#45;&#45;Lour -->
<g id="edge14" class="edge">
<title>Boystin&#45;&#45;Lour</title>
<path fill="none" stroke="black" d="M915.9,-295.75C903.21,-283.13 886.03,-266.05 873.61,-253.69"/>
</g>
<!-- Oerse -->
<g id="Oerse" class="node">
<title>Oerse</title>
<ellipse fill="none" stroke="black" cx="936.52" cy="-260.8" rx="38.5" ry="18"/>
<text text-anchor="middle" x="936.52" y="-257.1" font-family="Times,serif" font-size="14.00">Oerse</text>
</g>
<!-- Boystin&#45;&#45;Oerse -->
<g id="edge15" class="edge">
<title>Boystin&#45;&#45;Oerse</title>
<path fill="none" stroke="black" d="M934.24,-294.59C934.58,-289.56 934.95,-284.09 935.28,-279.06"/>
</g>
<!-- Lour&#45;&#45;Oerse -->
<g id="edge16" class="edge">
<title>Lour&#45;&#45;Oerse</title>
<path fill="none" stroke="black" d="M886.54,-246.22C892.17,-247.86 898.11,-249.59 903.85,-251.27"/>
</g>
<!-- Maire -->
<g id="Maire" class="node">
<title>Maire</title>
<ellipse fill="none" stroke="black" cx="909.79" cy="-193.77" rx="38.5" ry="18"/>
<text text-anchor="middle" x="909.79" y="-190.07" font-family="Times,serif" font-size="14.00">Maire</text>
</g>
<!-- Lour&#45;&#45;Maire -->
<g id="edge17" class="edge">
<title>Lour&#45;&#45;Maire</title>
<path fill="none" stroke="black" d="M875.56,-222.63C880.52,-218.45 885.9,-213.91 890.91,-209.69"/>
</g>
<!-- Maire&#45;&#45;Oerse -->
<g id="edge18" class="edge">
<title>Maire&#45;&#45;Oerse</title>
<path fill="none" stroke="black" d="M916.95,-211.73C920.79,-221.35 925.5,-233.16 929.33,-242.79"/>
</g>
<!-- Octanneve -->
<g id="Octanneve" class="node">
<title>Octanneve</title>
<ellipse fill="none" stroke="black" cx="890.05" cy="-149.74" rx="60" ry="18"/>
<text text-anchor="middle" x="890.05" y="-146.04" font-family="Times,serif" font-size="14.00">Octanneve</text>
</g>
<!-- Maire&#45;&#45;Octanneve -->
<g id="edge19" class="edge">
<title>Maire&#45;&#45;Octanneve</title>
<path fill="none" stroke="black" d="M901.88,-176.11C900.63,-173.34 899.34,-170.47 898.1,-167.69"/>
</g>
<!-- Yvaeroure -->
<g id="Yvaeroure" class="node">
<title>Yvaeroure</title>
<ellipse fill="none" stroke="black" cx="764.39" cy="-112.26" rx="58" ry="18"/>
<text text-anchor="middle" x="764.39" y="-108.56" font-family="Times,serif" font-size="14.00">Yvaeroure</text>
</g>
<!-- Octanneve&#45;&#45;Yvaeroure -->
<g id="edge20" class="edge">
<title>Octanneve&#45;&#45;Yvaeroure</title>
<path fill="none" stroke="black" d="M847.51,-137.05C834.26,-133.1 819.67,-128.75 806.46,-124.81"/>
</g>
<!-- Larryn -->
<g id="Larryn" class="node">
<title>Larryn</title>
<ellipse fill="none" stroke="black" cx="1025.3" cy="-268.73" rx="42.49" ry="18"/>
<text text-anchor="middle" x="1025.3" y="-265.03" font-family="Times,serif" font-size="14.00">Larryn</text>
</g>
<!-- Larryn&#45;&#45;Oerse -->
<g id="edge21" class="edge">
<title>Larryn&#45;&#45;Oerse</title>
<path fill="none" stroke="black" d="M983.75,-265.02C980.59,-264.74 977.41,-264.45 974.28,-264.18"/>
</g>
<!-- Niballe -->
<g id="Niballe" class="node">
<title>Niballe</title>
<ellipse fill="none" stroke="black" cx="1015.8" cy="-216.77" rx="44.39" ry="18"/>
<text text-anchor="middle" x="1015.8" y="-213.07" font-family="Times,serif" font-size="14.00">Niballe</text>
</g>
<!-- Larryn&#45;&#45;Niballe -->
<g id="edge22" class="edge">
<title>Larryn&#45;&#45;Niballe</title>
<path fill="none" stroke="black" d="M1021.9,-250.55C1021,-245.52 1020,-240.06 1019.1,-235.02"/>
</g>
<!-- Weraroix -->
<g id="Weraroix" class="node">
<title>Weraroix</title>
<ellipse fill="none" stroke="black" cx="1040" cy="-336.09" rx="52.79" ry="18"/>
<text text-anchor="middle" x="1040" y="-332.39" font-family="Times,serif" font-size="14.00">Weraroix</text>
</g>
<!-- Larryn&#45;&#45;Weraroix -->
<g id="edge23" class="edge">
<title>Larryn&#45;&#45;Weraroix</title>
<path fill="none" stroke="black" d="M1029.2,-286.78C1031.3,-296.44 1033.9,-308.31 1036,-317.99"/>
</g>
<!-- Postouvin -->
<g id="Postouvin" class="node">
<title>Postouvin</title>
<ellipse fill="none" stroke="black" cx="1043.2" cy="-172.74" rx="56" ry="18"/>
<text text-anchor="middle" x="1043.2" y="-169.04" font-family="Times,serif" font-size="14.00">Postouvin</text>
</g>
<!-- Niballe&#45;&#45;Postouvin -->
<g id="edge24" class="edge">
<title>Niballe&#45;&#45;Postouvin</title>
<path fill="none" stroke="black" d="M1026.8,-199.11C1028.6,-196.24 1030.4,-193.27 1032.2,-190.4"/>
</g>
<!-- Odinesyn -->
<g id="Odinesyn" class="node">
<title>Odinesyn</title>
<ellipse fill="none" stroke="black" cx="1106.4" cy="-128.7" rx="54" ry="18"/>
<text text-anchor="middle" x="1106.4" y="-125" font-family="Times,serif" font-size="14.00">Odinesyn</text>
</g>
<!-- Odinesyn&#45;&#45;Postouvin -->
<g id="edge25" class="edge">
<title>Odinesyn&#45;&#45;Postouvin</title>
<path fill="none" stroke="black" d="M1082.9,-145.1C1077.7,-148.72 1072.2,-152.56 1067,-156.18"/>
</g>
<!-- Sarline -->
<g id="Sarline" class="node">
<title>Sarline</title>
<ellipse fill="none" stroke="black" cx="1031.5" cy="-380.13" rx="44.39" ry="18"/>
<text text-anchor="middle" x="1031.5" y="-376.43" font-family="Times,serif" font-size="14.00">Sarline</text>
</g>
<!-- Sarline&#45;&#45;Weraroix -->
<g id="edge26" class="edge">
<title>Sarline&#45;&#45;Weraroix</title>
<path fill="none" stroke="black" d="M1035,-361.96C1035.5,-359.4 1036,-356.77 1036.5,-354.21"/>
</g>
<!-- Aeter -->
<g id="Aeter" class="node">
<title>Aeter</title>
<ellipse fill="none" stroke="black" cx="1090" cy="-440.84" rx="36.5" ry="18"/>
<text text-anchor="middle" x="1090" y="-437.14" font-family="Times,serif" font-size="14.00">Aeter</text>
</g>
<!-- Aeter&#45;&#45;Sarline -->
<g id="edge27" class="edge">
<title>Aeter&#45;&#45;Sarline</title>
<path fill="none" stroke="black" d="M1074.4,-424.57C1066.2,-416.14 1056.3,-405.85 1048,-397.29"/>
</g>
<!-- Harner -->
<g id="Harner" class="node">
<title>Harner</title>
<ellipse fill="none" stroke="black" cx="1127.9" cy="-396.82" rx="44.39" ry="18"/>
<text text-anchor="middle" x="1127.9" y="-393.12" font-family="Times,serif" font-size="14.00">Harner</text>
</g>
<!-- Aeter&#45;&#45;Harner -->
<g id="edge28" class="edge">
<title>Aeter&#45;&#45;Harner</title>
<path fill="none" stroke="black" d="M1104.4,-424.2C1107.2,-420.88 1110.2,-417.4 1113.1,-414.07"/>
</g>
<!-- Harner&#45;&#45;Sarline -->
<g id="edge29" class="edge">
<title>Harner&#45;&#45;Sarline</title>
<path fill="none" stroke="black" d="M1087,-389.74C1082.2,-388.91 1077.3,-388.05 1072.4,-387.22"/>
</g>
<!-- Gererique -->
<g id="Gererique" class="node">
<title>Gererique</title>
<ellipse fill="none" stroke="black" cx="1164.6" cy="-84.68" rx="58" ry="18"/>
<text text-anchor="middle" x="1164.6" y="-80.98" font-family="Times,serif" font-size="14.00">Gererique</text>
</g>
<!-- Gererique&#45;&#45;Odinesyn -->
<g id="edge30" class="edge">
<title>Gererique&#45;&#45;Odinesyn</title>
<path fill="none" stroke="black" d="M1142.6,-101.32C1138,-104.83 1133.1,-108.53 1128.4,-112.03"/>
</g>
<!-- Vecodie -->
<g id="Vecodie" class="node">
<title>Vecodie</title>
<ellipse fill="none" stroke="black" cx="652.29" cy="-131.61" rx="46.29" ry="18"/>
<text text-anchor="middle" x="652.29" y="-127.91" font-family="Times,serif" font-size="14.00">Vecodie</text>
</g>
<!-- Vecodie&#45;&#45;Yvaeroure -->
<g id="edge31" class="edge">
<title>Vecodie&#45;&#45;Yvaeroure</title>
<path fill="none" stroke="black" d="M694.67,-124.3C700.87,-123.23 707.31,-122.12 713.65,-121.02"/>
</g>
<!-- Arasare -->
<g id="Arasare" class="node">
<title>Arasare</title>
<ellipse fill="none" stroke="black" cx="551.17" cy="-158.84" rx="47" ry="18"/>
<text text-anchor="middle" x="551.17" y="-155.14" font-family="Times,serif" font-size="14.00">Arasare</text>
</g>
<!-- Arasare&#45;&#45;Vecodie -->
<g id="edge32" class="edge">
<title>Arasare&#45;&#45;Vecodie</title>
<path fill="none" stroke="black" d="M589.69,-148.47C597.72,-146.31 606.19,-144.03 614.21,-141.87"/>
</g>
<!-- Yvelet -->
<g id="Yvelet" class="node">
<title>Yvelet</title>
<ellipse fill="none" stroke="black" cx="548.85" cy="-217.39" rx="39.79" ry="18"/>
<text text-anchor="middle" x="548.85" y="-213.69" font-family="Times,serif" font-size="14.00">Yvelet</text>
</g>
<!-- Arasare&#45;&#45;Yvelet -->
<g id="edge33" class="edge">
<title>Arasare&#45;&#45;Yvelet</title>
<path fill="none" stroke="black" d="M550.45,-177.05C550.17,-184.03 549.85,-191.99 549.58,-198.99"/>
</g>
<!-- Lazer -->
<g id="Lazer" class="node">
<title>Lazer</title>
<ellipse fill="none" stroke="black" cx="537.15" cy="-87.41" rx="36.5" ry="18"/>
<text text-anchor="middle" x="537.15" y="-83.71" font-family="Times,serif" font-size="14.00">Lazer</text>
</g>
<!-- Arasare&#45;&#45;Lazer -->
<g id="edge34" class="edge">
<title>Arasare&#45;&#45;Lazer</title>
<path fill="none" stroke="black" d="M547.63,-140.82C545.52,-130.07 542.85,-116.47 540.73,-105.68"/>
</g>
<!-- Yvelet&#45;&#45;Yveve -->
<g id="edge35" class="edge">
<title>Yvelet&#45;&#45;Yveve</title>
<path fill="none" stroke="black" d="M549.69,-235.63C550.08,-243.93 550.53,-253.73 550.92,-262.05"/>
</g>
<!-- Stoure -->
<g id="Stoure" class="node">
<title>Stoure</title>
<ellipse fill="none" stroke="black" cx="535.21" cy="-18" rx="42.49" ry="18"/>
<text text-anchor="middle" x="535.21" y="-14.3" font-family="Times,serif" font-size="14.00">Stoure</text>
</g>
<!-- Lazer&#45;&#45;Stoure -->
<g id="edge36" class="edge">
<title>Lazer&#45;&#45;Stoure</title>
<path fill="none" stroke="black" d="M536.64,-69.17C536.36,-59.05 536,-46.5 535.72,-36.36"/>
</g>
<!-- Arittant -->
<g id="Arittant" class="node">
<title>Arittant</title>
<ellipse fill="none" stroke="black" cx="276.89" cy="-345.64" rx="47.5" ry="18"/>
<text text-anchor="middle" x="276.89" y="-341.94" font-family="Times,serif" font-size="14.00">Arittant</text>
</g>
<!-- Arittant&#45;&#45;Heluene -->
<g id="edge37" class="edge">
<title>Arittant&#45;&#45;Heluene</title>
<path fill="none" stroke="black" d="M322.52,-350.77C330.69,-351.69 339.23,-352.65 347.45,-353.57"/>
</g>
<!-- Hare -->
<g id="Hare" class="node">
<title>Hare</title>
<ellipse fill="none" stroke="black" cx="361.52" cy="-446.96" rx="34" ry="18"/>
<text text-anchor="middle" x="361.52" y="-443.26" font-family="Times,serif" font-size="14.00">Hare</text>
</g>
<!-- Hare&#45;&#45;Heluene -->
<g id="edge38" class="edge">
<title>Hare&#45;&#45;Heluene</title>
<path fill="none" stroke="black" d="M368.28,-429.14C374.03,-413.97 382.26,-392.26 388.05,-377.01"/>
</g>
<!-- Hare&#45;&#45;Oruse -->
<g id="edge39" class="edge">
<title>Hare&#45;&#45;Oruse</title>
<path fill="none" stroke="black" d="M350.71,-429.81C348.76,-426.72 346.72,-423.49 344.77,-420.39"/>
</g>
<!-- Ogaria -->
<g id="Ogaria" class="node">
<title>Ogaria</title>
<ellipse fill="none" stroke="black" cx="397.1" cy="-535.11" rx="42.49" ry="18"/>
<text text-anchor="middle" x="397.1" y="-531.41" font-family="Times,serif" font-size="14.00">Ogaria</text>
</g>
<!-- Hare&#45;&#45;Ogaria -->
<g id="edge40" class="edge">
<title>Hare&#45;&#45;Ogaria</title>
<path fill="none" stroke="black" d="M368.72,-464.8C374.9,-480.09 383.74,-502.01 389.91,-517.3"/>
</g>
<!-- Faurulle -->
<g id="Faurulle" class="node">
<title>Faurulle</title>
<ellipse fill="none" stroke="black" cx="341.13" cy="-579.13" rx="49.5" ry="18"/>
<text text-anchor="middle" x="341.13" y="-575.43" font-family="Times,serif" font-size="14.00">Faurulle</text>
</g>
<!-- Faurulle&#45;&#45;D85&#45;VD -->
<g id="edge41" class="edge">
<title>Faurulle&#45;&#45;D85&#45;VD</title>
<path fill="none" stroke="black" d="M342.7,-597.2C343.92,-611.16 345.59,-630.41 346.81,-644.37"/>
</g>
<!-- Faurulle&#45;&#45;Ogaria -->
<g id="edge42" class="edge">
<title>Faurulle&#45;&#45;Ogaria</title>
<path fill="none" stroke="black" d="M361.97,-562.74C366.82,-558.92 371.97,-554.87 376.8,-551.08"/>
</g>
<!-- Agaullores -->
<g id="Agaullores" class="node">
<title>Agaullores</title>
<ellipse fill="none" stroke="black" cx="243.52" cy="-623.17" rx="60" ry="18"/>
<text text-anchor="middle" x="243.52" y="-619.47" font-family="Times,serif" font-size="14.00">Agaullores</text>
</g>
<!-- Agaullores&#45;&#45;Faurulle -->
<g id="edge43" class="edge">
<title>Agaullores&#45;&#45;Faurulle</title>
<path fill="none" stroke="black" d="M276.84,-608.13C287.55,-603.3 299.38,-597.96 309.93,-593.2"/>
</g>
<!-- Shirshocin -->
<g id="Shirshocin" class="node">
<title>Shirshocin</title>
<polygon fill="none" stroke="black" points="254.15,-686 162.15,-686 162.15,-650 254.15,-650 254.15,-686"/>
<text text-anchor="middle" x="208.15" y="-664.3" font-family="Times,serif" font-size="14.00">Shirshocin</text>
</g>
<!-- Agaullores&#45;&#45;Shirshocin -->
<g id="edge44" class="edge">
<title>Agaullores&#45;&#45;Shirshocin</title>
<path fill="none" stroke="black" d="M229.54,-640.89C227.22,-643.82 224.82,-646.87 222.49,-649.82"/>
</g>
<!-- Babirmoult -->
<g id="Babirmoult" class="node">
<title>Babirmoult</title>
<ellipse fill="none" stroke="black" cx="300.08" cy="-491.03" rx="63.09" ry="18"/>
<text text-anchor="middle" x="300.08" y="-487.33" font-family="Times,serif" font-size="14.00">Babirmoult</text>
</g>
<!-- Babirmoult&#45;&#45;Hare -->
<g id="edge45" class="edge">
<title>Babirmoult&#45;&#45;Hare</title>
<path fill="none" stroke="black" d="M323.66,-474.12C329.48,-469.94 335.67,-465.51 341.31,-461.46"/>
</g>
<!-- Babirmoult&#45;&#45;Faurulle -->
<g id="edge46" class="edge">
<title>Babirmoult&#45;&#45;Faurulle</title>
<path fill="none" stroke="black" d="M308.59,-509.28C315.68,-524.5 325.73,-546.07 332.78,-561.2"/>
</g>
<!-- Ratillose -->
<g id="Ratillose" class="node">
<title>Ratillose</title>
<ellipse fill="none" stroke="black" cx="356.8" cy="-210.09" rx="51.5" ry="18"/>
<text text-anchor="middle" x="356.8" y="-206.39" font-family="Times,serif" font-size="14.00">Ratillose</text>
</g>
<!-- Ratillose&#45;&#45;Vevelonel -->
<g id="edge47" class="edge">
<title>Ratillose&#45;&#45;Vevelonel</title>
<path fill="none" stroke="black" d="M361.18,-228.25C361.79,-230.8 362.43,-233.43 363.05,-235.99"/>
</g>
<!-- Ondree -->
<g id="Ondree" class="node">
<title>Ondree</title>
<ellipse fill="none" stroke="black" cx="305.91" cy="-166.08" rx="45" ry="18"/>
<text text-anchor="middle" x="305.91" y="-162.38" font-family="Times,serif" font-size="14.00">Ondree</text>
</g>
<!-- Ondree&#45;&#45;Ratillose -->
<g id="edge48" class="edge">
<title>Ondree&#45;&#45;Ratillose</title>
<path fill="none" stroke="black" d="M324.86,-182.47C328.93,-185.99 333.23,-189.71 337.32,-193.25"/>
</g>
<!-- Pochelympe -->
<g id="Pochelympe" class="node">
<title>Pochelympe</title>
<ellipse fill="none" stroke="black" cx="186.65" cy="-145.28" rx="66.5" ry="18"/>
<text text-anchor="middle" x="186.65" y="-141.58" font-family="Times,serif" font-size="14.00">Pochelympe</text>
</g>
<!-- Ondree&#45;&#45;Pochelympe -->
<g id="edge49" class="edge">
<title>Ondree&#45;&#45;Pochelympe</title>
<path fill="none" stroke="black" d="M264.53,-158.86C257.4,-157.62 249.89,-156.31 242.45,-155.01"/>
</g>
<!-- Straloin -->
<g id="Straloin" class="node">
<title>Straloin</title>
<ellipse fill="none" stroke="black" cx="282" cy="-89.53" rx="48.19" ry="18"/>
<text text-anchor="middle" x="282" y="-85.83" font-family="Times,serif" font-size="14.00">Straloin</text>
</g>
<!-- Ondree&#45;&#45;Straloin -->
<g id="edge50" class="edge">
<title>Ondree&#45;&#45;Straloin</title>
<path fill="none" stroke="black" d="M300.24,-147.94C296.43,-135.74 291.43,-119.72 287.63,-107.54"/>
</g>
<!-- Toustain -->
<g id="Toustain" class="node">
<title>Toustain</title>
<ellipse fill="none" stroke="black" cx="173.03" cy="-57.01" rx="50.09" ry="18"/>
<text text-anchor="middle" x="173.03" y="-53.31" font-family="Times,serif" font-size="14.00">Toustain</text>
</g>
<!-- Pochelympe&#45;&#45;Toustain -->
<g id="edge51" class="edge">
<title>Pochelympe&#45;&#45;Toustain</title>
<path fill="none" stroke="black" d="M183.83,-126.99C181.49,-111.84 178.19,-90.42 175.85,-75.28"/>
</g>
<!-- Straloin&#45;&#45;Toustain -->
<g id="edge52" class="edge">
<title>Straloin&#45;&#45;Toustain</title>
<path fill="none" stroke="black" d="M244.2,-78.25C233.75,-75.13 222.39,-71.74 211.88,-68.61"/>
</g>
<!-- Eggheron -->
<g id="Eggheron" class="node">
<title>Eggheron</title>
<ellipse fill="none" stroke="black" cx="109.44" cy="-101.21" rx="56" ry="18"/>
<text text-anchor="middle" x="109.44" y="-97.51" font-family="Times,serif" font-size="14.00">Eggheron</text>
</g>
<!-- Eggheron&#45;&#45;Pochelympe -->
<g id="edge53" class="edge">
<title>Eggheron&#45;&#45;Pochelympe</title>
<path fill="none" stroke="black" d="M137.31,-117.12C144.05,-120.97 151.26,-125.09 158.04,-128.95"/>
</g>
<!-- Eggheron&#45;&#45;Toustain -->
<g id="edge54" class="edge">
<title>Eggheron&#45;&#45;Toustain</title>
<path fill="none" stroke="black" d="M133.12,-84.75C138.63,-80.92 144.48,-76.85 149.97,-73.04"/>
</g>
<!-- Kenninck -->
<g id="Kenninck" class="node">
<title>Kenninck</title>
<polygon fill="none" stroke="black" points="82,-75.16 0,-75.16 0,-39.16 82,-39.16 82,-75.16"/>
<text text-anchor="middle" x="41" y="-53.46" font-family="Times,serif" font-size="14.00">Kenninck</text>
</g>
<!-- Eggheron&#45;&#45;Kenninck -->
<g id="edge55" class="edge">
<title>Eggheron&#45;&#45;Kenninck</title>
<path fill="none" stroke="black" d="M84.34,-85.06C79.46,-81.92 74.31,-78.6 69.33,-75.39"/>
</g>
</g>
</svg>
