<?xml version="1.0" encoding="UTF-8" standalone="no"?>
<!DOCTYPE svg PUBLIC "-//W3C//DTD SVG 1.1//EN"
 "http://www.w3.org/Graphics/SVG/1.1/DTD/svg11.dtd">
<!-- Generated by graphviz version 2.43.0 (0)
 -->
<!-- Pages: 1 -->
<svg width="1130pt" height="1213pt"
 viewBox="0.00 0.00 1130.10 1212.70" xmlns="http://www.w3.org/2000/svg" xmlns:xlink="http://www.w3.org/1999/xlink">
<g id="graph0" class="graph" transform="scale(1 1) rotate(0) translate(4 1208.7)">
<polygon fill="white" stroke="transparent" points="-4,4 -4,-1208.7 1126.1,-1208.7 1126.1,4 -4,4"/>
<!-- 77S8&#45;E -->
<g id="77S8&#45;E" class="node">
<title>77S8&#45;E</title>
<polygon fill="none" stroke="black" points="570.08,-1033.6 502.08,-1033.6 502.08,-997.6 570.08,-997.6 570.08,-1033.6"/>
<text text-anchor="middle" x="536.08" y="-1011.9" font-family="Times,serif" font-size="14.00">77S8&#45;E</text>
</g>
<!-- Q&#45;S7ZD -->
<g id="Q&#45;S7ZD" class="node">
<title>Q&#45;S7ZD</title>
<polygon fill="none" stroke="black" points="735.25,-221.65 662.25,-221.65 662.25,-185.65 735.25,-185.65 735.25,-221.65"/>
<text text-anchor="middle" x="698.75" y="-199.95" font-family="Times,serif" font-size="14.00">Q&#45;S7ZD</text>
</g>
<!-- XVV&#45;21 -->
<g id="XVV&#45;21" class="node">
<title>XVV&#45;21</title>
<polygon fill="none" stroke="black" points="1122.1,-405.22 1054.1,-405.22 1054.1,-369.22 1122.1,-369.22 1122.1,-405.22"/>
<text text-anchor="middle" x="1088.1" y="-383.52" font-family="Times,serif" font-size="14.00">XVV&#45;21</text>
</g>
<!-- Y&#45;FZ5N -->
<g id="Y&#45;FZ5N" class="node">
<title>Y&#45;FZ5N</title>
<polygon fill="none" stroke="black" points="1089.2,-556.38 1020.2,-556.38 1020.2,-520.38 1089.2,-520.38 1089.2,-556.38"/>
<text text-anchor="middle" x="1054.7" y="-534.68" font-family="Times,serif" font-size="14.00">Y&#45;FZ5N</text>
</g>
<!-- RU&#45;PT9 -->
<g id="RU&#45;PT9" class="node">
<title>RU&#45;PT9</title>
<polygon fill="none" stroke="black" points="304.71,-981.85 233.71,-981.85 233.71,-945.85 304.71,-945.85 304.71,-981.85"/>
<text text-anchor="middle" x="269.21" y="-960.15" font-family="Times,serif" font-size="14.00">RU&#45;PT9</text>
</g>
<!-- 1&#45;7KWU -->
<g id="1&#45;7KWU" class="node">
<title>1&#45;7KWU</title>
<polygon fill="none" stroke="black" points="276.96,-165.08 201.96,-165.08 201.96,-129.08 276.96,-129.08 276.96,-165.08"/>
<text text-anchor="middle" x="239.46" y="-143.38" font-family="Times,serif" font-size="14.00">1&#45;7KWU</text>
</g>
<!-- JI&#45;LGM -->
<g id="JI&#45;LGM" class="node">
<title>JI&#45;LGM</title>
<polygon fill="none" stroke="black" points="307.62,-456.75 241.62,-456.75 241.62,-420.75 307.62,-420.75 307.62,-456.75"/>
<text text-anchor="middle" x="274.62" y="-435.05" font-family="Times,serif" font-size="14.00">JI&#45;LGM</text>
</g>
<!-- WB&#45;AYY -->
<g id="WB&#45;AYY" class="node">
<title>WB&#45;AYY</title>
<ellipse fill="none" stroke="black" cx="994.32" cy="-451.96" rx="48.19" ry="18"/>
<text text-anchor="middle" x="994.32" y="-448.26" font-family="Times,serif" font-size="14.00">WB&#45;AYY</text>
</g>
<!-- BW&#45;WJ2 -->
<g id="BW&#45;WJ2" class="node">
<title>BW&#45;WJ2</title>
<ellipse fill="none" stroke="black" cx="988.84" cy="-388.67" rx="47.5" ry="18"/>
<text text-anchor="middle" x="988.84" y="-384.97" font-family="Times,serif" font-size="14.00">BW&#45;WJ2</text>
</g>
<!-- BW&#45;WJ2&#45;&#45;XVV&#45;21 -->
<g id="edge1" class="edge">
<title>BW&#45;WJ2&#45;&#45;XVV&#45;21</title>
<path fill="none" stroke="black" d="M1036.4,-387.97C1042.3,-387.89 1048.2,-387.8 1053.8,-387.72"/>
</g>
<!-- S4&#45;9DN -->
<g id="S4&#45;9DN" class="node">
<title>S4&#45;9DN</title>
<ellipse fill="none" stroke="black" cx="885.57" cy="-402.29" rx="47" ry="18"/>
<text text-anchor="middle" x="885.57" y="-398.59" font-family="Times,serif" font-size="14.00">S4&#45;9DN</text>
</g>
<!-- BW&#45;WJ2&#45;&#45;S4&#45;9DN -->
<g id="edge2" class="edge">
<title>BW&#45;WJ2&#45;&#45;S4&#45;9DN</title>
<path fill="none" stroke="black" d="M943.84,-394.6C939.28,-395.21 934.64,-395.82 930.08,-396.42"/>
</g>
<!-- S4&#45;9DN&#45;&#45;WB&#45;AYY -->
<g id="edge3" class="edge">
<title>S4&#45;9DN&#45;&#45;WB&#45;AYY</title>
<path fill="none" stroke="black" d="M915.86,-416.13C930.82,-422.96 948.82,-431.18 963.81,-438.03"/>
</g>
<!-- DT&#45;PXH -->
<g id="DT&#45;PXH" class="node">
<title>DT&#45;PXH</title>
<ellipse fill="none" stroke="black" cx="816.72" cy="-270.45" rx="46.29" ry="18"/>
<text text-anchor="middle" x="816.72" y="-266.75" font-family="Times,serif" font-size="14.00">DT&#45;PXH</text>
</g>
<!-- DT&#45;PXH&#45;&#45;S4&#45;9DN -->
<g id="edge4" class="edge">
<title>DT&#45;PXH&#45;&#45;S4&#45;9DN</title>
<path fill="none" stroke="black" d="M826.01,-288.23C839.15,-313.4 863.03,-359.13 876.21,-384.37"/>
</g>
<!-- UALX&#45;3 -->
<g id="UALX&#45;3" class="node">
<title>UALX&#45;3</title>
<ellipse fill="none" stroke="black" cx="710.32" cy="-247.68" rx="45.5" ry="18"/>
<text text-anchor="middle" x="710.32" y="-243.98" font-family="Times,serif" font-size="14.00">UALX&#45;3</text>
</g>
<!-- DT&#45;PXH&#45;&#45;UALX&#45;3 -->
<g id="edge5" class="edge">
<title>DT&#45;PXH&#45;&#45;UALX&#45;3</title>
<path fill="none" stroke="black" d="M776.19,-261.78C767.73,-259.97 758.82,-258.06 750.38,-256.26"/>
</g>
<!-- Y&#45;ORBJ -->
<g id="Y&#45;ORBJ" class="node">
<title>Y&#45;ORBJ</title>
<ellipse fill="none" stroke="black" cx="672.07" cy="-291.69" rx="43" ry="18"/>
<text text-anchor="middle" x="672.07" y="-287.99" font-family="Times,serif" font-size="14.00">Y&#45;ORBJ</text>
</g>
<!-- UALX&#45;3&#45;&#45;Y&#45;ORBJ -->
<g id="edge6" class="edge">
<title>UALX&#45;3&#45;&#45;Y&#45;ORBJ</title>
<path fill="none" stroke="black" d="M695.42,-264.82C692.65,-268.01 689.76,-271.34 686.99,-274.52"/>
</g>
<!-- 3L3N&#45;X -->
<g id="3L3N&#45;X" class="node">
<title>3L3N&#45;X</title>
<ellipse fill="none" stroke="black" cx="559.75" cy="-261" rx="45.5" ry="18"/>
<text text-anchor="middle" x="559.75" y="-257.3" font-family="Times,serif" font-size="14.00">3L3N&#45;X</text>
</g>
<!-- 3L3N&#45;X&#45;&#45;Q&#45;S7ZD -->
<g id="edge7" class="edge">
<title>3L3N&#45;X&#45;&#45;Q&#45;S7ZD</title>
<path fill="none" stroke="black" d="M591.29,-247.99C612.36,-239.3 640.14,-227.84 662.17,-218.74"/>
</g>
<!-- 3L3N&#45;X&#45;&#45;UALX&#45;3 -->
<g id="edge8" class="edge">
<title>3L3N&#45;X&#45;&#45;UALX&#45;3</title>
<path fill="none" stroke="black" d="M604.52,-257.04C623.85,-255.33 646.41,-253.33 665.72,-251.63"/>
</g>
<!-- 4&#45;P4FE -->
<g id="4&#45;P4FE" class="node">
<title>4&#45;P4FE</title>
<ellipse fill="none" stroke="black" cx="522.24" cy="-216.99" rx="45" ry="18"/>
<text text-anchor="middle" x="522.24" y="-213.29" font-family="Times,serif" font-size="14.00">4&#45;P4FE</text>
</g>
<!-- 3L3N&#45;X&#45;&#45;4&#45;P4FE -->
<g id="edge9" class="edge">
<title>3L3N&#45;X&#45;&#45;4&#45;P4FE</title>
<path fill="none" stroke="black" d="M545.14,-243.86C542.42,-240.68 539.59,-237.35 536.87,-234.16"/>
</g>
<!-- RH0&#45;EG -->
<g id="RH0&#45;EG" class="node">
<title>RH0&#45;EG</title>
<ellipse fill="none" stroke="black" cx="421.22" cy="-248.64" rx="48.19" ry="18"/>
<text text-anchor="middle" x="421.22" y="-244.94" font-family="Times,serif" font-size="14.00">RH0&#45;EG</text>
</g>
<!-- 4&#45;P4FE&#45;&#45;RH0&#45;EG -->
<g id="edge10" class="edge">
<title>4&#45;P4FE&#45;&#45;RH0&#45;EG</title>
<path fill="none" stroke="black" d="M486.62,-228.15C477.42,-231.04 467.49,-234.15 458.22,-237.05"/>
</g>
<!-- QRBN&#45;M -->
<g id="QRBN&#45;M" class="node">
<title>QRBN&#45;M</title>
<ellipse fill="none" stroke="black" cx="601.93" cy="-168.39" rx="52" ry="18"/>
<text text-anchor="middle" x="601.93" y="-164.69" font-family="Times,serif" font-size="14.00">QRBN&#45;M</text>
</g>
<!-- 4&#45;P4FE&#45;&#45;QRBN&#45;M -->
<g id="edge11" class="edge">
<title>4&#45;P4FE&#45;&#45;QRBN&#45;M</title>
<path fill="none" stroke="black" d="M547.02,-201.88C556.25,-196.25 566.74,-189.85 576.07,-184.16"/>
</g>
<!-- 6&#45;IAFR -->
<g id="6&#45;IAFR" class="node">
<title>6&#45;IAFR</title>
<ellipse fill="none" stroke="black" cx="672.55" cy="-335.7" rx="42.49" ry="18"/>
<text text-anchor="middle" x="672.55" y="-332" font-family="Times,serif" font-size="14.00">6&#45;IAFR</text>
</g>
<!-- 6&#45;IAFR&#45;&#45;Y&#45;ORBJ -->
<g id="edge12" class="edge">
<title>6&#45;IAFR&#45;&#45;Y&#45;ORBJ</title>
<path fill="none" stroke="black" d="M672.35,-317.55C672.33,-314.99 672.3,-312.36 672.27,-309.8"/>
</g>
<!-- ZD1&#45;Z2 -->
<g id="ZD1&#45;Z2" class="node">
<title>ZD1&#45;Z2</title>
<ellipse fill="none" stroke="black" cx="692.73" cy="-379.74" rx="45.5" ry="18"/>
<text text-anchor="middle" x="692.73" y="-376.04" font-family="Times,serif" font-size="14.00">ZD1&#45;Z2</text>
</g>
<!-- 6&#45;IAFR&#45;&#45;ZD1&#45;Z2 -->
<g id="edge13" class="edge">
<title>6&#45;IAFR&#45;&#45;ZD1&#45;Z2</title>
<path fill="none" stroke="black" d="M680.76,-353.61C682.03,-356.38 683.34,-359.23 684.6,-361.99"/>
</g>
<!-- D&#45;9UEV -->
<g id="D&#45;9UEV" class="node">
<title>D&#45;9UEV</title>
<ellipse fill="none" stroke="black" cx="316.98" cy="-247.66" rx="48.19" ry="18"/>
<text text-anchor="middle" x="316.98" y="-243.96" font-family="Times,serif" font-size="14.00">D&#45;9UEV</text>
</g>
<!-- D&#45;9UEV&#45;&#45;RH0&#45;EG -->
<g id="edge14" class="edge">
<title>D&#45;9UEV&#45;&#45;RH0&#45;EG</title>
<path fill="none" stroke="black" d="M365.13,-248.11C367.7,-248.14 370.27,-248.16 372.83,-248.19"/>
</g>
<!-- H&#45;HWQR -->
<g id="H&#45;HWQR" class="node">
<title>H&#45;HWQR</title>
<ellipse fill="none" stroke="black" cx="277.11" cy="-191.38" rx="52.79" ry="18"/>
<text text-anchor="middle" x="277.11" y="-187.68" font-family="Times,serif" font-size="14.00">H&#45;HWQR</text>
</g>
<!-- D&#45;9UEV&#45;&#45;H&#45;HWQR -->
<g id="edge15" class="edge">
<title>D&#45;9UEV&#45;&#45;H&#45;HWQR</title>
<path fill="none" stroke="black" d="M304.58,-230.16C299.83,-223.45 294.4,-215.79 289.64,-209.06"/>
</g>
<!-- H&#45;HWQR&#45;&#45;1&#45;7KWU -->
<g id="edge16" class="edge">
<title>H&#45;HWQR&#45;&#45;1&#45;7KWU</title>
<path fill="none" stroke="black" d="M262.23,-173.87C259.85,-171.07 257.37,-168.16 254.98,-165.34"/>
</g>
<!-- 78R&#45;PI -->
<g id="78R&#45;PI" class="node">
<title>78R&#45;PI</title>
<ellipse fill="none" stroke="black" cx="380.05" cy="-193.51" rx="42.49" ry="18"/>
<text text-anchor="middle" x="380.05" y="-189.81" font-family="Times,serif" font-size="14.00">78R&#45;PI</text>
</g>
<!-- 78R&#45;PI&#45;&#45;RH0&#45;EG -->
<g id="edge17" class="edge">
<title>78R&#45;PI&#45;&#45;RH0&#45;EG</title>
<path fill="none" stroke="black" d="M393.08,-210.95C397.88,-217.39 403.33,-224.68 408.14,-231.12"/>
</g>
<!-- 78R&#45;PI&#45;&#45;D&#45;9UEV -->
<g id="edge18" class="edge">
<title>78R&#45;PI&#45;&#45;D&#45;9UEV</title>
<path fill="none" stroke="black" d="M361.13,-209.75C353.29,-216.48 344.21,-224.28 336.33,-231.05"/>
</g>
<!-- 78R&#45;PI&#45;&#45;H&#45;HWQR -->
<g id="edge19" class="edge">
<title>78R&#45;PI&#45;&#45;H&#45;HWQR</title>
<path fill="none" stroke="black" d="M337.59,-192.63C335.04,-192.58 332.46,-192.52 329.88,-192.47"/>
</g>
<!-- C&#45;FD0D -->
<g id="C&#45;FD0D" class="node">
<title>C&#45;FD0D</title>
<ellipse fill="none" stroke="black" cx="726.29" cy="-423.74" rx="47.5" ry="18"/>
<text text-anchor="middle" x="726.29" y="-420.04" font-family="Times,serif" font-size="14.00">C&#45;FD0D</text>
</g>
<!-- C&#45;FD0D&#45;&#45;ZD1&#45;Z2 -->
<g id="edge20" class="edge">
<title>C&#45;FD0D&#45;&#45;ZD1&#45;Z2</title>
<path fill="none" stroke="black" d="M713.03,-406.35C710.69,-403.28 708.24,-400.08 705.9,-397.01"/>
</g>
<!-- S&#45;9RCJ -->
<g id="S&#45;9RCJ" class="node">
<title>S&#45;9RCJ</title>
<ellipse fill="none" stroke="black" cx="865.03" cy="-474.78" rx="43" ry="18"/>
<text text-anchor="middle" x="865.03" y="-471.08" font-family="Times,serif" font-size="14.00">S&#45;9RCJ</text>
</g>
<!-- C&#45;FD0D&#45;&#45;S&#45;9RCJ -->
<g id="edge21" class="edge">
<title>C&#45;FD0D&#45;&#45;S&#45;9RCJ</title>
<path fill="none" stroke="black" d="M760.59,-436.36C782.58,-444.45 810.94,-454.88 832.56,-462.84"/>
</g>
<!-- W&#45;16DY -->
<g id="W&#45;16DY" class="node">
<title>W&#45;16DY</title>
<ellipse fill="none" stroke="black" cx="766.6" cy="-469.45" rx="47.5" ry="18"/>
<text text-anchor="middle" x="766.6" y="-465.75" font-family="Times,serif" font-size="14.00">W&#45;16DY</text>
</g>
<!-- C&#45;FD0D&#45;&#45;W&#45;16DY -->
<g id="edge22" class="edge">
<title>C&#45;FD0D&#45;&#45;W&#45;16DY</title>
<path fill="none" stroke="black" d="M741.53,-441.02C744.74,-444.67 748.13,-448.51 751.34,-452.15"/>
</g>
<!-- S&#45;9RCJ&#45;&#45;W&#45;16DY -->
<g id="edge23" class="edge">
<title>S&#45;9RCJ&#45;&#45;W&#45;16DY</title>
<path fill="none" stroke="black" d="M822.43,-472.48C819.52,-472.32 816.58,-472.16 813.65,-472"/>
</g>
<!-- ZMV9&#45;A -->
<g id="ZMV9&#45;A" class="node">
<title>ZMV9&#45;A</title>
<ellipse fill="none" stroke="black" cx="964.03" cy="-501.56" rx="48.19" ry="18"/>
<text text-anchor="middle" x="964.03" y="-497.86" font-family="Times,serif" font-size="14.00">ZMV9&#45;A</text>
</g>
<!-- S&#45;9RCJ&#45;&#45;ZMV9&#45;A -->
<g id="edge24" class="edge">
<title>S&#45;9RCJ&#45;&#45;ZMV9&#45;A</title>
<path fill="none" stroke="black" d="M901.33,-484.6C908.95,-486.66 917.01,-488.84 924.73,-490.93"/>
</g>
<!-- ZMV9&#45;A&#45;&#45;Y&#45;FZ5N -->
<g id="edge25" class="edge">
<title>ZMV9&#45;A&#45;&#45;Y&#45;FZ5N</title>
<path fill="none" stroke="black" d="M996.76,-514.86C1004.4,-517.95 1012.5,-521.24 1020.2,-524.36"/>
</g>
<!-- FE&#45;6YQ -->
<g id="FE&#45;6YQ" class="node">
<title>FE&#45;6YQ</title>
<ellipse fill="none" stroke="black" cx="943.74" cy="-571.41" rx="46.29" ry="18"/>
<text text-anchor="middle" x="943.74" y="-567.71" font-family="Times,serif" font-size="14.00">FE&#45;6YQ</text>
</g>
<!-- FE&#45;6YQ&#45;&#45;ZMV9&#45;A -->
<g id="edge26" class="edge">
<title>FE&#45;6YQ&#45;&#45;ZMV9&#45;A</title>
<path fill="none" stroke="black" d="M948.96,-553.42C951.97,-543.08 955.74,-530.11 958.75,-519.73"/>
</g>
<!-- M&#45;4KDB -->
<g id="M&#45;4KDB" class="node">
<title>M&#45;4KDB</title>
<ellipse fill="none" stroke="black" cx="850.74" cy="-519.63" rx="50.09" ry="18"/>
<text text-anchor="middle" x="850.74" y="-515.93" font-family="Times,serif" font-size="14.00">M&#45;4KDB</text>
</g>
<!-- FE&#45;6YQ&#45;&#45;M&#45;4KDB -->
<g id="edge27" class="edge">
<title>FE&#45;6YQ&#45;&#45;M&#45;4KDB</title>
<path fill="none" stroke="black" d="M916.84,-556.43C904.61,-549.62 890.16,-541.58 877.9,-534.75"/>
</g>
<!-- M&#45;4KDB&#45;&#45;W&#45;16DY -->
<g id="edge28" class="edge">
<title>M&#45;4KDB&#45;&#45;W&#45;16DY</title>
<path fill="none" stroke="black" d="M824.58,-504.03C814.25,-497.87 802.43,-490.82 792.17,-484.7"/>
</g>
<!-- C3&#45;0YD -->
<g id="C3&#45;0YD" class="node">
<title>C3&#45;0YD</title>
<ellipse fill="none" stroke="black" cx="709.09" cy="-150.06" rx="45.5" ry="18"/>
<text text-anchor="middle" x="709.09" y="-146.36" font-family="Times,serif" font-size="14.00">C3&#45;0YD</text>
</g>
<!-- C3&#45;0YD&#45;&#45;QRBN&#45;M -->
<g id="edge29" class="edge">
<title>C3&#45;0YD&#45;&#45;QRBN&#45;M</title>
<path fill="none" stroke="black" d="M667.05,-157.25C661.07,-158.27 654.88,-159.33 648.82,-160.37"/>
</g>
<!-- PDF&#45;3Z -->
<g id="PDF&#45;3Z" class="node">
<title>PDF&#45;3Z</title>
<ellipse fill="none" stroke="black" cx="721.89" cy="-106.04" rx="45.5" ry="18"/>
<text text-anchor="middle" x="721.89" y="-102.34" font-family="Times,serif" font-size="14.00">PDF&#45;3Z</text>
</g>
<!-- C3&#45;0YD&#45;&#45;PDF&#45;3Z -->
<g id="edge30" class="edge">
<title>C3&#45;0YD&#45;&#45;PDF&#45;3Z</title>
<path fill="none" stroke="black" d="M714.3,-132.16C715.07,-129.49 715.87,-126.74 716.65,-124.07"/>
</g>
<!-- PEK&#45;8Z -->
<g id="PEK&#45;8Z" class="node">
<title>PEK&#45;8Z</title>
<ellipse fill="none" stroke="black" cx="820.89" cy="-99.63" rx="45.5" ry="18"/>
<text text-anchor="middle" x="820.89" y="-95.93" font-family="Times,serif" font-size="14.00">PEK&#45;8Z</text>
</g>
<!-- PDF&#45;3Z&#45;&#45;PEK&#45;8Z -->
<g id="edge31" class="edge">
<title>PDF&#45;3Z&#45;&#45;PEK&#45;8Z</title>
<path fill="none" stroke="black" d="M767.04,-103.12C770,-102.93 772.98,-102.73 775.94,-102.54"/>
</g>
<!-- 9&#45;MJVQ -->
<g id="9&#45;MJVQ" class="node">
<title>9&#45;MJVQ</title>
<ellipse fill="none" stroke="black" cx="683.62" cy="-62.04" rx="46.29" ry="18"/>
<text text-anchor="middle" x="683.62" y="-58.34" font-family="Times,serif" font-size="14.00">9&#45;MJVQ</text>
</g>
<!-- 9&#45;MJVQ&#45;&#45;PDF&#45;3Z -->
<g id="edge32" class="edge">
<title>9&#45;MJVQ&#45;&#45;PDF&#45;3Z</title>
<path fill="none" stroke="black" d="M698.52,-79.18C701.29,-82.36 704.19,-85.69 706.96,-88.88"/>
</g>
<!-- L2GN&#45;K -->
<g id="L2GN&#45;K" class="node">
<title>L2GN&#45;K</title>
<ellipse fill="none" stroke="black" cx="737.71" cy="-18.01" rx="47.5" ry="18"/>
<text text-anchor="middle" x="737.71" y="-14.31" font-family="Times,serif" font-size="14.00">L2GN&#45;K</text>
</g>
<!-- 9&#45;MJVQ&#45;&#45;L2GN&#45;K -->
<g id="edge33" class="edge">
<title>9&#45;MJVQ&#45;&#45;L2GN&#45;K</title>
<path fill="none" stroke="black" d="M703.76,-45.64C708.2,-42.02 712.91,-38.19 717.37,-34.56"/>
</g>
<!-- 4&#45;IT9G -->
<g id="4&#45;IT9G" class="node">
<title>4&#45;IT9G</title>
<ellipse fill="none" stroke="black" cx="619.34" cy="-18" rx="42.49" ry="18"/>
<text text-anchor="middle" x="619.34" y="-14.3" font-family="Times,serif" font-size="14.00">4&#45;IT9G</text>
</g>
<!-- 4&#45;IT9G&#45;&#45;9&#45;MJVQ -->
<g id="edge34" class="edge">
<title>4&#45;IT9G&#45;&#45;9&#45;MJVQ</title>
<path fill="none" stroke="black" d="M641.82,-33.4C647.9,-37.57 654.49,-42.09 660.61,-46.27"/>
</g>
<!-- 2PG&#45;KN -->
<g id="2PG&#45;KN" class="node">
<title>2PG&#45;KN</title>
<ellipse fill="none" stroke="black" cx="923.83" cy="-55.98" rx="48.19" ry="18"/>
<text text-anchor="middle" x="923.83" y="-52.28" font-family="Times,serif" font-size="14.00">2PG&#45;KN</text>
</g>
<!-- 2PG&#45;KN&#45;&#45;PEK&#45;8Z -->
<g id="edge35" class="edge">
<title>2PG&#45;KN&#45;&#45;PEK&#45;8Z</title>
<path fill="none" stroke="black" d="M891.83,-69.56C879.19,-74.91 864.73,-81.04 852.17,-86.37"/>
</g>
<!-- ABE&#45;M2 -->
<g id="ABE&#45;M2" class="node">
<title>ABE&#45;M2</title>
<ellipse fill="none" stroke="black" cx="650.83" cy="-467.77" rx="48.99" ry="18"/>
<text text-anchor="middle" x="650.83" y="-464.07" font-family="Times,serif" font-size="14.00">ABE&#45;M2</text>
</g>
<!-- ABE&#45;M2&#45;&#45;W&#45;16DY -->
<g id="edge36" class="edge">
<title>ABE&#45;M2&#45;&#45;W&#45;16DY</title>
<path fill="none" stroke="black" d="M699.59,-468.48C706.02,-468.57 712.6,-468.67 719.01,-468.76"/>
</g>
<!-- IL&#45;YTR -->
<g id="IL&#45;YTR" class="node">
<title>IL&#45;YTR</title>
<ellipse fill="none" stroke="black" cx="574.19" cy="-414.33" rx="40.5" ry="18"/>
<text text-anchor="middle" x="574.19" y="-410.63" font-family="Times,serif" font-size="14.00">IL&#45;YTR</text>
</g>
<!-- ABE&#45;M2&#45;&#45;IL&#45;YTR -->
<g id="edge37" class="edge">
<title>ABE&#45;M2&#45;&#45;IL&#45;YTR</title>
<path fill="none" stroke="black" d="M627.83,-451.74C617.78,-444.73 606.04,-436.54 596.11,-429.62"/>
</g>
<!-- U2U5&#45;A -->
<g id="U2U5&#45;A" class="node">
<title>U2U5&#45;A</title>
<ellipse fill="none" stroke="black" cx="723.15" cy="-513.5" rx="47.5" ry="18"/>
<text text-anchor="middle" x="723.15" y="-509.8" font-family="Times,serif" font-size="14.00">U2U5&#45;A</text>
</g>
<!-- ABE&#45;M2&#45;&#45;U2U5&#45;A -->
<g id="edge38" class="edge">
<title>ABE&#45;M2&#45;&#45;U2U5&#45;A</title>
<path fill="none" stroke="black" d="M675.72,-483.51C683.07,-488.16 691.12,-493.24 698.46,-497.89"/>
</g>
<!-- KW&#45;OAM -->
<g id="KW&#45;OAM" class="node">
<title>KW&#45;OAM</title>
<ellipse fill="none" stroke="black" cx="468.37" cy="-406.65" rx="52" ry="18"/>
<text text-anchor="middle" x="468.37" y="-402.95" font-family="Times,serif" font-size="14.00">KW&#45;OAM</text>
</g>
<!-- IL&#45;YTR&#45;&#45;KW&#45;OAM -->
<g id="edge39" class="edge">
<title>IL&#45;YTR&#45;&#45;KW&#45;OAM</title>
<path fill="none" stroke="black" d="M534.18,-411.43C529.38,-411.08 524.43,-410.72 519.5,-410.36"/>
</g>
<!-- EQWO&#45;Y -->
<g id="EQWO&#45;Y" class="node">
<title>EQWO&#45;Y</title>
<ellipse fill="none" stroke="black" cx="797.06" cy="-563.65" rx="50.09" ry="18"/>
<text text-anchor="middle" x="797.06" y="-559.95" font-family="Times,serif" font-size="14.00">EQWO&#45;Y</text>
</g>
<!-- EQWO&#45;Y&#45;&#45;U2U5&#45;A -->
<g id="edge40" class="edge">
<title>EQWO&#45;Y&#45;&#45;U2U5&#45;A</title>
<path fill="none" stroke="black" d="M773.27,-547.51C764.66,-541.67 754.95,-535.08 746.39,-529.27"/>
</g>
<!-- QI9&#45;42 -->
<g id="QI9&#45;42" class="node">
<title>QI9&#45;42</title>
<ellipse fill="none" stroke="black" cx="638.34" cy="-557.5" rx="42.49" ry="18"/>
<text text-anchor="middle" x="638.34" y="-553.8" font-family="Times,serif" font-size="14.00">QI9&#45;42</text>
</g>
<!-- EQWO&#45;Y&#45;&#45;QI9&#45;42 -->
<g id="edge41" class="edge">
<title>EQWO&#45;Y&#45;&#45;QI9&#45;42</title>
<path fill="none" stroke="black" d="M747.28,-561.73C725.82,-560.89 701,-559.93 680.48,-559.14"/>
</g>
<!-- QI9&#45;42&#45;&#45;U2U5&#45;A -->
<g id="edge42" class="edge">
<title>QI9&#45;42&#45;&#45;U2U5&#45;A</title>
<path fill="none" stroke="black" d="M665.17,-543.58C674.69,-538.64 685.41,-533.08 695.03,-528.09"/>
</g>
<!-- YF&#45;P4X -->
<g id="YF&#45;P4X" class="node">
<title>YF&#45;P4X</title>
<ellipse fill="none" stroke="black" cx="549.62" cy="-495.25" rx="44.39" ry="18"/>
<text text-anchor="middle" x="549.62" y="-491.55" font-family="Times,serif" font-size="14.00">YF&#45;P4X</text>
</g>
<!-- QI9&#45;42&#45;&#45;YF&#45;P4X -->
<g id="edge43" class="edge">
<title>QI9&#45;42&#45;&#45;YF&#45;P4X</title>
<path fill="none" stroke="black" d="M616.41,-542.11C602.86,-532.61 585.53,-520.44 571.91,-510.89"/>
</g>
<!-- JK&#45;Q77 -->
<g id="JK&#45;Q77" class="node">
<title>JK&#45;Q77</title>
<ellipse fill="none" stroke="black" cx="469.22" cy="-450.68" rx="42.49" ry="18"/>
<text text-anchor="middle" x="469.22" y="-446.98" font-family="Times,serif" font-size="14.00">JK&#45;Q77</text>
</g>
<!-- JK&#45;Q77&#45;&#45;KW&#45;OAM -->
<g id="edge44" class="edge">
<title>JK&#45;Q77&#45;&#45;KW&#45;OAM</title>
<path fill="none" stroke="black" d="M468.87,-432.52C468.82,-429.96 468.77,-427.33 468.72,-424.77"/>
</g>
<!-- JK&#45;Q77&#45;&#45;YF&#45;P4X -->
<g id="edge45" class="edge">
<title>JK&#45;Q77&#45;&#45;YF&#45;P4X</title>
<path fill="none" stroke="black" d="M495.1,-465.03C504.1,-470.02 514.2,-475.61 523.23,-480.62"/>
</g>
<!-- JI1&#45;SY -->
<g id="JI1&#45;SY" class="node">
<title>JI1&#45;SY</title>
<ellipse fill="none" stroke="black" cx="451.07" cy="-494.72" rx="38.5" ry="18"/>
<text text-anchor="middle" x="451.07" y="-491.02" font-family="Times,serif" font-size="14.00">JI1&#45;SY</text>
</g>
<!-- JI1&#45;SY&#45;&#45;YF&#45;P4X -->
<g id="edge46" class="edge">
<title>JI1&#45;SY&#45;&#45;YF&#45;P4X</title>
<path fill="none" stroke="black" d="M489.45,-494.92C494.64,-494.95 500,-494.98 505.28,-495.01"/>
</g>
<!-- X&#45;1QGA -->
<g id="X&#45;1QGA" class="node">
<title>X&#45;1QGA</title>
<ellipse fill="none" stroke="black" cx="508.82" cy="-539.28" rx="47" ry="18"/>
<text text-anchor="middle" x="508.82" y="-535.58" font-family="Times,serif" font-size="14.00">X&#45;1QGA</text>
</g>
<!-- JI1&#45;SY&#45;&#45;X&#45;1QGA -->
<g id="edge47" class="edge">
<title>JI1&#45;SY&#45;&#45;X&#45;1QGA</title>
<path fill="none" stroke="black" d="M471.27,-510.3C476.6,-514.42 482.37,-518.87 487.75,-523.02"/>
</g>
<!-- T2&#45;V8F -->
<g id="T2&#45;V8F" class="node">
<title>T2&#45;V8F</title>
<ellipse fill="none" stroke="black" cx="359.22" cy="-481.69" rx="43.59" ry="18"/>
<text text-anchor="middle" x="359.22" y="-477.99" font-family="Times,serif" font-size="14.00">T2&#45;V8F</text>
</g>
<!-- JI1&#45;SY&#45;&#45;T2&#45;V8F -->
<g id="edge48" class="edge">
<title>JI1&#45;SY&#45;&#45;T2&#45;V8F</title>
<path fill="none" stroke="black" d="M414.24,-489.5C409.75,-488.86 405.14,-488.2 400.59,-487.56"/>
</g>
<!-- T2&#45;V8F&#45;&#45;JI&#45;LGM -->
<g id="edge49" class="edge">
<title>T2&#45;V8F&#45;&#45;JI&#45;LGM</title>
<path fill="none" stroke="black" d="M331.52,-467.63C323.9,-463.77 315.57,-459.54 307.69,-455.54"/>
</g>
<!-- CCE&#45;0J -->
<g id="CCE&#45;0J" class="node">
<title>CCE&#45;0J</title>
<ellipse fill="none" stroke="black" cx="695.12" cy="-601.53" rx="43.59" ry="18"/>
<text text-anchor="middle" x="695.12" y="-597.83" font-family="Times,serif" font-size="14.00">CCE&#45;0J</text>
</g>
<!-- CCE&#45;0J&#45;&#45;X&#45;1QGA -->
<g id="edge50" class="edge">
<title>CCE&#45;0J&#45;&#45;X&#45;1QGA</title>
<path fill="none" stroke="black" d="M660.95,-590.11C627.86,-579.06 577.9,-562.36 544.36,-551.15"/>
</g>
<!-- 0VK&#45;43 -->
<g id="0VK&#45;43" class="node">
<title>0VK&#45;43</title>
<ellipse fill="none" stroke="black" cx="564.17" cy="-601.5" rx="44.39" ry="18"/>
<text text-anchor="middle" x="564.17" y="-597.8" font-family="Times,serif" font-size="14.00">0VK&#45;43</text>
</g>
<!-- 0VK&#45;43&#45;&#45;X&#45;1QGA -->
<g id="edge51" class="edge">
<title>0VK&#45;43&#45;&#45;X&#45;1QGA</title>
<path fill="none" stroke="black" d="M549.04,-584.5C541.36,-575.86 532.04,-565.39 524.31,-556.69"/>
</g>
<!-- 0VK&#45;43&#45;&#45;CCE&#45;0J -->
<g id="edge52" class="edge">
<title>0VK&#45;43&#45;&#45;CCE&#45;0J</title>
<path fill="none" stroke="black" d="M608.5,-601.51C622.3,-601.52 637.51,-601.52 651.27,-601.52"/>
</g>
<!-- TY2X&#45;C -->
<g id="TY2X&#45;C" class="node">
<title>TY2X&#45;C</title>
<ellipse fill="none" stroke="black" cx="405.95" cy="-560.5" rx="44.39" ry="18"/>
<text text-anchor="middle" x="405.95" y="-556.8" font-family="Times,serif" font-size="14.00">TY2X&#45;C</text>
</g>
<!-- 0VK&#45;43&#45;&#45;TY2X&#45;C -->
<g id="edge53" class="edge">
<title>0VK&#45;43&#45;&#45;TY2X&#45;C</title>
<path fill="none" stroke="black" d="M526.67,-591.79C501.54,-585.27 468.58,-576.73 443.45,-570.22"/>
</g>
<!-- TY2X&#45;C&#45;&#45;X&#45;1QGA -->
<g id="edge54" class="edge">
<title>TY2X&#45;C&#45;&#45;X&#45;1QGA</title>
<path fill="none" stroke="black" d="M445.43,-552.36C452.68,-550.86 460.27,-549.29 467.57,-547.79"/>
</g>
<!-- Q0G&#45;L8 -->
<g id="Q0G&#45;L8" class="node">
<title>Q0G&#45;L8</title>
<ellipse fill="none" stroke="black" cx="465.79" cy="-604.54" rx="46.29" ry="18"/>
<text text-anchor="middle" x="465.79" y="-600.84" font-family="Times,serif" font-size="14.00">Q0G&#45;L8</text>
</g>
<!-- Q0G&#45;L8&#45;&#45;TY2X&#45;C -->
<g id="edge55" class="edge">
<title>Q0G&#45;L8&#45;&#45;TY2X&#45;C</title>
<path fill="none" stroke="black" d="M443.85,-588.39C438.51,-584.46 432.81,-580.27 427.49,-576.35"/>
</g>
<!-- Q5KZ&#45;W -->
<g id="Q5KZ&#45;W" class="node">
<title>Q5KZ&#45;W</title>
<ellipse fill="none" stroke="black" cx="561.84" cy="-665.1" rx="48.99" ry="18"/>
<text text-anchor="middle" x="561.84" y="-661.4" font-family="Times,serif" font-size="14.00">Q5KZ&#45;W</text>
</g>
<!-- Q0G&#45;L8&#45;&#45;Q5KZ&#45;W -->
<g id="edge56" class="edge">
<title>Q0G&#45;L8&#45;&#45;Q5KZ&#45;W</title>
<path fill="none" stroke="black" d="M490.27,-619.98C504.61,-629.02 522.67,-640.41 537.06,-649.48"/>
</g>
<!-- WE&#45;KK2 -->
<g id="WE&#45;KK2" class="node">
<title>WE&#45;KK2</title>
<ellipse fill="none" stroke="black" cx="683.86" cy="-681.91" rx="49.5" ry="18"/>
<text text-anchor="middle" x="683.86" y="-678.21" font-family="Times,serif" font-size="14.00">WE&#45;KK2</text>
</g>
<!-- Q5KZ&#45;W&#45;&#45;WE&#45;KK2 -->
<g id="edge57" class="edge">
<title>Q5KZ&#45;W&#45;&#45;WE&#45;KK2</title>
<path fill="none" stroke="black" d="M607.62,-671.41C617.36,-672.75 627.65,-674.17 637.41,-675.51"/>
</g>
<!-- B8HU&#45;Z -->
<g id="B8HU&#45;Z" class="node">
<title>B8HU&#45;Z</title>
<ellipse fill="none" stroke="black" cx="454.39" cy="-648.56" rx="48.19" ry="18"/>
<text text-anchor="middle" x="454.39" y="-644.86" font-family="Times,serif" font-size="14.00">B8HU&#45;Z</text>
</g>
<!-- B8HU&#45;Z&#45;&#45;Q5KZ&#45;W -->
<g id="edge58" class="edge">
<title>B8HU&#45;Z&#45;&#45;Q5KZ&#45;W</title>
<path fill="none" stroke="black" d="M499.02,-655.43C504.91,-656.34 510.94,-657.27 516.82,-658.17"/>
</g>
<!-- 16AM&#45;3 -->
<g id="16AM&#45;3" class="node">
<title>16AM&#45;3</title>
<ellipse fill="none" stroke="black" cx="373.46" cy="-692.58" rx="47" ry="18"/>
<text text-anchor="middle" x="373.46" y="-688.88" font-family="Times,serif" font-size="14.00">16AM&#45;3</text>
</g>
<!-- 16AM&#45;3&#45;&#45;B8HU&#45;Z -->
<g id="edge59" class="edge">
<title>16AM&#45;3&#45;&#45;B8HU&#45;Z</title>
<path fill="none" stroke="black" d="M400.86,-677.68C409.29,-673.09 418.58,-668.04 427.02,-663.45"/>
</g>
<!-- BB&#45;EKF -->
<g id="BB&#45;EKF" class="node">
<title>BB&#45;EKF</title>
<ellipse fill="none" stroke="black" cx="491.67" cy="-731.9" rx="47.5" ry="18"/>
<text text-anchor="middle" x="491.67" y="-728.2" font-family="Times,serif" font-size="14.00">BB&#45;EKF</text>
</g>
<!-- 16AM&#45;3&#45;&#45;BB&#45;EKF -->
<g id="edge60" class="edge">
<title>16AM&#45;3&#45;&#45;BB&#45;EKF</title>
<path fill="none" stroke="black" d="M408.93,-704.38C423.75,-709.31 440.95,-715.03 455.82,-719.97"/>
</g>
<!-- DZ6&#45;I5 -->
<g id="DZ6&#45;I5" class="node">
<title>DZ6&#45;I5</title>
<ellipse fill="none" stroke="black" cx="276.31" cy="-683.69" rx="42.49" ry="18"/>
<text text-anchor="middle" x="276.31" y="-679.99" font-family="Times,serif" font-size="14.00">DZ6&#45;I5</text>
</g>
<!-- 16AM&#45;3&#45;&#45;DZ6&#45;I5 -->
<g id="edge61" class="edge">
<title>16AM&#45;3&#45;&#45;DZ6&#45;I5</title>
<path fill="none" stroke="black" d="M327.73,-688.39C324.38,-688.09 321.02,-687.78 317.7,-687.48"/>
</g>
<!-- R&#45;XDKM -->
<g id="R&#45;XDKM" class="node">
<title>R&#45;XDKM</title>
<ellipse fill="none" stroke="black" cx="307.01" cy="-627.31" rx="50.09" ry="18"/>
<text text-anchor="middle" x="307.01" y="-623.61" font-family="Times,serif" font-size="14.00">R&#45;XDKM</text>
</g>
<!-- DZ6&#45;I5&#45;&#45;R&#45;XDKM -->
<g id="edge62" class="edge">
<title>DZ6&#45;I5&#45;&#45;R&#45;XDKM</title>
<path fill="none" stroke="black" d="M286.02,-665.85C289.61,-659.27 293.66,-651.81 297.25,-645.22"/>
</g>
<!-- G1&#45;0UI -->
<g id="G1&#45;0UI" class="node">
<title>G1&#45;0UI</title>
<ellipse fill="none" stroke="black" cx="330.56" cy="-736.6" rx="44.39" ry="18"/>
<text text-anchor="middle" x="330.56" y="-732.9" font-family="Times,serif" font-size="14.00">G1&#45;0UI</text>
</g>
<!-- DZ6&#45;I5&#45;&#45;G1&#45;0UI -->
<g id="edge63" class="edge">
<title>DZ6&#45;I5&#45;&#45;G1&#45;0UI</title>
<path fill="none" stroke="black" d="M293.48,-700.43C299.81,-706.61 306.98,-713.6 313.32,-719.78"/>
</g>
<!-- QCDG&#45;H -->
<g id="QCDG&#45;H" class="node">
<title>QCDG&#45;H</title>
<ellipse fill="none" stroke="black" cx="198.82" cy="-635.55" rx="50.09" ry="18"/>
<text text-anchor="middle" x="198.82" y="-631.85" font-family="Times,serif" font-size="14.00">QCDG&#45;H</text>
</g>
<!-- DZ6&#45;I5&#45;&#45;QCDG&#45;H -->
<g id="edge64" class="edge">
<title>DZ6&#45;I5&#45;&#45;QCDG&#45;H</title>
<path fill="none" stroke="black" d="M252.21,-668.72C243.24,-663.14 233.03,-656.8 223.97,-651.17"/>
</g>
<!-- XUDX&#45;A -->
<g id="XUDX&#45;A" class="node">
<title>XUDX&#45;A</title>
<ellipse fill="none" stroke="black" cx="222.03" cy="-727.81" rx="48.19" ry="18"/>
<text text-anchor="middle" x="222.03" y="-724.11" font-family="Times,serif" font-size="14.00">XUDX&#45;A</text>
</g>
<!-- DZ6&#45;I5&#45;&#45;XUDX&#45;A -->
<g id="edge65" class="edge">
<title>DZ6&#45;I5&#45;&#45;XUDX&#45;A</title>
<path fill="none" stroke="black" d="M256.41,-699.87C251.81,-703.6 246.91,-707.59 242.29,-711.34"/>
</g>
<!-- QLU&#45;P0 -->
<g id="QLU&#45;P0" class="node">
<title>QLU&#45;P0</title>
<ellipse fill="none" stroke="black" cx="310.41" cy="-780.61" rx="46.29" ry="18"/>
<text text-anchor="middle" x="310.41" y="-776.91" font-family="Times,serif" font-size="14.00">QLU&#45;P0</text>
</g>
<!-- DZ6&#45;I5&#45;&#45;QLU&#45;P0 -->
<g id="edge66" class="edge">
<title>DZ6&#45;I5&#45;&#45;QLU&#45;P0</title>
<path fill="none" stroke="black" d="M277.54,-701.69C278.66,-712.1 280.78,-725.3 284.77,-736.49 288.04,-745.67 293.24,-755.1 298.1,-762.88"/>
</g>
<!-- G1&#45;0UI&#45;&#45;XUDX&#45;A -->
<g id="edge67" class="edge">
<title>G1&#45;0UI&#45;&#45;XUDX&#45;A</title>
<path fill="none" stroke="black" d="M287.05,-733.07C281.15,-732.6 275.07,-732.1 269.12,-731.62"/>
</g>
<!-- G1&#45;0UI&#45;&#45;QLU&#45;P0 -->
<g id="edge68" class="edge">
<title>G1&#45;0UI&#45;&#45;QLU&#45;P0</title>
<path fill="none" stroke="black" d="M322.37,-754.5C321.1,-757.26 319.8,-760.11 318.53,-762.87"/>
</g>
<!-- Y&#45;EQ0C -->
<g id="Y&#45;EQ0C" class="node">
<title>Y&#45;EQ0C</title>
<ellipse fill="none" stroke="black" cx="200.35" cy="-553.83" rx="45.5" ry="18"/>
<text text-anchor="middle" x="200.35" y="-550.13" font-family="Times,serif" font-size="14.00">Y&#45;EQ0C</text>
</g>
<!-- QCDG&#45;H&#45;&#45;Y&#45;EQ0C -->
<g id="edge69" class="edge">
<title>QCDG&#45;H&#45;&#45;Y&#45;EQ0C</title>
<path fill="none" stroke="black" d="M199.16,-617.41C199.41,-603.87 199.76,-585.44 200.01,-571.91"/>
</g>
<!-- QLU&#45;P0&#45;&#45;XUDX&#45;A -->
<g id="edge70" class="edge">
<title>QLU&#45;P0&#45;&#45;XUDX&#45;A</title>
<path fill="none" stroke="black" d="M284.84,-765.34C273.22,-758.39 259.49,-750.19 247.84,-743.23"/>
</g>
<!-- A&#45;REKV -->
<g id="A&#45;REKV" class="node">
<title>A&#45;REKV</title>
<ellipse fill="none" stroke="black" cx="754.37" cy="-725.91" rx="47" ry="18"/>
<text text-anchor="middle" x="754.37" y="-722.21" font-family="Times,serif" font-size="14.00">A&#45;REKV</text>
</g>
<!-- A&#45;REKV&#45;&#45;WE&#45;KK2 -->
<g id="edge71" class="edge">
<title>A&#45;REKV&#45;&#45;WE&#45;KK2</title>
<path fill="none" stroke="black" d="M729.71,-710.52C723.03,-706.36 715.8,-701.85 709.1,-697.66"/>
</g>
<!-- OQTY&#45;Z -->
<g id="OQTY&#45;Z" class="node">
<title>OQTY&#45;Z</title>
<ellipse fill="none" stroke="black" cx="452.58" cy="-777.35" rx="45.5" ry="18"/>
<text text-anchor="middle" x="452.58" y="-773.65" font-family="Times,serif" font-size="14.00">OQTY&#45;Z</text>
</g>
<!-- OQTY&#45;Z&#45;&#45;QLU&#45;P0 -->
<g id="edge72" class="edge">
<title>OQTY&#45;Z&#45;&#45;QLU&#45;P0</title>
<path fill="none" stroke="black" d="M406.81,-778.4C390.74,-778.77 372.68,-779.18 356.57,-779.55"/>
</g>
<!-- 7M4C&#45;F -->
<g id="7M4C&#45;F" class="node">
<title>7M4C&#45;F</title>
<ellipse fill="none" stroke="black" cx="92.62" cy="-596.99" rx="48.19" ry="18"/>
<text text-anchor="middle" x="92.62" y="-593.29" font-family="Times,serif" font-size="14.00">7M4C&#45;F</text>
</g>
<!-- 7M4C&#45;F&#45;&#45;Y&#45;EQ0C -->
<g id="edge73" class="edge">
<title>7M4C&#45;F&#45;&#45;Y&#45;EQ0C</title>
<path fill="none" stroke="black" d="M125.53,-583.81C139.14,-578.35 154.87,-572.05 168.38,-566.64"/>
</g>
<!-- MS1&#45;KJ -->
<g id="MS1&#45;KJ" class="node">
<title>MS1&#45;KJ</title>
<ellipse fill="none" stroke="black" cx="101.26" cy="-522.72" rx="45.5" ry="18"/>
<text text-anchor="middle" x="101.26" y="-519.02" font-family="Times,serif" font-size="14.00">MS1&#45;KJ</text>
</g>
<!-- 7M4C&#45;F&#45;&#45;MS1&#45;KJ -->
<g id="edge74" class="edge">
<title>7M4C&#45;F&#45;&#45;MS1&#45;KJ</title>
<path fill="none" stroke="black" d="M94.76,-578.63C96.1,-567.12 97.82,-552.34 99.15,-540.87"/>
</g>
<!-- 8&#45;BEW8 -->
<g id="8&#45;BEW8" class="node">
<title>8&#45;BEW8</title>
<ellipse fill="none" stroke="black" cx="177.74" cy="-478.69" rx="48.19" ry="18"/>
<text text-anchor="middle" x="177.74" y="-474.99" font-family="Times,serif" font-size="14.00">8&#45;BEW8</text>
</g>
<!-- 8&#45;BEW8&#45;&#45;Y&#45;EQ0C -->
<g id="edge75" class="edge">
<title>8&#45;BEW8&#45;&#45;Y&#45;EQ0C</title>
<path fill="none" stroke="black" d="M183.21,-496.88C186.77,-508.7 191.38,-524.03 194.93,-535.81"/>
</g>
<!-- 8&#45;BEW8&#45;&#45;MS1&#45;KJ -->
<g id="edge76" class="edge">
<title>8&#45;BEW8&#45;&#45;MS1&#45;KJ</title>
<path fill="none" stroke="black" d="M151.42,-493.85C143.56,-498.37 134.94,-503.33 127.11,-507.84"/>
</g>
<!-- NZW&#45;ZO -->
<g id="NZW&#45;ZO" class="node">
<title>NZW&#45;ZO</title>
<ellipse fill="none" stroke="black" cx="161.57" cy="-400.06" rx="50.09" ry="18"/>
<text text-anchor="middle" x="161.57" y="-396.36" font-family="Times,serif" font-size="14.00">NZW&#45;ZO</text>
</g>
<!-- 8&#45;BEW8&#45;&#45;NZW&#45;ZO -->
<g id="edge77" class="edge">
<title>8&#45;BEW8&#45;&#45;NZW&#45;ZO</title>
<path fill="none" stroke="black" d="M173.99,-460.46C171.37,-447.75 167.91,-430.88 165.3,-418.2"/>
</g>
<!-- WSK&#45;1A -->
<g id="WSK&#45;1A" class="node">
<title>WSK&#45;1A</title>
<ellipse fill="none" stroke="black" cx="52.29" cy="-378.08" rx="48.19" ry="18"/>
<text text-anchor="middle" x="52.29" y="-374.38" font-family="Times,serif" font-size="14.00">WSK&#45;1A</text>
</g>
<!-- NZW&#45;ZO&#45;&#45;WSK&#45;1A -->
<g id="edge78" class="edge">
<title>NZW&#45;ZO&#45;&#45;WSK&#45;1A</title>
<path fill="none" stroke="black" d="M117.75,-391.25C110.15,-389.72 102.26,-388.13 94.7,-386.61"/>
</g>
<!-- 5&#45;NZNW -->
<g id="5&#45;NZNW" class="node">
<title>5&#45;NZNW</title>
<ellipse fill="none" stroke="black" cx="62.27" cy="-444.58" rx="50.89" ry="18"/>
<text text-anchor="middle" x="62.27" y="-440.88" font-family="Times,serif" font-size="14.00">5&#45;NZNW</text>
</g>
<!-- 5&#45;NZNW&#45;&#45;8&#45;BEW8 -->
<g id="edge79" class="edge">
<title>5&#45;NZNW&#45;&#45;8&#45;BEW8</title>
<path fill="none" stroke="black" d="M101.36,-456.13C113.79,-459.8 127.51,-463.86 139.86,-467.5"/>
</g>
<!-- 5&#45;NZNW&#45;&#45;NZW&#45;ZO -->
<g id="edge80" class="edge">
<title>5&#45;NZNW&#45;&#45;NZW&#45;ZO</title>
<path fill="none" stroke="black" d="M93.96,-430.37C105.54,-425.18 118.62,-419.31 130.18,-414.13"/>
</g>
<!-- NR8S&#45;Y -->
<g id="NR8S&#45;Y" class="node">
<title>NR8S&#45;Y</title>
<ellipse fill="none" stroke="black" cx="307.66" cy="-824.64" rx="45.5" ry="18"/>
<text text-anchor="middle" x="307.66" y="-820.94" font-family="Times,serif" font-size="14.00">NR8S&#45;Y</text>
</g>
<!-- NR8S&#45;Y&#45;&#45;QLU&#45;P0 -->
<g id="edge81" class="edge">
<title>NR8S&#45;Y&#45;&#45;QLU&#45;P0</title>
<path fill="none" stroke="black" d="M308.79,-806.47C308.95,-803.92 309.12,-801.29 309.28,-798.73"/>
</g>
<!-- F&#45;ZBO0 -->
<g id="F&#45;ZBO0" class="node">
<title>F&#45;ZBO0</title>
<ellipse fill="none" stroke="black" cx="413.65" cy="-839.51" rx="46.29" ry="18"/>
<text text-anchor="middle" x="413.65" y="-835.81" font-family="Times,serif" font-size="14.00">F&#45;ZBO0</text>
</g>
<!-- F&#45;ZBO0&#45;&#45;NR8S&#45;Y -->
<g id="edge82" class="edge">
<title>F&#45;ZBO0&#45;&#45;NR8S&#45;Y</title>
<path fill="none" stroke="black" d="M369.93,-833.38C363.54,-832.48 356.97,-831.56 350.6,-830.66"/>
</g>
<!-- 3Q1T&#45;O -->
<g id="3Q1T&#45;O" class="node">
<title>3Q1T&#45;O</title>
<ellipse fill="none" stroke="black" cx="478.56" cy="-883.55" rx="45" ry="18"/>
<text text-anchor="middle" x="478.56" y="-879.85" font-family="Times,serif" font-size="14.00">3Q1T&#45;O</text>
</g>
<!-- 3Q1T&#45;O&#45;&#45;F&#45;ZBO0 -->
<g id="edge83" class="edge">
<title>3Q1T&#45;O&#45;&#45;F&#45;ZBO0</title>
<path fill="none" stroke="black" d="M455.49,-867.9C449.51,-863.85 443.07,-859.48 437.08,-855.41"/>
</g>
<!-- 8&#45;4KME -->
<g id="8&#45;4KME" class="node">
<title>8&#45;4KME</title>
<ellipse fill="none" stroke="black" cx="499.19" cy="-927.57" rx="48.19" ry="18"/>
<text text-anchor="middle" x="499.19" y="-923.87" font-family="Times,serif" font-size="14.00">8&#45;4KME</text>
</g>
<!-- 3Q1T&#45;O&#45;&#45;8&#45;4KME -->
<g id="edge84" class="edge">
<title>3Q1T&#45;O&#45;&#45;8&#45;4KME</title>
<path fill="none" stroke="black" d="M486.95,-901.46C488.24,-904.22 489.58,-907.07 490.87,-909.83"/>
</g>
<!-- T6GY&#45;Y -->
<g id="T6GY&#45;Y" class="node">
<title>T6GY&#45;Y</title>
<ellipse fill="none" stroke="black" cx="486.06" cy="-971.61" rx="42.49" ry="18"/>
<text text-anchor="middle" x="486.06" y="-967.91" font-family="Times,serif" font-size="14.00">T6GY&#45;Y</text>
</g>
<!-- 8&#45;4KME&#45;&#45;T6GY&#45;Y -->
<g id="edge85" class="edge">
<title>8&#45;4KME&#45;&#45;T6GY&#45;Y</title>
<path fill="none" stroke="black" d="M493.85,-945.49C493.05,-948.15 492.23,-950.9 491.44,-953.57"/>
</g>
<!-- R1&#45;IMO -->
<g id="R1&#45;IMO" class="node">
<title>R1&#45;IMO</title>
<ellipse fill="none" stroke="black" cx="362.32" cy="-956.87" rx="46.29" ry="18"/>
<text text-anchor="middle" x="362.32" y="-953.17" font-family="Times,serif" font-size="14.00">R1&#45;IMO</text>
</g>
<!-- R1&#45;IMO&#45;&#45;RU&#45;PT9 -->
<g id="edge86" class="edge">
<title>R1&#45;IMO&#45;&#45;RU&#45;PT9</title>
<path fill="none" stroke="black" d="M316.85,-960.28C312.79,-960.58 308.72,-960.89 304.76,-961.19"/>
</g>
<!-- R1&#45;IMO&#45;&#45;T6GY&#45;Y -->
<g id="edge87" class="edge">
<title>R1&#45;IMO&#45;&#45;T6GY&#45;Y</title>
<path fill="none" stroke="black" d="M406.64,-962.15C419.26,-963.66 432.95,-965.29 445.34,-966.76"/>
</g>
<!-- 7KIK&#45;H -->
<g id="7KIK&#45;H" class="node">
<title>7KIK&#45;H</title>
<ellipse fill="none" stroke="black" cx="391.59" cy="-1000.9" rx="44.39" ry="18"/>
<text text-anchor="middle" x="391.59" y="-997.2" font-family="Times,serif" font-size="14.00">7KIK&#45;H</text>
</g>
<!-- 7KIK&#45;H&#45;&#45;T6GY&#45;Y -->
<g id="edge88" class="edge">
<title>7KIK&#45;H&#45;&#45;T6GY&#45;Y</title>
<path fill="none" stroke="black" d="M426.77,-990C434.95,-987.46 443.65,-984.76 451.8,-982.24"/>
</g>
<!-- B&#45;6STA -->
<g id="B&#45;6STA" class="node">
<title>B&#45;6STA</title>
<ellipse fill="none" stroke="black" cx="295.09" cy="-1022.9" rx="44.39" ry="18"/>
<text text-anchor="middle" x="295.09" y="-1019.2" font-family="Times,serif" font-size="14.00">B&#45;6STA</text>
</g>
<!-- 7KIK&#45;H&#45;&#45;B&#45;6STA -->
<g id="edge89" class="edge">
<title>7KIK&#45;H&#45;&#45;B&#45;6STA</title>
<path fill="none" stroke="black" d="M352.89,-1009.7C346.6,-1011.2 340.08,-1012.6 333.79,-1014.1"/>
</g>
<!-- 0P&#45;U0Q -->
<g id="0P&#45;U0Q" class="node">
<title>0P&#45;U0Q</title>
<ellipse fill="none" stroke="black" cx="196.62" cy="-1054.4" rx="46.29" ry="18"/>
<text text-anchor="middle" x="196.62" y="-1050.7" font-family="Times,serif" font-size="14.00">0P&#45;U0Q</text>
</g>
<!-- 0P&#45;U0Q&#45;&#45;B&#45;6STA -->
<g id="edge90" class="edge">
<title>0P&#45;U0Q&#45;&#45;B&#45;6STA</title>
<path fill="none" stroke="black" d="M232.45,-1042.9C241.47,-1040.1 251.14,-1037 260.11,-1034.1"/>
</g>
<!-- XGH&#45;SH -->
<g id="XGH&#45;SH" class="node">
<title>XGH&#45;SH</title>
<ellipse fill="none" stroke="black" cx="151.19" cy="-1098.5" rx="49.5" ry="18"/>
<text text-anchor="middle" x="151.19" y="-1094.8" font-family="Times,serif" font-size="14.00">XGH&#45;SH</text>
</g>
<!-- 0P&#45;U0Q&#45;&#45;XGH&#45;SH -->
<g id="edge91" class="edge">
<title>0P&#45;U0Q&#45;&#45;XGH&#45;SH</title>
<path fill="none" stroke="black" d="M179.19,-1071.3C175.78,-1074.6 172.21,-1078.1 168.81,-1081.4"/>
</g>
<!-- G&#45;D0N3 -->
<g id="G&#45;D0N3" class="node">
<title>G&#45;D0N3</title>
<ellipse fill="none" stroke="black" cx="95.32" cy="-1142.6" rx="48.19" ry="18"/>
<text text-anchor="middle" x="95.32" y="-1138.9" font-family="Times,serif" font-size="14.00">G&#45;D0N3</text>
</g>
<!-- G&#45;D0N3&#45;&#45;XGH&#45;SH -->
<g id="edge92" class="edge">
<title>G&#45;D0N3&#45;&#45;XGH&#45;SH</title>
<path fill="none" stroke="black" d="M116.12,-1126.2C120.72,-1122.6 125.58,-1118.7 130.18,-1115.1"/>
</g>
<!-- T&#45;AKQZ -->
<g id="T&#45;AKQZ" class="node">
<title>T&#45;AKQZ</title>
<ellipse fill="none" stroke="black" cx="45.5" cy="-1186.7" rx="45.5" ry="18"/>
<text text-anchor="middle" x="45.5" y="-1183" font-family="Times,serif" font-size="14.00">T&#45;AKQZ</text>
</g>
<!-- G&#45;D0N3&#45;&#45;T&#45;AKQZ -->
<g id="edge93" class="edge">
<title>G&#45;D0N3&#45;&#45;T&#45;AKQZ</title>
<path fill="none" stroke="black" d="M76.49,-1159.3C72.52,-1162.8 68.33,-1166.5 64.36,-1170"/>
</g>
<!-- 46DP&#45;O -->
<g id="46DP&#45;O" class="node">
<title>46DP&#45;O</title>
<ellipse fill="none" stroke="black" cx="588.87" cy="-971.58" rx="46.29" ry="18"/>
<text text-anchor="middle" x="588.87" y="-967.88" font-family="Times,serif" font-size="14.00">46DP&#45;O</text>
</g>
<!-- 46DP&#45;O&#45;&#45;77S8&#45;E -->
<g id="edge94" class="edge">
<title>46DP&#45;O&#45;&#45;77S8&#45;E</title>
<path fill="none" stroke="black" d="M569.22,-987.98C565.46,-991.11 561.52,-994.41 557.71,-997.59"/>
</g>
<!-- 46DP&#45;O&#45;&#45;T6GY&#45;Y -->
<g id="edge95" class="edge">
<title>46DP&#45;O&#45;&#45;T6GY&#45;Y</title>
<path fill="none" stroke="black" d="M542.58,-971.59C537.89,-971.59 533.14,-971.6 528.5,-971.6"/>
</g>
<!-- 9&#45;980U -->
<g id="9&#45;980U" class="node">
<title>9&#45;980U</title>
<ellipse fill="none" stroke="black" cx="689.11" cy="-957.87" rx="45" ry="18"/>
<text text-anchor="middle" x="689.11" y="-954.17" font-family="Times,serif" font-size="14.00">9&#45;980U</text>
</g>
<!-- 46DP&#45;O&#45;&#45;9&#45;980U -->
<g id="edge96" class="edge">
<title>46DP&#45;O&#45;&#45;9&#45;980U</title>
<path fill="none" stroke="black" d="M632.55,-965.61C637.19,-964.97 641.91,-964.33 646.54,-963.69"/>
</g>
<!-- ZO&#45;P5K -->
<g id="ZO&#45;P5K" class="node">
<title>ZO&#45;P5K</title>
<ellipse fill="none" stroke="black" cx="631.34" cy="-1015.6" rx="47" ry="18"/>
<text text-anchor="middle" x="631.34" y="-1011.9" font-family="Times,serif" font-size="14.00">ZO&#45;P5K</text>
</g>
<!-- 46DP&#45;O&#45;&#45;ZO&#45;P5K -->
<g id="edge97" class="edge">
<title>46DP&#45;O&#45;&#45;ZO&#45;P5K</title>
<path fill="none" stroke="black" d="M605.17,-988.47C608.35,-991.77 611.69,-995.23 614.88,-998.53"/>
</g>
<!-- EMIG&#45;F -->
<g id="EMIG&#45;F" class="node">
<title>EMIG&#45;F</title>
<ellipse fill="none" stroke="black" cx="732.99" cy="-1008.3" rx="47" ry="18"/>
<text text-anchor="middle" x="732.99" y="-1004.6" font-family="Times,serif" font-size="14.00">EMIG&#45;F</text>
</g>
<!-- 9&#45;980U&#45;&#45;EMIG&#45;F -->
<g id="edge98" class="edge">
<title>9&#45;980U&#45;&#45;EMIG&#45;F</title>
<path fill="none" stroke="black" d="M703.97,-974.94C708.44,-980.08 713.36,-985.72 717.85,-990.88"/>
</g>
<!-- M&#45;RPN3 -->
<g id="M&#45;RPN3" class="node">
<title>M&#45;RPN3</title>
<ellipse fill="none" stroke="black" cx="793.76" cy="-955.35" rx="50.09" ry="18"/>
<text text-anchor="middle" x="793.76" y="-951.65" font-family="Times,serif" font-size="14.00">M&#45;RPN3</text>
</g>
<!-- 9&#45;980U&#45;&#45;M&#45;RPN3 -->
<g id="edge99" class="edge">
<title>9&#45;980U&#45;&#45;M&#45;RPN3</title>
<path fill="none" stroke="black" d="M734.1,-956.79C737.31,-956.71 740.56,-956.63 743.8,-956.55"/>
</g>
<!-- 7L9&#45;ZC -->
<g id="7L9&#45;ZC" class="node">
<title>7L9&#45;ZC</title>
<polygon fill="none" stroke="black" points="654.21,-1077.6 586.21,-1077.6 586.21,-1041.6 654.21,-1041.6 654.21,-1077.6"/>
<text text-anchor="middle" x="620.21" y="-1055.9" font-family="Times,serif" font-size="14.00">7L9&#45;ZC</text>
</g>
<!-- ZO&#45;P5K&#45;&#45;7L9&#45;ZC -->
<g id="edge100" class="edge">
<title>ZO&#45;P5K&#45;&#45;7L9&#45;ZC</title>
<path fill="none" stroke="black" d="M626.75,-1033.8C626.11,-1036.3 625.44,-1039 624.79,-1041.5"/>
</g>
<!-- EMIG&#45;F&#45;&#45;ZO&#45;P5K -->
<g id="edge101" class="edge">
<title>EMIG&#45;F&#45;&#45;ZO&#45;P5K</title>
<path fill="none" stroke="black" d="M686.93,-1011.6C683.78,-1011.8 680.6,-1012.1 677.45,-1012.3"/>
</g>
<!-- JV1V&#45;O -->
<g id="JV1V&#45;O" class="node">
<title>JV1V&#45;O</title>
<ellipse fill="none" stroke="black" cx="830.16" cy="-999.42" rx="42.49" ry="18"/>
<text text-anchor="middle" x="830.16" y="-995.72" font-family="Times,serif" font-size="14.00">JV1V&#45;O</text>
</g>
<!-- JV1V&#45;O&#45;&#45;M&#45;RPN3 -->
<g id="edge102" class="edge">
<title>JV1V&#45;O&#45;&#45;M&#45;RPN3</title>
<path fill="none" stroke="black" d="M815.98,-982.25C813.43,-979.16 810.76,-975.93 808.2,-972.83"/>
</g>
</g>
</svg>
