<?xml version="1.0" encoding="UTF-8" standalone="no"?>
<!DOCTYPE svg PUBLIC "-//W3C//DTD SVG 1.1//EN"
 "http://www.w3.org/Graphics/SVG/1.1/DTD/svg11.dtd">
<!-- Generated by graphviz version 2.43.0 (0)
 -->
<!-- Pages: 1 -->
<svg width="1465pt" height="1001pt"
 viewBox="0.00 0.00 1464.75 1000.55" xmlns="http://www.w3.org/2000/svg" xmlns:xlink="http://www.w3.org/1999/xlink">
<g id="graph0" class="graph" transform="scale(1 1) rotate(0) translate(4 996.55)">
<polygon fill="white" stroke="transparent" points="-4,4 -4,-996.55 1460.75,-996.55 1460.75,4 -4,4"/>
<!-- LS&#45;JEP -->
<g id="LS&#45;JEP" class="node">
<title>LS&#45;JEP</title>
<polygon fill="none" stroke="black" points="1154.4,-370.87 1089.4,-370.87 1089.4,-334.87 1154.4,-334.87 1154.4,-370.87"/>
<text text-anchor="middle" x="1121.9" y="-349.17" font-family="Times,serif" font-size="14.00">LS&#45;JEP</text>
</g>
<!-- 7&#45;YHRX -->
<g id="7&#45;YHRX" class="node">
<title>7&#45;YHRX</title>
<polygon fill="none" stroke="black" points="793.13,-338.02 723.13,-338.02 723.13,-302.02 793.13,-302.02 793.13,-338.02"/>
<text text-anchor="middle" x="758.13" y="-316.32" font-family="Times,serif" font-size="14.00">7&#45;YHRX</text>
</g>
<!-- V3P&#45;AZ -->
<g id="V3P&#45;AZ" class="node">
<title>V3P&#45;AZ</title>
<polygon fill="none" stroke="black" points="892.23,-285.6 824.23,-285.6 824.23,-249.6 892.23,-249.6 892.23,-285.6"/>
<text text-anchor="middle" x="858.23" y="-263.9" font-family="Times,serif" font-size="14.00">V3P&#45;AZ</text>
</g>
<!-- Z&#45;EKCY -->
<g id="Z&#45;EKCY" class="node">
<title>Z&#45;EKCY</title>
<polygon fill="none" stroke="black" points="522.27,-117.66 451.27,-117.66 451.27,-81.66 522.27,-81.66 522.27,-117.66"/>
<text text-anchor="middle" x="486.77" y="-95.96" font-family="Times,serif" font-size="14.00">Z&#45;EKCY</text>
</g>
<!-- J7M&#45;3W -->
<g id="J7M&#45;3W" class="node">
<title>J7M&#45;3W</title>
<polygon fill="none" stroke="black" points="326.71,-133.82 253.71,-133.82 253.71,-97.82 326.71,-97.82 326.71,-133.82"/>
<text text-anchor="middle" x="290.21" y="-112.12" font-family="Times,serif" font-size="14.00">J7M&#45;3W</text>
</g>
<!-- AID&#45;9T -->
<g id="AID&#45;9T" class="node">
<title>AID&#45;9T</title>
<polygon fill="none" stroke="black" points="823.91,-558.09 758.91,-558.09 758.91,-522.09 823.91,-522.09 823.91,-558.09"/>
<text text-anchor="middle" x="791.41" y="-536.39" font-family="Times,serif" font-size="14.00">AID&#45;9T</text>
</g>
<!-- FB&#45;MPY -->
<g id="FB&#45;MPY" class="node">
<title>FB&#45;MPY</title>
<polygon fill="none" stroke="black" points="605.09,-109.31 531.09,-109.31 531.09,-73.31 605.09,-73.31 605.09,-109.31"/>
<text text-anchor="middle" x="568.09" y="-87.61" font-family="Times,serif" font-size="14.00">FB&#45;MPY</text>
</g>
<!-- TZ&#45;74M -->
<g id="TZ&#45;74M" class="node">
<title>TZ&#45;74M</title>
<polygon fill="none" stroke="black" points="614.58,-992.55 542.58,-992.55 542.58,-956.55 614.58,-956.55 614.58,-992.55"/>
<text text-anchor="middle" x="578.58" y="-970.85" font-family="Times,serif" font-size="14.00">TZ&#45;74M</text>
</g>
<!-- 9P4O&#45;F -->
<g id="9P4O&#45;F" class="node">
<title>9P4O&#45;F</title>
<polygon fill="none" stroke="black" points="214.13,-825.69 143.13,-825.69 143.13,-789.69 214.13,-789.69 214.13,-825.69"/>
<text text-anchor="middle" x="178.63" y="-803.99" font-family="Times,serif" font-size="14.00">9P4O&#45;F</text>
</g>
<!-- N&#45;JK02 -->
<g id="N&#45;JK02" class="node">
<title>N&#45;JK02</title>
<ellipse fill="none" stroke="black" cx="845.67" cy="-496.08" rx="43.59" ry="18"/>
<text text-anchor="middle" x="845.67" y="-492.38" font-family="Times,serif" font-size="14.00">N&#45;JK02</text>
</g>
<!-- XTJ&#45;5Q -->
<g id="XTJ&#45;5Q" class="node">
<title>XTJ&#45;5Q</title>
<ellipse fill="none" stroke="black" cx="939.51" cy="-479.93" rx="42.49" ry="18"/>
<text text-anchor="middle" x="939.51" y="-476.23" font-family="Times,serif" font-size="14.00">XTJ&#45;5Q</text>
</g>
<!-- N&#45;JK02&#45;&#45;XTJ&#45;5Q -->
<g id="edge1" class="edge">
<title>N&#45;JK02&#45;&#45;XTJ&#45;5Q</title>
<path fill="none" stroke="black" d="M886.01,-489.14C890.68,-488.33 895.44,-487.52 900.1,-486.72"/>
</g>
<!-- JT2I&#45;7 -->
<g id="JT2I&#45;7" class="node">
<title>JT2I&#45;7</title>
<ellipse fill="none" stroke="black" cx="983.23" cy="-414.69" rx="38.5" ry="18"/>
<text text-anchor="middle" x="983.23" y="-410.99" font-family="Times,serif" font-size="14.00">JT2I&#45;7</text>
</g>
<!-- JT2I&#45;7&#45;&#45;XTJ&#45;5Q -->
<g id="edge2" class="edge">
<title>JT2I&#45;7&#45;&#45;XTJ&#45;5Q</title>
<path fill="none" stroke="black" d="M971.51,-432.18C965.24,-441.54 957.54,-453.03 951.26,-462.4"/>
</g>
<!-- 1&#45;KCSA -->
<g id="1&#45;KCSA" class="node">
<title>1&#45;KCSA</title>
<ellipse fill="none" stroke="black" cx="1035.3" cy="-490.97" rx="45.5" ry="18"/>
<text text-anchor="middle" x="1035.3" y="-487.27" font-family="Times,serif" font-size="14.00">1&#45;KCSA</text>
</g>
<!-- 1&#45;KCSA&#45;&#45;XTJ&#45;5Q -->
<g id="edge3" class="edge">
<title>1&#45;KCSA&#45;&#45;XTJ&#45;5Q</title>
<path fill="none" stroke="black" d="M991.62,-485.94C987.87,-485.5 984.08,-485.07 980.36,-484.64"/>
</g>
<!-- UJXC&#45;B -->
<g id="UJXC&#45;B" class="node">
<title>UJXC&#45;B</title>
<ellipse fill="none" stroke="black" cx="1082.3" cy="-444.54" rx="44.39" ry="18"/>
<text text-anchor="middle" x="1082.3" y="-440.84" font-family="Times,serif" font-size="14.00">UJXC&#45;B</text>
</g>
<!-- 1&#45;KCSA&#45;&#45;UJXC&#45;B -->
<g id="edge4" class="edge">
<title>1&#45;KCSA&#45;&#45;UJXC&#45;B</title>
<path fill="none" stroke="black" d="M1052.3,-474.21C1056.5,-470.05 1061,-465.59 1065.2,-461.43"/>
</g>
<!-- F48K&#45;D -->
<g id="F48K&#45;D" class="node">
<title>F48K&#45;D</title>
<ellipse fill="none" stroke="black" cx="1126.2" cy="-535.01" rx="45.5" ry="18"/>
<text text-anchor="middle" x="1126.2" y="-531.31" font-family="Times,serif" font-size="14.00">F48K&#45;D</text>
</g>
<!-- 1&#45;KCSA&#45;&#45;F48K&#45;D -->
<g id="edge5" class="edge">
<title>1&#45;KCSA&#45;&#45;F48K&#45;D</title>
<path fill="none" stroke="black" d="M1064.3,-505.03C1074.8,-510.11 1086.7,-515.85 1097.2,-520.94"/>
</g>
<!-- F48K&#45;D&#45;&#45;UJXC&#45;B -->
<g id="edge6" class="edge">
<title>F48K&#45;D&#45;&#45;UJXC&#45;B</title>
<path fill="none" stroke="black" d="M1117.5,-517.14C1109.9,-501.28 1098.7,-478.23 1091,-462.37"/>
</g>
<!-- FB5U&#45;I -->
<g id="FB5U&#45;I" class="node">
<title>FB5U&#45;I</title>
<ellipse fill="none" stroke="black" cx="1177.6" cy="-579.05" rx="43.59" ry="18"/>
<text text-anchor="middle" x="1177.6" y="-575.35" font-family="Times,serif" font-size="14.00">FB5U&#45;I</text>
</g>
<!-- F48K&#45;D&#45;&#45;FB5U&#45;I -->
<g id="edge7" class="edge">
<title>F48K&#45;D&#45;&#45;FB5U&#45;I</title>
<path fill="none" stroke="black" d="M1145.3,-551.41C1149.7,-555.13 1154.3,-559.07 1158.6,-562.79"/>
</g>
<!-- UDVW&#45;O -->
<g id="UDVW&#45;O" class="node">
<title>UDVW&#45;O</title>
<ellipse fill="none" stroke="black" cx="1081.8" cy="-396.96" rx="51.5" ry="18"/>
<text text-anchor="middle" x="1081.8" y="-393.26" font-family="Times,serif" font-size="14.00">UDVW&#45;O</text>
</g>
<!-- UDVW&#45;O&#45;&#45;LS&#45;JEP -->
<g id="edge8" class="edge">
<title>UDVW&#45;O&#45;&#45;LS&#45;JEP</title>
<path fill="none" stroke="black" d="M1097.4,-379.79C1100.1,-376.89 1102.8,-373.87 1105.5,-370.95"/>
</g>
<!-- UDVW&#45;O&#45;&#45;UJXC&#45;B -->
<g id="edge9" class="edge">
<title>UDVW&#45;O&#45;&#45;UJXC&#45;B</title>
<path fill="none" stroke="black" d="M1082,-415.22C1082,-418.89 1082.1,-422.74 1082.1,-426.41"/>
</g>
<!-- FBH&#45;JN -->
<g id="FBH&#45;JN" class="node">
<title>FBH&#45;JN</title>
<ellipse fill="none" stroke="black" cx="766.57" cy="-231.97" rx="46.29" ry="18"/>
<text text-anchor="middle" x="766.57" y="-228.27" font-family="Times,serif" font-size="14.00">FBH&#45;JN</text>
</g>
<!-- SH6X&#45;F -->
<g id="SH6X&#45;F" class="node">
<title>SH6X&#45;F</title>
<ellipse fill="none" stroke="black" cx="690.06" cy="-180.27" rx="46.29" ry="18"/>
<text text-anchor="middle" x="690.06" y="-176.57" font-family="Times,serif" font-size="14.00">SH6X&#45;F</text>
</g>
<!-- FBH&#45;JN&#45;&#45;SH6X&#45;F -->
<g id="edge10" class="edge">
<title>FBH&#45;JN&#45;&#45;SH6X&#45;F</title>
<path fill="none" stroke="black" d="M743.2,-216.18C733.71,-209.77 722.76,-202.37 713.29,-195.97"/>
</g>
<!-- BVRQ&#45;O -->
<g id="BVRQ&#45;O" class="node">
<title>BVRQ&#45;O</title>
<ellipse fill="none" stroke="black" cx="797.33" cy="-186.12" rx="48.99" ry="18"/>
<text text-anchor="middle" x="797.33" y="-182.42" font-family="Times,serif" font-size="14.00">BVRQ&#45;O</text>
</g>
<!-- BVRQ&#45;O&#45;&#45;FBH&#45;JN -->
<g id="edge11" class="edge">
<title>BVRQ&#45;O&#45;&#45;FBH&#45;JN</title>
<path fill="none" stroke="black" d="M785.53,-203.72C783.15,-207.26 780.66,-210.97 778.29,-214.5"/>
</g>
<!-- QX&#45;4HO -->
<g id="QX&#45;4HO" class="node">
<title>QX&#45;4HO</title>
<ellipse fill="none" stroke="black" cx="800.3" cy="-128.16" rx="48.19" ry="18"/>
<text text-anchor="middle" x="800.3" y="-124.46" font-family="Times,serif" font-size="14.00">QX&#45;4HO</text>
</g>
<!-- BVRQ&#45;O&#45;&#45;QX&#45;4HO -->
<g id="edge12" class="edge">
<title>BVRQ&#45;O&#45;&#45;QX&#45;4HO</title>
<path fill="none" stroke="black" d="M798.25,-168.1C798.61,-161.19 799.01,-153.3 799.37,-146.37"/>
</g>
<!-- LS3&#45;HP -->
<g id="LS3&#45;HP" class="node">
<title>LS3&#45;HP</title>
<ellipse fill="none" stroke="black" cx="815.9" cy="-71.9" rx="46.29" ry="18"/>
<text text-anchor="middle" x="815.9" y="-68.2" font-family="Times,serif" font-size="14.00">LS3&#45;HP</text>
</g>
<!-- LS3&#45;HP&#45;&#45;QX&#45;4HO -->
<g id="edge13" class="edge">
<title>LS3&#45;HP&#45;&#45;QX&#45;4HO</title>
<path fill="none" stroke="black" d="M810.88,-90.01C809.1,-96.43 807.09,-103.66 805.31,-110.08"/>
</g>
<!-- 6V&#45;D0E -->
<g id="6V&#45;D0E" class="node">
<title>6V&#45;D0E</title>
<ellipse fill="none" stroke="black" cx="827.9" cy="-18" rx="45.5" ry="18"/>
<text text-anchor="middle" x="827.9" y="-14.3" font-family="Times,serif" font-size="14.00">6V&#45;D0E</text>
</g>
<!-- 6V&#45;D0E&#45;&#45;LS3&#45;HP -->
<g id="edge14" class="edge">
<title>6V&#45;D0E&#45;&#45;LS3&#45;HP</title>
<path fill="none" stroke="black" d="M823.9,-35.95C822.62,-41.7 821.2,-48.08 819.92,-53.84"/>
</g>
<!-- SG&#45;3HY -->
<g id="SG&#45;3HY" class="node">
<title>SG&#45;3HY</title>
<ellipse fill="none" stroke="black" cx="532.17" cy="-231.97" rx="47" ry="18"/>
<text text-anchor="middle" x="532.17" y="-228.27" font-family="Times,serif" font-size="14.00">SG&#45;3HY</text>
</g>
<!-- AU2V&#45;J -->
<g id="AU2V&#45;J" class="node">
<title>AU2V&#45;J</title>
<ellipse fill="none" stroke="black" cx="377.66" cy="-159.58" rx="43" ry="18"/>
<text text-anchor="middle" x="377.66" y="-155.88" font-family="Times,serif" font-size="14.00">AU2V&#45;J</text>
</g>
<!-- SY&#45;0AM -->
<g id="SY&#45;0AM" class="node">
<title>SY&#45;0AM</title>
<ellipse fill="none" stroke="black" cx="280.55" cy="-180.2" rx="46.29" ry="18"/>
<text text-anchor="middle" x="280.55" y="-176.5" font-family="Times,serif" font-size="14.00">SY&#45;0AM</text>
</g>
<!-- AU2V&#45;J&#45;&#45;SY&#45;0AM -->
<g id="edge15" class="edge">
<title>AU2V&#45;J&#45;&#45;SY&#45;0AM</title>
<path fill="none" stroke="black" d="M339.28,-167.73C333.34,-168.99 327.19,-170.3 321.21,-171.57"/>
</g>
<!-- QZX&#45;L9 -->
<g id="QZX&#45;L9" class="node">
<title>QZX&#45;L9</title>
<ellipse fill="none" stroke="black" cx="474.08" cy="-187.95" rx="45.5" ry="18"/>
<text text-anchor="middle" x="474.08" y="-184.25" font-family="Times,serif" font-size="14.00">QZX&#45;L9</text>
</g>
<!-- AU2V&#45;J&#45;&#45;QZX&#45;L9 -->
<g id="edge16" class="edge">
<title>AU2V&#45;J&#45;&#45;QZX&#45;L9</title>
<path fill="none" stroke="black" d="M413.01,-169.99C420.97,-172.33 429.43,-174.81 437.43,-177.17"/>
</g>
<!-- D&#45;6PKO -->
<g id="D&#45;6PKO" class="node">
<title>D&#45;6PKO</title>
<ellipse fill="none" stroke="black" cx="389.44" cy="-115.49" rx="47" ry="18"/>
<text text-anchor="middle" x="389.44" y="-111.79" font-family="Times,serif" font-size="14.00">D&#45;6PKO</text>
</g>
<!-- AU2V&#45;J&#45;&#45;D&#45;6PKO -->
<g id="edge17" class="edge">
<title>AU2V&#45;J&#45;&#45;D&#45;6PKO</title>
<path fill="none" stroke="black" d="M382.45,-141.65C383.16,-138.98 383.9,-136.23 384.61,-133.55"/>
</g>
<!-- SY&#45;0AM&#45;&#45;J7M&#45;3W -->
<g id="edge18" class="edge">
<title>SY&#45;0AM&#45;&#45;J7M&#45;3W</title>
<path fill="none" stroke="black" d="M283.29,-161.92C284.61,-153.15 286.18,-142.67 287.5,-133.92"/>
</g>
<!-- QZX&#45;L9&#45;&#45;Z&#45;EKCY -->
<g id="edge19" class="edge">
<title>QZX&#45;L9&#45;&#45;Z&#45;EKCY</title>
<path fill="none" stroke="black" d="M476.71,-169.66C478.89,-154.5 481.97,-133.08 484.14,-117.93"/>
</g>
<!-- QZX&#45;L9&#45;&#45;SG&#45;3HY -->
<g id="edge20" class="edge">
<title>QZX&#45;L9&#45;&#45;SG&#45;3HY</title>
<path fill="none" stroke="black" d="M495.38,-204.09C500.43,-207.92 505.82,-212 510.87,-215.83"/>
</g>
<!-- QZX&#45;L9&#45;&#45;SY&#45;0AM -->
<g id="edge21" class="edge">
<title>QZX&#45;L9&#45;&#45;SY&#45;0AM</title>
<path fill="none" stroke="black" d="M428.71,-186.13C397.98,-184.9 357.52,-183.28 326.65,-182.04"/>
</g>
<!-- D&#45;6PKO&#45;&#45;SY&#45;0AM -->
<g id="edge22" class="edge">
<title>D&#45;6PKO&#45;&#45;SY&#45;0AM</title>
<path fill="none" stroke="black" d="M363.91,-130.66C346.44,-141.05 323.36,-154.76 305.92,-165.12"/>
</g>
<!-- D&#45;6PKO&#45;&#45;QZX&#45;L9 -->
<g id="edge23" class="edge">
<title>D&#45;6PKO&#45;&#45;QZX&#45;L9</title>
<path fill="none" stroke="black" d="M408.65,-131.93C422.5,-143.79 441.12,-159.73 454.95,-171.57"/>
</g>
<!-- A&#45;YB15 -->
<g id="A&#45;YB15" class="node">
<title>A&#45;YB15</title>
<ellipse fill="none" stroke="black" cx="573.74" cy="-176.14" rx="43.59" ry="18"/>
<text text-anchor="middle" x="573.74" y="-172.44" font-family="Times,serif" font-size="14.00">A&#45;YB15</text>
</g>
<!-- A&#45;YB15&#45;&#45;FB&#45;MPY -->
<g id="edge24" class="edge">
<title>A&#45;YB15&#45;&#45;FB&#45;MPY</title>
<path fill="none" stroke="black" d="M572.52,-157.73C571.56,-143.41 570.25,-123.63 569.3,-109.39"/>
</g>
<!-- A&#45;YB15&#45;&#45;SG&#45;3HY -->
<g id="edge25" class="edge">
<title>A&#45;YB15&#45;&#45;SG&#45;3HY</title>
<path fill="none" stroke="black" d="M560.82,-193.5C555.86,-200.16 550.2,-207.75 545.23,-214.43"/>
</g>
<!-- RAI&#45;0E -->
<g id="RAI&#45;0E" class="node">
<title>RAI&#45;0E</title>
<ellipse fill="none" stroke="black" cx="625.98" cy="-630.91" rx="43" ry="18"/>
<text text-anchor="middle" x="625.98" y="-627.21" font-family="Times,serif" font-size="14.00">RAI&#45;0E</text>
</g>
<!-- TA9T&#45;P -->
<g id="TA9T&#45;P" class="node">
<title>TA9T&#45;P</title>
<ellipse fill="none" stroke="black" cx="686.79" cy="-674.96" rx="42.49" ry="18"/>
<text text-anchor="middle" x="686.79" y="-671.26" font-family="Times,serif" font-size="14.00">TA9T&#45;P</text>
</g>
<!-- RAI&#45;0E&#45;&#45;TA9T&#45;P -->
<g id="edge26" class="edge">
<title>RAI&#45;0E&#45;&#45;TA9T&#45;P</title>
<path fill="none" stroke="black" d="M647.59,-646.56C653.33,-650.72 659.52,-655.2 665.25,-659.35"/>
</g>
<!-- MN9P&#45;A -->
<g id="MN9P&#45;A" class="node">
<title>MN9P&#45;A</title>
<ellipse fill="none" stroke="black" cx="607.99" cy="-538.56" rx="48.99" ry="18"/>
<text text-anchor="middle" x="607.99" y="-534.86" font-family="Times,serif" font-size="14.00">MN9P&#45;A</text>
</g>
<!-- MN9P&#45;A&#45;&#45;RAI&#45;0E -->
<g id="edge27" class="edge">
<title>MN9P&#45;A&#45;&#45;RAI&#45;0E</title>
<path fill="none" stroke="black" d="M611.54,-556.8C614.7,-572.99 619.28,-596.52 622.43,-612.7"/>
</g>
<!-- L&#45;TLFU -->
<g id="L&#45;TLFU" class="node">
<title>L&#45;TLFU</title>
<ellipse fill="none" stroke="black" cx="722.94" cy="-628.12" rx="45.5" ry="18"/>
<text text-anchor="middle" x="722.94" y="-624.42" font-family="Times,serif" font-size="14.00">L&#45;TLFU</text>
</g>
<!-- L&#45;TLFU&#45;&#45;MN9P&#45;A -->
<g id="edge28" class="edge">
<title>L&#45;TLFU&#45;&#45;MN9P&#45;A</title>
<path fill="none" stroke="black" d="M698.86,-612.58C692.04,-607.99 684.68,-602.86 678.09,-597.87 660.04,-584.21 640.44,-567.46 626.57,-555.24"/>
</g>
<!-- BM&#45;VYZ -->
<g id="BM&#45;VYZ" class="node">
<title>BM&#45;VYZ</title>
<ellipse fill="none" stroke="black" cx="713.43" cy="-584.1" rx="48.19" ry="18"/>
<text text-anchor="middle" x="713.43" y="-580.4" font-family="Times,serif" font-size="14.00">BM&#45;VYZ</text>
</g>
<!-- BM&#45;VYZ&#45;&#45;MN9P&#45;A -->
<g id="edge29" class="edge">
<title>BM&#45;VYZ&#45;&#45;MN9P&#45;A</title>
<path fill="none" stroke="black" d="M681.8,-570.43C668.57,-564.72 653.23,-558.09 639.97,-552.37"/>
</g>
<!-- BM&#45;VYZ&#45;&#45;L&#45;TLFU -->
<g id="edge30" class="edge">
<title>BM&#45;VYZ&#45;&#45;L&#45;TLFU</title>
<path fill="none" stroke="black" d="M717.36,-602.26C717.91,-604.81 718.48,-607.44 719.03,-610"/>
</g>
<!-- Q&#45;GICU -->
<g id="Q&#45;GICU" class="node">
<title>Q&#45;GICU</title>
<ellipse fill="none" stroke="black" cx="738.37" cy="-719.16" rx="47" ry="18"/>
<text text-anchor="middle" x="738.37" y="-715.46" font-family="Times,serif" font-size="14.00">Q&#45;GICU</text>
</g>
<!-- Q&#45;GICU&#45;&#45;TA9T&#45;P -->
<g id="edge31" class="edge">
<title>Q&#45;GICU&#45;&#45;TA9T&#45;P</title>
<path fill="none" stroke="black" d="M719.16,-702.7C714.81,-698.97 710.19,-695.01 705.84,-691.28"/>
</g>
<!-- R1O&#45;GN -->
<g id="R1O&#45;GN" class="node">
<title>R1O&#45;GN</title>
<ellipse fill="none" stroke="black" cx="629.17" cy="-762.97" rx="49.5" ry="18"/>
<text text-anchor="middle" x="629.17" y="-759.27" font-family="Times,serif" font-size="14.00">R1O&#45;GN</text>
</g>
<!-- Q&#45;GICU&#45;&#45;R1O&#45;GN -->
<g id="edge32" class="edge">
<title>Q&#45;GICU&#45;&#45;R1O&#45;GN</title>
<path fill="none" stroke="black" d="M705.9,-732.18C692.2,-737.68 676.25,-744.08 662.46,-749.61"/>
</g>
<!-- RQOO&#45;U -->
<g id="RQOO&#45;U" class="node">
<title>RQOO&#45;U</title>
<ellipse fill="none" stroke="black" cx="715.88" cy="-807.01" rx="50.89" ry="18"/>
<text text-anchor="middle" x="715.88" y="-803.31" font-family="Times,serif" font-size="14.00">RQOO&#45;U</text>
</g>
<!-- R1O&#45;GN&#45;&#45;RQOO&#45;U -->
<g id="edge33" class="edge">
<title>R1O&#45;GN&#45;&#45;RQOO&#45;U</title>
<path fill="none" stroke="black" d="M658.04,-777.63C667.2,-782.29 677.34,-787.44 686.54,-792.11"/>
</g>
<!-- EPCD&#45;D -->
<g id="EPCD&#45;D" class="node">
<title>EPCD&#45;D</title>
<ellipse fill="none" stroke="black" cx="785.26" cy="-672.15" rx="48.19" ry="18"/>
<text text-anchor="middle" x="785.26" y="-668.45" font-family="Times,serif" font-size="14.00">EPCD&#45;D</text>
</g>
<!-- EPCD&#45;D&#45;&#45;L&#45;TLFU -->
<g id="edge34" class="edge">
<title>EPCD&#45;D&#45;&#45;L&#45;TLFU</title>
<path fill="none" stroke="black" d="M762.41,-656.01C756.85,-652.08 750.91,-647.88 745.37,-643.97"/>
</g>
<!-- 0S1&#45;GI -->
<g id="0S1&#45;GI" class="node">
<title>0S1&#45;GI</title>
<ellipse fill="none" stroke="black" cx="597.9" cy="-450.2" rx="42.49" ry="18"/>
<text text-anchor="middle" x="597.9" y="-446.5" font-family="Times,serif" font-size="14.00">0S1&#45;GI</text>
</g>
<!-- 74&#45;DRC -->
<g id="74&#45;DRC" class="node">
<title>74&#45;DRC</title>
<ellipse fill="none" stroke="black" cx="628.01" cy="-494.49" rx="46.29" ry="18"/>
<text text-anchor="middle" x="628.01" y="-490.79" font-family="Times,serif" font-size="14.00">74&#45;DRC</text>
</g>
<!-- 0S1&#45;GI&#45;&#45;74&#45;DRC -->
<g id="edge35" class="edge">
<title>0S1&#45;GI&#45;&#45;74&#45;DRC</title>
<path fill="none" stroke="black" d="M609.81,-467.71C611.84,-470.7 613.96,-473.82 616,-476.82"/>
</g>
<!-- O31W&#45;6 -->
<g id="O31W&#45;6" class="node">
<title>O31W&#45;6</title>
<ellipse fill="none" stroke="black" cx="689.04" cy="-364.03" rx="47.5" ry="18"/>
<text text-anchor="middle" x="689.04" y="-360.33" font-family="Times,serif" font-size="14.00">O31W&#45;6</text>
</g>
<!-- 0S1&#45;GI&#45;&#45;O31W&#45;6 -->
<g id="edge36" class="edge">
<title>0S1&#45;GI&#45;&#45;O31W&#45;6</title>
<path fill="none" stroke="black" d="M615.48,-433.59C631.51,-418.43 655.1,-396.13 671.21,-380.89"/>
</g>
<!-- M3&#45;H2Y -->
<g id="M3&#45;H2Y" class="node">
<title>M3&#45;H2Y</title>
<ellipse fill="none" stroke="black" cx="697.17" cy="-408.04" rx="48.19" ry="18"/>
<text text-anchor="middle" x="697.17" y="-404.34" font-family="Times,serif" font-size="14.00">M3&#45;H2Y</text>
</g>
<!-- 0S1&#45;GI&#45;&#45;M3&#45;H2Y -->
<g id="edge37" class="edge">
<title>0S1&#45;GI&#45;&#45;M3&#45;H2Y</title>
<path fill="none" stroke="black" d="M627.96,-437.44C639.71,-432.44 653.21,-426.71 665.15,-421.64"/>
</g>
<!-- 74&#45;DRC&#45;&#45;MN9P&#45;A -->
<g id="edge38" class="edge">
<title>74&#45;DRC&#45;&#45;MN9P&#45;A</title>
<path fill="none" stroke="black" d="M619.87,-512.41C618.61,-515.18 617.32,-518.03 616.06,-520.79"/>
</g>
<!-- L&#45;GY1B -->
<g id="L&#45;GY1B" class="node">
<title>L&#45;GY1B</title>
<ellipse fill="none" stroke="black" cx="747.84" cy="-496.07" rx="45.5" ry="18"/>
<text text-anchor="middle" x="747.84" y="-492.37" font-family="Times,serif" font-size="14.00">L&#45;GY1B</text>
</g>
<!-- 74&#45;DRC&#45;&#45;L&#45;GY1B -->
<g id="edge39" class="edge">
<title>74&#45;DRC&#45;&#45;L&#45;GY1B</title>
<path fill="none" stroke="black" d="M674.34,-495.1C683.43,-495.22 692.96,-495.35 702.03,-495.47"/>
</g>
<!-- O31W&#45;6&#45;&#45;7&#45;YHRX -->
<g id="edge40" class="edge">
<title>O31W&#45;6&#45;&#45;7&#45;YHRX</title>
<path fill="none" stroke="black" d="M713.59,-348.39C718.71,-345.13 724.15,-341.67 729.41,-338.32"/>
</g>
<!-- L&#45;GY1B&#45;&#45;AID&#45;9T -->
<g id="edge41" class="edge">
<title>L&#45;GY1B&#45;&#45;AID&#45;9T</title>
<path fill="none" stroke="black" d="M764.56,-512.97C767.44,-515.87 770.45,-518.91 773.36,-521.85"/>
</g>
<!-- L&#45;GY1B&#45;&#45;N&#45;JK02 -->
<g id="edge42" class="edge">
<title>L&#45;GY1B&#45;&#45;N&#45;JK02</title>
<path fill="none" stroke="black" d="M793.61,-496.08C796.39,-496.08 799.19,-496.08 801.96,-496.08"/>
</g>
<!-- LE&#45;67X -->
<g id="LE&#45;67X" class="node">
<title>LE&#45;67X</title>
<ellipse fill="none" stroke="black" cx="785" cy="-452.07" rx="44.39" ry="18"/>
<text text-anchor="middle" x="785" y="-448.37" font-family="Times,serif" font-size="14.00">LE&#45;67X</text>
</g>
<!-- L&#45;GY1B&#45;&#45;LE&#45;67X -->
<g id="edge43" class="edge">
<title>L&#45;GY1B&#45;&#45;LE&#45;67X</title>
<path fill="none" stroke="black" d="M762.31,-478.93C765,-475.75 767.82,-472.42 770.51,-469.23"/>
</g>
<!-- B1UE&#45;J -->
<g id="B1UE&#45;J" class="node">
<title>B1UE&#45;J</title>
<ellipse fill="none" stroke="black" cx="771.95" cy="-276" rx="44.39" ry="18"/>
<text text-anchor="middle" x="771.95" y="-272.3" font-family="Times,serif" font-size="14.00">B1UE&#45;J</text>
</g>
<!-- B1UE&#45;J&#45;&#45;V3P&#45;AZ -->
<g id="edge44" class="edge">
<title>B1UE&#45;J&#45;&#45;V3P&#45;AZ</title>
<path fill="none" stroke="black" d="M815.09,-271.8C818.13,-271.5 821.16,-271.21 824.13,-270.92"/>
</g>
<!-- B1UE&#45;J&#45;&#45;FBH&#45;JN -->
<g id="edge45" class="edge">
<title>B1UE&#45;J&#45;&#45;FBH&#45;JN</title>
<path fill="none" stroke="black" d="M769.73,-257.84C769.42,-255.28 769.1,-252.65 768.79,-250.09"/>
</g>
<!-- B1UE&#45;J&#45;&#45;O31W&#45;6 -->
<g id="edge46" class="edge">
<title>B1UE&#45;J&#45;&#45;O31W&#45;6</title>
<path fill="none" stroke="black" d="M737.04,-287.15C730.84,-290.24 724.81,-294.08 719.93,-298.82 706.63,-311.74 698.39,-331.52 693.8,-345.9"/>
</g>
<!-- G&#45;KCFT -->
<g id="G&#45;KCFT" class="node">
<title>G&#45;KCFT</title>
<ellipse fill="none" stroke="black" cx="561.91" cy="-276" rx="46.29" ry="18"/>
<text text-anchor="middle" x="561.91" y="-272.3" font-family="Times,serif" font-size="14.00">G&#45;KCFT</text>
</g>
<!-- G&#45;KCFT&#45;&#45;SG&#45;3HY -->
<g id="edge47" class="edge">
<title>G&#45;KCFT&#45;&#45;SG&#45;3HY</title>
<path fill="none" stroke="black" d="M549.99,-258.35C548.05,-255.48 546.04,-252.5 544.1,-249.63"/>
</g>
<!-- WNM&#45;V0 -->
<g id="WNM&#45;V0" class="node">
<title>WNM&#45;V0</title>
<ellipse fill="none" stroke="black" cx="494.3" cy="-338.82" rx="52" ry="18"/>
<text text-anchor="middle" x="494.3" y="-335.12" font-family="Times,serif" font-size="14.00">WNM&#45;V0</text>
</g>
<!-- G&#45;KCFT&#45;&#45;WNM&#45;V0 -->
<g id="edge48" class="edge">
<title>G&#45;KCFT&#45;&#45;WNM&#45;V0</title>
<path fill="none" stroke="black" d="M543.79,-292.84C534.09,-301.85 522.18,-312.92 512.47,-321.94"/>
</g>
<!-- 6FS&#45;CZ -->
<g id="6FS&#45;CZ" class="node">
<title>6FS&#45;CZ</title>
<ellipse fill="none" stroke="black" cx="405.01" cy="-383.63" rx="45.5" ry="18"/>
<text text-anchor="middle" x="405.01" y="-379.93" font-family="Times,serif" font-size="14.00">6FS&#45;CZ</text>
</g>
<!-- 6FS&#45;CZ&#45;&#45;WNM&#45;V0 -->
<g id="edge49" class="edge">
<title>6FS&#45;CZ&#45;&#45;WNM&#45;V0</title>
<path fill="none" stroke="black" d="M433.26,-369.45C443.27,-364.42 454.57,-358.76 464.69,-353.68"/>
</g>
<!-- H7S&#45;5I -->
<g id="H7S&#45;5I" class="node">
<title>H7S&#45;5I</title>
<ellipse fill="none" stroke="black" cx="335.49" cy="-427.91" rx="43" ry="18"/>
<text text-anchor="middle" x="335.49" y="-424.21" font-family="Times,serif" font-size="14.00">H7S&#45;5I</text>
</g>
<!-- 6FS&#45;CZ&#45;&#45;H7S&#45;5I -->
<g id="edge50" class="edge">
<title>6FS&#45;CZ&#45;&#45;H7S&#45;5I</title>
<path fill="none" stroke="black" d="M380.69,-399.12C373.8,-403.51 366.3,-408.28 359.44,-412.66"/>
</g>
<!-- HPV&#45;RJ -->
<g id="HPV&#45;RJ" class="node">
<title>HPV&#45;RJ</title>
<ellipse fill="none" stroke="black" cx="510.37" cy="-388.18" rx="44.39" ry="18"/>
<text text-anchor="middle" x="510.37" y="-384.48" font-family="Times,serif" font-size="14.00">HPV&#45;RJ</text>
</g>
<!-- HPV&#45;RJ&#45;&#45;WNM&#45;V0 -->
<g id="edge51" class="edge">
<title>HPV&#45;RJ&#45;&#45;WNM&#45;V0</title>
<path fill="none" stroke="black" d="M504.48,-370.08C503.08,-365.79 501.59,-361.21 500.19,-356.92"/>
</g>
<!-- C3J0&#45;O -->
<g id="C3J0&#45;O" class="node">
<title>C3J0&#45;O</title>
<ellipse fill="none" stroke="black" cx="597.25" cy="-320.02" rx="43" ry="18"/>
<text text-anchor="middle" x="597.25" y="-316.32" font-family="Times,serif" font-size="14.00">C3J0&#45;O</text>
</g>
<!-- C3J0&#45;O&#45;&#45;O31W&#45;6 -->
<g id="edge52" class="edge">
<title>C3J0&#45;O&#45;&#45;O31W&#45;6</title>
<path fill="none" stroke="black" d="M625.54,-333.58C636.28,-338.74 648.55,-344.62 659.41,-349.83"/>
</g>
<!-- C3J0&#45;O&#45;&#45;G&#45;KCFT -->
<g id="edge53" class="edge">
<title>C3J0&#45;O&#45;&#45;G&#45;KCFT</title>
<path fill="none" stroke="black" d="M583.48,-302.88C581,-299.79 578.42,-296.56 575.93,-293.46"/>
</g>
<!-- C3J0&#45;O&#45;&#45;WNM&#45;V0 -->
<g id="edge54" class="edge">
<title>C3J0&#45;O&#45;&#45;WNM&#45;V0</title>
<path fill="none" stroke="black" d="M557.74,-327.23C552.07,-328.27 546.19,-329.34 540.41,-330.4"/>
</g>
<!-- GSO&#45;SR -->
<g id="GSO&#45;SR" class="node">
<title>GSO&#45;SR</title>
<ellipse fill="none" stroke="black" cx="383.15" cy="-339.58" rx="48.19" ry="18"/>
<text text-anchor="middle" x="383.15" y="-335.88" font-family="Times,serif" font-size="14.00">GSO&#45;SR</text>
</g>
<!-- GSO&#45;SR&#45;&#45;WNM&#45;V0 -->
<g id="edge55" class="edge">
<title>GSO&#45;SR&#45;&#45;WNM&#45;V0</title>
<path fill="none" stroke="black" d="M431.26,-339.25C434.9,-339.22 438.58,-339.2 442.24,-339.17"/>
</g>
<!-- B3ZU&#45;H -->
<g id="B3ZU&#45;H" class="node">
<title>B3ZU&#45;H</title>
<ellipse fill="none" stroke="black" cx="430.74" cy="-291.78" rx="48.19" ry="18"/>
<text text-anchor="middle" x="430.74" y="-288.08" font-family="Times,serif" font-size="14.00">B3ZU&#45;H</text>
</g>
<!-- B3ZU&#45;H&#45;&#45;G&#45;KCFT -->
<g id="edge56" class="edge">
<title>B3ZU&#45;H&#45;&#45;G&#45;KCFT</title>
<path fill="none" stroke="black" d="M476.62,-286.26C489.92,-284.66 504.41,-282.92 517.61,-281.33"/>
</g>
<!-- B3ZU&#45;H&#45;&#45;WNM&#45;V0 -->
<g id="edge57" class="edge">
<title>B3ZU&#45;H&#45;&#45;WNM&#45;V0</title>
<path fill="none" stroke="black" d="M452.62,-307.97C458.94,-312.64 465.84,-317.75 472.17,-322.44"/>
</g>
<!-- B3ZU&#45;H&#45;&#45;GSO&#45;SR -->
<g id="edge58" class="edge">
<title>B3ZU&#45;H&#45;&#45;GSO&#45;SR</title>
<path fill="none" stroke="black" d="M413.83,-308.76C409.34,-313.27 404.5,-318.14 400.01,-322.64"/>
</g>
<!-- G4&#45;QU6 -->
<g id="G4&#45;QU6" class="node">
<title>G4&#45;QU6</title>
<ellipse fill="none" stroke="black" cx="612.3" cy="-718.97" rx="48.19" ry="18"/>
<text text-anchor="middle" x="612.3" y="-715.27" font-family="Times,serif" font-size="14.00">G4&#45;QU6</text>
</g>
<!-- G4&#45;QU6&#45;&#45;Q&#45;GICU -->
<g id="edge59" class="edge">
<title>G4&#45;QU6&#45;&#45;Q&#45;GICU</title>
<path fill="none" stroke="black" d="M660.68,-719.04C670.82,-719.06 681.49,-719.07 691.57,-719.09"/>
</g>
<!-- V2&#45;GZS -->
<g id="V2&#45;GZS" class="node">
<title>V2&#45;GZS</title>
<ellipse fill="none" stroke="black" cx="510.02" cy="-733.08" rx="46.29" ry="18"/>
<text text-anchor="middle" x="510.02" y="-729.38" font-family="Times,serif" font-size="14.00">V2&#45;GZS</text>
</g>
<!-- G4&#45;QU6&#45;&#45;V2&#45;GZS -->
<g id="edge60" class="edge">
<title>G4&#45;QU6&#45;&#45;V2&#45;GZS</title>
<path fill="none" stroke="black" d="M567.14,-725.2C562.65,-725.82 558.09,-726.45 553.61,-727.06"/>
</g>
<!-- HD&#45;HOZ -->
<g id="HD&#45;HOZ" class="node">
<title>HD&#45;HOZ</title>
<ellipse fill="none" stroke="black" cx="405.74" cy="-689.72" rx="50.09" ry="18"/>
<text text-anchor="middle" x="405.74" y="-686.02" font-family="Times,serif" font-size="14.00">HD&#45;HOZ</text>
</g>
<!-- HD&#45;HOZ&#45;&#45;V2&#45;GZS -->
<g id="edge61" class="edge">
<title>HD&#45;HOZ&#45;&#45;V2&#45;GZS</title>
<path fill="none" stroke="black" d="M438.73,-703.44C451.39,-708.7 465.78,-714.68 478.31,-719.89"/>
</g>
<!-- LEM&#45;I1 -->
<g id="LEM&#45;I1" class="node">
<title>LEM&#45;I1</title>
<ellipse fill="none" stroke="black" cx="284.7" cy="-718.48" rx="45" ry="18"/>
<text text-anchor="middle" x="284.7" y="-714.78" font-family="Times,serif" font-size="14.00">LEM&#45;I1</text>
</g>
<!-- HD&#45;HOZ&#45;&#45;LEM&#45;I1 -->
<g id="edge62" class="edge">
<title>HD&#45;HOZ&#45;&#45;LEM&#45;I1</title>
<path fill="none" stroke="black" d="M363.74,-699.7C350.63,-702.81 336.24,-706.23 323.37,-709.29"/>
</g>
<!-- ND&#45;GL4 -->
<g id="ND&#45;GL4" class="node">
<title>ND&#45;GL4</title>
<ellipse fill="none" stroke="black" cx="356.19" cy="-645.67" rx="48.19" ry="18"/>
<text text-anchor="middle" x="356.19" y="-641.97" font-family="Times,serif" font-size="14.00">ND&#45;GL4</text>
</g>
<!-- HD&#45;HOZ&#45;&#45;ND&#45;GL4 -->
<g id="edge63" class="edge">
<title>HD&#45;HOZ&#45;&#45;ND&#45;GL4</title>
<path fill="none" stroke="black" d="M386.72,-672.81C382.9,-669.42 378.89,-665.85 375.07,-662.45"/>
</g>
<!-- LEM&#45;I1&#45;&#45;ND&#45;GL4 -->
<g id="edge64" class="edge">
<title>LEM&#45;I1&#45;&#45;ND&#45;GL4</title>
<path fill="none" stroke="black" d="M301.28,-701.59C312.74,-689.92 327.95,-674.43 339.45,-662.72"/>
</g>
<!-- 42G&#45;OB -->
<g id="42G&#45;OB" class="node">
<title>42G&#45;OB</title>
<ellipse fill="none" stroke="black" cx="369.31" cy="-762.98" rx="47" ry="18"/>
<text text-anchor="middle" x="369.31" y="-759.28" font-family="Times,serif" font-size="14.00">42G&#45;OB</text>
</g>
<!-- 42G&#45;OB&#45;&#45;V2&#45;GZS -->
<g id="edge65" class="edge">
<title>42G&#45;OB&#45;&#45;V2&#45;GZS</title>
<path fill="none" stroke="black" d="M410.39,-754.25C428.88,-750.32 450.66,-745.69 469.14,-741.77"/>
</g>
<!-- 42G&#45;OB&#45;&#45;HD&#45;HOZ -->
<g id="edge66" class="edge">
<title>42G&#45;OB&#45;&#45;HD&#45;HOZ</title>
<path fill="none" stroke="black" d="M378.13,-745.25C383.81,-733.81 391.18,-719 396.87,-707.54"/>
</g>
<!-- 42G&#45;OB&#45;&#45;LEM&#45;I1 -->
<g id="edge67" class="edge">
<title>42G&#45;OB&#45;&#45;LEM&#45;I1</title>
<path fill="none" stroke="black" d="M341.6,-748.41C332.16,-743.44 321.6,-737.89 312.17,-732.93"/>
</g>
<!-- 1S&#45;SU1 -->
<g id="1S&#45;SU1" class="node">
<title>1S&#45;SU1</title>
<ellipse fill="none" stroke="black" cx="239.61" cy="-763.61" rx="46.29" ry="18"/>
<text text-anchor="middle" x="239.61" y="-759.91" font-family="Times,serif" font-size="14.00">1S&#45;SU1</text>
</g>
<!-- 1S&#45;SU1&#45;&#45;9P4O&#45;F -->
<g id="edge68" class="edge">
<title>1S&#45;SU1&#45;&#45;9P4O&#45;F</title>
<path fill="none" stroke="black" d="M217.59,-779.53C213.09,-782.78 208.32,-786.23 203.72,-789.55"/>
</g>
<!-- 1S&#45;SU1&#45;&#45;LEM&#45;I1 -->
<g id="edge69" class="edge">
<title>1S&#45;SU1&#45;&#45;LEM&#45;I1</title>
<path fill="none" stroke="black" d="M256.4,-746.81C260.1,-743.1 264.03,-739.17 267.74,-735.45"/>
</g>
<!-- 9&#45;0QB7 -->
<g id="9&#45;0QB7" class="node">
<title>9&#45;0QB7</title>
<ellipse fill="none" stroke="black" cx="297.91" cy="-472.07" rx="45.5" ry="18"/>
<text text-anchor="middle" x="297.91" y="-468.37" font-family="Times,serif" font-size="14.00">9&#45;0QB7</text>
</g>
<!-- 9&#45;0QB7&#45;&#45;H7S&#45;5I -->
<g id="edge70" class="edge">
<title>9&#45;0QB7&#45;&#45;H7S&#45;5I</title>
<path fill="none" stroke="black" d="M312.55,-454.87C315.27,-451.68 318.11,-448.34 320.83,-445.14"/>
</g>
<!-- M&#45;75WN -->
<g id="M&#45;75WN" class="node">
<title>M&#45;75WN</title>
<ellipse fill="none" stroke="black" cx="367.99" cy="-556.1" rx="52" ry="18"/>
<text text-anchor="middle" x="367.99" y="-552.4" font-family="Times,serif" font-size="14.00">M&#45;75WN</text>
</g>
<!-- 9&#45;0QB7&#45;&#45;M&#45;75WN -->
<g id="edge71" class="edge">
<title>9&#45;0QB7&#45;&#45;M&#45;75WN</title>
<path fill="none" stroke="black" d="M312.43,-489.48C324.46,-503.91 341.46,-524.3 353.48,-538.71"/>
</g>
<!-- HVGR&#45;R -->
<g id="HVGR&#45;R" class="node">
<title>HVGR&#45;R</title>
<ellipse fill="none" stroke="black" cx="259.19" cy="-516.14" rx="48.99" ry="18"/>
<text text-anchor="middle" x="259.19" y="-512.44" font-family="Times,serif" font-size="14.00">HVGR&#45;R</text>
</g>
<!-- 9&#45;0QB7&#45;&#45;HVGR&#45;R -->
<g id="edge72" class="edge">
<title>9&#45;0QB7&#45;&#45;HVGR&#45;R</title>
<path fill="none" stroke="black" d="M282.83,-489.24C280.03,-492.43 277.1,-495.76 274.29,-498.95"/>
</g>
<!-- PNFW&#45;O -->
<g id="PNFW&#45;O" class="node">
<title>PNFW&#45;O</title>
<ellipse fill="none" stroke="black" cx="149.48" cy="-507.17" rx="50.09" ry="18"/>
<text text-anchor="middle" x="149.48" y="-503.47" font-family="Times,serif" font-size="14.00">PNFW&#45;O</text>
</g>
<!-- M&#45;75WN&#45;&#45;PNFW&#45;O -->
<g id="edge73" class="edge">
<title>M&#45;75WN&#45;&#45;PNFW&#45;O</title>
<path fill="none" stroke="black" d="M320.19,-548.94C291.91,-544.33 255.49,-537.76 223.55,-529.98 211.26,-526.99 198.01,-523.12 186.16,-519.42"/>
</g>
<!-- HVGR&#45;R&#45;&#45;M&#45;75WN -->
<g id="edge74" class="edge">
<title>HVGR&#45;R&#45;&#45;M&#45;75WN</title>
<path fill="none" stroke="black" d="M293.91,-528.9C306.1,-533.37 319.81,-538.41 332.1,-542.92"/>
</g>
<!-- HVGR&#45;R&#45;&#45;PNFW&#45;O -->
<g id="edge75" class="edge">
<title>HVGR&#45;R&#45;&#45;PNFW&#45;O</title>
<path fill="none" stroke="black" d="M211.39,-512.23C207.12,-511.88 202.78,-511.53 198.5,-511.18"/>
</g>
<!-- K95&#45;9I -->
<g id="K95&#45;9I" class="node">
<title>K95&#45;9I</title>
<ellipse fill="none" stroke="black" cx="327.69" cy="-600.76" rx="41.69" ry="18"/>
<text text-anchor="middle" x="327.69" y="-597.06" font-family="Times,serif" font-size="14.00">K95&#45;9I</text>
</g>
<!-- HVGR&#45;R&#45;&#45;K95&#45;9I -->
<g id="edge76" class="edge">
<title>HVGR&#45;R&#45;&#45;K95&#45;9I</title>
<path fill="none" stroke="black" d="M273.38,-533.68C285.22,-548.3 301.99,-569.01 313.75,-583.54"/>
</g>
<!-- K95&#45;9I&#45;&#45;ND&#45;GL4 -->
<g id="edge77" class="edge">
<title>K95&#45;9I&#45;&#45;ND&#45;GL4</title>
<path fill="none" stroke="black" d="M338.79,-618.25C340.85,-621.5 343.01,-624.9 345.07,-628.15"/>
</g>
<!-- K95&#45;9I&#45;&#45;M&#45;75WN -->
<g id="edge78" class="edge">
<title>K95&#45;9I&#45;&#45;M&#45;75WN</title>
<path fill="none" stroke="black" d="M342.93,-583.88C346.05,-580.42 349.33,-576.78 352.46,-573.31"/>
</g>
<!-- K76A&#45;3 -->
<g id="K76A&#45;3" class="node">
<title>K76A&#45;3</title>
<ellipse fill="none" stroke="black" cx="44.2" cy="-493.48" rx="44.39" ry="18"/>
<text text-anchor="middle" x="44.2" y="-489.78" font-family="Times,serif" font-size="14.00">K76A&#45;3</text>
</g>
<!-- K76A&#45;3&#45;&#45;PNFW&#45;O -->
<g id="edge79" class="edge">
<title>K76A&#45;3&#45;&#45;PNFW&#45;O</title>
<path fill="none" stroke="black" d="M86.41,-498.97C91.68,-499.65 97.08,-500.36 102.41,-501.05"/>
</g>
<!-- GQ&#45;7SP -->
<g id="GQ&#45;7SP" class="node">
<title>GQ&#45;7SP</title>
<ellipse fill="none" stroke="black" cx="601.1" cy="-874.18" rx="47.5" ry="18"/>
<text text-anchor="middle" x="601.1" y="-870.48" font-family="Times,serif" font-size="14.00">GQ&#45;7SP</text>
</g>
<!-- GQ&#45;7SP&#45;&#45;R1O&#45;GN -->
<g id="edge80" class="edge">
<title>GQ&#45;7SP&#45;&#45;R1O&#45;GN</title>
<path fill="none" stroke="black" d="M626.45,-858.86C638.58,-849.63 651.11,-836.57 654.11,-820.63 656.77,-806.48 650.06,-791.59 642.93,-780.49"/>
</g>
<!-- I2D3&#45;5 -->
<g id="I2D3&#45;5" class="node">
<title>I2D3&#45;5</title>
<ellipse fill="none" stroke="black" cx="503.1" cy="-846.76" rx="42.49" ry="18"/>
<text text-anchor="middle" x="503.1" y="-843.06" font-family="Times,serif" font-size="14.00">I2D3&#45;5</text>
</g>
<!-- GQ&#45;7SP&#45;&#45;I2D3&#45;5 -->
<g id="edge81" class="edge">
<title>GQ&#45;7SP&#45;&#45;I2D3&#45;5</title>
<path fill="none" stroke="black" d="M562.65,-863.42C554.71,-861.2 546.39,-858.87 538.56,-856.68"/>
</g>
<!-- O9K&#45;FT -->
<g id="O9K&#45;FT" class="node">
<title>O9K&#45;FT</title>
<ellipse fill="none" stroke="black" cx="656.48" cy="-921.35" rx="45.5" ry="18"/>
<text text-anchor="middle" x="656.48" y="-917.65" font-family="Times,serif" font-size="14.00">O9K&#45;FT</text>
</g>
<!-- GQ&#45;7SP&#45;&#45;O9K&#45;FT -->
<g id="edge82" class="edge">
<title>GQ&#45;7SP&#45;&#45;O9K&#45;FT</title>
<path fill="none" stroke="black" d="M620.47,-890.68C625.83,-895.25 631.66,-900.21 637.03,-904.78"/>
</g>
<!-- I2D3&#45;5&#45;&#45;R1O&#45;GN -->
<g id="edge83" class="edge">
<title>I2D3&#45;5&#45;&#45;R1O&#45;GN</title>
<path fill="none" stroke="black" d="M525.93,-831.59C548.35,-816.68 582.42,-794.04 605.22,-778.89"/>
</g>
<!-- I2D3&#45;5&#45;&#45;RQOO&#45;U -->
<g id="edge84" class="edge">
<title>I2D3&#45;5&#45;&#45;RQOO&#45;U</title>
<path fill="none" stroke="black" d="M545.61,-846.36C572.69,-845.26 608.33,-842.25 638.97,-834.45 653.4,-830.78 668.93,-825.51 682.23,-820.56"/>
</g>
<!-- BGMZ&#45;0 -->
<g id="BGMZ&#45;0" class="node">
<title>BGMZ&#45;0</title>
<ellipse fill="none" stroke="black" cx="603.11" cy="-820.52" rx="49.5" ry="18"/>
<text text-anchor="middle" x="603.11" y="-816.82" font-family="Times,serif" font-size="14.00">BGMZ&#45;0</text>
</g>
<!-- BGMZ&#45;0&#45;&#45;R1O&#45;GN -->
<g id="edge85" class="edge">
<title>BGMZ&#45;0&#45;&#45;R1O&#45;GN</title>
<path fill="none" stroke="black" d="M611.22,-802.62C614.32,-795.76 617.87,-787.93 620.98,-781.05"/>
</g>
<!-- BGMZ&#45;0&#45;&#45;GQ&#45;7SP -->
<g id="edge86" class="edge">
<title>BGMZ&#45;0&#45;&#45;GQ&#45;7SP</title>
<path fill="none" stroke="black" d="M602.43,-838.69C602.22,-844.28 601.99,-850.44 601.78,-856.03"/>
</g>
<!-- BGMZ&#45;0&#45;&#45;I2D3&#45;5 -->
<g id="edge87" class="edge">
<title>BGMZ&#45;0&#45;&#45;I2D3&#45;5</title>
<path fill="none" stroke="black" d="M563.01,-831.04C555.18,-833.09 547.02,-835.24 539.33,-837.25"/>
</g>
<!-- FZX&#45;PU -->
<g id="FZX&#45;PU" class="node">
<title>FZX&#45;PU</title>
<ellipse fill="none" stroke="black" cx="551.77" cy="-918.23" rx="46.29" ry="18"/>
<text text-anchor="middle" x="551.77" y="-914.53" font-family="Times,serif" font-size="14.00">FZX&#45;PU</text>
</g>
<!-- FZX&#45;PU&#45;&#45;TZ&#45;74M -->
<g id="edge88" class="edge">
<title>FZX&#45;PU&#45;&#45;TZ&#45;74M</title>
<path fill="none" stroke="black" d="M560.25,-936.05C563.32,-942.49 566.79,-949.78 569.88,-956.26"/>
</g>
<!-- FZX&#45;PU&#45;&#45;GQ&#45;7SP -->
<g id="edge89" class="edge">
<title>FZX&#45;PU&#45;&#45;GQ&#45;7SP</title>
<path fill="none" stroke="black" d="M570.42,-901.58C574.35,-898.07 578.49,-894.37 582.42,-890.86"/>
</g>
<!-- FZX&#45;PU&#45;&#45;I2D3&#45;5 -->
<g id="edge90" class="edge">
<title>FZX&#45;PU&#45;&#45;I2D3&#45;5</title>
<path fill="none" stroke="black" d="M539.74,-900.56C532.19,-889.48 522.51,-875.26 514.99,-864.22"/>
</g>
<!-- FZX&#45;PU&#45;&#45;O9K&#45;FT -->
<g id="edge91" class="edge">
<title>FZX&#45;PU&#45;&#45;O9K&#45;FT</title>
<path fill="none" stroke="black" d="M598,-919.61C602.27,-919.73 606.6,-919.86 610.87,-919.99"/>
</g>
<!-- BZ&#45;BCK -->
<g id="BZ&#45;BCK" class="node">
<title>BZ&#45;BCK</title>
<ellipse fill="none" stroke="black" cx="1276.6" cy="-614.72" rx="47.5" ry="18"/>
<text text-anchor="middle" x="1276.6" y="-611.02" font-family="Times,serif" font-size="14.00">BZ&#45;BCK</text>
</g>
<!-- BZ&#45;BCK&#45;&#45;FB5U&#45;I -->
<g id="edge92" class="edge">
<title>BZ&#45;BCK&#45;&#45;FB5U&#45;I</title>
<path fill="none" stroke="black" d="M1241.9,-602.24C1231.8,-598.59 1220.7,-594.6 1210.7,-590.98"/>
</g>
<!-- O5&#45;YNW -->
<g id="O5&#45;YNW" class="node">
<title>O5&#45;YNW</title>
<ellipse fill="none" stroke="black" cx="1215.9" cy="-658.76" rx="48.99" ry="18"/>
<text text-anchor="middle" x="1215.9" y="-655.06" font-family="Times,serif" font-size="14.00">O5&#45;YNW</text>
</g>
<!-- BZ&#45;BCK&#45;&#45;O5&#45;YNW -->
<g id="edge93" class="edge">
<title>BZ&#45;BCK&#45;&#45;O5&#45;YNW</title>
<path fill="none" stroke="black" d="M1254.3,-630.87C1249,-634.7 1243.4,-638.78 1238.1,-642.61"/>
</g>
<!-- J&#45;OAH2 -->
<g id="J&#45;OAH2" class="node">
<title>J&#45;OAH2</title>
<ellipse fill="none" stroke="black" cx="1350.1" cy="-522.62" rx="44.39" ry="18"/>
<text text-anchor="middle" x="1350.1" y="-518.92" font-family="Times,serif" font-size="14.00">J&#45;OAH2</text>
</g>
<!-- BZ&#45;BCK&#45;&#45;J&#45;OAH2 -->
<g id="edge94" class="edge">
<title>BZ&#45;BCK&#45;&#45;J&#45;OAH2</title>
<path fill="none" stroke="black" d="M1290.4,-597.4C1303.5,-580.93 1323.2,-556.31 1336.3,-539.87"/>
</g>
<!-- 5&#45;VFC6 -->
<g id="5&#45;VFC6" class="node">
<title>5&#45;VFC6</title>
<ellipse fill="none" stroke="black" cx="1376.3" cy="-571.33" rx="44.39" ry="18"/>
<text text-anchor="middle" x="1376.3" y="-567.63" font-family="Times,serif" font-size="14.00">5&#45;VFC6</text>
</g>
<!-- 5&#45;VFC6&#45;&#45;BZ&#45;BCK -->
<g id="edge95" class="edge">
<title>5&#45;VFC6&#45;&#45;BZ&#45;BCK</title>
<path fill="none" stroke="black" d="M1345.8,-584.58C1333.8,-589.82 1320,-595.83 1307.9,-601.1"/>
</g>
<!-- 86L&#45;9F -->
<g id="86L&#45;9F" class="node">
<title>86L&#45;9F</title>
<ellipse fill="none" stroke="black" cx="1240.7" cy="-716.02" rx="43.59" ry="18"/>
<text text-anchor="middle" x="1240.7" y="-712.32" font-family="Times,serif" font-size="14.00">86L&#45;9F</text>
</g>
<!-- 86L&#45;9F&#45;&#45;O5&#45;YNW -->
<g id="edge96" class="edge">
<title>86L&#45;9F&#45;&#45;O5&#45;YNW</title>
<path fill="none" stroke="black" d="M1233,-698.22C1230,-691.39 1226.7,-683.6 1223.7,-676.75"/>
</g>
<!-- IUU3&#45;L -->
<g id="IUU3&#45;L" class="node">
<title>IUU3&#45;L</title>
<ellipse fill="none" stroke="black" cx="1317.2" cy="-666.05" rx="44.39" ry="18"/>
<text text-anchor="middle" x="1317.2" y="-662.35" font-family="Times,serif" font-size="14.00">IUU3&#45;L</text>
</g>
<!-- IUU3&#45;L&#45;&#45;O5&#45;YNW -->
<g id="edge97" class="edge">
<title>IUU3&#45;L&#45;&#45;O5&#45;YNW</title>
<path fill="none" stroke="black" d="M1273.6,-662.92C1270.4,-662.69 1267.2,-662.45 1263.9,-662.22"/>
</g>
<!-- S&#45;LHPJ -->
<g id="S&#45;LHPJ" class="node">
<title>S&#45;LHPJ</title>
<ellipse fill="none" stroke="black" cx="1413.2" cy="-690.64" rx="43.59" ry="18"/>
<text text-anchor="middle" x="1413.2" y="-686.94" font-family="Times,serif" font-size="14.00">S&#45;LHPJ</text>
</g>
<!-- IUU3&#45;L&#45;&#45;S&#45;LHPJ -->
<g id="edge98" class="edge">
<title>IUU3&#45;L&#45;&#45;S&#45;LHPJ</title>
<path fill="none" stroke="black" d="M1354.9,-675.7C1361.8,-677.48 1369,-679.33 1375.9,-681.1"/>
</g>
</g>
</svg>
