<?xml version="1.0" encoding="UTF-8" standalone="no"?>
<!DOCTYPE svg PUBLIC "-//W3C//DTD SVG 1.1//EN"
 "http://www.w3.org/Graphics/SVG/1.1/DTD/svg11.dtd">
<!-- Generated by graphviz version 2.43.0 (0)
 -->
<!-- Pages: 1 -->
<svg width="1168pt" height="576pt"
 viewBox="0.00 0.00 1167.70 576.42" xmlns="http://www.w3.org/2000/svg" xmlns:xlink="http://www.w3.org/1999/xlink">
<g id="graph0" class="graph" transform="scale(1 1) rotate(0) translate(4 572.42)">
<polygon fill="white" stroke="transparent" points="-4,4 -4,-572.42 1163.7,-572.42 1163.7,4 -4,4"/>
<!-- Isbrabata -->
<g id="Isbrabata" class="node">
<title>Isbrabata</title>
<polygon fill="none" stroke="black" points="287.62,-568.42 202.62,-568.42 202.62,-532.42 287.62,-532.42 287.62,-568.42"/>
<text text-anchor="middle" x="245.12" y="-546.72" font-family="Times,serif" font-size="14.00">Isbrabata</text>
</g>
<!-- Auga -->
<g id="Auga" class="node">
<title>Auga</title>
<polygon fill="none" stroke="black" points="681.39,-170.31 627.39,-170.31 627.39,-134.31 681.39,-134.31 681.39,-170.31"/>
<text text-anchor="middle" x="654.39" y="-148.61" font-family="Times,serif" font-size="14.00">Auga</text>
</g>
<!-- Gratesier -->
<g id="Gratesier" class="node">
<title>Gratesier</title>
<polygon fill="none" stroke="black" points="84,-567.55 0,-567.55 0,-531.55 84,-531.55 84,-567.55"/>
<text text-anchor="middle" x="42" y="-545.85" font-family="Times,serif" font-size="14.00">Gratesier</text>
</g>
<!-- Tzvi -->
<g id="Tzvi" class="node">
<title>Tzvi</title>
<polygon fill="none" stroke="black" points="761.24,-252.35 707.24,-252.35 707.24,-216.35 761.24,-216.35 761.24,-252.35"/>
<text text-anchor="middle" x="734.24" y="-230.65" font-family="Times,serif" font-size="14.00">Tzvi</text>
</g>
<!-- Choonka -->
<g id="Choonka" class="node">
<title>Choonka</title>
<polygon fill="none" stroke="black" points="678.67,-301.24 600.67,-301.24 600.67,-265.24 678.67,-265.24 678.67,-301.24"/>
<text text-anchor="middle" x="639.67" y="-279.54" font-family="Times,serif" font-size="14.00">Choonka</text>
</g>
<!-- Ohide -->
<g id="Ohide" class="node">
<title>Ohide</title>
<polygon fill="none" stroke="black" points="483.35,-206.36 424.35,-206.36 424.35,-170.36 483.35,-170.36 483.35,-206.36"/>
<text text-anchor="middle" x="453.85" y="-184.66" font-family="Times,serif" font-size="14.00">Ohide</text>
</g>
<!-- Roushzar -->
<g id="Roushzar" class="node">
<title>Roushzar</title>
<polygon fill="none" stroke="black" points="529.15,-63.1 446.15,-63.1 446.15,-27.1 529.15,-27.1 529.15,-63.1"/>
<text text-anchor="middle" x="487.65" y="-41.4" font-family="Times,serif" font-size="14.00">Roushzar</text>
</g>
<!-- Sosan -->
<g id="Sosan" class="node">
<title>Sosan</title>
<polygon fill="none" stroke="black" points="233.28,-445.78 174.28,-445.78 174.28,-409.78 233.28,-409.78 233.28,-445.78"/>
<text text-anchor="middle" x="203.78" y="-424.08" font-family="Times,serif" font-size="14.00">Sosan</text>
</g>
<!-- Hati -->
<g id="Hati" class="node">
<title>Hati</title>
<polygon fill="none" stroke="black" points="282.92,-158.16 228.92,-158.16 228.92,-122.16 282.92,-122.16 282.92,-158.16"/>
<text text-anchor="middle" x="255.92" y="-136.46" font-family="Times,serif" font-size="14.00">Hati</text>
</g>
<!-- Lamaa -->
<g id="Lamaa" class="node">
<title>Lamaa</title>
<ellipse fill="none" stroke="black" cx="657.64" cy="-239.23" rx="41.69" ry="18"/>
<text text-anchor="middle" x="657.64" y="-235.53" font-family="Times,serif" font-size="14.00">Lamaa</text>
</g>
<!-- Lamaa&#45;&#45;Tzvi -->
<g id="edge1" class="edge">
<title>Lamaa&#45;&#45;Tzvi</title>
<path fill="none" stroke="black" d="M699.08,-236.59C701.76,-236.42 704.42,-236.25 707,-236.08"/>
</g>
<!-- Tuomuta -->
<g id="Tuomuta" class="node">
<title>Tuomuta</title>
<ellipse fill="none" stroke="black" cx="562.48" cy="-195.19" rx="52" ry="18"/>
<text text-anchor="middle" x="562.48" y="-191.49" font-family="Times,serif" font-size="14.00">Tuomuta</text>
</g>
<!-- Otelen -->
<g id="Otelen" class="node">
<title>Otelen</title>
<ellipse fill="none" stroke="black" cx="590.68" cy="-62.17" rx="41.69" ry="18"/>
<text text-anchor="middle" x="590.68" y="-58.47" font-family="Times,serif" font-size="14.00">Otelen</text>
</g>
<!-- Mahrokht -->
<g id="Mahrokht" class="node">
<title>Mahrokht</title>
<polygon fill="none" stroke="black" points="673.58,-36 587.58,-36 587.58,0 673.58,0 673.58,-36"/>
<text text-anchor="middle" x="630.58" y="-14.3" font-family="Times,serif" font-size="14.00">Mahrokht</text>
</g>
<!-- Otelen&#45;&#45;Mahrokht -->
<g id="edge2" class="edge">
<title>Otelen&#45;&#45;Mahrokht</title>
<path fill="none" stroke="black" d="M605.99,-45.22C608.72,-42.2 611.56,-39.05 614.31,-36"/>
</g>
<!-- Kuomi -->
<g id="Kuomi" class="node">
<title>Kuomi</title>
<ellipse fill="none" stroke="black" cx="609.14" cy="-107.17" rx="40.5" ry="18"/>
<text text-anchor="middle" x="609.14" y="-103.47" font-family="Times,serif" font-size="14.00">Kuomi</text>
</g>
<!-- Kuomi&#45;&#45;Tuomuta -->
<g id="edge3" class="edge">
<title>Kuomi&#45;&#45;Tuomuta</title>
<path fill="none" stroke="black" d="M618.65,-124.94C621.76,-133.05 623.75,-142.72 620.8,-151.25 616.36,-164.07 605.44,-173.85 594.24,-180.89"/>
</g>
<!-- Kuomi&#45;&#45;Otelen -->
<g id="edge4" class="edge">
<title>Kuomi&#45;&#45;Otelen</title>
<path fill="none" stroke="black" d="M601.85,-89.38C600.6,-86.34 599.3,-83.17 598.05,-80.12"/>
</g>
<!-- Huola -->
<g id="Huola" class="node">
<title>Huola</title>
<ellipse fill="none" stroke="black" cx="502.65" cy="-93.85" rx="38.5" ry="18"/>
<text text-anchor="middle" x="502.65" y="-90.15" font-family="Times,serif" font-size="14.00">Huola</text>
</g>
<!-- Huola&#45;&#45;Roushzar -->
<g id="edge5" class="edge">
<title>Huola&#45;&#45;Roushzar</title>
<path fill="none" stroke="black" d="M497.15,-75.97C495.88,-71.84 494.52,-67.44 493.25,-63.3"/>
</g>
<!-- Huola&#45;&#45;Otelen -->
<g id="edge6" class="edge">
<title>Huola&#45;&#45;Otelen</title>
<path fill="none" stroke="black" d="M533.44,-82.77C541.57,-79.84 550.37,-76.68 558.57,-73.72"/>
</g>
<!-- Kourmonen -->
<g id="Kourmonen" class="node">
<title>Kourmonen</title>
<ellipse fill="none" stroke="black" cx="555.5" cy="-151.19" rx="63.89" ry="18"/>
<text text-anchor="middle" x="555.5" y="-147.49" font-family="Times,serif" font-size="14.00">Kourmonen</text>
</g>
<!-- Huola&#45;&#45;Kourmonen -->
<g id="edge7" class="edge">
<title>Huola&#45;&#45;Kourmonen</title>
<path fill="none" stroke="black" d="M517.94,-110.43C524.64,-117.71 532.52,-126.26 539.33,-133.64"/>
</g>
<!-- Kourmonen&#45;&#45;Auga -->
<g id="edge8" class="edge">
<title>Kourmonen&#45;&#45;Auga</title>
<path fill="none" stroke="black" d="M619.25,-151.91C621.94,-151.94 624.57,-151.97 627.1,-152"/>
</g>
<!-- Kourmonen&#45;&#45;Lamaa -->
<g id="edge9" class="edge">
<title>Kourmonen&#45;&#45;Lamaa</title>
<path fill="none" stroke="black" d="M581.67,-167.84C587.98,-172.09 594.61,-176.78 600.56,-181.4 616.38,-193.69 632.21,-210.14 643.17,-222.35"/>
</g>
<!-- Kamela -->
<g id="Kamela" class="node">
<title>Kamela</title>
<ellipse fill="none" stroke="black" cx="530.76" cy="-243.77" rx="45.5" ry="18"/>
<text text-anchor="middle" x="530.76" y="-240.07" font-family="Times,serif" font-size="14.00">Kamela</text>
</g>
<!-- Kamela&#45;&#45;Choonka -->
<g id="edge10" class="edge">
<title>Kamela&#45;&#45;Choonka</title>
<path fill="none" stroke="black" d="M564.32,-255.93C575.7,-260.05 588.51,-264.69 600.29,-268.97"/>
</g>
<!-- Kamela&#45;&#45;Ohide -->
<g id="edge11" class="edge">
<title>Kamela&#45;&#45;Ohide</title>
<path fill="none" stroke="black" d="M508.51,-227.74C499.28,-221.09 488.53,-213.35 479.02,-206.5"/>
</g>
<!-- Kamela&#45;&#45;Lamaa -->
<g id="edge12" class="edge">
<title>Kamela&#45;&#45;Lamaa</title>
<path fill="none" stroke="black" d="M576.2,-242.14C589.15,-241.68 603.18,-241.18 615.89,-240.72"/>
</g>
<!-- Kamela&#45;&#45;Tuomuta -->
<g id="edge13" class="edge">
<title>Kamela&#45;&#45;Tuomuta</title>
<path fill="none" stroke="black" d="M542.21,-226.23C545.05,-221.88 548.09,-217.22 550.94,-212.87"/>
</g>
<!-- Kamela&#45;&#45;Kourmonen -->
<g id="edge14" class="edge">
<title>Kamela&#45;&#45;Kourmonen</title>
<path fill="none" stroke="black" d="M516.96,-226.38C511.38,-217.37 506.71,-206 508.88,-195.1 511.12,-183.86 519.1,-174.56 527.85,-167.46"/>
</g>
<!-- Sosala -->
<g id="Sosala" class="node">
<title>Sosala</title>
<ellipse fill="none" stroke="black" cx="511.04" cy="-288.06" rx="41" ry="18"/>
<text text-anchor="middle" x="511.04" y="-284.36" font-family="Times,serif" font-size="14.00">Sosala</text>
</g>
<!-- Kamela&#45;&#45;Sosala -->
<g id="edge15" class="edge">
<title>Kamela&#45;&#45;Sosala</title>
<path fill="none" stroke="black" d="M522.85,-261.53C521.57,-264.41 520.23,-267.41 518.95,-270.29"/>
</g>
<!-- Uusanen -->
<g id="Uusanen" class="node">
<title>Uusanen</title>
<ellipse fill="none" stroke="black" cx="621.19" cy="-327.25" rx="52" ry="18"/>
<text text-anchor="middle" x="621.19" y="-323.55" font-family="Times,serif" font-size="14.00">Uusanen</text>
</g>
<!-- Sosala&#45;&#45;Uusanen -->
<g id="edge16" class="edge">
<title>Sosala&#45;&#45;Uusanen</title>
<path fill="none" stroke="black" d="M542.9,-299.39C555.99,-304.05 571.22,-309.47 584.75,-314.28"/>
</g>
<!-- Anka -->
<g id="Anka" class="node">
<title>Anka</title>
<ellipse fill="none" stroke="black" cx="391.05" cy="-313.19" rx="34" ry="18"/>
<text text-anchor="middle" x="391.05" y="-309.49" font-family="Times,serif" font-size="14.00">Anka</text>
</g>
<!-- Anka&#45;&#45;Sosala -->
<g id="edge17" class="edge">
<title>Anka&#45;&#45;Sosala</title>
<path fill="none" stroke="black" d="M422.58,-306.58C438.27,-303.3 457.35,-299.3 473.76,-295.87"/>
</g>
<!-- Iesa -->
<g id="Iesa" class="node">
<title>Iesa</title>
<ellipse fill="none" stroke="black" cx="575.59" cy="-374.8" rx="30" ry="18"/>
<text text-anchor="middle" x="575.59" y="-371.1" font-family="Times,serif" font-size="14.00">Iesa</text>
</g>
<!-- Anka&#45;&#45;Iesa -->
<g id="edge18" class="edge">
<title>Anka&#45;&#45;Iesa</title>
<path fill="none" stroke="black" d="M407.27,-329.01C417.74,-338.29 432.14,-349.4 446.96,-355.68 478.86,-369.22 518.75,-373.4 545.58,-374.57"/>
</g>
<!-- Gammel -->
<g id="Gammel" class="node">
<title>Gammel</title>
<ellipse fill="none" stroke="black" cx="394.25" cy="-269.18" rx="49.5" ry="18"/>
<text text-anchor="middle" x="394.25" y="-265.48" font-family="Times,serif" font-size="14.00">Gammel</text>
</g>
<!-- Anka&#45;&#45;Gammel -->
<g id="edge19" class="edge">
<title>Anka&#45;&#45;Gammel</title>
<path fill="none" stroke="black" d="M392.37,-295.03C392.56,-292.48 392.75,-289.85 392.94,-287.29"/>
</g>
<!-- Tannakan -->
<g id="Tannakan" class="node">
<title>Tannakan</title>
<ellipse fill="none" stroke="black" cx="348.35" cy="-363.35" rx="55.49" ry="18"/>
<text text-anchor="middle" x="348.35" y="-359.65" font-family="Times,serif" font-size="14.00">Tannakan</text>
</g>
<!-- Anka&#45;&#45;Tannakan -->
<g id="edge20" class="edge">
<title>Anka&#45;&#45;Tannakan</title>
<path fill="none" stroke="black" d="M377.07,-329.61C372.69,-334.75 367.84,-340.45 363.4,-345.68"/>
</g>
<!-- Iesa&#45;&#45;Uusanen -->
<g id="edge21" class="edge">
<title>Iesa&#45;&#45;Uusanen</title>
<path fill="none" stroke="black" d="M590.77,-358.97C595.23,-354.32 600.12,-349.22 604.66,-344.49"/>
</g>
<!-- Netsalakka -->
<g id="Netsalakka" class="node">
<title>Netsalakka</title>
<ellipse fill="none" stroke="black" cx="595.29" cy="-418.85" rx="62.5" ry="18"/>
<text text-anchor="middle" x="595.29" y="-415.15" font-family="Times,serif" font-size="14.00">Netsalakka</text>
</g>
<!-- Iesa&#45;&#45;Netsalakka -->
<g id="edge22" class="edge">
<title>Iesa&#45;&#45;Netsalakka</title>
<path fill="none" stroke="black" d="M583.37,-392.21C584.66,-395.09 586,-398.09 587.3,-400.99"/>
</g>
<!-- Gammel&#45;&#45;Sosala -->
<g id="edge23" class="edge">
<title>Gammel&#45;&#45;Sosala</title>
<path fill="none" stroke="black" d="M439.41,-276.48C450.32,-278.24 461.88,-280.11 472.46,-281.82"/>
</g>
<!-- Ronne -->
<g id="Ronne" class="node">
<title>Ronne</title>
<ellipse fill="none" stroke="black" cx="375.99" cy="-225.17" rx="40.5" ry="18"/>
<text text-anchor="middle" x="375.99" y="-221.47" font-family="Times,serif" font-size="14.00">Ronne</text>
</g>
<!-- Gammel&#45;&#45;Ronne -->
<g id="edge24" class="edge">
<title>Gammel&#45;&#45;Ronne</title>
<path fill="none" stroke="black" d="M386.83,-251.28C385.68,-248.52 384.5,-245.67 383.35,-242.91"/>
</g>
<!-- Sasiekko -->
<g id="Sasiekko" class="node">
<title>Sasiekko</title>
<ellipse fill="none" stroke="black" cx="485.07" cy="-341.9" rx="52" ry="18"/>
<text text-anchor="middle" x="485.07" y="-338.2" font-family="Times,serif" font-size="14.00">Sasiekko</text>
</g>
<!-- Netsalakka&#45;&#45;Sasiekko -->
<g id="edge25" class="edge">
<title>Netsalakka&#45;&#45;Sasiekko</title>
<path fill="none" stroke="black" d="M571.37,-402.15C552.63,-389.07 526.71,-370.97 508.18,-358.04"/>
</g>
<!-- Sasiekko&#45;&#45;Sosala -->
<g id="edge26" class="edge">
<title>Sasiekko&#45;&#45;Sosala</title>
<path fill="none" stroke="black" d="M493.72,-323.97C496.55,-318.1 499.69,-311.58 502.52,-305.73"/>
</g>
<!-- Myyhera -->
<g id="Myyhera" class="node">
<title>Myyhera</title>
<ellipse fill="none" stroke="black" cx="472.8" cy="-418.82" rx="52" ry="18"/>
<text text-anchor="middle" x="472.8" y="-415.12" font-family="Times,serif" font-size="14.00">Myyhera</text>
</g>
<!-- Myyhera&#45;&#45;Netsalakka -->
<g id="edge27" class="edge">
<title>Myyhera&#45;&#45;Netsalakka</title>
<path fill="none" stroke="black" d="M525.1,-418.83C527.57,-418.83 530.06,-418.83 532.56,-418.84"/>
</g>
<!-- Myyhera&#45;&#45;Sasiekko -->
<g id="edge28" class="edge">
<title>Myyhera&#45;&#45;Sasiekko</title>
<path fill="none" stroke="black" d="M475.71,-400.59C477.66,-388.33 480.23,-372.24 482.18,-360"/>
</g>
<!-- Saikamon -->
<g id="Saikamon" class="node">
<title>Saikamon</title>
<ellipse fill="none" stroke="black" cx="458.96" cy="-462.86" rx="56" ry="18"/>
<text text-anchor="middle" x="458.96" y="-459.16" font-family="Times,serif" font-size="14.00">Saikamon</text>
</g>
<!-- Myyhera&#45;&#45;Saikamon -->
<g id="edge29" class="edge">
<title>Myyhera&#45;&#45;Saikamon</title>
<path fill="none" stroke="black" d="M467.17,-436.74C466.33,-439.4 465.47,-442.15 464.63,-444.82"/>
</g>
<!-- Erkinen -->
<g id="Erkinen" class="node">
<title>Erkinen</title>
<ellipse fill="none" stroke="black" cx="682.64" cy="-371.26" rx="47.5" ry="18"/>
<text text-anchor="middle" x="682.64" y="-367.56" font-family="Times,serif" font-size="14.00">Erkinen</text>
</g>
<!-- Erkinen&#45;&#45;Uusanen -->
<g id="edge30" class="edge">
<title>Erkinen&#45;&#45;Uusanen</title>
<path fill="none" stroke="black" d="M660.11,-355.12C654.9,-351.39 649.35,-347.42 644.13,-343.68"/>
</g>
<!-- Komaa -->
<g id="Komaa" class="node">
<title>Komaa</title>
<ellipse fill="none" stroke="black" cx="710.26" cy="-415.28" rx="42.49" ry="18"/>
<text text-anchor="middle" x="710.26" y="-411.58" font-family="Times,serif" font-size="14.00">Komaa</text>
</g>
<!-- Erkinen&#45;&#45;Komaa -->
<g id="edge31" class="edge">
<title>Erkinen&#45;&#45;Komaa</title>
<path fill="none" stroke="black" d="M693.71,-388.91C695.52,-391.78 697.38,-394.76 699.18,-397.63"/>
</g>
<!-- Kurmaru -->
<g id="Kurmaru" class="node">
<title>Kurmaru</title>
<ellipse fill="none" stroke="black" cx="758.13" cy="-464.07" rx="52" ry="18"/>
<text text-anchor="middle" x="758.13" y="-460.37" font-family="Times,serif" font-size="14.00">Kurmaru</text>
</g>
<!-- Komaa&#45;&#45;Kurmaru -->
<g id="edge32" class="edge">
<title>Komaa&#45;&#45;Kurmaru</title>
<path fill="none" stroke="black" d="M726.73,-432.07C731.39,-436.81 736.46,-441.98 741.14,-446.75"/>
</g>
<!-- Jarkkolen -->
<g id="Jarkkolen" class="node">
<title>Jarkkolen</title>
<ellipse fill="none" stroke="black" cx="346.51" cy="-180.39" rx="54" ry="18"/>
<text text-anchor="middle" x="346.51" y="-176.69" font-family="Times,serif" font-size="14.00">Jarkkolen</text>
</g>
<!-- Jarkkolen&#45;&#45;Hati -->
<g id="edge33" class="edge">
<title>Jarkkolen&#45;&#45;Hati</title>
<path fill="none" stroke="black" d="M314.07,-165.98C303.91,-161.47 292.82,-156.55 283.07,-152.22"/>
</g>
<!-- Jarkkolen&#45;&#45;Ronne -->
<g id="edge34" class="edge">
<title>Jarkkolen&#45;&#45;Ronne</title>
<path fill="none" stroke="black" d="M358.17,-198.09C360.29,-201.32 362.5,-204.68 364.62,-207.9"/>
</g>
<!-- Junsen -->
<g id="Junsen" class="node">
<title>Junsen</title>
<ellipse fill="none" stroke="black" cx="337.43" cy="-95.38" rx="42.49" ry="18"/>
<text text-anchor="middle" x="337.43" y="-91.68" font-family="Times,serif" font-size="14.00">Junsen</text>
</g>
<!-- Jarkkolen&#45;&#45;Junsen -->
<g id="edge35" class="edge">
<title>Jarkkolen&#45;&#45;Junsen</title>
<path fill="none" stroke="black" d="M344.59,-162.36C343.05,-147.94 340.89,-127.81 339.35,-113.39"/>
</g>
<!-- Hatori -->
<g id="Hatori" class="node">
<title>Hatori</title>
<ellipse fill="none" stroke="black" cx="286.95" cy="-228.1" rx="40.5" ry="18"/>
<text text-anchor="middle" x="286.95" y="-224.4" font-family="Times,serif" font-size="14.00">Hatori</text>
</g>
<!-- Hatori&#45;&#45;Ronne -->
<g id="edge36" class="edge">
<title>Hatori&#45;&#45;Ronne</title>
<path fill="none" stroke="black" d="M327.3,-226.77C330.06,-226.68 332.85,-226.59 335.61,-226.5"/>
</g>
<!-- Malpara -->
<g id="Malpara" class="node">
<title>Malpara</title>
<ellipse fill="none" stroke="black" cx="189.18" cy="-225.5" rx="49.5" ry="18"/>
<text text-anchor="middle" x="189.18" y="-221.8" font-family="Times,serif" font-size="14.00">Malpara</text>
</g>
<!-- Hatori&#45;&#45;Malpara -->
<g id="edge37" class="edge">
<title>Hatori&#45;&#45;Malpara</title>
<path fill="none" stroke="black" d="M246.62,-227.03C243.99,-226.96 241.32,-226.89 238.66,-226.82"/>
</g>
<!-- Hakodan -->
<g id="Hakodan" class="node">
<title>Hakodan</title>
<ellipse fill="none" stroke="black" cx="284.78" cy="-275.66" rx="52" ry="18"/>
<text text-anchor="middle" x="284.78" y="-271.96" font-family="Times,serif" font-size="14.00">Hakodan</text>
</g>
<!-- Hakodan&#45;&#45;Ronne -->
<g id="edge38" class="edge">
<title>Hakodan&#45;&#45;Ronne</title>
<path fill="none" stroke="black" d="M312.64,-260.24C324.69,-253.57 338.7,-245.82 350.47,-239.3"/>
</g>
<!-- Hakodan&#45;&#45;Hatori -->
<g id="edge39" class="edge">
<title>Hakodan&#45;&#45;Hatori</title>
<path fill="none" stroke="black" d="M285.61,-257.41C285.78,-253.74 285.95,-249.89 286.12,-246.23"/>
</g>
<!-- Sahtogas -->
<g id="Sahtogas" class="node">
<title>Sahtogas</title>
<ellipse fill="none" stroke="black" cx="352.5" cy="-412.88" rx="54" ry="18"/>
<text text-anchor="middle" x="352.5" y="-409.18" font-family="Times,serif" font-size="14.00">Sahtogas</text>
</g>
<!-- Sahtogas&#45;&#45;Tannakan -->
<g id="edge40" class="edge">
<title>Sahtogas&#45;&#45;Tannakan</title>
<path fill="none" stroke="black" d="M350.98,-394.72C350.62,-390.41 350.23,-385.81 349.87,-381.51"/>
</g>
<!-- Sahtogas&#45;&#45;Saikamon -->
<g id="edge41" class="edge">
<title>Sahtogas&#45;&#45;Saikamon</title>
<path fill="none" stroke="black" d="M383.87,-427.6C397.48,-434 413.41,-441.47 427.08,-447.89"/>
</g>
<!-- Haras -->
<g id="Haras" class="node">
<title>Haras</title>
<ellipse fill="none" stroke="black" cx="397.69" cy="-506.87" rx="38.5" ry="18"/>
<text text-anchor="middle" x="397.69" y="-503.17" font-family="Times,serif" font-size="14.00">Haras</text>
</g>
<!-- Haras&#45;&#45;Sahtogas -->
<g id="edge42" class="edge">
<title>Haras&#45;&#45;Sahtogas</title>
<path fill="none" stroke="black" d="M389.19,-489.19C381.16,-472.49 369.18,-447.57 361.12,-430.8"/>
</g>
<!-- Oyonata -->
<g id="Oyonata" class="node">
<title>Oyonata</title>
<ellipse fill="none" stroke="black" cx="310.37" cy="-457.82" rx="49.5" ry="18"/>
<text text-anchor="middle" x="310.37" y="-454.12" font-family="Times,serif" font-size="14.00">Oyonata</text>
</g>
<!-- Oyonata&#45;&#45;Sosan -->
<g id="edge43" class="edge">
<title>Oyonata&#45;&#45;Sosan</title>
<path fill="none" stroke="black" d="M271.29,-446.8C258.81,-443.29 245.21,-439.45 233.51,-436.16"/>
</g>
<!-- Oyonata&#45;&#45;Sahtogas -->
<g id="edge44" class="edge">
<title>Oyonata&#45;&#45;Sahtogas</title>
<path fill="none" stroke="black" d="M326.54,-440.57C329.7,-437.21 333.01,-433.67 336.17,-430.3"/>
</g>
<!-- Kurniainen -->
<g id="Kurniainen" class="node">
<title>Kurniainen</title>
<ellipse fill="none" stroke="black" cx="289.07" cy="-502.32" rx="61.99" ry="18"/>
<text text-anchor="middle" x="289.07" y="-498.62" font-family="Times,serif" font-size="14.00">Kurniainen</text>
</g>
<!-- Kurniainen&#45;&#45;Isbrabata -->
<g id="edge45" class="edge">
<title>Kurniainen&#45;&#45;Isbrabata</title>
<path fill="none" stroke="black" d="M272.95,-519.96C269.33,-523.93 265.47,-528.15 261.82,-532.14"/>
</g>
<!-- Kurniainen&#45;&#45;Oyonata -->
<g id="edge46" class="edge">
<title>Kurniainen&#45;&#45;Oyonata</title>
<path fill="none" stroke="black" d="M297.61,-484.48C299,-481.58 300.44,-478.57 301.83,-475.67"/>
</g>
<!-- Saidusairos -->
<g id="Saidusairos" class="node">
<title>Saidusairos</title>
<ellipse fill="none" stroke="black" cx="154.25" cy="-505.52" rx="65" ry="18"/>
<text text-anchor="middle" x="154.25" y="-501.82" font-family="Times,serif" font-size="14.00">Saidusairos</text>
</g>
<!-- Kurniainen&#45;&#45;Saidusairos -->
<g id="edge47" class="edge">
<title>Kurniainen&#45;&#45;Saidusairos</title>
<path fill="none" stroke="black" d="M227.18,-503.79C224.55,-503.86 221.91,-503.92 219.27,-503.98"/>
</g>
<!-- Saidusairos&#45;&#45;Gratesier -->
<g id="edge48" class="edge">
<title>Saidusairos&#45;&#45;Gratesier</title>
<path fill="none" stroke="black" d="M116.56,-520.31C106.11,-524.41 94.71,-528.88 84.03,-533.07"/>
</g>
<!-- Ayeroilen -->
<g id="Ayeroilen" class="node">
<title>Ayeroilen</title>
<ellipse fill="none" stroke="black" cx="815.14" cy="-412.64" rx="54.69" ry="18"/>
<text text-anchor="middle" x="815.14" y="-408.94" font-family="Times,serif" font-size="14.00">Ayeroilen</text>
</g>
<!-- Ayeroilen&#45;&#45;Komaa -->
<g id="edge49" class="edge">
<title>Ayeroilen&#45;&#45;Komaa</title>
<path fill="none" stroke="black" d="M760.55,-414.01C757.86,-414.08 755.18,-414.15 752.54,-414.22"/>
</g>
<!-- Imata -->
<g id="Imata" class="node">
<title>Imata</title>
<ellipse fill="none" stroke="black" cx="915.44" cy="-449.07" rx="37.89" ry="18"/>
<text text-anchor="middle" x="915.44" y="-445.37" font-family="Times,serif" font-size="14.00">Imata</text>
</g>
<!-- Ayeroilen&#45;&#45;Imata -->
<g id="edge50" class="edge">
<title>Ayeroilen&#45;&#45;Imata</title>
<path fill="none" stroke="black" d="M851.92,-426C862.88,-429.98 874.76,-434.29 885.24,-438.1"/>
</g>
<!-- Furskeshin -->
<g id="Furskeshin" class="node">
<title>Furskeshin</title>
<ellipse fill="none" stroke="black" cx="988.61" cy="-493.1" rx="62.5" ry="18"/>
<text text-anchor="middle" x="988.61" y="-489.4" font-family="Times,serif" font-size="14.00">Furskeshin</text>
</g>
<!-- Furskeshin&#45;&#45;Imata -->
<g id="edge51" class="edge">
<title>Furskeshin&#45;&#45;Imata</title>
<path fill="none" stroke="black" d="M961.37,-476.71C954.05,-472.3 946.21,-467.58 939.1,-463.31"/>
</g>
<!-- Satalama -->
<g id="Satalama" class="node">
<title>Satalama</title>
<ellipse fill="none" stroke="black" cx="1105.7" cy="-537.12" rx="54" ry="18"/>
<text text-anchor="middle" x="1105.7" y="-533.42" font-family="Times,serif" font-size="14.00">Satalama</text>
</g>
<!-- Furskeshin&#45;&#45;Satalama -->
<g id="edge52" class="edge">
<title>Furskeshin&#45;&#45;Satalama</title>
<path fill="none" stroke="black" d="M1026.6,-507.39C1040.5,-512.61 1056.2,-518.5 1069.9,-523.64"/>
</g>
</g>
</svg>
