<?xml version="1.0" encoding="UTF-8" standalone="no"?>
<!DOCTYPE svg PUBLIC "-//W3C//DTD SVG 1.1//EN"
 "http://www.w3.org/Graphics/SVG/1.1/DTD/svg11.dtd">
<!-- Generated by graphviz version 2.43.0 (0)
 -->
<!-- Pages: 1 -->
<svg width="956pt" height="1200pt"
 viewBox="0.00 0.00 956.50 1199.80" xmlns="http://www.w3.org/2000/svg" xmlns:xlink="http://www.w3.org/1999/xlink">
<g id="graph0" class="graph" transform="scale(1 1) rotate(0) translate(4 1195.8)">
<polygon fill="white" stroke="transparent" points="-4,4 -4,-1195.8 952.5,-1195.8 952.5,4 -4,4"/>
<!-- 9OO&#45;LH -->
<g id="_9OO&#45;LH" class="node">
<title>9OO&#45;LH</title>
<polygon fill="none" stroke="black" points="508.7,-546.63 434.7,-546.63 434.7,-510.63 508.7,-510.63 508.7,-546.63"/>
<text text-anchor="middle" x="471.7" y="-524.93" font-family="Times,serif" font-size="14.00">9OO&#45;LH</text>
</g>
<!-- 0J3L&#45;V -->
<g id="_0J3L&#45;V" class="node">
<title>0J3L&#45;V</title>
<polygon fill="none" stroke="black" points="473.93,-388.9 411.93,-388.9 411.93,-352.9 473.93,-352.9 473.93,-388.9"/>
<text text-anchor="middle" x="442.93" y="-367.2" font-family="Times,serif" font-size="14.00">0J3L&#45;V</text>
</g>
<!-- T&#45;ZWA1 -->
<g id="T&#45;ZWA1" class="node">
<title>T&#45;ZWA1</title>
<polygon fill="none" stroke="black" points="513.7,-36 442.7,-36 442.7,0 513.7,0 513.7,-36"/>
<text text-anchor="middle" x="478.2" y="-14.3" font-family="Times,serif" font-size="14.00">T&#45;ZWA1</text>
</g>
<!-- Y5J&#45;EU -->
<g id="Y5J&#45;EU" class="node">
<title>Y5J&#45;EU</title>
<polygon fill="none" stroke="black" points="420.54,-117.12 353.54,-117.12 353.54,-81.12 420.54,-81.12 420.54,-117.12"/>
<text text-anchor="middle" x="387.04" y="-95.42" font-family="Times,serif" font-size="14.00">Y5J&#45;EU</text>
</g>
<!-- E&#45;OGL4 -->
<g id="E&#45;OGL4" class="node">
<title>E&#45;OGL4</title>
<ellipse fill="none" stroke="black" cx="598.13" cy="-656.82" rx="47" ry="18"/>
<text text-anchor="middle" x="598.13" y="-653.12" font-family="Times,serif" font-size="14.00">E&#45;OGL4</text>
</g>
<!-- M&#45;OEE8 -->
<g id="M&#45;OEE8" class="node">
<title>M&#45;OEE8</title>
<ellipse fill="none" stroke="black" cx="702.99" cy="-658.52" rx="50.09" ry="18"/>
<text text-anchor="middle" x="702.99" y="-654.82" font-family="Times,serif" font-size="14.00">M&#45;OEE8</text>
</g>
<!-- E&#45;OGL4&#45;&#45;M&#45;OEE8 -->
<g id="edge1" class="edge">
<title>E&#45;OGL4&#45;&#45;M&#45;OEE8</title>
<path fill="none" stroke="black" d="M645.04,-657.58C647.65,-657.63 650.29,-657.67 652.92,-657.71"/>
</g>
<!-- V0DF&#45;2 -->
<g id="V0DF&#45;2" class="node">
<title>V0DF&#45;2</title>
<ellipse fill="none" stroke="black" cx="796.2" cy="-703.78" rx="45" ry="18"/>
<text text-anchor="middle" x="796.2" y="-700.08" font-family="Times,serif" font-size="14.00">V0DF&#45;2</text>
</g>
<!-- M&#45;OEE8&#45;&#45;V0DF&#45;2 -->
<g id="edge2" class="edge">
<title>M&#45;OEE8&#45;&#45;V0DF&#45;2</title>
<path fill="none" stroke="black" d="M732.99,-673.09C744.06,-678.46 756.57,-684.54 767.52,-689.85"/>
</g>
<!-- Taisy -->
<g id="Taisy" class="node">
<title>Taisy</title>
<polygon fill="none" stroke="black" points="837.26,-630.2 783.26,-630.2 783.26,-594.2 837.26,-594.2 837.26,-630.2"/>
<text text-anchor="middle" x="810.26" y="-608.5" font-family="Times,serif" font-size="14.00">Taisy</text>
</g>
<!-- M&#45;OEE8&#45;&#45;Taisy -->
<g id="edge3" class="edge">
<title>M&#45;OEE8&#45;&#45;Taisy</title>
<path fill="none" stroke="black" d="M735.17,-644.62C750.48,-638.02 768.57,-630.2 783.16,-623.9"/>
</g>
<!-- J&#45;GAMP -->
<g id="J&#45;GAMP" class="node">
<title>J&#45;GAMP</title>
<ellipse fill="none" stroke="black" cx="728.19" cy="-611.15" rx="46.29" ry="18"/>
<text text-anchor="middle" x="728.19" y="-607.45" font-family="Times,serif" font-size="14.00">J&#45;GAMP</text>
</g>
<!-- J&#45;GAMP&#45;&#45;M&#45;OEE8 -->
<g id="edge4" class="edge">
<title>J&#45;GAMP&#45;&#45;M&#45;OEE8</title>
<path fill="none" stroke="black" d="M718.81,-628.79C716.74,-632.68 714.54,-636.81 712.47,-640.71"/>
</g>
<!-- FY0W&#45;N -->
<g id="FY0W&#45;N" class="node">
<title>FY0W&#45;N</title>
<ellipse fill="none" stroke="black" cx="809.15" cy="-656.24" rx="48.19" ry="18"/>
<text text-anchor="middle" x="809.15" y="-652.54" font-family="Times,serif" font-size="14.00">FY0W&#45;N</text>
</g>
<!-- FY0W&#45;N&#45;&#45;M&#45;OEE8 -->
<g id="edge5" class="edge">
<title>FY0W&#45;N&#45;&#45;M&#45;OEE8</title>
<path fill="none" stroke="black" d="M761.04,-657.27C758.41,-657.33 755.76,-657.39 753.12,-657.44"/>
</g>
<!-- FY0W&#45;N&#45;&#45;V0DF&#45;2 -->
<g id="edge6" class="edge">
<title>FY0W&#45;N&#45;&#45;V0DF&#45;2</title>
<path fill="none" stroke="black" d="M804.26,-674.21C803.23,-678 802.14,-681.99 801.1,-685.78"/>
</g>
<!-- FY0W&#45;N&#45;&#45;J&#45;GAMP -->
<g id="edge7" class="edge">
<title>FY0W&#45;N&#45;&#45;J&#45;GAMP</title>
<path fill="none" stroke="black" d="M782.2,-641.22C773.36,-636.3 763.56,-630.84 754.76,-625.94"/>
</g>
<!-- MJI3&#45;8 -->
<g id="MJI3&#45;8" class="node">
<title>MJI3&#45;8</title>
<ellipse fill="none" stroke="black" cx="906.9" cy="-700.07" rx="41.69" ry="18"/>
<text text-anchor="middle" x="906.9" y="-696.37" font-family="Times,serif" font-size="14.00">MJI3&#45;8</text>
</g>
<!-- MJI3&#45;8&#45;&#45;V0DF&#45;2 -->
<g id="edge8" class="edge">
<title>MJI3&#45;8&#45;&#45;V0DF&#45;2</title>
<path fill="none" stroke="black" d="M865.36,-701.46C857.39,-701.73 849,-702.01 840.93,-702.28"/>
</g>
<!-- A&#45;DDGY -->
<g id="A&#45;DDGY" class="node">
<title>A&#45;DDGY</title>
<ellipse fill="none" stroke="black" cx="645.2" cy="-825.33" rx="48.19" ry="18"/>
<text text-anchor="middle" x="645.2" y="-821.63" font-family="Times,serif" font-size="14.00">A&#45;DDGY</text>
</g>
<!-- F&#45;749O -->
<g id="F&#45;749O" class="node">
<title>F&#45;749O</title>
<ellipse fill="none" stroke="black" cx="544.75" cy="-832.95" rx="44.39" ry="18"/>
<text text-anchor="middle" x="544.75" y="-829.25" font-family="Times,serif" font-size="14.00">F&#45;749O</text>
</g>
<!-- A&#45;DDGY&#45;&#45;F&#45;749O -->
<g id="edge9" class="edge">
<title>A&#45;DDGY&#45;&#45;F&#45;749O</title>
<path fill="none" stroke="black" d="M597.92,-828.91C594.76,-829.15 591.59,-829.39 588.45,-829.63"/>
</g>
<!-- F&#45;RT6Q -->
<g id="F&#45;RT6Q" class="node">
<title>F&#45;RT6Q</title>
<ellipse fill="none" stroke="black" cx="533.34" cy="-788.92" rx="45.5" ry="18"/>
<text text-anchor="middle" x="533.34" y="-785.22" font-family="Times,serif" font-size="14.00">F&#45;RT6Q</text>
</g>
<!-- F&#45;749O&#45;&#45;F&#45;RT6Q -->
<g id="edge10" class="edge">
<title>F&#45;749O&#45;&#45;F&#45;RT6Q</title>
<path fill="none" stroke="black" d="M540.11,-815.04C539.42,-812.37 538.7,-809.62 538.01,-806.96"/>
</g>
<!-- NL6V&#45;7 -->
<g id="NL6V&#45;7" class="node">
<title>NL6V&#45;7</title>
<ellipse fill="none" stroke="black" cx="498.48" cy="-913.62" rx="45" ry="18"/>
<text text-anchor="middle" x="498.48" y="-909.92" font-family="Times,serif" font-size="14.00">NL6V&#45;7</text>
</g>
<!-- F&#45;749O&#45;&#45;NL6V&#45;7 -->
<g id="edge11" class="edge">
<title>F&#45;749O&#45;&#45;NL6V&#45;7</title>
<path fill="none" stroke="black" d="M534.48,-850.85C526.76,-864.31 516.23,-882.66 508.56,-896.04"/>
</g>
<!-- N&#45;FK87 -->
<g id="N&#45;FK87" class="node">
<title>N&#45;FK87</title>
<ellipse fill="none" stroke="black" cx="562.79" cy="-744.88" rx="46.29" ry="18"/>
<text text-anchor="middle" x="562.79" y="-741.18" font-family="Times,serif" font-size="14.00">N&#45;FK87</text>
</g>
<!-- F&#45;RT6Q&#45;&#45;N&#45;FK87 -->
<g id="edge12" class="edge">
<title>F&#45;RT6Q&#45;&#45;N&#45;FK87</title>
<path fill="none" stroke="black" d="M544.98,-771.52C546.97,-768.53 549.04,-765.43 551.04,-762.45"/>
</g>
<!-- PNDN&#45;V -->
<g id="PNDN&#45;V" class="node">
<title>PNDN&#45;V</title>
<ellipse fill="none" stroke="black" cx="584.69" cy="-700.85" rx="48.99" ry="18"/>
<text text-anchor="middle" x="584.69" y="-697.15" font-family="Times,serif" font-size="14.00">PNDN&#45;V</text>
</g>
<!-- N&#45;FK87&#45;&#45;PNDN&#45;V -->
<g id="edge13" class="edge">
<title>N&#45;FK87&#45;&#45;PNDN&#45;V</title>
<path fill="none" stroke="black" d="M571.7,-726.97C573.07,-724.21 574.49,-721.36 575.86,-718.6"/>
</g>
<!-- B&#45;S42H -->
<g id="B&#45;S42H" class="node">
<title>B&#45;S42H</title>
<ellipse fill="none" stroke="black" cx="446.32" cy="-850.32" rx="46.29" ry="18"/>
<text text-anchor="middle" x="446.32" y="-846.62" font-family="Times,serif" font-size="14.00">B&#45;S42H</text>
</g>
<!-- B&#45;S42H&#45;&#45;F&#45;749O -->
<g id="edge14" class="edge">
<title>B&#45;S42H&#45;&#45;F&#45;749O</title>
<path fill="none" stroke="black" d="M488.63,-842.85C493.74,-841.95 498.94,-841.03 504.03,-840.13"/>
</g>
<!-- B&#45;S42H&#45;&#45;F&#45;RT6Q -->
<g id="edge15" class="edge">
<title>B&#45;S42H&#45;&#45;F&#45;RT6Q</title>
<path fill="none" stroke="black" d="M468.73,-834.51C481.72,-825.34 498.02,-813.84 511,-804.68"/>
</g>
<!-- GKP&#45;YT -->
<g id="GKP&#45;YT" class="node">
<title>GKP&#45;YT</title>
<ellipse fill="none" stroke="black" cx="401.37" cy="-916.71" rx="44.39" ry="18"/>
<text text-anchor="middle" x="401.37" y="-913.01" font-family="Times,serif" font-size="14.00">GKP&#45;YT</text>
</g>
<!-- B&#45;S42H&#45;&#45;GKP&#45;YT -->
<g id="edge16" class="edge">
<title>B&#45;S42H&#45;&#45;GKP&#45;YT</title>
<path fill="none" stroke="black" d="M434.51,-867.76C427.95,-877.44 419.82,-889.45 413.26,-899.15"/>
</g>
<!-- S8&#45;NSQ -->
<g id="S8&#45;NSQ" class="node">
<title>S8&#45;NSQ</title>
<ellipse fill="none" stroke="black" cx="301.71" cy="-874.37" rx="47.5" ry="18"/>
<text text-anchor="middle" x="301.71" y="-870.67" font-family="Times,serif" font-size="14.00">S8&#45;NSQ</text>
</g>
<!-- B&#45;S42H&#45;&#45;S8&#45;NSQ -->
<g id="edge17" class="edge">
<title>B&#45;S42H&#45;&#45;S8&#45;NSQ</title>
<path fill="none" stroke="black" d="M403.71,-857.41C385.3,-860.47 363.78,-864.05 345.26,-867.13"/>
</g>
<!-- GKP&#45;YT&#45;&#45;NL6V&#45;7 -->
<g id="edge18" class="edge">
<title>GKP&#45;YT&#45;&#45;NL6V&#45;7</title>
<path fill="none" stroke="black" d="M445.66,-915.3C448.26,-915.22 450.88,-915.13 453.48,-915.05"/>
</g>
<!-- 0&#45;YMBJ -->
<g id="_0&#45;YMBJ" class="node">
<title>0&#45;YMBJ</title>
<ellipse fill="none" stroke="black" cx="699.79" cy="-918.8" rx="44.39" ry="18"/>
<text text-anchor="middle" x="699.79" y="-915.1" font-family="Times,serif" font-size="14.00">0&#45;YMBJ</text>
</g>
<!-- UMI&#45;KK -->
<g id="UMI&#45;KK" class="node">
<title>UMI&#45;KK</title>
<ellipse fill="none" stroke="black" cx="599.46" cy="-939.03" rx="48.19" ry="18"/>
<text text-anchor="middle" x="599.46" y="-935.33" font-family="Times,serif" font-size="14.00">UMI&#45;KK</text>
</g>
<!-- 0&#45;YMBJ&#45;&#45;UMI&#45;KK -->
<g id="edge19" class="edge">
<title>0&#45;YMBJ&#45;&#45;UMI&#45;KK</title>
<path fill="none" stroke="black" d="M660.14,-926.79C654.22,-927.99 648.1,-929.22 642.13,-930.42"/>
</g>
<!-- KQK1&#45;2 -->
<g id="KQK1&#45;2" class="node">
<title>KQK1&#45;2</title>
<polygon fill="none" stroke="black" points="835.23,-946.49 764.23,-946.49 764.23,-910.49 835.23,-910.49 835.23,-946.49"/>
<text text-anchor="middle" x="799.73" y="-924.79" font-family="Times,serif" font-size="14.00">KQK1&#45;2</text>
</g>
<!-- 0&#45;YMBJ&#45;&#45;KQK1&#45;2 -->
<g id="edge20" class="edge">
<title>0&#45;YMBJ&#45;&#45;KQK1&#45;2</title>
<path fill="none" stroke="black" d="M743.04,-922.99C750.11,-923.68 757.36,-924.38 764.22,-925.05"/>
</g>
<!-- Y&#45;W1Q3 -->
<g id="Y&#45;W1Q3" class="node">
<title>Y&#45;W1Q3</title>
<polygon fill="none" stroke="black" points="593.96,-1001.06 522.96,-1001.06 522.96,-965.06 593.96,-965.06 593.96,-1001.06"/>
<text text-anchor="middle" x="558.46" y="-979.36" font-family="Times,serif" font-size="14.00">Y&#45;W1Q3</text>
</g>
<!-- UMI&#45;KK&#45;&#45;Y&#45;W1Q3 -->
<g id="edge21" class="edge">
<title>UMI&#45;KK&#45;&#45;Y&#45;W1Q3</title>
<path fill="none" stroke="black" d="M583.49,-956.18C580.79,-959.08 577.98,-962.09 575.26,-965.01"/>
</g>
<!-- AW1&#45;2I -->
<g id="AW1&#45;2I" class="node">
<title>AW1&#45;2I</title>
<ellipse fill="none" stroke="black" cx="596.83" cy="-877.01" rx="44.39" ry="18"/>
<text text-anchor="middle" x="596.83" y="-873.31" font-family="Times,serif" font-size="14.00">AW1&#45;2I</text>
</g>
<!-- AW1&#45;2I&#45;&#45;F&#45;749O -->
<g id="edge22" class="edge">
<title>AW1&#45;2I&#45;&#45;F&#45;749O</title>
<path fill="none" stroke="black" d="M577.44,-860.6C573.04,-856.88 568.37,-852.93 563.98,-849.22"/>
</g>
<!-- AW1&#45;2I&#45;&#45;F&#45;RT6Q -->
<g id="edge23" class="edge">
<title>AW1&#45;2I&#45;&#45;F&#45;RT6Q</title>
<path fill="none" stroke="black" d="M596.71,-858.74C596.05,-850.54 594.38,-840.96 590.54,-833.06 584.41,-820.42 572.69,-810.39 561.45,-803.11"/>
</g>
<!-- AW1&#45;2I&#45;&#45;B&#45;S42H -->
<g id="edge24" class="edge">
<title>AW1&#45;2I&#45;&#45;B&#45;S42H</title>
<path fill="none" stroke="black" d="M556.1,-869.78C535.12,-866.06 509.57,-861.53 488.39,-857.78"/>
</g>
<!-- AW1&#45;2I&#45;&#45;UMI&#45;KK -->
<g id="edge25" class="edge">
<title>AW1&#45;2I&#45;&#45;UMI&#45;KK</title>
<path fill="none" stroke="black" d="M597.61,-895.28C597.95,-903.28 598.34,-912.66 598.68,-920.67"/>
</g>
<!-- 15W&#45;GC -->
<g id="_15W&#45;GC" class="node">
<title>15W&#45;GC</title>
<ellipse fill="none" stroke="black" cx="495.17" cy="-648.98" rx="48.19" ry="18"/>
<text text-anchor="middle" x="495.17" y="-645.28" font-family="Times,serif" font-size="14.00">15W&#45;GC</text>
</g>
<!-- 15W&#45;GC&#45;&#45;E&#45;OGL4 -->
<g id="edge26" class="edge">
<title>15W&#45;GC&#45;&#45;E&#45;OGL4</title>
<path fill="none" stroke="black" d="M542.43,-652.58C545.6,-652.82 548.8,-653.07 551.96,-653.31"/>
</g>
<!-- 15W&#45;GC&#45;&#45;PNDN&#45;V -->
<g id="edge27" class="edge">
<title>15W&#45;GC&#45;&#45;PNDN&#45;V</title>
<path fill="none" stroke="black" d="M521.55,-664.26C533.1,-670.96 546.63,-678.8 558.19,-685.5"/>
</g>
<!-- C2X&#45;M5 -->
<g id="C2X&#45;M5" class="node">
<title>C2X&#45;M5</title>
<ellipse fill="none" stroke="black" cx="537.38" cy="-599.63" rx="48.19" ry="18"/>
<text text-anchor="middle" x="537.38" y="-595.93" font-family="Times,serif" font-size="14.00">C2X&#45;M5</text>
</g>
<!-- 15W&#45;GC&#45;&#45;C2X&#45;M5 -->
<g id="edge28" class="edge">
<title>15W&#45;GC&#45;&#45;C2X&#45;M5</title>
<path fill="none" stroke="black" d="M509.93,-631.72C514.02,-626.94 518.46,-621.75 522.55,-616.96"/>
</g>
<!-- MSHD&#45;4 -->
<g id="MSHD&#45;4" class="node">
<title>MSHD&#45;4</title>
<ellipse fill="none" stroke="black" cx="568.81" cy="-550.26" rx="50.09" ry="18"/>
<text text-anchor="middle" x="568.81" y="-546.56" font-family="Times,serif" font-size="14.00">MSHD&#45;4</text>
</g>
<!-- C2X&#45;M5&#45;&#45;MSHD&#45;4 -->
<g id="edge29" class="edge">
<title>C2X&#45;M5&#45;&#45;MSHD&#45;4</title>
<path fill="none" stroke="black" d="M548.55,-582.08C551.44,-577.54 554.56,-572.64 557.46,-568.08"/>
</g>
<!-- MSHD&#45;4&#45;&#45;9OO&#45;LH -->
<g id="edge30" class="edge">
<title>MSHD&#45;4&#45;&#45;9OO&#45;LH</title>
<path fill="none" stroke="black" d="M526.22,-540.78C520.41,-539.48 514.48,-538.16 508.78,-536.89"/>
</g>
<!-- H&#45;W9TY -->
<g id="H&#45;W9TY" class="node">
<title>H&#45;W9TY</title>
<ellipse fill="none" stroke="black" cx="565.6" cy="-487.45" rx="48.19" ry="18"/>
<text text-anchor="middle" x="565.6" y="-483.75" font-family="Times,serif" font-size="14.00">H&#45;W9TY</text>
</g>
<!-- H&#45;W9TY&#45;&#45;MSHD&#45;4 -->
<g id="edge31" class="edge">
<title>H&#45;W9TY&#45;&#45;MSHD&#45;4</title>
<path fill="none" stroke="black" d="M566.53,-505.62C566.95,-513.88 567.45,-523.64 567.87,-531.92"/>
</g>
<!-- D7&#45;ZAC -->
<g id="D7&#45;ZAC" class="node">
<title>D7&#45;ZAC</title>
<ellipse fill="none" stroke="black" cx="605.2" cy="-443.42" rx="46.29" ry="18"/>
<text text-anchor="middle" x="605.2" y="-439.72" font-family="Times,serif" font-size="14.00">D7&#45;ZAC</text>
</g>
<!-- D7&#45;ZAC&#45;&#45;H&#45;W9TY -->
<g id="edge32" class="edge">
<title>D7&#45;ZAC&#45;&#45;H&#45;W9TY</title>
<path fill="none" stroke="black" d="M589.77,-460.57C586.91,-463.76 583.91,-467.09 581.04,-470.28"/>
</g>
<!-- SH1&#45;6P -->
<g id="SH1&#45;6P" class="node">
<title>SH1&#45;6P</title>
<ellipse fill="none" stroke="black" cx="715.29" cy="-428.49" rx="46.29" ry="18"/>
<text text-anchor="middle" x="715.29" y="-424.79" font-family="Times,serif" font-size="14.00">SH1&#45;6P</text>
</g>
<!-- D7&#45;ZAC&#45;&#45;SH1&#45;6P -->
<g id="edge33" class="edge">
<title>D7&#45;ZAC&#45;&#45;SH1&#45;6P</title>
<path fill="none" stroke="black" d="M649.02,-437.48C656.46,-436.47 664.18,-435.42 671.61,-434.41"/>
</g>
<!-- WH&#45;JCA -->
<g id="WH&#45;JCA" class="node">
<title>WH&#45;JCA</title>
<ellipse fill="none" stroke="black" cx="531.13" cy="-362.47" rx="47.5" ry="18"/>
<text text-anchor="middle" x="531.13" y="-358.77" font-family="Times,serif" font-size="14.00">WH&#45;JCA</text>
</g>
<!-- D7&#45;ZAC&#45;&#45;WH&#45;JCA -->
<g id="edge34" class="edge">
<title>D7&#45;ZAC&#45;&#45;WH&#45;JCA</title>
<path fill="none" stroke="black" d="M589.49,-426.26C576.92,-412.52 559.38,-393.35 546.81,-379.61"/>
</g>
<!-- TRKN&#45;L -->
<g id="TRKN&#45;L" class="node">
<title>TRKN&#45;L</title>
<ellipse fill="none" stroke="black" cx="762.26" cy="-384.48" rx="47" ry="18"/>
<text text-anchor="middle" x="762.26" y="-380.78" font-family="Times,serif" font-size="14.00">TRKN&#45;L</text>
</g>
<!-- SH1&#45;6P&#45;&#45;TRKN&#45;L -->
<g id="edge35" class="edge">
<title>SH1&#45;6P&#45;&#45;TRKN&#45;L</title>
<path fill="none" stroke="black" d="M733.04,-411.85C736.79,-408.34 740.73,-404.65 744.48,-401.14"/>
</g>
<!-- WH&#45;JCA&#45;&#45;0J3L&#45;V -->
<g id="edge36" class="edge">
<title>WH&#45;JCA&#45;&#45;0J3L&#45;V</title>
<path fill="none" stroke="black" d="M484.96,-366.89C481.29,-367.24 477.65,-367.59 474.12,-367.92"/>
</g>
<!-- O&#45;0ERG -->
<g id="O&#45;0ERG" class="node">
<title>O&#45;0ERG</title>
<ellipse fill="none" stroke="black" cx="651.76" cy="-357.74" rx="48.19" ry="18"/>
<text text-anchor="middle" x="651.76" y="-354.04" font-family="Times,serif" font-size="14.00">O&#45;0ERG</text>
</g>
<!-- O&#45;0ERG&#45;&#45;SH1&#45;6P -->
<g id="edge37" class="edge">
<title>O&#45;0ERG&#45;&#45;SH1&#45;6P</title>
<path fill="none" stroke="black" d="M667.14,-374.87C676.98,-385.83 689.71,-400.01 699.61,-411.03"/>
</g>
<!-- O&#45;0ERG&#45;&#45;WH&#45;JCA -->
<g id="edge38" class="edge">
<title>O&#45;0ERG&#45;&#45;WH&#45;JCA</title>
<path fill="none" stroke="black" d="M603.74,-359.63C595.46,-359.95 586.86,-360.29 578.59,-360.61"/>
</g>
<!-- O&#45;0ERG&#45;&#45;TRKN&#45;L -->
<g id="edge39" class="edge">
<title>O&#45;0ERG&#45;&#45;TRKN&#45;L</title>
<path fill="none" stroke="black" d="M692.28,-367.55C702.13,-369.93 712.66,-372.48 722.48,-374.85"/>
</g>
<!-- Q&#45;CAB2 -->
<g id="Q&#45;CAB2" class="node">
<title>Q&#45;CAB2</title>
<ellipse fill="none" stroke="black" cx="595.33" cy="-313.32" rx="47.5" ry="18"/>
<text text-anchor="middle" x="595.33" y="-309.62" font-family="Times,serif" font-size="14.00">Q&#45;CAB2</text>
</g>
<!-- Q&#45;CAB2&#45;&#45;WH&#45;JCA -->
<g id="edge40" class="edge">
<title>Q&#45;CAB2&#45;&#45;WH&#45;JCA</title>
<path fill="none" stroke="black" d="M573.95,-329.69C567.1,-334.94 559.5,-340.75 552.63,-346.01"/>
</g>
<!-- 3A1P&#45;N -->
<g id="_3A1P&#45;N" class="node">
<title>3A1P&#45;N</title>
<polygon fill="none" stroke="black" points="693.88,-286.93 623.88,-286.93 623.88,-250.93 693.88,-250.93 693.88,-286.93"/>
<text text-anchor="middle" x="658.88" y="-265.23" font-family="Times,serif" font-size="14.00">3A1P&#45;N</text>
</g>
<!-- Q&#45;CAB2&#45;&#45;3A1P&#45;N -->
<g id="edge41" class="edge">
<title>Q&#45;CAB2&#45;&#45;3A1P&#45;N</title>
<path fill="none" stroke="black" d="M618.27,-297.29C622.97,-294.02 627.94,-290.54 632.73,-287.19"/>
</g>
<!-- PBD&#45;0G -->
<g id="PBD&#45;0G" class="node">
<title>PBD&#45;0G</title>
<ellipse fill="none" stroke="black" cx="246.71" cy="-701.68" rx="47.5" ry="18"/>
<text text-anchor="middle" x="246.71" y="-697.98" font-family="Times,serif" font-size="14.00">PBD&#45;0G</text>
</g>
<!-- L&#45;1HKR -->
<g id="L&#45;1HKR" class="node">
<title>L&#45;1HKR</title>
<ellipse fill="none" stroke="black" cx="258.85" cy="-646.99" rx="47" ry="18"/>
<text text-anchor="middle" x="258.85" y="-643.29" font-family="Times,serif" font-size="14.00">L&#45;1HKR</text>
</g>
<!-- 9GI&#45;FB -->
<g id="_9GI&#45;FB" class="node">
<title>9GI&#45;FB</title>
<ellipse fill="none" stroke="black" cx="346.92" cy="-691.34" rx="43.59" ry="18"/>
<text text-anchor="middle" x="346.92" y="-687.64" font-family="Times,serif" font-size="14.00">9GI&#45;FB</text>
</g>
<!-- 9GI&#45;FB&#45;&#45;PBD&#45;0G -->
<g id="edge42" class="edge">
<title>9GI&#45;FB&#45;&#45;PBD&#45;0G</title>
<path fill="none" stroke="black" d="M304.42,-695.72C300.58,-696.12 296.68,-696.52 292.81,-696.92"/>
</g>
<!-- 9GI&#45;FB&#45;&#45;L&#45;1HKR -->
<g id="edge43" class="edge">
<title>9GI&#45;FB&#45;&#45;L&#45;1HKR</title>
<path fill="none" stroke="black" d="M319.05,-677.31C308.97,-672.23 297.58,-666.49 287.44,-661.39"/>
</g>
<!-- DBT&#45;GB -->
<g id="DBT&#45;GB" class="node">
<title>DBT&#45;GB</title>
<ellipse fill="none" stroke="black" cx="445.4" cy="-693.14" rx="47" ry="18"/>
<text text-anchor="middle" x="445.4" y="-689.44" font-family="Times,serif" font-size="14.00">DBT&#45;GB</text>
</g>
<!-- 9GI&#45;FB&#45;&#45;DBT&#45;GB -->
<g id="edge44" class="edge">
<title>9GI&#45;FB&#45;&#45;DBT&#45;GB</title>
<path fill="none" stroke="black" d="M390.69,-692.14C393.26,-692.18 395.85,-692.23 398.43,-692.28"/>
</g>
<!-- DBT&#45;GB&#45;&#45;PNDN&#45;V -->
<g id="edge45" class="edge">
<title>DBT&#45;GB&#45;&#45;PNDN&#45;V</title>
<path fill="none" stroke="black" d="M491.78,-695.7C506.03,-696.49 521.74,-697.36 536.12,-698.16"/>
</g>
<!-- 3G&#45;LHB -->
<g id="_3G&#45;LHB" class="node">
<title>3G&#45;LHB</title>
<ellipse fill="none" stroke="black" cx="391.51" cy="-642.27" rx="47.5" ry="18"/>
<text text-anchor="middle" x="391.51" y="-638.57" font-family="Times,serif" font-size="14.00">3G&#45;LHB</text>
</g>
<!-- 3G&#45;LHB&#45;&#45;DBT&#45;GB -->
<g id="edge46" class="edge">
<title>3G&#45;LHB&#45;&#45;DBT&#45;GB</title>
<path fill="none" stroke="black" d="M409.45,-659.21C415.33,-664.76 421.86,-670.92 427.72,-676.45"/>
</g>
<!-- U&#45;W3WS -->
<g id="U&#45;W3WS" class="node">
<title>U&#45;W3WS</title>
<ellipse fill="none" stroke="black" cx="308.37" cy="-598.22" rx="51.5" ry="18"/>
<text text-anchor="middle" x="308.37" y="-594.52" font-family="Times,serif" font-size="14.00">U&#45;W3WS</text>
</g>
<!-- 3G&#45;LHB&#45;&#45;U&#45;W3WS -->
<g id="edge47" class="edge">
<title>3G&#45;LHB&#45;&#45;U&#45;W3WS</title>
<path fill="none" stroke="black" d="M363.83,-627.6C355.14,-623 345.53,-617.91 336.79,-613.28"/>
</g>
<!-- DL1C&#45;E -->
<g id="DL1C&#45;E" class="node">
<title>DL1C&#45;E</title>
<ellipse fill="none" stroke="black" cx="650.73" cy="-997.76" rx="46.29" ry="18"/>
<text text-anchor="middle" x="650.73" y="-994.06" font-family="Times,serif" font-size="14.00">DL1C&#45;E</text>
</g>
<!-- DL1C&#45;E&#45;&#45;UMI&#45;KK -->
<g id="edge48" class="edge">
<title>DL1C&#45;E&#45;&#45;UMI&#45;KK</title>
<path fill="none" stroke="black" d="M635.62,-980.46C629.01,-972.88 621.26,-964 614.63,-956.41"/>
</g>
<!-- YLS8&#45;J -->
<g id="YLS8&#45;J" class="node">
<title>YLS8&#45;J</title>
<ellipse fill="none" stroke="black" cx="607.82" cy="-1041.8" rx="41" ry="18"/>
<text text-anchor="middle" x="607.82" y="-1038.1" font-family="Times,serif" font-size="14.00">YLS8&#45;J</text>
</g>
<!-- DL1C&#45;E&#45;&#45;YLS8&#45;J -->
<g id="edge49" class="edge">
<title>DL1C&#45;E&#45;&#45;YLS8&#45;J</title>
<path fill="none" stroke="black" d="M634.26,-1014.7C630.95,-1018.1 627.48,-1021.6 624.17,-1025"/>
</g>
<!-- 2ISU&#45;Y -->
<g id="_2ISU&#45;Y" class="node">
<title>2ISU&#45;Y</title>
<ellipse fill="none" stroke="black" cx="747.91" cy="-1008.5" rx="41.69" ry="18"/>
<text text-anchor="middle" x="747.91" y="-1004.8" font-family="Times,serif" font-size="14.00">2ISU&#45;Y</text>
</g>
<!-- 2ISU&#45;Y&#45;&#45;DL1C&#45;E -->
<g id="edge50" class="edge">
<title>2ISU&#45;Y&#45;&#45;DL1C&#45;E</title>
<path fill="none" stroke="black" d="M707.54,-1004C703.47,-1003.6 699.33,-1003.1 695.22,-1002.7"/>
</g>
<!-- X&#45;CFN6 -->
<g id="X&#45;CFN6" class="node">
<title>X&#45;CFN6</title>
<ellipse fill="none" stroke="black" cx="660.95" cy="-1085.8" rx="47" ry="18"/>
<text text-anchor="middle" x="660.95" y="-1082.1" font-family="Times,serif" font-size="14.00">X&#45;CFN6</text>
</g>
<!-- X&#45;CFN6&#45;&#45;YLS8&#45;J -->
<g id="edge51" class="edge">
<title>X&#45;CFN6&#45;&#45;YLS8&#45;J</title>
<path fill="none" stroke="black" d="M641.16,-1069.4C636.56,-1065.6 631.67,-1061.6 627.09,-1057.8"/>
</g>
<!-- 9SL&#45;K9 -->
<g id="_9SL&#45;K9" class="node">
<title>9SL&#45;K9</title>
<ellipse fill="none" stroke="black" cx="696.85" cy="-1129.8" rx="44.39" ry="18"/>
<text text-anchor="middle" x="696.85" y="-1126.1" font-family="Times,serif" font-size="14.00">9SL&#45;K9</text>
</g>
<!-- 9SL&#45;K9&#45;&#45;X&#45;CFN6 -->
<g id="edge52" class="edge">
<title>9SL&#45;K9&#45;&#45;X&#45;CFN6</title>
<path fill="none" stroke="black" d="M682.86,-1112.7C680.27,-1109.5 677.55,-1106.2 674.95,-1103"/>
</g>
<!-- Y&#45;PZHM -->
<g id="Y&#45;PZHM" class="node">
<title>Y&#45;PZHM</title>
<ellipse fill="none" stroke="black" cx="734.52" cy="-1173.8" rx="48.19" ry="18"/>
<text text-anchor="middle" x="734.52" y="-1170.1" font-family="Times,serif" font-size="14.00">Y&#45;PZHM</text>
</g>
<!-- 9SL&#45;K9&#45;&#45;Y&#45;PZHM -->
<g id="edge53" class="edge">
<title>9SL&#45;K9&#45;&#45;Y&#45;PZHM</title>
<path fill="none" stroke="black" d="M711.52,-1147C714.25,-1150.2 717.1,-1153.5 719.82,-1156.7"/>
</g>
<!-- OY&#45;UZ1 -->
<g id="OY&#45;UZ1" class="node">
<title>OY&#45;UZ1</title>
<ellipse fill="none" stroke="black" cx="551.22" cy="-1098" rx="46.29" ry="18"/>
<text text-anchor="middle" x="551.22" y="-1094.3" font-family="Times,serif" font-size="14.00">OY&#45;UZ1</text>
</g>
<!-- OY&#45;UZ1&#45;&#45;YLS8&#45;J -->
<g id="edge54" class="edge">
<title>OY&#45;UZ1&#45;&#45;YLS8&#45;J</title>
<path fill="none" stroke="black" d="M568.2,-1081.1C575.36,-1074 583.69,-1065.7 590.85,-1058.6"/>
</g>
<!-- GIH&#45;ZG -->
<g id="GIH&#45;ZG" class="node">
<title>GIH&#45;ZG</title>
<ellipse fill="none" stroke="black" cx="302.67" cy="-919.66" rx="46.29" ry="18"/>
<text text-anchor="middle" x="302.67" y="-915.96" font-family="Times,serif" font-size="14.00">GIH&#45;ZG</text>
</g>
<!-- GIH&#45;ZG&#45;&#45;S8&#45;NSQ -->
<g id="edge55" class="edge">
<title>GIH&#45;ZG&#45;&#45;S8&#45;NSQ</title>
<path fill="none" stroke="black" d="M302.28,-901.5C302.22,-898.55 302.16,-895.49 302.09,-892.54"/>
</g>
<!-- V7&#45;FB4 -->
<g id="V7&#45;FB4" class="node">
<title>V7&#45;FB4</title>
<ellipse fill="none" stroke="black" cx="201.38" cy="-873.48" rx="45" ry="18"/>
<text text-anchor="middle" x="201.38" y="-869.78" font-family="Times,serif" font-size="14.00">V7&#45;FB4</text>
</g>
<!-- GIH&#45;ZG&#45;&#45;V7&#45;FB4 -->
<g id="edge56" class="edge">
<title>GIH&#45;ZG&#45;&#45;V7&#45;FB4</title>
<path fill="none" stroke="black" d="M272.55,-905.93C259.49,-899.98 244.23,-893.02 231.2,-887.08"/>
</g>
<!-- XD&#45;TOV -->
<g id="XD&#45;TOV" class="node">
<title>XD&#45;TOV</title>
<ellipse fill="none" stroke="black" cx="198.58" cy="-939.31" rx="47" ry="18"/>
<text text-anchor="middle" x="198.58" y="-935.61" font-family="Times,serif" font-size="14.00">XD&#45;TOV</text>
</g>
<!-- GIH&#45;ZG&#45;&#45;XD&#45;TOV -->
<g id="edge57" class="edge">
<title>GIH&#45;ZG&#45;&#45;XD&#45;TOV</title>
<path fill="none" stroke="black" d="M260.93,-927.54C254.26,-928.8 247.35,-930.1 240.67,-931.36"/>
</g>
<!-- L&#45;VXTK -->
<g id="L&#45;VXTK" class="node">
<title>L&#45;VXTK</title>
<ellipse fill="none" stroke="black" cx="249.46" cy="-986.06" rx="44.39" ry="18"/>
<text text-anchor="middle" x="249.46" y="-982.36" font-family="Times,serif" font-size="14.00">L&#45;VXTK</text>
</g>
<!-- GIH&#45;ZG&#45;&#45;L&#45;VXTK -->
<g id="edge58" class="edge">
<title>GIH&#45;ZG&#45;&#45;L&#45;VXTK</title>
<path fill="none" stroke="black" d="M288.69,-937.11C280.93,-946.79 271.31,-958.8 263.53,-968.5"/>
</g>
<!-- V7&#45;FB4&#45;&#45;XD&#45;TOV -->
<g id="edge59" class="edge">
<title>V7&#45;FB4&#45;&#45;XD&#45;TOV</title>
<path fill="none" stroke="black" d="M200.6,-891.82C200.21,-900.95 199.74,-911.95 199.36,-921.07"/>
</g>
<!-- L&#45;VXTK&#45;&#45;XD&#45;TOV -->
<g id="edge60" class="edge">
<title>L&#45;VXTK&#45;&#45;XD&#45;TOV</title>
<path fill="none" stroke="black" d="M231.38,-969.44C226.7,-965.14 221.65,-960.5 216.95,-956.18"/>
</g>
<!-- K&#45;6SNI -->
<g id="K&#45;6SNI" class="node">
<title>K&#45;6SNI</title>
<ellipse fill="none" stroke="black" cx="152.97" cy="-983.35" rx="43.59" ry="18"/>
<text text-anchor="middle" x="152.97" y="-979.65" font-family="Times,serif" font-size="14.00">K&#45;6SNI</text>
</g>
<!-- K&#45;6SNI&#45;&#45;XD&#45;TOV -->
<g id="edge61" class="edge">
<title>K&#45;6SNI&#45;&#45;XD&#45;TOV</title>
<path fill="none" stroke="black" d="M170.21,-966.7C173.75,-963.29 177.47,-959.69 181.01,-956.27"/>
</g>
<!-- K&#45;6SNI&#45;&#45;L&#45;VXTK -->
<g id="edge62" class="edge">
<title>K&#45;6SNI&#45;&#45;L&#45;VXTK</title>
<path fill="none" stroke="black" d="M196.7,-984.58C199.49,-984.65 202.3,-984.73 205.1,-984.81"/>
</g>
<!-- W&#45;UQA5 -->
<g id="W&#45;UQA5" class="node">
<title>W&#45;UQA5</title>
<ellipse fill="none" stroke="black" cx="50.05" cy="-1021.4" rx="50.09" ry="18"/>
<text text-anchor="middle" x="50.05" y="-1017.7" font-family="Times,serif" font-size="14.00">W&#45;UQA5</text>
</g>
<!-- K&#45;6SNI&#45;&#45;W&#45;UQA5 -->
<g id="edge63" class="edge">
<title>K&#45;6SNI&#45;&#45;W&#45;UQA5</title>
<path fill="none" stroke="black" d="M120.4,-995.4C109.21,-999.54 96.64,-1004.2 85.25,-1008.4"/>
</g>
<!-- C8VC&#45;S -->
<g id="C8VC&#45;S" class="node">
<title>C8VC&#45;S</title>
<ellipse fill="none" stroke="black" cx="197.72" cy="-1050.2" rx="46.29" ry="18"/>
<text text-anchor="middle" x="197.72" y="-1046.5" font-family="Times,serif" font-size="14.00">C8VC&#45;S</text>
</g>
<!-- C8VC&#45;S&#45;&#45;L&#45;VXTK -->
<g id="edge64" class="edge">
<title>C8VC&#45;S&#45;&#45;L&#45;VXTK</title>
<path fill="none" stroke="black" d="M211.58,-1033C219.01,-1023.8 228.13,-1012.5 235.56,-1003.3"/>
</g>
<!-- W6VP&#45;Y -->
<g id="W6VP&#45;Y" class="node">
<title>W6VP&#45;Y</title>
<ellipse fill="none" stroke="black" cx="493.7" cy="-318.46" rx="46.29" ry="18"/>
<text text-anchor="middle" x="493.7" y="-314.76" font-family="Times,serif" font-size="14.00">W6VP&#45;Y</text>
</g>
<!-- W6VP&#45;Y&#45;&#45;WH&#45;JCA -->
<g id="edge65" class="edge">
<title>W6VP&#45;Y&#45;&#45;WH&#45;JCA</title>
<path fill="none" stroke="black" d="M508.28,-335.6C510.99,-338.79 513.82,-342.12 516.53,-345.31"/>
</g>
<!-- IMK&#45;K1 -->
<g id="IMK&#45;K1" class="node">
<title>IMK&#45;K1</title>
<ellipse fill="none" stroke="black" cx="458.8" cy="-274.43" rx="45.5" ry="18"/>
<text text-anchor="middle" x="458.8" y="-270.73" font-family="Times,serif" font-size="14.00">IMK&#45;K1</text>
</g>
<!-- IMK&#45;K1&#45;&#45;W6VP&#45;Y -->
<g id="edge66" class="edge">
<title>IMK&#45;K1&#45;&#45;W6VP&#45;Y</title>
<path fill="none" stroke="black" d="M472.59,-291.83C475.03,-294.91 477.57,-298.11 480,-301.19"/>
</g>
<!-- NJ4X&#45;S -->
<g id="NJ4X&#45;S" class="node">
<title>NJ4X&#45;S</title>
<ellipse fill="none" stroke="black" cx="461.53" cy="-228.81" rx="43.59" ry="18"/>
<text text-anchor="middle" x="461.53" y="-225.11" font-family="Times,serif" font-size="14.00">NJ4X&#45;S</text>
</g>
<!-- IMK&#45;K1&#45;&#45;NJ4X&#45;S -->
<g id="edge67" class="edge">
<title>IMK&#45;K1&#45;&#45;NJ4X&#45;S</title>
<path fill="none" stroke="black" d="M459.88,-256.4C460.06,-253.31 460.25,-250.1 460.44,-247.01"/>
</g>
<!-- G9D&#45;XW -->
<g id="G9D&#45;XW" class="node">
<title>G9D&#45;XW</title>
<polygon fill="none" stroke="black" points="405.41,-248.4 328.41,-248.4 328.41,-212.4 405.41,-212.4 405.41,-248.4"/>
<text text-anchor="middle" x="366.91" y="-226.7" font-family="Times,serif" font-size="14.00">G9D&#45;XW</text>
</g>
<!-- NJ4X&#45;S&#45;&#45;G9D&#45;XW -->
<g id="edge68" class="edge">
<title>NJ4X&#45;S&#45;&#45;G9D&#45;XW</title>
<path fill="none" stroke="black" d="M417.82,-229.55C413.75,-229.61 409.65,-229.68 405.63,-229.75"/>
</g>
<!-- F&#45;G7BO -->
<g id="F&#45;G7BO" class="node">
<title>F&#45;G7BO</title>
<ellipse fill="none" stroke="black" cx="469.13" cy="-179.89" rx="47" ry="18"/>
<text text-anchor="middle" x="469.13" y="-176.19" font-family="Times,serif" font-size="14.00">F&#45;G7BO</text>
</g>
<!-- F&#45;G7BO&#45;&#45;NJ4X&#45;S -->
<g id="edge69" class="edge">
<title>F&#45;G7BO&#45;&#45;NJ4X&#45;S</title>
<path fill="none" stroke="black" d="M466.3,-198.11C465.66,-202.23 464.98,-206.62 464.34,-210.74"/>
</g>
<!-- 2CG&#45;5V -->
<g id="_2CG&#45;5V" class="node">
<title>2CG&#45;5V</title>
<ellipse fill="none" stroke="black" cx="474.75" cy="-135.85" rx="46.29" ry="18"/>
<text text-anchor="middle" x="474.75" y="-132.15" font-family="Times,serif" font-size="14.00">2CG&#45;5V</text>
</g>
<!-- 2CG&#45;5V&#45;&#45;Y5J&#45;EU -->
<g id="edge70" class="edge">
<title>2CG&#45;5V&#45;&#45;Y5J&#45;EU</title>
<path fill="none" stroke="black" d="M443.08,-122.59C435.82,-119.55 428.07,-116.3 420.73,-113.23"/>
</g>
<!-- 2CG&#45;5V&#45;&#45;F&#45;G7BO -->
<g id="edge71" class="edge">
<title>2CG&#45;5V&#45;&#45;F&#45;G7BO</title>
<path fill="none" stroke="black" d="M472.43,-154.01C472.1,-156.57 471.77,-159.2 471.44,-161.76"/>
</g>
<!-- QFF&#45;O6 -->
<g id="QFF&#45;O6" class="node">
<title>QFF&#45;O6</title>
<ellipse fill="none" stroke="black" cx="477.29" cy="-70.81" rx="46.29" ry="18"/>
<text text-anchor="middle" x="477.29" y="-67.11" font-family="Times,serif" font-size="14.00">QFF&#45;O6</text>
</g>
<!-- 2CG&#45;5V&#45;&#45;QFF&#45;O6 -->
<g id="edge72" class="edge">
<title>2CG&#45;5V&#45;&#45;QFF&#45;O6</title>
<path fill="none" stroke="black" d="M475.46,-117.73C475.81,-108.71 476.23,-97.83 476.59,-88.83"/>
</g>
<!-- QFF&#45;O6&#45;&#45;T&#45;ZWA1 -->
<g id="edge73" class="edge">
<title>QFF&#45;O6&#45;&#45;T&#45;ZWA1</title>
<path fill="none" stroke="black" d="M477.6,-52.63C477.7,-47.26 477.8,-41.39 477.89,-36.03"/>
</g>
</g>
</svg>
