<?xml version="1.0" encoding="UTF-8" standalone="no"?>
<!DOCTYPE svg PUBLIC "-//W3C//DTD SVG 1.1//EN"
 "http://www.w3.org/Graphics/SVG/1.1/DTD/svg11.dtd">
<!-- Generated by graphviz version 2.43.0 (0)
 -->
<!-- Pages: 1 -->
<svg width="1348pt" height="651pt"
 viewBox="0.00 0.00 1347.70 650.73" xmlns="http://www.w3.org/2000/svg" xmlns:xlink="http://www.w3.org/1999/xlink">
<g id="graph0" class="graph" transform="scale(1 1) rotate(0) translate(4 646.73)">
<polygon fill="white" stroke="transparent" points="-4,4 -4,-646.73 1343.7,-646.73 1343.7,4 -4,4"/>
<!-- Tannolen -->
<g id="Tannolen" class="node">
<title>Tannolen</title>
<polygon fill="none" stroke="black" points="384.95,-394.75 303.95,-394.75 303.95,-358.75 384.95,-358.75 384.95,-394.75"/>
<text text-anchor="middle" x="344.45" y="-373.05" font-family="Times,serif" font-size="14.00">Tannolen</text>
</g>
<!-- 6&#45;CZ49 -->
<g id="6&#45;CZ49" class="node">
<title>6&#45;CZ49</title>
<polygon fill="none" stroke="black" points="531.02,-642.73 463.02,-642.73 463.02,-606.73 531.02,-606.73 531.02,-642.73"/>
<text text-anchor="middle" x="497.02" y="-621.03" font-family="Times,serif" font-size="14.00">6&#45;CZ49</text>
</g>
<!-- Agoze -->
<g id="Agoze" class="node">
<title>Agoze</title>
<polygon fill="none" stroke="black" points="1023.01,-483.8 964.01,-483.8 964.01,-447.8 1023.01,-447.8 1023.01,-483.8"/>
<text text-anchor="middle" x="993.51" y="-462.1" font-family="Times,serif" font-size="14.00">Agoze</text>
</g>
<!-- Intaki -->
<g id="Intaki" class="node">
<title>Intaki</title>
<polygon fill="none" stroke="black" points="906.26,-458.08 848.26,-458.08 848.26,-422.08 906.26,-422.08 906.26,-458.08"/>
<text text-anchor="middle" x="877.26" y="-436.38" font-family="Times,serif" font-size="14.00">Intaki</text>
</g>
<!-- Stacmon -->
<g id="Stacmon" class="node">
<title>Stacmon</title>
<polygon fill="none" stroke="black" points="720.36,-101.88 641.36,-101.88 641.36,-65.88 720.36,-65.88 720.36,-101.88"/>
<text text-anchor="middle" x="680.86" y="-80.18" font-family="Times,serif" font-size="14.00">Stacmon</text>
</g>
<!-- Avaux -->
<g id="Avaux" class="node">
<title>Avaux</title>
<polygon fill="none" stroke="black" points="788.66,-106.47 728.66,-106.47 728.66,-70.47 788.66,-70.47 788.66,-106.47"/>
<text text-anchor="middle" x="758.66" y="-84.77" font-family="Times,serif" font-size="14.00">Avaux</text>
</g>
<!-- Mesybier -->
<g id="Mesybier" class="node">
<title>Mesybier</title>
<polygon fill="none" stroke="black" points="1339.7,-400.92 1256.7,-400.92 1256.7,-364.92 1339.7,-364.92 1339.7,-400.92"/>
<text text-anchor="middle" x="1298.2" y="-379.22" font-family="Times,serif" font-size="14.00">Mesybier</text>
</g>
<!-- Pemene -->
<g id="Pemene" class="node">
<title>Pemene</title>
<polygon fill="none" stroke="black" points="73,-251.42 0,-251.42 0,-215.42 73,-215.42 73,-251.42"/>
<text text-anchor="middle" x="36.5" y="-229.72" font-family="Times,serif" font-size="14.00">Pemene</text>
</g>
<!-- Indregulle -->
<g id="Indregulle" class="node">
<title>Indregulle</title>
<polygon fill="none" stroke="black" points="1222.3,-455.69 1132.3,-455.69 1132.3,-419.69 1222.3,-419.69 1222.3,-455.69"/>
<text text-anchor="middle" x="1177.3" y="-433.99" font-family="Times,serif" font-size="14.00">Indregulle</text>
</g>
<!-- Attyn -->
<g id="Attyn" class="node">
<title>Attyn</title>
<polygon fill="none" stroke="black" points="243.1,-326.42 187.1,-326.42 187.1,-290.42 243.1,-290.42 243.1,-326.42"/>
<text text-anchor="middle" x="215.1" y="-304.72" font-family="Times,serif" font-size="14.00">Attyn</text>
</g>
<!-- Aeschee -->
<g id="Aeschee" class="node">
<title>Aeschee</title>
<polygon fill="none" stroke="black" points="1249.9,-126.93 1174.9,-126.93 1174.9,-90.93 1249.9,-90.93 1249.9,-126.93"/>
<text text-anchor="middle" x="1212.4" y="-105.23" font-family="Times,serif" font-size="14.00">Aeschee</text>
</g>
<!-- Derririntel -->
<g id="Derririntel" class="node">
<title>Derririntel</title>
<polygon fill="none" stroke="black" points="491.39,-433.44 398.39,-433.44 398.39,-397.44 491.39,-397.44 491.39,-433.44"/>
<text text-anchor="middle" x="444.89" y="-411.74" font-family="Times,serif" font-size="14.00">Derririntel</text>
</g>
<!-- Tar -->
<g id="Tar" class="node">
<title>Tar</title>
<polygon fill="none" stroke="black" points="454.96,-157.19 400.96,-157.19 400.96,-121.19 454.96,-121.19 454.96,-157.19"/>
<text text-anchor="middle" x="427.96" y="-135.49" font-family="Times,serif" font-size="14.00">Tar</text>
</g>
<!-- Ourapheh -->
<g id="Ourapheh" class="node">
<title>Ourapheh</title>
<polygon fill="none" stroke="black" points="377.66,-229.67 290.66,-229.67 290.66,-193.67 377.66,-193.67 377.66,-229.67"/>
<text text-anchor="middle" x="334.16" y="-207.97" font-family="Times,serif" font-size="14.00">Ourapheh</text>
</g>
<!-- Yulai -->
<g id="Yulai" class="node">
<title>Yulai</title>
<polygon fill="none" stroke="black" points="529.27,-57.91 475.27,-57.91 475.27,-21.91 529.27,-21.91 529.27,-57.91"/>
<text text-anchor="middle" x="502.27" y="-36.21" font-family="Times,serif" font-size="14.00">Yulai</text>
</g>
<!-- Diaderi -->
<g id="Diaderi" class="node">
<title>Diaderi</title>
<polygon fill="none" stroke="black" points="466.1,-100.19 397.1,-100.19 397.1,-64.19 466.1,-64.19 466.1,-100.19"/>
<text text-anchor="middle" x="431.6" y="-78.49" font-family="Times,serif" font-size="14.00">Diaderi</text>
</g>
<!-- Murethand -->
<g id="Murethand" class="node">
<title>Murethand</title>
<ellipse fill="none" stroke="black" cx="1186.3" cy="-393.69" rx="62.5" ry="18"/>
<text text-anchor="middle" x="1186.3" y="-389.99" font-family="Times,serif" font-size="14.00">Murethand</text>
</g>
<!-- Murethand&#45;&#45;Mesybier -->
<g id="edge1" class="edge">
<title>Murethand&#45;&#45;Mesybier</title>
<path fill="none" stroke="black" d="M1245.5,-387.99C1249.2,-387.64 1252.9,-387.29 1256.4,-386.94"/>
</g>
<!-- Murethand&#45;&#45;Indregulle -->
<g id="edge2" class="edge">
<title>Murethand&#45;&#45;Indregulle</title>
<path fill="none" stroke="black" d="M1182.6,-411.84C1182.1,-414.4 1181.5,-417.03 1181,-419.58"/>
</g>
<!-- Melmaniel -->
<g id="Melmaniel" class="node">
<title>Melmaniel</title>
<ellipse fill="none" stroke="black" cx="1165.6" cy="-333.28" rx="60" ry="18"/>
<text text-anchor="middle" x="1165.6" y="-329.58" font-family="Times,serif" font-size="14.00">Melmaniel</text>
</g>
<!-- Melmaniel&#45;&#45;Murethand -->
<g id="edge3" class="edge">
<title>Melmaniel&#45;&#45;Murethand</title>
<path fill="none" stroke="black" d="M1171.8,-351.4C1174.4,-359.05 1177.5,-367.93 1180.1,-375.58"/>
</g>
<!-- Ouelletta -->
<g id="Ouelletta" class="node">
<title>Ouelletta</title>
<ellipse fill="none" stroke="black" cx="1061.8" cy="-378.12" rx="54" ry="18"/>
<text text-anchor="middle" x="1061.8" y="-374.42" font-family="Times,serif" font-size="14.00">Ouelletta</text>
</g>
<!-- Melmaniel&#45;&#45;Ouelletta -->
<g id="edge4" class="edge">
<title>Melmaniel&#45;&#45;Ouelletta</title>
<path fill="none" stroke="black" d="M1131.3,-348.09C1119.6,-353.14 1106.6,-358.77 1095,-363.79"/>
</g>
<!-- Costolle -->
<g id="Costolle" class="node">
<title>Costolle</title>
<ellipse fill="none" stroke="black" cx="1097.7" cy="-288.89" rx="48.19" ry="18"/>
<text text-anchor="middle" x="1097.7" y="-285.19" font-family="Times,serif" font-size="14.00">Costolle</text>
</g>
<!-- Costolle&#45;&#45;Melmaniel -->
<g id="edge5" class="edge">
<title>Costolle&#45;&#45;Melmaniel</title>
<path fill="none" stroke="black" d="M1121.8,-304.67C1127.7,-308.55 1134.1,-312.73 1140.1,-316.65"/>
</g>
<!-- Muetralle -->
<g id="Muetralle" class="node">
<title>Muetralle</title>
<ellipse fill="none" stroke="black" cx="1101.5" cy="-244.49" rx="56" ry="18"/>
<text text-anchor="middle" x="1101.5" y="-240.79" font-family="Times,serif" font-size="14.00">Muetralle</text>
</g>
<!-- Costolle&#45;&#45;Muetralle -->
<g id="edge6" class="edge">
<title>Costolle&#45;&#45;Muetralle</title>
<path fill="none" stroke="black" d="M1099.2,-270.83C1099.5,-268.14 1099.7,-265.37 1099.9,-262.68"/>
</g>
<!-- Loes -->
<g id="Loes" class="node">
<title>Loes</title>
<ellipse fill="none" stroke="black" cx="966.76" cy="-421.78" rx="32.5" ry="18"/>
<text text-anchor="middle" x="966.76" y="-418.08" font-family="Times,serif" font-size="14.00">Loes</text>
</g>
<!-- Loes&#45;&#45;Agoze -->
<g id="edge7" class="edge">
<title>Loes&#45;&#45;Agoze</title>
<path fill="none" stroke="black" d="M977.18,-438.93C978.94,-441.82 980.77,-444.84 982.55,-447.76"/>
</g>
<!-- Loes&#45;&#45;Ouelletta -->
<g id="edge8" class="edge">
<title>Loes&#45;&#45;Ouelletta</title>
<path fill="none" stroke="black" d="M992.24,-410.08C1003.8,-404.78 1017.6,-398.45 1029.8,-392.83"/>
</g>
<!-- Tourier -->
<g id="Tourier" class="node">
<title>Tourier</title>
<ellipse fill="none" stroke="black" cx="547.68" cy="-88.64" rx="44.39" ry="18"/>
<text text-anchor="middle" x="547.68" y="-84.94" font-family="Times,serif" font-size="14.00">Tourier</text>
</g>
<!-- Tourier&#45;&#45;Yulai -->
<g id="edge9" class="edge">
<title>Tourier&#45;&#45;Yulai</title>
<path fill="none" stroke="black" d="M531.8,-71.59C527.71,-67.2 523.29,-62.46 519.15,-58.02"/>
</g>
<!-- Tourier&#45;&#45;Diaderi -->
<g id="edge10" class="edge">
<title>Tourier&#45;&#45;Diaderi</title>
<path fill="none" stroke="black" d="M503.8,-86.2C491.34,-85.51 477.96,-84.77 466.14,-84.11"/>
</g>
<!-- Alenia -->
<g id="Alenia" class="node">
<title>Alenia</title>
<ellipse fill="none" stroke="black" cx="618.88" cy="-132.71" rx="39.79" ry="18"/>
<text text-anchor="middle" x="618.88" y="-129.01" font-family="Times,serif" font-size="14.00">Alenia</text>
</g>
<!-- Alenia&#45;&#45;Tourier -->
<g id="edge11" class="edge">
<title>Alenia&#45;&#45;Tourier</title>
<path fill="none" stroke="black" d="M595.17,-118.03C587.73,-113.43 579.5,-108.33 572.02,-103.7"/>
</g>
<!-- Alentene -->
<g id="Alentene" class="node">
<title>Alentene</title>
<ellipse fill="none" stroke="black" cx="683.67" cy="-247.83" rx="52" ry="18"/>
<text text-anchor="middle" x="683.67" y="-244.13" font-family="Times,serif" font-size="14.00">Alentene</text>
</g>
<!-- Alenia&#45;&#45;Alentene -->
<g id="edge12" class="edge">
<title>Alenia&#45;&#45;Alentene</title>
<path fill="none" stroke="black" d="M628.72,-150.19C640.83,-171.7 661.28,-208.04 673.53,-229.8"/>
</g>
<!-- Vaere -->
<g id="Vaere" class="node">
<title>Vaere</title>
<ellipse fill="none" stroke="black" cx="612.81" cy="-203.74" rx="37.09" ry="18"/>
<text text-anchor="middle" x="612.81" y="-200.04" font-family="Times,serif" font-size="14.00">Vaere</text>
</g>
<!-- Alenia&#45;&#45;Vaere -->
<g id="edge13" class="edge">
<title>Alenia&#45;&#45;Vaere</title>
<path fill="none" stroke="black" d="M617.32,-151C616.42,-161.53 615.29,-174.71 614.39,-185.26"/>
</g>
<!-- Alentene&#45;&#45;Vaere -->
<g id="edge14" class="edge">
<title>Alentene&#45;&#45;Vaere</title>
<path fill="none" stroke="black" d="M658.09,-231.91C650.8,-227.37 642.9,-222.46 635.77,-218.02"/>
</g>
<!-- Merolles -->
<g id="Merolles" class="node">
<title>Merolles</title>
<ellipse fill="none" stroke="black" cx="514.4" cy="-161" rx="51.5" ry="18"/>
<text text-anchor="middle" x="514.4" y="-157.3" font-family="Times,serif" font-size="14.00">Merolles</text>
</g>
<!-- Alentene&#45;&#45;Merolles -->
<g id="edge15" class="edge">
<title>Alentene&#45;&#45;Merolles</title>
<path fill="none" stroke="black" d="M639.7,-238.06C622.21,-233.22 602.26,-226.46 585.36,-217.54 565.45,-207.02 545.64,-190.61 532.03,-178.18"/>
</g>
<!-- Cistuvaert -->
<g id="Cistuvaert" class="node">
<title>Cistuvaert</title>
<ellipse fill="none" stroke="black" cx="717.88" cy="-195.15" rx="60" ry="18"/>
<text text-anchor="middle" x="717.88" y="-191.45" font-family="Times,serif" font-size="14.00">Cistuvaert</text>
</g>
<!-- Alentene&#45;&#45;Cistuvaert -->
<g id="edge16" class="edge">
<title>Alentene&#45;&#45;Cistuvaert</title>
<path fill="none" stroke="black" d="M695.26,-229.99C698.82,-224.5 702.75,-218.45 706.31,-212.96"/>
</g>
<!-- Scolluzer -->
<g id="Scolluzer" class="node">
<title>Scolluzer</title>
<ellipse fill="none" stroke="black" cx="646.87" cy="-302.56" rx="54" ry="18"/>
<text text-anchor="middle" x="646.87" y="-298.86" font-family="Times,serif" font-size="14.00">Scolluzer</text>
</g>
<!-- Alentene&#45;&#45;Scolluzer -->
<g id="edge17" class="edge">
<title>Alentene&#45;&#45;Scolluzer</title>
<path fill="none" stroke="black" d="M671.83,-265.44C667.62,-271.69 662.9,-278.73 658.7,-284.97"/>
</g>
<!-- Merolles&#45;&#45;Tar -->
<g id="edge18" class="edge">
<title>Merolles&#45;&#45;Tar</title>
<path fill="none" stroke="black" d="M472.7,-150.48C466.83,-149 460.92,-147.51 455.41,-146.12"/>
</g>
<!-- Merolles&#45;&#45;Tourier -->
<g id="edge19" class="edge">
<title>Merolles&#45;&#45;Tourier</title>
<path fill="none" stroke="black" d="M522.63,-143.11C527.75,-131.98 534.31,-117.71 539.44,-106.57"/>
</g>
<!-- Eletta -->
<g id="Eletta" class="node">
<title>Eletta</title>
<ellipse fill="none" stroke="black" cx="824.78" cy="-198.71" rx="39" ry="18"/>
<text text-anchor="middle" x="824.78" y="-195.01" font-family="Times,serif" font-size="14.00">Eletta</text>
</g>
<!-- Cistuvaert&#45;&#45;Eletta -->
<g id="edge20" class="edge">
<title>Cistuvaert&#45;&#45;Eletta</title>
<path fill="none" stroke="black" d="M777.58,-197.14C780.36,-197.23 783.11,-197.32 785.8,-197.41"/>
</g>
<!-- Sortet -->
<g id="Sortet" class="node">
<title>Sortet</title>
<ellipse fill="none" stroke="black" cx="623.78" cy="-352.29" rx="40.5" ry="18"/>
<text text-anchor="middle" x="623.78" y="-348.59" font-family="Times,serif" font-size="14.00">Sortet</text>
</g>
<!-- Scolluzer&#45;&#45;Sortet -->
<g id="edge21" class="edge">
<title>Scolluzer&#45;&#45;Sortet</title>
<path fill="none" stroke="black" d="M638.54,-320.51C636.42,-325.08 634.14,-329.98 632.03,-334.53"/>
</g>
<!-- Vay -->
<g id="Vay" class="node">
<title>Vay</title>
<ellipse fill="none" stroke="black" cx="899.59" cy="-243.62" rx="27.5" ry="18"/>
<text text-anchor="middle" x="899.59" y="-239.92" font-family="Times,serif" font-size="14.00">Vay</text>
</g>
<!-- Eletta&#45;&#45;Vay -->
<g id="edge22" class="edge">
<title>Eletta&#45;&#45;Vay</title>
<path fill="none" stroke="black" d="M848.86,-213.17C858.6,-219.01 869.73,-225.69 879.07,-231.3"/>
</g>
<!-- Luse -->
<g id="Luse" class="node">
<title>Luse</title>
<ellipse fill="none" stroke="black" cx="905.55" cy="-156.15" rx="32.5" ry="18"/>
<text text-anchor="middle" x="905.55" y="-152.45" font-family="Times,serif" font-size="14.00">Luse</text>
</g>
<!-- Eletta&#45;&#45;Luse -->
<g id="edge23" class="edge">
<title>Eletta&#45;&#45;Luse</title>
<path fill="none" stroke="black" d="M850.78,-185.01C860.74,-179.76 872.04,-173.8 881.78,-168.67"/>
</g>
<!-- Luse&#45;&#45;Vay -->
<g id="edge24" class="edge">
<title>Luse&#45;&#45;Vay</title>
<path fill="none" stroke="black" d="M904.31,-174.27C903.29,-189.29 901.85,-210.51 900.82,-225.52"/>
</g>
<!-- Aidart -->
<g id="Aidart" class="node">
<title>Aidart</title>
<ellipse fill="none" stroke="black" cx="737.25" cy="-132.5" rx="39.79" ry="18"/>
<text text-anchor="middle" x="737.25" y="-128.8" font-family="Times,serif" font-size="14.00">Aidart</text>
</g>
<!-- Aidart&#45;&#45;Stacmon -->
<g id="edge25" class="edge">
<title>Aidart&#45;&#45;Stacmon</title>
<path fill="none" stroke="black" d="M718.47,-116.31C713.22,-111.78 707.47,-106.82 702.09,-102.18"/>
</g>
<!-- Aidart&#45;&#45;Avaux -->
<g id="edge26" class="edge">
<title>Aidart&#45;&#45;Avaux</title>
<path fill="none" stroke="black" d="M745.84,-114.84C747.14,-112.16 748.49,-109.4 749.8,-106.71"/>
</g>
<!-- Aidart&#45;&#45;Cistuvaert -->
<g id="edge27" class="edge">
<title>Aidart&#45;&#45;Cistuvaert</title>
<path fill="none" stroke="black" d="M731.65,-150.62C729.1,-158.86 726.09,-168.59 723.54,-176.85"/>
</g>
<!-- Jufvitte -->
<g id="Jufvitte" class="node">
<title>Jufvitte</title>
<ellipse fill="none" stroke="black" cx="954.98" cy="-337.36" rx="45" ry="18"/>
<text text-anchor="middle" x="954.98" y="-333.66" font-family="Times,serif" font-size="14.00">Jufvitte</text>
</g>
<!-- Jufvitte&#45;&#45;Ouelletta -->
<g id="edge28" class="edge">
<title>Jufvitte&#45;&#45;Ouelletta</title>
<path fill="none" stroke="black" d="M987.63,-349.81C999.78,-354.45 1013.6,-359.73 1026.1,-364.47"/>
</g>
<!-- Scheenins -->
<g id="Scheenins" class="node">
<title>Scheenins</title>
<ellipse fill="none" stroke="black" cx="921.42" cy="-292.05" rx="58" ry="18"/>
<text text-anchor="middle" x="921.42" y="-288.35" font-family="Times,serif" font-size="14.00">Scheenins</text>
</g>
<!-- Jufvitte&#45;&#45;Scheenins -->
<g id="edge29" class="edge">
<title>Jufvitte&#45;&#45;Scheenins</title>
<path fill="none" stroke="black" d="M942.1,-319.97C939.59,-316.58 936.95,-313.02 934.43,-309.62"/>
</g>
<!-- Scheenins&#45;&#45;Vay -->
<g id="edge30" class="edge">
<title>Scheenins&#45;&#45;Vay</title>
<path fill="none" stroke="black" d="M913.29,-274.01C911.4,-269.82 909.39,-265.36 907.51,-261.18"/>
</g>
<!-- Ansalle -->
<g id="Ansalle" class="node">
<title>Ansalle</title>
<ellipse fill="none" stroke="black" cx="857.92" cy="-350.57" rx="44.39" ry="18"/>
<text text-anchor="middle" x="857.92" y="-346.87" font-family="Times,serif" font-size="14.00">Ansalle</text>
</g>
<!-- Ansalle&#45;&#45;Jufvitte -->
<g id="edge31" class="edge">
<title>Ansalle&#45;&#45;Jufvitte</title>
<path fill="none" stroke="black" d="M899.93,-344.85C904.03,-344.29 908.19,-343.73 912.29,-343.17"/>
</g>
<!-- Gisleres -->
<g id="Gisleres" class="node">
<title>Gisleres</title>
<ellipse fill="none" stroke="black" cx="756.89" cy="-346.59" rx="48.99" ry="18"/>
<text text-anchor="middle" x="756.89" y="-342.89" font-family="Times,serif" font-size="14.00">Gisleres</text>
</g>
<!-- Ansalle&#45;&#45;Gisleres -->
<g id="edge32" class="edge">
<title>Ansalle&#45;&#45;Gisleres</title>
<path fill="none" stroke="black" d="M813.9,-348.83C811.13,-348.72 808.34,-348.61 805.56,-348.5"/>
</g>
<!-- Gisleres&#45;&#45;Scolluzer -->
<g id="edge33" class="edge">
<title>Gisleres&#45;&#45;Scolluzer</title>
<path fill="none" stroke="black" d="M723.58,-333.26C710.3,-327.94 695.01,-321.82 681.59,-316.45"/>
</g>
<!-- Amygnon -->
<g id="Amygnon" class="node">
<title>Amygnon</title>
<ellipse fill="none" stroke="black" cx="866.01" cy="-394.81" rx="54" ry="18"/>
<text text-anchor="middle" x="866.01" y="-391.11" font-family="Times,serif" font-size="14.00">Amygnon</text>
</g>
<!-- Amygnon&#45;&#45;Intaki -->
<g id="edge34" class="edge">
<title>Amygnon&#45;&#45;Intaki</title>
<path fill="none" stroke="black" d="M870.52,-412.96C871.25,-415.91 872.01,-418.97 872.75,-421.92"/>
</g>
<!-- Amygnon&#45;&#45;Jufvitte -->
<g id="edge35" class="edge">
<title>Amygnon&#45;&#45;Jufvitte</title>
<path fill="none" stroke="black" d="M890.79,-378.81C903.44,-370.64 918.76,-360.75 931.25,-352.68"/>
</g>
<!-- Ellmay -->
<g id="Ellmay" class="node">
<title>Ellmay</title>
<ellipse fill="none" stroke="black" cx="758.99" cy="-393.09" rx="43" ry="18"/>
<text text-anchor="middle" x="758.99" y="-389.39" font-family="Times,serif" font-size="14.00">Ellmay</text>
</g>
<!-- Ellmay&#45;&#45;Gisleres -->
<g id="edge36" class="edge">
<title>Ellmay&#45;&#45;Gisleres</title>
<path fill="none" stroke="black" d="M758.17,-374.98C758.02,-371.61 757.86,-368.09 757.71,-364.73"/>
</g>
<!-- Theruesse -->
<g id="Theruesse" class="node">
<title>Theruesse</title>
<ellipse fill="none" stroke="black" cx="741.92" cy="-438.03" rx="58.5" ry="18"/>
<text text-anchor="middle" x="741.92" y="-434.33" font-family="Times,serif" font-size="14.00">Theruesse</text>
</g>
<!-- Ellmay&#45;&#45;Theruesse -->
<g id="edge37" class="edge">
<title>Ellmay&#45;&#45;Theruesse</title>
<path fill="none" stroke="black" d="M752.15,-411.11C751.03,-414.04 749.88,-417.08 748.77,-420.01"/>
</g>
<!-- Ekuenbiron -->
<g id="Ekuenbiron" class="node">
<title>Ekuenbiron</title>
<ellipse fill="none" stroke="black" cx="1028.3" cy="-148.38" rx="64.5" ry="18"/>
<text text-anchor="middle" x="1028.3" y="-144.68" font-family="Times,serif" font-size="14.00">Ekuenbiron</text>
</g>
<!-- Ekuenbiron&#45;&#45;Luse -->
<g id="edge38" class="edge">
<title>Ekuenbiron&#45;&#45;Luse</title>
<path fill="none" stroke="black" d="M965.5,-152.36C955.95,-152.96 946.43,-153.56 937.89,-154.1"/>
</g>
<!-- Raneilles -->
<g id="Raneilles" class="node">
<title>Raneilles</title>
<ellipse fill="none" stroke="black" cx="995.83" cy="-200.46" rx="53.5" ry="18"/>
<text text-anchor="middle" x="995.83" y="-196.76" font-family="Times,serif" font-size="14.00">Raneilles</text>
</g>
<!-- Ekuenbiron&#45;&#45;Raneilles -->
<g id="edge39" class="edge">
<title>Ekuenbiron&#45;&#45;Raneilles</title>
<path fill="none" stroke="black" d="M1017.2,-166.3C1013.8,-171.6 1010.2,-177.39 1006.9,-182.68"/>
</g>
<!-- Raneilles&#45;&#45;Vay -->
<g id="edge40" class="edge">
<title>Raneilles&#45;&#45;Vay</title>
<path fill="none" stroke="black" d="M963.52,-214.95C949.97,-221.03 934.55,-227.94 922.25,-233.46"/>
</g>
<!-- Hevrice -->
<g id="Hevrice" class="node">
<title>Hevrice</title>
<ellipse fill="none" stroke="black" cx="1104" cy="-196.99" rx="47" ry="18"/>
<text text-anchor="middle" x="1104" y="-193.29" font-family="Times,serif" font-size="14.00">Hevrice</text>
</g>
<!-- Hevrice&#45;&#45;Muetralle -->
<g id="edge41" class="edge">
<title>Hevrice&#45;&#45;Muetralle</title>
<path fill="none" stroke="black" d="M1103.1,-215.22C1102.9,-218.88 1102.7,-222.73 1102.5,-226.39"/>
</g>
<!-- Hevrice&#45;&#45;Raneilles -->
<g id="edge42" class="edge">
<title>Hevrice&#45;&#45;Raneilles</title>
<path fill="none" stroke="black" d="M1057.2,-198.49C1054.5,-198.58 1051.7,-198.67 1048.9,-198.76"/>
</g>
<!-- Jovainnon -->
<g id="Jovainnon" class="node">
<title>Jovainnon</title>
<ellipse fill="none" stroke="black" cx="1165.5" cy="-152.95" rx="56" ry="18"/>
<text text-anchor="middle" x="1165.5" y="-149.25" font-family="Times,serif" font-size="14.00">Jovainnon</text>
</g>
<!-- Hevrice&#45;&#45;Jovainnon -->
<g id="edge43" class="edge">
<title>Hevrice&#45;&#45;Jovainnon</title>
<path fill="none" stroke="black" d="M1126.2,-181.09C1131.4,-177.35 1137,-173.35 1142.3,-169.57"/>
</g>
<!-- Jovainnon&#45;&#45;Aeschee -->
<g id="edge44" class="edge">
<title>Jovainnon&#45;&#45;Aeschee</title>
<path fill="none" stroke="black" d="M1183.7,-135.81C1186.8,-132.91 1190,-129.9 1193.1,-126.98"/>
</g>
<!-- Claulenne -->
<g id="Claulenne" class="node">
<title>Claulenne</title>
<ellipse fill="none" stroke="black" cx="602" cy="-402.51" rx="57.39" ry="18"/>
<text text-anchor="middle" x="602" y="-398.81" font-family="Times,serif" font-size="14.00">Claulenne</text>
</g>
<!-- Claulenne&#45;&#45;Sortet -->
<g id="edge45" class="edge">
<title>Claulenne&#45;&#45;Sortet</title>
<path fill="none" stroke="black" d="M609.74,-384.66C611.79,-379.93 614.01,-374.81 616.07,-370.08"/>
</g>
<!-- Masalle -->
<g id="Masalle" class="node">
<title>Masalle</title>
<ellipse fill="none" stroke="black" cx="584.19" cy="-447.03" rx="47" ry="18"/>
<text text-anchor="middle" x="584.19" y="-443.33" font-family="Times,serif" font-size="14.00">Masalle</text>
</g>
<!-- Claulenne&#45;&#45;Masalle -->
<g id="edge46" class="edge">
<title>Claulenne&#45;&#45;Masalle</title>
<path fill="none" stroke="black" d="M594.75,-420.62C593.64,-423.41 592.48,-426.29 591.37,-429.08"/>
</g>
<!-- Annelle -->
<g id="Annelle" class="node">
<title>Annelle</title>
<ellipse fill="none" stroke="black" cx="568.09" cy="-491.76" rx="45.5" ry="18"/>
<text text-anchor="middle" x="568.09" y="-488.06" font-family="Times,serif" font-size="14.00">Annelle</text>
</g>
<!-- Annelle&#45;&#45;Masalle -->
<g id="edge47" class="edge">
<title>Annelle&#45;&#45;Masalle</title>
<path fill="none" stroke="black" d="M574.54,-473.83C575.59,-470.91 576.68,-467.89 577.73,-464.97"/>
</g>
<!-- Chesiette -->
<g id="Chesiette" class="node">
<title>Chesiette</title>
<ellipse fill="none" stroke="black" cx="542.94" cy="-536.36" rx="55.49" ry="18"/>
<text text-anchor="middle" x="542.94" y="-532.66" font-family="Times,serif" font-size="14.00">Chesiette</text>
</g>
<!-- Annelle&#45;&#45;Chesiette -->
<g id="edge48" class="edge">
<title>Annelle&#45;&#45;Chesiette</title>
<path fill="none" stroke="black" d="M558.15,-509.39C556.45,-512.41 554.68,-515.55 552.97,-518.57"/>
</g>
<!-- Reblier -->
<g id="Reblier" class="node">
<title>Reblier</title>
<ellipse fill="none" stroke="black" cx="518.21" cy="-580.69" rx="44.39" ry="18"/>
<text text-anchor="middle" x="518.21" y="-576.99" font-family="Times,serif" font-size="14.00">Reblier</text>
</g>
<!-- Chesiette&#45;&#45;Reblier -->
<g id="edge49" class="edge">
<title>Chesiette&#45;&#45;Reblier</title>
<path fill="none" stroke="black" d="M533.02,-554.14C531.41,-557.03 529.74,-560.02 528.13,-562.91"/>
</g>
<!-- Reblier&#45;&#45;6&#45;CZ49 -->
<g id="edge50" class="edge">
<title>Reblier&#45;&#45;6&#45;CZ49</title>
<path fill="none" stroke="black" d="M509.59,-598.6C508.31,-601.27 506.98,-604.02 505.7,-606.69"/>
</g>
<!-- Amoderia -->
<g id="Amoderia" class="node">
<title>Amoderia</title>
<ellipse fill="none" stroke="black" cx="136.28" cy="-245.05" rx="55.49" ry="18"/>
<text text-anchor="middle" x="136.28" y="-241.35" font-family="Times,serif" font-size="14.00">Amoderia</text>
</g>
<!-- Amoderia&#45;&#45;Pemene -->
<g id="edge51" class="edge">
<title>Amoderia&#45;&#45;Pemene</title>
<path fill="none" stroke="black" d="M84.05,-238.97C80.37,-238.54 76.71,-238.11 73.15,-237.7"/>
</g>
<!-- Arraron -->
<g id="Arraron" class="node">
<title>Arraron</title>
<ellipse fill="none" stroke="black" cx="246.33" cy="-259.27" rx="47" ry="18"/>
<text text-anchor="middle" x="246.33" y="-255.57" font-family="Times,serif" font-size="14.00">Arraron</text>
</g>
<!-- Amoderia&#45;&#45;Arraron -->
<g id="edge52" class="edge">
<title>Amoderia&#45;&#45;Arraron</title>
<path fill="none" stroke="black" d="M187.76,-251.7C192.46,-252.31 197.19,-252.92 201.82,-253.52"/>
</g>
<!-- Stou -->
<g id="Stou" class="node">
<title>Stou</title>
<ellipse fill="none" stroke="black" cx="172.22" cy="-201.02" rx="32.5" ry="18"/>
<text text-anchor="middle" x="172.22" y="-197.32" font-family="Times,serif" font-size="14.00">Stou</text>
</g>
<!-- Amoderia&#45;&#45;Stou -->
<g id="edge53" class="edge">
<title>Amoderia&#45;&#45;Stou</title>
<path fill="none" stroke="black" d="M150.48,-227.65C153.23,-224.28 156.1,-220.77 158.82,-217.44"/>
</g>
<!-- Arraron&#45;&#45;Attyn -->
<g id="edge54" class="edge">
<title>Arraron&#45;&#45;Attyn</title>
<path fill="none" stroke="black" d="M235.05,-277.01C232.33,-281.3 229.41,-285.89 226.67,-290.2"/>
</g>
<!-- Arraron&#45;&#45;Stou -->
<g id="edge55" class="edge">
<title>Arraron&#45;&#45;Stou</title>
<path fill="none" stroke="black" d="M225.69,-243.04C214.81,-234.49 201.56,-224.08 190.98,-215.76"/>
</g>
<!-- Chantrousse -->
<g id="Chantrousse" class="node">
<title>Chantrousse</title>
<ellipse fill="none" stroke="black" cx="370.72" cy="-265.62" rx="69.59" ry="18"/>
<text text-anchor="middle" x="370.72" y="-261.92" font-family="Times,serif" font-size="14.00">Chantrousse</text>
</g>
<!-- Arraron&#45;&#45;Chantrousse -->
<g id="edge56" class="edge">
<title>Arraron&#45;&#45;Chantrousse</title>
<path fill="none" stroke="black" d="M293,-261.65C296.03,-261.81 299.12,-261.96 302.23,-262.12"/>
</g>
<!-- Chantrousse&#45;&#45;Ourapheh -->
<g id="edge57" class="edge">
<title>Chantrousse&#45;&#45;Ourapheh</title>
<path fill="none" stroke="black" d="M358.54,-247.66C354.64,-241.89 350.31,-235.51 346.4,-229.74"/>
</g>
<!-- Osmomonne -->
<g id="Osmomonne" class="node">
<title>Osmomonne</title>
<ellipse fill="none" stroke="black" cx="516.53" cy="-308.25" rx="68.49" ry="18"/>
<text text-anchor="middle" x="516.53" y="-304.55" font-family="Times,serif" font-size="14.00">Osmomonne</text>
</g>
<!-- Chantrousse&#45;&#45;Osmomonne -->
<g id="edge58" class="edge">
<title>Chantrousse&#45;&#45;Osmomonne</title>
<path fill="none" stroke="black" d="M416.85,-279.11C434.04,-284.14 453.54,-289.83 470.7,-294.85"/>
</g>
<!-- Tierijev -->
<g id="Tierijev" class="node">
<title>Tierijev</title>
<ellipse fill="none" stroke="black" cx="439.2" cy="-352.29" rx="46.29" ry="18"/>
<text text-anchor="middle" x="439.2" y="-348.59" font-family="Times,serif" font-size="14.00">Tierijev</text>
</g>
<!-- Chantrousse&#45;&#45;Tierijev -->
<g id="edge59" class="edge">
<title>Chantrousse&#45;&#45;Tierijev</title>
<path fill="none" stroke="black" d="M384.91,-283.58C396.81,-298.65 413.72,-320.05 425.49,-334.94"/>
</g>
<!-- Osmomonne&#45;&#45;Scolluzer -->
<g id="edge60" class="edge">
<title>Osmomonne&#45;&#45;Scolluzer</title>
<path fill="none" stroke="black" d="M583.99,-305.31C587.1,-305.17 590.2,-305.03 593.26,-304.9"/>
</g>
<!-- Osmomonne&#45;&#45;Tierijev -->
<g id="edge61" class="edge">
<title>Osmomonne&#45;&#45;Tierijev</title>
<path fill="none" stroke="black" d="M487.74,-324.65C480.44,-328.8 472.63,-333.25 465.46,-337.33"/>
</g>
<!-- Tierijev&#45;&#45;Tannolen -->
<g id="edge62" class="edge">
<title>Tierijev&#45;&#45;Tannolen</title>
<path fill="none" stroke="black" d="M400.66,-362.24C395.54,-363.56 390.27,-364.92 385.11,-366.25"/>
</g>
<!-- Tierijev&#45;&#45;Derririntel -->
<g id="edge63" class="edge">
<title>Tierijev&#45;&#45;Derririntel</title>
<path fill="none" stroke="black" d="M440.84,-370.55C441.61,-379 442.51,-389.01 443.27,-397.43"/>
</g>
<!-- Adallier -->
<g id="Adallier" class="node">
<title>Adallier</title>
<ellipse fill="none" stroke="black" cx="567.93" cy="-258.52" rx="47" ry="18"/>
<text text-anchor="middle" x="567.93" y="-254.82" font-family="Times,serif" font-size="14.00">Adallier</text>
</g>
<!-- Adallier&#45;&#45;Alentene -->
<g id="edge64" class="edge">
<title>Adallier&#45;&#45;Alentene</title>
<path fill="none" stroke="black" d="M613.68,-254.3C620.12,-253.7 626.78,-253.08 633.3,-252.48"/>
</g>
<!-- Channace -->
<g id="Channace" class="node">
<title>Channace</title>
<ellipse fill="none" stroke="black" cx="593.8" cy="-18" rx="56" ry="18"/>
<text text-anchor="middle" x="593.8" y="-14.3" font-family="Times,serif" font-size="14.00">Channace</text>
</g>
<!-- Channace&#45;&#45;Tourier -->
<g id="edge65" class="edge">
<title>Channace&#45;&#45;Tourier</title>
<path fill="none" stroke="black" d="M582.16,-35.83C575.12,-46.61 566.17,-60.32 559.16,-71.06"/>
</g>
<!-- Clacille -->
<g id="Clacille" class="node">
<title>Clacille</title>
<ellipse fill="none" stroke="black" cx="810.7" cy="-245.24" rx="45" ry="18"/>
<text text-anchor="middle" x="810.7" y="-241.54" font-family="Times,serif" font-size="14.00">Clacille</text>
</g>
<!-- Clacille&#45;&#45;Eletta -->
<g id="edge66" class="edge">
<title>Clacille&#45;&#45;Eletta</title>
<path fill="none" stroke="black" d="M816.18,-227.12C817.23,-223.65 818.33,-220.02 819.38,-216.56"/>
</g>
<!-- Clellinon -->
<g id="Clellinon" class="node">
<title>Clellinon</title>
<ellipse fill="none" stroke="black" cx="953.03" cy="-102.73" rx="52" ry="18"/>
<text text-anchor="middle" x="953.03" y="-99.03" font-family="Times,serif" font-size="14.00">Clellinon</text>
</g>
<!-- Clellinon&#45;&#45;Luse -->
<g id="edge67" class="edge">
<title>Clellinon&#45;&#45;Luse</title>
<path fill="none" stroke="black" d="M937.48,-120.22C931.86,-126.55 925.53,-133.67 920,-139.89"/>
</g>
</g>
</svg>
